<svg width="35" height="35" viewBox="0 0 35 35" fill="none" xmlns="http://www.w3.org/2000/svg">
<path d="M3 32.0453V31.0672C3.69741 31.0045 4.14664 30.876 4.34769 30.6816C4.55503 30.4873 4.6587 30.0766 4.6587 29.4497V20.6C4.6587 19.9731 4.55503 19.5624 4.34769 19.368C4.14664 19.1737 3.69741 19.0452 3 18.9825V18.0044H9.65365C11.7459 18.0044 13.2758 18.2677 14.2434 18.7944C15.2109 19.3148 15.6947 20.1361 15.6947 21.2583C15.6947 22.111 15.3554 22.7975 14.6769 23.3179C14.0046 23.832 12.9553 24.2051 11.5291 24.4371C13.2381 24.6941 14.4884 25.1361 15.28 25.7631C16.0717 26.3838 16.4675 27.2396 16.4675 28.3305C16.4675 29.5656 15.9398 30.4935 14.8842 31.1142C13.8287 31.7349 12.2517 32.0453 10.1531 32.0453H3ZM8.14574 20.4872V23.9574H9.09761C10.1657 23.9574 10.9479 23.7631 11.4443 23.3744C11.9469 22.9794 12.1982 22.3649 12.1982 21.5311C12.1982 20.6972 11.9846 20.0514 11.5574 19.5938C11.1301 19.1361 10.527 18.9072 9.7479 18.9072C9.13845 18.9072 8.71749 19.0107 8.48502 19.2176C8.25884 19.4245 8.14574 19.8477 8.14574 20.4872ZM8.14574 24.9167V29.3462C8.14574 30.0798 8.25884 30.55 8.48502 30.7569C8.71749 30.9638 9.17301 31.0672 9.85157 31.0672C10.7689 31.0672 11.4789 30.8102 11.9815 30.2961C12.4904 29.7757 12.7449 29.0421 12.7449 28.0954C12.7449 27.0296 12.4559 26.2333 11.8778 25.7067C11.2998 25.18 10.4233 24.9167 9.2484 24.9167H8.14574Z" fill="black"/>
<path d="M23.074 20.6V29.4214C23.074 30.1236 23.1934 30.5751 23.4322 30.7757C23.6709 30.97 24.1516 31.0672 24.8741 31.0672C26.3192 31.0672 27.337 30.6252 27.9276 29.7412C28.5182 28.8509 28.8135 27.2741 28.8135 25.0107C28.8135 22.7537 28.5182 21.1862 27.9276 20.3085C27.337 19.4245 26.3192 18.9825 24.8741 18.9825C24.1516 18.9825 23.6709 19.0828 23.4322 19.2834C23.1934 19.4778 23.074 19.9166 23.074 20.6ZM17.9283 32.0453V31.0672C18.6257 30.9983 19.0749 30.8666 19.276 30.6722C19.4833 30.4779 19.587 30.0703 19.587 29.4497V20.6C19.587 19.9793 19.4833 19.5718 19.276 19.3774C19.0749 19.1831 18.6257 19.0514 17.9283 18.9825V18.0044H24.6762C27.2522 18.0044 29.2219 18.6063 30.5853 19.8101C31.9487 21.0076 32.6304 22.7411 32.6304 25.0107C32.6304 27.2866 31.9487 29.0296 30.5853 30.2396C29.2219 31.4434 27.2522 32.0453 24.6762 32.0453H17.9283Z" fill="black"/>
<path fill-rule="evenodd" clip-rule="evenodd" d="M32.6304 15.8699C32.6304 16.0092 32.5175 16.1221 32.3783 16.1221H3.25217C3.1129 16.1221 3 16.0092 3 15.8699V12.5646C3 12.4253 3.1129 12.3124 3.25217 12.3124H14.4C14.3706 12.3123 14.3438 12.3034 14.3213 12.2844C13.2589 11.3868 9.4834 8.02655 9.69507 5.77338C9.94124 3.15296 11.9946 2.92153 13.983 3.01686C14.0467 3.01991 14.1094 3.02596 14.1711 3.03487C14.1772 3.03574 14.1833 3.03443 14.1884 3.03115L14.1927 3.02836C14.2024 3.02212 14.2154 3.02529 14.2211 3.03532C14.2241 3.04054 14.2293 3.04417 14.2353 3.04523C16.4063 3.43273 17.305 7.38463 17.569 8.87979C17.5716 8.89413 17.5764 8.90701 17.5836 8.91965L17.6982 9.12023C17.7583 9.22544 17.9219 9.19681 17.9416 9.07723C18.1638 7.72454 19.0983 3.13494 21.5613 3.01686C23.5497 2.92153 25.603 3.15296 25.8492 5.77337C26.0609 8.02655 22.2854 11.3868 21.223 12.2844C21.2004 12.3034 21.1737 12.3123 21.1442 12.3124H32.3783C32.5175 12.3124 32.6304 12.4253 32.6304 12.5646V15.8699ZM20.8086 10.6024C19.9937 10.1437 20.1331 8.35069 21.12 6.59758C22.1068 4.84446 23.5674 3.79514 24.3823 4.25384C25.1972 4.71255 25.0578 6.50558 24.0709 8.25869C23.0841 10.0118 21.6235 11.0611 20.8086 10.6024ZM14.0752 7.48124C14.7052 8.98525 15.7029 10.0005 16.3039 9.74879C16.9048 9.49711 16.8813 8.07385 16.2513 6.56984C15.6214 5.06582 14.6236 4.05061 14.0227 4.30228C13.4218 4.55396 13.4453 5.97723 14.0752 7.48124Z" fill="white"/>
<path fill-rule="evenodd" clip-rule="evenodd" d="M32.6304 15.8699C32.6304 16.0092 32.5175 16.1221 32.3783 16.1221H3.25217C3.1129 16.1221 3 16.0092 3 15.8699V12.5646C3 12.4253 3.1129 12.3124 3.25217 12.3124H14.4C14.3706 12.3123 14.3438 12.3034 14.3213 12.2844C13.2589 11.3868 9.4834 8.02655 9.69507 5.77338C9.94124 3.15296 11.9946 2.92153 13.983 3.01686C14.0467 3.01991 14.1094 3.02596 14.1711 3.03487C14.1772 3.03574 14.1833 3.03443 14.1884 3.03115L14.1927 3.02836C14.2024 3.02212 14.2154 3.02529 14.2211 3.03532C14.2241 3.04054 14.2293 3.04417 14.2353 3.04523C16.4063 3.43273 17.305 7.38463 17.569 8.87979C17.5716 8.89413 17.5764 8.90701 17.5836 8.91965L17.6982 9.12023C17.7583 9.22544 17.9219 9.19681 17.9416 9.07723C18.1638 7.72454 19.0983 3.13494 21.5613 3.01686C23.5497 2.92153 25.603 3.15296 25.8492 5.77337C26.0609 8.02655 22.2854 11.3868 21.223 12.2844C21.2004 12.3034 21.1737 12.3123 21.1442 12.3124H32.3783C32.5175 12.3124 32.6304 12.4253 32.6304 12.5646V15.8699ZM20.8086 10.6024C19.9937 10.1437 20.1331 8.35069 21.12 6.59758C22.1068 4.84446 23.5674 3.79514 24.3823 4.25384C25.1972 4.71255 25.0578 6.50558 24.0709 8.25869C23.0841 10.0118 21.6235 11.0611 20.8086 10.6024ZM14.0752 7.48124C14.7052 8.98525 15.7029 10.0005 16.3039 9.74879C16.9048 9.49711 16.8813 8.07385 16.2513 6.56984C15.6214 5.06582 14.6236 4.05061 14.0227 4.30228C13.4218 4.55396 13.4453 5.97723 14.0752 7.48124Z" fill="black" fill-opacity="0.2"/>
<path fill-rule="evenodd" clip-rule="evenodd" d="M32.6304 15.8699C32.6304 16.0092 32.5175 16.1221 32.3783 16.1221H3.25217C3.1129 16.1221 3 16.0092 3 15.8699V12.5646C3 12.4253 3.1129 12.3124 3.25217 12.3124H14.4C14.3706 12.3123 14.3438 12.3034 14.3213 12.2844C13.2589 11.3868 9.4834 8.02655 9.69507 5.77338C9.94124 3.15296 11.9946 2.92153 13.983 3.01686C14.0467 3.01991 14.1094 3.02596 14.1711 3.03487C14.1772 3.03574 14.1833 3.03443 14.1884 3.03115L14.1927 3.02836C14.2024 3.02212 14.2154 3.02529 14.2211 3.03532C14.2241 3.04054 14.2293 3.04417 14.2353 3.04523C16.4063 3.43273 17.305 7.38463 17.569 8.87979C17.5716 8.89413 17.5764 8.90701 17.5836 8.91965L17.6982 9.12023C17.7583 9.22544 17.9219 9.19681 17.9416 9.07723C18.1638 7.72454 19.0983 3.13494 21.5613 3.01686C23.5497 2.92153 25.603 3.15296 25.8492 5.77337C26.0609 8.02655 22.2854 11.3868 21.223 12.2844C21.2004 12.3034 21.1737 12.3123 21.1442 12.3124H32.3783C32.5175 12.3124 32.6304 12.4253 32.6304 12.5646V15.8699ZM20.8086 10.6024C19.9937 10.1437 20.1331 8.35069 21.12 6.59758C22.1068 4.84446 23.5674 3.79514 24.3823 4.25384C25.1972 4.71255 25.0578 6.50558 24.0709 8.25869C23.0841 10.0118 21.6235 11.0611 20.8086 10.6024ZM14.0752 7.48124C14.7052 8.98525 15.7029 10.0005 16.3039 9.74879C16.9048 9.49711 16.8813 8.07385 16.2513 6.56984C15.6214 5.06582 14.6236 4.05061 14.0227 4.30228C13.4218 4.55396 13.4453 5.97723 14.0752 7.48124Z" fill="url(#paint0_radial_5_5)"/>
<defs>
<radialGradient id="paint0_radial_5_5" cx="0" cy="0" r="1" gradientUnits="userSpaceOnUse" gradientTransform="translate(17.8783 16.8696) rotate(-90) scale(13.8696 11.4971)">
<stop offset="0.105082" stop-color="#FF8E95"/>
<stop offset="1" stop-color="#FE545E"/>
</radialGradient>
</defs>
</svg>
