<svg width="310" height="310" viewBox="0 0 310 310" fill="none" xmlns="http://www.w3.org/2000/svg">
<rect width="310" height="310" fill="url(#paint0_radial_31_596)"/>
<path d="M12 282.191V272.718C18.7551 272.111 23.1063 270.866 25.0538 268.983C27.062 267.101 28.0662 263.123 28.0662 257.05V171.333C28.0662 165.26 27.062 161.282 25.0538 159.4C23.1063 157.517 18.7551 156.272 12 155.665V146.191H76.4472C96.7125 146.191 111.531 148.742 120.903 153.843C130.275 158.884 134.961 166.839 134.961 177.709C134.961 185.968 131.675 192.618 125.102 197.658C118.59 202.638 108.427 206.251 94.6129 208.498C111.166 210.988 123.276 215.269 130.944 221.342C138.612 227.354 142.446 235.644 142.446 246.21C142.446 258.174 137.334 267.161 127.11 273.173C116.886 279.185 101.611 282.191 81.2853 282.191H12ZM61.8416 170.24V203.852H71.0614C81.407 203.852 88.9837 201.97 93.7914 198.205C98.6599 194.379 101.094 188.428 101.094 180.351C101.094 172.274 99.025 166.019 94.8868 161.586C90.7485 157.153 84.9063 154.936 77.3601 154.936C71.457 154.936 67.3796 155.938 65.1279 157.942C62.937 159.946 61.8416 164.045 61.8416 170.24ZM61.8416 213.144V256.048C61.8416 263.153 62.937 267.708 65.1279 269.712C67.3796 271.716 71.7917 272.718 78.3642 272.718C87.2493 272.718 94.1261 270.228 98.9946 265.248C103.924 260.208 106.389 253.103 106.389 243.933C106.389 233.609 103.589 225.897 97.9905 220.796C92.3916 215.694 83.9021 213.144 72.5219 213.144H61.8416Z" fill="white"/>
<path d="M206.437 171.333V256.777C206.437 263.578 207.593 267.951 209.906 269.894C212.218 271.777 216.874 272.718 223.872 272.718C237.869 272.718 247.728 268.437 253.449 259.874C259.169 251.251 262.03 235.978 262.03 214.055C262.03 192.193 259.169 177.011 253.449 168.509C247.728 159.946 237.869 155.665 223.872 155.665C216.874 155.665 212.218 156.637 209.906 158.58C207.593 160.462 206.437 164.713 206.437 171.333ZM156.595 282.191V272.718C163.351 272.05 167.702 270.775 169.649 268.892C171.657 267.009 172.662 263.062 172.662 257.05V171.333C172.662 165.321 171.657 161.373 169.649 159.491C167.702 157.608 163.351 156.333 156.595 155.665V146.191H221.955C246.907 146.191 265.985 152.021 279.191 163.681C292.397 175.28 299 192.071 299 214.055C299 236.099 292.397 252.981 279.191 264.702C265.985 276.362 246.907 282.191 221.955 282.191H156.595Z" fill="white"/>
<path fill-rule="evenodd" clip-rule="evenodd" d="M273 127C273 128.105 272.105 129 271 129H40C38.8954 129 38 128.105 38 127V100.786C38 99.6811 38.8954 98.7857 40 98.7857H128.414C128.18 98.7848 127.968 98.7142 127.79 98.563C119.364 91.4443 89.4201 64.7943 91.0988 46.9242C93.0512 26.1417 109.336 24.3062 125.106 25.0622C125.612 25.0865 126.109 25.1344 126.599 25.2051C126.646 25.212 126.695 25.2016 126.736 25.1756L126.77 25.1535C126.847 25.1039 126.95 25.1291 126.995 25.2087C127.019 25.2501 127.06 25.2788 127.107 25.2872C144.326 28.3605 151.453 59.7031 153.548 71.5613C153.568 71.675 153.606 71.7772 153.663 71.8774L154.572 73.4682C155.049 74.3027 156.346 74.0756 156.502 73.1272C158.265 62.3989 165.676 25.9987 185.21 25.0622C200.98 24.3062 217.265 26.1416 219.218 46.9242C220.897 64.7942 190.953 91.4443 182.527 98.563C182.348 98.7142 182.136 98.7848 181.902 98.7857H271C272.105 98.7857 273 99.6811 273 100.786V127ZM179.241 85.2235C172.778 81.5855 173.884 67.365 181.71 53.461C189.537 39.557 201.121 31.2348 207.584 34.8728C214.047 38.5108 212.941 52.7313 205.114 66.6353C197.287 80.5393 185.704 88.8615 179.241 85.2235ZM125.838 60.4693C130.834 72.3977 138.747 80.4494 143.513 78.4534C148.279 76.4573 148.093 65.1693 143.097 53.241C138.101 41.3126 130.188 33.2609 125.422 35.257C120.656 37.253 120.842 48.541 125.838 60.4693Z" fill="#D9D9D9"/>
<path fill-rule="evenodd" clip-rule="evenodd" d="M273 127C273 128.105 272.105 129 271 129H40C38.8954 129 38 128.105 38 127V100.786C38 99.6811 38.8954 98.7857 40 98.7857H128.414C128.18 98.7848 127.968 98.7142 127.79 98.563C119.364 91.4443 89.4201 64.7943 91.0988 46.9242C93.0512 26.1417 109.336 24.3062 125.106 25.0622C125.612 25.0865 126.109 25.1344 126.599 25.2051C126.646 25.212 126.695 25.2016 126.736 25.1756L126.77 25.1535C126.847 25.1039 126.95 25.1291 126.995 25.2087C127.019 25.2501 127.06 25.2788 127.107 25.2872C144.326 28.3605 151.453 59.7031 153.548 71.5613C153.568 71.675 153.606 71.7772 153.663 71.8774L154.572 73.4682C155.049 74.3027 156.346 74.0756 156.502 73.1272C158.265 62.3989 165.676 25.9987 185.21 25.0622C200.98 24.3062 217.265 26.1416 219.218 46.9242C220.897 64.7942 190.953 91.4443 182.527 98.563C182.348 98.7142 182.136 98.7848 181.902 98.7857H271C272.105 98.7857 273 99.6811 273 100.786V127ZM179.241 85.2235C172.778 81.5855 173.884 67.365 181.71 53.461C189.537 39.557 201.121 31.2348 207.584 34.8728C214.047 38.5108 212.941 52.7313 205.114 66.6353C197.287 80.5393 185.704 88.8615 179.241 85.2235ZM125.838 60.4693C130.834 72.3977 138.747 80.4494 143.513 78.4534C148.279 76.4573 148.093 65.1693 143.097 53.241C138.101 41.3126 130.188 33.2609 125.422 35.257C120.656 37.253 120.842 48.541 125.838 60.4693Z" fill="white"/>
<defs>
<radialGradient id="paint0_radial_31_596" cx="0" cy="0" r="1" gradientUnits="userSpaceOnUse" gradientTransform="translate(155 155) scale(155 193)">
<stop stop-color="#FF8E95"/>
<stop offset="1" stop-color="#FE545E"/>
</radialGradient>
</defs>
</svg>
