<svg width="1800" height="1720" viewBox="0 0 1800 1720" fill="none" xmlns="http://www.w3.org/2000/svg">
<g clip-path="url(#clip0_119_6794)">
<path d="M1247.7 378.264C1257.29 362.768 1268.84 348.836 1281.87 336.722L1268.69 288.618L1341.53 249.802L1374.14 287.558C1391.5 283.47 1409.47 281.652 1427.69 282.309L1452.38 239L1531.32 263.027L1527.69 312.746C1543.18 322.336 1557.11 333.895 1569.23 346.918L1617.33 333.744L1656.2 406.581L1618.44 439.188C1622.53 456.502 1624.35 474.522 1623.69 492.743L1667 517.426L1642.97 596.371L1593.25 592.737C1583.66 608.233 1572.1 622.164 1559.08 634.279L1572.26 682.382L1499.42 721.249L1466.81 683.493C1449.5 687.581 1431.48 689.398 1413.26 688.742L1388.57 732.051L1309.63 708.024L1313.26 658.305C1297.77 648.715 1283.84 637.156 1271.72 624.133L1223.62 637.307L1184.8 564.47L1222.56 531.862C1218.47 514.549 1216.65 496.529 1217.31 478.307L1174 453.625L1198.03 374.68L1247.75 378.314L1247.7 378.264ZM1313.97 453.069C1296.05 511.924 1329.26 574.111 1388.07 591.98C1446.87 609.899 1509.11 576.685 1526.98 517.88C1544.9 459.076 1511.69 396.839 1452.88 378.97C1394.03 361.051 1331.84 394.265 1313.97 453.069Z" fill="#EBEBEB"/>
<path d="M1468.05 1392.53H1509.73V1350.85H1468.05V1392.53Z" fill="#E0E0E0"/>
<path d="M1359.74 1392.53H1401.42V1350.85H1359.74V1392.53Z" fill="#E0E0E0"/>
<path d="M1522.28 1077.79H1480.6V1119.47H1522.28V1077.79Z" fill="#E0E0E0"/>
<path d="M1463.94 1077.79H1422.26V1119.47H1463.94V1077.79Z" fill="#E0E0E0"/>
<path d="M1413.93 1077.79H1372.25V1119.47H1413.93V1077.79Z" fill="#E0E0E0"/>
<path d="M1522.28 1027.78H1480.6V1069.46H1522.28V1027.78Z" fill="#E0E0E0"/>
<path d="M1413.93 1027.78H1372.25V1069.46H1413.93V1027.78Z" fill="#E0E0E0"/>
<path d="M1355.59 1027.78H1313.91V1069.46H1355.59V1027.78Z" fill="#E0E0E0"/>
<path d="M1463.94 969.438H1422.26V1011.12H1463.94V969.438Z" fill="#E0E0E0"/>
<path d="M1413.93 969.438H1372.25V1011.12H1413.93V969.438Z" fill="#E0E0E0"/>
<path d="M1522.28 911.101H1480.6V952.781H1522.28V911.101Z" fill="#E0E0E0"/>
<path d="M1463.94 911.101H1422.26V952.781H1463.94V911.101Z" fill="#E0E0E0"/>
<path d="M1413.93 911.101H1372.25V952.781H1413.93V911.101Z" fill="#E0E0E0"/>
<path d="M1604.55 856.799H1562.87V898.48H1604.55V856.799Z" fill="#E0E0E0"/>
<path d="M1604.55 908.882H1562.87V950.562H1604.55V908.882Z" fill="#E0E0E0"/>
<path d="M1522.28 852.762H1480.6V894.443H1522.28V852.762Z" fill="#E0E0E0"/>
<path d="M1413.93 852.762H1372.25V894.443H1413.93V852.762Z" fill="#E0E0E0"/>
<path d="M1355.59 852.762H1313.91V894.443H1355.59V852.762Z" fill="#E0E0E0"/>
<path d="M1666.99 884.841H1625.31V926.521H1666.99V884.841Z" fill="#E0E0E0"/>
<path d="M1463.94 802.753H1422.26V844.433H1463.94V802.753Z" fill="#E0E0E0"/>
<path d="M1413.93 802.753H1372.25V844.433H1413.93V802.753Z" fill="#E0E0E0"/>
<path d="M1463.94 744.415H1422.26V786.095H1463.94V744.415Z" fill="#E0E0E0"/>
<path d="M1413.93 744.415H1372.25V786.095H1413.93V744.415Z" fill="#E0E0E0"/>
<path d="M1355.59 744.415H1313.91V786.095H1355.59V744.415Z" fill="#E0E0E0"/>
<path d="M1522.28 686.077H1480.6V727.757H1522.28V686.077Z" fill="#E0E0E0"/>
<path d="M1413.93 686.077H1372.25V727.757H1413.93V686.077Z" fill="#E0E0E0"/>
<path d="M1355.59 686.077H1313.91V727.757H1355.59V686.077Z" fill="#E0E0E0"/>
<path d="M1413.93 636.067H1372.25V677.748H1413.93V636.067Z" fill="#E0E0E0"/>
<path d="M1522.28 577.729H1480.6V619.41H1522.28V577.729Z" fill="#E0E0E0"/>
<path d="M1463.94 577.729H1422.26V619.41H1463.94V577.729Z" fill="#E0E0E0"/>
<path d="M1413.93 577.729H1372.25V619.41H1413.93V577.729Z" fill="#E0E0E0"/>
<path d="M1355.59 577.729H1313.91V619.41H1355.59V577.729Z" fill="#E0E0E0"/>
<path d="M1463.94 519.392H1422.26V561.072H1463.94V519.392Z" fill="#E0E0E0"/>
<path d="M1355.59 519.392H1313.91V561.072H1355.59V519.392Z" fill="#E0E0E0"/>
<path d="M1413.93 469.382H1372.25V511.063H1413.93V469.382Z" fill="#E0E0E0"/>
<path d="M1393.09 375.51H1351.41V417.191H1393.09V375.51Z" fill="#E0E0E0"/>
<path d="M1463.94 1302.81H1422.26V1344.49H1463.94V1302.81Z" fill="#E0E0E0"/>
<path d="M1522.28 1244.47H1480.6V1286.15H1522.28V1244.47Z" fill="#E0E0E0"/>
<path d="M1463.94 1244.47H1422.26V1286.15H1463.94V1244.47Z" fill="#E0E0E0"/>
<path d="M1413.93 1244.47H1372.25V1286.15H1413.93V1244.47Z" fill="#E0E0E0"/>
<path d="M1401.42 1435.96H1359.74V1477.64H1401.42V1435.96Z" fill="#E0E0E0"/>
<path d="M1413.93 1194.46H1372.25V1236.14H1413.93V1194.46Z" fill="#E0E0E0"/>
<path d="M1355.59 1194.46H1313.91V1236.14H1355.59V1194.46Z" fill="#E0E0E0"/>
<path d="M1463.94 1136.12H1422.26V1177.8H1463.94V1136.12Z" fill="#E0E0E0"/>
<path d="M1413.93 1136.12H1372.25V1177.8H1413.93V1136.12Z" fill="#E0E0E0"/>
<path d="M1583.74 981.804H1542.06V1023.48H1583.74V981.804Z" fill="#E0E0E0"/>
<path d="M344.167 504.407H302.486V546.087H344.167V504.407Z" fill="#E0E0E0"/>
<path d="M452.513 504.407H410.833V546.087H452.513V504.407Z" fill="#E0E0E0"/>
<path d="M331.655 777.476H289.975V819.156H331.655V777.476Z" fill="#E0E0E0"/>
<path d="M389.993 777.476H348.312V819.156H389.993V777.476Z" fill="#E0E0E0"/>
<path d="M440.003 777.476H398.322V819.156H440.003V777.476Z" fill="#E0E0E0"/>
<path d="M331.655 827.485H289.975V869.165H331.655V827.485Z" fill="#E0E0E0"/>
<path d="M440.003 827.485H398.322V869.165H440.003V827.485Z" fill="#E0E0E0"/>
<path d="M498.341 827.485H456.66V869.165H498.341V827.485Z" fill="#E0E0E0"/>
<path d="M389.993 885.823H348.312V927.504H389.993V885.823Z" fill="#E0E0E0"/>
<path d="M440.003 885.823H398.322V927.504H440.003V885.823Z" fill="#E0E0E0"/>
<path d="M331.655 944.161H289.975V985.842H331.655V944.161Z" fill="#E0E0E0"/>
<path d="M389.993 944.161H348.312V985.842H389.993V944.161Z" fill="#E0E0E0"/>
<path d="M440.003 944.161H398.322V985.842H440.003V944.161Z" fill="#E0E0E0"/>
<path d="M249.386 998.499H207.705V1040.18H249.386V998.499Z" fill="#E0E0E0"/>
<path d="M249.386 946.416H207.705V988.096H249.386V946.416Z" fill="#E0E0E0"/>
<path d="M331.655 1002.5H289.975V1044.18H331.655V1002.5Z" fill="#E0E0E0"/>
<path d="M440.003 1002.5H398.322V1044.18H440.003V1002.5Z" fill="#E0E0E0"/>
<path d="M498.341 1002.5H456.66V1044.18H498.341V1002.5Z" fill="#E0E0E0"/>
<path d="M186.937 970.457H145.257V1012.14H186.937V970.457Z" fill="#E0E0E0"/>
<path d="M389.993 1052.51H348.312V1094.19H389.993V1052.51Z" fill="#E0E0E0"/>
<path d="M440.003 1052.51H398.322V1094.19H440.003V1052.51Z" fill="#E0E0E0"/>
<path d="M389.993 1110.85H348.312V1152.53H389.993V1110.85Z" fill="#E0E0E0"/>
<path d="M440.003 1110.85H398.322V1152.53H440.003V1110.85Z" fill="#E0E0E0"/>
<path d="M498.341 1110.85H456.66V1152.53H498.341V1110.85Z" fill="#E0E0E0"/>
<path d="M331.655 1169.18H289.975V1210.86H331.655V1169.18Z" fill="#E0E0E0"/>
<path d="M440.003 1169.18H398.322V1210.86H440.003V1169.18Z" fill="#E0E0E0"/>
<path d="M498.341 1169.18H456.66V1210.86H498.341V1169.18Z" fill="#E0E0E0"/>
<path d="M440.003 1219.19H398.322V1260.87H440.003V1219.19Z" fill="#E0E0E0"/>
<path d="M331.655 1277.53H289.975V1319.21H331.655V1277.53Z" fill="#E0E0E0"/>
<path d="M389.993 1277.53H348.312V1319.21H389.993V1277.53Z" fill="#E0E0E0"/>
<path d="M440.003 1277.53H398.322V1319.21H440.003V1277.53Z" fill="#E0E0E0"/>
<path d="M498.341 1277.53H456.66V1319.21H498.341V1277.53Z" fill="#E0E0E0"/>
<path d="M389.993 1335.87H348.312V1377.55H389.993V1335.87Z" fill="#E0E0E0"/>
<path d="M498.341 1335.87H456.66V1377.55H498.341V1335.87Z" fill="#E0E0E0"/>
<path d="M331.655 1385.88H289.975V1427.56H331.655V1385.88Z" fill="#E0E0E0"/>
<path d="M440.003 1385.88H398.322V1427.56H440.003V1385.88Z" fill="#E0E0E0"/>
<path d="M460.843 1479.79H419.162V1521.47H460.843V1479.79Z" fill="#E0E0E0"/>
<path d="M389.993 552.489H348.312V594.169H389.993V552.489Z" fill="#E0E0E0"/>
<path d="M331.655 610.827H289.975V652.507H331.655V610.827Z" fill="#E0E0E0"/>
<path d="M389.993 610.827H348.312V652.507H389.993V610.827Z" fill="#E0E0E0"/>
<path d="M440.003 610.827H398.322V652.507H440.003V610.827Z" fill="#E0E0E0"/>
<path d="M452.513 419.3H410.833V460.981H452.513V419.3Z" fill="#E0E0E0"/>
<path d="M440.003 660.799H398.322V702.48H440.003V660.799Z" fill="#E0E0E0"/>
<path d="M498.341 660.799H456.66V702.48H498.341V660.799Z" fill="#E0E0E0"/>
<path d="M389.993 719.138H348.312V760.818H389.993V719.138Z" fill="#E0E0E0"/>
<path d="M440.003 719.138H398.322V760.818H440.003V719.138Z" fill="#E0E0E0"/>
<path d="M270.189 873.494H228.509V915.174H270.189V873.494Z" fill="#E0E0E0"/>
<path d="M1064.93 1630.58L550.912 1630.29C489.082 1630.29 439 1580.13 439 1518.3L439.255 229.629C439.255 167.763 489.446 117.645 551.275 117.681L1065.3 117.972C1127.13 118.008 1177.21 168.127 1177.21 229.956L1176.95 1518.63C1176.95 1580.5 1126.76 1630.62 1064.93 1630.58Z" fill="#263238"/>
<path d="M1064.79 163.544L965.134 163.471C951.786 163.471 940.947 174.782 940.947 188.749V206.825C940.947 220.791 930.109 232.102 916.725 232.102L722.47 231.993C709.123 231.993 698.284 220.645 698.284 206.679V188.603C698.284 174.637 687.446 163.289 674.098 163.289H639.037L551.821 163.217C508.504 163.217 473.37 198.314 473.37 241.631L473.115 1499.46C473.115 1542.78 508.176 1577.88 551.493 1577.91L1064.5 1578.21C1107.81 1578.21 1142.95 1543.11 1142.95 1499.79L1143.2 241.958C1143.2 198.678 1108.14 163.544 1064.82 163.544H1064.79Z" fill="white"/>
<path d="M1344.86 1514.99L1342.32 1636.83L1502.67 1640.62C1502.13 1626.11 1419.93 1595.08 1419.93 1595.08L1424.95 1517.1L1344.86 1515.03V1514.99Z" fill="currentColor"/>
<g opacity="0.6">
<path d="M1370.5 1587.37C1367.38 1588.1 1365.16 1591.34 1365.78 1594.32C1366.43 1597.3 1369.89 1599.48 1373.01 1598.79C1376.14 1598.1 1378.94 1594.28 1377.96 1591.41C1376.98 1588.5 1372.72 1586.17 1369.85 1587.55" fill="white"/>
</g>
<g opacity="0.6">
<path d="M1342.32 1636.84L1343.08 1624.58L1496.56 1632.8C1496.56 1632.8 1503.62 1635.89 1502.71 1640.62L1342.35 1636.84H1342.32Z" fill="white"/>
</g>
<path d="M1422.51 1594.39C1422.48 1595.12 1418.55 1595.37 1414.62 1597.66C1410.66 1599.85 1408.58 1603.01 1407.86 1602.72C1407.13 1602.57 1408.44 1598.17 1413.2 1595.48C1417.97 1592.75 1422.69 1593.74 1422.48 1594.43L1422.51 1594.39Z" fill="#263238"/>
<path d="M1439.17 1601.34C1439.32 1602.06 1435.9 1603.23 1433.17 1606.32C1430.33 1609.3 1429.57 1612.68 1428.8 1612.61C1428.08 1612.72 1427.64 1608.36 1431.13 1604.61C1434.59 1600.83 1439.21 1600.65 1439.21 1601.34H1439.17Z" fill="#263238"/>
<path d="M1448.23 1620.61C1447.5 1620.76 1446.52 1617.05 1448.63 1613.01C1450.7 1608.98 1454.45 1607.48 1454.77 1608.1C1455.21 1608.72 1452.77 1610.83 1451.06 1614.14C1449.28 1617.41 1448.99 1620.54 1448.23 1620.58V1620.61Z" fill="#263238"/>
<path d="M1421.6 1576.5C1421.24 1577.15 1417.68 1576.06 1413.28 1576.24C1408.84 1576.35 1405.35 1577.66 1404.98 1577.01C1404.55 1576.46 1407.97 1573.81 1413.2 1573.66C1418.44 1573.48 1422.04 1575.91 1421.64 1576.5H1421.6Z" fill="#263238"/>
<path d="M1418.26 1558.42C1418.26 1558.71 1415.17 1559.11 1410.22 1558.2C1407.78 1557.73 1404.87 1556.93 1401.89 1555.55C1400.4 1554.86 1398.87 1554.06 1397.35 1553.11C1396.62 1552.64 1395.74 1552.16 1394.98 1551.26C1394.14 1550.46 1393.71 1548.49 1394.73 1547.33C1395.56 1546.16 1397.05 1545.73 1398.22 1545.73C1399.42 1545.73 1400.36 1545.98 1401.24 1546.2C1403.02 1546.64 1404.66 1547.25 1406.18 1547.95C1409.2 1549.33 1411.67 1551.07 1413.46 1552.71C1417.09 1556.06 1418.29 1558.86 1418 1559C1417.64 1559.22 1415.89 1556.89 1412.18 1554.09C1410.33 1552.71 1407.97 1551.26 1405.13 1550.09C1403.71 1549.51 1402.18 1549 1400.55 1548.64C1398.87 1548.16 1397.42 1548.13 1396.94 1548.82C1396.76 1549.07 1396.76 1549.18 1397.09 1549.66C1397.45 1550.09 1398.11 1550.53 1398.84 1551C1400.22 1551.91 1401.64 1552.71 1403.02 1553.4C1405.78 1554.78 1408.44 1555.73 1410.69 1556.38C1415.24 1557.69 1418.26 1557.98 1418.26 1558.38V1558.42Z" fill="#263238"/>
<path d="M1417.2 1559.44C1416.91 1559.55 1415.42 1556.86 1415.28 1552.06C1415.2 1549.69 1415.53 1546.82 1416.58 1543.76C1417.13 1542.24 1417.82 1540.71 1418.77 1539.22C1419.75 1537.73 1420.95 1535.76 1424 1535.51C1425.6 1535.51 1426.88 1536.71 1427.31 1537.69C1427.82 1538.74 1427.9 1539.62 1428.08 1540.49C1428.33 1542.27 1428.26 1544.02 1427.93 1545.62C1427.35 1548.82 1425.86 1551.47 1424.3 1553.36C1421.06 1557.22 1417.78 1558.02 1417.71 1557.77C1417.46 1557.4 1420.22 1556.02 1422.73 1552.31C1423.97 1550.49 1425.1 1548.05 1425.46 1545.25C1425.64 1543.84 1425.68 1542.38 1425.46 1540.85C1425.24 1539.25 1424.66 1537.91 1424 1538.09C1423.2 1538.09 1421.82 1539.25 1421.13 1540.53C1420.26 1541.87 1419.57 1543.25 1419.02 1544.6C1417.93 1547.33 1417.42 1549.91 1417.28 1552.13C1416.95 1556.57 1417.71 1559.37 1417.28 1559.47L1417.2 1559.44Z" fill="#263238"/>
<path d="M1223.31 1525.14L1208 1646.04L1048.81 1626.29C1051.5 1612.03 1137.33 1593.37 1137.33 1593.37L1143.81 1515.47L1223.35 1525.14H1223.31Z" fill="currentColor"/>
<g opacity="0.6">
<path d="M1187.34 1592.94C1190.32 1594.1 1192.07 1597.66 1190.98 1600.5C1189.92 1603.34 1186.14 1605.01 1183.16 1603.88C1180.14 1602.76 1177.92 1598.57 1179.34 1595.85C1180.76 1593.12 1185.27 1591.44 1187.92 1593.19" fill="white"/>
</g>
<g opacity="0.6">
<path d="M1208 1646L1209.05 1633.74L1056.04 1619.38C1056.04 1619.38 1048.59 1621.41 1048.84 1626.25L1208.04 1646H1208Z" fill="white"/>
</g>
<path d="M1134.86 1592.28C1134.79 1593.01 1138.64 1593.85 1142.17 1596.68C1145.77 1599.45 1147.37 1602.86 1148.13 1602.65C1148.86 1602.61 1148.24 1598.06 1143.88 1594.68C1139.55 1591.26 1134.75 1591.59 1134.86 1592.28Z" fill="#263238"/>
<path d="M1117.36 1596.72C1117.11 1597.41 1120.31 1599.08 1122.56 1602.5C1124.93 1605.88 1125.18 1609.3 1125.98 1609.37C1126.71 1609.59 1127.77 1605.34 1124.86 1601.12C1121.98 1596.86 1117.47 1595.99 1117.36 1596.68V1596.72Z" fill="#263238"/>
<path d="M1105.58 1614.43C1106.27 1614.69 1107.8 1611.12 1106.27 1606.87C1104.78 1602.57 1101.33 1600.54 1100.93 1601.12C1100.42 1601.66 1102.53 1604.14 1103.69 1607.63C1104.96 1611.12 1104.82 1614.25 1105.58 1614.43Z" fill="#263238"/>
<path d="M1138.39 1574.71C1138.64 1575.44 1142.31 1574.86 1146.68 1575.7C1151.04 1576.42 1154.32 1578.24 1154.79 1577.7C1155.3 1577.22 1152.28 1574.1 1147.15 1573.19C1142.02 1572.24 1138.1 1574.13 1138.39 1574.75V1574.71Z" fill="#263238"/>
<path d="M1144.35 1557.33C1144.32 1557.62 1147.33 1558.46 1152.32 1558.27C1154.79 1558.17 1157.77 1557.77 1160.94 1556.89C1162.54 1556.46 1164.17 1555.87 1165.81 1555.15C1166.61 1554.78 1167.52 1554.46 1168.43 1553.66C1169.37 1553 1170.1 1551.11 1169.27 1549.8C1168.57 1548.53 1167.19 1547.87 1166.07 1547.69C1164.9 1547.51 1163.92 1547.62 1163.05 1547.69C1161.23 1547.87 1159.48 1548.24 1157.88 1548.67C1154.68 1549.62 1152.03 1550.96 1149.99 1552.31C1145.92 1555.07 1144.32 1557.66 1144.57 1557.84C1144.9 1558.13 1146.97 1556.06 1151.04 1553.84C1153.08 1552.75 1155.63 1551.66 1158.61 1550.93C1160.1 1550.56 1161.7 1550.31 1163.34 1550.16C1165.08 1549.95 1166.5 1550.13 1166.87 1550.89C1166.97 1551.18 1167.01 1551.29 1166.57 1551.73C1166.17 1552.13 1165.41 1552.46 1164.65 1552.82C1163.12 1553.51 1161.63 1554.09 1160.17 1554.56C1157.23 1555.51 1154.46 1556.09 1152.14 1556.42C1147.44 1557.04 1144.39 1556.89 1144.35 1557.29V1557.33Z" fill="#263238"/>
<path d="M1145.22 1558.49C1145.48 1558.64 1147.33 1556.2 1148.21 1551.47C1148.64 1549.15 1148.72 1546.24 1148.13 1543.07C1147.84 1541.51 1147.33 1539.87 1146.64 1538.23C1145.88 1536.63 1145.01 1534.49 1142.02 1533.8C1140.46 1533.54 1139 1534.56 1138.42 1535.47C1137.77 1536.42 1137.55 1537.29 1137.26 1538.13C1136.75 1539.84 1136.57 1541.58 1136.64 1543.22C1136.75 1546.49 1137.8 1549.33 1139.11 1551.44C1141.77 1555.73 1144.9 1557 1144.97 1556.75C1145.26 1556.42 1142.75 1554.64 1140.82 1550.6C1139.88 1548.6 1139.11 1546.05 1139.15 1543.22C1139.15 1541.8 1139.37 1540.34 1139.84 1538.89C1140.28 1537.33 1141.08 1536.13 1141.7 1536.34C1142.5 1536.42 1143.7 1537.8 1144.17 1539.14C1144.82 1540.6 1145.3 1542.05 1145.66 1543.47C1146.31 1546.31 1146.46 1548.96 1146.28 1551.18C1145.95 1555.62 1144.79 1558.27 1145.22 1558.46V1558.49Z" fill="#263238"/>
<path d="M1483.94 867.929L1219.53 876.367C1219.53 876.367 1160.68 1269.35 1162.32 1296.66L1126.02 1581.7L1231.6 1585.41C1231.6 1585.41 1248.23 1492.99 1259.79 1429.71C1267.5 1387.62 1281.58 1325.87 1285.36 1290.7C1289.18 1255.56 1341.81 1013.63 1341.81 1013.63C1341.81 1013.63 1346.39 1295.03 1346.5 1306.74C1346.61 1318.45 1334.28 1585.19 1334.28 1585.19H1439.13C1444.55 1537.03 1457.43 1344.38 1460.19 1305.46C1465.21 1235.2 1489.76 1032.94 1492.09 982.204C1494.38 931.468 1483.91 867.929 1483.91 867.929H1483.94Z" fill="#263238"/>
<path d="M1259.68 910.118C1259.17 910.118 1258.59 904.663 1258.41 897.898C1258.19 891.133 1258.41 885.641 1258.96 885.604C1259.46 885.604 1260.05 891.06 1260.23 897.825C1260.45 904.59 1260.23 910.082 1259.68 910.118Z" fill="#455A64"/>
<path d="M1269.32 907.282C1268.81 907.245 1268.85 902.553 1269.39 896.843C1269.94 891.133 1270.78 886.514 1271.29 886.551C1271.79 886.587 1271.76 891.279 1271.21 896.989C1270.67 902.699 1269.83 907.318 1269.32 907.282Z" fill="#455A64"/>
<path d="M1430.7 907.281C1430.19 907.281 1429.79 903.281 1429.79 898.334C1429.79 893.388 1430.19 889.387 1430.7 889.387C1431.21 889.387 1431.61 893.388 1431.61 898.334C1431.61 903.281 1431.21 907.281 1430.7 907.281Z" fill="#455A64"/>
<path d="M1441.06 912.01C1440.59 912.083 1439.5 906.954 1440.04 900.553C1440.55 894.152 1442.52 889.242 1442.95 889.387C1443.46 889.533 1442.37 894.479 1441.86 900.699C1441.31 906.882 1441.61 911.973 1441.06 912.01Z" fill="#455A64"/>
<path d="M1356.83 1007.34C1356.83 1007.34 1356.94 1005.66 1357.45 1002.75C1357.99 999.48 1358.72 995.298 1359.56 990.315C1361.3 979.804 1363.34 965.256 1364.65 949.071C1365.96 932.886 1366.28 918.193 1366.25 907.573C1366.21 902.517 1366.18 898.298 1366.14 894.952C1366.14 891.97 1366.14 890.333 1366.28 890.333C1366.39 890.333 1366.61 891.97 1366.87 894.952C1367.12 897.934 1367.38 902.226 1367.56 907.573C1367.92 918.229 1367.78 932.995 1366.47 949.253C1365.16 965.511 1362.9 980.095 1360.83 990.57C1359.81 995.807 1358.86 1000.03 1358.14 1002.9C1357.41 1005.81 1356.94 1007.37 1356.83 1007.34Z" fill="#455A64"/>
<path d="M1347.77 893.279C1347.84 893.606 1345.01 893.279 1342.5 896.225C1341.33 897.643 1340.35 899.826 1340.79 902.153C1341.15 904.445 1343.37 906.409 1346.06 906.918C1348.79 907.427 1351.55 906.445 1352.72 904.408C1353.95 902.444 1353.84 900.007 1353.3 898.262C1352.06 894.588 1349.26 893.861 1349.48 893.57C1349.48 893.497 1350.17 893.461 1351.23 894.043C1352.28 894.588 1353.63 895.825 1354.5 897.825C1355.3 899.789 1355.7 902.626 1354.17 905.281C1352.68 908.009 1349.01 909.355 1345.73 908.7C1342.42 908.118 1339.52 905.499 1339.11 902.444C1338.68 899.389 1340.06 896.88 1341.55 895.388C1343.08 893.861 1344.79 893.206 1345.99 893.097C1347.19 892.988 1347.81 893.243 1347.81 893.315L1347.77 893.279Z" fill="#455A64"/>
<path d="M1232.7 1326.89C1232.51 1327.36 1220.55 1322.89 1205.96 1316.88C1191.38 1310.88 1179.74 1305.68 1179.92 1305.21C1180.1 1304.74 1192.07 1309.21 1206.65 1315.21C1221.24 1321.21 1232.88 1326.41 1232.7 1326.89Z" fill="#455A64"/>
<path d="M1497.95 885.605C1497 882.223 1475.94 707.79 1475.94 707.79L1486.85 481.385L1392.65 448.36L1377.74 436.977L1283.03 438.068L1272.3 454.034L1182.65 494.842L1207.64 680.331L1214.66 835.559L1221.28 893.061L1487.03 908.918L1497.91 885.641L1497.95 885.605Z" fill="currentColor"/>
<g opacity="0.3">
<path d="M1483.47 769.256L1384.03 781.222C1383.05 788.569 1388.69 795.588 1395.52 798.461C1402.36 801.335 1410.11 800.898 1417.49 799.843C1424.84 798.789 1432.22 797.188 1439.61 797.843C1447.02 798.498 1454.23 801.444 1461.68 800.971C1469.07 800.534 1476.12 796.534 1480.3 790.423C1484.49 784.35 1485.69 776.312 1483.5 769.256H1483.47Z" fill="black"/>
</g>
<path d="M1486.85 481.385C1486.85 481.385 1508.89 484.476 1521.77 523.102C1534.64 561.727 1564.9 702.117 1566.83 711.791C1568.76 721.466 1560.36 752.271 1526.75 766.056C1494.45 779.294 1468.96 775.112 1468.96 775.112V704.044L1483.11 688.587L1477.54 663.528L1486.78 481.385H1486.85Z" fill="currentColor"/>
<path d="M1546.75 692.369C1546.75 692.369 1545.52 691.896 1543.37 690.951C1541.23 690.005 1538.13 688.623 1534.21 687.204C1530.28 685.75 1525.51 684.222 1520.09 683.204C1517.4 682.695 1514.53 682.294 1511.51 682.113C1508.49 681.894 1505.44 682.04 1502.35 682.658C1489.87 685.204 1479.91 692.224 1474.85 698.734C1472.23 702.007 1470.96 705.135 1470.09 707.317C1469.43 709.536 1469.1 710.809 1468.99 710.809C1468.99 710.809 1468.99 710.482 1469.1 709.863C1469.21 709.245 1469.39 708.336 1469.69 707.208C1470.45 704.99 1471.69 701.716 1474.27 698.334C1479.32 691.533 1489.4 684.295 1502.16 681.676C1505.33 681.058 1508.57 680.912 1511.58 681.131C1514.64 681.312 1517.55 681.749 1520.28 682.294C1525.77 683.386 1530.53 685.022 1534.46 686.55C1538.39 688.077 1541.44 689.569 1543.55 690.623C1544.61 691.132 1545.41 691.569 1545.95 691.896C1546.5 692.187 1546.75 692.369 1546.75 692.405V692.369Z" fill="#263238"/>
<path d="M1526.79 679.13C1526.79 679.13 1524.13 678.112 1519.69 677.202C1515.29 676.293 1508.89 675.857 1502.16 677.566C1495.47 679.239 1490.02 682.622 1486.56 685.531C1483.07 688.441 1481.36 690.696 1481.21 690.587C1481.18 690.55 1481.54 689.932 1482.34 688.95C1483.14 687.932 1484.38 686.55 1486.12 685.022C1489.54 681.931 1495.07 678.366 1501.94 676.621C1508.85 674.875 1515.4 675.42 1519.88 676.548C1522.13 677.093 1523.88 677.748 1525.04 678.257C1526.2 678.766 1526.82 679.13 1526.82 679.166L1526.79 679.13Z" fill="#263238"/>
<path d="M1479.61 539.286C1479.9 539.286 1479.69 573.874 1479.18 616.5C1478.67 659.163 1478.01 693.715 1477.72 693.715C1477.43 693.715 1477.65 659.127 1478.16 616.5C1478.67 573.874 1479.32 539.286 1479.61 539.286Z" fill="#263238"/>
<path d="M1238.15 246.796C1228.91 244.468 1218.44 248.069 1212.76 255.706C1207.13 263.344 1206.87 274.655 1212.44 282.402C1217.06 288.84 1225.06 292.368 1232.99 292.731C1240.91 293.095 1248.77 290.586 1255.75 286.803L1256.95 266.327C1254.84 257.052 1247.39 249.123 1238.15 246.796Z" fill="#263238"/>
<path d="M1293.43 323.464C1302.93 340.086 1309.87 358.634 1310.24 377.802C1310.6 396.969 1303.84 416.754 1289.54 429.484C1286.78 431.921 1283.47 434.212 1279.8 434.03C1276.12 433.848 1272.59 429.993 1274.05 426.611C1271.28 432.394 1267.32 437.595 1262.48 441.813C1260.88 443.232 1258.99 444.578 1256.85 444.505C1253.79 444.396 1251.54 441.268 1251.35 438.213C1251.14 435.158 1252.41 432.212 1253.68 429.448C1249.94 429.52 1246.95 432.321 1243.75 434.285C1240.59 436.249 1235.79 437.122 1233.6 434.067C1231.64 431.375 1233.2 427.629 1234.81 424.683C1242.08 411.299 1249.39 397.151 1249.68 381.912C1249.9 371.037 1246.52 360.198 1247.97 349.469C1249.79 336.376 1259.36 324.628 1271.83 320.264C1279.03 317.754 1287.94 317.936 1293.22 323.428" fill="#263238"/>
<path d="M1379.89 402.497C1386.51 391.986 1400.22 387.731 1405.31 376.42C1414.22 356.489 1411.64 338.813 1409.38 317.1C1407.82 302.224 1407.78 280.947 1397.82 269.818C1390.8 261.962 1385.85 257.234 1379.49 248.869C1372.47 239.667 1365.08 228.683 1370.54 218.5" fill="#263238"/>
<path d="M1376.94 402.97C1380.87 398.242 1386.87 395.332 1393.01 395.187C1396.11 395.114 1399.23 395.769 1402.07 397.005L1370.39 216.099C1378.58 214.426 1398.76 224.173 1404.65 230.065C1410.58 235.957 1414.4 243.595 1418.11 251.051C1433.31 281.748 1426.98 320.627 1414.62 350.415C1425.93 374.019 1427.86 396.751 1414.33 412.208C1414.26 412.281 1414.18 412.354 1414.11 412.463C1413.49 413.154 1412.84 413.917 1412.15 414.718C1407.82 419.737 1406.14 426.502 1407.6 432.939C1407.6 433.012 1407.64 433.121 1407.67 433.194C1408.11 435.049 1408.65 436.94 1408.55 438.868C1408.44 440.795 1407.53 442.796 1405.78 443.596C1402.94 444.905 1399.74 442.505 1398.25 439.777C1396.76 437.049 1396.07 433.812 1393.92 431.557C1391.89 434.794 1391.6 438.795 1389.92 442.25C1388.25 445.669 1384.03 448.578 1380.76 446.578C1379.38 445.742 1378.58 444.25 1377.85 442.832C1374.68 436.54 1372.07 429.848 1371.45 422.828C1370.83 415.809 1372.43 408.389 1376.9 402.97H1376.94Z" fill="#263238"/>
<path d="M1270.81 302.297L1283.07 438.067C1285.94 464.909 1345.37 481.384 1345.37 481.384L1361.74 501.17L1368.68 479.53C1372.94 472.656 1381.81 464.472 1380.29 450.397C1378.98 438.504 1378.25 424.392 1378.21 423.192C1378.21 423.192 1417.24 411.481 1415.86 371.437C1415.2 352.088 1412.44 319.645 1407.85 283.712C1402.91 245.123 1369.12 216.826 1330.24 218.645L1326.39 218.827C1284.81 223.228 1265.36 260.944 1270.88 302.37L1270.81 302.297Z" fill="#FFD6BE"/>
<path d="M1378.36 423.301C1378.36 423.301 1353.15 426.538 1325.44 410.899C1325.44 410.899 1339.11 439.159 1378.94 433.667L1378.36 423.301Z" fill="#FFB294"/>
<path d="M1390.43 322.628C1390.69 325.647 1388.32 328.338 1385.2 328.665C1382.07 328.993 1379.3 326.81 1379.05 323.792C1378.8 320.773 1381.16 318.082 1384.29 317.754C1387.42 317.427 1390.18 319.609 1390.43 322.628Z" fill="#263238"/>
<path d="M1398.4 302.333C1397.82 302.915 1393.27 302.406 1387.34 304.079C1381.41 305.716 1377.45 308.625 1376.72 308.407C1376.36 308.334 1376.9 307.425 1378.61 306.116C1380.32 304.843 1383.34 303.206 1387.01 302.152C1390.72 301.133 1393.96 300.988 1395.92 301.242C1397.92 301.497 1398.69 302.042 1398.4 302.297V302.333Z" fill="#263238"/>
<path d="M1332.35 324.701C1332.6 327.72 1330.24 330.411 1327.11 330.739C1323.98 331.066 1321.22 328.884 1320.97 325.865C1320.71 322.846 1323.08 320.155 1326.2 319.827C1329.33 319.5 1332.1 321.682 1332.35 324.701Z" fill="#263238"/>
<path d="M1339.33 312.262C1338.53 312.481 1334.86 309.716 1328.9 308.152C1322.97 306.552 1318.06 307.061 1317.55 306.479C1317.29 306.225 1318.2 305.716 1320.35 305.461C1322.46 305.206 1325.88 305.352 1329.59 306.298C1333.3 307.28 1336.17 308.844 1337.73 310.044C1339.33 311.28 1339.7 312.117 1339.33 312.226V312.262Z" fill="#263238"/>
<path d="M1364.14 352.27C1364.1 351.906 1367.88 351.07 1374.07 349.978C1375.63 349.76 1377.09 349.36 1377.3 348.269C1377.63 347.105 1376.87 345.469 1376.03 343.65C1374.36 339.904 1372.65 336.012 1370.83 331.902C1363.59 315.172 1358.25 301.388 1358.94 301.097C1359.63 300.806 1366.03 314.154 1373.3 330.884C1375.05 335.03 1376.72 338.958 1378.32 342.704C1379.01 344.45 1380.1 346.451 1379.41 348.851C1379.05 350.051 1377.92 350.96 1376.94 351.288C1375.96 351.652 1375.05 351.688 1374.29 351.797C1368.07 352.415 1364.21 352.634 1364.14 352.27Z" fill="#263238"/>
<path d="M1346.21 357.362C1347.19 357.253 1347.52 363.945 1353.48 368.418C1359.41 372.892 1366.5 371.837 1366.61 372.746C1366.72 373.146 1365.08 374.128 1362.1 374.347C1359.15 374.601 1354.79 373.837 1351.19 371.11C1347.55 368.382 1345.88 364.563 1345.51 361.835C1345.11 359.071 1345.81 357.362 1346.24 357.398L1346.21 357.362Z" fill="#263238"/>
<path d="M1337.55 279.711C1337 281.42 1330.82 280.911 1323.66 282.111C1316.46 283.166 1310.75 285.567 1309.69 284.112C1309.22 283.421 1310.16 281.784 1312.45 280.075C1314.71 278.365 1318.35 276.619 1322.68 275.965C1327 275.274 1331 275.783 1333.66 276.729C1336.35 277.674 1337.77 278.911 1337.51 279.747L1337.55 279.711Z" fill="#263238"/>
<path d="M1398.51 285.385C1397.49 286.876 1392.83 285.858 1387.41 286.33C1381.96 286.585 1377.48 288.222 1376.28 286.876C1375.74 286.221 1376.36 284.73 1378.21 283.239C1380.07 281.748 1383.27 280.366 1387.01 280.111C1390.76 279.856 1394.11 280.838 1396.14 282.075C1398.18 283.312 1398.94 284.694 1398.51 285.421V285.385Z" fill="#263238"/>
<path d="M1217.13 362.453C1212.07 360.599 1213.13 344.996 1218.33 339.213C1231.86 324.155 1251.1 277.42 1251.1 277.42C1258.77 257.78 1254.92 241.558 1275.03 221.155C1289.72 206.243 1308.96 194.713 1329.73 194.895C1350.5 195.077 1371.63 208.316 1377.74 228.574L1373.88 223.628C1375.16 230.865 1367.81 236.939 1360.68 237.994C1353.55 239.085 1346.32 237.012 1339.11 237.303C1325.08 237.849 1312.49 247.523 1305.29 259.816C1298.09 272.109 1295.58 286.658 1294.82 300.951C1294.05 315.245 1294.89 329.611 1293.8 343.905C1292.63 359.18 1284.41 364.999 1273.76 375.801C1263.86 385.84 1254.04 397.951 1246.41 409.699C1243.64 413.99 1235.75 418.209 1231.17 417.518C1226.58 416.827 1224.88 410.208 1223.89 405.589C1222.91 400.424 1225.82 395.15 1225.53 388.131C1221.02 386.494 1218.11 381.802 1217.09 377.038C1216.07 372.273 1221.67 364.126 1217.09 362.453H1217.13Z" fill="#263238"/>
<path d="M1279.61 340.413C1278.92 340.158 1251.72 333.575 1253.86 360.89C1256.01 388.24 1283.03 380.42 1283 379.62C1283 378.82 1279.58 340.377 1279.58 340.377L1279.61 340.413Z" fill="#FFD6BE"/>
<path d="M1273.87 369.946C1273.87 369.946 1273.43 370.31 1272.63 370.746C1271.87 371.182 1270.56 371.51 1269.07 371.11C1266.08 370.273 1263.28 365.872 1262.77 360.962C1262.52 358.489 1262.85 356.052 1263.57 354.052C1264.26 351.979 1265.43 350.488 1266.88 350.124C1268.3 349.688 1269.39 350.451 1269.79 351.215C1270.23 351.943 1270.08 352.524 1270.23 352.561C1270.3 352.634 1270.78 352.052 1270.48 350.961C1270.34 350.415 1269.94 349.797 1269.28 349.324C1268.59 348.851 1267.61 348.633 1266.59 348.851C1264.48 349.178 1262.74 351.251 1261.94 353.47C1261.03 355.725 1260.59 358.416 1260.88 361.217C1261.5 366.709 1264.74 371.655 1268.77 372.492C1270.74 372.855 1272.3 372.128 1273.07 371.437C1273.87 370.71 1273.94 370.055 1273.87 370.019V369.946Z" fill="#FFB294"/>
<path d="M1481.32 696.588L1428.37 695.897C1424.73 695.861 1421.39 697.788 1419.57 700.952L1383.34 779.367L1384.72 784.641H1446.26L1482.23 703.789L1481.29 696.588H1481.32Z" fill="#263238"/>
<path d="M1480.85 706.99L1478.89 711.427L1468.16 733.104C1468.16 733.104 1440.41 730.631 1436.04 730.049C1431.68 729.467 1429.35 734.122 1429.06 736.85C1428.77 739.578 1431.39 742.742 1431.39 742.742C1431.39 742.742 1414.22 737.323 1408.4 733.249C1402.58 729.176 1399.67 731.722 1399.67 731.722C1394.43 726.412 1387.74 731.794 1387.45 733.249C1387.16 734.704 1393.56 750.125 1395.89 753.689C1398.22 757.254 1411.02 769.62 1411.89 771.074C1412.76 772.529 1422.66 775.148 1434.01 781.367C1444.55 787.15 1452.55 780.349 1453.65 779.367C1453.83 779.367 1454.26 779.367 1455.25 779.221C1457.86 778.93 1464.85 772.238 1466.59 772.456C1468.34 772.675 1469.79 772.238 1473.29 768.383C1476.78 764.528 1486.09 748.088 1488.63 739.359C1490.67 732.449 1489.47 730.631 1488.89 730.194C1489.76 730.667 1493 732.267 1499.14 733.249C1506.42 734.413 1510.2 729.176 1510.78 719.283C1511.36 709.39 1488.96 709.608 1480.81 706.99H1480.85Z" fill="#FFD6BE"/>
<path d="M1477.1 752.235C1477.1 752.235 1476.45 752.453 1475.25 752.671C1474.05 752.926 1472.3 753.144 1470.12 753.29C1465.79 753.617 1459.68 753.471 1453.17 752.053C1446.66 750.634 1441.02 748.27 1437.24 746.161C1435.31 745.106 1433.82 744.197 1432.84 743.47C1431.86 742.779 1431.31 742.342 1431.35 742.306C1431.42 742.16 1433.68 743.651 1437.53 745.615C1441.39 747.543 1446.95 749.798 1453.39 751.216C1459.83 752.599 1465.83 752.853 1470.12 752.671C1474.45 752.489 1477.1 752.053 1477.1 752.235Z" fill="#FFB294"/>
<path d="M1477.61 732.377C1477.69 732.595 1474.85 733.686 1471.14 733.868C1467.43 734.05 1464.48 733.213 1464.56 732.958C1464.59 732.704 1467.5 733.14 1471.1 732.958C1474.7 732.813 1477.54 732.122 1477.61 732.377Z" fill="#FFB294"/>
<path d="M1490.78 731.431C1490.67 731.685 1486.74 730.012 1481.69 728.63C1476.63 727.212 1472.41 726.63 1472.45 726.375C1472.45 726.157 1476.81 726.375 1481.94 727.794C1487.07 729.212 1490.89 731.249 1490.78 731.467V731.431Z" fill="#FFB294"/>
<path d="M1488.23 712.736C1488.49 712.809 1487.47 715.828 1487.43 719.683C1487.43 721.611 1487.51 723.393 1487.91 724.484C1488.31 725.648 1489.07 725.939 1489.03 726.048C1489.03 726.084 1488.78 726.121 1488.45 725.939C1488.09 725.757 1487.65 725.357 1487.32 724.739C1486.67 723.466 1486.52 721.647 1486.52 719.647C1486.56 715.61 1488.01 712.591 1488.2 712.7L1488.23 712.736Z" fill="#FFB294"/>
<path d="M1461.54 769.074C1461.54 769.074 1461.25 769.11 1460.66 769.074C1460.01 769.074 1459.17 769.038 1458.19 769.001C1456.04 768.892 1452.95 768.71 1449.13 768.274C1445.32 767.837 1440.77 767.11 1435.93 765.51C1433.53 764.71 1431.02 763.655 1428.59 762.345C1426.15 761.036 1423.75 759.472 1421.27 757.908C1410.22 750.852 1400.36 744.488 1394 740.305L1393.85 740.196V740.014C1394.29 736.777 1396.11 734.74 1397.38 733.686C1398.03 733.14 1398.62 732.849 1399.02 732.667C1399.42 732.485 1399.63 732.413 1399.63 732.449C1399.67 732.522 1398.8 732.849 1397.56 733.94C1396.36 735.031 1394.72 737.068 1394.4 740.087L1394.25 739.832C1400.73 743.833 1410.62 750.089 1421.67 757.145C1424.15 758.708 1426.51 760.272 1428.91 761.582C1431.31 762.891 1433.71 763.946 1436.11 764.746C1440.88 766.346 1445.35 767.146 1449.13 767.656C1452.92 768.165 1456.01 768.419 1458.12 768.638C1459.1 768.747 1459.9 768.819 1460.55 768.892C1461.1 768.965 1461.39 769.001 1461.39 769.038L1461.54 769.074Z" fill="#FFB294"/>
<path d="M1452.15 778.531C1452.15 778.531 1451.21 778.531 1449.54 778.24C1447.86 777.985 1445.46 777.549 1442.52 776.93C1436.62 775.621 1428.55 773.548 1420.04 769.984C1415.78 768.165 1411.97 765.874 1408.87 763.291C1405.78 760.745 1403.27 758.127 1401.27 755.872C1399.27 753.617 1397.74 751.689 1396.73 750.38C1395.71 749.071 1395.16 748.307 1395.2 748.27C1395.24 748.234 1395.89 748.925 1397.02 750.162C1398.14 751.398 1399.71 753.253 1401.78 755.435C1403.82 757.618 1406.33 760.164 1409.42 762.637C1412.47 765.11 1416.22 767.329 1420.44 769.147C1428.84 772.675 1436.92 774.821 1442.73 776.276C1445.64 777.003 1448.01 777.512 1449.68 777.876C1451.32 778.24 1452.23 778.421 1452.23 778.494L1452.15 778.531Z" fill="#FFB294"/>
<path d="M1193.09 540.232C1192.83 540.305 1190.32 533.14 1187.49 524.156C1184.69 515.209 1182.61 507.862 1182.87 507.79C1183.12 507.717 1185.63 514.882 1188.47 523.865C1191.27 532.812 1193.34 540.159 1193.09 540.232Z" fill="#263238"/>
<path d="M1486.05 492.187C1486.05 492.187 1485.98 494.041 1485.58 496.951C1485.14 500.261 1484.63 504.116 1484.05 508.408C1483.54 512.699 1483.11 516.591 1482.74 519.864C1482.41 522.81 1482.2 524.629 1482.05 524.629C1481.91 524.629 1481.91 522.774 1482.05 519.828C1482.2 516.882 1482.52 512.772 1483.07 508.299C1483.61 503.825 1484.31 499.752 1484.89 496.878C1485.47 493.969 1485.94 492.187 1486.09 492.223L1486.05 492.187Z" fill="#263238"/>
<path d="M1393.6 758.272C1393.6 758.272 1392.25 759.509 1389.63 761.436C1387.02 763.364 1383.16 766.055 1378.29 769.256C1368.58 775.657 1354.72 783.913 1338.79 791.805C1322.86 799.698 1307.91 805.699 1296.93 809.591C1291.43 811.518 1286.96 812.973 1283.83 813.882C1280.7 814.791 1278.96 815.228 1278.92 815.119C1278.89 814.973 1280.56 814.282 1283.58 813.155C1286.96 811.882 1291.29 810.245 1296.42 808.281C1307.22 804.099 1322.02 797.916 1337.88 790.06C1353.74 782.204 1367.59 774.166 1377.49 768.092C1382.14 765.182 1386.07 762.746 1389.16 760.818C1391.93 759.072 1393.45 758.163 1393.56 758.308L1393.6 758.272Z" fill="#263238"/>
<g opacity="0.3">
<path d="M1192.65 775.693C1182.94 770.529 1173.12 765.364 1162.5 762.418C1151.88 759.509 1140.28 758.999 1130.09 763.182C1128.97 763.655 1127.69 764.382 1127.62 765.619C1127.51 767.328 1129.66 768.128 1131.33 768.383C1151.55 771.584 1172.9 773.075 1193.16 776.057" fill="black"/>
</g>
<g opacity="0.3">
<path d="M1200.54 579.476C1193.63 614.864 1195.89 651.998 1207.09 686.259L1200.54 579.476Z" fill="black"/>
</g>
<path d="M1304.27 950.235C1304.27 950.235 1283.54 933.395 1277.54 925.758C1271.54 918.12 1267.61 913.683 1267.61 913.683C1267.61 913.683 1242.77 906.263 1233.68 895.752C1224.55 885.241 1209.56 870.111 1209.56 870.111L1180.14 900.953C1180.14 900.953 1197.13 928.449 1198.51 937.541C1199.89 946.598 1210.26 971.584 1210.26 971.584L1266.74 937.832C1266.74 937.832 1278.78 954.672 1286.45 956.49C1292.78 957.982 1303.8 962.564 1304.31 950.235H1304.27Z" fill="#FFD6BE"/>
<path d="M1182.65 494.842C1182.65 494.842 1162.28 500.006 1142.13 575.911C1123.91 644.433 1099.14 776.639 1100.02 789.951C1100.85 803.263 1179.52 922.557 1179.52 922.557L1196.51 928.595L1233.06 898.225C1233.06 898.225 1244.99 878.44 1241.61 873.603C1238.22 868.766 1223.06 858.655 1223.06 858.655L1193.16 776.094L1209.75 666.692L1182.69 494.842H1182.65Z" fill="currentColor"/>
<path d="M1162.32 770.929C1162.32 770.929 1163.08 770.929 1164.54 771.075C1166.21 771.293 1168.28 771.584 1170.76 771.911C1176.47 772.784 1184.1 773.948 1193.27 775.33L1193.71 775.403L1193.85 775.839C1198.58 788.714 1204.51 804.899 1210.98 822.502C1215.64 835.523 1220.04 847.743 1223.86 858.364L1223.6 858C1226.08 860.073 1228.51 861.819 1230.69 864.001C1232.8 866.147 1234.4 868.584 1235.53 871.02C1237.82 875.93 1238.08 880.768 1237.57 884.55C1237.02 888.369 1235.68 891.097 1234.99 892.988C1234.22 894.843 1233.79 895.861 1233.68 895.825C1233.6 895.825 1233.86 894.734 1234.48 892.806C1235.02 890.842 1236.19 888.115 1236.55 884.441C1236.88 880.804 1236.48 876.185 1234.22 871.639C1233.1 869.384 1231.57 867.129 1229.53 865.165C1227.53 863.237 1224.95 861.419 1222.51 859.382L1222.33 859.236L1222.26 859.018C1218.4 848.434 1213.93 836.214 1209.16 823.23C1202.83 805.59 1197.05 789.333 1192.43 776.421L1193.05 776.93C1183.92 775.257 1176.32 773.875 1170.65 772.82C1168.21 772.311 1166.17 771.911 1164.5 771.584C1163.08 771.257 1162.35 771.075 1162.39 771.002L1162.32 770.929Z" fill="#263238"/>
<path d="M1201.09 576.893C1201.63 576.893 1205.05 632.685 1208.76 701.534C1212.47 770.42 1215.02 826.248 1214.47 826.285C1213.93 826.285 1210.51 770.529 1206.8 701.643C1203.09 632.794 1200.54 576.929 1201.09 576.893Z" fill="#263238"/>
<path d="M1260.88 260.58C1260.88 260.58 1261.25 260.216 1262.01 259.562C1262.92 258.762 1264.01 257.852 1265.28 256.761C1268.08 254.288 1272.05 250.542 1276.34 245.377C1280.67 240.249 1284.96 233.484 1290.6 226.501C1296.16 219.518 1304.09 213.008 1313.87 209.371C1323.59 205.625 1333.88 205.188 1342.64 206.934C1351.48 208.68 1358.86 212.426 1364.25 216.572C1366.9 218.681 1368.94 221.191 1369.99 223.701C1371.05 226.247 1371.16 228.683 1370.79 230.575C1370.43 232.466 1369.67 233.812 1369.05 234.575C1368.43 235.375 1367.96 235.63 1367.96 235.63C1367.78 235.557 1369.78 234.212 1370.36 230.502C1370.61 228.683 1370.47 226.356 1369.41 223.955C1368.32 221.555 1366.36 219.227 1363.74 217.19C1358.43 213.19 1351.12 209.589 1342.46 207.952C1333.84 206.279 1323.8 206.752 1314.27 210.425C1304.71 213.99 1296.96 220.282 1291.4 227.156C1285.8 233.993 1281.43 240.795 1276.96 245.886C1272.56 251.015 1268.48 254.688 1265.57 257.089C1264.12 258.289 1262.96 259.162 1262.16 259.744C1261.36 260.326 1260.92 260.616 1260.88 260.58Z" fill="#455A64"/>
<path d="M1251.46 282.257C1251.53 282.039 1255.03 283.748 1261.1 284.657C1267.1 285.603 1275.9 285.312 1284.41 281.384C1292.92 277.419 1298.82 270.873 1301.98 265.708C1305.22 260.471 1306.16 256.688 1306.38 256.797C1306.45 256.797 1306.27 257.779 1305.73 259.416C1305.18 261.089 1304.24 263.417 1302.67 266.145C1299.62 271.527 1293.65 278.365 1284.89 282.439C1276.12 286.476 1267.07 286.621 1260.95 285.457C1257.86 284.875 1255.46 284.112 1253.86 283.457C1252.26 282.802 1251.43 282.329 1251.43 282.257H1251.46Z" fill="#455A64"/>
<path d="M1208.4 273.419C1208.4 273.419 1208.58 272.655 1209.2 271.382C1209.82 270.109 1210.91 268.4 1212.62 266.545C1215.93 262.872 1222.4 258.834 1230.26 258.98C1238.15 259.198 1244.37 263.526 1247.53 267.345C1249.17 269.273 1250.19 271.055 1250.73 272.328C1251.28 273.601 1251.5 274.365 1251.43 274.365C1251.21 274.474 1250.23 271.455 1246.92 267.854C1243.72 264.29 1237.68 260.289 1230.22 260.107C1222.77 259.962 1216.55 263.672 1213.16 267.09C1209.67 270.546 1208.58 273.492 1208.36 273.383L1208.4 273.419Z" fill="#455A64"/>
<path d="M1261.28 426.865C1261.28 426.865 1260.81 426.502 1259.94 425.738C1259.06 424.974 1257.83 423.81 1256.37 422.137C1253.46 418.864 1249.46 413.772 1246.3 406.534C1243.02 399.37 1240.59 390.059 1240.77 379.584C1240.88 369.073 1244.41 357.762 1250.37 347.36C1256.26 336.849 1263.57 327.974 1270.08 319.937C1276.63 311.899 1282.49 304.661 1286.92 298.187C1291.47 291.786 1294.31 286.149 1296.31 282.221C1297.11 280.366 1297.76 278.838 1298.27 277.602C1298.74 276.547 1299 276.001 1299.03 276.001C1299.07 276.001 1298.89 276.583 1298.49 277.674C1298.02 278.947 1297.4 280.511 1296.71 282.402C1294.85 286.367 1292.09 292.15 1287.61 298.624C1283.25 305.17 1277.43 312.517 1270.92 320.591C1264.45 328.666 1257.21 337.54 1251.39 347.942C1245.46 358.235 1242.01 369.364 1241.86 379.657C1241.61 389.95 1243.93 399.151 1247.06 406.28C1250.12 413.481 1253.97 418.573 1256.74 421.919C1259.54 425.265 1261.43 426.829 1261.32 426.938L1261.28 426.865Z" fill="#455A64"/>
<path d="M1350.06 500.661C1350.06 500.661 1348.94 501.025 1346.83 501.206C1344.72 501.425 1341.66 501.497 1337.84 501.279C1330.28 500.879 1319.77 498.806 1309.36 493.459C1298.96 488.149 1291.11 480.803 1286.38 474.947C1283.98 472.001 1282.27 469.455 1281.21 467.637C1280.16 465.818 1279.65 464.727 1279.76 464.691C1280.05 464.509 1282.45 468.509 1287.4 474.11C1292.31 479.675 1300.13 486.658 1310.24 491.823C1320.35 496.987 1330.57 499.242 1337.95 499.97C1345.37 500.734 1350.03 500.333 1350.06 500.661Z" fill="#263238"/>
<path d="M1392.03 452.252C1392.22 452.179 1393.45 454.98 1394 459.89C1394.54 464.727 1394.07 471.746 1391.05 478.693C1388.03 485.64 1383.23 490.768 1379.3 493.641C1375.38 496.587 1372.47 497.606 1372.39 497.424C1372.25 497.133 1374.87 495.714 1378.47 492.623C1382.03 489.531 1386.43 484.549 1389.31 477.929C1392.18 471.346 1392.83 464.691 1392.65 459.999C1392.51 455.271 1391.74 452.361 1392.03 452.288V452.252Z" fill="#263238"/>
<rect x="518" y="364" width="125" height="230" rx="13" fill="currentColor" fill-opacity="0.5"/>
<rect x="670" y="364" width="125" height="230" rx="13" fill="currentColor" fill-opacity="0.5"/>
<rect x="822" y="364" width="125" height="230" rx="13" fill="currentColor" fill-opacity="0.5"/>
<rect x="974" y="364" width="125" height="230" rx="13" fill="currentColor" fill-opacity="0.5"/>
<path d="M849.088 820.94L855.34 791.369C867.422 738.058 920.564 704.431 973.961 716.429C1027.27 728.51 1060.9 781.653 1048.9 834.881L1042.57 865.043C1067.83 874.843 1082.78 901.795 1076.61 929L1037.33 1102.96C1030.57 1132.87 1000.83 1151.63 970.919 1144.87L790.284 1104.06C760.375 1097.3 741.619 1067.56 748.378 1037.65L787.665 863.691C794.002 835.472 820.869 817.223 849.003 820.94H849.088ZM877.983 1021.43L925.211 1032.08L925.549 996.337C934.843 993.126 942.362 985.269 944.728 974.961C948.361 959.078 938.307 943.279 922.423 939.646C906.54 936.013 890.74 946.067 887.107 961.95C884.826 971.92 887.952 981.805 894.458 988.733C888.121 1001.24 877.983 1021.43 877.983 1021.43ZM870.041 825.418L1021.87 859.72L1028.03 830.403C1037.5 788.581 1011.14 746.844 969.229 737.382C927.408 727.919 885.671 754.279 876.208 796.016L869.956 825.502L870.041 825.418Z" fill="#EBEBEB"/>
<path d="M472.434 999.273C498.11 967.566 548.481 975.544 563.102 1013.63L747.015 1492.74C761.636 1530.83 729.541 1570.46 689.244 1564.08L182.369 1483.8C142.071 1477.42 123.795 1429.81 149.471 1398.1L472.434 999.273Z" fill="currentColor" fill-opacity="0.5"/>
<path d="M502.807 949.428C523.206 914.095 574.206 914.095 594.605 949.428L851.202 1393.87C871.602 1429.2 846.102 1473.37 805.303 1473.37H292.109C251.31 1473.37 225.81 1429.2 246.21 1393.87L502.807 949.428Z" fill="white"/>
<path fill-rule="evenodd" clip-rule="evenodd" d="M611.925 939.428L868.522 1383.87C896.62 1432.53 861.498 1493.37 805.302 1493.37H292.109C235.913 1493.37 200.791 1432.53 228.889 1383.87L485.486 939.428C513.583 890.762 583.828 890.762 611.925 939.428ZM594.605 949.428C574.205 914.095 523.206 914.095 502.806 949.428L246.21 1393.87C225.81 1429.2 251.309 1473.37 292.109 1473.37H805.302C846.102 1473.37 871.601 1429.2 851.202 1393.87L594.605 949.428Z" fill="currentColor"/>
<path d="M561.144 1129.91C566.737 1129.91 571.242 1134.49 571.143 1140.08L567.903 1321.86C567.806 1327.31 563.358 1331.68 557.905 1331.68H539.244C533.791 1331.68 529.343 1327.31 529.246 1321.86L526.006 1140.08C525.907 1134.49 530.412 1129.91 536.005 1129.91H561.144ZM548.644 1415.76C540.991 1415.76 534.445 1413.09 529.006 1407.74C523.566 1402.3 520.893 1395.76 520.985 1388.1C520.893 1380.54 523.566 1374.09 529.006 1368.74C534.445 1363.3 540.991 1360.58 548.644 1360.58C556.112 1360.58 562.565 1363.3 568.005 1368.74C573.445 1374.09 576.21 1380.54 576.303 1388.1C576.21 1393.17 574.874 1397.83 572.292 1402.07C569.803 1406.22 566.484 1409.54 562.335 1412.03C558.186 1414.52 553.622 1415.76 548.644 1415.76Z" fill="currentColor"/>
</g>
<defs>
<clipPath id="clip0_119_6794">
<rect width="1533.99" height="1572" fill="white" transform="translate(133 74)"/>
</clipPath>
</defs>
</svg>
