<svg width="1800" height="1720" viewBox="0 0 1800 1720" fill="none" xmlns="http://www.w3.org/2000/svg">
<g clip-path="url(#clip0_119_6398)">
<path d="M550.948 1623.85C547.694 1586.71 566.12 1548.42 597.138 1527.76C628.199 1507.09 670.585 1504.85 703.632 1522.18C711.661 1500.71 719.859 1478.86 734.101 1460.9C748.342 1442.94 769.768 1429.16 792.672 1430.01V1623.85H550.948Z" fill="#EBEBEB"/>
<path d="M919.865 1157.36H1420.64L1514.2 1024.49L1612.29 1161.12L1727.53 1159.26L1603.33 991.955L1044.95 994.279L919.865 1157.36Z" fill="#E0E0E0"/>
<path d="M1170.29 1159.26V1625H1670.35V1159.26H1613.04L1514.2 1024.49L1420.34 1157.23L1170.29 1159.26Z" fill="#F5F5F5"/>
<path d="M1357.93 1423.08H1240.96V1625H1357.93V1423.08Z" fill="#E0E0E0"/>
<path d="M1612.29 1417.38H1428.04V1531.52H1612.29V1417.38Z" fill="#E0E0E0"/>
<path d="M1483.36 1417.38H1479.13V1532.58H1483.36V1417.38Z" fill="#EBEBEB"/>
<path d="M1559.97 1417.38H1555.75V1532.58H1559.97V1417.38Z" fill="#EBEBEB"/>
<path d="M1557.85 1476.37H1481.24V1480.6H1557.85V1476.37Z" fill="#EBEBEB"/>
<path d="M1612.29 1188.97H1428.04V1303.11H1612.29V1188.97Z" fill="#E0E0E0"/>
<path d="M1483.36 1188.97H1479.13V1304.17H1483.36V1188.97Z" fill="#EBEBEB"/>
<path d="M1559.97 1188.97H1555.75V1304.17H1559.97V1188.97Z" fill="#EBEBEB"/>
<path d="M1557.85 1247.92H1481.24V1252.14H1557.85V1247.92Z" fill="#EBEBEB"/>
<path d="M1345.72 1189.98H1229.51V1300.02H1345.72V1189.98Z" fill="#E0E0E0"/>
<path d="M1170.35 1159.26H967.373V1624.95H1170.35V1159.26Z" fill="#E0E0E0"/>
<path d="M1289.71 1189.98H1285.49V1300.02H1289.71V1189.98Z" fill="#EBEBEB"/>
<path d="M1345.72 1245.59H1229.51V1249.82H1345.72V1245.59Z" fill="#EBEBEB"/>
<path d="M1513.95 1138.04C1527.56 1138.04 1538.59 1127.01 1538.59 1113.41C1538.59 1099.8 1527.56 1088.77 1513.95 1088.77C1500.34 1088.77 1489.31 1099.8 1489.31 1113.41C1489.31 1127.01 1500.34 1138.04 1513.95 1138.04Z" fill="#E0E0E0"/>
<path d="M1338.2 1083.19L1369.3 1044.82V952.566H1304.18V1083.91L1338.2 1083.19Z" fill="#F5F5F5"/>
<path d="M1338.2 1083.19V952.566H1369.3V1044.82L1338.2 1083.19Z" fill="#EBEBEB"/>
<path d="M1373.66 939H1296.92V952.565H1373.66V939Z" fill="#EBEBEB"/>
<path d="M1170.3 1362.98H792.672V1624.99H1170.3V1362.98Z" fill="#F5F5F5"/>
<path d="M1029.11 1362.98H792.672V1624.99H1029.11V1362.98Z" fill="#E0E0E0"/>
<path d="M993.905 1447.47H839.277V1624.53H993.905V1447.47Z" fill="#F5F5F5"/>
<path d="M1149.51 1446.75H1049.9V1472.1H1149.51V1446.75Z" fill="#EBEBEB"/>
<path d="M919.865 1157.35V1170.83H1420.34V1157.23L919.865 1157.35Z" fill="#EBEBEB"/>
<path d="M1420.35 1170.84L1513.95 1039.45L1514.2 1024.49L1420.64 1157.36L1420.35 1170.84Z" fill="#EBEBEB"/>
<path d="M1725.13 1159.26H1613.06V1167.96H1725.13V1159.26Z" fill="#EBEBEB"/>
<path d="M1318.04 1392.15H1276.67V1407.87H1318.04V1392.15Z" fill="#E0E0E0"/>
<path d="M992.335 301.481C890.523 161.472 742.516 96.1554 588.028 96.2013C588.028 96.2013 209.782 96.2013 97.7658 434.825C56.4893 559.62 65.6363 695.124 115.738 816.655C133.067 858.667 156.095 904.264 186.386 948.069C284.062 1089.14 588.028 1474.37 588.028 1474.37H654.125C738.976 1356.51 952.575 965.03 1016.56 839.546C1096.91 681.932 1109.22 462.312 992.335 301.481ZM651.137 927.89C472.702 927.89 328.05 783.239 328.05 604.757C328.05 426.275 472.702 281.67 651.137 281.67C829.573 281.67 974.225 426.321 974.225 604.757C974.225 783.193 829.573 927.89 651.137 927.89Z" fill="currentColor"/>
<path opacity="0.4" d="M992.335 301.481C890.523 161.472 742.516 96.1554 588.028 96.2013C588.028 96.2013 209.782 96.2013 97.7658 434.825C56.4893 559.62 65.6363 695.124 115.738 816.655C133.067 858.667 156.095 904.264 186.386 948.069C284.062 1089.14 588.028 1474.37 588.028 1474.37H654.125C738.976 1356.51 952.575 965.03 1016.56 839.546C1096.91 681.932 1109.22 462.312 992.335 301.481ZM651.137 927.89C472.702 927.89 328.05 783.239 328.05 604.757C328.05 426.275 472.702 281.67 651.137 281.67C829.573 281.67 974.225 426.321 974.225 604.757C974.225 783.193 829.573 927.89 651.137 927.89Z" fill="black"/>
<path d="M1058.85 304.102C957.036 164.093 809.029 98.7768 654.541 98.8228C654.541 98.8228 276.296 98.8228 164.279 437.446C123.003 562.241 132.15 697.746 182.252 819.277C199.581 861.289 222.609 906.886 252.9 950.69C350.575 1091.76 654.541 1476.99 654.541 1476.99C654.541 1476.99 1005.76 993.806 1083.07 842.167C1163.42 684.554 1175.74 464.933 1058.85 304.102ZM651.553 930.512C472.29 930.926 327.777 787.745 328.466 607.379C329.11 428.943 473.118 284.291 651.553 284.291C829.989 284.291 974.779 428.943 974.641 607.379C974.503 786.412 829.53 930.098 651.553 930.512Z" fill="currentColor"/>
<path d="M651.134 281.623C510.573 281.623 391.018 371.439 346.57 496.785C390.053 400.856 486.579 334.115 598.734 334.115C751.613 334.115 875.581 458.036 875.581 610.962C875.581 763.887 751.659 887.808 598.734 887.808C509.976 887.808 431.008 845.98 380.355 780.986C437.995 869.376 537.692 927.89 651.134 927.89C829.57 927.89 974.221 783.238 974.221 604.756C974.221 426.275 829.57 281.669 651.134 281.669V281.623Z" fill="currentColor"/>
<path opacity="0.4" d="M651.134 281.623C510.573 281.623 391.018 371.439 346.57 496.785C390.053 400.856 486.579 334.115 598.734 334.115C751.613 334.115 875.581 458.036 875.581 610.962C875.581 763.887 751.659 887.808 598.734 887.808C509.976 887.808 431.008 845.98 380.355 780.986C437.995 869.376 537.692 927.89 651.134 927.89C829.57 927.89 974.221 783.238 974.221 604.756C974.221 426.275 829.57 281.669 651.134 281.669V281.623Z" fill="black"/>
<path d="M1295.43 752.902C1282.42 744.031 1266.66 740.169 1250.98 741.916C1224.51 744.95 1186.12 748.811 1186.12 748.811L1186.26 750.052L1000.89 761.451L944.165 646.263L858.119 702.938C858.119 702.938 869.427 721.048 917.644 810.128C936.903 845.705 976.387 865.516 1016.42 859.678L1234.71 827.733V827.319C1257.23 826.032 1281.69 823.918 1285.23 820.7C1291.98 814.495 1298.14 791.972 1298.14 791.972C1298.14 791.972 1337.03 815.092 1344.52 815.644C1352.06 816.15 1353.39 809.898 1358.03 803.279C1361.21 798.775 1321.12 770.368 1295.34 752.856L1295.43 752.902Z" fill="#FFBE9D"/>
<path d="M955.564 638.817C955.564 638.817 919.527 569.456 886.524 503.956C845.983 423.517 756.535 407.43 756.535 407.43L627.006 390.423C627.006 390.423 518.759 341.424 417.866 463.001L334.945 555.483L352.55 571.295L434.643 645.114L450.869 659.685L488.008 621.442L470.726 718.336L440.251 853.381C440.251 853.381 440.297 853.427 440.343 853.473L506.211 845.521L550.797 573.179L801.903 593.22L782.184 764.945C786.229 764.347 816.612 758.326 826.494 717.049C830.355 700.824 829.16 687.08 826.724 677.014L841.249 714.199L955.609 638.863L955.564 638.817Z" fill="#455A64"/>
<path d="M550.751 572.994L506.165 845.336L440.297 853.288C496.88 902.056 570.515 931.612 651.092 931.612C691.357 931.612 729.876 924.212 765.407 910.744L782.138 764.713L801.857 592.988L550.751 572.948V572.994Z" fill="#263238"/>
<path d="M565.644 376.907L560.174 598.136L602.094 604.755L607.702 380.585C607.702 380.585 592.993 373.644 565.644 376.907Z" fill="#263238"/>
<path d="M742.885 599.332L777.404 409.313C779.381 407.198 807.741 417.357 816.245 427.055L785.264 603.331L742.885 599.332Z" fill="#263238"/>
<path d="M603.61 572.211C603.61 572.211 604.024 573.544 604.254 575.98C604.438 578.416 604.76 582.001 604.392 586.46C604.024 590.873 602.829 596.388 599.198 601.307C597.405 603.743 594.969 606.041 591.889 607.466C588.81 608.891 585.133 609.397 581.639 608.707C574.561 607.328 569.045 602.686 565.919 597.538C562.794 592.344 561.69 586.92 561.277 582.507C560.863 578.048 561.093 574.463 561.277 572.027C561.507 569.591 561.782 568.212 561.92 568.258C562.38 568.258 561.828 573.774 562.931 582.323C563.529 586.552 564.77 591.654 567.758 596.388C570.7 600.985 575.848 605.168 582.053 606.363C588.304 607.65 594.234 604.432 597.451 599.974C600.853 595.561 602.185 590.505 602.737 586.276C603.702 577.681 603.197 572.165 603.656 572.165L603.61 572.211Z" fill="#455A64"/>
<path d="M578.786 591.748C573.867 589.771 571.477 584.209 573.454 579.337C575.43 574.419 580.992 572.029 585.864 574.005C590.783 575.982 593.173 581.544 591.196 586.416C589.22 591.334 583.658 593.724 578.786 591.748Z" fill="#455A64"/>
<path d="M775.336 592.94C775.336 598.226 771.061 602.501 765.775 602.501C760.49 602.501 756.215 598.226 756.215 592.94C756.215 587.654 760.49 583.379 765.775 583.379C771.061 583.379 775.336 587.654 775.336 592.94Z" fill="#455A64"/>
<path d="M788.163 586.323C788.163 586.323 788.071 590.689 785.957 597.492C784.808 600.848 783.015 604.892 779.568 608.34C776.258 611.879 770.743 614.315 765.043 613.672C759.389 613.12 754.425 610.27 751.253 606.547C748.082 602.824 746.565 598.641 745.876 595.102C745.186 591.563 745.37 588.621 745.646 586.69C745.921 584.714 746.335 583.703 746.473 583.703C746.933 583.703 745.967 588.115 747.53 594.734C748.358 597.998 749.92 601.813 752.908 605.076C755.804 608.294 760.309 610.776 765.273 611.282C770.283 611.787 774.925 609.857 778.051 606.731C781.223 603.697 783.107 600.02 784.394 596.849C786.83 590.459 787.75 586.139 788.163 586.231V586.323Z" fill="#455A64"/>
<path d="M578.191 677.195C577.869 677.195 577.731 675.356 577.823 672.46C577.823 671.036 577.961 669.289 578.053 667.404C578.145 666.393 578.19 665.382 578.282 664.417L578.42 662.854L578.512 662.026V661.613L578.558 661.429V661.337V661.291C577.363 662.348 580.167 659.82 579.891 660.096C588.716 661.061 595.841 662.348 595.749 662.992C595.657 663.635 588.487 663.405 579.615 662.44C579.34 662.716 582.144 660.188 580.948 661.245V661.383V661.613L580.902 662.026L580.811 662.854L580.627 664.463C580.489 665.474 580.397 666.439 580.259 667.496C579.983 669.427 579.753 671.173 579.478 672.598C578.972 675.494 578.512 677.241 578.145 677.241L578.191 677.195Z" fill="#455A64"/>
<path d="M571.473 740.533C570.829 740.441 571.059 733.317 571.978 724.583C572.898 715.85 574.185 708.818 574.874 708.864C575.564 708.909 575.288 716.08 574.369 724.813C573.449 733.547 572.162 740.579 571.473 740.533Z" fill="#455A64"/>
<path d="M580.807 795.371C580.532 795.968 573.821 793.256 565.869 789.303C566.007 789.579 564.628 787.051 565.225 788.108V788.016V787.924V787.741V787.327L565.363 786.499L565.547 784.891C565.685 783.925 565.823 782.914 565.915 781.903C566.19 780.018 566.466 778.272 566.696 776.847C567.202 773.997 567.707 772.204 568.029 772.25C568.351 772.25 568.443 774.089 568.351 777.031C568.305 778.502 568.213 780.202 568.075 782.133C567.983 783.144 567.891 784.155 567.845 785.121L567.707 786.729L567.615 787.557V787.97L567.569 788.154V788.246V788.292C568.167 789.349 566.788 786.821 566.926 787.097C574.878 791.05 581.083 794.727 580.807 795.325V795.371Z" fill="#455A64"/>
<path d="M623.277 816.471C623.002 817.068 617.991 815.183 612.108 812.288C606.224 809.392 601.72 806.542 602.042 805.945C602.317 805.347 607.328 807.232 613.211 810.127C619.095 813.023 623.599 815.873 623.277 816.471Z" fill="#455A64"/>
<path d="M673.842 828.097C674.072 828.695 667.637 831.912 659.363 835.268C657.387 835.176 658.812 835.268 658.352 835.268H658.306H658.214L658.03 835.13L657.663 834.946L656.927 834.578L655.502 833.843C654.629 833.383 653.756 832.923 652.836 832.418C651.136 831.498 649.619 830.671 648.378 829.936C645.85 828.465 644.379 827.362 644.517 827.086C644.655 826.81 646.401 827.316 649.113 828.419C650.446 828.97 652.055 829.66 653.802 830.441C654.721 830.901 655.64 831.315 656.56 831.728L657.984 832.418L658.72 832.785L659.088 832.969L659.272 833.061H659.363L659.409 833.153C658.996 833.153 660.375 833.153 658.444 833.153C666.672 829.798 673.567 827.591 673.796 828.235L673.842 828.097Z" fill="#455A64"/>
<path d="M708.176 814.215C708.406 814.813 704.774 816.881 700.04 818.812C695.306 820.742 691.261 821.799 690.985 821.202C690.755 820.604 694.386 818.536 699.121 816.605C703.855 814.675 707.9 813.618 708.176 814.215Z" fill="#455A64"/>
<path d="M741.913 785.167C742.557 785.213 742.373 792.476 741.453 801.301C739.982 803.278 741.04 801.853 740.718 802.312H740.672H740.58L740.396 802.45L740.028 802.588L739.247 802.91L737.776 803.508C736.857 803.875 735.938 804.197 734.972 804.565C733.18 805.254 731.525 805.806 730.146 806.265C727.388 807.139 725.596 807.552 725.458 807.231C725.32 806.909 726.883 805.99 729.503 804.657C730.79 804.013 732.398 803.278 734.145 802.496C735.11 802.083 735.984 801.669 736.903 801.301L738.374 800.704L739.109 800.382L739.477 800.244L739.661 800.152H739.753L739.799 800.106C739.477 800.566 740.534 799.095 739.063 801.071C739.983 792.246 741.27 785.121 741.913 785.213V785.167Z" fill="#455A64"/>
<path d="M748.023 725.643C748.667 725.689 748.529 732.446 747.656 740.674C746.828 748.901 745.587 755.52 744.944 755.428C744.3 755.382 744.438 748.625 745.311 740.398C746.139 732.17 747.38 725.551 748.023 725.643Z" fill="#455A64"/>
<path d="M736.77 678.114C736.862 677.471 744.079 677.701 752.904 678.666C755.019 681.286 753.502 679.401 753.961 679.999V680.091V680.183V680.367V680.78L753.823 681.608L753.64 683.216C753.502 684.182 753.41 685.193 753.272 686.204C752.996 688.135 752.766 689.835 752.49 691.26C751.985 694.156 751.479 695.903 751.157 695.857C750.836 695.811 750.698 694.018 750.79 691.076C750.79 689.606 750.928 687.905 751.065 685.974C751.157 684.963 751.249 683.952 751.295 682.941L751.433 681.332L751.525 680.504V680.091L751.571 679.907V679.815V679.769C752.031 680.367 750.514 678.436 752.628 681.056C743.803 680.091 736.678 678.804 736.77 678.16V678.114Z" fill="#455A64"/>
<path d="M680.365 672.046C680.457 671.403 686.8 671.541 694.568 672.368C702.336 673.195 708.587 674.436 708.541 675.08C708.449 675.723 702.106 675.586 694.292 674.758C686.524 673.931 680.273 672.69 680.319 672.046H680.365Z" fill="#455A64"/>
<path d="M623.968 665.933C624.06 665.29 630.403 665.428 638.171 666.255C645.939 667.083 652.19 668.324 652.145 668.967C652.099 669.611 645.709 669.473 637.895 668.645C630.127 667.818 623.876 666.577 623.922 665.933H623.968Z" fill="#455A64"/>
<path d="M328.464 588.072C328.189 593.587 328.051 599.149 328.051 604.757C328.051 627.004 330.303 648.745 334.578 669.751C334.578 669.981 334.67 670.165 334.716 670.395C335.267 673.061 335.911 675.681 336.554 678.347C339.082 688.735 342.024 698.985 345.334 709.051C345.747 710.292 346.161 711.579 346.621 712.82C358.48 710.154 392.907 680.415 432.483 643.184L350.482 569.456C339.036 580.901 332.234 586.785 328.51 588.072H328.464Z" fill="#FFBE9D"/>
<path d="M846.125 110.678C848.975 142.439 885.195 169.191 917.049 168.226C934.607 167.674 952.396 159.86 969.311 164.732C997.625 172.914 1009.07 212.444 1038.07 217.73C1059.77 221.683 1079.81 204.124 1101.78 202.929C1117.96 202.056 1133.22 210.146 1146.6 219.247C1159.97 228.348 1172.84 238.874 1188.15 244.068C1203.5 249.262 1217.57 240.023 1233.06 235.335C1236.92 245.217 1239.4 257.306 1244.32 267.786C1249.28 278.22 1255.21 296.882 1246.48 300.927C1246.48 300.927 1222.07 313.567 1207.96 312.877C1219.18 324.461 1236.92 329.287 1252.45 324.92C1256.36 348.546 1259.3 375.757 1243.35 393.592C1236.23 401.498 1226.21 406.324 1215.87 408.99C1164.62 422.228 1111.11 386.421 1059.13 396.212C1037.8 400.211 1018.26 411.748 996.706 414.552C975.516 417.31 953.269 411.058 936.676 397.591C916.175 380.997 902.064 353.235 876.048 348.914C864.511 346.983 852.836 350.293 841.528 353.464C830.267 356.636 818.454 359.67 807.009 357.234C795.563 354.797 784.762 345.053 785.313 333.378" fill="#263238"/>
<path d="M744.263 419.197C750.008 387.159 756.627 353.559 756.627 353.559C756.627 353.559 799.099 353.973 817.163 301.619C834.354 251.701 846.81 131.594 846.81 131.594C791.652 96.8908 718.43 100.614 667.731 140.741L625.397 401.592C620.479 431.883 642.588 460.243 675.085 465.254C707.858 470.31 738.885 449.717 744.354 419.197H744.263Z" fill="#FFBE9D"/>
<path d="M815.189 221.55C814.684 225.227 811.144 227.801 807.283 227.341C803.468 226.882 800.756 223.526 801.262 219.849C801.767 216.172 805.307 213.598 809.122 214.057C812.983 214.517 815.649 217.872 815.143 221.55H815.189Z" fill="#263238"/>
<path d="M827.739 215.803C826.727 216.538 822.177 211.758 814.73 210.471C807.33 209.092 801.217 211.942 800.527 210.884C800.206 210.425 801.355 208.954 804.021 207.621C806.641 206.288 810.961 205.323 815.558 206.196C820.2 207.023 823.786 209.414 825.716 211.574C827.693 213.734 828.198 215.481 827.693 215.803H827.739Z" fill="#263238"/>
<path d="M738.881 209.457C738.375 213.134 734.836 215.708 730.975 215.248C727.16 214.789 724.448 211.433 724.953 207.756C725.459 204.079 728.998 201.505 732.813 201.964C736.674 202.424 739.34 205.779 738.835 209.457H738.881Z" fill="#263238"/>
<path d="M749.733 204.814C748.722 205.55 744.171 200.77 736.725 199.483C729.324 198.104 723.211 200.953 722.521 199.896C722.2 199.437 723.349 197.966 726.015 196.633C728.635 195.3 732.956 194.334 737.552 195.162C742.195 195.989 745.78 198.379 747.71 200.54C749.687 202.7 750.192 204.447 749.687 204.769L749.733 204.814Z" fill="#263238"/>
<path d="M767.017 264.707C767.017 264.294 771.797 264.294 779.473 264.661C781.404 264.799 783.289 264.753 783.794 263.512C784.484 262.225 784.07 260.019 783.518 257.675C782.553 252.757 781.542 247.608 780.439 242.231C776.256 220.305 773.59 202.379 774.509 202.195C775.383 202.057 779.474 219.708 783.656 241.633C784.622 247.057 785.587 252.205 786.46 257.123C786.782 259.421 787.609 262.087 786.138 264.753C785.357 266.086 783.794 266.868 782.507 266.96C781.22 267.098 780.163 266.96 779.198 266.822C771.614 265.903 766.925 265.121 766.971 264.661L767.017 264.707Z" fill="#263238"/>
<path d="M756.624 353.559C756.624 353.559 719.99 349.514 687.906 321.613C687.906 321.613 698.892 361.695 753.682 366.153L756.67 353.559H756.624Z" fill="#EB996E"/>
<path d="M760.718 282.036C758.649 278.037 754.329 275.279 749.594 274.958C746.331 274.728 742.791 275.739 740.355 277.991C737.919 280.29 736.862 283.921 738.195 286.725C739.712 289.896 743.803 291.275 747.526 290.908C751.249 290.54 754.696 288.747 758.006 286.909C758.925 286.403 759.845 285.897 760.534 285.07C761.177 284.289 761.499 283.139 760.994 282.312" fill="#EB996E"/>
<path d="M744.218 265.998C745.459 266.135 744.034 274.225 749.918 281.166C755.801 288.107 764.535 288.75 764.443 289.853C764.443 290.359 762.237 291.094 758.605 290.543C755.02 290.037 750.01 287.969 746.425 283.74C742.839 279.465 741.828 274.501 742.15 271.146C742.426 267.698 743.667 265.86 744.218 266.044V265.998Z" fill="#263238"/>
<path d="M704.139 102.221C718.526 133.983 765.18 172.593 801.171 186.291C797.907 179.764 777.637 161.332 774.373 154.759C788.898 170.571 809.904 191.991 832.105 197.323C834.725 197.966 837.621 198.472 840.057 197.552C843.367 196.311 844.654 192.91 845.573 189.83C849.48 176.96 852.835 154.253 853.157 140.832C853.525 127.41 849.985 113.299 840.287 102.451C828.014 88.6615 807.973 82.0425 788.714 77.9517C772.535 74.5043 755.62 72.298 739.67 75.3776C723.72 78.4573 708.827 87.6503 704.047 101.164" fill="#263238"/>
<path d="M618.228 221.777C618.136 207.344 618.458 193.739 619.607 184.868C623.238 156.829 631.971 54.9247 726.061 81.1707L716.041 107.279C716.041 107.279 723.258 172.871 674.994 208.08C674.994 208.08 675.224 273.534 641.762 297.16C641.762 297.16 618.458 252.758 618.228 221.823" fill="#263238"/>
<path d="M677.02 203.62C671.459 201.506 665.345 200.587 659.508 201.69C653.67 202.793 648.108 206.011 644.799 210.975C641.489 215.939 640.616 222.282 641.627 228.166C642.639 234.049 645.443 239.519 648.89 244.391C651.372 247.885 654.314 251.194 658.129 253.171C661.944 255.147 666.724 255.561 670.447 253.446" fill="#FFBE9D"/>
<path d="M667.687 237.956C668.33 238.278 665.205 241.312 660.195 238.967C657.758 237.864 655.69 235.198 654.679 232.119C653.668 229.039 653.254 225.73 653.484 222.052C653.759 218.375 655.23 214.698 657.712 212.354C660.103 209.918 663.458 208.814 666.078 209.228C671.502 210.056 672.513 214.1 671.916 214.1C671.41 214.468 669.663 212.17 665.94 212.4C662.447 212.4 658.264 216.537 657.988 222.466C657.574 228.487 658.908 234.325 661.803 236.256C664.791 238.508 667.411 237.405 667.687 237.956Z" fill="#EB996E"/>
<path d="M1221.61 208.032C1221.61 208.032 1221.06 209.549 1219.08 211.802C1217.1 214.008 1213.43 216.812 1207.87 218.237C1202.4 219.707 1195.04 219.799 1187.5 216.812C1179.87 213.962 1172.38 208.538 1164.52 202.379C1156.61 196.403 1147.79 189.325 1136.48 186.889C1130.87 185.831 1124.81 185.969 1118.88 187.67C1112.9 189.279 1107.06 191.945 1101.18 194.886C1095.3 197.828 1089.32 201.138 1082.93 204.033C1076.54 206.883 1069.6 209.319 1062.16 209.595C1054.71 209.917 1047.08 207.665 1040.74 203.344C1034.35 199.069 1029.29 193.14 1024.65 187.026C1015.46 174.754 1008.01 161.516 996.795 152.783C991.279 148.416 984.706 145.75 977.995 144.877C971.285 143.911 964.574 144.601 958.093 145.75C945.176 148.14 933.134 152.231 921.321 153.702C909.462 155.127 898.2 153.886 888.548 150.852C869.013 144.969 856.142 133.707 848.926 125.25C841.709 116.562 839.365 110.679 839.365 110.679C839.365 110.679 839.641 110.955 840.055 111.598C840.514 112.333 841.112 113.299 841.847 114.402C843.41 116.884 845.938 120.423 849.615 124.606C856.97 132.788 869.84 143.636 889.053 149.197C898.522 152.047 909.554 153.15 921.091 151.679C932.674 150.163 944.625 146.026 957.771 143.498C964.344 142.257 971.284 141.567 978.363 142.532C985.442 143.406 992.428 146.256 998.266 150.806C1010.08 159.953 1017.53 173.375 1026.63 185.464C1031.18 191.485 1036.09 197.185 1042.12 201.23C1048.09 205.275 1055.17 207.389 1062.11 207.113C1069.1 206.883 1075.81 204.585 1082.06 201.827C1088.36 199.023 1094.29 195.76 1100.22 192.818C1106.15 189.876 1112.17 187.164 1118.37 185.556C1124.53 183.855 1131.01 183.717 1136.94 184.912C1148.89 187.624 1157.76 194.978 1165.62 201.046C1173.44 207.251 1180.75 212.675 1188.05 215.571C1195.32 218.604 1202.4 218.604 1207.73 217.363C1213.15 216.122 1216.74 213.502 1218.81 211.48C1220.83 209.411 1221.56 207.986 1221.7 208.078L1221.61 208.032Z" fill="#263238"/>
</g>
<defs>
<clipPath id="clip0_119_6398">
<rect width="1675" height="1572" fill="white" transform="translate(63 74)"/>
</clipPath>
</defs>
</svg>
