<svg width="1800" height="1720" viewBox="0 0 1800 1720" fill="none" xmlns="http://www.w3.org/2000/svg">
<g clip-path="url(#clip0_119_5453)">
<path d="M1651.57 883.474C1614.68 1021.08 1527.07 1174.58 1388.46 1230.81C1179.04 1315.81 1169.93 1491.98 782.281 1512.81C721.826 1516.06 665.373 1512.92 612.958 1504.33C584.766 1499.7 557.782 1493.46 531.971 1485.73C297.671 1416.02 160.749 1226.26 130.832 1016.87C91.4259 741.456 271.895 591.124 389.976 501.918C508.058 412.678 630.625 99.0438 1011.58 75.5523C1069.65 71.9993 1128.17 74.3795 1185.59 84.1762C1316.65 106.529 1453.88 170.553 1540.04 275.075C1546.5 282.94 1552.74 291.012 1558.75 299.256C1676.14 460.903 1701.88 695.818 1651.57 883.44V883.474Z" fill="currentColor"/>
<path opacity="0.7" d="M1651.57 883.474C1614.68 1021.08 1527.07 1174.58 1388.46 1230.81C1179.04 1315.81 1169.93 1491.98 782.281 1512.81C721.826 1516.06 665.373 1512.92 612.958 1504.33C584.766 1499.7 557.782 1493.46 531.971 1485.73C297.671 1416.02 160.749 1226.26 130.832 1016.87C91.4259 741.456 271.895 591.124 389.976 501.918C508.058 412.678 630.625 99.0438 1011.58 75.5523C1069.65 71.9993 1128.17 74.3795 1185.59 84.1762C1316.65 106.529 1453.88 170.553 1540.04 275.075C1546.5 282.94 1552.74 291.012 1558.75 299.256C1676.14 460.903 1701.88 695.818 1651.57 883.44V883.474Z" fill="white"/>
<path opacity="0.3" d="M330.555 359.382V339.823C330.555 301.223 304.882 287.562 278.623 287.562C252.364 287.562 227.277 307.225 227.277 339.823V359.382H219.962V467.63H337.284V359.382H330.555ZM282.108 418.887V438.481H270.997V418.887C265.58 416.68 261.749 411.402 261.749 405.192C261.749 397.017 268.375 390.394 276.553 390.394C284.731 390.394 291.356 397.017 291.356 405.192C291.356 411.402 287.526 416.714 282.108 418.887ZM314.303 359.382H242.978V339.823C242.978 320.161 258.989 304.155 278.658 304.155C298.326 304.155 314.337 317.608 314.337 339.823V359.382H314.303Z" stroke="black" stroke-miterlimit="10"/>
<path opacity="0.3" d="M744.393 155.513H411.957C386.268 155.513 365.442 176.324 365.442 201.996C365.442 227.668 386.268 248.479 411.957 248.479H744.393C770.082 248.479 790.908 227.668 790.908 201.996C790.908 176.324 770.082 155.513 744.393 155.513Z" stroke="black" stroke-miterlimit="10"/>
<g opacity="0.3">
<path d="M453.917 197.667L463.613 208.36L458.955 211.845L451.743 199.116L444.6 211.845L439.942 208.36L449.535 197.667L435.353 194.735L437.078 189.146L450.432 195.011L448.776 180.557H454.642L453.089 195.011L466.443 189.25L468.168 194.838L453.917 197.667Z" fill="black"/>
<path d="M490.045 197.667L499.741 208.36L495.083 211.845L487.871 199.116L480.728 211.845L476.07 208.36L485.663 197.667L471.48 194.735L473.206 189.146L486.56 195.011L484.904 180.557H490.77L489.217 195.011L502.571 189.25L504.296 194.838L490.045 197.667Z" fill="black"/>
<path d="M526.174 197.667L535.87 208.36L531.212 211.845L524 199.116L516.857 211.845L512.199 208.36L521.792 197.667L507.609 194.735L509.335 189.146L522.689 195.011L521.032 180.557H526.899L525.346 195.011L538.7 189.25L540.425 194.838L526.174 197.667Z" fill="black"/>
<path d="M562.302 197.667L571.998 208.36L567.34 211.845L560.128 199.116L552.985 211.845L548.327 208.36L557.919 197.667L543.737 194.735L545.463 189.146L558.817 195.011L557.16 180.557H563.026L561.474 195.011L574.828 189.25L576.553 194.838L562.302 197.667Z" fill="black"/>
<path d="M598.396 197.667L608.092 208.36L603.434 211.845L596.222 199.116L589.079 211.845L584.42 208.36L594.013 197.667L579.831 194.735L581.556 189.146L594.91 195.011L593.254 180.557H599.12L597.567 195.011L610.921 189.25L612.647 194.838L598.396 197.667Z" fill="black"/>
<path d="M634.524 197.667L644.221 208.36L639.562 211.845L632.351 199.116L625.208 211.845L620.549 208.36L630.142 197.667L615.96 194.735L617.685 189.146L631.039 195.011L629.383 180.557H635.249L633.696 195.011L647.05 189.25L648.776 194.838L634.524 197.667Z" fill="black"/>
<path d="M670.652 197.667L680.349 208.36L675.69 211.845L668.478 199.116L661.336 211.845L656.677 208.36L666.27 197.667L652.088 194.735L653.813 189.146L667.167 195.011L665.511 180.557H671.377L669.824 195.011L683.178 189.25L684.904 194.838L670.652 197.667Z" fill="black"/>
<path d="M706.781 197.667L716.478 208.36L711.819 211.845L704.607 199.116L697.465 211.845L692.806 208.36L702.399 197.667L688.217 194.735L689.942 189.146L703.296 195.011L701.64 180.557H707.506L705.953 195.011L719.307 189.25L721.033 194.838L706.781 197.667Z" fill="black"/>
</g>
<path opacity="0.3" d="M314.51 789.577C311.439 784.265 307.161 781.264 302.64 781.264H294.807V774.261C300.397 767.672 304.02 757.703 304.02 747.458C304.02 729.865 293.427 715.584 280.349 715.584C267.271 715.584 256.678 729.831 256.678 747.458C256.678 757.324 259.99 766.948 265.235 773.502V781.264H254.78C250.156 781.264 245.773 784.265 242.633 789.577L228.451 813.448H328.313L314.476 789.577H314.51Z" stroke="black" stroke-miterlimit="10"/>
<path opacity="0.3" d="M347.657 799.844C363.351 761.967 345.358 718.542 307.468 702.852C269.579 687.163 226.14 705.15 210.446 743.028C194.751 780.905 212.744 824.33 250.634 840.02C288.524 855.709 331.962 837.722 347.657 799.844Z" stroke="black" stroke-miterlimit="10"/>
<g opacity="0.2">
<path d="M834.247 1094.21C705.711 1022.42 618.582 885.061 618.582 727.727C618.582 496.433 806.815 308.225 1038.22 308.225C1067.1 308.225 1095.29 311.226 1122.58 316.815L1111.89 352.69L1231.14 324.335L1146.95 235.302L1136.73 269.556C1104.95 262.726 1072.03 259.104 1038.25 259.104C779.762 259.104 569.444 469.32 569.444 727.761C569.444 908.794 672.653 1066.13 823.309 1144.16L793.668 1095.04L834.316 1094.24L834.247 1094.21Z" fill="black"/>
<path d="M1211.2 292.15L1248.02 331.096L1202.78 341.859C1352.57 405.951 1457.82 554.765 1457.82 727.727C1457.82 959.02 1269.58 1147.23 1038.18 1147.23C995.945 1147.23 955.159 1140.92 916.684 1129.26L931.246 1102.87L808.713 1105.25L872.032 1210.15L892.426 1173.17C938.319 1188.21 987.284 1196.38 1038.15 1196.38C1296.64 1196.38 1506.95 986.168 1506.95 727.727C1506.95 530.377 1384.28 361.107 1211.16 292.15H1211.2Z" fill="black"/>
</g>
<path d="M1592.36 216.225L1513.34 201.151L1513.2 201.427C1509.26 209.395 1502.81 213.845 1496.88 212.707L1493.46 212.051C1487.49 210.913 1483.14 204.428 1482.42 195.563V195.252L1403.36 180.178C1381.35 175.969 1360.13 190.423 1355.92 212.396L1253.43 732.28C1251.02 744.905 1259.3 757.082 1271.93 759.497L1494.87 802.03C1507.5 804.445 1519.68 796.166 1522.1 783.54L1624.58 263.657C1628.79 241.649 1614.34 220.434 1592.36 216.225Z" fill="currentColor" stroke="#263238" stroke-linecap="round" stroke-linejoin="round"/>
<path d="M1622.38 275.247L1624.59 263.657C1628.8 241.649 1614.34 220.434 1592.36 216.225L1513.34 201.151L1513.2 201.427C1509.26 209.395 1502.81 213.845 1496.88 212.707L1493.46 212.051C1487.49 210.913 1483.14 204.428 1482.42 195.563V195.252L1403.36 180.178C1381.35 175.969 1360.13 190.423 1355.92 212.396L1353.71 223.987L1622.41 275.247H1622.38Z" fill="white" stroke="#263238" stroke-linecap="round" stroke-linejoin="round"/>
<path d="M1605.09 441.723L1614.72 391.256L1610.16 390.394L1638.91 256.93C1643.11 234.922 1628.66 213.707 1606.68 209.499L1392.63 168.656C1370.62 164.448 1349.4 178.901 1345.19 200.875L1239.84 735.764C1235.63 757.772 1250.09 778.987 1272.07 783.195L1486.11 824.038C1508.13 828.247 1529.35 813.793 1533.56 791.819L1592.36 483.877L1596.91 484.739L1602.6 454.901L1598.05 454.038L1600.57 440.861L1605.12 441.723H1605.09ZM1526.41 760.98C1522.2 782.989 1500.98 797.408 1478.97 793.199L1289.98 757.151C1267.96 752.943 1253.54 731.728 1257.75 709.72L1355.95 212.362C1360.16 190.354 1381.38 175.935 1403.4 180.143L1482.42 195.218V195.528C1483.18 204.393 1487.53 210.879 1493.49 212.017L1496.91 212.672C1502.88 213.811 1509.3 209.361 1513.23 201.392L1513.37 201.116L1592.39 216.191C1614.41 220.399 1628.83 241.614 1624.62 263.622L1526.41 760.98Z" fill="#707070" stroke="#263238" stroke-linecap="round" stroke-linejoin="round"/>
<path d="M1598.6 213.673L1398.53 175.521C1375.21 171.071 1352.71 186.352 1348.26 209.671L1245.91 728.865C1241.46 752.184 1256.75 774.675 1280.07 779.125L1480.14 817.277C1503.47 821.727 1525.97 806.446 1530.42 783.127L1632.76 263.933C1637.21 240.614 1621.93 218.123 1598.6 213.673ZM1526.41 761.015C1522.2 783.023 1500.98 797.442 1478.97 793.234L1289.98 757.186C1267.96 752.977 1253.54 731.763 1257.75 709.754L1355.95 212.396C1360.16 190.388 1381.38 175.969 1403.4 180.178L1482.42 195.252V195.563C1483.18 204.428 1487.52 210.913 1493.49 212.051L1496.91 212.707C1502.88 213.845 1509.3 209.395 1513.23 201.427L1513.37 201.151L1592.39 216.225C1614.41 220.434 1628.83 241.649 1624.62 263.657L1526.41 761.015Z" fill="#263238" stroke="#263238" stroke-linecap="round" stroke-linejoin="round"/>
<path d="M1500.43 200.668C1500.81 198.598 1499.46 196.597 1497.39 196.218C1495.32 195.839 1493.32 197.184 1492.94 199.254C1492.56 201.323 1493.91 203.324 1495.98 203.704C1498.05 204.083 1500.05 202.738 1500.43 200.668Z" fill="#707070"/>
<path d="M1384.32 193.355C1383.59 197.149 1379.07 197.701 1378.52 200.564V200.771L1382.59 201.565L1382.35 202.841L1376.83 201.806L1377.04 200.737C1377.79 196.701 1382.21 196.701 1382.9 193.182C1383.14 191.906 1382.83 191.113 1381.8 190.94C1380.76 190.733 1380.18 191.389 1379.97 192.492L1379.76 193.596L1378.45 193.355L1378.66 192.32C1379.04 190.388 1380.14 189.284 1382.07 189.664C1384.04 190.043 1384.66 191.458 1384.32 193.389V193.355Z" fill="#263238"/>
<path d="M1391.18 194.666L1391.11 194.976C1390.87 196.252 1390.18 197.08 1389.11 197.253C1390.08 197.839 1390.39 198.874 1390.15 200.15L1389.97 201.116C1389.6 203.048 1388.46 204.117 1386.52 203.738C1384.59 203.359 1383.94 201.944 1384.32 200.013L1384.49 199.15L1385.8 199.392L1385.63 200.357C1385.42 201.496 1385.73 202.255 1386.77 202.462C1387.8 202.669 1388.35 202.082 1388.59 200.806L1388.77 199.84C1389.01 198.598 1388.59 197.908 1387.56 197.667L1386.8 197.529L1387.04 196.287L1387.87 196.459C1388.8 196.597 1389.49 196.115 1389.7 195.011L1389.8 194.424C1390.04 193.148 1389.73 192.389 1388.7 192.182C1387.7 191.975 1387.11 192.596 1386.87 193.734L1386.73 194.39L1385.42 194.148L1385.52 193.562C1385.9 191.63 1387.01 190.561 1388.94 190.94C1390.87 191.32 1391.53 192.734 1391.18 194.631V194.666Z" fill="#263238"/>
<path d="M1393.7 196.115L1393.36 197.839L1392.01 197.598L1392.36 195.873L1393.7 196.115ZM1392.39 202.945L1392.05 204.669L1390.7 204.428L1391.05 202.703L1392.39 202.945Z" fill="#263238"/>
<path d="M1396.32 197.805C1396.84 197.184 1397.53 196.977 1398.39 197.115C1400.02 197.425 1400.5 198.736 1400.15 200.53L1399.67 202.979C1399.29 204.911 1398.15 205.98 1396.22 205.601C1394.29 205.221 1393.63 203.807 1394.01 201.875L1394.18 201.047L1395.5 201.289L1395.32 202.22C1395.12 203.359 1395.43 204.117 1396.46 204.324C1397.46 204.531 1398.05 203.911 1398.29 202.807L1398.74 200.357C1398.95 199.219 1398.64 198.46 1397.6 198.253C1396.84 198.115 1396.22 198.426 1395.91 199.323L1395.84 199.599L1394.53 199.357L1396.19 192.458L1401.12 193.389L1400.88 194.631L1397.19 193.941L1396.26 197.77L1396.32 197.805Z" fill="#263238"/>
<path d="M1407.88 197.839V198.081L1406.54 197.839L1406.61 197.529C1406.81 196.39 1406.47 195.632 1405.47 195.459C1404.4 195.252 1403.81 195.839 1403.57 197.184L1403.02 200.013C1403.54 199.219 1404.3 198.874 1405.3 199.047C1406.92 199.357 1407.4 200.668 1407.06 202.462L1406.68 204.359C1406.3 206.291 1405.12 207.36 1403.19 206.981C1401.26 206.601 1400.53 205.187 1400.91 203.255L1402.12 196.839C1402.5 194.838 1403.64 193.769 1405.64 194.148C1407.57 194.528 1408.23 195.908 1407.88 197.839ZM1402.67 201.703L1402.33 203.6C1402.12 204.738 1402.43 205.497 1403.47 205.704C1404.47 205.911 1405.09 205.29 1405.3 204.186L1405.64 202.289C1405.85 201.151 1405.5 200.392 1404.5 200.185C1403.47 199.978 1402.88 200.599 1402.67 201.703Z" fill="#263238"/>
<path d="M1544.86 224.585L1541.3 223.906L1539.62 232.749L1543.17 233.429L1544.86 224.585Z" fill="#263238"/>
<path d="M1549.95 223.617L1546.39 222.939L1544.36 233.578L1547.92 234.257L1549.95 223.617Z" fill="#263238"/>
<path d="M1554.93 223.259L1551.38 222.58L1549.11 234.474L1552.66 235.153L1554.93 223.259Z" fill="#263238"/>
<path d="M1560.06 221.965L1556.5 221.286L1553.81 235.382L1557.37 236.061L1560.06 221.965Z" fill="#263238"/>
<path d="M1601.26 244.201L1580 240.131L1582.49 227.126L1603.74 231.197L1601.26 244.201ZM1581.38 239.2L1600.29 242.822L1602.33 232.197L1583.42 228.575L1581.38 239.2Z" fill="#263238"/>
<path d="M1596.21 232.271L1584.99 230.132L1583.45 238.196L1594.67 240.336L1596.21 232.271Z" fill="#263238"/>
<path d="M1604.73 236.546L1602.05 236.036L1601.47 239.085L1604.15 239.596L1604.73 236.546Z" fill="#263238"/>
<path d="M1572.76 235.853C1572.76 235.853 1572.48 235.75 1572.38 235.681C1568.55 232.3 1565.23 234.129 1565.1 234.198C1564.72 234.405 1564.23 234.301 1563.99 233.922C1563.78 233.542 1563.89 233.059 1564.27 232.818C1564.44 232.714 1568.72 230.265 1573.45 234.474C1573.79 234.784 1573.83 235.267 1573.52 235.612C1573.31 235.819 1573.03 235.922 1572.76 235.853Z" fill="#263238"/>
<path d="M1574.86 233.473C1574.86 233.473 1574.59 233.37 1574.48 233.301C1568.93 228.402 1564.03 231.197 1563.99 231.197C1563.61 231.438 1563.13 231.3 1562.89 230.921C1562.65 230.541 1562.78 230.024 1563.16 229.817C1563.23 229.782 1569.13 226.402 1575.55 232.093C1575.9 232.404 1575.93 232.887 1575.62 233.232C1575.41 233.439 1575.14 233.542 1574.86 233.473Z" fill="#263238"/>
<path d="M1576.9 230.679C1576.9 230.679 1576.62 230.576 1576.52 230.507C1569.48 224.297 1563.37 227.712 1563.13 227.85C1562.75 228.057 1562.23 227.954 1562.02 227.575C1561.78 227.195 1561.92 226.712 1562.3 226.471C1562.37 226.436 1569.65 222.262 1577.59 229.299C1577.93 229.61 1577.97 230.093 1577.66 230.438C1577.45 230.645 1577.17 230.748 1576.9 230.679Z" fill="#263238"/>
<path d="M1570.1 236.716C1569.89 237.82 1568.82 238.544 1567.72 238.337C1566.61 238.13 1565.89 237.061 1566.1 235.957C1566.3 234.853 1567.37 234.129 1568.48 234.336C1569.58 234.543 1570.31 235.612 1570.1 236.716Z" fill="#263238"/>
<path d="M1552.53 418.686L1365.29 382.98C1355.3 381.073 1345.65 387.629 1343.74 397.622L1313.76 554.745C1311.85 564.739 1318.41 574.385 1328.41 576.291L1515.64 611.998C1525.64 613.904 1535.29 607.348 1537.2 597.355L1567.18 440.232C1569.09 430.239 1562.53 420.592 1552.53 418.686Z" fill="white" stroke="#263238" stroke-miterlimit="10"/>
<path d="M1399.84 359.589L1397.43 341.169L1400.57 341.755L1402.26 355.829L1409.06 343.342L1411.92 343.894L1402.85 360.141L1400.98 369.834L1398.02 369.283L1399.88 359.589H1399.84Z" fill="#263238"/>
<path d="M1412.02 350.689C1412.82 346.55 1415.37 344.273 1419.51 345.067C1423.69 345.86 1425.21 348.93 1424.45 353.035L1421.79 367.006C1421 371.111 1418.44 373.422 1414.27 372.629C1410.13 371.835 1408.61 368.731 1409.4 364.66L1412.06 350.689H1412.02ZM1412.3 365.385C1411.82 367.868 1412.61 369.49 1414.75 369.903C1416.96 370.317 1418.24 369.076 1418.68 366.626L1421.41 352.345C1421.86 349.93 1421.17 348.24 1418.96 347.826C1416.79 347.412 1415.48 348.689 1414.99 351.103L1412.27 365.385H1412.3Z" fill="#263238"/>
<path d="M1427.42 368.282C1426.97 370.731 1427.62 372.353 1429.83 372.801C1432 373.215 1433.25 371.939 1433.7 369.49L1437.63 348.827L1440.46 349.379L1436.56 369.869C1435.77 373.974 1433.35 376.354 1429.17 375.561C1425.03 374.767 1423.69 371.663 1424.45 367.592L1428.35 347.102L1431.31 347.654L1427.38 368.317L1427.42 368.282Z" fill="#263238"/>
<path d="M1449.5 351.069C1453.74 351.862 1455.12 354.38 1454.33 358.382L1453.92 360.59C1453.36 363.556 1451.95 365.212 1449.5 365.523C1451.85 366.73 1452.36 368.903 1451.81 371.801L1451.02 376.009C1450.78 377.217 1450.6 378.32 1450.95 379.355L1447.91 378.769C1447.71 377.941 1447.71 377.217 1448.05 375.388L1448.84 371.145C1449.43 368.11 1448.19 366.868 1445.67 366.385L1443.53 365.971L1441.32 377.527L1438.32 376.941L1443.5 349.93L1449.53 351.069H1449.5ZM1446.29 363.66C1448.67 364.108 1450.26 363.625 1450.81 360.693L1451.29 358.106C1451.74 355.691 1451.12 354.242 1448.88 353.794L1445.95 353.242L1444.05 363.246L1446.29 363.66Z" fill="#263238"/>
<path d="M1475.38 362.797L1474.93 365.247L1472.07 364.695L1472.55 362.107C1473 359.693 1472.34 358.037 1470.13 357.589C1467.96 357.175 1466.68 358.451 1466.23 360.9L1463.51 375.181C1463.06 377.63 1463.78 379.286 1465.92 379.7C1468.13 380.114 1469.37 378.838 1469.82 376.389L1470.48 372.87L1473.34 373.422L1472.69 376.768C1471.89 380.873 1469.44 383.184 1465.3 382.391C1461.16 381.597 1459.75 378.527 1460.54 374.422L1463.2 360.452C1463.99 356.347 1466.44 354.036 1470.55 354.829C1474.72 355.622 1476.14 358.692 1475.34 362.797H1475.38Z" fill="#263238"/>
<path d="M1477.9 363.246C1478.69 359.106 1481.24 356.83 1485.39 357.623C1489.56 358.416 1491.11 361.487 1490.32 365.591L1487.66 379.562C1486.87 383.667 1484.32 385.978 1480.14 385.185C1476 384.392 1474.48 381.287 1475.28 377.217L1477.93 363.246H1477.9ZM1478.17 377.941C1477.69 380.425 1478.48 382.046 1480.62 382.46C1482.83 382.874 1484.11 381.632 1484.59 379.183L1487.32 364.902C1487.77 362.487 1487.04 360.797 1484.87 360.383C1482.69 359.969 1481.38 361.245 1480.93 363.66L1478.21 377.941H1478.17Z" fill="#263238"/>
<path d="M1500.74 360.866C1504.95 361.659 1506.4 364.591 1505.61 368.765L1503.02 382.391C1502.23 386.53 1499.81 388.704 1495.6 387.91L1489.25 386.703L1494.43 359.693L1500.78 360.9L1500.74 360.866ZM1496.08 385.151C1498.26 385.564 1499.53 384.426 1500.02 381.942L1502.67 368.041C1503.16 365.557 1502.36 364.005 1500.16 363.591L1496.91 362.97L1492.81 384.53L1496.08 385.151Z" fill="#263238"/>
<path d="M1517.03 376.389L1516.51 379.079L1509.92 377.803L1508.09 387.427L1516.2 388.98L1515.68 391.705L1504.57 389.566L1509.75 362.556L1520.86 364.695L1520.34 367.42L1512.23 365.867L1510.47 375.112L1517.06 376.389H1517.03Z" fill="#263238"/>
<path d="M1379.07 469.078C1381.21 466.629 1384.04 465.629 1387.46 466.284C1394.01 467.526 1396.01 472.907 1394.63 480.186L1392.74 490.155C1391.25 497.951 1386.56 502.332 1378.76 500.849C1370.96 499.366 1368.3 493.57 1369.79 485.774L1370.44 482.359L1375.76 483.36L1375.03 487.154C1374.17 491.742 1375.52 494.881 1379.59 495.64C1383.66 496.433 1386.08 494.019 1386.97 489.431L1388.87 479.531C1389.73 474.943 1388.39 471.804 1384.32 471.045C1381.18 470.458 1378.73 471.804 1377.52 475.426L1377.31 476.598L1372 475.598L1378.79 447.519L1398.91 451.348L1397.95 456.453L1382.94 453.59L1379.14 469.113L1379.07 469.078Z" fill="#263238"/>
<path d="M1426.1 469.216L1425.93 470.148L1420.62 469.147L1420.86 467.837C1421.72 463.249 1420.34 460.179 1416.2 459.385C1411.89 458.557 1409.47 460.972 1408.44 466.422L1406.26 477.875C1408.33 474.632 1411.47 473.218 1415.54 473.977C1422.1 475.219 1424.1 480.531 1422.72 487.878L1421.24 495.606C1419.75 503.402 1414.92 507.748 1407.13 506.265C1399.26 504.747 1396.36 498.917 1397.84 491.121L1402.81 465.111C1404.36 457.039 1408.95 452.693 1417.06 454.245C1424.93 455.763 1427.62 461.386 1426.14 469.182L1426.1 469.216ZM1404.88 484.946L1403.43 492.604C1402.57 497.192 1403.92 500.331 1408.09 501.125C1412.16 501.918 1414.68 499.503 1415.54 494.916L1416.99 487.258C1417.86 482.67 1416.44 479.531 1412.34 478.737C1408.19 477.944 1405.74 480.358 1404.88 484.946Z" fill="#263238"/>
<path d="M1454.43 474.632L1454.26 475.564L1448.95 474.563L1449.19 473.252C1450.05 468.664 1448.67 465.594 1444.53 464.801C1440.22 463.973 1437.8 466.388 1436.77 471.838L1434.59 483.291C1436.66 480.048 1439.8 478.634 1443.87 479.393C1450.43 480.634 1452.43 485.947 1451.05 493.294L1449.57 501.021C1448.08 508.817 1443.25 513.164 1435.46 511.68C1427.59 510.163 1424.69 504.333 1426.17 496.537L1431.14 470.527C1432.69 462.455 1437.28 458.109 1445.39 459.661C1453.26 461.179 1455.95 466.802 1454.47 474.598L1454.43 474.632ZM1433.21 490.362L1431.76 498.02C1430.9 502.608 1432.25 505.747 1436.42 506.541C1440.49 507.334 1443.01 504.919 1443.87 500.331L1445.32 492.673C1446.19 488.085 1444.77 484.946 1440.67 484.153C1436.52 483.36 1434.07 485.774 1433.21 490.362Z" fill="#263238"/>
<path d="M1482.76 480.117L1477.79 506.127C1476.24 514.199 1471.62 518.614 1463.47 517.062C1455.68 515.579 1452.91 509.852 1454.4 502.056L1454.57 501.125L1459.89 502.125L1459.64 503.436C1458.78 508.024 1460.23 511.094 1464.3 511.887C1468.68 512.715 1471.1 510.301 1472.13 504.919L1474.31 493.467C1472.27 496.709 1469.13 498.055 1465.06 497.296C1458.5 496.054 1456.47 490.811 1457.88 483.463L1459.37 475.667C1460.85 467.871 1465.61 463.559 1473.48 465.077C1481.35 466.595 1484.25 472.355 1482.76 480.151V480.117ZM1465.03 476.426L1463.58 484.084C1462.71 488.672 1464.13 491.811 1468.24 492.604C1472.38 493.398 1474.83 490.983 1475.69 486.395L1477.14 478.737C1478.04 474.08 1476.66 471.01 1472.48 470.217C1468.41 469.423 1465.92 471.769 1465.03 476.426Z" fill="#263238"/>
<path d="M1511.68 485.395L1511.37 486.982C1510.37 492.156 1507.85 495.606 1503.54 496.364C1507.44 498.848 1508.3 503.16 1507.3 508.265L1506.57 512.06C1505.05 519.925 1500.05 524.03 1492.11 522.512C1484.18 520.994 1481.04 515.337 1482.52 507.472L1483.25 503.678C1484.25 498.503 1486.56 494.95 1491.22 494.019C1487.35 491.639 1486.32 487.568 1487.32 482.394L1487.63 480.807C1489.15 472.942 1494.18 469.009 1502.05 470.493C1509.92 472.011 1513.16 477.53 1511.68 485.395ZM1493.22 482.014L1492.74 484.498C1491.8 489.465 1493.77 492.087 1497.77 492.846C1501.78 493.605 1504.61 491.88 1505.54 486.947L1506.02 484.463C1507.02 479.22 1505.09 476.357 1501.05 475.598C1497.05 474.839 1494.18 476.771 1493.18 482.014H1493.22ZM1489.01 504.091L1488.18 508.403C1487.18 513.647 1489.04 516.579 1493.11 517.338C1497.19 518.131 1499.91 516.061 1501.02 510.853L1501.85 506.541C1502.78 501.573 1501.05 498.779 1496.84 497.951C1492.63 497.158 1489.97 499.124 1489.01 504.091Z" fill="#263238"/>
<path d="M1327.83 620.79L1504.02 654.389" stroke="#263238" stroke-miterlimit="10"/>
<path d="M1321.27 655.148L1497.46 688.747" stroke="#263238" stroke-miterlimit="10"/>
<path d="M1613.54 491.328L1656.16 484.774" stroke="#263238" stroke-miterlimit="10"/>
<path d="M1606.99 540.484L1629.93 547.039" stroke="#263238" stroke-miterlimit="10"/>
<path d="M1593.87 583.086L1636.49 612.58" stroke="#263238" stroke-miterlimit="10"/>
<path d="M1205.02 573.152C1209.64 573.152 1213.37 569.426 1213.37 564.804V495.847C1213.37 491.225 1209.64 487.499 1205.02 487.499H1204.64V460.523C1204.64 442.137 1189.73 427.235 1171.34 427.235H443.255C424.863 427.235 409.956 442.137 409.956 460.523V963.366C409.956 981.752 424.863 996.654 443.255 996.654H1171.34C1189.73 996.654 1204.64 981.752 1204.64 963.366V782.954H1205.02C1209.64 782.954 1213.37 779.228 1213.37 774.606V705.649C1213.37 701.027 1209.64 697.301 1205.02 697.301H1204.64V688.574H1205.02C1209.64 688.574 1213.37 684.848 1213.37 680.226V611.269C1213.37 606.647 1209.64 602.921 1205.02 602.921H1204.64V573.152H1205.02Z" fill="#263238"/>
<path d="M1174.97 449.416H439.666V974.439H1174.97V449.416Z" fill="currentColor" stroke="#263238" stroke-miterlimit="10"/>
<path d="M1014.17 516.924H602.951V847.081H1014.17V516.924Z" fill="#E3E3E3" stroke="#263238" stroke-miterlimit="10"/>
<path d="M757.644 755.599V757.669H752.606V765.016H758.817V767.121H750.328V746.458H758.817V748.562H752.606V755.599H757.644Z" fill="#B2B2B2"/>
<path d="M762.957 767.086H760.887V746.423H763.82L768.616 761.36V746.423H770.652V767.086H768.271L762.992 750.39V767.086H762.957Z" fill="#B2B2B2"/>
<path d="M775.967 767.086V748.527H772.171V746.423H782.074V748.527H778.279V767.086H776.001H775.967Z" fill="#B2B2B2"/>
<path d="M790.976 755.599V757.669H785.939V765.016H792.15V767.121H783.661V746.458H792.15V748.562H785.939V755.599H790.976Z" fill="#B2B2B2"/>
<path d="M798.845 746.458C802.088 746.458 803.434 748.113 803.434 751.184V752.874C803.434 755.151 802.64 756.565 800.88 757.117C802.778 757.669 803.468 759.221 803.468 761.429V764.637C803.468 765.568 803.468 766.396 803.883 767.121H801.536C801.26 766.534 801.157 765.982 801.157 764.602V761.36C801.157 759.014 800.052 758.29 798.154 758.29H796.533V767.121H794.221V746.458H798.81H798.845ZM798.258 756.185C800.087 756.185 801.191 755.599 801.191 753.357V751.391C801.191 749.528 800.501 748.562 798.81 748.562H796.567V756.22H798.293L798.258 756.185Z" fill="#B2B2B2"/>
<path d="M819.548 751.425V753.288H817.374V751.322C817.374 749.459 816.649 748.355 814.959 748.355C813.268 748.355 812.543 749.459 812.543 751.322V762.222C812.543 764.085 813.302 765.189 814.959 765.189C816.615 765.189 817.374 764.05 817.374 762.222V759.531H819.548V762.084C819.548 765.223 818.064 767.293 814.889 767.293C811.715 767.293 810.266 765.223 810.266 762.084V751.391C810.266 748.251 811.749 746.182 814.889 746.182C818.03 746.182 819.548 748.251 819.548 751.391V751.425Z" fill="#B2B2B2"/>
<path d="M821.48 751.425C821.48 748.251 823.033 746.216 826.208 746.216C829.382 746.216 830.97 748.251 830.97 751.425V762.119C830.97 765.258 829.417 767.328 826.208 767.328C822.999 767.328 821.48 765.258 821.48 762.119V751.425ZM823.758 762.222C823.758 764.119 824.552 765.189 826.208 765.189C827.864 765.189 828.658 764.085 828.658 762.222V751.322C828.658 749.459 827.899 748.355 826.208 748.355C824.517 748.355 823.758 749.459 823.758 751.322V762.222Z" fill="#B2B2B2"/>
<path d="M837.974 746.458C841.184 746.458 842.667 748.389 842.667 751.598V762.015C842.667 765.189 841.184 767.121 837.974 767.121H833.144V746.458H837.974ZM837.974 765.016C839.631 765.016 840.424 763.981 840.424 762.084V751.46C840.424 749.562 839.631 748.527 837.94 748.527H835.455V764.982H837.974V765.016Z" fill="#B2B2B2"/>
<path d="M852.157 755.599V757.669H847.119V765.016H853.33V767.121H844.842V746.458H853.33V748.562H847.119V755.599H852.157Z" fill="#B2B2B2"/>
<path d="M981.695 625.964H634.697V665.117H981.695V625.964Z" fill="white" stroke="#263238" stroke-miterlimit="10"/>
<path d="M981.695 688.057H634.697V727.209H981.695V688.057Z" fill="white" stroke="#263238" stroke-miterlimit="10"/>
<path d="M857.195 776.365H824.448V815.518H857.195V776.365Z" fill="white" stroke="#263238" stroke-miterlimit="10"/>
<path d="M815.511 776.365H782.765V815.518H815.511V776.365Z" fill="white" stroke="#263238" stroke-miterlimit="10"/>
<path d="M773.793 776.365H741.046V815.518H773.793V776.365Z" fill="white" stroke="#263238" stroke-miterlimit="10"/>
<path d="M732.109 776.365H700.846V815.518H732.109V776.365Z" fill="white" stroke="#263238" stroke-miterlimit="10"/>
<path d="M900.12 776.365H866.166V815.518H900.12V776.365Z" fill="white" stroke="#263238" stroke-miterlimit="10"/>
<path d="M825.069 561.734V554.214C825.069 542.002 815.132 532.102 802.951 532.102C790.77 532.102 780.832 542.037 780.832 554.214V561.734H780.418V603.335H825.518V561.734H825.104H825.069ZM804.262 584.604V592.159H799.983V584.604C797.913 583.742 796.429 581.707 796.429 579.326C796.429 576.187 798.983 573.635 802.123 573.635C805.263 573.635 807.816 576.187 807.816 579.326C807.816 581.707 806.332 583.742 804.262 584.604ZM816.65 561.734H789.217V554.214C789.217 546.659 795.359 540.519 802.916 540.519C810.473 540.519 816.615 546.659 816.615 554.214V561.734H816.65Z" fill="#263238"/>
<path d="M754.435 650.318C754.435 652.181 755.159 653.285 756.85 653.285C758.541 653.285 759.231 652.147 759.231 650.318V634.519H761.371V650.18C761.371 653.319 759.921 655.389 756.747 655.389C753.572 655.389 752.157 653.285 752.157 650.18V634.519H754.435V650.318Z" fill="#B2B2B2"/>
<path d="M772.619 639.487V640.039H770.446V639.349C770.446 637.486 769.721 636.382 768.099 636.382C766.477 636.382 765.753 637.486 765.753 639.314C765.753 643.937 772.689 644.385 772.689 650.215C772.689 653.354 771.17 655.389 768.03 655.389C764.89 655.389 763.406 653.354 763.406 650.215V649.042H765.546V650.353C765.546 652.216 766.305 653.319 767.961 653.319C769.617 653.319 770.377 652.216 770.377 650.353C770.377 645.765 763.475 645.316 763.475 639.487C763.475 636.313 764.959 634.312 768.065 634.312C771.17 634.312 772.654 636.348 772.654 639.487H772.619Z" fill="#B2B2B2"/>
<path d="M782.006 643.661V645.73H776.968V653.078H783.179V655.182H774.69V634.519H783.179V636.624H776.968V643.661H782.006Z" fill="#B2B2B2"/>
<path d="M789.873 634.519C793.116 634.519 794.462 636.175 794.462 639.245V640.936C794.462 643.212 793.669 644.627 791.909 645.179C793.807 645.73 794.497 647.283 794.497 649.49V652.699C794.497 653.63 794.497 654.458 794.911 655.182H792.564C792.288 654.596 792.185 654.044 792.185 652.664V649.421C792.185 647.076 791.081 646.351 789.183 646.351H787.561V655.182H785.249V634.519H789.838H789.873ZM789.286 644.247C791.115 644.247 792.219 643.661 792.219 641.419V639.452C792.219 637.589 791.529 636.624 789.838 636.624H787.595V644.282H789.321L789.286 644.247Z" fill="#B2B2B2"/>
<path d="M803.503 655.182H801.433V634.519H804.366L809.162 649.456V634.519H811.198V655.182H808.817L803.537 638.486V655.182H803.503Z" fill="#B2B2B2"/>
<path d="M815.891 651.008L815.097 655.182H812.958L816.926 634.519H820.273L824.242 655.182H821.93L821.136 651.008H815.926H815.891ZM816.202 649.042H820.791L818.445 637.107L816.167 649.042H816.202Z" fill="#B2B2B2"/>
<path d="M833.593 655.148H831.384L827.968 638.728V655.182H825.967V634.519H829.176L832.558 651.008L835.836 634.519H839.045V655.182H836.871V638.555L833.593 655.148Z" fill="#B2B2B2"/>
<path d="M848.775 643.661V645.73H843.737V653.078H849.949V655.182H841.46V634.519H849.949V636.624H843.737V643.661H848.775Z" fill="#B2B2B2"/>
<path d="M757.609 705.684L760.749 709.133L759.231 710.272L756.884 706.167L754.572 710.272L753.054 709.133L756.16 705.684L751.57 704.752L752.122 702.959L756.436 704.856L755.918 700.199H757.816L757.298 704.856L761.612 702.993L762.164 704.787L757.574 705.718L757.609 705.684Z" fill="#B2B2B2"/>
<path d="M769.272 705.684L772.412 709.133L770.894 710.272L768.547 706.167L766.235 710.272L764.717 709.133L767.823 705.684L763.233 704.752L763.786 702.959L768.099 704.856L767.581 700.199H769.479L768.961 704.856L773.275 702.993L773.827 704.787L769.238 705.718L769.272 705.684Z" fill="#B2B2B2"/>
<path d="M780.901 705.684L784.041 709.133L782.523 710.272L780.176 706.167L777.864 710.272L776.346 709.133L779.452 705.684L774.862 704.752L775.414 702.959L779.728 704.856L779.21 700.199H781.108L780.59 704.856L784.904 702.993L785.456 704.787L780.866 705.718L780.901 705.684Z" fill="#B2B2B2"/>
<path d="M792.564 705.684L795.704 709.133L794.186 710.272L791.839 706.167L789.527 710.272L788.009 709.133L791.115 705.684L786.525 704.752L787.078 702.959L791.391 704.856L790.873 700.199H792.771L792.253 704.856L796.567 702.993L797.119 704.787L792.53 705.718L792.564 705.684Z" fill="#B2B2B2"/>
<path d="M804.227 705.684L807.367 709.133L805.849 710.272L803.502 706.167L801.191 710.272L799.672 709.133L802.778 705.684L798.188 704.752L798.741 702.959L803.054 704.856L802.536 700.199H804.434L803.917 704.856L808.23 702.993L808.782 704.787L804.193 705.718L804.227 705.684Z" fill="#B2B2B2"/>
<path d="M815.89 705.684L819.03 709.133L817.512 710.272L815.166 706.167L812.854 710.272L811.335 709.133L814.441 705.684L809.852 704.752L810.404 702.959L814.717 704.856L814.199 700.199H816.097L815.58 704.856L819.893 702.993L820.445 704.787L815.856 705.718L815.89 705.684Z" fill="#B2B2B2"/>
<path d="M827.519 705.684L830.659 709.133L829.141 710.272L826.794 706.167L824.483 710.272L822.964 709.133L826.07 705.684L821.48 704.752L822.033 702.959L826.346 704.856L825.828 700.199H827.726L827.209 704.856L831.522 702.993L832.074 704.787L827.485 705.718L827.519 705.684Z" fill="#B2B2B2"/>
<path d="M839.182 705.684L842.322 709.133L840.804 710.272L838.458 706.167L836.146 710.272L834.627 709.133L837.733 705.684L833.144 704.752L833.696 702.959L838.009 704.856L837.491 700.199H839.389L838.872 704.856L843.185 702.993L843.737 704.787L839.148 705.718L839.182 705.684Z" fill="#B2B2B2"/>
<path d="M843.323 1646C965.234 1646 1064.06 1553.16 1064.06 1438.65C1064.06 1324.13 965.234 1231.29 843.323 1231.29C721.413 1231.29 622.585 1324.13 622.585 1438.65C622.585 1553.16 721.413 1646 843.323 1646Z" fill="#263238"/>
<path d="M838.699 1635.2C960.61 1635.2 1059.44 1542.37 1059.44 1427.85C1059.44 1313.33 960.61 1220.5 838.699 1220.5C716.789 1220.5 617.961 1313.33 617.961 1427.85C617.961 1542.37 716.789 1635.2 838.699 1635.2Z" fill="white" stroke="#263238" stroke-miterlimit="10"/>
<path d="M838.699 1606.85C943.915 1606.85 1029.21 1526.71 1029.21 1427.85C1029.21 1328.99 943.915 1248.85 838.699 1248.85C733.483 1248.85 648.188 1328.99 648.188 1427.85C648.188 1526.71 733.483 1606.85 838.699 1606.85Z" fill="white" stroke="#263238" stroke-miterlimit="10"/>
<path d="M891.46 1307.36C814.994 1307.36 752.985 1385.21 752.985 1481.28C752.985 1543.24 778.796 1597.6 817.651 1628.44C824.069 1628.99 830.556 1629.3 837.112 1629.3C917.478 1629.3 987.595 1588.15 1025 1527.13C1028.17 1512.54 1029.9 1497.19 1029.9 1481.32C1029.9 1385.25 967.926 1307.39 891.426 1307.39L891.46 1307.36Z" fill="#263238"/>
<path d="M754.641 1402.84H664.476V1424.4H754.641V1402.84Z" fill="white" stroke="#263238" stroke-miterlimit="10"/>
<path d="M870.48 1541.65C946.442 1541.65 1008.02 1483.81 1008.02 1412.46C1008.02 1341.12 946.442 1283.28 870.48 1283.28C794.517 1283.28 732.937 1341.12 732.937 1412.46C732.937 1483.81 794.517 1541.65 870.48 1541.65Z" fill="white" stroke="#263238" stroke-miterlimit="10"/>
<path d="M870.48 1520.33C933.884 1520.33 985.283 1472.04 985.283 1412.46C985.283 1352.89 933.884 1304.6 870.48 1304.6C807.076 1304.6 755.677 1352.89 755.677 1412.46C755.677 1472.04 807.076 1520.33 870.48 1520.33Z" fill="#263238" stroke="#263238" stroke-miterlimit="10"/>
<path d="M822.378 1313.53C821.653 1311.74 820.79 1309.98 819.824 1308.25C808.126 1287.9 809.576 1261.96 818.375 1237.88" stroke="#263238" stroke-miterlimit="10"/>
<path d="M824.207 1356.41C824.207 1356.41 830.349 1333.09 822.378 1313.53" stroke="white" stroke-miterlimit="10"/>
<path d="M865.2 1308.29C853.502 1287.94 854.952 1261.99 863.751 1237.92" stroke="#263238" stroke-miterlimit="10"/>
<path d="M869.583 1356.41C869.583 1356.41 876.898 1328.64 865.2 1308.25" stroke="white" stroke-miterlimit="10"/>
<path d="M911.991 1311.01C911.543 1310.08 911.059 1309.18 910.542 1308.29C898.844 1287.94 900.293 1261.99 909.093 1237.92" stroke="#263238" stroke-miterlimit="10"/>
<path d="M914.958 1356.41C914.958 1356.41 921.653 1331.06 912.025 1311.01" stroke="white" stroke-miterlimit="10"/>
<path d="M1351.19 1220.08C1351.19 1220.08 1347.6 1220.29 1341.18 1220.98C1335.08 1200.28 1316.82 1139.09 1304.81 1107.45C1290.22 1069.03 1270.34 1014.7 1257.09 992.17C1243.84 969.644 1245.15 956.398 1220 935.183C1194.81 913.968 1172.27 923.248 1172.27 923.248C1172.27 923.248 1168.31 907.345 1143.12 899.411C1117.93 891.477 1083.49 907.345 1083.49 907.345C1083.49 907.345 1078.17 898.066 1053.02 900.722C1027.86 903.378 1018.55 925.904 1018.55 925.904C1018.55 925.904 966.857 822.555 946.981 814.621C927.105 806.687 907.229 826.557 915.166 845.081C923.102 863.639 982.764 966.988 990.701 990.825C998.637 1014.66 1015.89 1054.43 1015.89 1054.43C1015.89 1054.43 958.886 1013.35 941.667 1009.38C924.448 1005.42 899.258 1002.76 884.662 1018.66C870.066 1034.57 904.538 1038.53 932.385 1063.71C960.231 1088.9 1005.3 1147.19 1026.48 1184.28C1047.71 1221.39 1092.77 1228.02 1112.65 1249.2C1126.66 1264.13 1146.53 1284.93 1157.09 1295.97C1150.43 1302.91 1147.12 1307.49 1147.12 1307.49L1190.87 1414.81C1190.87 1414.81 1200.16 1400.22 1237.25 1371.07C1274.34 1341.92 1389.67 1306.15 1389.67 1306.15L1351.22 1220.01L1351.19 1220.08Z" fill="#263238" stroke="#263238" stroke-miterlimit="10"/>
<path d="M1162.68 1275.83C1162.68 1275.83 1130.87 1242.71 1110.99 1221.5C1091.11 1200.28 1046.05 1193.66 1024.83 1156.58C1003.61 1119.49 958.54 1061.16 930.728 1036.01C902.881 1010.83 868.444 1006.87 883.006 990.963C897.602 975.06 922.757 977.716 940.01 981.683C957.229 985.65 1014.23 1026.73 1014.23 1026.73C1014.23 1026.73 997.015 986.996 989.044 963.125C981.108 939.288 921.446 835.939 913.51 817.381C905.573 798.822 925.449 778.953 945.325 786.921C965.2 794.855 1016.89 898.204 1016.89 898.204C1016.89 898.204 1026.17 875.678 1051.36 873.022C1076.55 870.366 1081.83 879.645 1081.83 879.645C1081.83 879.645 1116.3 863.743 1141.46 871.711C1166.61 879.68 1170.62 895.548 1170.62 895.548C1170.62 895.548 1193.15 886.268 1218.34 907.483C1243.53 928.698 1242.18 941.944 1255.43 964.47C1268.69 986.996 1288.56 1041.33 1303.16 1079.75C1317.75 1118.18 1341.6 1200.32 1341.6 1200.32L1170.62 1293.08L1162.68 1275.86V1275.83Z" fill="#FFBE9D" stroke="#263238" stroke-miterlimit="10"/>
<path d="M1016.89 898.204L1063.27 967.126" stroke="#263238" stroke-miterlimit="10"/>
<path d="M1081.83 879.68L1124.24 945.911" stroke="#263238" stroke-miterlimit="10"/>
<path d="M1170.65 895.582L1199.81 947.257" stroke="#263238" stroke-miterlimit="10"/>
<path d="M1034.7 1086L1040.73 1103.59" stroke="#263238" stroke-miterlimit="10"/>
<path d="M1014.23 1026.73L1030.49 1073.79" stroke="#263238" stroke-miterlimit="10"/>
<path d="M1088.46 983.029L1099.05 997.586" stroke="#263238" stroke-miterlimit="10"/>
<path d="M1137.49 968.437L1149.43 984.339" stroke="#263238" stroke-miterlimit="10"/>
<path d="M1202.43 960.503L1210.4 985.685" stroke="#263238" stroke-miterlimit="10"/>
<path d="M1145.46 1279.83C1145.46 1279.83 1175.93 1237.43 1238.25 1216.22C1300.53 1195 1349.57 1192.38 1349.57 1192.38L1388.01 1278.52C1388.01 1278.52 1272.69 1314.29 1235.59 1343.44C1198.5 1372.59 1189.22 1387.18 1189.22 1387.18L1145.46 1279.86V1279.83Z" fill="white" stroke="#263238" stroke-miterlimit="10"/>
<path d="M1250.15 1566C1250.15 1566 1199.78 1440.13 1186.52 1413.64C1173.27 1387.14 1194.46 1373.9 1194.46 1373.9C1194.46 1373.9 1224.93 1332.81 1304.47 1301.01C1384.01 1269.2 1390.63 1267.89 1410.51 1290.42C1430.38 1312.94 1560.78 1566.25 1560.78 1566.25" fill="white"/>
<path d="M1250.15 1566C1250.15 1566 1199.78 1440.13 1186.52 1413.64C1173.27 1387.14 1194.46 1373.9 1194.46 1373.9C1194.46 1373.9 1224.93 1332.81 1304.47 1301.01C1384.01 1269.2 1390.63 1267.89 1410.51 1290.42C1430.38 1312.94 1560.78 1566.25 1560.78 1566.25" stroke="#263238" stroke-miterlimit="10"/>
<path d="M422.792 1433.58C422.792 1433.58 440.804 1394.94 483.73 1373.07C526.622 1351.2 554.503 1341.78 595.566 1301.29C636.629 1260.79 704.296 1224.64 732.177 1219.67C760.093 1214.67 769.341 1202.7 757.333 1189C745.324 1175.31 712.509 1174.55 683.282 1184.41C654.055 1194.28 627.07 1206.35 627.07 1206.35C641.874 1177.24 651.708 1142.16 666.27 1112.94C676.622 1092.21 693.564 1057.99 703.64 1037.08C710.197 1023.46 729.727 1000.76 721.032 985.857C712.302 970.886 691.391 980.855 680.797 995.068C663.958 1017.7 581.591 1141.81 581.591 1141.81C597.222 1108.7 612.888 1075.58 628.52 1042.46C652.295 992.135 663.647 968.126 660.266 975.267C667.202 960.572 680.694 940.944 672.481 924.007C664.13 906.828 639.941 905.069 629.9 921.419C618.444 940.082 530.901 1105.7 530.901 1105.7C530.901 1105.7 585.697 963.539 592.702 947.222C601.26 927.284 596.187 909.898 583.592 909.967C565.269 910.105 556.574 930.423 549.396 944.221C550.742 942.289 552.053 940.323 553.399 938.391C536.249 961.227 524.724 991.273 510.369 1016.08C493.599 1045.05 476.242 1073.72 458.333 1102C461.853 1072.72 473.62 1045.26 488.182 1019.87C496.981 1004.55 533.558 966.919 527.312 948.395C521.929 932.458 481.798 962.4 458.437 995.068C445.704 1012.87 412.371 1061.44 403.192 1095.59C394.013 1129.74 329.762 1246.09 312.612 1278.48C295.463 1310.91 274.862 1368.14 274.862 1368.14L422.723 1433.58H422.792Z" fill="#EB996E" stroke="#263238" stroke-miterlimit="10"/>
<path d="M471.721 1402.32C471.721 1402.32 438.664 1361.89 375.207 1344.58C311.715 1327.26 262.612 1327.64 262.612 1327.64L229.555 1415.98C229.555 1415.98 346.842 1444.58 385.697 1471.38C424.551 1498.19 434.696 1512.16 434.696 1512.16L471.721 1402.36V1402.32Z" fill="#263238" stroke="#263238" stroke-miterlimit="10"/>
<path d="M418.409 1418.26C418.409 1418.26 436.421 1379.62 479.348 1357.75C522.239 1335.88 550.12 1326.47 591.183 1285.97C632.246 1245.47 699.913 1209.32 727.794 1204.35C755.71 1199.35 764.958 1187.38 752.95 1173.69C740.941 1159.99 708.126 1159.23 678.899 1169.1C649.672 1178.96 622.688 1191.04 622.688 1191.04C637.491 1161.92 647.325 1126.84 661.887 1097.62C672.239 1076.89 689.182 1042.67 699.258 1021.77C705.814 1008.14 725.345 985.443 716.649 970.541C707.919 955.57 687.008 965.539 676.414 979.752C659.575 1002.38 577.208 1126.5 577.208 1126.5C592.839 1093.38 608.505 1060.26 624.137 1027.15C647.912 976.819 659.265 952.81 655.883 959.951C662.819 945.256 676.311 925.628 668.098 908.691C659.748 891.512 635.559 889.752 625.517 906.103C614.061 924.766 526.518 1090.38 526.518 1090.38C526.518 1090.38 581.314 948.223 588.319 931.906C596.877 911.968 591.804 894.582 579.209 894.651C560.886 894.789 552.191 915.107 545.013 928.905C546.359 926.973 547.67 925.007 549.016 923.075C531.866 945.911 520.341 975.957 505.987 1000.76C489.216 1029.74 471.86 1058.4 453.951 1086.69C457.47 1057.4 469.237 1029.94 483.799 1004.55C492.598 989.238 529.175 951.603 522.929 933.079C517.546 917.142 477.415 947.084 454.054 979.752C441.321 997.551 407.988 1046.12 398.809 1080.27C389.631 1114.42 325.379 1230.78 308.23 1263.17C291.08 1295.59 270.479 1352.82 270.479 1352.82L418.34 1418.26H418.409Z" fill="#FFBE9D" stroke="#263238" stroke-miterlimit="10"/>
<path d="M526.587 1090.41L510.748 1122.39" stroke="#263238" stroke-miterlimit="10"/>
<path d="M577.242 1126.53L564.889 1142.54" stroke="#263238" stroke-miterlimit="10"/>
<path d="M622.722 1191.04L606.849 1214.15" stroke="#263238" stroke-miterlimit="10"/>
<path d="M540.665 1175.86L539.389 1189.62" stroke="#263238" stroke-miterlimit="10"/>
<path d="M501.121 1150.78L501.156 1164.06" stroke="#263238" stroke-miterlimit="10"/>
<path d="M442.943 1123.08L446.118 1145.68" stroke="#263238" stroke-miterlimit="10"/>
<path d="M467.34 1387.04C467.34 1387.04 434.282 1346.61 370.825 1329.3C307.333 1311.98 258.23 1312.36 258.23 1312.36L225.173 1400.7C225.173 1400.7 342.461 1429.3 381.315 1456.1C420.169 1482.9 430.314 1496.88 430.314 1496.88L467.34 1387.08V1387.04Z" fill="white" stroke="#263238" stroke-miterlimit="10"/>
<path d="M414.786 1578.04C414.786 1578.04 422.999 1550.41 434.593 1523.16C446.187 1495.91 424.206 1483.97 424.206 1483.97C424.206 1483.97 391.253 1444.86 309.921 1418.02C228.589 1391.18 221.895 1390.28 203.434 1413.98C184.973 1437.68 125.587 1580.15 125.587 1580.15" fill="white"/>
<path d="M414.786 1578.04C414.786 1578.04 422.999 1550.41 434.593 1523.16C446.187 1495.91 424.206 1483.97 424.206 1483.97C424.206 1483.97 391.253 1444.86 309.921 1418.02C228.589 1391.18 221.895 1390.28 203.434 1413.98C184.973 1437.68 125.587 1580.15 125.587 1580.15" stroke="#263238" stroke-miterlimit="10"/>
</g>
<defs>
<clipPath id="clip0_119_5453">
<rect width="1552" height="1572" fill="white" transform="translate(124 74)"/>
</clipPath>
</defs>
</svg>
