<svg width="1800" height="1720" viewBox="0 0 1800 1720" fill="none" xmlns="http://www.w3.org/2000/svg">
<g clip-path="url(#clip0_130_4095)">
<path d="M1147.77 834.055C993.771 832.621 854.453 831.324 753.438 830.368C703.05 830.129 662.254 829.924 633.919 829.822C619.889 829.822 608.964 829.89 601.42 829.89C597.767 829.924 594.968 829.958 592.954 829.992C591.042 830.027 590.086 830.095 590.086 830.129C590.086 830.163 591.076 830.231 592.954 830.3C594.968 830.334 597.767 830.402 601.386 830.505C608.93 830.607 619.855 830.744 633.885 830.914C662.22 831.051 703.015 831.29 753.404 831.529C854.419 831.597 993.771 831.665 1147.77 831.768C1301.66 831.768 1441.05 831.938 1541.96 832.689C1592.42 833.031 1633.25 833.509 1661.45 834.021C1675.55 834.294 1686.51 834.567 1693.95 834.84C1701.39 835.113 1705.28 835.386 1705.28 835.659C1705.28 835.933 1701.39 836.172 1693.95 836.376C1686.51 836.581 1675.55 836.752 1661.45 836.888C1633.22 837.127 1592.39 837.196 1541.93 837.059C1441.02 836.786 1301.66 835.591 1147.77 834.021V834.055Z" fill="#F5F5F5"/>
<path d="M1144.7 867.818C992.815 843.136 855.374 820.775 755.758 804.594C706.019 796.742 665.77 790.392 637.811 785.988C623.951 783.906 613.163 782.267 605.687 781.175C602.068 780.663 599.303 780.287 597.323 780.014C595.445 779.775 594.455 779.673 594.455 779.741C594.455 779.809 595.411 780.014 597.254 780.355C599.234 780.697 602 781.209 605.584 781.823C613.026 783.052 623.78 784.828 637.606 787.149C665.565 791.587 705.814 797.937 755.554 805.823C855.34 821.117 992.985 842.248 1145.07 865.599C1297.12 888.813 1434.77 910.047 1534.32 925.989C1584.09 933.944 1624.34 940.601 1652.13 945.38C1666.02 947.77 1676.81 949.716 1684.08 951.115C1691.39 952.515 1695.18 953.402 1695.14 953.676C1695.11 953.949 1691.22 953.607 1683.84 952.686C1676.47 951.764 1665.61 950.296 1651.65 948.282C1623.72 944.253 1583.37 938.177 1533.57 930.393C1433.95 914.894 1296.44 892.636 1144.66 867.852L1144.7 867.818Z" fill="#F5F5F5"/>
<path d="M1136.2 900.693C990.221 853.07 858.106 809.953 762.348 778.717C714.486 763.355 675.773 750.928 648.872 742.291C635.524 738.126 625.112 734.849 617.943 732.63C614.461 731.572 611.798 730.787 609.852 730.206C608.043 729.694 607.087 729.421 607.053 729.489C607.053 729.558 607.94 729.899 609.716 730.548C611.627 731.196 614.256 732.118 617.67 733.279C624.805 735.634 635.149 739.048 648.428 743.418C675.329 752.055 714.042 764.515 761.87 779.912C857.935 810.295 990.426 852.217 1136.84 898.542C1283.23 944.731 1415.72 986.756 1511.48 1017.75C1559.34 1033.25 1598.02 1045.95 1624.68 1054.93C1638.03 1059.44 1648.34 1062.99 1655.3 1065.48C1662.27 1067.97 1665.89 1069.44 1665.82 1069.68C1665.72 1069.95 1661.93 1068.99 1654.79 1066.98C1647.66 1064.97 1637.18 1061.83 1623.73 1057.69C1596.79 1049.47 1557.94 1037.25 1510.01 1021.95C1414.15 991.398 1281.97 948.384 1136.09 900.659L1136.2 900.693Z" fill="#F5F5F5"/>
<path d="M1122.54 931.861C986.09 862.492 862.612 799.746 773.101 754.239C728.346 731.742 692.091 713.547 666.931 700.915C654.402 694.736 644.673 689.957 637.948 686.611C634.67 685.041 632.178 683.846 630.369 682.993C628.662 682.208 627.774 681.798 627.74 681.866C627.74 681.935 628.56 682.412 630.232 683.3C632.008 684.222 634.465 685.519 637.674 687.226C644.331 690.64 653.993 695.59 666.419 701.94C691.579 714.605 727.8 732.835 772.555 755.332C862.475 800.019 986.534 861.707 1123.63 929.847C1260.73 997.85 1384.76 1059.64 1474.27 1104.87C1519.02 1127.47 1555.18 1145.94 1580.06 1158.91C1592.49 1165.4 1602.12 1170.49 1608.6 1174C1615.09 1177.55 1618.43 1179.5 1618.3 1179.77C1618.16 1180.01 1614.58 1178.51 1607.85 1175.4C1601.13 1172.3 1591.29 1167.62 1578.66 1161.48C1553.4 1149.22 1517.01 1131.23 1472.15 1108.8C1382.44 1063.94 1258.85 1001.26 1122.54 931.861Z" fill="#F5F5F5"/>
<path d="M1103.97 960.537C980.354 871.3 868.483 790.563 787.37 732.016C746.78 702.998 713.905 679.545 691.1 663.227C679.732 655.239 670.891 648.991 664.78 644.724C661.81 642.676 659.523 641.105 657.884 639.979C656.314 638.92 655.494 638.408 655.46 638.443C655.426 638.477 656.177 639.091 657.679 640.252C659.284 641.447 661.503 643.085 664.404 645.236C670.447 649.64 679.186 655.99 690.418 664.149C713.222 680.467 746.063 703.988 786.654 733.006C868.278 790.836 980.9 870.583 1105.37 958.728C1229.84 1046.74 1342.39 1126.59 1423.54 1184.89C1464.13 1214.01 1496.83 1237.77 1519.33 1254.33C1530.56 1262.63 1539.27 1269.11 1545.1 1273.59C1550.94 1278.06 1553.91 1280.52 1553.74 1280.75C1553.57 1280.96 1550.26 1278.95 1544.15 1274.85C1538 1270.75 1529.06 1264.64 1517.55 1256.69C1494.58 1240.74 1461.53 1217.46 1420.84 1188.48C1339.42 1130.55 1227.48 1049.88 1103.97 960.571V960.537Z" fill="#F5F5F5"/>
<path d="M1081.06 986.039C973.219 879.22 875.617 782.54 804.883 712.454C769.413 677.667 740.703 649.503 720.766 629.942C710.832 620.315 703.082 612.839 697.723 607.684C695.128 605.226 693.114 603.314 691.646 601.949C690.281 600.686 689.53 600.037 689.495 600.071C689.461 600.105 690.11 600.822 691.407 602.188C692.807 603.587 694.719 605.567 697.245 608.128C702.502 613.385 710.115 620.964 719.913 630.727C739.815 650.289 768.526 678.487 803.961 713.308C875.344 782.745 973.833 878.571 1082.67 984.434C1191.53 1090.19 1289.95 1186.09 1360.79 1255.94C1396.23 1290.86 1424.73 1319.23 1444.29 1338.99C1454.09 1348.86 1461.64 1356.61 1466.65 1361.9C1471.71 1367.19 1474.27 1370.09 1474.06 1370.27C1473.86 1370.47 1470.92 1367.94 1465.53 1362.99C1460.13 1358.04 1452.25 1350.64 1442.18 1341.01C1422.03 1321.79 1393.12 1293.8 1357.55 1259.01C1286.4 1189.47 1188.7 1092.86 1080.99 986.004L1081.06 986.039Z" fill="#F5F5F5"/>
<path d="M1054.33 1007.78C964.889 885.945 883.981 775.679 825.332 695.761C795.87 656.024 772.008 623.866 755.45 601.539C747.155 590.547 740.703 581.978 736.265 576.072C734.08 573.239 732.407 571.054 731.178 569.483C730.017 568.015 729.403 567.264 729.369 567.298C729.335 567.333 729.847 568.152 730.905 569.654C732.032 571.259 733.636 573.512 735.719 576.413C740.088 582.388 746.404 591.059 754.495 602.188C771.052 624.548 794.88 656.707 824.307 696.444C883.708 775.849 965.674 885.365 1056.24 1006.42C1146.85 1127.34 1228.74 1236.96 1287.53 1316.67C1316.92 1356.51 1340.58 1388.87 1356.73 1411.37C1364.82 1422.6 1371.03 1431.37 1375.16 1437.38C1379.29 1443.39 1381.34 1446.63 1381.14 1446.77C1380.9 1446.94 1378.41 1444 1373.87 1438.3C1369.33 1432.6 1362.74 1424.07 1354.3 1413.07C1337.47 1391.06 1313.41 1359 1283.84 1319.26C1224.68 1239.82 1143.67 1129.62 1054.37 1007.75L1054.33 1007.78Z" fill="#F5F5F5"/>
<path d="M1024.46 1025.23C955.741 891.305 893.541 770.114 848.478 682.242C825.776 638.511 807.375 603.144 794.608 578.564C788.19 566.445 783.206 556.989 779.758 550.468C778.051 547.328 776.753 544.938 775.798 543.197C774.876 541.558 774.398 540.739 774.33 540.773C774.261 540.773 774.671 541.661 775.456 543.333C776.31 545.109 777.539 547.532 779.109 550.741C782.455 557.296 787.302 566.821 793.515 579.042C806.249 603.622 824.615 639.023 847.283 682.754C893.199 770.216 956.526 890.827 1026.51 1024.17C1096.56 1157.38 1159.82 1278.09 1205.05 1365.72C1227.69 1409.56 1245.81 1445.1 1258.17 1469.78C1264.35 1482.1 1269.06 1491.73 1272.2 1498.28C1275.31 1504.84 1276.85 1508.35 1276.57 1508.46C1276.33 1508.59 1274.32 1505.32 1270.73 1498.97C1267.15 1492.62 1262.03 1483.23 1255.47 1471.08C1242.4 1446.77 1223.76 1411.47 1200.96 1367.74C1155.31 1280.28 1093.01 1159.12 1024.43 1025.2L1024.46 1025.23Z" fill="#F5F5F5"/>
<path d="M992.131 1037.86C945.942 895.094 904.157 765.881 873.842 672.239C858.48 625.606 846.053 587.849 837.416 561.631C833.047 548.659 829.633 538.588 827.277 531.624C826.117 528.278 825.195 525.684 824.546 523.84C823.898 522.099 823.556 521.211 823.488 521.211C823.42 521.211 823.659 522.167 824.205 523.942C824.785 525.82 825.57 528.415 826.629 531.828C828.882 538.827 832.091 548.966 836.256 561.973C844.859 588.191 857.251 625.982 872.579 672.615C903.747 765.983 946.761 894.821 994.316 1037.18C1041.94 1179.43 1084.85 1308.3 1115.34 1401.77C1130.6 1448.51 1142.75 1486.4 1150.94 1512.66C1155.04 1525.76 1158.15 1536.01 1160.16 1542.94C1162.17 1549.9 1163.1 1553.59 1162.82 1553.66C1162.55 1553.72 1161.12 1550.21 1158.59 1543.41C1156.1 1536.62 1152.51 1526.55 1148.04 1513.54C1139.06 1487.53 1126.4 1449.81 1110.93 1403.14C1080 1309.81 1038.12 1180.59 992.063 1037.86H992.131Z" fill="#F5F5F5"/>
<path d="M958.164 1045.44C935.667 897.382 915.321 763.389 900.539 666.3C892.926 617.891 886.781 578.701 882.48 551.492C880.261 538.042 878.52 527.562 877.325 520.324C876.71 516.842 876.232 514.145 875.891 512.233C875.55 510.424 875.345 509.468 875.277 509.502C875.208 509.502 875.277 510.458 875.55 512.302C875.823 514.248 876.198 516.945 876.676 520.427C877.769 527.664 879.305 538.178 881.319 551.697C885.586 578.905 891.697 618.096 899.276 666.538C914.945 763.525 936.555 897.313 960.452 1045.17C984.451 1192.92 1005.96 1326.77 1020.94 1423.73C1028.46 1472.2 1034.33 1511.5 1038.18 1538.67C1040.1 1552.26 1041.53 1562.81 1042.38 1569.97C1043.24 1577.14 1043.58 1580.93 1043.27 1580.97C1043 1581 1042.14 1577.31 1040.78 1570.21C1039.41 1563.11 1037.54 1552.63 1035.21 1539.08C1030.57 1512.04 1024.15 1472.85 1016.44 1424.37C1001.01 1327.46 980.525 1193.46 958.164 1045.47V1045.44Z" fill="#F5F5F5"/>
<path d="M923.378 1047.73C924.777 898.064 926.006 762.638 926.928 664.49C927.133 615.536 927.304 575.867 927.44 548.352C927.406 534.73 927.372 524.113 927.338 516.774C927.269 513.223 927.235 510.526 927.201 508.546C927.167 506.703 927.099 505.747 927.03 505.747C926.962 505.747 926.894 506.703 926.86 508.546C926.826 510.492 926.757 513.223 926.655 516.774C926.552 524.113 926.45 534.696 926.279 548.352C926.143 575.867 925.938 615.536 925.699 664.49C925.699 762.672 925.699 898.098 925.699 1047.76C925.801 1197.35 925.699 1332.82 925.016 1430.86C924.675 1479.88 924.231 1519.59 923.719 1547C923.446 1560.72 923.173 1571.37 922.9 1578.58C922.627 1585.78 922.319 1589.6 922.046 1589.57C921.773 1589.57 921.5 1585.78 921.295 1578.54C921.09 1571.31 920.886 1560.69 920.749 1546.96C920.476 1519.55 920.408 1479.85 920.51 1430.83C920.749 1332.75 921.876 1197.32 923.378 1047.73Z" fill="#F5F5F5"/>
<path d="M888.625 1044.76C913.921 897.142 936.828 763.525 953.454 666.709C961.476 618.369 967.997 579.212 972.503 552.038C974.654 538.554 976.292 528.073 977.453 520.836C977.965 517.32 978.34 514.623 978.648 512.711C978.887 510.867 978.989 509.946 978.921 509.912C978.853 509.912 978.648 510.833 978.272 512.643C977.897 514.554 977.419 517.251 976.77 520.733C975.507 527.971 973.664 538.417 971.342 551.868C966.802 579.042 960.281 618.164 952.191 666.504C936.487 763.491 914.843 897.279 890.946 1045.13C867.152 1192.92 845.406 1326.7 829.054 1423.49C820.895 1471.86 814.101 1511.02 809.185 1538.02C806.727 1551.54 804.747 1561.99 803.313 1569.09C801.88 1576.19 800.992 1579.87 800.685 1579.84C800.412 1579.81 800.753 1576.02 801.709 1568.85C802.631 1561.68 804.167 1551.13 806.215 1537.58C810.312 1510.44 816.593 1471.21 824.547 1422.8C840.456 1325.95 863.26 1192.34 888.659 1044.79L888.625 1044.76Z" fill="#F5F5F5"/>
<path d="M854.794 1036.53C903.714 894.616 947.992 766.188 980.082 673.127C995.854 626.631 1008.62 588.976 1017.46 562.826C1021.76 549.854 1025.08 539.749 1027.4 532.75C1028.46 529.371 1029.31 526.776 1029.89 524.899C1030.44 523.123 1030.67 522.202 1030.61 522.202C1030.54 522.202 1030.2 523.055 1029.55 524.796C1028.87 526.64 1027.94 529.2 1026.75 532.546C1024.32 539.476 1020.84 549.546 1016.34 562.451C1007.46 588.601 994.659 626.221 978.853 672.752C947.65 766.12 904.602 894.924 857.047 1037.28C809.629 1179.6 766.444 1308.37 734.627 1401.43C718.719 1447.96 705.678 1485.55 696.427 1511.5C691.818 1524.47 688.165 1534.5 685.571 1541.26C683.01 1548.06 681.508 1551.57 681.235 1551.47C680.962 1551.37 681.918 1547.72 684 1540.75C686.083 1533.82 689.292 1523.65 693.525 1510.54C701.991 1484.36 714.52 1446.6 730.224 1400C761.631 1306.8 805.806 1178.34 854.794 1036.53Z" fill="#F5F5F5"/>
<path d="M822.739 1023.25C894.02 890.588 958.507 770.523 1005.28 683.505C1028.39 639.979 1047.1 604.748 1060.07 580.305C1066.42 568.152 1071.33 558.661 1074.75 552.141C1076.35 548.966 1077.58 546.508 1078.47 544.767C1079.29 543.094 1079.7 542.241 1079.63 542.207C1079.56 542.207 1079.08 542.992 1078.16 544.596C1077.21 546.303 1075.87 548.693 1074.13 551.834C1070.62 558.32 1065.53 567.708 1059.01 579.793C1046 604.236 1027.26 639.467 1004.15 682.959C958.199 770.387 894.839 890.997 824.821 1024.31C754.94 1157.58 691.443 1278.16 644.947 1365.21C621.698 1408.74 602.717 1443.87 589.438 1468.07C582.781 1480.16 577.558 1489.51 573.905 1495.83C570.286 1502.14 568.238 1505.38 567.999 1505.25C567.76 1505.11 569.296 1501.63 572.471 1495.11C575.646 1488.59 580.459 1479.03 586.775 1466.74C599.372 1442.19 617.841 1406.83 640.918 1363.2C687.005 1275.98 751.424 1155.84 822.773 1023.28L822.739 1023.25Z" fill="#F5F5F5"/>
<path d="M793.209 1005.26C884.939 885.058 967.963 776.293 1028.15 697.433C1057.95 657.97 1082.12 626.016 1098.88 603.826C1107.11 592.765 1113.49 584.163 1117.93 578.223C1120.01 575.321 1121.65 573.102 1122.81 571.497C1123.91 569.961 1124.42 569.176 1124.38 569.142C1124.35 569.108 1123.7 569.825 1122.54 571.293C1121.31 572.829 1119.61 575.014 1117.42 577.813C1112.91 583.685 1106.36 592.185 1098 603.109C1081.2 625.299 1057.06 657.219 1027.19 696.682C967.758 776.054 885.758 885.57 795.155 1006.59C704.688 1127.61 622.586 1237.06 562.673 1315.95C532.734 1355.41 508.325 1387.23 491.29 1409.08C482.79 1420 476.098 1428.47 471.49 1434.14C466.881 1439.8 464.355 1442.71 464.116 1442.54C463.877 1442.37 465.993 1439.16 470.158 1433.18C474.357 1427.21 480.639 1418.5 488.832 1407.34C505.218 1385.01 529.183 1352.85 558.952 1313.29C618.523 1234.12 701.445 1125.25 793.243 1005.19L793.209 1005.26Z" fill="#F5F5F5"/>
<path d="M766.955 983C876.812 878.127 976.223 783.223 1048.29 714.434C1084.07 679.954 1113.01 652.029 1133.12 632.639C1143.02 622.978 1150.7 615.433 1156.03 610.244C1158.56 607.718 1160.5 605.738 1161.9 604.338C1163.2 603.007 1163.88 602.29 1163.81 602.256C1163.78 602.222 1163.03 602.836 1161.63 604.099C1160.16 605.431 1158.15 607.342 1155.52 609.766C1150.12 614.887 1142.31 622.295 1132.27 631.819C1112.16 651.176 1083.18 679.101 1047.37 713.547C975.95 782.984 877.426 878.742 768.559 984.605C659.829 1090.47 561.203 1186.19 489.376 1255.08C453.463 1289.53 424.275 1317.28 403.962 1336.3C393.789 1345.82 385.869 1353.16 380.407 1358.04C374.945 1362.96 371.975 1365.42 371.804 1365.25C371.599 1365.04 374.194 1362.21 379.28 1356.95C384.367 1351.69 391.98 1344.05 401.88 1334.25C421.646 1314.65 450.459 1286.52 486.202 1251.94C557.687 1182.74 657.064 1087.74 766.921 983H766.955Z" fill="#F5F5F5"/>
<path d="M744.562 957.055C869.884 870.071 983.257 791.348 1065.46 734.269C1106.33 705.593 1139.41 682.413 1162.35 666.299C1173.68 658.243 1182.45 651.961 1188.56 647.626C1191.47 645.509 1193.72 643.871 1195.32 642.71C1196.83 641.583 1197.58 640.969 1197.54 640.935C1197.51 640.901 1196.69 641.413 1195.12 642.437C1193.48 643.563 1191.16 645.1 1188.15 647.114C1182.01 651.347 1173.1 657.492 1161.66 665.378C1138.69 681.457 1105.61 704.637 1064.71 733.279C983.052 791.075 870.396 870.788 745.928 958.865C621.562 1047.01 508.837 1126.65 426.871 1183.84C385.905 1212.44 352.62 1235.42 329.509 1251.16C317.936 1259.01 308.923 1265.05 302.744 1269.08C296.565 1273.11 293.254 1275.12 293.083 1274.88C292.912 1274.68 295.917 1272.22 301.788 1267.82C307.66 1263.38 316.4 1256.99 327.733 1248.8C350.401 1232.45 383.345 1209 424.208 1180.25C505.901 1122.69 619.274 1043.87 744.562 957.021V957.055Z" fill="#F5F5F5"/>
<path d="M726.605 928.037C864.353 861.16 989.026 800.633 1079.39 756.766C1124.35 734.678 1160.74 716.79 1186.04 704.363C1198.5 698.116 1208.23 693.268 1214.92 689.889C1218.13 688.216 1220.62 686.953 1222.4 686.031C1224.07 685.143 1224.92 684.666 1224.89 684.597C1224.89 684.529 1223.97 684.904 1222.23 685.69C1220.42 686.543 1217.89 687.704 1214.61 689.24C1207.85 692.483 1198.09 697.194 1185.49 703.271C1160.2 715.663 1123.8 733.552 1078.81 755.605C988.856 800.258 864.763 861.912 727.664 930.017C590.667 998.192 466.506 1059.74 376.346 1103.75C331.284 1125.77 294.688 1143.42 269.323 1155.43C256.623 1161.44 246.757 1166.05 239.998 1169.09C233.239 1172.13 229.654 1173.59 229.518 1173.36C229.381 1173.12 232.761 1171.17 239.281 1167.69C245.802 1164.21 255.463 1159.22 267.957 1152.84C292.947 1140.1 329.27 1121.98 374.264 1099.79C464.218 1055.37 588.857 994.744 726.605 928.003V928.037Z" fill="#F5F5F5"/>
<path d="M713.563 896.63C860.426 851.636 993.326 810.943 1089.7 781.448C1137.7 766.495 1176.51 754.41 1203.48 745.978C1216.8 741.711 1227.17 738.399 1234.34 736.112C1237.79 734.951 1240.45 734.098 1242.33 733.449C1244.14 732.835 1245.03 732.493 1245.03 732.425C1245.03 732.357 1244.07 732.596 1242.23 733.108C1240.32 733.654 1237.62 734.439 1234.14 735.463C1226.93 737.648 1216.52 740.789 1203.11 744.851C1176.14 753.249 1137.29 765.3 1089.29 780.219C993.224 810.568 860.699 852.455 714.28 898.747C567.963 945.107 435.37 986.926 339.202 1016.59C291.136 1031.44 252.15 1043.29 225.146 1051.28C211.662 1055.27 201.147 1058.31 193.978 1060.25C186.809 1062.24 183.02 1063.12 182.951 1062.85C182.849 1062.58 186.502 1061.18 193.5 1058.75C200.498 1056.33 210.876 1052.85 224.225 1048.48C250.989 1039.74 289.77 1027.38 337.803 1012.32C433.834 982.215 566.734 941.385 713.563 896.562V896.63Z" fill="#F5F5F5"/>
<path d="M705.779 863.584C858.104 841.633 995.955 821.765 1095.88 807.359C1145.69 799.951 1186 793.908 1214 789.743C1227.86 787.558 1238.64 785.886 1246.09 784.725C1249.67 784.11 1252.44 783.667 1254.42 783.325C1256.29 782.984 1257.25 782.779 1257.25 782.745C1257.25 782.677 1256.26 782.745 1254.38 782.984C1252.4 783.257 1249.6 783.598 1246.02 784.076C1238.54 785.135 1227.75 786.637 1213.86 788.617C1185.87 792.781 1145.55 798.756 1095.71 806.13C995.921 821.424 858.275 842.521 706.155 865.837C554.137 889.256 416.457 910.251 316.671 924.863C266.795 932.168 226.375 937.903 198.416 941.693C184.454 943.57 173.563 944.97 166.19 945.823C158.816 946.677 154.924 946.984 154.856 946.711C154.822 946.438 158.645 945.619 165.951 944.253C173.256 942.922 184.044 941.078 197.972 938.825C225.795 934.285 266.112 928.037 315.988 920.493C415.706 905.438 553.557 885.467 705.814 863.618L705.779 863.584Z" fill="#F5F5F5"/>
<path d="M703.39 829.787C857.388 831.051 996.707 832.177 1097.72 832.996C1148.11 833.167 1188.91 833.304 1217.24 833.406C1231.27 833.372 1242.19 833.304 1249.74 833.304C1253.39 833.235 1256.19 833.201 1258.21 833.167C1260.12 833.133 1261.07 833.065 1261.07 832.996C1261.07 832.928 1260.08 832.894 1258.21 832.826C1256.19 832.792 1253.39 832.723 1249.77 832.655C1242.23 832.587 1231.3 832.45 1217.27 832.279C1188.94 832.177 1148.14 832.006 1097.76 831.802C996.741 831.87 857.388 831.938 703.424 832.041C549.529 832.245 410.142 832.211 309.23 831.597C258.773 831.289 217.944 830.88 189.746 830.402C175.647 830.163 164.688 829.89 157.246 829.617C149.804 829.344 145.912 829.071 145.912 828.797C145.912 828.524 149.804 828.285 157.246 828.08C164.688 827.876 175.647 827.671 189.746 827.534C217.978 827.261 258.807 827.159 309.264 827.227C410.177 827.398 549.529 828.422 703.459 829.787H703.39Z" fill="#F5F5F5"/>
<path d="M706.394 796.025C858.31 820.536 995.784 842.692 1095.43 858.771C1145.17 866.554 1185.46 872.836 1213.42 877.206C1227.28 879.288 1238.06 880.893 1245.54 881.985C1249.16 882.463 1251.92 882.873 1253.9 883.146C1255.78 883.385 1256.77 883.487 1256.77 883.419C1256.77 883.351 1255.82 883.146 1253.97 882.804C1251.99 882.463 1249.23 881.985 1245.64 881.336C1238.2 880.107 1227.45 878.332 1213.62 876.079C1185.66 871.675 1145.38 865.36 1095.64 857.542C995.853 842.35 858.173 821.389 706.053 798.244C553.967 775.235 416.287 754.171 316.706 738.331C266.932 730.411 226.649 723.856 198.86 719.077C184.966 716.687 174.178 714.776 166.907 713.376C159.601 711.976 155.812 711.123 155.846 710.85C155.88 710.577 159.772 710.918 167.146 711.84C174.52 712.761 185.376 714.229 199.338 716.209C227.263 720.204 267.615 726.246 317.422 733.961C417.072 749.358 554.581 771.411 706.394 796.025Z" fill="#F5F5F5"/>
<path d="M714.861 763.116C860.905 810.568 993.054 853.514 1088.85 884.648C1136.71 899.942 1175.45 912.334 1202.36 920.937C1215.7 925.102 1226.12 928.345 1233.29 930.564C1236.77 931.588 1239.43 932.407 1241.38 932.988C1243.19 933.5 1244.14 933.739 1244.18 933.705C1244.18 933.636 1243.29 933.295 1241.51 932.646C1239.6 931.998 1236.97 931.11 1233.52 929.915C1226.39 927.56 1216.05 924.18 1202.73 919.81C1175.83 911.207 1137.08 898.781 1089.22 883.453C993.122 853.172 860.563 811.421 714.076 765.3C567.623 719.282 435.064 677.428 339.306 646.567C291.41 631.137 252.731 618.472 226.035 609.527C212.687 605.055 202.377 601.505 195.379 599.013C188.415 596.521 184.796 595.087 184.864 594.814C184.967 594.541 188.756 595.497 195.891 597.511C203.026 599.525 213.506 602.632 226.957 606.728C253.892 614.921 292.741 627.075 340.706 642.3C436.6 672.752 568.852 715.595 714.759 763.15L714.861 763.116Z" fill="#F5F5F5"/>
<path d="M728.482 731.947C865.035 801.146 988.581 863.755 1078.16 909.125C1122.95 931.554 1159.2 949.716 1184.4 962.313C1196.93 968.457 1206.66 973.271 1213.38 976.548C1216.66 978.119 1219.15 979.314 1220.96 980.167C1222.67 980.952 1223.59 981.362 1223.59 981.293C1223.59 981.225 1222.77 980.747 1221.1 979.86C1219.32 978.938 1216.86 977.641 1213.65 975.968C1207 972.554 1197.3 967.638 1184.88 961.288C1159.72 948.657 1123.46 930.496 1078.67 908.033C988.684 863.448 864.523 801.931 727.355 733.962C590.187 666.129 466.06 604.509 376.482 559.344C331.692 536.779 295.506 518.378 270.619 505.44C258.158 498.988 248.531 493.901 242.045 490.385C235.559 486.869 232.213 484.889 232.35 484.65C232.486 484.411 236.071 485.913 242.796 488.985C249.521 492.092 259.353 496.769 271.984 502.879C297.247 515.101 333.672 533.058 378.564 555.418C468.348 600.174 591.997 662.681 728.413 731.947H728.482Z" fill="#F5F5F5"/>
<path d="M746.985 703.271C870.736 792.338 982.71 872.973 1063.86 931.417C1104.48 960.367 1137.39 983.82 1160.23 1000.1C1171.6 1008.09 1180.47 1014.31 1186.58 1018.57C1189.55 1020.62 1191.84 1022.19 1193.48 1023.32C1195.05 1024.38 1195.87 1024.89 1195.9 1024.82C1195.94 1024.79 1195.19 1024.17 1193.68 1023.01C1192.08 1021.82 1189.86 1020.18 1186.96 1018.03C1180.92 1013.66 1172.18 1007.31 1160.91 999.148C1138.07 982.864 1105.2 959.377 1064.57 930.393C982.88 872.665 870.122 793.055 745.585 705.081C621.015 617.243 508.324 537.496 427.109 479.324C386.485 450.238 353.746 426.546 331.215 410.023C319.949 401.762 311.278 395.276 305.406 390.803C299.568 386.331 296.598 383.873 296.735 383.668C296.906 383.464 300.217 385.478 306.362 389.54C312.507 393.603 321.485 399.713 332.956 407.668C355.931 423.576 389.011 446.824 429.772 475.774C511.26 533.604 623.336 614.136 746.917 703.271H746.985Z" fill="#F5F5F5"/>
<path d="M769.893 677.702C877.872 784.418 975.576 880.961 1046.41 950.945C1081.92 985.697 1110.66 1013.83 1130.63 1033.35C1140.6 1042.95 1148.35 1050.42 1153.71 1055.61C1156.34 1058.07 1158.32 1059.98 1159.79 1061.31C1161.15 1062.58 1161.9 1063.23 1161.94 1063.19C1161.97 1063.16 1161.32 1062.44 1160.02 1061.07C1158.63 1059.67 1156.71 1057.69 1154.19 1055.13C1148.93 1049.91 1141.28 1042.3 1131.49 1032.53C1111.55 1012.97 1082.8 984.844 1047.33 950.057C975.849 880.688 877.258 784.998 768.288 679.238C659.285 573.614 560.727 477.822 489.822 408.077C454.352 373.188 425.779 344.853 406.183 325.121C396.386 315.255 388.841 307.54 383.789 302.249C378.736 296.957 376.176 294.09 376.381 293.885C376.585 293.68 379.521 296.206 384.949 301.156C390.377 306.106 398.229 313.514 408.334 323.107C428.51 342.293 457.459 370.286 493.065 405.005C564.312 474.442 662.118 570.951 769.961 677.667L769.893 677.702Z" fill="#F5F5F5"/>
<path d="M796.554 655.921C886.133 777.658 967.211 887.823 1025.96 967.638C1055.49 1007.34 1079.36 1039.46 1095.95 1061.76C1104.24 1072.75 1110.69 1081.32 1115.17 1087.22C1117.35 1090.06 1119.02 1092.24 1120.25 1093.78C1121.41 1095.25 1122.03 1095.96 1122.1 1095.96C1122.13 1095.93 1121.62 1095.11 1120.56 1093.61C1119.4 1092 1117.83 1089.75 1115.75 1086.85C1111.38 1080.87 1105.06 1072.24 1096.94 1061.11C1080.35 1038.78 1056.48 1006.62 1027.02 966.921C967.519 887.584 885.416 778.17 794.677 657.218C703.903 536.403 621.869 426.887 562.98 347.277C533.519 307.472 509.861 275.143 493.645 252.68C485.554 241.448 479.307 232.675 475.176 226.7C471.046 220.692 468.963 217.483 469.202 217.312C469.441 217.142 471.933 220.078 476.508 225.779C481.048 231.48 487.671 239.98 496.103 251.007C512.967 273.026 537.069 305.014 566.701 344.717C625.965 424.088 707.146 534.184 796.588 655.921H796.554Z" fill="#F5F5F5"/>
<path d="M826.425 638.477C895.316 772.333 957.687 893.455 1002.85 981.225C1025.62 1024.92 1044.06 1060.29 1056.86 1084.83C1063.28 1096.95 1068.29 1106.38 1071.74 1112.9C1073.45 1116.04 1074.75 1118.43 1075.7 1120.17C1076.62 1121.81 1077.1 1122.63 1077.17 1122.59C1077.24 1122.59 1076.83 1121.7 1076.04 1120.03C1075.16 1118.26 1073.96 1115.83 1072.39 1112.62C1069.05 1106.07 1064.2 1096.54 1057.95 1084.32C1045.18 1059.74 1026.78 1024.38 1004.05 980.679C958.028 893.285 894.531 772.742 824.377 639.501C754.154 506.395 690.76 385.751 645.39 298.152C622.688 254.353 604.526 218.815 592.134 194.167C585.955 181.843 581.21 172.25 578.069 165.695C574.928 159.141 573.426 155.625 573.665 155.522C573.904 155.386 575.918 158.663 579.503 164.978C583.087 171.294 588.242 180.716 594.797 192.869C607.906 217.176 626.58 252.441 649.452 296.138C695.198 383.532 757.671 504.62 826.425 638.477Z" fill="#F5F5F5"/>
<path d="M858.719 625.777C905.079 768.475 947.069 897.655 977.486 991.262C992.882 1037.89 1005.38 1075.62 1014.05 1101.84C1018.45 1114.77 1021.87 1124.88 1024.22 1131.84C1025.42 1135.19 1026.3 1137.75 1026.95 1139.63C1027.6 1141.37 1027.94 1142.26 1028.01 1142.22C1028.08 1142.22 1027.84 1141.27 1027.29 1139.49C1026.71 1137.61 1025.93 1135.02 1024.87 1131.64C1022.62 1124.64 1019.37 1114.5 1015.17 1101.49C1006.54 1075.28 994.077 1037.52 978.715 990.886C947.41 897.552 904.225 768.782 856.5 626.494C808.672 484.308 765.589 355.47 735.002 262.034C719.673 215.298 707.486 177.439 699.225 151.221C695.094 138.112 691.987 127.904 689.973 120.94C687.959 113.976 687.003 110.289 687.276 110.221C687.549 110.152 688.983 113.669 691.509 120.462C694.036 127.256 697.586 137.327 702.092 150.333C711.105 176.312 723.838 214.035 739.337 260.702C770.369 354.002 812.461 483.147 858.685 625.811L858.719 625.777Z" fill="#F5F5F5"/>
<path d="M892.687 618.164C915.389 766.188 935.906 900.147 950.79 997.236C958.471 1045.64 964.684 1084.83 968.986 1112.04C971.239 1125.49 972.98 1135.97 974.175 1143.21C974.789 1146.69 975.267 1149.39 975.609 1151.3C975.95 1153.11 976.155 1154.07 976.223 1154.03C976.291 1154.03 976.223 1153.08 975.95 1151.23C975.677 1149.29 975.301 1146.59 974.823 1143.11C973.731 1135.87 972.161 1125.36 970.146 1111.87C965.845 1084.66 959.666 1045.47 952.053 997.065C936.247 900.112 914.467 766.324 890.365 618.506C866.161 470.789 844.483 336.967 829.394 240.014C821.85 191.538 815.91 152.279 812.018 125.105C810.072 111.518 808.638 100.969 807.751 93.8001C806.863 86.6311 806.556 82.8417 806.829 82.8076C807.102 82.7735 807.955 86.4604 809.355 93.5612C810.721 100.662 812.632 111.142 814.988 124.661C819.665 151.699 826.151 190.889 833.9 239.332C849.433 336.216 870.087 470.175 892.652 618.164H892.687Z" fill="#F5F5F5"/>
<path d="M927.473 615.843C926.279 765.505 925.186 900.932 924.435 999.114C924.299 1048.07 924.162 1087.74 924.094 1115.25C924.162 1128.87 924.196 1139.49 924.23 1146.83C924.299 1150.38 924.333 1153.08 924.367 1155.06C924.401 1156.9 924.469 1157.86 924.538 1157.86C924.606 1157.86 924.64 1156.9 924.708 1155.06C924.742 1153.11 924.811 1150.38 924.879 1146.83C924.947 1139.49 925.084 1128.91 925.22 1115.25C925.323 1087.74 925.459 1048.07 925.63 999.114C925.493 900.932 925.323 765.505 925.152 615.843C924.845 466.249 924.777 330.788 925.357 232.743C925.63 183.72 926.04 144.018 926.518 116.605C926.757 102.881 927.03 92.2298 927.303 85.0267C927.576 77.7894 927.849 74 928.122 74C928.395 74 928.668 77.7894 928.873 85.0267C929.112 92.264 929.283 102.881 929.453 116.605C929.761 144.018 929.897 183.72 929.829 232.743C929.727 330.822 928.771 466.249 927.473 615.843Z" fill="#F5F5F5"/>
<path d="M962.227 618.745C937.101 766.393 914.399 900.01 897.91 996.894C889.956 1045.23 883.47 1084.39 878.997 1111.56C876.881 1125.05 875.242 1135.53 874.082 1142.77C873.569 1146.28 873.194 1148.98 872.921 1150.89C872.682 1152.74 872.579 1153.66 872.648 1153.69C872.716 1153.69 872.921 1152.77 873.296 1150.96C873.638 1149.05 874.15 1146.35 874.798 1142.87C876.062 1135.63 877.871 1125.19 880.192 1111.74C884.699 1084.56 891.185 1045.4 899.173 997.065C914.74 900.078 936.213 766.256 959.939 618.369C983.529 470.55 1005.1 336.728 1021.32 239.946C1029.41 191.538 1036.17 152.416 1041.05 125.412C1043.48 111.893 1045.46 101.413 1046.89 94.3463C1048.32 87.2456 1049.21 83.5586 1049.48 83.5928C1049.76 83.6269 1049.42 87.4163 1048.49 94.5853C1047.57 101.754 1046.07 112.303 1044.02 125.856C1039.96 152.996 1033.75 192.221 1025.86 240.663C1010.09 337.513 987.455 471.199 962.261 618.745H962.227Z" fill="#F5F5F5"/>
<path d="M996.093 626.938C947.378 768.919 903.271 897.381 871.283 990.511C855.58 1037.04 842.88 1074.7 834.038 1100.88C829.771 1113.85 826.426 1123.99 824.138 1130.96C823.08 1134.34 822.261 1136.93 821.646 1138.81C821.1 1140.58 820.861 1141.5 820.929 1141.5C820.998 1141.5 821.339 1140.65 821.988 1138.91C822.636 1137.07 823.592 1134.51 824.787 1131.16C827.211 1124.23 830.693 1114.16 835.165 1101.22C844.007 1075.07 856.775 1037.42 872.512 990.886C903.578 897.484 946.456 768.612 993.84 626.221C1041.09 483.864 1084.07 354.992 1115.78 261.897C1131.62 215.332 1144.63 177.712 1153.81 151.801C1158.42 138.829 1162.04 128.792 1164.6 121.998C1167.16 115.205 1168.63 111.689 1168.9 111.791C1169.17 111.893 1168.22 115.58 1166.14 122.51C1164.05 129.44 1160.88 139.648 1156.65 152.723C1148.21 178.907 1135.75 216.698 1120.12 263.297C1088.85 356.528 1044.84 485.059 996.025 626.938H996.093Z" fill="#F5F5F5"/>
<path d="M1028.15 640.183C957.039 772.947 892.722 893.08 846.055 980.132C823.012 1023.69 804.338 1058.92 791.4 1083.4C785.084 1095.59 780.168 1105.04 776.754 1111.6C775.15 1114.77 773.921 1117.23 773.033 1118.97C772.214 1120.65 771.804 1121.5 771.873 1121.53C771.941 1121.53 772.419 1120.75 773.341 1119.11C774.296 1117.4 775.628 1114.98 777.369 1111.87C780.885 1105.39 785.938 1096 792.458 1083.91C805.431 1059.44 824.104 1024.21 847.182 980.679C892.995 893.182 956.219 772.503 1026.07 639.125C1095.78 505.781 1159.1 385.102 1205.5 298.015C1228.68 254.455 1247.62 219.292 1260.87 195.088C1267.49 182.969 1272.72 173.615 1276.33 167.3C1279.95 160.984 1282 157.741 1282.24 157.878C1282.48 158.014 1280.94 161.496 1277.77 168.017C1274.59 174.537 1269.78 184.13 1263.5 196.386C1250.94 220.965 1232.5 256.367 1209.49 299.995C1163.51 387.287 1099.26 507.488 1028.08 640.115L1028.15 640.183Z" fill="#F5F5F5"/>
<path d="M1057.71 658.14C966.118 778.444 883.264 887.345 823.181 966.272C793.412 1005.77 769.311 1037.76 752.583 1059.98C744.39 1071.04 738.006 1079.65 733.568 1085.59C731.486 1088.49 729.847 1090.71 728.72 1092.31C727.628 1093.85 727.116 1094.63 727.15 1094.67C727.184 1094.7 727.833 1093.98 728.993 1092.52C730.222 1090.98 731.895 1088.79 734.114 1086C738.62 1080.12 745.141 1071.62 753.505 1060.66C770.267 1038.47 794.368 1006.49 824.171 966.989C883.503 887.55 965.367 777.932 1055.8 656.809C1146.1 535.686 1228.06 426.102 1287.87 347.14C1317.78 307.642 1342.12 275.791 1359.12 253.909C1367.62 242.95 1374.28 234.518 1378.88 228.817C1383.49 223.15 1386.02 220.248 1386.22 220.385C1386.46 220.556 1384.38 223.765 1380.18 229.739C1375.98 235.713 1369.7 244.418 1361.54 255.616C1345.19 277.976 1321.29 310.135 1291.56 349.735C1232.09 428.97 1149.3 537.939 1057.68 658.106L1057.71 658.14Z" fill="#F5F5F5"/>
<path d="M1084 680.364C974.278 785.374 875.003 880.415 803.006 949.272C767.263 983.82 738.348 1011.74 718.275 1031.17C708.409 1040.86 700.728 1048.41 695.402 1053.6C692.876 1056.12 690.93 1058.1 689.53 1059.5C688.233 1060.84 687.584 1061.55 687.618 1061.59C687.653 1061.62 688.404 1061.01 689.769 1059.74C691.203 1058.38 693.251 1056.5 695.88 1054.08C701.274 1048.96 709.057 1041.51 719.094 1031.99C739.201 1012.6 768.151 984.639 803.893 950.159C875.208 880.654 973.629 784.759 1082.36 678.76C1190.95 572.76 1289.44 476.934 1361.17 407.941C1397.01 373.461 1426.17 345.672 1446.48 326.623C1456.62 317.099 1464.57 309.759 1470 304.843C1475.46 299.927 1478.4 297.435 1478.6 297.64C1478.81 297.845 1476.21 300.678 1471.13 305.97C1466.04 311.227 1458.43 318.908 1448.56 328.706C1428.83 348.301 1400.05 376.465 1364.34 411.116C1292.92 480.382 1193.72 575.526 1083.96 680.398L1084 680.364Z" fill="#F5F5F5"/>
<path d="M1106.43 706.276C981.243 793.431 867.938 872.29 785.835 929.438C745.006 958.148 711.96 981.396 689.019 997.543C677.719 1005.63 668.912 1011.92 662.835 1016.25C659.933 1018.37 657.68 1020.01 656.076 1021.2C654.573 1022.33 653.822 1022.94 653.857 1022.98C653.891 1023.01 654.71 1022.5 656.28 1021.47C657.919 1020.35 660.24 1018.81 663.21 1016.8C669.355 1012.56 678.265 1006.39 689.702 998.499C712.677 982.386 745.723 959.172 786.552 930.462C868.143 872.563 980.662 792.714 1105.06 704.466C1229.29 616.185 1341.95 536.369 1423.81 479.085C1464.74 450.443 1497.99 427.4 1521.11 411.628C1532.64 403.742 1541.66 397.699 1547.84 393.671C1554.02 389.643 1557.33 387.629 1557.5 387.868C1557.67 388.073 1554.66 390.53 1548.79 394.968C1542.92 399.406 1534.18 405.824 1522.85 414.018C1500.21 430.404 1467.3 453.891 1426.47 482.704C1344.85 540.363 1231.61 619.325 1106.39 706.31L1106.43 706.276Z" fill="#F5F5F5"/>
<path d="M1124.42 735.293C986.738 802.34 862.167 863.004 771.871 907.008C726.945 929.164 690.554 947.087 665.292 959.547C652.831 965.795 643.136 970.676 636.411 974.056C633.202 975.729 630.71 976.992 628.934 977.914C627.262 978.801 626.408 979.279 626.442 979.348C626.442 979.416 627.364 979.04 629.105 978.255C630.915 977.402 633.441 976.207 636.718 974.671C643.477 971.393 653.241 966.682 665.804 960.606C691.066 948.179 727.458 930.257 772.418 908.135C862.304 863.346 986.328 801.589 1123.36 733.313C1260.25 664.968 1384.35 603.28 1474.44 559.139C1519.5 537.052 1556.03 519.368 1581.39 507.317C1594.06 501.309 1603.96 496.666 1610.68 493.628C1617.41 490.59 1621.03 489.122 1621.16 489.361C1621.3 489.6 1617.92 491.545 1611.43 495.028C1604.91 498.51 1595.25 503.528 1582.76 509.912C1557.77 522.645 1521.48 540.841 1476.52 563.099C1386.63 607.616 1262.06 668.416 1124.42 735.327V735.293Z" fill="#F5F5F5"/>
<path d="M1137.49 766.7C990.698 811.865 857.832 852.728 761.528 882.36C713.563 897.381 674.748 909.534 647.779 917.967C634.465 922.234 624.087 925.579 616.918 927.867C613.47 929.027 610.841 929.915 608.929 930.53C607.12 931.144 606.232 931.485 606.232 931.554C606.232 931.622 607.188 931.383 609.032 930.871C610.944 930.325 613.64 929.54 617.123 928.515C624.326 926.331 634.738 923.156 648.12 919.093C675.089 910.661 713.939 898.542 761.903 883.589C857.934 853.104 990.391 811.046 1136.78 764.583C1283.02 718.019 1415.55 676.063 1511.68 646.26C1559.75 631.342 1598.7 619.461 1625.67 611.439C1639.15 607.445 1649.67 604.372 1656.8 602.426C1663.94 600.446 1667.76 599.559 1667.83 599.798C1667.93 600.071 1664.28 601.471 1657.28 603.929C1650.28 606.386 1639.94 609.834 1626.56 614.238C1599.83 623.012 1561.05 635.404 1513.05 650.527C1417.05 680.774 1284.22 721.74 1137.46 766.768L1137.49 766.7Z" fill="#F5F5F5"/>
<path d="M1145.34 799.712C993.053 821.867 855.237 841.907 755.348 856.449C705.541 863.926 665.257 870.002 637.264 874.201C623.404 876.386 612.65 878.093 605.208 879.254C601.624 879.868 598.858 880.346 596.878 880.653C595.001 880.995 594.045 881.2 594.045 881.268C594.045 881.336 595.035 881.268 596.913 881.029C598.893 880.756 601.692 880.415 605.276 879.937C612.753 878.878 623.54 877.342 637.435 875.362C665.428 871.163 705.745 865.155 755.553 857.678C855.305 842.248 992.917 820.98 1145 797.493C1296.99 773.903 1434.67 752.737 1534.42 737.99C1584.29 730.616 1624.68 724.812 1652.64 721.023C1666.6 719.111 1677.49 717.711 1684.87 716.858C1692.24 716.004 1696.13 715.697 1696.2 715.97C1696.23 716.243 1692.44 717.097 1685.14 718.428C1677.83 719.76 1667.05 721.637 1653.12 723.925C1625.29 728.499 1584.98 734.815 1535.14 742.393C1435.45 757.585 1297.64 777.727 1145.38 799.746L1145.34 799.712Z" fill="#F5F5F5"/>
<path d="M1615.4 846.344L1640.52 855.801L1618.71 861.98C1611.44 864.028 1605.67 869.593 1603.31 876.796L1595.42 900.932L1585.73 876.728C1583.31 870.719 1578.46 866.042 1572.38 863.823L1550.33 855.801L1574.22 845.969C1579.99 843.579 1584.57 838.936 1586.79 833.099L1595.42 810.67L1601.6 831.528C1603.62 838.356 1608.74 843.818 1615.4 846.344Z" fill="#EBEBEB"/>
<path d="M276.661 884.955L301.787 894.412L279.973 900.591C272.701 902.639 266.932 908.203 264.576 915.407L256.69 939.542L246.995 915.338C244.571 909.33 239.724 904.653 233.647 902.434L211.594 894.412L235.491 884.58C241.26 882.19 245.834 877.547 248.053 871.71L256.69 849.281L262.869 870.139C264.884 876.967 270.004 882.429 276.661 884.955Z" fill="#EBEBEB"/>
<path d="M1361.07 420.675L1386.19 430.131L1364.38 436.31C1357.11 438.358 1351.34 443.923 1348.98 451.126L1341.1 475.262L1331.4 451.058C1328.98 445.049 1324.13 440.372 1318.05 438.153L1296 430.131L1319.9 420.299C1325.67 417.909 1330.24 413.267 1332.46 407.429L1341.1 385L1347.28 405.858C1349.29 412.686 1354.41 418.148 1361.07 420.675Z" fill="#EBEBEB"/>
<path d="M1630.14 725.256L1641.41 729.489L1631.64 732.254C1628.37 733.176 1625.81 735.668 1624.75 738.877L1621.2 749.699L1616.86 738.843C1615.77 736.146 1613.62 734.029 1610.89 733.039L1600.99 729.455L1611.71 725.051C1614.3 723.993 1616.35 721.91 1617.34 719.282L1621.2 709.211L1623.96 718.565C1624.89 721.637 1627.17 724.095 1630.14 725.188V725.256Z" fill="#EBEBEB"/>
<path d="M493.234 1209.1L504.5 1213.33L494.736 1216.1C491.459 1217.02 488.899 1219.51 487.84 1222.72L484.29 1233.54L479.954 1222.69C478.862 1219.99 476.711 1217.87 473.98 1216.88L464.08 1213.3L474.799 1208.89C477.394 1207.84 479.442 1205.75 480.432 1203.12L484.29 1193.05L487.055 1202.41C487.977 1205.48 490.264 1207.94 493.234 1209.03V1209.1Z" fill="#EBEBEB"/>
<path d="M642.965 278.659L654.23 282.892L644.467 285.657C641.189 286.579 638.629 289.071 637.571 292.28L634.02 303.102L629.685 292.246C628.592 289.549 626.442 287.433 623.711 286.443L613.811 282.858L624.53 278.454C627.124 277.396 629.173 275.313 630.163 272.685L634.02 262.614L636.786 271.968C637.707 275.04 639.995 277.498 642.965 278.625V278.659Z" fill="#EBEBEB"/>
<path d="M1506.32 1209.1L1517.59 1213.33L1507.82 1216.1C1504.55 1217.02 1501.99 1219.51 1500.93 1222.72L1497.38 1233.54L1493.04 1222.69C1491.95 1219.99 1489.8 1217.87 1487.07 1216.88L1477.17 1213.3L1487.89 1208.89C1490.48 1207.84 1492.53 1205.75 1493.52 1203.12L1497.38 1193.05L1500.14 1202.41C1501.06 1205.48 1503.35 1207.94 1506.32 1209.03V1209.1Z" fill="#EBEBEB"/>
<path d="M396.623 714.605L407.889 718.838L398.125 721.603C394.848 722.525 392.287 725.017 391.229 728.226L387.679 739.048L383.343 728.192C382.251 725.495 380.1 723.379 377.369 722.389L367.469 718.804L378.188 714.4C380.783 713.342 382.831 711.259 383.821 708.631L387.679 698.56L390.444 707.914C391.366 710.986 393.653 713.444 396.623 714.537V714.605Z" fill="#EBEBEB"/>
<path d="M632.972 390.537C682.006 377.279 711.008 326.782 697.751 277.748C684.493 228.714 633.995 199.712 584.961 212.97C535.928 226.228 506.925 276.725 520.183 325.759C533.441 374.793 583.939 403.795 632.972 390.537Z" fill="white"/>
<path d="M678.564 241.59C678.564 241.59 678.159 241.252 677.483 240.576C676.74 239.833 675.726 238.786 674.408 237.468C673.733 236.792 672.989 236.015 672.145 235.17C671.266 234.359 670.252 233.582 669.171 232.67C667.009 230.879 664.61 228.717 661.501 226.757C655.622 222.466 647.614 218.31 637.849 214.999C628.085 211.755 616.259 209.761 603.318 210.606C590.411 211.485 576.253 215.032 563.11 222.871C550.135 230.71 537.667 242.097 529.49 257.2C527.26 260.849 525.672 264.904 523.915 268.925C523.138 270.986 522.53 273.114 521.854 275.209C521.077 277.304 520.638 279.467 520.165 281.663C519.016 286.022 518.644 290.549 518.104 295.077C518.002 299.638 517.732 304.267 518.239 308.896C519.05 318.154 520.942 327.581 524.794 336.4C528.511 345.252 533.68 353.666 540.032 361.234C546.587 368.634 554.156 374.952 562.366 379.919C570.543 385.021 579.598 388.265 588.62 390.394C593.148 391.576 597.743 391.982 602.27 392.556C606.832 392.657 611.359 392.962 615.853 392.455C618.083 392.32 620.313 392.184 622.51 391.745C624.706 391.34 626.868 391.069 629.031 390.596C633.254 389.448 637.478 388.468 641.431 386.778C657.582 380.899 670.658 370.222 680.288 358.497C689.951 346.638 695.492 333.122 698.229 320.486C700.966 307.781 700.696 295.82 698.905 285.684C697.08 275.547 694.107 267.033 690.728 260.579C689.241 257.234 687.484 254.531 685.998 252.132C685.254 250.949 684.612 249.801 683.937 248.854C683.227 247.908 682.585 247.064 681.977 246.287C680.862 244.8 679.983 243.651 679.375 242.773C678.801 241.962 678.497 241.556 678.531 241.522C678.531 241.522 678.902 241.894 679.51 242.637C680.186 243.482 681.098 244.597 682.281 246.05C682.889 246.793 683.565 247.638 684.308 248.584C685.018 249.53 685.66 250.679 686.437 251.862C687.957 254.227 689.816 256.93 691.336 260.275C694.85 266.695 697.925 275.277 699.885 285.515C701.777 295.753 702.149 307.849 699.445 320.756C696.742 333.562 691.167 347.314 681.403 359.41C671.672 371.371 658.393 382.251 641.972 388.299C637.951 390.022 633.66 391.036 629.335 392.218C627.172 392.691 624.942 392.995 622.712 393.401C620.482 393.874 618.218 394.009 615.955 394.144C611.393 394.651 606.798 394.381 602.135 394.279C597.506 393.705 592.81 393.299 588.214 392.117C579.024 389.921 569.766 386.643 561.42 381.44C553.041 376.371 545.337 369.952 538.647 362.383C532.16 354.679 526.922 346.131 523.138 337.076C519.219 328.054 517.293 318.458 516.482 309.031C515.975 304.301 516.245 299.604 516.347 294.942C516.921 290.313 517.327 285.717 518.475 281.291C518.948 279.061 519.421 276.831 520.199 274.703C520.908 272.574 521.55 270.411 522.327 268.317C524.118 264.228 525.74 260.106 528.038 256.389C536.383 241.016 549.121 229.46 562.333 221.587C575.713 213.681 590.107 210.167 603.183 209.356C616.326 208.579 628.254 210.674 638.12 214.053C647.952 217.465 655.994 221.756 661.839 226.183C664.914 228.176 667.313 230.406 669.441 232.264C670.489 233.211 671.503 234.021 672.347 234.866C673.158 235.745 673.902 236.522 674.544 237.231C675.794 238.617 676.774 239.664 677.517 240.475C678.193 241.218 678.497 241.59 678.497 241.624L678.564 241.59Z" fill="#263238"/>
<path d="M583.992 276.02H598.554C598.554 276.02 598.554 263.789 611.259 263.553C617.847 263.451 621.294 267.776 622.679 271.087C624.301 274.939 623.794 279.332 621.632 282.879C619.165 286.968 613.759 290.651 603.927 288.928V321.77H618.32V302.544C618.32 302.544 638.526 297.307 638.526 275.041C638.526 252.774 619.435 248.787 611.259 248.787C605.008 248.787 583.687 250.308 583.992 275.987V276.02Z" fill="currentColor"/>
<path d="M618.523 328.561H603.893V342.212H618.523V328.561Z" fill="currentColor"/>
<path d="M734.755 344.813C734.755 350.997 729.754 355.997 723.571 355.997C717.387 355.997 712.387 350.997 712.387 344.813C712.387 338.63 717.387 333.629 723.571 333.629C729.754 333.629 734.755 338.63 734.755 344.813Z" fill="white"/>
<path d="M734.754 344.813C734.754 344.813 734.585 343.834 734.078 342.178C733.571 340.556 732.422 338.225 729.956 336.434C727.591 334.643 723.739 333.697 720.056 335.082C716.407 336.366 713.264 340.286 713.298 344.813C713.264 349.341 716.407 353.26 720.056 354.544C723.739 355.93 727.591 354.984 729.956 353.193C732.422 351.402 733.571 349.071 734.078 347.449C734.585 345.793 734.619 344.813 734.754 344.813C734.855 344.813 735.058 345.827 734.754 347.618C734.45 349.375 733.368 352.044 730.733 354.173C728.199 356.301 723.84 357.585 719.515 356.065C715.258 354.68 711.507 350.152 711.541 344.813C711.507 339.475 715.224 334.947 719.515 333.562C723.84 332.041 728.199 333.325 730.733 335.454C733.368 337.583 734.416 340.252 734.754 342.009C735.092 343.834 734.855 344.813 734.754 344.813Z" fill="#263238"/>
<path d="M1069.46 333.798L1100.17 332.007C1113.11 344.07 1129.47 352.787 1148.09 356.538C1201.64 367.249 1253.74 332.514 1264.45 278.96C1275.16 225.405 1240.43 173.304 1186.87 162.593C1133.32 151.882 1081.22 186.616 1070.51 240.171C1066.05 262.539 1069.49 284.636 1078.95 303.591H1078.92L1069.46 333.832V333.798Z" fill="white"/>
<path d="M1069.46 333.798C1069.46 333.798 1069.63 333.156 1070 331.872C1070.41 330.555 1070.98 328.629 1071.76 326.094C1073.35 320.925 1075.64 313.323 1078.68 303.423L1078.82 302.983L1079.12 303.321H1079.16L1078.75 303.659C1073.08 292.306 1067.67 276.02 1068.28 256.153C1068.41 251.22 1068.99 246.084 1069.97 240.88C1071.22 235.711 1072.33 230.305 1074.46 225C1078.38 214.357 1084.39 203.68 1092.77 194.117C1101.12 184.555 1111.76 176.176 1124.23 170.128C1136.66 164.08 1150.89 160.431 1165.72 160.126C1180.56 159.721 1195.9 163.066 1210.02 169.722C1224.14 176.379 1237.12 186.515 1246.81 199.659C1248.03 201.314 1249.25 202.936 1250.43 204.592C1251.48 206.349 1252.52 208.072 1253.57 209.829L1255.13 212.431L1256.44 215.168C1257.32 216.992 1258.17 218.817 1259.05 220.641C1259.86 222.5 1260.43 224.392 1261.14 226.284C1261.78 228.176 1262.59 230.001 1263.03 231.96C1263.98 235.812 1265.16 239.596 1265.6 243.516C1268.14 259.059 1266.88 274.736 1262.53 288.995C1258.07 303.22 1250.53 315.958 1241.17 326.23C1231.81 336.535 1220.7 344.408 1209.14 349.713C1197.59 355.051 1185.59 357.855 1174.24 358.599C1168.56 359.106 1163.02 358.7 1157.71 358.396C1152.44 357.585 1147.31 357.011 1142.54 355.659C1123.32 350.625 1109.23 340.86 1100 332.21L1100.17 332.278C1090.17 332.785 1082.47 333.19 1077.23 333.46C1074.7 333.596 1072.74 333.697 1071.39 333.731C1070.07 333.798 1069.46 333.798 1069.46 333.798C1069.46 333.798 1070.17 333.731 1071.49 333.629C1072.84 333.528 1074.83 333.393 1077.4 333.224C1082.6 332.886 1090.24 332.379 1100.17 331.737H1100.27L1100.34 331.805C1109.57 340.319 1123.62 349.949 1142.71 354.848C1147.44 356.166 1152.55 356.707 1157.75 357.518C1163.02 357.822 1168.49 358.193 1174.14 357.653C1185.39 356.876 1197.25 354.071 1208.67 348.766C1220.09 343.462 1231.07 335.657 1240.33 325.453C1249.55 315.282 1256.98 302.713 1261.41 288.623C1265.7 274.534 1266.92 259.025 1264.42 243.685C1263.98 239.799 1262.83 236.083 1261.88 232.264C1261.48 230.339 1260.67 228.514 1260.03 226.656C1259.32 224.797 1258.74 222.905 1257.93 221.081C1257.09 219.29 1256.21 217.499 1255.36 215.674L1254.08 212.971L1252.52 210.403C1251.48 208.68 1250.46 206.957 1249.42 205.234C1248.27 203.578 1247.02 201.99 1245.83 200.335C1236.27 187.36 1223.43 177.358 1209.51 170.736C1195.56 164.147 1180.39 160.836 1165.72 161.241C1151.06 161.546 1136.97 165.127 1124.67 171.074C1112.34 177.021 1101.76 185.299 1093.48 194.726C1085.17 204.153 1079.19 214.728 1075.27 225.27C1073.11 230.507 1072.03 235.88 1070.74 240.982C1069.73 246.151 1069.16 251.253 1068.99 256.119C1068.28 275.818 1073.55 292.036 1079.12 303.355L1079.93 305.011L1078.68 303.625H1078.65L1079.09 303.49C1075.95 313.255 1073.55 320.79 1071.93 325.892C1071.12 328.426 1070.47 330.352 1070.07 331.703C1069.63 333.021 1069.39 333.697 1069.39 333.697L1069.46 333.798Z" fill="#263238"/>
<path d="M1137.24 240.712H1151.33C1151.33 240.712 1151.33 228.886 1163.63 228.683C1170.01 228.582 1173.33 232.737 1174.68 235.947C1176.23 239.664 1175.76 243.921 1173.66 247.368C1171.27 251.321 1166.03 254.903 1156.57 253.213V284.974H1170.49V266.391C1170.49 266.391 1190.02 261.356 1190.02 239.833C1190.02 219.256 1171.54 214.458 1163.66 214.458C1157.61 214.458 1137.04 215.911 1137.27 240.779L1137.24 240.712Z" fill="currentColor"/>
<path d="M1170.59 291.495H1156.46V304.707H1170.59V291.495Z" fill="currentColor"/>
<path d="M973.561 1635.44C1227.28 1635.44 1432.96 1604.01 1432.96 1565.22C1432.96 1526.44 1227.28 1495 973.561 1495C719.842 1495 514.162 1526.44 514.162 1565.22C514.162 1604.01 719.842 1635.44 973.561 1635.44Z" fill="#EBEBEB"/>
<path d="M856.967 1433.51L859.332 1510.48C859.332 1510.48 781.889 1538.73 780.943 1553.02L930.355 1553.8L931.605 1433.72L856.967 1433.55V1433.51Z" fill="#263238"/>
<path d="M905.556 1504.27C908.428 1505.08 910.421 1508.32 909.745 1511.26C909.07 1514.17 905.758 1516.23 902.853 1515.48C899.947 1514.74 897.446 1510.89 898.46 1508.05C899.474 1505.21 903.461 1503.05 906.096 1504.47" fill="#E0E0E0"/>
<path d="M930.355 1553.8L930.018 1541.7L786.89 1545.49C786.89 1545.49 780.234 1548.36 780.944 1553.02L930.355 1553.8Z" fill="#455A64"/>
<path d="M856.899 1509.71C856.899 1510.45 860.582 1510.79 864.13 1513.15C867.779 1515.42 869.604 1518.59 870.279 1518.32C870.955 1518.19 869.874 1513.83 865.515 1511.02C861.157 1508.19 856.73 1509.03 856.899 1509.71Z" fill="white"/>
<path d="M841.188 1516.13C841.019 1516.84 844.162 1518.09 846.628 1521.19C849.196 1524.24 849.804 1527.55 850.514 1527.55C851.19 1527.68 851.73 1523.39 848.588 1519.61C845.479 1515.79 841.188 1515.45 841.188 1516.16V1516.13Z" fill="white"/>
<path d="M832.201 1534.81C832.877 1534.98 833.891 1531.33 832.032 1527.31C830.208 1523.29 826.761 1521.7 826.457 1522.31C826.052 1522.92 828.248 1525.05 829.701 1528.39C831.255 1531.67 831.458 1534.74 832.168 1534.81H832.201Z" fill="white"/>
<path d="M858.319 1492.1C858.623 1492.78 861.968 1491.76 866.09 1492.1C870.212 1492.31 873.422 1493.72 873.794 1493.08C874.233 1492.54 871.091 1489.84 866.225 1489.57C861.36 1489.23 857.947 1491.56 858.285 1492.14L858.319 1492.1Z" fill="white"/>
<path d="M1032.5 1450.07L1040.58 1542.89L1025.81 1618.17C1024.73 1623.61 1028.51 1628.78 1033.99 1629.49C1037.06 1629.86 1040.1 1628.78 1042.2 1626.48C1055.51 1611.95 1104.23 1558.29 1103.25 1551.54C1102.14 1543.7 1101.23 1453.04 1101.23 1453.04L1032.5 1450.07Z" fill="#263238"/>
<path d="M1033.99 1629.49L1102.85 1545.29L1103.08 1549.24C1103.29 1552.65 1102.31 1556.03 1100.28 1558.77C1094.81 1566.1 1079.3 1585.97 1042.43 1626.51C1040.31 1628.88 1037.1 1629.99 1033.95 1629.52L1033.99 1629.49Z" fill="#455A64"/>
<g opacity="0.6">
<path d="M1081.87 1516.5C1079.64 1518.25 1079.1 1521.84 1080.78 1524.13C1082.44 1526.43 1086.09 1527.01 1088.35 1525.28C1090.62 1523.56 1091.39 1519.3 1089.47 1517.21C1087.54 1515.11 1083.25 1514.67 1081.49 1516.87" fill="white"/>
</g>
<path d="M1052.64 1587.49C1052.13 1587.79 1049.73 1583.03 1044.02 1580.76C1038.38 1578.33 1033.34 1579.95 1033.17 1579.41C1033.07 1579.18 1034.22 1578.4 1036.35 1577.96C1038.48 1577.49 1041.65 1577.62 1044.76 1578.91C1047.87 1580.22 1050.2 1582.39 1051.39 1584.21C1052.6 1586.07 1052.84 1587.42 1052.6 1587.52L1052.64 1587.49Z" fill="white"/>
<path d="M1046.79 1600.36C1046.39 1600.8 1043.21 1597.96 1038.31 1596.88C1033.45 1595.7 1029.36 1596.88 1029.16 1596.31C1028.85 1595.83 1033.21 1593.6 1038.79 1594.89C1044.36 1596.14 1047.3 1600.06 1046.83 1600.36H1046.79Z" fill="white"/>
<path d="M1063.92 1570.73C1063.52 1571.2 1058.65 1566.81 1051.18 1564.48C1043.75 1562.05 1037.23 1562.75 1037.19 1562.15C1037.03 1561.67 1043.85 1559.92 1051.82 1562.52C1059.83 1565.05 1064.36 1570.42 1063.95 1570.69L1063.92 1570.73Z" fill="white"/>
<path d="M1063.82 1542.31C1063.62 1542.89 1058.35 1541.06 1051.62 1541.26C1044.93 1541.37 1039.73 1543.39 1039.49 1542.82C1039.22 1542.38 1044.39 1539.34 1051.59 1539.2C1058.79 1539.03 1064.09 1541.84 1063.82 1542.31Z" fill="white"/>
<path d="M1062.13 1515.01C1061.9 1515.55 1056.52 1512.81 1049.46 1513.56C1042.4 1514.17 1037.7 1517.95 1037.33 1517.44C1037.16 1517.27 1038.11 1516.02 1040.17 1514.64C1042.23 1513.25 1045.47 1511.9 1049.26 1511.5C1053.04 1511.13 1056.52 1511.83 1058.79 1512.78C1061.08 1513.73 1062.23 1514.74 1062.13 1514.98V1515.01Z" fill="white"/>
<path d="M1049.33 1508.36C1049.33 1508.36 1048.92 1507.14 1048.99 1504.84C1049.06 1502.58 1049.5 1499.23 1051.18 1495.45C1052.06 1493.66 1052.98 1491.36 1055.51 1489.97C1056.76 1489.26 1058.69 1489.4 1059.87 1490.55C1061.05 1491.66 1061.49 1493.18 1061.59 1494.64C1061.86 1500.55 1057.17 1506.56 1050.58 1507.85C1043.95 1509 1037.67 1505.58 1034.7 1500.65C1034.02 1499.37 1033.55 1497.78 1034.16 1496.16C1034.76 1494.54 1036.62 1493.76 1037.97 1493.93C1040.78 1494.16 1042.6 1495.65 1044.29 1496.73C1047.67 1499.1 1049.83 1501.7 1051.12 1503.56C1052.4 1505.45 1052.84 1506.63 1052.74 1506.67C1052.44 1506.94 1050.1 1502.24 1043.48 1497.91C1041.83 1496.93 1039.9 1495.68 1037.91 1495.62C1036.93 1495.58 1036.12 1496.02 1035.81 1496.83C1035.51 1497.61 1035.78 1498.76 1036.35 1499.77C1038.85 1503.79 1044.6 1506.9 1050.17 1505.85C1055.75 1504.84 1059.87 1499.54 1059.67 1494.77C1059.6 1493.62 1059.23 1492.51 1058.58 1491.87C1057.94 1491.22 1057 1491.12 1056.19 1491.53C1054.43 1492.37 1053.35 1494.4 1052.43 1496.09C1048.95 1503.19 1049.7 1508.42 1049.29 1508.36H1049.33Z" fill="white"/>
<path d="M780.437 795.253C780.437 795.253 769.118 839.111 773.207 892.564C774.795 913.242 844.568 1485.31 844.568 1485.31H938.769L912.279 947.639L919.983 949.328C919.983 949.328 971.409 1178.65 975.598 1215.78C979.383 1249.17 1025.57 1511.46 1025.57 1511.46L1114.47 1510.48L1081.39 1171.93L1049.36 864.215L1037.33 774.643L780.404 795.287L780.437 795.253Z" fill="#263238"/>
<path d="M791.35 890.401C878.186 920.338 992.289 935.373 1050.81 877.697L1031.85 440.544H810.71L791.35 890.401Z" fill="#E0E0E0"/>
<path d="M958.433 668.007C958.77 668.379 943.464 682.705 924.306 700.005C905.115 717.338 889.302 731.056 888.998 730.718C888.66 730.346 903.966 716.02 923.158 698.721C942.349 681.421 958.162 667.669 958.466 668.007H958.433Z" fill="#263238"/>
<path opacity="0.3" d="M876.158 912.026C876.158 912.026 881.733 544.916 874.367 527.008C867.001 509.1 840.68 906.687 842.978 906.687L876.158 912.026Z" fill="black"/>
<path d="M784.49 533.259L773.272 718.385L765.163 904.356C789.186 922.703 821.893 932.265 860.919 935.374L876.191 559.648V415.507L873.488 413.683L854.837 429.8L850.58 430.239C847.606 424.089 842.876 426.387 842.876 426.387C841.389 423.887 839.261 423.447 839.261 423.447C834.767 422.772 831.996 426.387 831.996 426.387L828.584 422.738C823.042 421.15 819.866 428.009 819.866 428.009C771.11 433.415 764.521 462.067 756.885 480.246L784.524 533.259H784.49Z" fill="currentColor"/>
<path d="M798.783 536.908C798.276 538.462 794.12 642.699 794.12 642.699C794.12 642.699 805.541 654.626 801.385 670.169C797.229 685.712 789.66 721.595 769.083 723.183C740.228 725.379 713.231 708.553 713.772 656.688C714.278 604.823 756.446 480.245 756.446 480.245L806.081 515.453L798.817 536.908H798.783Z" fill="currentColor"/>
<path d="M965.529 408.614C965.529 408.614 982.762 419.798 987.762 427.941L1000.23 427.84C1002.43 427.603 1004.76 425.103 1007.56 425.204C1009.22 425.272 1011.24 427.806 1013.07 427.975C1014.62 428.11 1015.91 425.339 1017.53 425.542C1021.01 425.981 1023.58 428.313 1027.26 429.225C1041.22 432.672 1056.72 437.402 1064.02 442.639C1082.91 456.188 1089.26 480.212 1089.26 480.212C1089.26 480.212 1038.24 535.253 1041.79 537.854C1045.34 540.456 1043.41 678.414 1043.41 678.414C1043.41 678.414 1062.3 888.712 1057.26 895.605C1052.23 902.498 1001.55 933.245 953.873 930.542C953.873 930.542 952.318 903.849 956.305 841.071C962.252 746.7 961.576 712.743 963.266 678.785C965.969 623.981 962.793 520.589 963.299 503.424C963.671 491.024 964.347 408.918 965.529 408.648V408.614Z" fill="currentColor"/>
<g opacity="0.3">
<path d="M1036.04 643.544C1027.7 657.465 1024.22 674.19 1026.35 690.273C1028.44 706.356 1036.14 721.629 1047.8 732.914V711.492L1037.77 648.477L1036.04 643.544Z" fill="black"/>
</g>
<path d="M1089.29 480.178C1089.29 480.178 1107.13 614.757 1116.43 627.157C1125.72 639.591 1122.64 657.127 1120.24 674.19C1117.61 692.875 1108.28 737.239 1072.77 734.198C1054.15 732.61 1043.1 719.128 1036.75 699.024C1025.74 664.155 1040.03 622.967 1040 613.506C1039.96 604.046 1028.78 533.462 1030.1 529.745C1031.41 526.028 1089.29 480.178 1089.29 480.178Z" fill="currentColor"/>
<path d="M875.584 503.796C875.584 503.796 874.807 502.816 873.591 500.924C872.341 499.066 870.584 496.295 867.813 493.423C866.428 492.004 864.738 490.585 862.677 489.504C860.65 488.389 858.15 487.916 855.514 487.612C850.209 487.105 844.128 488.152 838.721 491.328L836.762 492.477L837.437 490.315C838.282 487.646 839.127 484.841 839.938 481.969C843.925 467.71 847.506 454.803 850.243 445.005C851.527 440.545 852.575 436.794 853.453 433.821C854.23 431.185 854.737 429.732 854.838 429.766C854.94 429.766 854.703 431.287 854.095 433.99C853.521 436.693 852.608 440.545 851.426 445.309C849.061 454.837 845.749 468.015 841.627 482.442C840.816 485.314 839.938 488.152 839.093 490.855L837.809 489.842C849.399 483.084 863.522 485.652 868.658 492.612C871.429 495.721 873.05 498.627 874.132 500.586C875.213 502.58 875.686 503.729 875.584 503.763V503.796Z" fill="#263238"/>
<g opacity="0.3">
<path d="M975.326 490.551C980.766 488.085 987.186 488.085 992.93 489.74L992.997 490.011C994.619 494.471 995.734 499.066 996.376 503.763C986.645 498.052 974.245 495.687 964.277 500.924C967.589 496.16 969.92 492.984 975.36 490.518L975.326 490.551Z" fill="black"/>
</g>
<path d="M963.264 501.634C963.264 501.634 963.737 500.553 965.021 498.829C966.305 497.14 968.366 494.741 971.441 492.308C972.995 491.092 974.82 489.909 977.016 488.963C979.212 488.017 981.814 487.544 984.483 487.578C989.856 487.578 995.938 489.538 1000.77 493.829L999.35 494.572C998.809 490.754 998.1 486.733 997.39 482.577C994.654 467.677 992.221 454.195 990.329 443.957C989.518 439.294 988.842 435.341 988.268 432.233C987.828 429.462 987.626 427.908 987.727 427.874C987.862 427.874 988.268 429.361 988.91 432.098C989.552 434.834 990.464 438.788 991.511 443.721C993.606 453.553 996.377 467.136 999.08 482.273C999.789 486.429 1000.5 490.45 1001.01 494.336L1001.31 496.667L999.587 495.079C995.127 491.058 989.484 489.098 984.45 489.031C979.314 488.761 975.158 490.957 972.083 493.187C965.934 497.748 963.467 501.837 963.23 501.6L963.264 501.634Z" fill="#263238"/>
<g opacity="0.3">
<path d="M810.169 672.636C798.85 671.487 787.125 675.913 779.354 684.191C771.583 692.469 767.967 704.498 769.826 715.682C770.4 715.378 773.644 714.094 773.644 714.094L772.664 730.65C785.47 728.893 797.904 720.716 804.898 709.836C811.892 698.957 813.885 685.002 810.169 672.602V672.636Z" fill="black"/>
</g>
<path d="M769.049 723.183C779.489 722.27 789.288 716.425 796.316 708.079C803.344 699.734 807.669 689.09 809.629 678.075C811.859 665.709 810.946 652.025 803.986 641.888C796.89 631.549 786.652 627.292 775.3 623.203" fill="currentColor"/>
<path d="M775.299 623.17C775.299 623.17 777.191 623.575 780.502 624.724C783.78 625.94 788.578 627.663 793.883 631.076C799.154 634.455 804.83 639.962 808.141 647.801C811.453 655.572 812.297 665.033 811.081 674.562C809.831 684.09 806.891 692.942 802.735 700.173C798.613 707.471 793.241 712.979 788.037 716.527C782.834 720.142 777.901 721.831 774.488 722.575C772.765 722.946 771.413 723.115 770.501 723.149C769.589 723.217 769.082 723.183 769.082 723.149C769.082 722.98 771.008 722.811 774.319 721.899C777.63 720.987 782.361 719.162 787.328 715.513C792.295 711.931 797.43 706.491 801.35 699.362C805.303 692.267 808.141 683.617 809.358 674.325C810.54 665.033 809.763 655.877 806.688 648.409C803.614 640.908 798.275 635.536 793.241 632.09C788.172 628.643 783.476 626.717 780.3 625.332C777.09 623.98 775.299 623.237 775.367 623.136L775.299 623.17Z" fill="#263238"/>
<path d="M783.173 509.709C783.173 509.709 784.119 511.939 785.437 516.027C786.789 520.454 788.579 526.265 790.708 533.158V533.259V533.361C790.809 543.328 790.911 555.492 791.046 568.67C791.181 585.057 791.316 599.856 791.418 611.04C791.451 616.21 791.485 620.501 791.519 623.88C791.519 626.921 791.451 628.576 791.35 628.61C791.215 628.61 791.046 626.954 790.843 623.913C790.641 620.872 790.404 616.514 790.201 611.074C789.762 600.228 789.458 585.26 789.289 568.703C789.188 555.458 789.188 543.193 789.289 533.395V533.597C787.431 526.637 785.843 520.792 784.626 516.298C783.545 512.142 783.004 509.81 783.14 509.743L783.173 509.709Z" fill="#263238"/>
<path d="M1055.98 513.764C1055.98 513.764 1055 515.555 1052.94 518.629C1050.68 521.941 1047.7 526.232 1044.16 531.401L1044.29 531.03C1044.32 541.673 1043.92 555.796 1043.14 571.238C1042.26 587.997 1041.49 603.168 1040.88 614.588C1040.64 619.893 1040.44 624.285 1040.27 627.732C1040.13 630.84 1039.97 632.563 1039.86 632.563C1039.73 632.563 1039.66 630.84 1039.59 627.732C1039.53 624.623 1039.56 620.129 1039.66 614.554C1039.86 603.438 1040.57 588.098 1041.42 571.136C1042.2 555.729 1042.77 541.639 1042.97 531.03V530.793L1043.11 530.624C1046.86 525.59 1049.97 521.4 1052.4 518.19C1054.63 515.284 1055.91 513.696 1056.01 513.764H1055.98Z" fill="#263238"/>
<path d="M1080.07 734.131C1080.07 734.131 1078.04 734.266 1074.36 734.198C1070.74 733.725 1065.3 733.151 1059.32 730.144C1053.38 727.171 1047.19 721.764 1042.67 714.23C1038.07 706.729 1034.93 697.538 1032.9 687.706C1030.74 677.873 1030.6 668.109 1031.69 659.493C1032.77 650.843 1035.06 643.274 1037.6 637.192C1040.2 631.144 1043 626.583 1045.2 623.643C1046.21 622.123 1047.19 621.075 1047.8 620.332C1048.44 619.589 1048.78 619.251 1048.82 619.285C1049.19 619.521 1043.58 625.603 1038.75 637.699C1036.42 643.747 1034.25 651.214 1033.27 659.729C1032.33 668.21 1032.46 677.738 1034.62 687.402C1036.62 697.099 1039.66 706.12 1044.05 713.419C1048.41 720.751 1054.22 726.055 1059.9 729.063C1065.61 732.137 1070.88 732.881 1074.43 733.556C1078.04 733.827 1080.07 734.03 1080.07 734.165V734.131Z" fill="#263238"/>
<g opacity="0.3">
<path d="M862.068 488.659C856.628 486.192 850.208 486.192 844.464 487.848L844.396 488.118C842.775 492.578 841.66 497.173 841.018 501.87C850.749 496.16 863.453 495.856 873.421 501.127C870.92 495.687 867.474 491.091 862.034 488.625L862.068 488.659Z" fill="black"/>
</g>
<path d="M908.765 213.655L904.981 213.824C866.834 215.378 836.256 246.024 834.769 284.171C833.384 319.683 832.303 354.316 833.316 373.305C835.411 412.567 875.754 416.453 875.754 416.453C875.856 416.453 875.687 430.103 875.653 441.659C893.932 472.575 937.756 475.751 959.414 447.065L964.246 440.983L970.193 290.524C972.017 249.572 949.717 214.365 908.732 213.689L908.765 213.655Z" fill="#FFBE9D"/>
<path d="M875.754 416.791C875.754 416.791 900.588 417.23 926.301 399.559C926.301 399.559 915.219 429.596 875.855 427.704L875.754 416.824V416.791Z" fill="#EB996E"/>
<path d="M852.846 314.277C852.846 317.25 855.38 319.683 858.489 319.717C861.597 319.751 864.098 317.385 864.064 314.412C864.064 311.439 861.53 309.006 858.421 308.972C855.313 308.938 852.812 311.303 852.846 314.277Z" fill="#263238"/>
<path d="M843.824 301.167C844.534 301.877 848.656 298.532 854.704 298.329C860.719 298.025 865.28 300.931 865.922 300.153C866.226 299.816 865.483 298.532 863.489 297.18C861.53 295.862 858.252 294.646 854.468 294.815C850.717 294.984 847.609 296.504 845.852 297.991C844.061 299.478 843.487 300.829 843.824 301.167Z" fill="#263238"/>
<path d="M908.528 313.601C908.528 316.574 911.062 319.007 914.17 319.041C917.279 319.075 919.779 316.71 919.745 313.736C919.745 310.763 917.211 308.33 914.103 308.296C910.994 308.262 908.494 310.628 908.528 313.601Z" fill="#263238"/>
<path d="M903.088 300.12C903.831 300.829 907.954 297.518 913.968 297.282C919.982 296.978 924.544 299.883 925.186 299.106C925.49 298.768 924.746 297.484 922.753 296.133C920.793 294.815 917.516 293.599 913.731 293.768C909.981 293.937 906.872 295.457 905.115 296.944C903.325 298.43 902.75 299.782 903.088 300.12Z" fill="#263238"/>
<path d="M883.357 347.424C883.357 347.086 879.607 346.579 873.491 346.072C871.937 345.971 870.484 345.734 870.18 344.687C869.774 343.572 870.349 341.916 871.024 340.058C872.308 336.273 873.66 332.286 875.113 328.13C880.755 311.135 884.776 297.214 884.1 296.978C883.425 296.741 878.289 310.324 872.646 327.32C871.295 331.509 870.011 335.496 868.761 339.314C868.254 341.105 867.341 343.132 868.22 345.396C868.693 346.545 869.842 347.322 870.855 347.559C871.869 347.829 872.714 347.795 873.491 347.829C879.64 347.897 883.425 347.761 883.425 347.424H883.357Z" fill="#263238"/>
<path d="M904.644 270.082C905.32 271.703 911.3 270.69 918.429 271.264C925.559 271.703 931.37 273.528 932.249 272.041C932.654 271.332 931.573 269.811 929.208 268.325C926.843 266.838 923.126 265.453 918.869 265.148C914.611 264.844 910.726 265.689 908.192 266.838C905.624 267.987 904.374 269.338 904.678 270.115L904.644 270.082Z" fill="#263238"/>
<path d="M845.953 273.291C847.27 274.609 852.136 272.987 858.049 272.683C863.962 272.21 868.996 273.156 870.111 271.703C870.584 270.994 869.74 269.642 867.51 268.426C865.313 267.209 861.664 266.297 857.61 266.567C853.555 266.838 850.075 268.223 848.081 269.71C846.054 271.196 845.412 272.649 845.986 273.291H845.953Z" fill="#263238"/>
<path d="M968.198 319.75C968.84 319.446 994.857 310.661 995.127 337.557C995.398 364.452 966.171 360.093 966.103 359.316C966.036 358.539 968.198 319.75 968.198 319.75Z" fill="#FFBE9D"/>
<path d="M976.377 348.099C976.377 348.099 976.85 348.437 977.627 348.774C978.404 349.112 979.722 349.349 981.141 348.808C983.979 347.727 986.31 343.199 986.412 338.368C986.446 335.935 985.905 333.603 985.026 331.678C984.182 329.718 982.898 328.366 981.479 328.096C980.06 327.792 979.046 328.637 978.708 329.414C978.37 330.157 978.539 330.698 978.404 330.765C978.336 330.833 977.83 330.326 978.032 329.211C978.134 328.67 978.438 328.028 979.08 327.522C979.722 326.981 980.668 326.711 981.648 326.812C983.709 326.947 985.601 328.839 986.581 330.934C987.662 333.063 988.338 335.665 988.27 338.401C988.135 343.808 985.432 348.91 981.546 350.092C979.654 350.599 978.066 350.058 977.255 349.416C976.41 348.774 976.275 348.166 976.377 348.099Z" fill="#EB996E"/>
<path d="M780.47 248.762C780.876 247.174 782.025 245.856 783.41 245.011C786.485 243.153 790.032 243.355 793.445 243.254C801.994 243.018 810.407 240.754 817.975 236.801C815.306 235.483 812.806 233.895 810.677 231.8C806.285 227.509 803.717 220.886 805.643 215.075C806.014 213.993 806.623 212.845 807.738 212.473C809.495 211.932 811.015 213.622 812.265 214.973C816.32 219.4 820.036 221.292 826.017 220.616C829.734 220.21 833.315 219.332 836.221 217.474C836.322 217.338 836.424 217.203 836.559 217.102C837.944 215.649 839.296 214.264 840.614 212.912C850.615 202.776 859.231 195.714 868.151 191.997C881.227 186.557 903.156 184.158 916.907 187.605C930.659 191.051 943.06 201.999 945.121 216.021C952.723 209.432 964.245 209.364 973.638 213.014L973.875 212.912C984.349 216.494 990.363 227.441 993.573 238.051C993.742 238.625 993.911 239.233 994.08 239.808C997.661 245.349 1002.49 250.079 1008.24 253.323C1009.25 253.897 1010.4 254.607 1010.53 255.756C1010.67 256.905 1009.72 257.851 1008.78 258.56C1006.31 260.385 1003.41 261.601 1000.4 262.175C1001.38 264.676 1002.53 267.142 1003.95 269.44C1005.13 271.433 1006.58 273.799 1005.57 275.86C1004.79 277.482 1002.76 278.157 1001.01 277.921C999.25 277.684 997.661 276.704 996.141 275.792C997.324 278.563 998.54 281.333 999.723 284.104C995.972 284.814 992.053 284.543 988.37 283.462C986.275 293.43 984.822 311.844 982.322 318.602C975.192 318.805 973.435 318.061 969.854 319.278C965.225 320.866 967.083 329.11 961.001 326.812C957.893 325.664 953.027 314.007 951.946 310.864C944.85 290.085 942.316 267.751 944.546 245.923C940.188 241.362 934.917 237.679 929.173 235.077L929.646 235.483C918.597 231.8 906.129 228.184 895.756 233.455C887.714 237.544 883.052 246.025 877.071 252.782C865.752 265.622 852.845 272.549 835.748 273.461C834.329 285.354 834.092 304.783 833.653 315.865L823.922 293.801V293.903C823.145 292.619 822.503 291.301 821.861 290.017L821.658 289.612C820.678 287.449 819.732 285.354 818.482 283.293C818.448 283.293 818.415 283.361 818.381 283.395C812.434 288.767 803.48 280.759 808.143 274.238C809.055 272.954 810.17 271.805 811.454 270.825C808.751 273.427 804.663 274.711 801.047 273.664C797.432 272.582 794.594 269.001 794.864 265.25C795.033 262.682 796.858 260.385 799.155 259.337C794.324 259.777 789.323 258.763 785.066 256.398C782.261 254.843 779.524 252.276 780.437 248.795L780.47 248.762Z" fill="#263238"/>
<path d="M932.789 220.649C932.789 220.649 934.445 221.663 936.776 224.231C939.074 226.765 941.675 231.191 942.959 237.239C943.601 240.247 944.041 243.625 944.074 247.241C944.142 250.856 943.872 254.742 943.669 258.864C943.466 262.952 943.196 267.277 943.534 271.771C943.703 274.001 943.973 276.299 944.514 278.563C945.02 280.793 945.662 283.225 947.352 285.151C948.703 286.706 950.967 287.381 952.927 286.942C954.887 286.57 956.644 285.489 957.894 284.07C960.394 281.097 960.969 277.312 961.577 274.001L960.766 274.102C962.151 277.042 963.57 279.982 965.665 282.313C967.726 284.644 970.531 286.165 973.369 286.401C974.788 286.503 976.207 286.266 977.423 285.658C978.674 285.05 979.552 284.002 980.16 282.921C980.735 281.806 981.039 280.59 980.971 279.407C980.904 278.225 980.431 277.143 979.687 276.366L979.282 276.738C982.357 280.151 985.6 281.975 987.796 282.989C988.911 283.496 989.824 283.8 990.432 283.969C991.04 284.138 991.378 284.205 991.378 284.205C991.378 284.205 991.074 284.07 990.499 283.834C989.925 283.597 989.047 283.259 987.932 282.718C985.769 281.637 982.627 279.779 979.687 276.366L979.282 276.738C980.633 278.123 980.735 280.59 979.62 282.583C979.045 283.563 978.234 284.475 977.153 285.016C976.072 285.557 974.788 285.759 973.47 285.658C970.868 285.422 968.233 284.002 966.307 281.772C964.347 279.542 962.962 276.704 961.61 273.765L961.036 272.514L960.8 273.866C960.191 277.177 959.583 280.793 957.286 283.462C956.137 284.746 954.549 285.726 952.826 286.03C951.102 286.368 949.278 285.827 948.095 284.509C946.608 282.854 945.966 280.556 945.46 278.36C944.953 276.13 944.649 273.9 944.514 271.704C944.21 267.277 944.412 262.986 944.615 258.898C944.818 254.809 945.054 250.89 944.953 247.241C944.885 243.558 944.412 240.145 943.703 237.104C942.317 230.989 939.581 226.495 937.148 223.994C934.681 221.494 932.89 220.683 932.89 220.683L932.789 220.649Z" fill="#455A64"/>
<path d="M811.42 260.317C811.42 260.317 811.521 260.419 811.724 260.588C811.994 260.79 812.332 260.993 812.704 261.297C813.143 261.601 813.684 261.973 814.393 262.345C815.069 262.716 815.846 263.189 816.792 263.595C820.475 265.284 826.354 266.94 833.686 266.433C840.951 265.926 849.634 263.257 857.338 257.378C865.143 251.634 871.935 243.221 877.476 233.625C880.28 228.827 882.578 223.927 885.078 219.366C887.579 214.805 890.349 210.615 893.728 207.27C897.073 203.925 900.959 201.424 904.979 200.242C906.973 199.634 909 199.465 910.96 199.499C912.92 199.566 914.744 199.938 916.434 200.478C919.846 201.593 922.617 203.418 924.712 205.344C926.807 207.27 928.226 209.297 929.206 211.054C931.03 214.669 931.165 216.967 931.301 216.933C931.301 216.933 931.301 216.798 931.267 216.528C931.199 216.19 931.132 215.818 931.064 215.311C930.861 214.264 930.388 212.744 929.51 210.885C928.564 209.061 927.145 206.966 925.05 204.972C922.921 202.979 920.15 201.053 916.636 199.87C914.879 199.296 912.987 198.89 910.96 198.789C908.967 198.755 906.838 198.89 904.743 199.532C900.553 200.715 896.532 203.283 893.086 206.662C889.606 210.074 886.768 214.332 884.233 218.927C881.666 223.488 879.402 228.421 876.631 233.152C871.124 242.68 864.434 250.992 856.764 256.702C849.195 262.547 840.714 265.217 833.551 265.791C826.354 266.366 820.543 264.845 816.86 263.257C813.143 261.669 811.386 260.216 811.318 260.317H811.42Z" fill="#455A64"/>
<path d="M807.637 243.051C807.637 243.051 808.11 243.457 809.056 244.031C810.002 244.605 811.421 245.349 813.246 246.092C815.07 246.869 817.334 247.579 819.902 248.187C822.47 248.728 825.342 249.133 828.383 249.201C831.424 249.234 834.296 248.964 836.897 248.525C839.465 248.018 841.763 247.41 843.621 246.7C845.48 246.024 846.932 245.349 847.912 244.808C848.892 244.267 849.399 243.963 849.365 243.896C849.298 243.727 847.135 244.876 843.418 246.092C841.56 246.7 839.296 247.275 836.762 247.68C834.228 248.086 831.39 248.322 828.416 248.288C825.443 248.221 822.639 247.849 820.105 247.342C817.57 246.802 815.34 246.16 813.516 245.45C809.833 244.099 807.738 242.848 807.637 243.017V243.051Z" fill="#455A64"/>
<path d="M905.353 361.682C905.049 361.884 904.576 359.992 902.448 359.08C901.366 358.641 900.015 358.708 898.292 359.046C896.602 359.317 894.744 359.654 892.818 360.06C885.08 361.682 879.134 364.182 878.931 363.709C878.728 363.304 884.506 360.026 892.446 358.337C894.44 357.897 896.332 357.627 898.089 357.458C899.778 357.222 901.637 357.222 902.988 357.965C904.34 358.675 904.948 359.79 905.184 360.499C905.455 361.242 905.455 361.682 905.353 361.716V361.682Z" fill="#263238"/>
<path d="M694.04 556.708C694.817 557.857 700.19 564.378 701.338 570.899C702.487 577.42 717.084 662.161 720.902 673.92C725.666 688.618 735.498 718.588 774.592 707.37C801.656 699.599 802.602 658.377 784.187 635.739C765.773 613.101 735.093 548.295 732.795 539.848C730.498 531.401 708.637 505.924 683.329 499.302C658.022 492.679 645.351 492.409 636.161 480.245C626.97 468.115 615.449 461.966 610.076 471.156C604.704 480.347 636.161 507.985 636.161 507.985L680.288 550.187L694.108 556.708H694.04Z" fill="#FFBE9D"/>
<path d="M609.434 506.296C609.434 506.296 589.938 482.475 577.268 492.51C577.268 492.51 593.756 514.54 599.298 520.555C604.873 526.569 619.334 530.793 619.334 530.793C619.334 530.793 633.795 547.484 641.601 549.714C649.406 551.944 654.305 549.714 654.305 549.714C654.305 549.714 654.541 553.498 666.773 555.289C679.004 557.08 711.508 553.735 711.508 553.735L731.579 536.908C731.579 536.908 721.544 520.116 706.17 519.676C690.796 519.237 679.443 531.029 679.443 531.029L666.097 530.793L657.853 520.116C657.853 520.116 659.441 492.037 642.716 495.18C642.716 495.18 642.107 486.192 635.012 485.314C627.882 484.435 625.889 491.767 625.889 491.767C625.889 491.767 627.376 480.718 621.361 478.488C615.347 476.258 612.441 478.928 610.684 482.036C608.893 485.145 609.468 506.296 609.468 506.296H609.434Z" fill="#FFBE9D"/>
<path d="M655.825 549.714C655.623 549.849 653.46 547.417 650.25 543.193C648.662 541.064 646.77 538.53 644.878 535.557C643.932 534.172 642.918 532.279 642.547 530.354C642.107 528.428 641.871 526.434 641.668 524.407C641.026 516.298 641.364 508.966 641.668 503.695C642.006 498.424 642.445 495.146 642.682 495.18C642.918 495.18 642.918 498.457 642.918 503.728C642.918 508.999 642.817 516.298 643.425 524.272C643.594 526.265 643.831 528.191 644.236 529.982C644.574 531.806 645.317 533.192 646.263 534.746C648.054 537.719 649.811 540.321 651.264 542.517C654.204 546.91 656.028 549.613 655.859 549.748L655.825 549.714Z" fill="#EB996E"/>
<path d="M625.888 537.787C625.888 537.787 624.165 535.59 623.422 531.367C622.611 527.177 622.374 521.264 622.678 514.844C623.32 501.937 625.415 491.699 625.888 491.767C626.361 491.835 625.077 502.174 624.435 514.912C624.131 521.298 624.199 527.076 624.672 531.164C625.077 535.32 626.159 537.618 625.922 537.787H625.888Z" fill="#EB996E"/>
<path d="M620.381 531.975C620.212 532.144 618.185 530.353 615.246 527.143C614.536 526.332 613.725 525.42 612.948 524.44C612.171 523.359 611.259 522.514 610.617 520.825C609.772 517.885 609.502 514.743 609.231 511.431C608.792 504.809 608.826 498.828 608.961 494.47C609.096 490.145 609.366 487.476 609.603 487.476C610.144 487.476 610.211 498.186 610.988 511.296C611.225 514.54 611.495 517.716 612.171 520.318C612.475 521.365 613.455 522.582 614.131 523.561C614.84 524.508 615.55 525.454 616.225 526.366C618.861 529.745 620.584 531.84 620.381 532.009V531.975Z" fill="#EB996E"/>
<path d="M679.409 530.995C679.409 530.995 678.159 531.198 675.862 531.231C673.226 531.231 669.949 531.299 666.029 531.333H665.759L665.59 531.096C663.09 528.022 659.339 524.406 656.873 519.203L656.805 519.034V518.865C656.805 514.878 656.906 510.485 655.724 506.16C655.116 504.032 654.17 501.903 652.751 500.112C651.331 498.254 649.473 496.936 647.142 496.666C645.689 496.463 644.202 496.666 642.783 497.004L641.769 497.274L641.702 496.227C641.567 494.064 641.127 491.936 640.046 490.28C638.999 488.591 637.377 487.408 635.552 486.8C633.863 486.124 632.004 486.665 630.484 487.611C628.964 488.557 627.713 489.908 626.869 491.361L625.618 493.557L625.483 491.057C625.281 487.205 625.044 483.489 623.051 481.292C621.057 479.13 618.084 478.724 615.989 479.062C613.826 479.4 612.34 480.414 611.461 481.225C610.617 482.036 610.279 482.61 610.211 482.576C610.177 482.576 610.346 481.901 611.157 480.921C611.968 479.975 613.488 478.724 615.854 478.251C618.117 477.778 621.429 477.981 623.963 480.481C626.463 483.117 626.7 487.138 627.004 490.99L625.618 490.685C626.565 488.996 627.916 487.442 629.673 486.293C631.363 485.144 633.829 484.401 636.127 485.246C638.222 485.921 640.283 487.34 641.567 489.402C642.851 491.429 643.357 493.828 643.526 496.193L642.445 495.382C644.033 494.977 645.723 494.774 647.48 495.01C650.25 495.281 652.75 497.071 654.237 499.099C655.825 501.126 656.839 503.457 657.481 505.789C658.731 510.452 658.528 514.979 658.461 518.966L658.393 518.628C660.657 523.663 664.171 527.177 666.671 530.488L666.232 530.252C670.151 530.42 673.429 530.556 676.031 530.691C678.328 530.826 679.578 530.961 679.578 531.062L679.409 530.995Z" fill="#EB996E"/>
<path d="M714.482 520.318C714.381 520.859 706.846 518.426 697.723 520.588C688.566 522.582 682.822 528.055 682.518 527.616C682.383 527.481 683.566 525.893 686.1 524.001C688.634 522.075 692.587 519.98 697.351 518.899C702.115 517.818 706.575 518.02 709.684 518.629C712.792 519.237 714.549 520.149 714.482 520.352V520.318Z" fill="#EB996E"/>
<path d="M1189.72 496.429C1187.89 495.584 1185.76 496.023 1183.84 496.598C1174.95 499.233 1166.71 503.693 1159.14 509.066L1165.66 531.535C1168.19 526.669 1179.98 520.283 1184.11 516.668C1188.23 513.053 1192.25 508.559 1192.69 503.085C1192.92 500.483 1192.05 497.51 1189.68 496.395L1189.72 496.429Z" fill="#EB996E"/>
<path d="M1045.2 689.293C1045.2 689.293 1041.92 662.195 1044.76 639.219C1046.62 624.284 1058.99 580.089 1059.87 566.304C1060.74 552.484 1061.15 546.031 1069.8 539.543C1078.42 533.056 1078.42 536.097 1090.51 528.765C1102.61 521.433 1105.18 516.263 1123.32 515.385C1141.43 514.506 1155.69 553.363 1155.69 553.363C1155.69 553.363 1154.81 561.573 1151.36 563.736C1147.92 565.898 1143.59 566.338 1132.81 565.898C1122.04 565.459 1111.22 568.061 1110.38 574.514C1109.53 580.968 1110.82 604.721 1115.11 620.703C1119.43 636.685 1115.99 655.234 1112.95 670.777C1109.94 686.32 1103.69 720.243 1078.85 722.98C1049.7 726.224 1045.2 689.327 1045.2 689.327V689.293Z" fill="#FFBE9D"/>
<path d="M1089.36 546.132C1089.36 546.132 1102.78 544.78 1105.04 542.145C1107.31 539.509 1114.74 513.661 1118.96 507.748C1123.19 501.835 1126.06 500.653 1130.62 501.633C1130.62 501.633 1130.01 490.043 1140.45 488.388C1140.45 488.388 1146.97 487.374 1148.02 503.086C1148.02 503.086 1146.91 488.151 1157.99 483.049C1160.69 481.799 1163.97 482.745 1165.29 485.414C1165.56 485.989 1165.79 486.631 1165.93 487.306C1166.6 490.888 1167.48 507.512 1167.48 507.512C1167.48 507.512 1168.7 530.15 1169.04 529.17C1169.38 528.19 1182.99 497.713 1184.92 494.774C1186.64 492.172 1188.13 489.3 1194.55 489.773C1196.64 489.942 1198.47 491.327 1199.11 493.355C1199.31 493.996 1198.74 497.308 1198.53 498.186C1196.41 506.836 1190.63 531.028 1188.36 534.982C1186.1 538.901 1165.25 560.897 1156.74 561.607C1148.22 562.316 1143.32 561.641 1143.32 561.641L1089.3 546.132H1089.36Z" fill="#FFBE9D"/>
<path d="M1117.1 557.519C1116.9 557.35 1119.06 554.849 1121.87 550.356C1123.22 548.092 1124.81 545.355 1125.92 542.111C1126.5 540.489 1126.87 538.766 1127.07 536.908C1127.21 534.982 1127.37 533.022 1127.51 530.995C1128.15 522.886 1128.83 515.554 1129.37 510.215C1129.94 504.91 1130.42 501.633 1130.65 501.633C1130.89 501.633 1130.85 504.944 1130.62 510.283C1130.35 515.621 1129.88 522.987 1129.27 531.13C1129.1 533.157 1128.93 535.117 1128.79 537.077C1128.56 539.036 1128.12 540.962 1127.48 542.652C1126.23 546.064 1124.47 548.801 1122.95 551.031C1119.84 555.458 1117.31 557.688 1117.14 557.519H1117.1Z" fill="#EB996E"/>
<path d="M1147.95 501.565C1148.19 501.565 1148.49 504.809 1148.73 510.046C1149 515.284 1149.23 522.548 1149.37 530.556C1149.37 532.549 1149.44 534.509 1149.47 536.401C1149.47 538.26 1149.67 540.152 1149.23 542.044C1148.36 545.625 1146.7 548.362 1145.31 550.626C1142.48 555.12 1140.25 557.519 1140.08 557.384C1139.87 557.215 1141.73 554.545 1144.23 549.984C1145.45 547.72 1146.94 544.916 1147.65 541.706C1147.98 540.185 1147.75 538.395 1147.75 536.469C1147.71 534.577 1147.65 532.617 1147.61 530.623C1147.44 522.616 1147.41 515.351 1147.48 510.08C1147.54 504.809 1147.68 501.565 1147.95 501.565Z" fill="#EB996E"/>
<path d="M1168.73 527.008C1168.93 526.906 1169.85 528.494 1169.91 531.299C1169.91 532.718 1169.81 534.34 1169.17 536.164C1168.49 537.887 1167.58 539.644 1166.53 541.401C1162.28 548.463 1158.02 553.531 1157.65 553.261C1157.24 552.957 1160.86 547.416 1165.01 540.489C1166.03 538.766 1167.01 537.076 1167.68 535.556C1168.29 534.069 1168.6 532.515 1168.7 531.265C1168.93 528.697 1168.53 527.109 1168.76 527.041L1168.73 527.008Z" fill="#EB996E"/>
<path d="M1076.39 545.997C1076.39 545.254 1089.33 547.484 1104.09 541.571C1104.33 541.503 1104.57 541.402 1104.8 541.334L1104.26 541.841C1107 534.644 1109.6 528.224 1111.53 523.595C1113.45 518.966 1114.77 516.162 1114.97 516.263C1115.21 516.365 1114.3 519.304 1112.64 524.035C1110.99 528.765 1108.62 535.286 1105.88 542.483L1105.75 542.855L1105.38 542.99C1105.14 543.058 1104.9 543.159 1104.67 543.226C1100.92 544.477 1097.3 545.524 1093.92 546.234C1090.54 546.977 1087.33 547.045 1084.77 546.977C1079.56 546.808 1076.42 546.234 1076.42 545.997H1076.39Z" fill="#EB996E"/>
</g>
<defs>
<clipPath id="clip0_130_4095">
<rect width="1512.84" height="1572" fill="white" transform="translate(144 74)"/>
</clipPath>
</defs>
</svg>
