<svg width="1800" height="1720" viewBox="0 0 1800 1720" fill="none" xmlns="http://www.w3.org/2000/svg">
<g clip-path="url(#clip0_119_5695)">
<path d="M161 783.597V963.921C161 996.548 187.458 1023.01 220.086 1023.01H866.623C899.251 1023.01 925.709 996.548 925.709 963.921V811.569L1006.18 727.01L220.275 724.549C187.572 724.436 161.038 750.932 161.038 783.635L161 783.597Z" fill="#F5F5F5"/>
<path d="M830.361 833.788L243.667 831.063L243.743 813.046L830.437 815.733L830.361 833.788Z" fill="#E0E0E0"/>
<path d="M830.361 893.101L243.667 890.376L243.743 872.358L830.437 875.084L830.361 893.101Z" fill="#E0E0E0"/>
<path d="M598.31 931.716L598.222 949.733L830.361 950.867L830.449 932.85L598.31 931.716Z" fill="#E0E0E0"/>
<path d="M760.072 1406.63V1586.95C760.072 1619.58 786.53 1646.04 819.158 1646.04H1465.7C1498.32 1646.04 1524.78 1619.58 1524.78 1586.95V1434.6L1605.25 1350.04L819.347 1347.58C786.644 1347.47 760.11 1373.96 760.11 1406.67L760.072 1406.63Z" fill="#F5F5F5"/>
<path d="M1432.23 1452.13L845.578 1449.4L845.616 1431.38L1432.31 1434.07L1432.23 1452.13Z" fill="#E0E0E0"/>
<path d="M1432.23 1511.44L845.578 1508.75L845.616 1490.7L1432.31 1493.42L1432.23 1511.44Z" fill="#E0E0E0"/>
<path d="M1200.16 1550.05L1200.08 1568.07L1432.22 1569.21L1432.3 1551.19L1200.16 1550.05Z" fill="#E0E0E0"/>
<path d="M506.582 104.395H887.895C906.783 104.395 922.075 119.686 922.075 138.574V325.105C922.075 343.993 906.783 359.285 887.895 359.285H564.305C545.417 359.285 530.125 343.993 530.125 325.105V127.938L506.544 104.357L506.582 104.395Z" fill="#F5F5F5"/>
<path d="M727.633 285.702V405.274C727.633 426.925 710.108 444.45 688.457 444.45H259.64C237.989 444.45 220.464 426.925 220.464 405.274V304.211L167.094 248.154L688.343 246.526C710.032 246.45 727.633 264.013 727.633 285.702Z" fill="#E0E0E0"/>
<path d="M283.676 318.973L672.786 317.194L672.749 305.233L283.638 307.012L283.676 318.973Z" fill="#F5F5F5"/>
<path d="M283.676 358.339L672.786 356.522L672.749 344.561L283.638 346.378L283.676 358.339Z" fill="#F5F5F5"/>
<path d="M437.616 383.971L283.639 384.723L283.697 396.684L437.674 395.932L437.616 383.971Z" fill="#F5F5F5"/>
<path d="M1539.96 840.261V959.833C1539.96 981.484 1522.43 999.009 1500.78 999.009H1071.97C1050.32 999.009 1032.79 981.484 1032.79 959.833V858.77L979.42 802.674L1500.67 801.047C1522.36 800.971 1539.96 818.534 1539.96 840.223V840.261Z" fill="#E0E0E0"/>
<path d="M1096 873.532L1485.11 871.753L1485.07 859.792L1095.96 861.571L1096 873.532Z" fill="#F5F5F5"/>
<path d="M1096 912.897L1485.11 911.08L1485.07 899.119L1095.96 900.936L1096 912.897Z" fill="#F5F5F5"/>
<path d="M1249.92 938.565L1095.94 939.318L1096 951.278L1249.97 950.526L1249.92 938.565Z" fill="#F5F5F5"/>
<path d="M1082.34 1578.09L645.155 1576.09C592.58 1575.86 550.149 1533.05 550.376 1480.44L554.994 384.418C555.221 331.805 598.068 289.336 650.682 289.601L1087.86 291.607C1140.44 291.834 1182.87 334.644 1182.64 387.257L1178.03 1483.28C1177.8 1535.89 1134.95 1578.36 1082.34 1578.09Z" fill="#263238"/>
<path d="M1087.22 329.42L1002.47 329.042C991.116 329.004 981.843 338.58 981.805 350.465L981.729 365.833C981.691 377.718 972.418 387.295 961.062 387.257L795.841 386.5C784.486 386.462 775.288 376.772 775.364 364.887L775.44 349.519C775.477 337.634 766.317 327.944 754.962 327.906L725.135 327.755L650.947 327.414C614.118 327.263 584.102 356.976 583.95 393.843L579.446 1463.63C579.294 1500.46 609.008 1530.44 645.837 1530.63L1082.15 1532.64C1118.98 1532.82 1148.99 1503.07 1149.15 1466.21L1153.65 396.417C1153.8 359.588 1124.09 329.609 1087.26 329.458L1087.22 329.42Z" fill="#FAFAFA"/>
<path d="M840.316 1430.21C840.316 1434.49 836.266 1437.93 831.27 1437.89C826.311 1437.89 822.299 1434.37 822.299 1430.13C822.299 1425.86 826.349 1422.41 831.345 1422.45C836.304 1422.45 840.316 1425.97 840.316 1430.21Z" fill="#455A64"/>
<path d="M868.212 1430.32C868.212 1434.6 864.162 1438.05 859.166 1438.01C854.208 1438.01 850.195 1434.49 850.195 1430.25C850.195 1425.97 854.245 1422.53 859.242 1422.56C864.238 1422.6 868.212 1426.08 868.212 1430.32Z" fill="#455A64"/>
<path d="M896.109 1430.48C896.109 1434.75 892.059 1438.2 887.063 1438.16C882.104 1438.16 878.092 1434.64 878.092 1430.4C878.092 1426.12 882.142 1422.68 887.138 1422.72C892.097 1422.72 896.109 1426.24 896.109 1430.48Z" fill="#455A64"/>
<path d="M714.348 845.181C721.464 846.203 1150.32 930.309 1150.32 930.309V845.181H714.348Z" fill="#EBEBEB"/>
<path d="M579.408 1385.66C579.408 1385.66 1045.96 1319.65 1041.87 1321.69C1037.82 1323.73 579.408 1321.69 579.408 1321.69V1385.66Z" fill="#EBEBEB"/>
<path d="M1121.21 136.606C1121.74 136.606 1122.19 160.187 1122.19 189.295C1122.19 218.403 1121.74 241.984 1121.21 241.984C1120.68 241.984 1120.23 218.403 1120.23 189.295C1120.23 160.187 1120.68 136.606 1121.21 136.606Z" fill="#263238"/>
<path d="M1307.89 257.844C1308.12 258.336 1286.7 268.253 1260.09 280.024C1233.48 291.758 1211.71 300.88 1211.49 300.388C1211.26 299.896 1232.65 289.979 1259.29 278.207C1285.9 266.474 1307.67 257.351 1307.89 257.844Z" fill="#263238"/>
<path d="M1303.16 74C1303.16 74 1302.86 74.7192 1302.14 76.0061C1301.31 77.4823 1300.21 79.2992 1298.92 81.5702C1296.08 86.4152 1291.88 93.342 1286.58 101.821C1275.98 118.816 1260.73 141.943 1243.47 167.152C1226.17 192.361 1210.77 215.337 1199.87 232.105C1194.53 240.356 1190.18 247.094 1187 252.014C1185.56 254.21 1184.38 255.989 1183.44 257.389C1182.61 258.601 1182.15 259.244 1182.08 259.206C1182 259.206 1182.38 258.487 1183.1 257.2C1183.93 255.724 1185.03 253.907 1186.32 251.636C1189.15 246.791 1193.36 239.902 1198.65 231.385C1209.25 214.39 1224.51 191.263 1241.81 166.054C1259.07 140.845 1274.51 117.907 1285.37 101.101C1290.71 92.8499 1295.06 86.1124 1298.24 81.1917C1299.68 78.9964 1300.85 77.2174 1301.8 75.8169C1302.63 74.6056 1303.09 73.9621 1303.16 74Z" fill="#263238"/>
<path d="M1564.86 519.623H711.546C693.112 519.623 678.161 534.574 678.161 553.008V817.701C678.161 836.135 693.112 851.086 711.546 851.086H775.136C780.246 878.717 786.264 913.616 786.264 913.616L843.798 851.086H1564.9C1583.34 851.086 1598.29 836.135 1598.29 817.701V553.008C1598.29 534.574 1583.34 519.623 1564.9 519.623H1564.86Z" fill="#278DB4"/>
<path d="M1212.81 663.192C1212.81 663.722 1111.26 664.177 986.006 664.177C860.756 664.177 759.163 663.722 759.163 663.192C759.163 662.663 860.718 662.208 986.006 662.208C1111.29 662.208 1212.81 662.663 1212.81 663.192Z" fill="#F5F5F5"/>
<path d="M1212.81 622.502C1212.81 623.032 1111.26 623.487 986.006 623.487C860.756 623.487 759.163 623.032 759.163 622.502C759.163 621.973 860.718 621.518 986.006 621.518C1111.29 621.518 1212.81 621.973 1212.81 622.502Z" fill="#F5F5F5"/>
<path d="M1212.81 703.428C1212.81 703.958 1111.26 704.412 986.006 704.412C860.756 704.412 759.163 703.958 759.163 703.428C759.163 702.898 860.718 702.444 986.006 702.444C1111.29 702.444 1212.81 702.898 1212.81 703.428Z" fill="#F5F5F5"/>
<path d="M1056.3 745.14C1056.3 745.67 989.753 746.125 907.729 746.125C825.706 746.125 759.163 745.67 759.163 745.14C759.163 744.611 825.668 744.156 907.729 744.156C989.791 744.156 1056.3 744.611 1056.3 745.14Z" fill="#F5F5F5"/>
<path d="M1179.31 995.488H318.991C306.084 995.488 295.637 1005.94 295.637 1018.84V1298.9C295.637 1311.81 306.084 1322.26 318.991 1322.26H943.839L1000.73 1384.07C1000.73 1384.07 1006.71 1349.32 1011.71 1322.26H1179.31C1192.22 1322.26 1202.67 1311.81 1202.67 1298.9V1018.84C1202.67 1005.94 1192.22 995.488 1179.31 995.488Z" fill="#455A64"/>
<path d="M1145.59 1139.93C1145.59 1140.46 1044.03 1140.91 918.782 1140.91C793.532 1140.91 691.939 1140.46 691.939 1139.93C691.939 1139.4 793.494 1138.94 918.782 1138.94C1044.07 1138.94 1145.59 1139.4 1145.59 1139.93Z" fill="#F5F5F5"/>
<path d="M1145.59 1099.24C1145.59 1099.77 1044.03 1100.22 918.782 1100.22C793.532 1100.22 691.939 1099.77 691.939 1099.24C691.939 1098.71 793.494 1098.25 918.782 1098.25C1044.07 1098.25 1145.59 1098.71 1145.59 1099.24Z" fill="#F5F5F5"/>
<path d="M1145.59 1180.16C1145.59 1180.69 1044.03 1181.15 918.782 1181.15C793.532 1181.15 691.939 1180.69 691.939 1180.16C691.939 1179.63 793.494 1179.18 918.782 1179.18C1044.07 1179.18 1145.59 1179.63 1145.59 1180.16Z" fill="#F5F5F5"/>
<path d="M989.072 1221.84C989.072 1222.37 922.529 1222.82 840.506 1222.82C758.482 1222.82 691.939 1222.37 691.939 1221.84C691.939 1221.31 758.444 1220.85 840.506 1220.85C922.567 1220.85 989.072 1221.31 989.072 1221.84Z" fill="#F5F5F5"/>
<path d="M1350.36 407.356C1350.85 400.391 1344.65 390.815 1338.93 385.289C1333.18 379.762 1329.62 372.306 1332.61 361.177C1334.92 352.585 1340.37 353.229 1342.53 348.157C1344.12 344.409 1343.43 340.132 1343.77 336.082C1344.91 322.153 1360.2 311.252 1373.75 314.734C1377.58 301.486 1389.92 291.153 1403.62 289.752C1417.32 288.314 1431.51 295.884 1437.99 308.072C1445.82 304.022 1455.66 304.136 1463.35 308.451C1471.03 312.766 1476.37 321.017 1477.01 329.837C1484.62 324.348 1496.31 326.468 1502.37 333.66C1508.43 340.851 1508.77 351.904 1504.19 360.118C1499.61 368.331 1490.75 373.668 1481.44 375.107C1472.13 376.545 1462.55 374.35 1454.11 370.148C1445.71 365.947 1438.36 359.853 1431.7 353.229" fill="#263238"/>
<path d="M1412.25 842.342C1502.74 842.342 1576.11 770.692 1576.11 682.307C1576.11 593.922 1502.74 522.272 1412.25 522.272C1321.75 522.272 1248.39 593.922 1248.39 682.307C1248.39 770.692 1321.75 842.342 1412.25 842.342Z" fill="#E0E0E0"/>
<path d="M1576.79 682.421L1558.66 635.902L1493.67 676.743L1551.58 766.072C1551.58 766.072 1575.12 735.451 1576.79 682.421Z" fill="#EB996E"/>
<path d="M1397.33 581.737C1420.69 581.737 1439.95 563.644 1441.13 540.517C1442.07 521.25 1442.91 502.703 1442.91 502.703C1442.91 502.703 1478.68 500.129 1481.97 465.155C1485.26 430.18 1485.72 349.368 1485.72 349.368C1446.28 328.663 1398.62 330.745 1361.15 354.781L1357.74 356.976L1353.62 537.867C1353.35 561.978 1373 581.699 1397.33 581.737Z" fill="#FFBE9D"/>
<path d="M1417.85 403.117C1420.54 403.987 1422.01 406.902 1421.1 409.551C1420.2 412.239 1417.28 413.677 1414.59 412.769C1411.91 411.898 1410.43 408.984 1411.34 406.334C1412.25 403.646 1415.16 402.208 1417.85 403.117Z" fill="#263238"/>
<path d="M1427.65 404.933C1427.05 405.501 1423.75 402.662 1418.87 402.36C1413.99 401.981 1410.32 404.328 1409.83 403.684C1409.56 403.382 1410.2 402.322 1411.79 401.262C1413.38 400.202 1416.03 399.256 1419.06 399.445C1422.09 399.672 1424.59 400.997 1425.99 402.284C1427.43 403.571 1427.88 404.706 1427.62 404.971L1427.65 404.933Z" fill="#263238"/>
<path d="M1471.22 403.117C1473.91 403.987 1475.38 406.902 1474.48 409.551C1473.57 412.239 1470.65 413.677 1467.96 412.769C1465.28 411.898 1463.8 408.984 1464.71 406.334C1465.62 403.646 1468.53 402.208 1471.22 403.117Z" fill="#263238"/>
<path d="M1481.67 405.047C1481.06 405.615 1477.77 402.776 1472.89 402.473C1468 402.095 1464.33 404.441 1463.84 403.798C1463.57 403.495 1464.22 402.435 1465.81 401.375C1467.4 400.316 1470.05 399.369 1473.07 399.559C1476.1 399.786 1478.6 401.11 1480 402.397C1481.44 403.684 1481.89 404.82 1481.63 405.085L1481.67 405.047Z" fill="#263238"/>
<path d="M1444.95 442.86C1444.95 442.482 1448.02 442.103 1452.94 441.838C1454.22 441.838 1455.25 441.611 1455.4 440.93C1455.7 440.173 1455.32 438.81 1454.79 437.258C1453.81 433.965 1452.79 430.634 1451.76 427.152C1447.6 412.769 1444.8 400.959 1445.56 400.732C1446.28 400.505 1450.29 412.012 1454.45 426.395C1455.44 429.915 1456.38 433.246 1457.29 436.539C1457.63 438.053 1458.39 439.794 1457.56 441.838C1457.1 442.86 1456.04 443.542 1455.21 443.655C1454.34 443.845 1453.62 443.769 1453.01 443.769C1448.05 443.542 1444.99 443.239 1444.99 442.823L1444.95 442.86Z" fill="#263238"/>
<path d="M1442.98 502.211C1442.98 502.211 1420.54 502.211 1398.02 485.519C1398.02 485.519 1406.83 511.598 1442.34 511.258L1442.98 502.173V502.211Z" fill="#EB996E"/>
<path d="M1356.87 408.302C1356.87 405.463 1354.71 403.041 1351.87 402.889C1345.29 402.587 1334.43 404.971 1333.06 422.988C1331.13 448.727 1356.27 442.785 1356.34 442.065C1356.42 441.498 1356.72 418.333 1356.83 408.302H1356.87Z" fill="#FFBE9D"/>
<path d="M1350.85 431.808C1350.85 431.808 1350.36 432.073 1349.6 432.376C1348.85 432.641 1347.52 432.792 1346.23 432.186C1343.58 430.975 1341.58 426.509 1341.81 421.853C1341.92 419.506 1342.56 417.311 1343.55 415.532C1344.49 413.715 1345.82 412.466 1347.22 412.352C1348.62 412.125 1349.53 413.034 1349.79 413.791C1350.1 414.548 1349.87 415.04 1350.02 415.078C1350.1 415.153 1350.62 414.699 1350.47 413.601C1350.4 413.071 1350.13 412.466 1349.57 411.898C1349 411.368 1348.09 411.028 1347.1 411.065C1345.1 411.065 1343.17 412.731 1342.07 414.699C1340.9 416.667 1340.1 419.128 1339.95 421.739C1339.72 426.925 1342.03 431.997 1345.7 433.36C1347.48 433.965 1349.07 433.549 1349.91 432.981C1350.78 432.413 1350.93 431.846 1350.85 431.77V431.808Z" fill="#EB996E"/>
<path d="M1404.6 391.231C1405.89 392.897 1410.35 392.102 1416.18 391.875C1421.97 391.421 1426.52 391.648 1427.58 389.831C1428.79 387.976 1423.15 383.661 1415.69 384.305C1408.2 384.607 1403.16 389.566 1404.6 391.269V391.231Z" fill="#263238"/>
<path d="M1461.3 389.528C1462.02 391.761 1466.26 392.443 1470.99 392.405C1475.72 392.291 1479.96 391.534 1480.61 389.263C1481.29 387.068 1476.97 383.888 1470.88 384.002C1464.79 384.077 1460.58 387.333 1461.3 389.528Z" fill="#263238"/>
<path d="M1490.67 360.42C1490.67 360.42 1469.48 370.678 1441.85 356.9C1423.72 347.854 1402.63 343.425 1397.98 347.097C1393.32 350.73 1392.34 369.391 1374.4 374.842C1374.4 374.842 1375.64 410.46 1361.41 409.173C1347.22 407.886 1356.08 352.737 1356.08 352.737L1390.82 335.779L1428.71 328.625L1464.44 333.66L1492.07 341.23L1490.67 360.42Z" fill="#263238"/>
<path d="M1252.93 566.483C1290.06 528.291 1355.39 532.492 1355.39 532.492L1409.56 571.252L1440.26 535.482C1440.26 535.482 1472.54 539.04 1502.79 554.824L1504.87 555.468V555.884C1528.6 568.791 1562.25 599.716 1594.27 629.732L1555.93 665.312L1513.5 702.974C1513.5 702.974 1513.65 703.239 1513.58 703.731C1513.12 706.002 1519.48 757.858 1525.99 797.224C1487.34 834.129 1438.06 849.913 1383.37 840.298C1365.99 837.27 1357.59 833.031 1341.54 828.792C1317.77 822.546 1300.55 801.955 1298.43 777.465C1295.55 744.459 1293.32 703.58 1293.32 703.58" fill="#455A64"/>
<path d="M1474.21 542.182C1474.21 542.182 1475.16 544.302 1476.56 548.276C1477.96 552.25 1479.85 558.004 1482.08 565.158C1486.55 579.465 1492.27 599.413 1497.64 621.67C1503.02 643.926 1507.03 664.29 1509.6 679.052C1510.89 686.433 1511.84 692.451 1512.4 696.577C1512.97 700.741 1513.24 703.05 1513.12 703.05C1513.01 703.05 1512.48 700.817 1511.65 696.691C1510.78 692.262 1509.64 686.395 1508.24 679.279C1505.32 664.593 1501.09 644.305 1495.75 622.086C1490.37 599.867 1484.92 579.92 1480.8 565.498C1478.79 558.534 1477.13 552.78 1475.88 548.427C1474.74 544.415 1474.14 542.144 1474.29 542.106L1474.21 542.182Z" fill="#263238"/>
<path d="M1509.07 678.636C1508.73 678.219 1524.93 664.442 1545.22 647.901C1565.55 631.36 1582.28 618.263 1582.62 618.679C1582.96 619.096 1566.76 632.874 1546.47 649.415C1526.14 665.956 1509.41 679.052 1509.07 678.636Z" fill="#263238"/>
<path opacity="0.2" d="M1301.91 618.907L1268.68 728.183L1281.06 734.618L1293.24 703.693C1293.24 703.693 1305.77 638.778 1301.91 618.869V618.907Z" fill="black"/>
<g opacity="0.2">
<path d="M1470.61 542.22C1488.52 551.645 1443.63 574.393 1423.38 573.788L1438.1 534.952C1438.1 534.952 1464.63 539.078 1470.61 542.258V542.22Z" fill="black"/>
</g>
<path d="M1350.06 534.952V505.996C1350.06 505.996 1406.57 520.531 1408.65 554.37C1408.65 554.37 1415.84 516.973 1444.95 515.194L1449.08 567.769L1415.2 597.256H1380.83L1353.62 573.788L1350.06 537.261" fill="#455A64"/>
<path d="M1421.33 716.601C1421.33 716.601 1421.18 714.367 1421.22 710.393C1421.29 706.381 1421.37 700.59 1421.41 693.473C1421.45 679.166 1420.99 659.445 1419.21 637.719C1417.4 615.992 1414.59 596.423 1412.17 582.342C1410.96 575.567 1409.98 569.927 1409.22 565.688C1408.5 561.751 1408.16 559.556 1408.27 559.518C1408.39 559.518 1408.99 561.638 1409.94 565.498C1410.92 569.397 1412.13 575.037 1413.53 582.077C1416.3 596.12 1419.36 615.727 1421.18 637.529C1423 659.332 1423.22 679.166 1422.81 693.473C1422.62 700.627 1422.32 706.419 1422.01 710.431C1421.71 714.443 1421.48 716.638 1421.33 716.638V716.601Z" fill="#263238"/>
<path d="M1406.04 544.642C1406.04 544.642 1404.75 544.15 1402.67 544.945C1400.51 545.626 1398.58 548.314 1396.99 552.175C1393.51 559.707 1389.23 570.533 1386.24 583.44L1385.94 584.727L1384.81 584.045C1381.44 582.002 1377.95 579.806 1374.47 577.422C1367.73 572.842 1361.53 568.148 1356.15 563.492C1353.43 561.146 1351.19 558.345 1349.91 555.316C1348.62 552.288 1348.13 549.298 1348.01 546.573C1347.79 541.122 1348.7 536.845 1349.26 533.93C1349.91 531.016 1350.36 529.426 1350.51 529.464C1350.66 529.464 1350.44 531.129 1350.02 534.082C1349.68 537.034 1349 541.311 1349.41 546.535C1349.64 549.109 1350.17 551.948 1351.42 554.673C1352.67 557.398 1354.71 559.934 1357.36 562.13C1362.7 566.596 1368.91 571.252 1375.61 575.794C1379.05 578.141 1382.5 580.336 1385.83 582.38L1384.39 582.986C1387.49 569.927 1392.07 559.064 1395.9 551.607C1396.84 549.752 1397.75 548.049 1398.89 546.724C1399.98 545.399 1401.35 544.604 1402.48 544.264C1404.87 543.583 1406.15 544.567 1406.04 544.605V544.642Z" fill="#263238"/>
<path d="M1444.95 515.194C1444.95 515.194 1445.25 516.784 1445.48 519.698C1445.71 523.029 1446.01 527.155 1446.39 532C1446.81 537.186 1447.45 543.355 1448.51 550.131C1448.93 553.5 1450.1 557.133 1449.19 561.221C1448.02 565.271 1444.99 568.299 1441.77 570.722C1437.23 574.091 1432.5 576.589 1429.32 580.185L1427.8 581.888L1427.65 579.617C1426.86 567.656 1422.88 557.815 1419.29 551.418C1415.69 544.983 1412.74 541.652 1412.97 541.463C1413.04 541.387 1413.84 542.144 1415.2 543.696C1416.53 545.248 1418.38 547.595 1420.31 550.812C1424.25 557.171 1428.6 567.164 1429.51 579.465L1427.84 578.898C1431.29 574.961 1436.21 572.349 1440.52 569.132C1443.59 566.823 1446.31 563.984 1447.26 560.729C1448.06 557.398 1447.07 553.802 1446.65 550.358C1445.67 543.507 1445.18 537.261 1444.95 532.038C1444.69 526.814 1444.65 522.575 1444.69 519.661C1444.69 516.746 1444.8 515.118 1444.91 515.118L1444.95 515.194Z" fill="#263238"/>
<path d="M1626.9 522.462C1624.59 525.187 1541.4 636.432 1541.4 636.432L1553.13 643.056L1638.52 533.211L1626.94 522.462H1626.9Z" fill="#263238"/>
<path d="M1292.56 610.428C1292.56 610.428 1380.11 736.435 1385.37 738.933C1395.78 743.816 1515.54 640.292 1526.97 630.413C1528.56 628.294 1531.78 623.865 1538.18 615.046C1538.18 615.046 1547.64 571.82 1557.71 575.113C1567.78 578.444 1552.18 597.104 1558.77 613.532C1565.36 629.959 1595.41 590.783 1596.62 587.263L1604.38 577.119C1604.38 577.119 1612.52 600.17 1611.95 609.822C1610.17 640.671 1580.99 677.349 1580.99 677.349C1580.99 677.349 1449.91 839.731 1360.13 844.765C1334.27 846.203 1288.32 772.848 1257.59 717.812C1239.04 684.578 1248.28 642.715 1279.05 620.307L1292.56 610.428Z" fill="#FFBE9D"/>
<path d="M1597.23 615.273C1596.92 615.084 1599.72 610.125 1602.83 603.842C1605.93 597.558 1608.16 592.335 1608.51 592.449C1608.81 592.562 1607.03 598.013 1603.89 604.372C1600.75 610.731 1597.49 615.424 1597.23 615.273Z" fill="#EB996E"/>
<path d="M1277.76 548.92C1277.76 548.92 1183.78 582.342 1253.65 740.333L1362.13 674.851L1346.69 637.908L1277.76 548.92Z" fill="#455A64"/>
<path d="M1270.53 551.645C1270.53 551.645 1274.62 550.964 1281.85 552.591C1285.41 553.5 1289.69 555.089 1294.19 557.777C1298.7 560.464 1303.35 564.249 1307.89 569.019C1317.02 578.519 1325.53 591.805 1333.4 607.135C1341.35 622.502 1348.77 639.99 1356.38 658.385C1358.65 663.874 1360.92 669.324 1363.04 674.472L1363.38 675.305L1362.63 675.721C1331.25 692.83 1303.92 708.841 1284.58 720.84C1274.92 726.82 1267.2 731.741 1261.94 735.148C1259.41 736.775 1257.4 738.062 1255.85 739.046C1254.45 739.917 1253.69 740.371 1253.65 740.295C1253.65 740.258 1254.3 739.69 1255.62 738.744C1256.95 737.759 1258.91 736.321 1261.53 734.542C1266.67 730.946 1274.28 725.836 1283.86 719.704C1303.01 707.403 1330.26 691.165 1361.64 673.98L1361.23 675.229C1359.11 670.081 1356.83 664.669 1354.56 659.142C1346.96 640.747 1339.61 623.297 1331.78 607.968C1324.02 592.638 1315.69 579.428 1306.87 569.965C1302.48 565.233 1297.98 561.448 1293.62 558.723C1289.27 555.998 1285.14 554.332 1281.7 553.31C1274.7 551.493 1270.57 551.91 1270.57 551.607L1270.53 551.645Z" fill="#263238"/>
<path d="M1472.7 317.384C1472.7 317.384 1472.92 317.951 1473.15 319.049C1473.34 320.147 1473.57 321.812 1473.42 323.97C1473.19 328.171 1471.67 334.682 1466.26 340.359C1461 346.037 1451.04 349.633 1440.98 346.756C1436.06 345.318 1431.06 342.327 1428.03 337.369C1426.56 334.909 1425.68 331.881 1426.1 328.815C1426.52 325.824 1428.03 322.796 1430.76 321.017C1433.48 319.163 1437.08 319.2 1439.84 320.449C1442.64 321.623 1444.95 323.932 1446.05 326.695C1448.28 332.259 1446.62 338.24 1443.55 342.441C1437.04 351.071 1425.27 351.752 1418.72 347.854C1415.28 346.264 1412.25 344.788 1409.37 344.258C1406.53 343.69 1404 344.182 1402.14 345.015C1398.43 346.794 1396.92 348.762 1396.77 348.573C1396.73 348.535 1397.11 348.081 1397.86 347.286C1398.24 346.87 1398.73 346.378 1399.42 345.885C1400.06 345.393 1400.82 344.788 1401.84 344.334C1403.73 343.312 1406.49 342.668 1409.6 343.198C1412.7 343.652 1415.88 345.128 1419.33 346.605C1421.07 347.286 1422.85 348.081 1424.78 348.422C1426.67 348.762 1428.79 348.724 1430.87 348.308C1435.03 347.551 1439.31 345.28 1442.11 341.419C1444.84 337.672 1446.2 332.183 1444.27 327.49C1442.57 322.91 1436.21 319.844 1431.82 322.721C1429.7 324.121 1428.37 326.619 1428.03 329.155C1427.65 331.691 1428.37 334.265 1429.7 336.461C1432.35 340.851 1436.93 343.728 1441.51 345.091C1450.86 347.892 1460.24 344.674 1465.31 339.451C1470.58 334.227 1472.28 328.058 1472.7 323.97C1473.15 319.806 1472.51 317.497 1472.7 317.459V317.384Z" fill="#455A64"/>
<path d="M1452.22 460.121C1452.26 460.348 1451.05 460.84 1448.96 460.953C1446.88 461.067 1443.97 460.575 1441.09 459.136C1438.25 457.698 1436.13 455.616 1434.96 453.875C1433.79 452.134 1433.48 450.885 1433.71 450.771C1434.2 450.468 1436.74 454.784 1442 457.357C1447.19 460.045 1452.14 459.515 1452.22 460.083V460.121Z" fill="#263238"/>
<path d="M1352.97 443.39C1352.97 443.39 1354.22 445.056 1352.82 447.667C1352.14 448.879 1350.89 450.203 1348.96 450.733C1347.03 451.263 1344.72 450.658 1343.09 449.182C1341.43 447.743 1340.52 445.623 1340.6 443.693C1340.67 441.763 1341.47 440.211 1342.34 439.151C1344.15 437.031 1346.01 436.804 1346.05 437.031C1346.2 437.334 1344.72 437.978 1343.47 439.984C1342.19 441.838 1341.69 445.472 1344.38 447.705C1345.63 448.765 1347.22 449.257 1348.54 448.954C1349.91 448.689 1350.97 447.819 1351.65 446.91C1353.01 445.056 1352.67 443.428 1352.97 443.39Z" fill="#263238"/>
<path d="M1478.94 330.139C1478.94 330.139 1480.53 332.562 1480.76 337.104C1481.02 341.533 1479.74 348.157 1475.16 353.494C1470.5 358.831 1464.18 361.026 1459.71 361.367C1455.21 361.783 1452.52 360.723 1452.56 360.534C1452.6 360.193 1455.32 360.685 1459.52 359.966C1463.65 359.285 1469.4 357.014 1473.64 352.169C1477.84 347.286 1479.28 341.268 1479.36 337.104C1479.47 332.827 1478.6 330.215 1478.94 330.139Z" fill="#455A64"/>
<path d="M1350.93 646.841C1351.16 647.333 1326.21 660.164 1295.17 675.494C1264.14 690.824 1238.81 702.861 1238.55 702.406C1238.32 701.914 1263.27 689.083 1294.3 673.753C1325.34 658.423 1350.66 646.386 1350.93 646.841Z" fill="#E0E0E0"/>
<path d="M1328.18 603.88C1328.45 604.372 1306.23 616.787 1278.56 631.625C1250.89 646.462 1228.25 658.12 1227.99 657.628C1227.72 657.136 1249.94 644.721 1277.61 629.883C1305.28 615.046 1327.92 603.388 1328.14 603.88H1328.18Z" fill="#E0E0E0"/>
<path d="M1306.19 569.17C1306.3 569.435 1302.03 571.857 1295.06 575.756C1287.6 579.92 1278.26 585.143 1267.88 590.934C1257.59 596.801 1248.24 602.138 1240.86 606.34C1233.93 610.276 1229.62 612.699 1229.47 612.434C1229.31 612.207 1233.36 609.406 1240.14 605.129C1246.88 600.852 1256.34 595.174 1266.94 589.193C1277.54 583.213 1287.3 578.065 1294.42 574.507C1301.57 570.949 1306.08 568.943 1306.19 569.17Z" fill="#E0E0E0"/>
<path d="M1389.31 560.956C1389.27 561.183 1386.36 560.805 1382.01 558.988C1377.65 557.209 1372.01 553.802 1366.71 549.033C1361.38 544.264 1357.25 539.305 1354.37 535.672C1351.5 532 1349.91 529.653 1350.1 529.464C1350.32 529.275 1352.29 531.357 1355.43 534.763C1358.58 538.17 1362.82 542.901 1368.04 547.557C1373.22 552.213 1378.56 555.695 1382.61 557.739C1386.66 559.821 1389.42 560.653 1389.35 560.956H1389.31Z" fill="#E0E0E0"/>
<path d="M1444.54 540.479C1445.03 540.63 1442.72 546.762 1436.66 551.834C1430.64 556.944 1424.21 558.155 1424.13 557.663C1423.94 557.095 1429.77 555.127 1435.38 550.358C1441.05 545.626 1443.97 540.252 1444.5 540.517L1444.54 540.479Z" fill="#E0E0E0"/>
<path d="M1542.95 597.445C1542.95 597.445 1542.23 597.634 1540.83 597.823C1539.2 598.013 1537.19 598.278 1534.73 598.58C1529.43 599.148 1521.75 599.905 1512.29 600.624C1493.29 602.138 1467.02 603.615 1437.99 604.674C1408.95 605.696 1382.65 606.075 1363.57 605.924C1354.03 605.848 1346.35 605.659 1341.01 605.469C1338.51 605.356 1336.51 605.242 1334.88 605.166C1333.48 605.091 1332.76 604.977 1332.76 604.939C1332.76 604.864 1333.52 604.826 1334.92 604.788C1336.54 604.788 1338.55 604.788 1341.05 604.75C1346.65 604.712 1354.26 604.637 1363.57 604.561C1382.61 604.372 1408.88 603.766 1437.91 602.744C1466.9 601.684 1493.17 600.435 1512.17 599.262C1521.45 598.656 1529.09 598.202 1534.66 597.823C1537.12 597.672 1539.16 597.558 1540.79 597.445C1542.19 597.369 1542.95 597.369 1542.95 597.445Z" fill="#E0E0E0"/>
<path d="M1513.08 642.299C1513.08 642.299 1510.89 642.791 1506.88 643.283C1502.86 643.775 1497.03 644.418 1489.8 645.062C1475.38 646.386 1455.44 647.749 1433.37 648.658C1411.3 649.528 1391.28 649.793 1376.82 649.642C1369.59 649.566 1363.72 649.415 1359.67 649.263C1355.62 649.074 1353.39 648.923 1353.39 648.771C1353.39 648.62 1355.62 648.544 1359.67 648.468C1364.06 648.393 1369.82 648.317 1376.82 648.241C1391.28 648.052 1411.26 647.598 1433.29 646.689C1455.32 645.781 1475.27 644.645 1489.73 643.661C1496.69 643.207 1502.45 642.791 1506.84 642.526C1510.89 642.261 1513.12 642.185 1513.12 642.299H1513.08Z" fill="#E0E0E0"/>
<path d="M1445.22 697.675C1445.22 697.94 1440.45 698.659 1432.69 699.454C1424.89 700.249 1414.14 701.119 1402.22 701.725C1390.29 702.331 1379.51 702.52 1371.67 702.52C1363.84 702.52 1359.03 702.255 1359.03 701.99C1359.03 701.725 1363.87 701.46 1371.67 701.119C1380.04 700.741 1390.52 700.287 1402.14 699.757C1413.76 699.113 1424.25 698.546 1432.61 698.091C1440.41 697.637 1445.25 697.448 1445.25 697.713L1445.22 697.675Z" fill="#E0E0E0"/>
<path d="M1358.5 566.293C1358.5 566.861 1346.88 566.975 1332.57 567.58C1318.26 568.148 1306.68 568.981 1306.64 568.413C1306.57 567.883 1318.11 566.18 1332.5 565.612C1346.84 565.006 1358.5 565.763 1358.5 566.293Z" fill="#E0E0E0"/>
<path d="M1518.16 564.249C1518.16 564.779 1503.09 565.196 1484.51 565.12C1465.92 565.044 1450.86 564.552 1450.89 564.022C1450.89 563.492 1465.96 563.076 1484.54 563.152C1503.13 563.227 1518.16 563.719 1518.16 564.249Z" fill="#E0E0E0"/>
<path d="M1523.99 794.574C1523.99 794.574 1522.81 795.407 1520.54 796.542C1518.27 797.716 1514.9 799.268 1510.7 801.009C1502.26 804.567 1490.3 808.73 1476.71 811.872C1463.08 815.014 1450.52 816.49 1441.36 816.982C1436.78 817.247 1433.1 817.323 1430.53 817.247C1427.99 817.209 1426.56 817.096 1426.56 816.982C1426.56 816.679 1432.2 816.452 1441.24 815.582C1450.29 814.711 1462.74 813.045 1476.26 809.942C1489.77 806.8 1501.69 802.901 1510.17 799.684C1518.69 796.505 1523.83 794.233 1523.99 794.498V794.574Z" fill="#E0E0E0"/>
<path d="M501.509 1309.81C592.006 1309.81 665.367 1239.82 665.367 1153.48C665.367 1067.14 592.006 997.154 501.509 997.154C411.013 997.154 337.651 1067.14 337.651 1153.48C337.651 1239.82 411.013 1309.81 501.509 1309.81Z" fill="#E0E0E0"/>
<path d="M468.125 776.595C442.122 777.957 431.94 805.059 428.798 811.115C425.694 817.171 425.202 824.174 424.634 830.949C424.066 837.724 423.272 844.765 419.638 850.518C413.922 859.64 401.886 864.372 398.63 874.629C394.921 886.25 404.422 898.665 401.886 910.588C400.523 916.985 395.867 922.246 394.202 928.568C392.461 935.191 394.278 942.308 397.722 948.212C406.276 962.861 423.953 970.242 440.91 970.847C457.868 971.453 474.446 966.381 490.685 961.347" fill="#263238"/>
<path d="M582.511 810.282C579.975 815.771 582.36 822.47 586.372 827.05C590.346 831.63 595.721 834.696 600.453 838.519C605.184 842.305 609.499 847.339 610.067 853.357C610.559 858.883 607.796 864.41 608.553 869.898C610.483 884.054 633.081 888.332 634.292 902.564C635.087 912.064 625.359 920.77 628.046 929.892C629.068 933.375 631.794 936.1 633.686 939.242C640.083 949.878 635.768 964.564 626.457 972.816C617.183 981.067 604.238 983.982 591.823 984.549C581.376 985.004 569.528 983.3 563.359 974.86C557.719 967.138 558.892 956.577 560.028 947.077C565.289 902.715 564.381 857.899 563.472 813.235" fill="#263238"/>
<path d="M474.976 1015.55C475.165 992.233 474.976 967.706 474.976 967.706C474.976 967.706 444.998 962.369 439.244 923.117C433.756 885.682 443.067 805.21 443.067 805.21C486.483 788.102 535.349 794.726 565.743 829.662L561.012 1018.92C560.482 1040.87 541.14 1057.91 517.634 1057.15C493.864 1056.39 474.787 1037.77 474.976 1015.55Z" fill="#FFBE9D"/>
<path d="M451.206 867.021C451.092 869.671 453.212 871.98 455.975 872.131C458.738 872.321 461.085 870.314 461.198 867.665C461.312 865.015 459.192 862.706 456.429 862.555C453.666 862.366 451.319 864.372 451.206 867.021Z" fill="#263238"/>
<path d="M443.106 863.161C443.711 863.842 447.572 861.041 452.947 861.117C463.129 862.593 462.94 864.145 462.864 863.274C463.167 862.971 462.523 861.798 460.82 860.511C459.117 859.224 456.24 857.975 452.871 857.975C449.503 857.975 446.664 859.148 444.998 860.397C443.333 861.646 442.727 862.82 443.03 863.123L443.106 863.161Z" fill="#263238"/>
<path d="M506.506 868.611C506.393 871.261 508.512 873.57 511.276 873.721C514.039 873.91 516.385 871.904 516.499 869.255C516.613 866.605 514.493 864.296 511.73 864.145C508.967 863.955 506.62 865.962 506.506 868.611Z" fill="#263238"/>
<path d="M499.504 865.015C500.11 865.697 503.971 862.896 509.345 862.971C514.758 862.971 518.695 865.81 519.262 865.129C519.565 864.826 518.922 863.653 517.218 862.366C515.515 861.079 512.638 859.83 509.27 859.83C505.901 859.83 503.062 861.003 501.397 862.252C499.731 863.501 499.163 864.675 499.428 864.977L499.504 865.015Z" fill="#263238"/>
<path d="M479.404 903.775C479.404 903.472 476.073 902.867 470.661 902.072C469.298 901.92 467.973 901.617 467.746 900.671C467.443 899.687 468.011 898.173 468.73 896.583C470.055 893.252 471.455 889.77 472.932 886.136C478.761 871.223 483 858.997 482.432 858.77C481.827 858.543 476.603 870.428 470.774 885.341C469.374 889.013 468.011 892.533 466.724 895.864C466.194 897.416 465.248 899.195 465.929 901.277C466.27 902.299 467.292 903.056 468.162 903.321C469.033 903.586 469.828 903.624 470.509 903.661C475.998 904.002 479.366 904.078 479.404 903.775Z" fill="#263238"/>
<path d="M474.938 967.706C474.938 967.706 501.283 969.712 527.552 954.306C527.552 954.306 514.531 981.067 475.355 976.941L474.938 967.706Z" fill="#EB996E"/>
<path d="M481.562 916.834C483.531 914.298 486.975 912.897 490.344 913.313C492.691 913.578 495.037 914.752 496.438 916.682C497.838 918.613 498.103 921.338 496.778 923.117C495.302 925.161 492.236 925.577 489.662 924.82C487.089 924.063 484.893 922.322 482.811 920.619C482.244 920.127 481.638 919.635 481.297 918.991C480.957 918.348 480.881 917.515 481.297 916.985" fill="#EB996E"/>
<path d="M495.264 907.711C494.394 907.636 494.318 913.503 489.246 917.628C484.174 921.754 477.928 921.035 477.891 921.83C477.815 922.208 479.253 923.003 481.903 923.079C484.477 923.193 488.3 922.398 491.366 919.9C494.469 917.363 495.832 913.995 496.059 911.572C496.324 909.112 495.681 907.674 495.264 907.674V907.711Z" fill="#263238"/>
<path d="M548.711 801.728C534.365 822.168 496.438 843.175 469.261 848.058C472.441 843.894 489.133 833.599 492.312 829.435C480.011 838.633 462.372 850.935 446.02 851.767C444.09 851.881 442.008 851.843 440.418 850.897C438.261 849.572 437.807 846.998 437.579 844.727C436.52 835.151 437.201 818.723 438.715 809.223C440.229 799.722 444.62 790.259 452.834 783.9C463.318 775.8 478.27 773.832 492.388 773.491C504.236 773.188 516.424 773.907 527.249 778.185C538.075 782.462 547.31 790.903 548.9 801.047" fill="#263238"/>
<path d="M589.817 893.29C591.786 883.146 593.375 873.532 593.716 867.097C594.89 846.885 589.023 772.28 519.338 778.298L516.537 799.533C516.537 799.533 505.75 872.169 550.831 872.737C550.831 872.737 553.329 894.388 573.731 915.433C573.731 915.433 585.54 915.093 589.78 893.328" fill="#263238"/>
<path d="M550.868 872.699C555.07 871.942 559.498 872.093 563.473 873.645C567.447 875.197 570.929 878.188 572.595 882.124C574.26 886.061 574.071 890.641 572.595 894.653C571.081 898.665 568.431 902.147 565.327 905.1C563.132 907.219 560.596 909.188 557.681 910.058C554.729 910.929 551.285 910.626 548.976 908.62" fill="#FFBE9D"/>
<path d="M552.874 898.135C552.382 898.287 554.199 900.823 558.022 899.838C559.876 899.384 561.693 897.757 562.791 895.751C563.927 893.707 564.646 891.473 564.949 888.824C565.251 886.212 564.684 883.411 563.245 881.443C561.883 879.399 559.649 878.188 557.795 878.112C553.858 877.96 552.609 880.686 553.063 880.761C553.366 881.102 554.918 879.702 557.492 880.345C559.952 880.837 562.337 884.244 561.769 888.483C561.239 892.798 559.536 896.697 557.227 897.681C554.842 898.854 553.101 897.757 552.836 898.097L552.874 898.135Z" fill="#EB996E"/>
<path d="M558.439 794.044C563.776 797.072 570.324 797.943 576.229 796.391C582.171 794.839 587.433 790.865 590.574 785.603C592.618 782.197 593.754 778.071 592.77 774.248C591.407 768.987 586.297 765.466 581.074 764.104C573.466 762.136 564.835 764.028 559.082 769.365C553.329 774.74 550.868 783.484 553.404 790.94C555.94 798.359 563.624 803.848 571.497 803.431" fill="#263238"/>
<path d="M564.797 907.03C560.936 909.831 557 912.67 553.971 916.379C550.943 920.089 548.862 924.782 549.316 929.552C549.543 932.201 550.565 934.851 550.186 937.5C549.656 941.134 546.666 943.822 544.698 946.963C539.588 954.988 541.783 966.267 548.256 973.27C554.691 980.272 564.494 983.414 573.995 983.755C579.521 983.944 585.312 983.149 589.817 980.007C596.327 975.427 598.825 966.911 599.014 958.924" fill="#263238"/>
<path d="M569.529 809.677C569.718 809.79 568.355 812.629 565.403 816.831C562.489 820.994 557.909 826.445 551.966 831.517C546.023 836.589 540.005 840.336 535.425 842.57C530.845 844.841 527.817 845.787 527.741 845.56C527.438 844.992 539.096 840.071 550.679 830.003C562.375 820.048 568.961 809.298 569.491 809.677H569.529Z" fill="#455A64"/>
<path d="M576.759 809.298C576.986 809.298 576.834 813.046 575.472 818.837C574.109 824.666 571.308 832.539 566.615 840.374C561.883 848.209 556.243 854.379 551.739 858.278C547.235 862.214 544.017 864.069 543.904 863.88C543.45 863.388 555.751 854.833 564.949 839.352C574.336 823.985 576.115 809.109 576.759 809.298Z" fill="#455A64"/>
<path d="M425.467 840.866C426.035 840.828 426.792 847.377 429.063 855.136C431.258 862.896 434.135 868.838 433.643 869.103C433.227 869.368 429.479 863.69 427.17 855.666C424.824 847.679 424.975 840.866 425.467 840.866Z" fill="#455A64"/>
<path d="M592.391 974.746C592.504 974.519 594.132 976.525 598.144 976.601C600.075 976.601 602.535 976.071 604.806 974.481C607.077 972.967 608.932 970.204 609.84 966.835C610.749 963.466 610.787 959.492 609.916 955.442C609.083 951.316 607.494 947.077 606.093 942.459C604.73 937.841 603.519 932.655 604.428 927.205C605.298 921.641 608.894 917.174 610.635 912.178C612.414 907.219 611.695 901.693 609.5 897.227C607.266 892.722 603.481 889.429 599.128 887.726C596.971 886.818 594.7 886.023 592.618 884.887C590.536 883.789 588.606 882.238 587.432 880.231C585.01 876.257 585.086 871.904 585.086 868.308C585.161 864.637 585.351 861.419 584.707 858.694C584.102 855.931 583.08 853.698 581.868 852.184C579.332 849.08 576.645 849.269 576.758 849.042C576.758 849.042 577.326 848.928 578.424 849.156C579.484 849.383 581.036 850.102 582.474 851.692C583.874 853.244 585.086 855.59 585.805 858.467C586.6 861.344 586.486 864.788 586.524 868.346C586.6 871.904 586.675 875.992 588.833 879.361C590.953 882.843 595.343 884.282 599.848 886.061C604.465 887.764 608.856 891.473 611.241 896.356C613.663 901.201 614.496 907.257 612.49 912.821C610.522 918.234 607.077 922.587 606.32 927.508C605.487 932.428 606.547 937.387 607.834 941.929C609.159 946.471 610.711 950.824 611.506 955.101C612.339 959.378 612.263 963.58 611.165 967.214C610.105 970.809 607.986 973.762 605.374 975.389C602.8 977.017 600.15 977.471 598.069 977.358C595.949 977.244 594.435 976.487 593.526 975.882C592.618 975.276 592.315 974.746 592.315 974.746H592.391Z" fill="#455A64"/>
<path d="M565.062 972.096C565.062 972.096 565.555 973.308 567.409 974.14C569.075 974.935 572.746 974.973 574.752 972.134C576.796 969.258 576.494 964.45 574.147 960.287C571.989 956.01 567.712 951.808 566.614 945.563C566.047 942.535 566.766 939.09 568.734 936.819C570.589 934.548 572.746 932.996 574.185 931.141C577.024 927.356 577.288 922.625 576.834 919.067C576.342 915.395 575.282 912.481 574.677 910.475C573.995 908.469 573.655 907.333 573.806 907.257C573.92 907.219 574.487 908.241 575.396 910.172C576.266 912.102 577.516 914.979 578.235 918.84C578.878 922.587 578.878 927.773 575.661 932.239C574.033 934.397 571.838 936.024 570.286 937.992C568.658 939.923 568.128 942.535 568.621 945.222C569.529 950.673 573.541 954.798 575.812 959.416C578.273 963.958 578.575 969.523 575.926 972.929C574.639 974.67 572.708 975.389 571.119 975.541C569.491 975.692 568.091 975.352 567.106 974.784C565.063 973.535 565.062 971.983 565.138 972.059L565.062 972.096Z" fill="#455A64"/>
<path d="M416.723 962.217C416.723 962.217 415.512 961.233 413.657 959.151C411.841 957.032 409.078 953.928 407.071 949.196C406.049 946.85 405.406 944.011 405.482 940.945C405.557 937.917 406.466 934.472 408.813 931.785C411.159 929.06 414.566 927.659 416.61 925.123C418.73 922.587 418.995 918.915 418.162 915.395C417.329 911.799 415.701 908.582 413.998 905.402C412.371 902.185 410.857 898.93 410.327 895.485C409.721 892.079 410.478 888.483 412.295 885.947C414.036 883.373 416.231 881.594 418.048 879.929C421.871 876.787 424.029 873.38 424.521 870.693C425.051 868.043 424.142 866.567 424.369 866.529C424.407 866.529 424.672 866.832 424.937 867.513C425.202 868.195 425.467 869.368 425.278 870.806C425.013 873.721 422.78 877.62 418.995 880.951C417.216 882.692 415.134 884.471 413.657 886.818C412.143 889.126 411.576 892.117 412.143 895.183C412.673 898.286 414.112 901.39 415.739 904.532C417.405 907.636 419.222 911.118 420.092 914.979C421.001 918.764 420.736 923.268 418.086 926.372C415.512 929.4 412.143 930.725 410.137 933.034C408.093 935.305 407.185 938.295 407.071 941.058C406.92 943.859 407.45 946.471 408.32 948.742C410.062 953.284 412.598 956.502 414.225 958.735C415.891 960.968 416.837 962.217 416.723 962.293V962.217Z" fill="#455A64"/>
<path d="M574.563 799.003C574.033 799.268 571.384 793.476 565.328 788.972C559.347 784.354 553.064 783.408 553.177 782.802C553.102 782.31 560.028 782.424 566.539 787.382C573.087 792.265 575.093 798.927 574.563 798.965V799.003Z" fill="#278DB4"/>
<path d="M580.014 762.741C580.203 762.628 581.49 764.104 582.512 767.018C583.534 769.933 584.139 774.362 582.852 779.017C581.566 783.673 578.765 787.193 576.418 789.161C574.033 791.168 572.178 791.773 572.065 791.584C571.913 791.319 573.465 790.297 575.434 788.177C577.44 786.095 579.787 782.727 580.96 778.525C582.133 774.324 581.831 770.236 581.187 767.435C580.581 764.596 579.787 762.893 580.052 762.779L580.014 762.741Z" fill="#455A64"/>
<path opacity="0.3" d="M387.805 1228.39C387.805 1228.39 481.827 1317.68 537.733 1301.52C593.64 1285.35 610.181 1243.41 610.181 1243.41L611.543 1228.39L605.941 1224.72L390.719 1207.3L387.805 1228.39Z" fill="black"/>
<path d="M332.163 1144.74L350.294 1098.22L415.284 1139.06L357.372 1228.39C357.372 1228.39 333.829 1197.77 332.163 1144.74Z" fill="#EB996E"/>
<path d="M405.519 1016.23C435.762 1000.45 474.938 995.867 474.938 995.867C486.293 1018.62 522.138 1021.49 543.827 1005.97L562.109 993.596C562.109 993.596 564.948 993.482 569.755 993.899C612.527 997.684 647.577 1029.63 656.283 1071.72C659.463 1087.05 661.809 1104.61 660.863 1120.89C658.478 1162.22 615.669 1165.97 615.669 1165.97C615.669 1165.97 613.473 1206.85 610.559 1239.86C608.401 1264.54 595.608 1282.97 573.124 1293.26C556.356 1300.95 547.12 1304.51 525.394 1307.99C470.547 1316.77 417.858 1295.95 383.149 1258.74C389.659 1219.34 395.867 1168.36 395.412 1166.08C395.337 1165.59 395.488 1165.33 395.488 1165.33L353.057 1127.67L328.983 1107.45C328.983 1107.45 381.786 1029.1 405.519 1016.19" fill="#278DB4"/>
<path d="M458.133 1041.74C457.981 1042.12 454.499 1038.83 447.648 1038.83C444.317 1038.83 440.191 1039.81 436.822 1042.58C435.157 1043.94 433.719 1045.83 432.015 1047.76C430.35 1049.62 428.192 1051.77 425.164 1052.3C422.098 1052.87 419.297 1051.55 417.178 1050.15C414.982 1048.75 413.128 1047.23 411.235 1046.13C407.488 1043.82 403.248 1044.05 400.145 1045.15C396.965 1046.25 394.883 1048.14 393.71 1049.62C392.536 1051.09 392.082 1052.08 391.931 1052.04C391.855 1052.04 392.044 1050.9 393.104 1049.16C394.164 1047.5 396.284 1045.26 399.69 1043.86C402.983 1042.46 407.866 1042.05 412.181 1044.54C414.301 1045.72 416.193 1047.23 418.275 1048.52C420.319 1049.8 422.59 1050.79 424.899 1050.37C427.208 1049.96 429.063 1048.25 430.69 1046.47C432.356 1044.66 433.87 1042.69 435.8 1041.17C439.661 1038.15 444.203 1037.28 447.799 1037.43C451.433 1037.58 454.196 1038.71 455.899 1039.74C457.603 1040.8 458.322 1041.67 458.246 1041.7L458.133 1041.74Z" fill="#FAFAFA"/>
<path d="M501.245 1098.22C500.98 1098.52 498.747 1094.32 492.236 1092.12C489.094 1091.06 484.893 1090.68 480.767 1092.24C478.723 1092.99 476.755 1094.32 474.56 1095.61C472.402 1096.85 469.677 1098.18 466.611 1097.72C463.545 1097.31 461.274 1095.11 459.722 1093.14C458.094 1091.14 456.807 1089.09 455.369 1087.43C452.568 1084.06 448.442 1082.89 445.149 1082.96C441.78 1083 439.207 1084.14 437.617 1085.12C436.027 1086.14 435.27 1086.94 435.156 1086.82C435.081 1086.79 435.611 1085.76 437.163 1084.48C438.714 1083.23 441.44 1081.79 445.073 1081.56C448.631 1081.3 453.401 1082.43 456.694 1086.22C458.321 1088 459.646 1090.04 461.198 1091.93C462.712 1093.79 464.567 1095.49 466.876 1095.79C469.185 1096.13 471.494 1095.11 473.613 1093.94C475.771 1092.77 477.815 1091.37 480.162 1090.57C484.817 1088.94 489.359 1089.55 492.69 1090.87C496.059 1092.2 498.368 1094.13 499.617 1095.64C500.904 1097.19 501.32 1098.22 501.207 1098.29L501.245 1098.22Z" fill="#FAFAFA"/>
<path d="M597.047 1015.47C596.971 1015.89 592.883 1013.39 586.183 1014.87C582.928 1015.59 579.105 1017.4 576.418 1020.81C575.055 1022.48 574.071 1024.67 572.822 1026.91C571.611 1029.06 569.945 1031.64 567.068 1032.81C564.192 1034.02 561.164 1033.3 558.817 1032.39C556.394 1031.49 554.237 1030.39 552.155 1029.74C548.029 1028.31 543.904 1029.4 541.103 1031.14C538.264 1032.89 536.598 1035.19 535.728 1036.86C534.895 1038.56 534.668 1039.62 534.479 1039.59C534.403 1039.59 534.327 1038.45 535.008 1036.56C535.69 1034.7 537.28 1032.05 540.308 1029.97C543.222 1027.93 547.916 1026.45 552.647 1028C554.956 1028.68 557.151 1029.78 559.423 1030.58C561.694 1031.41 564.116 1031.9 566.274 1030.96C568.431 1030.08 569.907 1028 571.081 1025.92C572.33 1023.8 573.39 1021.57 574.942 1019.68C578.083 1015.89 582.323 1014.07 585.843 1013.51C589.401 1012.9 592.391 1013.39 594.246 1014.04C596.138 1014.72 597.009 1015.4 596.971 1015.47H597.047Z" fill="#FAFAFA"/>
<path d="M552.836 1077.59C552.571 1077.85 550.944 1074.56 546.023 1072.71C543.639 1071.8 540.459 1071.38 537.317 1072.44C535.765 1072.93 534.214 1073.92 532.435 1074.82C530.693 1075.7 528.536 1076.68 526.076 1076.23C523.615 1075.77 521.95 1073.95 520.776 1072.36C519.603 1070.74 518.695 1069.11 517.635 1067.82C515.629 1065.17 512.601 1064.15 510.064 1064.04C504.841 1063.89 502.419 1066.84 502.229 1066.5C502.154 1066.42 502.57 1065.66 503.819 1064.68C505.068 1063.73 507.226 1062.67 510.064 1062.64C512.865 1062.52 516.575 1063.58 518.997 1066.65C520.209 1068.09 521.155 1069.71 522.29 1071.19C523.388 1072.67 524.713 1073.95 526.416 1074.26C529.899 1074.86 533.078 1071.72 536.712 1070.7C540.421 1069.6 543.941 1070.28 546.477 1071.42C551.739 1073.84 552.95 1077.63 552.761 1077.59H552.836Z" fill="#FAFAFA"/>
<path d="M455.37 1129.9C455.105 1130.16 453.477 1126.87 448.556 1125.02C446.172 1124.11 442.992 1123.69 439.851 1124.75C438.299 1125.24 436.747 1126.23 434.968 1127.14C433.227 1128.01 431.069 1128.99 428.609 1128.54C426.148 1128.08 424.483 1126.26 423.31 1124.67C422.136 1123.05 421.228 1121.42 420.168 1120.13C418.162 1117.48 415.134 1116.46 412.598 1116.35C407.374 1116.2 404.914 1119.15 404.762 1118.81C404.687 1118.73 405.103 1117.98 406.352 1116.99C407.601 1116.04 409.759 1114.98 412.598 1114.95C415.399 1114.83 419.108 1115.89 421.531 1118.96C422.742 1120.4 423.688 1122.03 424.824 1123.5C425.921 1124.98 427.246 1126.26 428.949 1126.57C432.432 1127.17 435.611 1124.03 439.245 1123.01C442.954 1121.91 446.475 1122.59 449.011 1123.73C454.272 1126.15 455.483 1129.94 455.294 1129.9H455.37Z" fill="#FAFAFA"/>
<path d="M546.477 1131.07C546.288 1131.41 543.714 1128.84 538.453 1128.65C535.917 1128.57 532.775 1129.22 530.126 1131.22C528.801 1132.21 527.665 1133.61 526.265 1135.05C524.902 1136.45 523.161 1138.07 520.701 1138.41C518.24 1138.76 516.045 1137.62 514.455 1136.48C512.79 1135.31 511.427 1134.1 509.989 1133.19C507.226 1131.34 504.008 1131.34 501.624 1132.06C496.627 1133.61 495.265 1137.2 495 1136.94C494.886 1136.94 495.038 1136.03 495.908 1134.71C496.779 1133.42 498.482 1131.72 501.17 1130.73C503.781 1129.71 507.642 1129.52 510.935 1131.64C512.563 1132.62 514.001 1133.83 515.515 1134.89C517.029 1135.95 518.695 1136.75 520.398 1136.48C523.88 1135.92 525.886 1131.94 528.99 1129.78C532.132 1127.55 535.69 1127.02 538.491 1127.29C544.244 1127.89 546.629 1131.07 546.402 1131.07H546.477Z" fill="#FAFAFA"/>
<path d="M516.386 1172.67C516.196 1173.01 513.622 1170.44 508.361 1170.25C505.825 1170.17 502.683 1170.82 500.034 1172.82C498.709 1173.81 497.574 1175.21 496.173 1176.64C494.81 1178.05 493.069 1179.67 490.609 1180.01C488.149 1180.35 485.953 1179.22 484.363 1178.08C482.698 1176.91 481.335 1175.7 479.897 1174.79C477.134 1172.94 473.917 1172.94 471.532 1173.65C466.536 1175.21 465.173 1178.8 464.908 1178.54C464.794 1178.54 464.946 1177.63 465.816 1176.3C466.687 1175.02 468.39 1173.31 471.078 1172.33C473.689 1171.31 477.55 1171.12 480.843 1173.24C482.471 1174.22 483.909 1175.43 485.423 1176.49C486.937 1177.55 488.603 1178.35 490.306 1178.08C493.788 1177.55 495.795 1173.54 498.898 1171.38C502.04 1169.15 505.598 1168.62 508.399 1168.89C514.152 1169.49 516.537 1172.67 516.31 1172.67H516.386Z" fill="#FAFAFA"/>
<path d="M452.795 1275.85C452.53 1276.12 450.865 1272.86 445.944 1271.08C443.559 1270.21 440.38 1269.83 437.238 1270.93C435.686 1271.46 434.134 1272.45 432.393 1273.39C430.69 1274.3 428.494 1275.28 426.072 1274.87C423.612 1274.45 421.908 1272.64 420.735 1271.08C419.524 1269.46 418.577 1267.87 417.518 1266.58C415.474 1263.97 412.408 1262.98 409.909 1262.91C404.648 1262.83 402.301 1265.82 402.112 1265.48C402.036 1265.41 402.453 1264.65 403.664 1263.66C404.875 1262.72 407.033 1261.62 409.909 1261.51C412.673 1261.36 416.42 1262.38 418.918 1265.41C420.167 1266.84 421.151 1268.43 422.287 1269.91C423.422 1271.39 424.747 1272.64 426.45 1272.94C429.933 1273.51 433.074 1270.33 436.708 1269.23C440.38 1268.06 443.938 1268.7 446.512 1269.8C451.811 1272.14 453.06 1275.89 452.871 1275.85H452.795Z" fill="#FAFAFA"/>
<path d="M527.21 1297.81C527.021 1298.15 524.485 1295.54 519.224 1295.27C516.688 1295.16 513.508 1295.72 510.859 1297.73C509.534 1298.68 508.36 1300.08 506.96 1301.52C505.597 1302.88 503.818 1304.47 501.358 1304.81C498.898 1305.15 496.702 1303.94 495.15 1302.76C493.523 1301.59 492.16 1300.34 490.76 1299.4C488.034 1297.5 484.817 1297.47 482.395 1298.15C477.36 1299.62 475.998 1303.22 475.695 1302.92C475.581 1302.92 475.771 1302.01 476.641 1300.72C477.512 1299.43 479.253 1297.77 481.94 1296.82C484.552 1295.84 488.413 1295.72 491.706 1297.84C493.296 1298.83 494.734 1300.08 496.248 1301.14C497.762 1302.2 499.428 1303.03 501.131 1302.8C504.613 1302.31 506.695 1298.34 509.837 1296.22C513.016 1294.02 516.574 1293.57 519.337 1293.87C525.091 1294.55 527.4 1297.77 527.21 1297.77V1297.81Z" fill="#FAFAFA"/>
<path d="M282.086 984.777C284.395 987.502 367.592 1098.75 367.592 1098.75L355.858 1105.37L270.466 995.526L282.048 984.777H282.086Z" fill="#263238"/>
<path d="M606.888 1064.15C606.888 1064.15 528.839 1198.75 523.54 1201.25C513.13 1206.13 393.369 1102.61 381.938 1092.73C380.348 1090.61 377.131 1086.18 370.734 1077.36C370.734 1077.36 361.271 1034.13 351.203 1037.43C341.134 1040.76 356.729 1059.42 350.143 1075.85C343.557 1092.27 313.503 1053.1 312.292 1049.58L304.532 1039.43C304.532 1039.43 296.394 1062.49 296.962 1072.14C298.741 1102.99 327.924 1139.66 327.924 1139.66C327.924 1139.66 446.512 1288.27 536.295 1293.34C562.148 1294.78 611.544 1220.32 642.279 1165.33C660.826 1132.09 652.234 1098.33 621.461 1075.92L606.812 1064.19L606.888 1064.15Z" fill="#FFBE9D"/>
<path d="M311.761 1077.59C311.496 1077.74 308.203 1073.05 305.099 1066.69C301.958 1060.37 300.179 1054.88 300.482 1054.76C300.784 1054.65 303.055 1059.87 306.159 1066.16C309.263 1072.44 312.064 1077.4 311.761 1077.59Z" fill="#EB996E"/>
<path d="M603.216 1026.72C600.15 1028.57 527.552 1163.32 527.552 1163.32L620.969 1236.53C620.969 1236.53 645.269 1176.64 658.101 1127.97C661.583 1114.76 659.804 1079.44 654.883 1065.82C647.919 1046.47 637.396 1051.28 621.612 1039.96L603.216 1026.72Z" fill="#278DB4"/>
<g opacity="0.7">
<path d="M633.913 1026.72C633.913 1026.72 633.005 1026.19 631.264 1025.32C629.56 1024.44 626.721 1023.35 623.05 1023.57C619.378 1023.69 615.025 1025.5 610.862 1028.65C606.66 1031.83 602.572 1036.33 598.711 1041.74C594.775 1047.12 591.52 1053.7 587.507 1060.52C583.609 1067.41 579.407 1074.71 575.017 1082.43C566.197 1097.88 556.469 1114.8 546.287 1132.59C540.08 1143.37 534.062 1153.86 528.384 1163.74L528.157 1162.53C553.479 1182.51 575.509 1199.92 591.368 1212.49C599.052 1218.66 605.26 1223.66 609.726 1227.21C611.732 1228.88 613.36 1230.2 614.571 1231.23C615.669 1232.17 616.237 1232.66 616.199 1232.7C616.199 1232.74 615.555 1232.32 614.382 1231.49C613.095 1230.54 611.429 1229.3 609.31 1227.74C604.768 1224.3 598.446 1219.45 590.611 1213.47C574.638 1201.06 552.457 1183.84 526.983 1164.08L526.34 1163.59L526.756 1162.87C532.396 1152.99 538.414 1142.5 544.622 1131.72C554.842 1113.96 564.57 1097.04 573.465 1081.64C577.893 1073.95 582.133 1066.65 586.107 1059.8C590.119 1053.02 593.526 1046.4 597.614 1040.99C601.626 1035.54 605.865 1030.99 610.256 1027.81C614.609 1024.63 619.189 1022.85 623.088 1022.85C626.948 1022.74 629.825 1023.99 631.528 1025.01C632.437 1025.47 633.005 1026 633.421 1026.26C633.837 1026.56 634.027 1026.72 634.027 1026.75L633.913 1026.72Z" fill="black"/>
</g>
<path d="M606.017 1153.06C605.752 1153.33 604.125 1150.04 599.204 1148.18C596.819 1147.27 593.64 1146.86 590.498 1147.92C588.946 1148.41 587.394 1149.39 585.615 1150.3C583.874 1151.17 581.717 1152.15 579.256 1151.7C576.796 1151.25 575.13 1149.43 573.957 1147.84C572.784 1146.21 571.875 1144.58 570.815 1143.3C568.809 1140.65 565.781 1139.63 563.245 1139.51C558.022 1139.36 555.599 1142.31 555.41 1141.97C555.334 1141.9 555.751 1141.14 557 1140.16C558.249 1139.21 560.406 1138.15 563.245 1138.11C566.046 1138 569.756 1139.06 572.178 1142.12C573.389 1143.56 574.336 1145.19 575.471 1146.67C576.569 1148.14 577.894 1149.43 579.597 1149.73C583.079 1150.34 586.259 1147.2 589.892 1146.17C593.602 1145.08 597.122 1145.76 599.658 1146.89C604.919 1149.32 606.131 1153.1 605.941 1153.06H606.017Z" fill="#FAFAFA"/>
<path d="M648.714 1135.61C648.373 1135.8 647.692 1132.21 643.49 1129.1C641.446 1127.59 638.494 1126.34 635.163 1126.49C633.535 1126.57 631.756 1127.06 629.826 1127.48C627.933 1127.85 625.549 1128.19 623.315 1127.1C621.082 1126 619.947 1123.8 619.265 1121.95C618.546 1120.06 618.13 1118.24 617.449 1116.73C616.237 1113.62 613.588 1111.81 611.203 1111.05C606.207 1109.5 603.065 1111.69 602.989 1111.31C602.914 1111.24 603.557 1110.59 604.996 1109.99C606.434 1109.42 608.781 1109 611.582 1109.69C614.307 1110.33 617.6 1112.37 619.114 1115.97C619.909 1117.67 620.363 1119.53 621.044 1121.23C621.688 1122.97 622.634 1124.56 624.186 1125.32C627.366 1126.83 631.302 1124.67 635.087 1124.67C638.948 1124.6 642.165 1126.23 644.323 1128.01C648.752 1131.75 648.865 1135.73 648.714 1135.61Z" fill="#FAFAFA"/>
<path d="M650.909 1079.93C650.568 1080.12 649.887 1076.53 645.686 1073.42C643.642 1071.91 640.689 1070.66 637.358 1070.81C635.731 1070.89 633.952 1071.38 632.021 1071.8C630.129 1072.18 627.744 1072.52 625.511 1071.42C623.278 1070.32 622.142 1068.13 621.461 1066.27C620.742 1064.38 620.325 1062.56 619.644 1061.05C618.433 1057.94 615.783 1056.13 613.398 1055.37C608.402 1053.82 605.26 1056.01 605.185 1055.63C605.109 1055.56 605.752 1054.91 607.191 1054.31C608.629 1053.74 610.976 1053.33 613.777 1054.01C616.502 1054.65 619.795 1056.69 621.309 1060.29C622.104 1061.99 622.558 1063.85 623.24 1065.55C623.883 1067.29 624.829 1068.88 626.381 1069.64C629.561 1071.15 633.497 1069 637.283 1069C641.143 1068.92 644.361 1070.55 646.518 1072.33C650.947 1076.07 651.06 1080.05 650.909 1079.93Z" fill="#FAFAFA"/>
<path d="M630.242 1207.99C629.901 1208.17 629.22 1204.58 625.019 1201.47C622.975 1199.96 620.022 1198.71 616.691 1198.86C615.064 1198.94 613.285 1199.43 611.354 1199.85C609.462 1200.23 607.077 1200.57 604.844 1199.47C602.611 1198.37 601.475 1196.18 600.794 1194.32C600.075 1192.43 599.658 1190.61 598.977 1189.1C597.766 1185.99 595.116 1184.18 592.731 1183.42C587.735 1181.87 584.593 1184.06 584.518 1183.68C584.442 1183.61 585.085 1182.97 586.524 1182.36C587.962 1181.79 590.309 1181.38 593.11 1182.06C595.835 1182.7 599.128 1184.74 600.642 1188.34C601.437 1190.04 601.891 1191.9 602.573 1193.6C603.216 1195.34 604.162 1196.93 605.714 1197.69C608.894 1199.2 612.83 1197.05 616.616 1197.05C620.476 1196.97 623.694 1198.6 625.851 1200.38C630.28 1204.12 630.393 1208.1 630.242 1207.99Z" fill="#FAFAFA"/>
</g>
<defs>
<clipPath id="clip0_119_5695">
<rect width="1477.49" height="1572" fill="white" transform="translate(161 74)"/>
</clipPath>
</defs>
</svg>
