<svg width="1800" height="1720" viewBox="0 0 1800 1720" fill="none" xmlns="http://www.w3.org/2000/svg">
<g clip-path="url(#clip0_119_6906)">
<path d="M700.313 344.897L75.0645 483.397C49.5149 489.056 33.3907 514.356 39.0502 539.906L169.355 1128.16C175.015 1153.71 200.315 1169.83 225.864 1164.17L851.113 1025.67C876.662 1020.01 892.786 994.713 887.127 969.164L756.822 380.911C751.163 355.361 725.863 339.237 700.313 344.897Z" fill="#EBEBEB"/>
<path d="M643.066 713.541C665.39 813.001 602.774 911.735 503.314 934.059C403.853 956.383 305.12 893.767 282.795 794.307C260.471 694.847 323.088 596.113 422.548 573.789C522.008 551.465 620.742 614.081 643.066 713.541Z" fill="#278DB4"/>
<path d="M451.984 864.188C444.557 864.607 437.74 861.255 434.083 855.313L363.469 757.276C357.756 748.021 361.336 735.49 371.429 729.282C381.523 723.073 394.32 725.511 400.033 734.766L452.479 803.362L533.834 661.181C539.585 651.126 552.421 646.822 562.476 651.583C572.531 656.344 576.035 668.38 570.284 678.435L470.571 852.647C466.838 859.198 459.83 863.578 452.289 864.111C452.175 864.111 452.06 864.111 451.946 864.111L451.984 864.188Z" fill="white"/>
<path d="M242.932 562.277C236.004 537.69 204 540.062 204 540.062L204.866 557.156C223.353 553.956 234.837 575.643 234.837 575.643L242.895 562.277H242.932Z" fill="#E0E0E0"/>
<path d="M780.467 315.43C817.555 326.65 840.635 283.877 840.635 283.877L818.082 271C807.05 297.206 770 294.156 770 294.156L780.467 315.392V315.43Z" fill="#E0E0E0"/>
<path d="M1007.53 597.998C1000.34 577.553 973.422 581.242 973.422 581.242L975.079 595.663C990.554 591.973 1001.4 609.707 1001.4 609.707L1007.53 597.96V597.998Z" fill="#E0E0E0"/>
<path d="M582.179 118.912C574.988 98.4674 548.066 102.157 548.066 102.157L549.723 116.578C565.198 112.888 576.042 130.622 576.042 130.622L582.179 118.875V118.912Z" fill="#E0E0E0"/>
<path d="M260.818 380.632C253.626 360.187 226.705 363.877 226.705 363.877L228.362 378.298C243.837 374.608 254.681 392.342 254.681 392.342L260.818 380.595V380.632Z" fill="#EBEBEB"/>
<path d="M193.307 189.397C171.921 192.899 170.904 220.084 170.904 220.084L185.4 220.987C184.459 205.098 203.812 197.492 203.812 197.492L193.307 189.435V189.397Z" fill="#EBEBEB"/>
<path d="M28.4673 983.392C65.5546 994.612 88.6353 951.839 88.6353 951.839L66.0817 939C55.0497 965.206 18 962.156 18 962.156L28.4673 983.392Z" fill="#EBEBEB"/>
<path d="M1095.87 370.767C1098.39 353.598 1077.91 346.218 1077.91 346.218L1073.73 357.062C1086.08 360.187 1087.21 376.829 1087.21 376.829L1095.9 370.767H1095.87Z" fill="#E0E0E0"/>
<path d="M972.594 182.13C958.135 191.732 966.306 211.913 966.306 211.913L977.187 207.809C971.276 196.513 982.91 184.615 982.91 184.615L972.594 182.168V182.13Z" fill="#EBEBEB"/>
<path d="M1603.12 952.53C1603.12 952.53 1648.83 924.742 1659.11 932.913C1673.98 944.698 1678.91 964.616 1678.91 964.616C1678.91 964.616 1703.05 872.557 1726.09 876.058C1739.3 878.054 1732.83 888.371 1726.88 901.285C1721.38 913.296 1712.01 957.312 1712.01 957.312C1712.01 957.312 1755.68 905.502 1768.52 906.444C1778.46 907.159 1779.89 915.894 1765.59 929.901C1751.32 943.907 1727.59 988.036 1727.59 988.036C1727.59 988.036 1758.21 959.533 1770.82 959.345C1780.91 959.232 1787.42 966.235 1774.36 977.531C1761.33 988.864 1741.56 997.336 1731.06 1017.86C1718.07 1043.12 1690.39 1106.04 1690.39 1106.04L1593.52 1071.74C1593.52 1071.74 1577.74 1007.46 1577.14 991.876C1577.14 991.876 1578.45 958.893 1578.27 953.019C1578.08 947.146 1593.67 945.639 1598.37 956.935C1603.12 968.193 1600.97 980.053 1602.89 987.546C1604.81 995.039 1608.24 1002 1613.7 1005.36C1619.19 1008.71 1633.13 1008.93 1636.7 1004.79C1640.28 1000.65 1644.57 988.563 1645.51 981.145C1646.45 973.728 1645.25 961.98 1645.25 961.98C1645.25 961.98 1605.04 978.321 1603.08 952.53H1603.12Z" fill="#FFBE9D"/>
<path d="M514.82 1252.32L447.498 1227.09C447.498 1227.09 378.971 1186.95 366.283 1201.22C366.283 1201.22 352.728 1194.75 346.703 1209.2C343.202 1217.56 354.723 1229.72 354.723 1229.72C354.723 1229.72 351.146 1233.34 356.832 1245.65C362.517 1257.96 427.542 1296.75 427.542 1296.75C427.542 1296.75 512.109 1342.87 546.297 1364.93L605.298 1284.7L597.09 1281.65C597.09 1281.65 592.233 1241.66 575.854 1231C558.045 1219.41 536.545 1188.01 531.839 1175.69C527.132 1163.38 504.39 1169.07 508.193 1194.6C511.959 1220.12 531.839 1226.75 529.956 1243.77C528.074 1260.79 514.82 1252.28 514.82 1252.28V1252.32Z" fill="#FFBE9D"/>
<path d="M411.653 1261.65C411.389 1262.14 398.286 1255.29 382.359 1246.37C366.433 1237.44 353.781 1229.84 354.045 1229.39C354.309 1228.9 367.412 1235.75 383.338 1244.67C399.228 1253.6 411.916 1261.2 411.653 1261.65Z" fill="#EB996E"/>
<path d="M444.485 1242.75C444.372 1242.98 439.778 1241.13 432.399 1237.93C425.056 1234.73 414.928 1230.14 404.009 1224.57C393.09 1218.99 383.489 1213.38 376.749 1208.98C373.398 1206.76 370.724 1204.91 368.955 1203.52C367.148 1202.16 366.206 1201.33 366.282 1201.22C366.47 1200.96 370.612 1203.71 377.464 1207.77C384.355 1211.84 394.031 1217.22 404.875 1222.8C415.756 1228.37 425.734 1233.15 432.926 1236.65C440.117 1240.15 444.523 1242.49 444.41 1242.71L444.485 1242.75Z" fill="#EB996E"/>
<path d="M458.644 1279.84C458.644 1279.84 456.46 1278.79 452.695 1276.6C448.666 1274.19 443.319 1270.99 436.843 1267.11L436.655 1267L436.542 1266.77C433.568 1260.34 429.878 1252.81 425.133 1244.9C422.724 1241.02 420.088 1236.84 416.586 1233.57C413.085 1230.33 407.512 1229.76 403.333 1232.59C402.429 1233.11 401.337 1234.17 401.224 1234.51C401.337 1234.66 401.3 1234.69 401.375 1234.96L401.639 1235.79C401.789 1236.35 402.015 1236.92 402.241 1237.48C403.069 1239.74 403.935 1241.92 404.801 1244.11C406.571 1248.44 408.303 1252.65 409.96 1256.68C413.311 1264.67 416.361 1272.01 419.071 1278.41L418.959 1278.22C424.493 1284.7 429.049 1290.04 432.476 1294.07C433.906 1295.8 435.111 1297.27 436.09 1298.48C436.881 1299.49 437.295 1300.06 437.257 1300.1C437.22 1300.13 436.693 1299.68 435.789 1298.74C434.735 1297.61 433.417 1296.26 431.873 1294.6C428.334 1290.68 423.59 1285.49 417.829 1279.16L417.754 1279.09V1278.97C414.892 1272.69 411.692 1265.42 408.265 1257.36C406.571 1253.33 404.839 1249.12 403.032 1244.79C402.166 1242.6 401.262 1240.38 400.434 1238.08C400.208 1237.52 400.02 1236.95 399.831 1236.35L399.53 1235.45C399.417 1235.11 399.342 1234.54 399.342 1234.09C399.681 1232.89 400.245 1232.66 400.697 1232.1C401.224 1231.64 401.752 1231.23 402.316 1230.89C404.726 1229.35 407.588 1228.56 410.412 1228.82C413.273 1229.01 415.833 1230.36 417.867 1232.1C421.745 1235.75 424.305 1239.93 426.753 1243.92C431.497 1251.98 435.074 1259.62 437.935 1266.17L437.672 1265.83C443.997 1269.94 449.231 1273.29 453.184 1275.85C456.837 1278.26 458.794 1279.65 458.719 1279.76L458.644 1279.84Z" fill="#EB996E"/>
<path d="M526.116 1280.48C526.041 1280.74 522.878 1279.88 517.833 1278.45C512.787 1277.09 505.784 1275.13 497.952 1274.94C490.121 1274.76 483.117 1276.98 478.75 1279.65C474.344 1282.29 472.387 1285 472.123 1284.73C471.972 1284.66 473.554 1281.57 477.997 1278.48C482.364 1275.36 489.744 1272.8 497.952 1272.99C506.161 1273.21 513.277 1275.43 518.209 1277.13C523.179 1278.9 526.154 1280.25 526.078 1280.48H526.116Z" fill="#EB996E"/>
<path d="M521.07 1262.71C521.522 1263.05 519.828 1265.95 518.209 1269.71C516.552 1273.44 515.535 1276.64 515.008 1276.53C514.481 1276.45 514.669 1272.87 516.439 1268.92C518.171 1264.93 520.694 1262.41 521.07 1262.71Z" fill="#EB996E"/>
<path d="M909.001 942.703C913.632 911 950.569 865.478 983.289 865.441C964.538 838.294 964.274 800.077 982.573 772.628C995.187 753.765 1015.52 739.871 1024.14 718.936C1033.89 695.253 1026.4 668.52 1027.34 642.992C1028.7 605.641 1048.13 571.528 1067.06 539.072C1084.38 509.365 1105.55 476.796 1139.62 469.491C1161.19 464.86 1183.56 471.675 1203.82 480.297C1300.77 521.602 1376.15 608.616 1402.02 709.072C1408.19 733.131 1412.37 759.149 1429.13 777.711C1446.86 797.403 1477.96 808.059 1483.31 833.813C1487.11 852.263 1475.29 870.825 1477.06 889.613C1478.56 905.314 1507.97 951.137 1514.79 965.445C1526.46 990.107 1522.24 1016.73 1510.34 1041.31C1498.44 1065.86 1468.13 1089.81 1441.25 1096.47L1140.79 996.357C1112.51 1012.43 1084.35 1074.71 1051.89 1078.51C1019.43 1082.35 979.825 1096.47 948.611 1062.29C915.891 1026.48 904.332 974.293 909.001 942.59V942.703Z" fill="#263238"/>
<path d="M1407.21 643.858C1403.86 669.01 1410.75 710.577 1424.5 732.039C1433.72 746.46 1449.12 755.835 1464.29 764.081C1479.47 772.327 1495.39 780.234 1506.88 792.998C1518.4 805.724 1524.57 824.852 1516.86 840.101C1543.93 850.191 1556.05 884.681 1546.15 911.338C1536.21 937.996 1508.99 955.956 1480.56 961.265L1356.65 923.99L1329.42 765.851L1400.96 643.858" fill="#263238"/>
<path d="M1422.43 805.085C1422.43 805.085 1423.29 805.386 1424.84 806.139C1426.38 806.967 1428.79 807.871 1431.61 809.64C1437.37 812.954 1445.28 818.715 1453.34 827.751C1457.44 832.194 1461.21 837.691 1464.9 843.829C1468.29 850.116 1471.75 857.044 1473.93 864.914C1478.75 880.389 1479.81 899.215 1474.27 917.702L1473.82 916.572C1480.94 920.564 1487.83 925.722 1494 931.897C1509.82 947.598 1518.85 968.005 1521.04 987.057C1523.15 1006.3 1518.55 1023.73 1512.15 1036.65C1505.71 1049.71 1497.73 1058.56 1491.78 1064.02C1488.77 1066.69 1486.32 1068.69 1484.55 1069.89C1482.82 1071.13 1481.88 1071.74 1481.84 1071.7C1481.8 1071.66 1482.63 1070.91 1484.29 1069.59C1485.98 1068.31 1488.32 1066.24 1491.22 1063.49C1496.94 1057.92 1504.66 1048.99 1510.83 1036.04C1516.97 1023.2 1521.34 1006.07 1519.15 987.245C1516.93 968.57 1508.05 948.614 1492.53 933.252C1486.51 927.228 1479.77 922.145 1472.8 918.229L1472.13 917.853L1472.35 917.1C1477.81 899.064 1476.87 880.652 1472.24 865.403C1470.13 857.685 1466.82 850.794 1463.54 844.582C1459.96 838.52 1456.31 833.06 1452.32 828.617C1444.53 819.581 1436.81 813.745 1431.2 810.243C1428.49 808.398 1426.12 807.381 1424.65 806.44C1423.14 805.574 1422.35 805.122 1422.39 805.047L1422.43 805.085Z" fill="#455A64"/>
<path d="M1055.81 968.871C1055.81 968.871 1000.42 985.702 981.028 1013.94C967.285 1033.9 826.692 1338.39 826.692 1338.39L613.28 1274.23L536.959 1375.02L774.431 1506.66C818.446 1531.05 871.987 1530.83 915.815 1506.02C940.1 1492.27 959.905 1471.79 972.82 1447.05L1033.21 1331.39L1055.84 968.909L1055.81 968.871Z" fill="#278DB4"/>
<path d="M999.139 1632L1032.46 1488.36L1007.2 1384.06C990.969 1330.37 977 1242.87 994.696 1172.42L1053.73 969.812L1118.65 939.954L1267.15 914.426C1272.87 916.347 1422.42 958.592 1422.42 958.592C1443.13 963.412 1451.45 966.687 1451.45 966.687L1468.62 1077.61L1417.04 1260.41L1394.6 1442.57L1443.92 1632.04H999.177L999.139 1632Z" fill="#278DB4"/>
<path d="M1084.99 955.467L1128.06 936.189L1322.16 938.9L1368.05 965.558C1368.05 965.558 1207.69 1142.52 1167.44 1148.4C1066.24 1163.12 1084.99 955.504 1084.99 955.504V955.467Z" fill="#FFBE9D"/>
<path d="M1447.24 965.144C1447.24 965.144 1476.3 971.695 1501.23 1024.86C1526.15 1078.02 1566.44 1226 1566.44 1226L1583.65 1069.18L1723.98 1084.61L1696.83 1459.37C1696.83 1459.37 1647.17 1531.39 1564.11 1524.73C1481.05 1518.06 1375.58 1255.52 1375.58 1255.52L1447.24 965.144Z" fill="#278DB4"/>
<path d="M1544.53 1417.46C1544.53 1417.46 1544.49 1417.16 1544.53 1416.55C1544.53 1415.84 1544.6 1414.97 1544.64 1413.88C1544.79 1411.4 1544.98 1407.97 1545.24 1403.68C1545.77 1394.83 1546.83 1382.03 1548.29 1366.21C1551.23 1334.62 1556.58 1291.1 1563.13 1243.17C1569.68 1195.2 1575.25 1151.75 1578.53 1120.23C1580.18 1104.46 1581.43 1091.69 1582.22 1082.88C1582.63 1078.59 1582.97 1075.2 1583.2 1072.72C1583.31 1071.66 1583.42 1070.8 1583.5 1070.08C1583.57 1069.48 1583.65 1069.18 1583.69 1069.18C1583.69 1069.18 1583.72 1069.48 1583.69 1070.08C1583.69 1070.8 1583.61 1071.66 1583.57 1072.75C1583.42 1075.24 1583.23 1078.66 1582.97 1082.96C1582.44 1091.81 1581.39 1104.61 1579.92 1120.42C1576.98 1152.01 1571.64 1195.54 1565.09 1243.51C1558.54 1291.44 1552.96 1334.89 1549.69 1366.44C1548.03 1382.22 1546.79 1394.98 1546 1403.83C1545.58 1408.12 1545.24 1411.51 1545.02 1413.99C1544.9 1415.05 1544.79 1415.91 1544.72 1416.63C1544.64 1417.23 1544.57 1417.53 1544.53 1417.53V1417.46Z" fill="#263238"/>
<path d="M829.139 1419.27C829.139 1419.27 828.461 1418.32 827.595 1416.48C826.691 1414.63 825.562 1411.89 824.319 1408.38C821.834 1401.46 819.274 1391.52 818.182 1380.3C817.128 1369.08 817.73 1358.83 818.822 1351.57C819.349 1347.92 819.951 1345.02 820.479 1343.02C821.006 1341.02 821.345 1339.93 821.458 1339.97C821.759 1340.05 820.93 1344.49 820.215 1351.76C819.5 1358.99 819.085 1369.08 820.14 1380.15C821.232 1391.18 823.528 1401 825.637 1407.97C827.745 1414.94 829.44 1419.15 829.139 1419.27Z" fill="#263238"/>
<path d="M852.747 1422.73C852.747 1422.73 851.768 1421.83 850.262 1419.94C848.756 1418.06 846.723 1415.24 844.389 1411.62C839.72 1404.43 834.11 1393.85 829.78 1381.46C825.487 1369.04 823.304 1357.25 822.513 1348.71C822.099 1344.41 821.91 1340.95 821.948 1338.54C821.948 1336.13 822.023 1334.81 822.136 1334.81C822.475 1334.81 822.701 1340.08 823.868 1348.52C825.036 1356.95 827.37 1368.51 831.625 1380.79C835.917 1393.02 841.264 1403.56 845.594 1410.87C849.924 1418.21 853.011 1422.5 852.747 1422.69V1422.73Z" fill="#263238"/>
<path d="M1018.87 1087.89C1018.87 1087.89 1018.68 1088.94 1018.15 1090.94C1017.55 1093.09 1016.76 1095.95 1015.74 1099.56C1013.56 1107.21 1010.55 1117.97 1006.78 1131.15C999.478 1157.85 989.35 1194.93 984.492 1236.92C982.083 1257.89 981.593 1278.07 983.664 1296.22C985.584 1314.4 989.613 1330.44 993.567 1343.7C997.52 1356.95 1001.29 1367.53 1003.88 1374.84C1005.13 1378.38 1006.1 1381.16 1006.86 1383.27C1007.54 1385.19 1007.84 1386.24 1007.76 1386.24C1007.69 1386.24 1007.27 1385.3 1006.48 1383.42C1005.65 1381.35 1004.56 1378.6 1003.17 1375.14C1000.38 1367.91 996.428 1357.4 992.249 1344.11C988.107 1330.86 983.928 1314.74 981.894 1296.44C979.673 1278.15 980.125 1257.78 982.572 1236.73C987.467 1194.56 997.859 1157.43 1005.5 1130.81C1009.38 1117.48 1012.73 1106.79 1015.07 1099.37C1016.23 1095.83 1017.14 1092.97 1017.81 1090.86C1018.45 1088.94 1018.83 1087.93 1018.91 1087.93L1018.87 1087.89Z" fill="#263238"/>
<path d="M1411.28 1334.81C1411.28 1334.81 1411.09 1334.51 1410.75 1333.91C1410.41 1333.19 1409.96 1332.25 1409.43 1331.12C1408.27 1328.52 1406.61 1324.91 1404.54 1320.35C1402.47 1315.65 1399.79 1309.92 1396.97 1303.22C1394.26 1296.41 1391.17 1288.69 1387.75 1280.18C1384.43 1271.59 1381.23 1262.03 1377.58 1251.86C1376 1246.71 1374.34 1241.36 1372.61 1235.86C1371.78 1233.11 1370.91 1230.33 1370.05 1227.47C1369.26 1224.6 1368.54 1221.7 1367.75 1218.77C1361.43 1195.27 1356.08 1168.92 1354.5 1140.79C1352.77 1112.74 1355.44 1085.59 1362.59 1062.25C1369.3 1038.72 1381.08 1019.4 1393.66 1005.92C1406.23 992.291 1419.3 984.421 1428.67 980.242C1433.42 978.171 1437.18 976.816 1439.78 976.138C1440.99 975.799 1441.96 975.535 1442.75 975.31C1443.43 975.121 1443.77 975.046 1443.77 975.084C1443.77 975.084 1443.43 975.272 1442.79 975.498C1442.04 975.761 1441.06 976.1 1439.89 976.514C1437.33 977.305 1433.61 978.811 1428.97 980.957C1419.79 985.325 1406.95 993.307 1394.64 1006.9C1382.32 1020.38 1370.8 1039.47 1364.25 1062.81C1357.25 1086.01 1354.65 1112.85 1356.38 1140.75C1357.96 1168.69 1363.23 1194.97 1369.45 1218.39C1370.2 1221.33 1370.95 1224.23 1371.71 1227.09C1372.57 1229.91 1373.4 1232.7 1374.23 1235.45C1375.88 1240.95 1377.5 1246.29 1379.09 1251.45C1382.66 1261.62 1385.75 1271.18 1388.99 1279.8C1392.3 1288.35 1395.28 1296.11 1397.91 1302.92C1400.62 1309.7 1403.18 1315.42 1405.14 1320.17C1407.06 1324.8 1408.6 1328.45 1409.7 1331.08C1410.15 1332.25 1410.52 1333.19 1410.83 1333.95C1411.09 1334.59 1411.16 1334.92 1411.16 1334.96L1411.28 1334.81Z" fill="#263238"/>
<g opacity="0.3">
<path d="M1357.81 1165.08C1339.48 1251.86 1339.21 1341.14 1370.8 1424.01C1372.65 1428.83 1379.88 1445.92 1385.04 1446.15C1391.55 1446.49 1394.64 1438.36 1395.77 1431.92C1398.1 1418.7 1399.49 1396.98 1401.83 1383.76C1404.73 1367.23 1408.68 1328.94 1408.68 1328.94C1408.68 1328.94 1393.51 1294.22 1386.84 1275.59C1374.45 1241.02 1363.99 1208.04 1358.23 1167.79" fill="black"/>
</g>
<path d="M1342.83 1501.27C1342.83 1501.27 1342.37 1502.1 1341.36 1503.53C1340.23 1505.11 1338.72 1507.22 1336.84 1509.82C1335.82 1511.21 1334.73 1512.72 1333.53 1514.34C1332.25 1515.96 1330.74 1517.58 1329.2 1519.38C1326.03 1522.96 1322.64 1527.25 1318.2 1531.32C1316.06 1533.43 1313.8 1535.65 1311.46 1537.91C1309.09 1540.17 1306.38 1542.28 1303.71 1544.57C1298.43 1549.32 1292.18 1553.57 1285.71 1558.24C1272.45 1567.01 1257.06 1575.48 1239.96 1582.26C1222.79 1588.81 1205.7 1593.03 1190 1595.52C1182.09 1596.46 1174.6 1597.55 1167.52 1597.62C1163.98 1597.74 1160.59 1598.04 1157.28 1597.96C1154 1597.85 1150.84 1597.77 1147.83 1597.66C1141.8 1597.66 1136.42 1596.8 1131.67 1596.31C1129.3 1596 1127.08 1595.82 1125.08 1595.52C1123.09 1595.1 1121.28 1594.76 1119.59 1594.42C1116.46 1593.78 1113.94 1593.26 1112.02 1592.84C1110.29 1592.47 1109.38 1592.24 1109.42 1592.16C1109.42 1592.09 1110.36 1592.16 1112.09 1592.47C1114.01 1592.77 1116.57 1593.18 1119.7 1593.67C1121.36 1593.93 1123.2 1594.27 1125.2 1594.57C1127.23 1594.84 1129.41 1594.99 1131.79 1595.21C1136.53 1595.59 1141.88 1596.38 1147.86 1596.27C1150.84 1596.31 1154 1596.38 1157.24 1596.46C1160.52 1596.46 1163.87 1596.16 1167.41 1596C1174.45 1595.85 1181.86 1594.69 1189.7 1593.71C1205.28 1591.11 1222.19 1586.89 1239.21 1580.38C1256.15 1573.64 1271.44 1565.32 1284.65 1556.66C1291.09 1552.06 1297.34 1547.89 1302.61 1543.25C1305.29 1541 1308.04 1538.96 1310.41 1536.7C1312.78 1534.44 1315.04 1532.3 1317.19 1530.23C1321.67 1526.24 1325.09 1522.02 1328.29 1518.55C1329.87 1516.78 1331.42 1515.2 1332.7 1513.62C1333.94 1512.04 1335.07 1510.57 1336.12 1509.22C1338.12 1506.73 1339.7 1504.7 1340.91 1503.15C1342.04 1501.8 1342.64 1501.08 1342.68 1501.12L1342.83 1501.27Z" fill="#263238"/>
<path d="M1312.18 1443.85C1312.18 1443.85 1312.14 1445.32 1311.69 1447.96C1311.27 1450.59 1310.41 1454.36 1309.05 1458.95C1306.42 1468.1 1301.41 1480.45 1293.46 1492.72C1285.48 1505 1276.26 1514.6 1268.99 1520.78C1265.34 1523.86 1262.29 1526.2 1260.03 1527.67C1257.81 1529.13 1256.57 1529.93 1256.49 1529.81C1256.3 1529.51 1261.08 1526.12 1268.05 1519.76C1275.01 1513.4 1283.94 1503.76 1291.81 1491.71C1299.64 1479.62 1304.76 1467.54 1307.73 1458.57C1310.71 1449.61 1311.84 1443.81 1312.18 1443.89V1443.85Z" fill="#263238"/>
<path d="M1243.84 445.582C1296.36 445.959 1347.76 475.591 1374.38 520.924C1400.96 566.257 1401.79 625.559 1376.49 671.608C1367.87 687.309 1355.44 702.181 1338.38 707.641C1344.18 617.615 1308.3 525.706 1243.01 463.429" fill="#278DB4"/>
<path d="M1305.33 459.175C1297.53 442.947 1305.89 422.652 1319.79 411.244C1333.68 399.835 1351.83 395.204 1369.34 391.024C1386.84 386.845 1404.99 382.515 1419.19 371.483C1417.15 399.684 1410.11 428.714 1391.89 450.289C1373.63 471.901 1342 483.912 1315.94 472.955" fill="#278DB4"/>
<path d="M1323.4 477.775C1311.43 482.82 1297.12 479.657 1286.43 472.315C1275.73 464.973 1268.01 453.979 1261.73 442.608C1254.01 428.639 1247.91 413.54 1245.87 397.689C1243.84 381.837 1245.99 365.195 1253.82 351.264C1274.41 373.215 1297.12 391.664 1308.9 419.376C1315.83 435.642 1315 461.773 1307.55 477.812" fill="#278DB4"/>
<path d="M1381.8 569.081C1381.8 569.081 1382.29 570.926 1382.81 574.315C1383.12 576.009 1383.42 578.08 1383.6 580.527C1383.83 582.975 1384.17 585.723 1384.21 588.811C1384.55 594.948 1384.43 602.29 1383.83 610.423C1383.12 618.518 1381.8 627.404 1379.69 636.554C1377.47 645.703 1374.64 654.213 1371.63 661.743C1368.51 669.273 1365.31 675.862 1362.26 681.209C1360.83 683.92 1359.28 686.254 1358 688.325C1356.72 690.396 1355.52 692.128 1354.5 693.521C1352.5 696.308 1351.34 697.814 1351.22 697.738C1351.11 697.663 1352.05 696.006 1353.86 693.107C1354.76 691.676 1355.89 689.907 1357.06 687.76C1358.23 685.652 1359.7 683.28 1361.05 680.569C1363.95 675.185 1367 668.596 1369.97 661.103C1372.87 653.572 1375.62 645.138 1377.81 636.102C1379.91 627.028 1381.27 618.292 1382.06 610.273C1382.78 602.253 1383 594.986 1382.85 588.886C1382.85 585.836 1382.63 583.088 1382.55 580.64C1382.48 578.231 1382.29 576.122 1382.1 574.428C1381.8 571.039 1381.68 569.119 1381.84 569.119L1381.8 569.081Z" fill="#263238"/>
<path d="M1370.05 468.098C1370.05 468.098 1368.66 469.378 1365.87 471.412C1362.86 473.068 1358.38 475.478 1352.28 476.683C1340.15 479.432 1322.68 478.867 1304.2 473.934L1303.63 473.784L1303.52 473.219C1303.25 472.089 1302.99 470.885 1302.73 469.68C1300.73 459.89 1300.28 450.289 1301.49 441.666C1302.58 433.044 1305.55 425.551 1309.39 420.205C1313.08 414.67 1317.6 411.62 1320.57 409.549C1323.81 407.817 1325.58 406.914 1325.66 407.027C1325.73 407.139 1324.04 408.269 1321.03 410.189C1318.24 412.411 1313.99 415.574 1310.6 420.995C1307.06 426.267 1304.31 433.534 1303.33 441.93C1302.24 450.289 1302.77 459.739 1304.69 469.303C1304.95 470.508 1305.21 471.675 1305.48 472.805L1304.8 472.089C1322.91 476.946 1340.19 477.737 1352.05 475.403C1358.08 474.386 1362.48 472.24 1365.57 470.809C1368.39 469.002 1370.01 468.023 1370.12 468.136L1370.05 468.098Z" fill="#263238"/>
<path d="M1385.45 419.301C1385.49 419.677 1379.95 420.43 1371.29 422.991C1366.96 424.233 1361.95 426.078 1356.49 428.488C1351.11 430.973 1345.31 434.023 1339.55 437.75C1333.83 441.553 1328.75 445.62 1324.3 449.573C1319.93 453.602 1316.24 457.48 1313.38 460.944C1307.58 467.834 1304.65 472.616 1304.35 472.428C1304.23 472.353 1304.87 471.11 1306.19 468.926C1307.43 466.705 1309.54 463.655 1312.33 460.078C1315.12 456.463 1318.77 452.435 1323.1 448.255C1327.5 444.151 1332.66 439.934 1338.5 436.094C1344.33 432.291 1350.24 429.241 1355.78 426.831C1361.35 424.497 1366.51 422.765 1370.92 421.673C1375.32 420.543 1378.94 419.866 1381.5 419.602C1384.02 419.301 1385.41 419.188 1385.45 419.338V419.301Z" fill="#263238"/>
<path d="M1322.61 477.323C1322.61 477.323 1322.61 477.737 1322.46 478.453C1322.35 479.206 1322.01 480.222 1321.44 481.578C1320.35 484.213 1318.05 487.79 1313.99 490.991C1309.96 494.078 1304.01 496.789 1297.08 496.45C1290.12 496.224 1282.92 492.007 1278.44 485.493C1273.96 478.942 1272.64 470.734 1274.94 464.145C1277.13 457.556 1281.79 452.962 1286.16 450.326C1290.6 447.691 1294.78 446.862 1297.65 446.787C1299.08 446.787 1300.17 446.787 1300.92 446.975C1301.67 447.088 1302.05 447.164 1302.01 447.239C1302.01 447.427 1300.43 447.239 1297.68 447.54C1294.97 447.841 1291.02 448.858 1286.88 451.494C1282.85 454.129 1278.56 458.572 1276.67 464.672C1274.68 470.734 1275.92 478.264 1280.06 484.364C1284.24 490.426 1290.83 494.342 1297.19 494.643C1303.59 495.057 1309.24 492.685 1313.16 489.861C1317.11 486.962 1319.48 483.649 1320.76 481.239C1322.04 478.791 1322.42 477.285 1322.61 477.323Z" fill="#263238"/>
<path d="M1276.97 478.264C1276.97 478.264 1275.66 476.231 1277.46 473.294C1278.29 471.901 1279.87 470.508 1281.94 469.793C1283.98 469.04 1286.35 468.927 1288.68 469.077C1298.1 469.755 1304.91 473.407 1304.65 473.821C1304.42 474.349 1297.49 471.638 1288.53 470.997C1284.09 470.546 1280.25 471.713 1278.59 474.047C1276.86 476.231 1277.27 478.227 1276.97 478.227V478.264Z" fill="#263238"/>
<path d="M1253.82 351.264C1254.19 351.414 1249.68 356.761 1248.06 367.379C1247.19 372.612 1247.08 378.976 1247.15 386.054C1247.23 393.133 1247.57 400.927 1249.15 408.834C1252.73 424.648 1259.2 438.24 1265.23 446.938C1268.28 451.305 1270.99 454.732 1272.91 457.028C1274.83 459.325 1276 460.492 1275.92 460.605C1275.69 460.907 1270.57 456.464 1264.13 447.766C1257.66 439.068 1250.92 425.438 1247.27 409.248C1245.61 401.115 1245.35 393.17 1245.38 386.054C1245.38 378.938 1245.65 372.462 1246.7 367.115C1247.72 361.769 1249.45 357.627 1250.99 355.029C1252.54 352.393 1253.74 351.188 1253.82 351.264Z" fill="#263238"/>
<path d="M1273.32 395.919C1273.51 395.768 1275.66 398.14 1278.63 402.357C1281.61 406.574 1285.33 412.636 1288.65 419.79C1291.92 426.944 1294.07 433.797 1295.27 438.805C1296.48 443.812 1296.82 446.975 1296.55 447.05C1295.95 447.201 1293.39 434.738 1286.88 420.619C1280.44 406.499 1272.83 396.295 1273.36 395.919H1273.32Z" fill="#263238"/>
<path d="M1266.96 419.376C1267.34 419.037 1273.7 425.438 1282.02 432.893C1290.3 440.386 1296.93 446.598 1296.55 447.013C1296.21 447.389 1289.02 441.854 1280.7 434.324C1272.34 426.831 1266.54 419.715 1267 419.338L1266.96 419.376Z" fill="#263238"/>
<path d="M1365.49 507.746C1365.49 507.746 1365.31 507.934 1364.97 508.273C1364.44 508.725 1363.88 509.176 1363.31 509.666C1361.88 510.908 1359.7 512.527 1356.87 514.448C1351.3 518.251 1343.02 522.769 1333.15 526.007C1323.32 529.207 1313.95 530.487 1307.21 530.751C1303.82 530.902 1301.07 530.864 1299.19 530.751C1298.44 530.713 1297.72 530.638 1297.01 530.6C1296.52 530.563 1296.25 530.525 1296.25 530.487C1296.25 530.487 1296.52 530.45 1297.01 530.45C1297.68 530.45 1298.4 530.45 1299.19 530.45C1301.07 530.487 1303.78 530.45 1307.17 530.224C1313.87 529.847 1323.14 528.492 1332.89 525.291C1342.64 522.053 1350.89 517.686 1356.53 513.996C1359.36 512.151 1361.58 510.607 1363.08 509.44C1363.69 508.988 1364.29 508.574 1364.82 508.16C1365.23 507.859 1365.46 507.746 1365.46 507.746H1365.49Z" fill="#FAFAFA"/>
<path d="M1387.67 553.305C1387.67 553.305 1387.48 553.493 1387.11 553.832C1386.58 554.284 1386.01 554.735 1385.45 555.225C1383.98 556.43 1381.8 558.086 1379.01 559.969C1373.4 563.772 1365.19 568.366 1355.44 571.905C1345.69 575.406 1336.43 577.138 1329.69 577.779C1326.34 578.117 1323.59 578.268 1321.67 578.23C1320.91 578.23 1320.2 578.23 1319.48 578.23C1318.99 578.23 1318.73 578.23 1318.73 578.193C1318.73 578.193 1318.99 578.117 1319.48 578.08C1320.16 578.042 1320.88 578.004 1321.67 577.929C1323.55 577.854 1326.26 577.628 1329.61 577.214C1336.31 576.423 1345.5 574.653 1355.18 571.189C1364.85 567.688 1373.06 563.207 1378.71 559.517C1381.53 557.672 1383.79 556.129 1385.3 554.999C1385.9 554.547 1386.5 554.133 1387.07 553.719C1387.48 553.418 1387.71 553.305 1387.71 553.305H1387.67Z" fill="#FAFAFA"/>
<path d="M1381.53 619.761C1381.53 619.761 1381.01 620.213 1379.95 620.928C1378.9 621.643 1377.32 622.622 1375.32 623.714C1371.33 625.898 1365.49 628.459 1358.75 630.228C1351.98 631.998 1345.65 632.6 1341.1 632.638C1338.8 632.638 1336.95 632.638 1335.71 632.487C1334.43 632.374 1333.75 632.299 1333.75 632.261C1333.75 632.224 1334.47 632.186 1335.75 632.186C1337.03 632.186 1338.84 632.186 1341.13 632.073C1345.65 631.885 1351.9 631.207 1358.6 629.437C1365.31 627.668 1371.07 625.22 1375.1 623.187C1377.13 622.171 1378.75 621.267 1379.84 620.627C1380.93 619.987 1381.57 619.648 1381.61 619.723L1381.53 619.761Z" fill="#FAFAFA"/>
<path d="M1394.3 609.595C1394.34 609.821 1392.08 610.423 1389.21 610.988C1386.35 611.553 1384.02 611.816 1383.98 611.59C1383.94 611.364 1386.2 610.762 1389.06 610.197C1391.93 609.633 1394.26 609.369 1394.3 609.595Z" fill="#FAFAFA"/>
<path d="M1356.95 687.761C1356.95 687.949 1353.11 688.551 1348.36 688.175C1343.58 687.836 1339.85 686.706 1339.93 686.48C1339.97 686.254 1343.73 687.045 1348.44 687.384C1353.14 687.723 1356.95 687.497 1356.99 687.723L1356.95 687.761Z" fill="#FAFAFA"/>
<path d="M1285.48 490.84C1285.6 491.028 1283.34 492.459 1280.48 494.04C1277.61 495.622 1275.17 496.751 1275.09 496.563C1275.02 496.375 1277.24 494.944 1280.1 493.363C1282.96 491.781 1285.41 490.652 1285.48 490.84Z" fill="#FAFAFA"/>
<path d="M1266.77 451.343C1266.88 451.569 1261.35 453.225 1255.66 457.329C1249.94 461.358 1246.59 466.027 1246.36 465.839C1246.29 465.801 1247.04 464.559 1248.51 462.789C1250.01 461.019 1252.31 458.76 1255.17 456.689C1258.07 454.656 1260.97 453.225 1263.12 452.397C1265.3 451.569 1266.69 451.267 1266.73 451.38L1266.77 451.343Z" fill="#FAFAFA"/>
<path d="M1300.7 495.094C1300.43 495.094 1301.75 489.974 1300.88 483.686C1300.09 477.398 1297.53 472.804 1297.8 472.691C1297.87 472.654 1298.62 473.708 1299.49 475.666C1300.36 477.586 1301.26 480.372 1301.67 483.611C1302.09 486.811 1301.9 489.748 1301.56 491.819C1301.22 493.89 1300.77 495.132 1300.7 495.094Z" fill="#FAFAFA"/>
<path d="M1417.19 372.311C1417.19 372.311 1415.87 374.005 1413.05 376.716C1410.26 379.427 1405.89 383.004 1400.02 386.732C1394.15 390.459 1386.77 394.225 1378.37 397.915C1369.97 401.642 1360.6 405.294 1351.07 409.85C1341.58 414.444 1332.89 419.678 1326.11 425.777C1319.33 431.877 1314.44 438.654 1311.46 444.867C1308.49 451.079 1307.32 456.652 1306.98 460.492C1306.64 464.333 1306.91 466.479 1306.79 466.479C1306.79 466.479 1306.72 465.952 1306.68 464.935C1306.57 463.919 1306.61 462.413 1306.68 460.455C1306.91 456.577 1308 450.966 1310.97 444.603C1313.95 438.315 1318.8 431.387 1325.66 425.212C1332.47 419 1341.25 413.728 1350.77 409.097C1360.33 404.504 1369.75 400.851 1378.11 397.199C1386.5 393.547 1393.88 389.857 1399.76 386.205C1405.63 382.553 1410.04 379.051 1412.86 376.415C1414.29 375.097 1415.38 374.043 1416.06 373.328C1416.78 372.612 1417.19 372.236 1417.19 372.236V372.311Z" fill="#FAFAFA"/>
<path d="M1407.02 417.004C1407.02 417.004 1406.87 417.306 1406.53 417.87C1406.04 418.586 1405.56 419.376 1404.95 420.242C1403.6 422.313 1401.49 425.175 1398.74 428.601C1393.24 435.492 1384.85 444.415 1374.19 452.661C1363.54 460.907 1352.8 466.856 1344.78 470.47C1340.76 472.278 1337.48 473.633 1335.15 474.424C1334.17 474.763 1333.3 475.064 1332.47 475.365C1331.87 475.553 1331.53 475.666 1331.53 475.629C1331.53 475.629 1331.83 475.44 1332.43 475.215C1333.23 474.876 1334.09 474.537 1335.07 474.16C1337.37 473.257 1340.64 471.864 1344.6 469.981C1352.54 466.253 1363.16 460.267 1373.74 452.059C1384.32 443.813 1392.75 435.04 1398.33 428.262C1401.11 424.874 1403.3 422.087 1404.73 420.054C1405.33 419.226 1405.89 418.473 1406.42 417.795C1406.8 417.268 1407.02 417.004 1407.06 417.042L1407.02 417.004Z" fill="#FAFAFA"/>
<path d="M1249.86 364.065C1249.86 364.065 1254.49 365.835 1261.27 370.127C1268.05 374.382 1276.75 381.423 1284.35 390.987C1291.96 400.588 1296.82 410.679 1299.41 418.247C1302.01 425.815 1302.69 430.747 1302.69 430.747C1302.69 430.747 1302.58 430.446 1302.39 429.881C1302.16 429.091 1301.97 428.3 1301.71 427.396C1301.18 425.25 1300.24 422.163 1298.85 418.435C1296.14 410.98 1291.24 401.04 1283.71 391.476C1276.14 381.988 1267.6 374.909 1260.93 370.579C1257.62 368.395 1254.83 366.776 1252.84 365.76C1252.01 365.308 1251.29 364.931 1250.58 364.555C1250.05 364.254 1249.79 364.103 1249.83 364.065H1249.86Z" fill="#FAFAFA"/>
<path d="M1061.04 505.675C1062.51 525.63 1049.33 543.44 1036.04 558.425C1022.75 573.411 1007.99 588.999 1005.13 608.804C1000.04 643.896 1034.42 676.502 1027.3 711.255C1023.5 729.893 1008.25 744.841 1005.54 763.667C1002.9 781.853 1012.66 799.662 1024.74 813.518C1036.83 827.374 1050.84 825.341 1061.53 840.289C1072.79 856.028 1090.94 872.218 1107.92 881.518C1146.43 902.603 1192.63 872.105 1211.23 866.608" fill="#263238"/>
<path d="M1352.24 587.455C1369.98 579.737 1371.37 516.105 1326.86 508.762C1309.02 505.826 1294.11 497.09 1279.08 487C1265.79 478.038 1261.84 455.334 1250.58 443.925C1222.98 415.912 1179.83 404.315 1141.92 414.67C1103.96 425.024 1072.71 456.915 1063.15 495.057C1056.67 520.849 1061.08 551.309 1081.41 568.441C1104.98 588.321 1139.96 583.916 1170.16 577.703C1200.35 571.528 1234.58 565.429 1259.81 583.163C1275.02 593.856 1283.75 611.289 1293.05 627.367C1302.35 643.482 1314.02 659.936 1331.61 665.998C1331.61 665.998 1345.01 697.475 1334.06 719.388C1323.14 741.302 1346.9 703.951 1346.9 703.951C1346.9 703.951 1390.27 626.839 1352.24 587.493" fill="#263238"/>
<path d="M1126.67 1033.93C1126.4 992.404 1126.67 875.795 1126.67 875.983C1126.67 875.983 1060.7 864.876 1047.22 778.728C1040.52 735.88 1042.82 665.696 1046.58 608.314C1049.97 556.656 1084.31 493.363 1135.78 498.935L1296.4 539.901C1312.03 541.595 1323.78 554.961 1323.44 570.662L1313.65 969.586L1126.67 1033.9V1033.93Z" fill="#FFBE9D"/>
<path d="M1073.88 657.526C1073.65 663.362 1078.44 668.37 1084.5 668.708C1090.56 669.047 1095.68 664.604 1095.91 658.768C1096.13 652.932 1091.35 647.924 1085.29 647.586C1079.19 647.247 1074.11 651.69 1073.88 657.526Z" fill="#263238"/>
<path d="M1061.68 644.874C1063.04 646.305 1071.43 640.13 1083.29 640.206C1095.15 640.093 1103.89 646.23 1105.17 644.762C1105.81 644.121 1104.42 641.523 1100.61 638.737C1096.89 635.989 1090.52 633.278 1083.1 633.315C1075.69 633.315 1069.47 636.064 1065.9 638.85C1062.25 641.636 1061 644.234 1061.68 644.912V644.874Z" fill="#263238"/>
<path d="M1178.52 663.813C1179.87 665.244 1188.27 659.069 1200.17 659.145C1212.03 659.032 1220.76 665.169 1222.04 663.701C1222.68 663.06 1221.29 660.462 1217.49 657.676C1213.76 654.928 1207.4 652.217 1199.98 652.254C1192.56 652.254 1186.35 655.003 1182.77 657.789C1179.12 660.575 1177.88 663.173 1178.55 663.851L1178.52 663.813Z" fill="#263238"/>
<path d="M1135.18 735.39C1135.25 734.712 1127.83 733.432 1115.9 731.851C1112.85 731.55 1109.99 730.91 1109.5 728.839C1108.78 726.655 1110.06 723.379 1111.53 719.84C1114.39 712.498 1117.41 704.817 1120.57 696.759C1133.11 663.889 1142.18 636.855 1140.86 636.365C1139.54 635.876 1128.29 662.119 1115.75 694.989C1112.74 703.085 1109.84 710.803 1107.09 718.221C1105.92 721.685 1103.96 725.563 1105.51 730.119C1106.34 732.378 1108.56 734.035 1110.48 734.562C1112.43 735.164 1114.13 735.202 1115.64 735.277C1127.68 735.955 1135.14 736.03 1135.21 735.352L1135.18 735.39Z" fill="#263238"/>
<path d="M1126.67 875.983C1126.67 875.983 1184.58 879.861 1242.07 845.485C1241.09 845.673 1210.33 905.352 1127.8 896.315L1126.67 875.983Z" fill="#EB996E"/>
<path d="M1138.6 769.691C1137.17 762.387 1145.8 760.015 1152.12 756.061C1158.45 752.145 1162.1 746.912 1168.01 751.43C1171.4 753.99 1173.81 757.718 1175.32 761.671C1176.33 764.345 1176.97 767.244 1176.48 770.068C1175.88 773.494 1173.73 776.469 1171.17 778.878C1167.6 782.267 1163.12 784.827 1158.26 785.618C1153.4 786.446 1148.17 785.392 1144.29 782.342C1140.41 779.292 1138.15 774.172 1138.98 769.315" fill="#EB996E"/>
<path d="M1170.12 743.674C1168.2 743.561 1168.12 756.438 1157.05 765.587C1146.02 774.737 1132.28 773.268 1132.17 775.076C1131.98 775.866 1135.22 777.598 1141.01 777.749C1146.7 777.975 1155.02 776.13 1161.8 770.557C1168.54 764.947 1171.47 757.492 1171.93 752.183C1172.42 746.799 1170.99 743.598 1170.12 743.674Z" fill="#263238"/>
<path d="M1176.75 637.269C1177.91 640.507 1189.77 639.001 1203.71 640.695C1217.67 642.126 1228.89 646.23 1230.78 643.331C1231.61 641.937 1229.65 638.888 1225.13 635.763C1220.65 632.637 1213.46 629.663 1205.1 628.684C1196.74 627.743 1189.06 629.06 1183.98 631.131C1178.85 633.165 1176.26 635.725 1176.78 637.269H1176.75Z" fill="#263238"/>
<path d="M1063.34 603.759C1065.41 606.47 1073.62 603.683 1083.44 603.57C1093.27 603.119 1101.63 605.415 1103.55 602.591C1104.38 601.236 1103.1 598.525 1099.45 595.965C1095.87 593.404 1089.88 591.333 1083.1 591.522C1076.33 591.71 1070.49 594.157 1067.03 596.906C1063.53 599.655 1062.4 602.441 1063.3 603.759H1063.34Z" fill="#263238"/>
<path d="M1332.81 827.977C1309.13 832.759 1307.02 820.71 1289.32 804.256C1271.63 787.802 1262.48 762.613 1265.53 738.666C1268.2 717.506 1279.61 696.006 1272.27 675.975C1262.59 649.506 1225.47 641.373 1215.64 614.979C1209.92 599.617 1215.04 581.657 1208.56 566.634C1202.46 552.477 1187.59 544.344 1173.09 539.11C1158.6 533.876 1143.08 530.262 1130.92 520.811C1118.76 511.36 1111.19 493.513 1119.02 480.26C1183.26 487.941 1246.59 503.341 1307.17 525.969C1321.22 531.203 1335.98 537.529 1344.3 550.029C1353.07 563.245 1352.66 580.339 1351.94 596.191C1348.33 673.49 1344.71 750.828 1341.13 828.128" fill="#263238"/>
<path d="M1387.71 799.06C1387.71 799.06 1388.09 798.722 1388.65 798.006C1389.18 797.215 1390.16 796.161 1391.02 794.58C1392.98 791.455 1395.31 786.447 1396.71 779.519C1398.1 772.666 1398.21 763.743 1395.31 754.104C1392.64 744.465 1385.9 734.148 1375.28 727.145C1365.08 719.953 1351.75 714.908 1343.32 703.462C1339.1 697.852 1337.33 690.585 1338.65 683.242C1339.82 675.863 1343.17 668.596 1346.14 660.915C1352.73 645.477 1352.81 626.2 1345.05 609.52C1341.13 601.199 1335.34 593.48 1327.58 587.832C1319.86 581.996 1310.45 578.984 1301.18 576.875C1291.85 574.729 1282.55 573.524 1273.92 570.926C1265.3 568.366 1257.09 564.488 1251.11 558.426C1244.97 552.439 1242.37 544.156 1241.2 535.835C1240.04 527.513 1239.4 518.853 1237.14 510.796C1232.92 494.643 1224.71 480.335 1213.91 470.056C1203.1 459.702 1189.85 453.791 1177.31 451.908C1164.73 449.95 1152.91 452.284 1144.02 456.953C1135.03 461.547 1128.78 467.872 1124.78 473.633C1120.79 479.469 1118.91 484.665 1118.04 488.242C1117.14 491.819 1117.22 493.777 1117.22 493.777C1117.78 494.003 1117.89 485.682 1125.99 474.499C1130.06 469.04 1136.27 463.091 1145 458.874C1153.63 454.581 1164.92 452.548 1176.93 454.581C1188.87 456.539 1201.52 462.375 1211.76 472.353C1222.04 482.293 1229.83 496.074 1233.79 511.699C1235.93 519.493 1236.46 527.739 1237.63 536.399C1238.76 544.909 1241.62 554.359 1248.47 561.061C1255.1 567.801 1263.91 571.868 1272.87 574.541C1281.91 577.289 1291.24 578.494 1300.39 580.603C1309.47 582.674 1318.32 585.535 1325.43 590.882C1332.62 596.116 1338.08 603.307 1341.77 611.101C1349.12 626.877 1349.19 644.875 1342.98 659.71C1340.15 667.278 1336.69 674.733 1335.45 682.791C1334.02 690.811 1336.16 699.32 1340.87 705.344C1350.28 717.694 1363.95 722.514 1373.85 729.404C1384.17 735.993 1390.53 745.557 1393.39 754.781C1396.37 763.969 1396.48 772.591 1395.35 779.331C1392.98 792.961 1387.26 798.91 1387.82 799.173L1387.71 799.06Z" fill="#455A64"/>
<path d="M1275.66 713.515C1256.15 758.396 1252.54 809.979 1265.6 857.12C1269.52 871.202 1274.86 885.811 1271.55 900.043C1267.94 915.443 1255.06 926.588 1245.68 939.314C1229.49 961.228 1223.21 990.145 1228.78 1016.8C1234.39 1043.46 1251.78 1067.41 1275.39 1080.96C1277.88 1066.8 1291.06 1057.17 1304.05 1050.99C1317.04 1044.82 1331.38 1040.26 1341.32 1029.87C1351.22 1019.44 1354.05 1000.35 1342.53 991.764C1375.66 983.104 1394.45 943.72 1387.48 910.172C1380.52 876.624 1353.22 850.116 1322.19 835.583" fill="#263238"/>
<path d="M1311.01 1047.87C1305.1 1051.1 1299.34 1054 1298.59 1060.74C1297.72 1068.61 1305.29 1082.47 1308 1089.92C1313.31 1104.49 1309.32 1122.04 1298.17 1132.85C1287.06 1143.69 1269.44 1147.19 1254.99 1141.51C1265.6 1142.33 1274.6 1131.98 1275.54 1121.36C1276.48 1110.78 1271.36 1100.54 1265.04 1091.99C1258.71 1083.45 1251.07 1075.84 1245.69 1066.65C1234.77 1047.94 1218.58 997.072 1231.04 968.57" fill="#263238"/>
<path d="M1341.13 993.082C1341.13 993.082 1341.81 992.441 1343.17 991.35C1344.56 990.295 1346.55 988.676 1349.08 986.568C1354.08 982.313 1361.2 975.875 1368.43 966.537C1375.58 957.274 1382.93 945 1386.77 929.939C1390.53 914.991 1390.8 897.182 1384.32 880.502C1381.08 872.181 1376.3 864.801 1370.69 858.513C1365.15 852.15 1359.13 846.577 1353.44 841.193C1347.76 835.809 1342.41 830.575 1338.01 825.116C1333.56 819.656 1330.21 813.971 1327.88 808.473C1323.06 797.441 1322.87 787.238 1324.57 780.799C1325.43 777.561 1326.49 775.189 1327.39 773.683C1328.29 772.177 1328.78 771.424 1328.86 771.461C1329.12 771.574 1326.82 774.624 1325.32 780.987C1323.89 787.35 1324.3 797.215 1329.16 807.946C1331.49 813.293 1334.88 818.828 1339.29 824.137C1343.69 829.446 1349.04 834.604 1354.72 839.95C1360.41 845.297 1366.51 850.87 1372.16 857.346C1377.88 863.747 1382.85 871.352 1386.16 879.899C1392.83 897.069 1392.45 915.292 1388.5 930.504C1384.47 945.866 1376.9 958.253 1369.48 967.516C1362.03 976.816 1354.72 983.179 1349.53 987.283C1346.93 989.316 1344.82 990.822 1343.35 991.801C1341.89 992.78 1341.13 993.27 1341.09 993.195L1341.13 993.082Z" fill="#455A64"/>
<path d="M841.301 695.253C834.373 670.667 802.369 673.039 802.369 673.039L803.235 690.133C821.722 686.932 833.206 708.62 833.206 708.62L841.264 695.253H841.301Z" fill="#278DB4"/>
<path d="M526.718 409.06C509.473 410.905 507.402 432.555 507.402 432.555L518.962 433.91C518.962 421.184 534.738 415.95 534.738 415.95L526.718 409.022V409.06Z" fill="#278DB4"/>
<path d="M687.418 179.457C697.961 206.265 733.542 200.053 733.542 200.053L730.643 180.963C710.273 186.611 694.949 163.568 694.949 163.568L687.381 179.457H687.418Z" fill="#278DB4"/>
<path d="M285.933 632.675C268.688 634.52 266.617 656.17 266.617 656.17L278.176 657.526C278.176 644.799 293.953 639.566 293.953 639.566L285.933 632.638V632.675Z" fill="#278DB4"/>
<path d="M357.057 265.191C359.58 248.021 339.097 240.642 339.097 240.642L334.918 251.485C347.268 254.611 348.397 271.253 348.397 271.253L357.095 265.191H357.057Z" fill="#278DB4"/>
<path d="M61.9786 528.793C58.8911 555.715 94.5477 562.228 94.5477 562.228L100.986 544.607C79.5998 542.687 76.4746 517.46 76.4746 517.46L61.9409 528.793H61.9786Z" fill="#278DB4"/>
<path d="M909.791 398.856C927.111 399.835 932.683 378.787 932.683 378.787L921.501 375.549C919.468 388.125 903.014 390.685 903.014 390.685L909.791 398.818V398.856Z" fill="#278DB4"/>
<path d="M1705.75 1588.24H94.6113V1632H1705.75V1588.24Z" fill="#263238"/>
</g>
<defs>
<clipPath id="clip0_119_6906">
<rect width="1763.66" height="1544" fill="white" transform="translate(18 88)"/>
</clipPath>
</defs>
</svg>
