<svg width="1800" height="1720" viewBox="0 0 1800 1720" fill="none" xmlns="http://www.w3.org/2000/svg">
<path d="M730.4 112.267L347.73 609.295L1376.8 353.485L803.638 93.8168C777.912 82.1598 747.524 89.7971 730.4 112.267Z" fill="#EBEBEB"/>
<path d="M342.344 612.833L728.711 110.941C746.559 87.5864 777.711 79.7481 804.522 91.8874L1383.23 354.088L342.344 612.833ZM778.474 90.4805C760.708 90.4805 743.463 98.6002 732.088 113.553L353.116 605.798L1370.37 352.923L802.753 95.7463C794.875 92.1688 786.634 90.4805 778.474 90.4805Z" fill="#E0E0E0"/>
<path d="M347.748 609.327L1380.4 352.624L1519.52 912.289C1525.25 935.343 1511.18 958.722 1488.13 964.453L538.998 1200.39C515.944 1206.13 492.565 1192.06 486.834 1169L347.709 609.337L347.748 609.327Z" fill="#F0F0F0"/>
<path d="M1316.78 383.271L959.036 748.777L418.154 627.062L356.292 340.261C349.177 309.47 368.029 278.68 398.699 271.043L1180.96 76.6127C1211.99 68.895 1243.35 87.7873 1251.06 118.819L1316.78 383.271Z" fill="white"/>
<path d="M909.916 720.036L485.121 1164.01C491.432 1189.37 517.117 1204.84 542.481 1198.53L1484.28 964.31C1509.65 957.999 1525.12 932.313 1518.81 906.949L1517.93 903.412L962.413 707.535C943.963 701.023 923.422 705.927 909.876 720.076L909.916 720.036Z" fill="#E0E0E0"/>
<path d="M774.209 313.441L468.195 389.569L475.968 420.814L781.982 344.686L774.209 313.441Z" fill="#E0E0E0"/>
<path d="M1166.86 299.838L487.895 468.746L496.677 504.047L1175.64 335.14L1166.86 299.838Z" fill="#E0E0E0"/>
<path d="M1188.3 386.124L509.332 555.031L518.114 590.333L1197.08 421.426L1188.3 386.124Z" fill="#E0E0E0"/>
<path d="M1202.63 500.363L1181.36 521.627L611.378 670.635L536.894 653.23L534.08 645.15L1210.87 476.808L1213.76 488.505L1202.63 500.363Z" fill="#E0E0E0"/>
<path d="M1056.83 648.889L800.02 712.721L721.557 694.793L1105.31 599.327L1056.83 648.889Z" fill="#E0E0E0"/>
<path d="M894.442 736.195C894.442 736.195 894.12 736.637 893.477 737.401C892.714 738.245 891.709 739.33 890.422 740.737C887.609 743.712 883.669 747.973 878.605 753.399C868.154 764.453 853.241 780.25 834.831 799.745C797.77 838.776 746.559 892.72 689.561 951.849C632.563 1011.02 580.388 1064.04 542.281 1102.06C523.228 1121.08 507.753 1136.39 496.98 1146.92C491.634 1152.11 487.494 1156.13 484.519 1158.98C483.153 1160.27 482.067 1161.31 481.263 1162.08C480.5 1162.76 480.138 1163.12 480.098 1163.08C480.098 1163.08 480.419 1162.68 481.103 1161.91C481.866 1161.11 482.911 1160.03 484.238 1158.66C487.092 1155.72 491.192 1151.58 496.377 1146.28C507.069 1135.47 522.344 1120.03 541.196 1100.94C579.021 1062.63 630.995 1009.45 687.993 950.281C744.871 891.112 796.363 837.53 833.745 798.62C852.397 779.326 867.51 763.689 878.042 752.756C883.227 747.45 887.287 743.31 890.181 740.375C891.508 739.049 892.593 738.004 893.357 737.2C894.08 736.476 894.482 736.155 894.482 736.155L894.442 736.195Z" fill="#FAFAFA"/>
<path d="M1517.93 903.372C1517.73 903.934 1399.27 862.814 1253.36 811.563C1107.4 760.273 989.305 718.227 989.506 717.664C989.707 717.102 1108.13 758.182 1254.08 809.513C1399.95 860.804 1518.09 902.849 1517.89 903.412L1517.93 903.372Z" fill="#FAFAFA"/>
<path d="M1333.83 365.665C1333.83 365.665 1333.59 366.027 1333.06 366.67C1332.42 367.393 1331.62 368.318 1330.61 369.444C1328.32 371.976 1325.14 375.513 1321.08 380.015C1312.6 389.22 1300.5 402.364 1285.59 418.563C1255.48 451.002 1213.6 495.459 1166.65 543.976C1119.7 592.493 1076.57 635.785 1045.14 666.897C1029.42 682.292 1016.68 694.793 1007.71 703.556C1003.33 707.736 999.916 711.032 997.423 713.404C996.298 714.449 995.414 715.293 994.73 715.936C994.127 716.499 993.766 716.78 993.766 716.74C993.766 716.74 994.007 716.378 994.57 715.776C995.213 715.092 996.057 714.208 997.142 713.082C999.554 710.63 1002.89 707.254 1007.11 702.913C1015.95 694.029 1028.54 681.367 1044.01 665.771C1075.16 634.378 1118.09 590.926 1165.04 542.409C1211.95 493.932 1254.04 449.635 1284.43 417.478C1299.54 401.48 1311.8 388.537 1320.4 379.412C1324.58 375.031 1327.88 371.574 1330.25 369.122C1331.33 368.037 1332.18 367.152 1332.86 366.469C1333.47 365.866 1333.79 365.585 1333.79 365.625L1333.83 365.665Z" fill="#FAFAFA"/>
<path d="M894.441 736.195C894.441 736.195 893.959 736.155 892.994 735.954C891.949 735.713 890.583 735.391 888.854 734.989C885.076 734.065 879.77 732.778 872.977 731.09C859.189 727.633 839.212 722.81 814.531 716.981C765.13 705.284 696.595 690.21 620.865 673.81C545.095 657.41 476.64 642.095 427.279 629.996C402.599 623.967 382.701 618.902 368.994 615.204C362.241 613.355 356.976 611.948 353.197 610.903C351.509 610.421 350.142 610.019 349.097 609.737C348.173 609.456 347.73 609.295 347.73 609.255C347.73 609.255 348.213 609.295 349.178 609.496C350.223 609.737 351.589 610.059 353.318 610.461C357.096 611.385 362.402 612.672 369.195 614.36C382.983 617.817 402.92 622.64 427.641 628.469C477.042 640.166 545.577 655.239 621.307 671.64C697.037 688.04 765.532 703.355 814.853 715.454C839.533 721.483 859.43 726.548 873.178 730.246C879.931 732.095 885.236 733.502 888.975 734.547C890.663 735.029 892.03 735.431 893.075 735.713C893.999 735.994 894.441 736.155 894.441 736.195Z" fill="#FAFAFA"/>
<path d="M1316.78 383.271C1316.78 383.271 1316.38 381.985 1315.7 379.412C1315.02 376.799 1314.05 372.981 1312.77 368.036C1310.19 357.947 1306.45 343.195 1301.63 324.182C1292.06 286.036 1278.24 230.886 1261.15 162.794C1259.02 154.272 1256.85 145.55 1254.6 136.626C1253.48 132.164 1252.35 127.662 1251.22 123.12C1250.66 120.829 1250.1 118.538 1249.38 116.327C1248.77 114.076 1247.89 111.905 1246.92 109.735C1243.23 101.012 1236.91 93.3344 1229.16 87.3452C1221.28 81.5569 1211.79 77.3765 1201.66 76.3314C1196.64 75.5676 1191.45 75.9294 1186.35 76.5323C1181.28 77.4167 1176.14 78.8235 1170.95 80.1098C1160.58 82.6824 1150.09 85.3354 1139.4 87.9883C1118.05 93.2942 1096.07 98.8011 1073.56 104.388C983.436 126.818 884.352 151.499 780.324 177.385C676.256 203.231 577.131 227.832 487.011 250.221C464.461 255.808 442.474 261.275 421.129 266.541C415.783 267.867 410.477 269.194 405.211 270.48C399.946 271.847 394.72 272.892 389.937 275.102C385.113 277.152 380.611 279.846 376.632 283.182C372.572 286.357 369.115 290.216 366.141 294.357C363.086 298.416 360.955 303.039 359.066 307.662C357.418 312.365 356.212 317.228 355.81 322.092C354.644 331.94 357.338 341.386 359.267 350.792C363.287 369.524 367.145 387.532 370.844 404.696C385.515 473.351 397.373 528.943 405.573 567.411C409.633 586.584 412.768 601.497 414.899 611.667C415.944 616.691 416.708 620.55 417.27 623.203C417.793 625.816 417.994 627.142 417.994 627.142C417.994 627.142 417.632 625.816 417.029 623.243C416.426 620.59 415.582 616.772 414.457 611.787C412.206 601.618 408.95 586.745 404.729 567.612C396.368 529.184 384.269 473.673 369.316 405.057C365.578 387.893 361.679 369.926 357.619 351.194C355.69 341.909 352.876 332.141 354.041 321.971C354.443 316.907 355.69 311.922 357.378 307.059C359.307 302.275 361.478 297.532 364.653 293.311C367.708 289.051 371.246 285.071 375.466 281.775C379.566 278.358 384.229 275.545 389.213 273.414C394.157 271.123 399.584 269.998 404.769 268.671C410.035 267.345 415.341 266.058 420.647 264.692C441.991 259.386 463.979 253.879 486.489 248.291C576.649 225.862 675.733 201.181 779.761 175.295C883.79 149.489 982.874 124.848 1073.03 102.499C1095.58 96.9119 1117.53 91.4854 1138.92 86.1795C1149.61 83.5265 1160.1 80.9137 1170.47 78.3814C1175.66 77.1353 1180.72 75.7284 1186.03 74.8039C1191.29 74.1608 1196.64 73.8392 1201.82 74.6029C1212.27 75.7284 1222.04 80.0696 1230.16 86.0589C1238.12 92.2491 1244.63 100.168 1248.41 109.172C1249.38 111.423 1250.3 113.634 1250.9 115.965C1251.67 118.256 1252.19 120.547 1252.75 122.839C1253.88 127.381 1255 131.923 1256.09 136.385C1258.3 145.308 1260.47 154.031 1262.56 162.553C1279.36 230.726 1292.95 285.915 1302.35 324.102C1307.02 343.155 1310.59 357.947 1313.09 368.036C1314.29 373.021 1315.18 376.839 1315.82 379.492C1316.42 382.065 1316.66 383.392 1316.66 383.392L1316.78 383.271Z" fill="#E0E0E0"/>
<path d="M867.35 171.114L827.636 201.382L829.565 259.185L793.147 230.283L773.089 247.487L696.676 153.187L867.35 171.114Z" fill="#278DB4"/>
<path d="M812.683 213.682C812.723 215.451 829.565 259.185 829.565 259.185L793.188 230.283L812.723 213.682H812.683Z" fill="#278DB4"/>
<g opacity="0.3">
<path d="M812.683 213.682C812.723 215.451 829.565 259.185 829.565 259.185L793.188 230.283L812.723 213.682H812.683Z" fill="black"/>
</g>
<path d="M696.676 153.187L812.683 213.682L829.565 259.185L827.636 201.382L696.676 153.187Z" fill="#278DB4"/>
<path opacity="0.1" d="M696.676 153.187L812.683 213.682L829.565 259.185L827.636 201.382L696.676 153.187Z" fill="black"/>
<path d="M1018.25 933.077C1018.09 933.68 1013.38 933.037 1007.67 931.63C1001.97 930.223 997.505 928.615 997.625 928.052C997.786 927.449 1002.49 928.093 1008.2 929.499C1013.86 930.906 1018.37 932.514 1018.25 933.077Z" fill="#263238"/>
<path d="M1051.17 941.116C1051.01 941.719 1048.15 941.518 1044.78 940.674C1041.4 939.83 1038.75 938.705 1038.91 938.102C1039.07 937.499 1041.92 937.7 1045.3 938.544C1048.68 939.388 1051.33 940.513 1051.17 941.116Z" fill="#263238"/>
<path d="M915.465 251.628C915.304 252.231 910.641 251.306 904.974 250.02C899.306 248.693 894.724 247.447 894.844 246.844C894.925 246.241 899.748 246.523 905.496 247.849C911.244 249.176 915.666 251.065 915.505 251.628H915.465Z" fill="#263238"/>
<path d="M954.375 268.309C954.054 268.832 949.753 266.862 944.527 264.249C939.342 261.636 935.161 259.385 935.403 258.782C935.644 258.22 940.226 259.627 945.532 262.28C950.798 264.932 954.697 267.786 954.375 268.309Z" fill="#263238"/>
<path d="M988.099 293.874C987.657 294.316 983.999 291.301 979.578 287.523C975.156 283.704 971.659 280.529 972.061 280.006C972.423 279.524 976.563 281.976 981.025 285.835C985.486 289.693 988.541 293.432 988.099 293.874Z" fill="#263238"/>
<path d="M1013.78 327.438C1013.22 327.719 1010.57 323.82 1007.35 318.997C1004.18 314.133 1001.65 310.154 1002.13 309.752C1002.61 309.39 1005.95 312.847 1009.2 317.791C1012.46 322.735 1014.31 327.157 1013.78 327.478V327.438Z" fill="#263238"/>
<path d="M1028.42 367.112C1027.81 367.232 1026.45 362.69 1024.84 357.103C1023.27 351.515 1022.07 346.933 1022.63 346.732C1023.19 346.531 1025.36 350.832 1026.97 356.5C1028.58 362.208 1028.98 366.991 1028.42 367.112Z" fill="#263238"/>
<path d="M1030.55 409.318C1029.94 409.238 1029.98 404.494 1030.1 398.706C1030.27 392.918 1030.43 388.175 1031.07 388.135C1031.67 388.094 1032.48 392.838 1032.32 398.746C1032.19 404.655 1031.15 409.358 1030.55 409.318Z" fill="#263238"/>
<path d="M1019.57 450.077C1019.01 449.796 1020.62 445.334 1022.55 439.908C1024.52 434.441 1026.16 430.019 1026.77 430.18C1027.33 430.341 1026.65 435.084 1024.64 440.671C1022.63 446.259 1020.1 450.359 1019.57 450.117V450.077Z" fill="#263238"/>
<path d="M995.053 484.405C994.611 483.963 997.786 480.425 1001.56 476.044C1005.38 471.703 1008.44 468.085 1008.96 468.447C1009.44 468.768 1007.15 473.029 1003.21 477.491C999.314 481.953 995.415 484.847 995.013 484.405H995.053Z" fill="#263238"/>
<path d="M959.561 507.236C959.319 506.673 963.54 504.463 968.645 501.769C973.79 499.076 977.971 496.906 978.332 497.428C978.654 497.911 974.916 501.006 969.69 503.739C964.424 506.472 959.802 507.799 959.561 507.236Z" fill="#263238"/>
<path d="M918.318 516.12C918.318 515.517 923.021 514.954 928.769 514.271C934.517 513.588 939.22 512.985 939.341 513.588C939.462 514.15 934.919 515.758 929.011 516.442C923.142 517.165 918.318 516.723 918.318 516.12Z" fill="#263238"/>
<path d="M876.957 508.281C877.198 507.719 881.7 509.206 887.248 510.854C892.795 512.542 897.337 513.788 897.216 514.431C897.136 515.034 892.272 514.713 886.604 512.984C880.896 511.256 876.716 508.844 876.957 508.281Z" fill="#263238"/>
<path d="M847.574 479.179C848.177 478.978 850.026 483.279 853.322 487.942C856.578 492.645 859.794 496.102 859.352 496.584C858.99 497.027 854.97 494.173 851.514 489.188C848.016 484.244 847.012 479.3 847.574 479.139V479.179Z" fill="#263238"/>
<path d="M865.42 446.258C865.581 446.902 861.038 448.308 856.496 451.564C851.874 454.82 849.462 458.84 848.899 458.559C848.336 458.398 850.105 453.413 855.21 449.796C860.275 446.178 865.38 445.736 865.42 446.258Z" fill="#263238"/>
<path d="M901.758 461.332C901.195 461.654 898.622 457.674 894.442 453.856C890.342 449.997 886.001 448.067 886.242 447.464C886.363 446.902 891.387 448.027 895.97 452.248C900.472 456.428 902.28 461.131 901.758 461.372V461.332Z" fill="#263238"/>
<path d="M903.125 502.372C902.562 502.131 904.05 497.669 905.095 492.002C906.18 486.374 906.462 481.671 907.064 481.631C907.667 481.591 908.391 486.495 907.265 492.404C906.14 498.313 903.648 502.614 903.125 502.332V502.372Z" fill="#263238"/>
<path d="M875.63 533.927C875.268 533.404 878.926 530.389 883.308 526.611C887.689 522.873 891.146 519.657 891.628 520.059C892.071 520.461 889.257 524.44 884.755 528.299C880.253 532.158 875.952 534.409 875.63 533.927Z" fill="#263238"/>
<path d="M838.006 553.462C837.765 552.9 841.865 550.488 847.171 548.036C852.477 545.584 857.019 544.056 857.3 544.619C857.582 545.182 853.482 547.594 848.136 550.046C842.79 552.498 838.288 554.025 838.046 553.462H838.006Z" fill="#263238"/>
<path d="M800.263 572.676C799.941 572.154 803.76 569.3 808.825 566.245C813.93 563.27 818.512 561.743 818.713 562.225C818.995 562.828 814.935 565.24 809.91 568.174C804.926 571.149 800.625 573.158 800.263 572.676Z" fill="#263238"/>
<path d="M768.226 600.331C767.784 599.929 770.557 596.03 774.778 591.89C778.998 587.75 782.978 585.017 783.34 585.499C783.742 585.981 780.446 589.398 776.305 593.458C772.165 597.518 768.668 600.733 768.186 600.331H768.226Z" fill="#263238"/>
<path d="M743.946 634.98C743.424 634.699 745.192 630.237 748.288 625.213C751.383 620.188 754.558 616.57 755.041 616.932C755.563 617.294 753.192 621.434 750.177 626.378C747.122 631.322 744.509 635.262 743.946 634.98Z" fill="#263238"/>
<path d="M728.471 674.373C727.868 674.212 728.552 669.469 730.401 663.842C732.21 658.214 734.461 653.993 735.023 654.194C735.586 654.436 734.3 658.978 732.491 664.525C730.682 670.072 729.074 674.494 728.471 674.373Z" fill="#263238"/>
<path d="M722.965 716.338C722.362 716.338 721.839 711.554 722.241 705.686C722.643 699.817 723.809 695.114 724.412 695.235C725.015 695.315 724.854 700.058 724.452 705.847C724.05 711.635 723.567 716.338 722.965 716.378V716.338Z" fill="#263238"/>
<path d="M728.512 758.263C727.909 758.423 726.422 753.881 725.176 748.133C723.769 742.385 723.729 737.561 724.292 737.481C724.895 737.401 725.94 742.023 727.306 747.691C728.552 753.359 729.075 758.102 728.472 758.263H728.512Z" fill="#263238"/>
<path d="M744.872 797.253C744.349 797.575 741.495 793.676 738.882 788.41C736.229 783.144 734.903 778.522 735.466 778.28C736.028 778.039 738.279 782.22 740.892 787.445C743.465 792.671 745.434 796.972 744.912 797.293L744.872 797.253Z" fill="#263238"/>
<path d="M770.275 831.139C769.833 831.541 766.135 828.486 762.356 823.984C758.538 819.482 756.086 815.342 756.568 814.98C757.051 814.618 760.266 818.115 764.045 822.537C767.783 826.958 770.758 830.697 770.315 831.139H770.275Z" fill="#263238"/>
<path d="M802.914 858.071C802.593 858.593 798.292 856.463 793.508 852.966C788.725 849.468 785.389 846.012 785.791 845.569C786.193 845.087 790.132 847.74 794.795 851.197C799.498 854.614 803.236 857.548 802.874 858.071H802.914Z" fill="#263238"/>
<path d="M841.062 876.319C840.901 876.882 836.158 875.917 830.692 873.707C825.225 871.496 821.125 868.923 821.406 868.401C821.688 867.838 826.109 869.486 831.536 871.657C836.922 873.827 841.263 875.716 841.062 876.319Z" fill="#263238"/>
<path d="M862.366 881.746C862.246 882.349 862.004 882.791 861.803 882.751C861.602 882.751 861.522 882.188 861.643 881.585C861.763 880.982 862.004 880.54 862.205 880.58C862.406 880.58 862.487 881.143 862.366 881.746Z" fill="#263238"/>
<path d="M831.607 776.492L787.65 762.057L778.671 789.401L822.627 803.836L831.607 776.492Z" fill="#278DB4"/>
<g opacity="0.3">
<path d="M831.607 776.492L787.65 762.057L778.671 789.401L822.627 803.836L831.607 776.492Z" fill="black"/>
</g>
<path d="M831.494 776.552C831.695 777.115 820.4 781.738 806.01 787.043L805.246 787.325L804.764 786.682C804.522 786.36 804.281 786.039 804.04 785.717C794.473 773.055 787.077 762.524 787.559 762.162C788.042 761.8 796.202 771.729 805.809 784.391C806.05 784.712 806.291 785.034 806.532 785.355L805.286 784.993C819.676 779.768 831.333 776.03 831.534 776.592L831.494 776.552Z" fill="#278DB4"/>
<g opacity="0.1">
<path d="M831.494 776.552C831.695 777.115 820.4 781.738 806.01 787.043L805.246 787.325L804.764 786.682C804.522 786.36 804.281 786.039 804.04 785.717C794.473 773.055 787.077 762.524 787.559 762.162C788.042 761.8 796.202 771.729 805.809 784.391C806.05 784.712 806.291 785.034 806.532 785.355L805.286 784.993C819.676 779.768 831.333 776.03 831.534 776.592L831.494 776.552Z" fill="black"/>
</g>
<path d="M800.261 778.843C800.542 779.406 795.88 782.22 789.89 785.114C783.901 788.048 778.836 789.978 778.555 789.415C778.274 788.852 782.936 786.038 788.926 783.144C794.915 780.21 799.98 778.28 800.261 778.843Z" fill="#278DB4"/>
<g opacity="0.1">
<path d="M800.261 778.843C800.542 779.406 795.88 782.22 789.89 785.114C783.901 788.048 778.836 789.978 778.555 789.415C778.274 788.852 782.936 786.038 788.926 783.144C794.915 780.21 799.98 778.28 800.261 778.843Z" fill="black"/>
</g>
<path d="M823.333 804.127C822.77 804.368 820.318 799.786 817.706 793.957C815.053 787.968 813.284 782.863 814.088 782.903C814.691 782.903 817.183 787.204 819.716 793.073C822.248 798.941 823.896 803.886 823.333 804.127Z" fill="#278DB4"/>
<g opacity="0.1">
<path d="M823.333 804.127C822.77 804.368 820.318 799.786 817.706 793.957C815.053 787.968 813.284 782.863 814.088 782.903C814.691 782.903 817.183 787.204 819.716 793.073C822.248 798.941 823.896 803.886 823.333 804.127Z" fill="black"/>
</g>
<path d="M1010.85 883.647L897.807 846.524L874.705 916.87L987.747 953.993L1010.85 883.647Z" fill="#278DB4"/>
<path d="M1010.73 883.676C1010.73 883.676 1009 884.64 1005.7 885.967C1002.01 887.414 997.263 889.263 991.635 891.474C979.697 896.056 963.136 902.246 944.605 908.999L943.842 909.281L943.359 908.638C942.756 907.834 942.113 906.99 941.47 906.145C929.13 889.866 918.076 875.074 910.157 864.261C906.419 859.116 903.324 854.815 900.872 851.438C898.701 848.383 897.576 846.655 897.696 846.534C897.817 846.454 899.184 848.021 901.555 850.916C904.128 854.171 907.464 858.352 911.403 863.336C919.644 873.868 930.898 888.539 943.239 904.819C943.882 905.663 944.525 906.507 945.128 907.311L943.882 906.949C962.412 900.196 979.054 894.247 991.153 890.067C996.901 888.137 1001.68 886.489 1005.46 885.203C1008.84 884.118 1010.73 883.555 1010.81 883.716L1010.73 883.676Z" fill="#278DB4"/>
<g opacity="0.2">
<path d="M1010.73 883.676C1010.73 883.676 1009 884.64 1005.7 885.967C1002.01 887.414 997.263 889.263 991.635 891.474C979.697 896.056 963.136 902.246 944.605 908.999L943.842 909.281L943.359 908.638C942.756 907.834 942.113 906.99 941.47 906.145C929.13 889.866 918.076 875.074 910.157 864.261C906.419 859.116 903.324 854.815 900.872 851.438C898.701 848.383 897.576 846.655 897.696 846.534C897.817 846.454 899.184 848.021 901.555 850.916C904.128 854.171 907.464 858.352 911.403 863.336C919.644 873.868 930.898 888.539 943.239 904.819C943.882 905.663 944.525 906.507 945.128 907.311L943.882 906.949C962.412 900.196 979.054 894.247 991.153 890.067C996.901 888.137 1001.68 886.489 1005.46 885.203C1008.84 884.118 1010.73 883.555 1010.81 883.716L1010.73 883.676Z" fill="black"/>
</g>
<path d="M930.336 889.665C930.618 890.227 918.318 896.739 902.922 904.256C887.527 911.773 874.825 917.44 874.544 916.877C874.262 916.315 886.522 909.803 901.958 902.286C917.353 894.769 930.055 889.102 930.336 889.665Z" fill="#278DB4"/>
<g opacity="0.2">
<path d="M930.336 889.665C930.618 890.227 918.318 896.739 902.922 904.256C887.527 911.773 874.825 917.44 874.544 916.877C874.262 916.315 886.522 909.803 901.958 902.286C917.353 894.769 930.055 889.102 930.336 889.665Z" fill="black"/>
</g>
<path d="M989.706 954.662C989.143 954.903 983.355 942.885 976.803 927.771C970.251 912.657 965.387 900.236 965.91 899.995C966.472 899.754 972.261 911.773 978.813 926.887C985.365 941.96 990.228 954.421 989.706 954.662Z" fill="#278DB4"/>
<g opacity="0.2">
<path d="M989.706 954.662C989.143 954.903 983.355 942.885 976.803 927.771C970.251 912.657 965.387 900.236 965.91 899.995C966.472 899.754 972.261 911.773 978.813 926.887C985.365 941.96 990.228 954.421 989.706 954.662Z" fill="black"/>
</g>
<path d="M903.929 863.819C896.05 869.607 884.996 867.919 879.248 860.04C873.46 852.162 875.148 841.108 883.027 835.359C890.905 829.571 901.959 831.259 907.707 839.138C913.495 847.016 911.807 858.07 903.929 863.819Z" fill="#263238"/>
<path d="M904.611 846.373C904.772 846.655 899.466 849.951 892.753 853.729C891.789 854.252 890.824 854.774 889.899 855.297L889.377 855.578L889.096 855.096C886.081 849.75 883.991 845.69 884.232 845.569C884.473 845.409 886.965 849.267 890.1 854.533L889.297 854.332C890.221 853.81 891.146 853.287 892.11 852.724C898.823 848.946 904.37 846.132 904.531 846.413L904.611 846.373Z" fill="white"/>
<path d="M938.199 788.812L878.967 769.36L866.864 806.214L926.097 825.665L938.199 788.812Z" fill="#278DB4"/>
<g opacity="0.2">
<path d="M938.199 788.812L878.967 769.36L866.864 806.214L926.097 825.665L938.199 788.812Z" fill="black"/>
</g>
<path d="M938.136 788.852C938.136 788.852 937.212 789.335 935.483 790.058C933.554 790.822 931.062 791.787 928.127 792.952C921.857 795.364 913.174 798.58 903.487 802.117L903.085 802.278L902.844 801.956C902.522 801.554 902.201 801.112 901.839 800.67C895.367 792.148 889.579 784.391 885.439 778.723C883.469 776.03 881.861 773.779 880.575 772.01C879.45 770.402 878.847 769.478 878.927 769.437C879.007 769.397 879.691 770.201 880.937 771.729C882.304 773.457 884.032 775.628 886.082 778.24C890.383 783.747 896.292 791.425 902.763 799.987C903.085 800.429 903.447 800.871 903.728 801.273L903.085 801.072C912.772 797.535 921.535 794.44 927.846 792.229C930.861 791.224 933.353 790.34 935.323 789.696C937.091 789.134 938.096 788.852 938.096 788.893L938.136 788.852Z" fill="#278DB4"/>
<g opacity="0.2">
<path d="M938.136 788.852C938.136 788.852 937.212 789.335 935.483 790.058C933.554 790.822 931.062 791.787 928.127 792.952C921.857 795.364 913.174 798.58 903.487 802.117L903.085 802.278L902.844 801.956C902.522 801.554 902.201 801.112 901.839 800.67C895.367 792.148 889.579 784.391 885.439 778.723C883.469 776.03 881.861 773.779 880.575 772.01C879.45 770.402 878.847 769.478 878.927 769.437C879.007 769.397 879.691 770.201 880.937 771.729C882.304 773.457 884.032 775.628 886.082 778.24C890.383 783.747 896.292 791.425 902.763 799.987C903.085 800.429 903.447 800.871 903.728 801.273L903.085 801.072C912.772 797.535 921.535 794.44 927.846 792.229C930.861 791.224 933.353 790.34 935.323 789.696C937.091 789.134 938.096 788.852 938.096 788.893L938.136 788.852Z" fill="#278DB4"/>
</g>
<path d="M896.01 791.987C896.13 792.269 889.739 795.685 881.659 799.625C873.58 803.564 866.948 806.538 866.787 806.217C866.666 805.935 873.058 802.519 881.137 798.579C889.216 794.64 895.849 791.666 896.01 791.987Z" fill="#278DB4"/>
<g opacity="0.2">
<path d="M896.01 791.987C896.13 792.269 889.739 795.685 881.659 799.625C873.58 803.564 866.948 806.538 866.787 806.217C866.666 805.935 873.058 802.519 881.137 798.579C889.216 794.64 895.849 791.666 896.01 791.987Z" fill="#278DB4"/>
</g>
<path d="M927.121 826.034C926.84 826.154 923.785 819.843 920.368 811.965C916.911 804.046 914.379 797.534 914.66 797.414C914.941 797.293 917.996 803.604 921.413 811.483C924.87 819.401 927.402 825.913 927.121 826.034Z" fill="#278DB4"/>
<g opacity="0.2">
<path d="M927.121 826.034C926.84 826.154 923.785 819.843 920.368 811.965C916.911 804.046 914.379 797.534 914.66 797.414C914.941 797.293 917.996 803.604 921.413 811.483C924.87 819.401 927.402 825.913 927.121 826.034Z" fill="#278DB4"/>
</g>
<path d="M849.863 1037.71H1018.13L1084.81 851.519H1075.45L1009.36 1028.62L849.863 1029.55V1037.71Z" fill="#455A64"/>
<path d="M775.461 1061.22L781.732 1644.43H798.815L791.861 1056.92L775.461 1061.22Z" fill="#263238"/>
<path d="M1135.7 1055.56C1133.41 1066.69 1151.14 1645.8 1151.14 1645.8H1167.29L1154.23 1055.56H1135.7Z" fill="#263238"/>
<path d="M1332.5 1037.71H616.846V1067.21H675.934L637.507 1642.54L654.309 1643.47L692.777 1067.21H1272.25L1300.34 1643.71H1317.19L1289.13 1067.21H1332.5V1037.71Z" fill="#263238"/>
<path d="M928.607 1622.49L928.767 1578.27L845.923 1577.42L844.998 1642.1L850.143 1642.5C872.975 1643.99 966.391 1648.53 981.706 1644.07C998.789 1639.09 928.607 1622.53 928.607 1622.53V1622.49Z" fill="#278DB4"/>
<path d="M875.064 1641.78C873.939 1634.87 870.16 1628.39 864.694 1624.01C859.187 1619.63 852.394 1617.3 845.399 1617.78L845.158 1640.93L875.104 1641.78H875.064Z" fill="#F5F5F5"/>
<path d="M962.894 1631.81C962.894 1631.81 987.494 1639.17 984.359 1643.23C981.224 1647.25 886.682 1646.24 844.998 1642.14L845.159 1640.29L955.458 1642.42C955.458 1642.42 958.07 1631.97 962.894 1631.85V1631.81Z" fill="#F5F5F5"/>
<path d="M843.873 1640.21C843.873 1640.21 844.356 1640.29 845.28 1640.37C846.526 1640.45 847.853 1640.57 849.38 1640.65C853.48 1640.85 858.505 1641.14 864.414 1641.46C877.116 1642.06 894.682 1642.62 914.096 1642.86C933.511 1643.11 951.117 1642.86 963.819 1642.58C969.768 1642.38 974.793 1642.26 978.893 1642.1C980.42 1642.02 981.747 1641.98 982.993 1641.9C983.918 1641.86 984.4 1641.78 984.4 1641.78C984.4 1641.78 983.918 1641.74 982.953 1641.7C981.707 1641.7 980.38 1641.7 978.853 1641.7C974.753 1641.7 969.728 1641.78 963.779 1641.86C951.077 1641.98 933.471 1642.06 914.096 1641.86C894.682 1641.62 877.116 1641.18 864.414 1640.73C858.465 1640.53 853.44 1640.37 849.34 1640.25C847.813 1640.25 846.486 1640.17 845.24 1640.13C844.316 1640.13 843.793 1640.13 843.793 1640.13L843.873 1640.21Z" fill="#263238"/>
<path d="M955.458 1643.71C955.78 1643.75 956.021 1640.17 958.352 1636.55C960.603 1632.9 963.698 1631.09 963.538 1630.85C963.497 1630.6 959.92 1632.13 957.508 1636.03C955.056 1639.89 955.217 1643.79 955.458 1643.71Z" fill="#263238"/>
<path d="M931.14 1631.05C931.382 1631.21 932.547 1629.8 933.793 1627.91C935.039 1626.02 935.843 1624.37 935.602 1624.21C935.361 1624.05 934.195 1625.46 932.949 1627.35C931.703 1629.24 930.899 1630.89 931.14 1631.05Z" fill="#263238"/>
<path d="M924.468 1627.43C924.669 1627.63 925.955 1626.79 927.402 1625.5C928.849 1624.21 929.854 1623.05 929.694 1622.85C929.493 1622.65 928.206 1623.49 926.759 1624.78C925.312 1626.06 924.307 1627.23 924.468 1627.43Z" fill="#263238"/>
<path d="M920.326 1619.55C920.326 1619.83 922.256 1620.11 924.627 1620.15C926.999 1620.19 928.968 1620.03 928.968 1619.75C928.968 1619.47 927.039 1619.19 924.667 1619.15C922.296 1619.11 920.326 1619.27 920.326 1619.55Z" fill="#263238"/>
<path d="M918.92 1614.04C918.84 1614.28 920.93 1615.25 923.744 1615.49C926.558 1615.73 928.768 1615.13 928.728 1614.89C928.688 1614.61 926.477 1614.73 923.824 1614.49C921.171 1614.28 919.041 1613.76 918.92 1614.04Z" fill="#263238"/>
<path d="M934.033 1623.85C934.033 1623.85 936.083 1624.25 939.339 1623.85C940.987 1623.69 942.917 1623.29 945.007 1622.65C946.052 1622.28 947.137 1622.04 948.263 1621.36C948.785 1621 949.388 1620.52 949.589 1619.71C949.83 1618.91 949.388 1618.02 948.825 1617.58C943.761 1614.89 938.656 1617.7 936.726 1620.31C935.681 1621.64 935.199 1622.97 934.958 1623.85C934.717 1624.78 934.757 1625.3 934.797 1625.3C934.998 1625.38 935.199 1623.21 937.289 1620.8C938.334 1619.59 939.862 1618.47 941.871 1617.9C943.761 1617.38 946.414 1617.26 948.223 1618.39C949.067 1619.03 948.705 1619.99 947.78 1620.56C946.896 1621.12 945.771 1621.44 944.766 1621.8C942.756 1622.49 940.867 1622.89 939.259 1623.17C936.083 1623.69 934.033 1623.69 934.033 1623.85Z" fill="#263238"/>
<path d="M935.4 1624.13C935.4 1624.13 936.284 1622.85 936.043 1620.44C935.922 1619.27 935.52 1617.86 934.636 1616.54C933.711 1615.33 932.505 1613.72 930.254 1613.76C929.008 1613.92 928.405 1615.29 928.606 1616.21C928.687 1617.14 929.089 1617.94 929.491 1618.59C930.254 1619.91 931.139 1621 931.983 1621.84C933.631 1623.49 934.957 1624.13 934.998 1624.01C935.078 1623.89 933.952 1623.05 932.505 1621.36C931.782 1620.52 931.018 1619.43 930.295 1618.14C929.571 1617.02 929.089 1614.97 930.455 1614.77C931.782 1614.65 933.149 1616.01 933.952 1617.06C934.756 1618.22 935.239 1619.47 935.44 1620.52C935.842 1622.69 935.319 1624.05 935.48 1624.09L935.4 1624.13Z" fill="#263238"/>
<path d="M845.803 1617.58C845.803 1617.58 848.174 1617.38 851.913 1617.86C855.611 1618.3 860.756 1619.87 865.218 1623.49C869.679 1627.11 872.252 1631.85 873.418 1635.39C874.664 1638.97 874.744 1641.34 874.945 1641.34C875.026 1641.34 875.026 1640.73 874.945 1639.65C874.865 1638.56 874.624 1637.04 874.101 1635.19C873.056 1631.49 870.483 1626.54 865.861 1622.73C861.238 1618.95 855.852 1617.42 851.993 1617.14C850.064 1616.98 848.496 1617.06 847.451 1617.22C846.365 1617.38 845.803 1617.5 845.803 1617.58Z" fill="#263238"/>
<path d="M854.767 1583.21C854.486 1583.21 854.084 1590.81 853.883 1600.22C853.642 1609.62 853.722 1617.22 854.004 1617.26C854.285 1617.26 854.687 1609.66 854.888 1600.26C855.089 1590.85 855.049 1583.25 854.767 1583.21Z" fill="#263238"/>
<path d="M885.557 1633.82C885.557 1634.06 890.903 1635.03 897.616 1635.15C904.328 1635.31 909.755 1634.58 909.755 1634.3C909.755 1634.02 904.328 1634.3 897.656 1634.14C890.983 1634.02 885.597 1633.54 885.557 1633.82Z" fill="#263238"/>
<path d="M869.358 1633.62C869.157 1633.82 869.8 1634.78 870.323 1636.03C870.886 1637.28 871.167 1638.36 871.448 1638.36C871.73 1638.36 871.89 1637.08 871.247 1635.63C870.604 1634.18 869.559 1633.42 869.358 1633.62Z" fill="#263238"/>
<path d="M863.289 1625.94C863.289 1625.94 863.611 1626.99 864.455 1627.87C865.299 1628.76 866.143 1629.32 866.344 1629.12C866.545 1628.92 866.022 1628.07 865.178 1627.19C864.334 1626.3 863.49 1625.74 863.289 1625.94Z" fill="#263238"/>
<path d="M854.605 1622.36C854.645 1622.65 855.771 1622.65 856.977 1623.09C858.183 1623.49 859.067 1624.17 859.268 1624.01C859.509 1623.85 858.826 1622.69 857.298 1622.16C855.811 1621.64 854.525 1622.16 854.605 1622.4V1622.36Z" fill="#263238"/>
<path d="M848.376 1620.68C848.255 1620.92 848.738 1621.36 849.421 1621.64C850.104 1621.92 850.748 1621.92 850.828 1621.64C850.949 1621.4 850.466 1620.96 849.783 1620.68C849.099 1620.39 848.456 1620.39 848.376 1620.68Z" fill="#263238"/>
<path d="M1091.69 1577.87L1073.64 1537.51L997.787 1570.83L1023.55 1630.16L1028.38 1628.39C1049.8 1620.36 1136.83 1586.07 1148.93 1575.66C1162.43 1564.08 1091.65 1577.87 1091.65 1577.87H1091.69Z" fill="#278DB4"/>
<path d="M1050.81 1617.46C1046.95 1611.59 1040.84 1607.25 1034.04 1605.52C1027.25 1603.79 1020.1 1604.48 1013.91 1607.81L1023.19 1629L1050.81 1617.46Z" fill="#F5F5F5"/>
<path d="M1126.78 1572.24C1126.78 1572.24 1152.22 1568.82 1151.06 1573.81C1149.89 1578.75 1063.27 1616.74 1023.59 1630.16L1022.99 1628.43L1124.41 1584.98C1124.41 1584.98 1122.48 1574.41 1126.82 1572.28L1126.78 1572.24Z" fill="#F5F5F5"/>
<path d="M1021.74 1628.88C1021.74 1628.88 1022.23 1628.76 1023.11 1628.43C1024.28 1627.99 1025.52 1627.55 1026.97 1627.03C1030.79 1625.54 1035.49 1623.73 1041 1621.56C1052.82 1616.86 1069.1 1610.19 1086.86 1602.39C1104.67 1594.59 1120.59 1587.19 1132.08 1581.69C1137.43 1579.07 1141.93 1576.86 1145.63 1575.05C1147 1574.37 1148.2 1573.77 1149.29 1573.2C1150.13 1572.76 1150.53 1572.52 1150.53 1572.48C1150.53 1572.48 1150.05 1572.64 1149.21 1573C1148.08 1573.53 1146.88 1574.05 1145.47 1574.69C1141.77 1576.42 1137.19 1578.51 1131.8 1581C1120.27 1586.35 1104.27 1593.62 1086.5 1601.42C1068.73 1609.18 1052.53 1615.97 1040.76 1620.84C1035.25 1623.09 1030.63 1625.02 1026.85 1626.59C1025.44 1627.19 1024.2 1627.71 1023.07 1628.19C1022.23 1628.55 1021.78 1628.8 1021.78 1628.8L1021.74 1628.88Z" fill="#263238"/>
<path d="M1124.85 1586.15C1125.13 1586.07 1123.92 1582.69 1124.53 1578.43C1125.09 1574.17 1127.18 1571.28 1126.9 1571.07C1126.74 1570.87 1124.12 1573.73 1123.52 1578.27C1122.88 1582.81 1124.61 1586.27 1124.81 1586.11L1124.85 1586.15Z" fill="#263238"/>
<path d="M1097.47 1584.58C1097.76 1584.62 1098.24 1582.85 1098.6 1580.64C1098.96 1578.43 1099 1576.58 1098.72 1576.54C1098.44 1576.5 1097.96 1578.27 1097.59 1580.48C1097.23 1582.69 1097.19 1584.54 1097.47 1584.58Z" fill="#263238"/>
<path d="M1089.92 1584.06C1090.16 1584.18 1091 1582.85 1091.81 1581.08C1092.61 1579.35 1093.05 1577.83 1092.77 1577.71C1092.53 1577.59 1091.69 1578.91 1090.88 1580.68C1090.08 1582.41 1089.64 1583.94 1089.92 1584.06Z" fill="#263238"/>
<path d="M1082.92 1578.59C1083.04 1578.83 1084.89 1578.31 1087.1 1577.34C1089.31 1576.42 1091 1575.46 1090.88 1575.17C1090.76 1574.93 1088.91 1575.46 1086.7 1576.42C1084.49 1577.34 1082.8 1578.31 1082.92 1578.59Z" fill="#263238"/>
<path d="M1079.35 1574.13C1079.35 1574.41 1081.68 1574.41 1084.33 1573.49C1086.98 1572.56 1088.79 1571.07 1088.63 1570.87C1088.47 1570.63 1086.54 1571.64 1084.01 1572.52C1081.48 1573.41 1079.35 1573.85 1079.35 1574.13Z" fill="#263238"/>
<path d="M1097.15 1576.86C1097.15 1576.86 1099.16 1576.38 1102.02 1574.69C1103.42 1573.85 1105.07 1572.72 1106.72 1571.27C1107.52 1570.51 1108.41 1569.83 1109.17 1568.74C1109.49 1568.22 1109.86 1567.54 1109.69 1566.69C1109.57 1565.89 1108.81 1565.21 1108.09 1565.08C1102.38 1564.72 1098.84 1569.39 1098.16 1572.56C1097.76 1574.21 1097.84 1575.62 1098 1576.5C1098.16 1577.43 1098.4 1577.91 1098.44 1577.87C1098.64 1577.87 1097.92 1575.82 1098.84 1572.72C1099.28 1571.23 1100.25 1569.55 1101.82 1568.18C1103.3 1566.93 1105.71 1565.69 1107.8 1566.01C1108.85 1566.25 1108.93 1567.3 1108.29 1568.18C1107.72 1569.06 1106.8 1569.83 1106.08 1570.55C1104.51 1572 1102.98 1573.16 1101.61 1574.05C1098.92 1575.86 1097.07 1576.66 1097.15 1576.82V1576.86Z" fill="#263238"/>
<path d="M1098.52 1576.54C1098.52 1576.54 1098.8 1575.01 1097.6 1572.92C1096.99 1571.92 1096.07 1570.79 1094.7 1569.95C1093.37 1569.23 1091.61 1568.22 1089.56 1569.23C1088.47 1569.87 1088.51 1571.4 1089.03 1572.12C1089.52 1572.92 1090.2 1573.49 1090.8 1573.93C1092.05 1574.81 1093.29 1575.46 1094.38 1575.86C1096.55 1576.66 1098.04 1576.74 1098.04 1576.62C1098.04 1576.46 1096.67 1576.18 1094.66 1575.21C1093.66 1574.73 1092.49 1574.09 1091.32 1573.16C1090.2 1572.44 1088.95 1570.79 1090.08 1570.03C1091.24 1569.39 1093.01 1570.03 1094.18 1570.67C1095.42 1571.4 1096.35 1572.32 1096.95 1573.25C1098.2 1575.05 1098.28 1576.54 1098.48 1576.5L1098.52 1576.54Z" fill="#263238"/>
<path d="M1014.19 1607.41C1014.19 1607.41 1016.28 1606.25 1019.9 1605.16C1023.47 1604.04 1028.78 1603.35 1034.33 1604.84C1039.87 1606.33 1044.17 1609.54 1046.71 1612.28C1049.28 1615.01 1050.36 1617.14 1050.53 1617.06C1050.57 1617.06 1050.36 1616.46 1049.84 1615.53C1049.32 1614.57 1048.48 1613.28 1047.23 1611.79C1044.78 1608.86 1040.36 1605.4 1034.57 1603.83C1028.78 1602.31 1023.23 1603.15 1019.65 1604.44C1017.85 1605.08 1016.44 1605.8 1015.51 1606.37C1014.59 1606.93 1014.15 1607.33 1014.19 1607.37V1607.41Z" fill="#263238"/>
<path d="M1008.2 1572.4C1007.96 1572.52 1010.69 1579.6 1014.39 1588.28C1018.05 1596.92 1021.22 1603.87 1021.5 1603.75C1021.74 1603.63 1019.01 1596.56 1015.31 1587.88C1011.66 1579.23 1008.48 1572.28 1008.2 1572.4Z" fill="#263238"/>
<path d="M1057.12 1605.88C1057.2 1606.13 1062.5 1604.8 1068.65 1602.15C1074.84 1599.49 1079.51 1596.6 1079.35 1596.4C1079.19 1596.16 1074.4 1598.61 1068.25 1601.22C1062.14 1603.83 1057 1605.6 1057.08 1605.88H1057.12Z" fill="#263238"/>
<path d="M1042.24 1612.36C1042.12 1612.64 1043.13 1613.24 1044.13 1614.12C1045.14 1615.01 1045.86 1615.93 1046.1 1615.81C1046.34 1615.69 1045.98 1614.45 1044.82 1613.4C1043.65 1612.36 1042.36 1612.11 1042.28 1612.36H1042.24Z" fill="#263238"/>
<path d="M1033.56 1607.85C1033.44 1608.09 1034.29 1608.7 1035.41 1609.14C1036.54 1609.58 1037.54 1609.74 1037.66 1609.5C1037.78 1609.26 1036.94 1608.66 1035.81 1608.22C1034.69 1607.77 1033.68 1607.61 1033.56 1607.85Z" fill="#263238"/>
<path d="M1024.16 1608.18C1024.32 1608.42 1025.32 1607.97 1026.61 1607.85C1027.89 1607.73 1028.94 1608.01 1029.1 1607.73C1029.26 1607.49 1028.14 1606.69 1026.53 1606.85C1024.92 1606.97 1024 1607.97 1024.16 1608.18Z" fill="#263238"/>
<path d="M1017.8 1609.18C1017.8 1609.46 1018.41 1609.66 1019.17 1609.62C1019.89 1609.62 1020.5 1609.34 1020.5 1609.06C1020.5 1608.78 1019.89 1608.58 1019.13 1608.62C1018.41 1608.62 1017.8 1608.9 1017.8 1609.18Z" fill="#263238"/>
<path d="M339.973 1282.38L280.16 835.44C278.552 823.502 288.441 813.131 300.459 814.136L444.604 826.316C457.868 827.441 468.4 837.973 469.525 851.278L504.617 1274.47L339.973 1282.42V1282.38Z" fill="#278DB4"/>
<g opacity="0.2">
<path d="M339.973 1282.38L280.16 835.44C278.552 823.502 288.441 813.131 300.459 814.136L444.604 826.316C457.868 827.441 468.4 837.973 469.525 851.278L504.617 1274.47L339.973 1282.42V1282.38Z" fill="black"/>
</g>
<path d="M479.052 625.535C477.846 608.532 473.385 591.93 470.892 575.048C468.4 558.166 468.038 540.359 474.711 524.682C482.228 506.915 498.306 493.65 516.274 486.656C534.242 479.662 554.059 478.496 573.273 480.144C576.73 480.426 580.267 480.868 583.362 482.436C586.457 484.003 589.03 487.018 589.15 490.515C589.271 494.012 586.176 497.509 582.719 497.027C590.035 498.032 597.39 499.077 604.304 501.649C607.038 502.695 609.892 504.101 611.298 506.674C612.866 509.608 612.143 513.347 610.334 516.16C608.525 518.974 605.791 520.984 603.098 522.994C606.475 521.908 610.133 524.803 610.896 528.259C611.66 531.716 610.213 535.294 608.123 538.188C606.073 541.082 603.42 543.454 601.29 546.308C592.607 557.884 594.295 573.923 596.426 588.232" fill="#263238"/>
<path d="M480.66 725.382L561.897 723.935C562.983 714.529 564.55 677.991 564.55 677.991C564.55 677.991 598.516 674.856 601.008 641.251C603.501 607.647 602.415 530.068 602.415 530.068C564.51 510.935 519.249 513.829 484.077 537.585L478.852 541.122L480.66 725.423V725.382Z" fill="#FFBE9D"/>
<path d="M591.121 588.313C589.231 586.383 589.272 583.288 591.201 581.399C593.13 579.51 596.226 579.55 598.115 581.479C600.004 583.409 599.964 586.504 598.034 588.393C596.105 590.282 593.01 590.242 591.121 588.313Z" fill="#263238"/>
<path d="M599.763 580.153C599.2 580.716 596.065 577.942 591.443 577.661C586.82 577.299 583.323 579.55 582.841 578.907C582.599 578.626 583.202 577.621 584.73 576.575C586.257 575.571 588.79 574.646 591.644 574.847C594.538 575.048 596.909 576.334 598.236 577.58C599.602 578.826 600.045 579.912 599.763 580.153Z" fill="#263238"/>
<path d="M546.14 580.917C548.351 582.484 548.874 585.539 547.346 587.75C545.778 589.961 542.724 590.483 540.513 588.956C538.302 587.388 537.779 584.333 539.307 582.123C540.875 579.912 543.929 579.389 546.14 580.917Z" fill="#263238"/>
<path d="M549.195 581.158C548.632 581.721 545.497 578.947 540.874 578.666C536.252 578.304 532.755 580.555 532.272 579.912C532.031 579.63 532.634 578.625 534.161 577.58C535.689 576.575 538.221 575.651 541.075 575.852C543.969 576.053 546.341 577.339 547.667 578.585C549.034 579.831 549.476 580.917 549.195 581.158Z" fill="#263238"/>
<path d="M565.394 620.51C565.394 620.149 568.288 619.747 572.991 619.385C574.197 619.345 575.162 619.103 575.322 618.46C575.604 617.737 575.202 616.41 574.679 614.923C573.674 611.788 572.67 608.612 571.584 605.276C567.364 591.569 564.469 580.274 565.193 580.033C565.876 579.832 569.896 590.765 574.117 604.472C575.121 607.808 576.046 611.024 577.011 614.159C577.372 615.606 578.096 617.295 577.372 619.224C576.971 620.189 575.966 620.872 575.162 621.033C574.358 621.234 573.674 621.194 573.071 621.194C568.369 621.073 565.434 620.832 565.434 620.47L565.394 620.51Z" fill="#263238"/>
<path d="M550.04 624.691C545.377 621.515 562.903 632.569 572.349 632.69C572.349 632.69 566.4 641.01 556.914 636.87C547.066 632.569 550.04 624.691 550.04 624.691Z" fill="white"/>
<path d="M564.63 677.469C564.63 677.469 543.286 677.87 521.58 662.314C521.58 662.314 530.463 687.156 564.188 686.191L564.63 677.469Z" fill="#EB996E"/>
<path d="M477.767 566.567L479.536 610.18C479.536 610.18 494.811 605.517 495.856 605.075C496.901 604.633 495.574 551.654 495.574 551.654C495.574 551.654 493.444 531.676 506.468 526.933C520.175 521.949 526.124 531.917 545.539 535.173C609.571 545.946 605.15 526.33 605.15 526.33C605.15 526.33 613.229 517.688 596.789 508.201C579.786 498.394 539.228 495.499 516.678 503.257C472.341 518.532 469.809 533.646 469.809 547.031C469.809 565.763 477.767 566.567 477.767 566.567Z" fill="#263238"/>
<path d="M485.323 570.908C484.6 570.627 460.362 567.491 462.653 596.071C464.944 624.65 493.081 612.913 493.041 612.069C493.041 611.265 485.283 570.908 485.283 570.908H485.323Z" fill="#FFBE9D"/>
<path d="M483.473 602.743C483.473 602.743 482.991 603.145 482.187 603.588C481.383 604.03 480.017 604.391 478.489 603.949C475.394 603.065 472.46 598.483 471.897 593.337C471.616 590.725 471.977 588.233 472.701 586.102C473.424 583.932 474.63 582.364 476.158 581.962C477.645 581.48 478.811 582.324 479.213 583.087C479.655 583.851 479.534 584.454 479.695 584.494C479.775 584.575 480.258 583.972 479.936 582.806C479.775 582.243 479.373 581.6 478.65 581.118C477.926 580.595 476.881 580.394 475.836 580.595C473.625 580.917 471.817 583.128 470.972 585.459C470.008 587.831 469.566 590.644 469.887 593.579C470.53 599.327 473.907 604.472 478.127 605.356C480.177 605.718 481.825 604.994 482.629 604.231C483.473 603.467 483.554 602.784 483.473 602.743Z" fill="#EB996E"/>
<path d="M804.562 956.431C804.562 956.431 844.598 954.502 852.919 958.16C866.867 964.229 908.229 1029.15 906.139 1029.15C899.908 1029.15 887.005 1029.11 887.005 1029.11L822.611 1004.71L807.457 1008.53L804.562 956.431Z" fill="#FFBE9D"/>
<path d="M977.367 1142.7C977.367 1142.7 1097.76 1559.34 1097.92 1557.17C1098.08 1555.04 990.11 1609.14 990.11 1609.14L917.193 1307.91L977.367 1142.7Z" fill="#263238"/>
<path d="M987.739 1611.71L1101.7 1556.12L1096.75 1540.89L981.91 1596.56L987.739 1611.71Z" fill="#455A64"/>
<path d="M972.786 1458.48C972.183 1458.64 970.937 1456.07 969.932 1452.7C968.927 1449.32 968.605 1446.47 969.208 1446.3C969.811 1446.14 971.057 1448.72 972.062 1452.09C973.067 1455.47 973.389 1458.32 972.786 1458.48Z" fill="#455A64"/>
<path d="M980.222 1482.8C979.659 1483 978.332 1480.43 977.287 1477.05C976.242 1473.68 975.88 1470.82 976.483 1470.66C977.086 1470.5 978.372 1473.08 979.418 1476.41C980.463 1479.75 980.824 1482.64 980.222 1482.8Z" fill="#455A64"/>
<path d="M987.98 1507C987.417 1507.2 986.051 1504.63 984.965 1501.29C983.88 1497.96 983.478 1495.1 984.041 1494.9C984.604 1494.7 985.97 1497.27 987.056 1500.61C988.141 1503.95 988.543 1506.8 987.98 1507Z" fill="#455A64"/>
<path d="M996.1 1531.12C995.537 1531.32 994.13 1528.79 993.005 1525.45C991.879 1522.11 991.437 1519.26 992 1519.06C992.563 1518.86 993.969 1521.39 995.095 1524.73C996.22 1528.06 996.663 1530.92 996.1 1531.12Z" fill="#455A64"/>
<path d="M1004.54 1555.12C1003.98 1555.32 1002.53 1552.83 1001.37 1549.49C1000.2 1546.19 999.677 1543.34 1000.28 1543.14C1000.84 1542.94 1002.29 1545.47 1003.46 1548.77C1004.62 1552.06 1005.1 1554.92 1004.54 1555.12Z" fill="#455A64"/>
<path d="M1013.34 1578.99C1012.78 1579.19 1011.33 1576.7 1010.09 1573.41C1008.84 1570.11 1008.32 1567.26 1008.92 1567.05C1009.49 1566.85 1010.93 1569.35 1012.18 1572.64C1013.38 1575.94 1013.95 1578.79 1013.34 1578.99Z" fill="#455A64"/>
<path d="M1006.91 1589C1006.91 1589 1005.91 1587.51 1004.5 1584.62C1003.09 1581.77 1001.16 1577.55 998.954 1572.24C994.492 1561.71 988.985 1546.88 983.438 1530.36C977.891 1513.79 973.228 1498.72 969.932 1487.79C968.404 1482.64 967.158 1478.3 966.113 1474.8C965.269 1471.71 964.827 1470.02 964.988 1469.94C965.149 1469.9 965.832 1471.51 966.917 1474.52C968.043 1477.54 969.57 1481.88 971.419 1487.31C975.198 1498.6 980.102 1513.35 985.528 1529.63C991.075 1546.15 996.301 1560.98 1000.4 1571.64C1002.33 1576.62 1003.98 1580.84 1005.3 1584.22C1006.47 1587.19 1007.07 1588.88 1006.91 1588.92V1589Z" fill="#455A64"/>
<path d="M416.305 1113.76C417.31 1091.69 404.769 1234.87 514.827 1238.65C625.005 1242.47 849.743 1240.78 849.743 1240.78L823.414 1603.87H955.459L983.034 1217.75C983.034 1217.75 997.103 1105.84 920.529 1091.57C872.615 1082.61 574.639 1079.75 574.639 1079.75L416.305 1113.76Z" fill="#263238"/>
<path d="M820.4 1604.64H959.399V1583.01L820.4 1583.21V1604.64Z" fill="#455A64"/>
<path d="M602.857 1221.49C602.857 1221.49 603.34 1221.41 604.264 1221.33C605.309 1221.29 606.676 1221.2 608.445 1221.08C612.223 1220.92 617.609 1220.68 624.523 1220.36C638.632 1219.84 658.931 1219.03 684.215 1218.07C734.983 1216.34 805.608 1213.89 885.559 1211.16H886.845L886.684 1212.4C884.875 1227.19 883.348 1242.83 882.061 1258.71C880.333 1281.38 878.605 1303.53 876.957 1324.91C875.228 1346.3 872.897 1366.88 870.887 1386.49C866.787 1425.68 863.089 1460.98 859.953 1490.64C856.778 1520.19 854.205 1544.14 852.397 1560.86C851.472 1569.06 850.749 1575.46 850.226 1579.96C849.945 1582.05 849.744 1583.7 849.623 1584.9C849.462 1586.03 849.382 1586.59 849.342 1586.59C849.342 1586.59 849.342 1586.03 849.422 1584.9C849.502 1583.66 849.663 1582.01 849.824 1579.92C850.226 1575.42 850.829 1569.02 851.593 1560.78C853.241 1544.06 855.572 1520.11 858.466 1490.52C861.441 1460.82 864.978 1425.52 868.917 1386.29C870.847 1366.68 873.138 1346.1 874.826 1324.75C876.474 1303.37 878.162 1281.22 879.891 1258.55C881.177 1242.63 882.705 1226.99 884.554 1212.12L885.679 1213.37C805.729 1215.82 735.104 1217.99 684.295 1219.56C659.052 1220.24 638.713 1220.8 624.604 1221.16C617.69 1221.33 612.304 1221.41 608.525 1221.49C606.756 1221.49 605.39 1221.49 604.345 1221.49C603.42 1221.49 602.938 1221.49 602.938 1221.45L602.857 1221.49Z" fill="#455A64"/>
<path d="M615.6 1205.89C615.6 1206.49 612.786 1207.06 609.249 1207.14C605.752 1207.22 602.857 1206.77 602.857 1206.17C602.857 1205.57 605.671 1205.01 609.208 1204.93C612.706 1204.85 615.6 1205.29 615.6 1205.89Z" fill="#455A64"/>
<path d="M641.043 1205.29C641.043 1205.89 638.229 1206.45 634.692 1206.53C631.195 1206.61 628.301 1206.17 628.301 1205.57C628.301 1204.97 631.115 1204.4 634.652 1204.32C638.149 1204.24 641.043 1204.68 641.043 1205.29Z" fill="#455A64"/>
<path d="M666.447 1204.68C666.447 1205.29 663.634 1205.85 660.096 1205.93C656.599 1206.01 653.705 1205.57 653.705 1204.97C653.705 1204.36 656.519 1203.8 660.056 1203.72C663.553 1203.64 666.447 1204.08 666.447 1204.68Z" fill="#455A64"/>
<path d="M691.893 1204.08C691.893 1204.68 689.079 1205.25 685.542 1205.33C682.045 1205.41 679.15 1204.97 679.15 1204.36C679.15 1203.76 681.964 1203.2 685.501 1203.12C688.998 1203.04 691.893 1203.48 691.893 1204.08Z" fill="#455A64"/>
<path d="M717.336 1203.52C717.336 1204.12 714.522 1204.68 710.985 1204.76C707.488 1204.85 704.594 1204.4 704.594 1203.8C704.594 1203.2 707.408 1202.63 710.945 1202.55C714.442 1202.47 717.336 1202.92 717.336 1203.52Z" fill="#455A64"/>
<path d="M742.781 1202.92C742.781 1203.52 739.968 1204.08 736.43 1204.16C732.933 1204.24 730.039 1203.8 730.039 1203.2C730.039 1202.59 732.853 1202.03 736.39 1201.95C739.887 1201.87 742.781 1202.31 742.781 1202.92Z" fill="#455A64"/>
<path d="M768.225 1202.31C768.225 1202.92 765.411 1203.48 761.874 1203.56C758.377 1203.64 755.482 1203.2 755.482 1202.59C755.482 1201.99 758.296 1201.43 761.833 1201.35C765.331 1201.27 768.225 1201.71 768.225 1202.31Z" fill="#455A64"/>
<path d="M793.67 1201.71C793.67 1202.31 790.856 1202.88 787.319 1202.96C783.822 1203.04 780.928 1202.59 780.928 1201.99C780.928 1201.39 783.741 1200.83 787.279 1200.74C790.776 1200.66 793.67 1201.11 793.67 1201.71Z" fill="#455A64"/>
<path d="M819.113 1201.11C819.113 1201.71 816.3 1202.27 812.762 1202.35C809.265 1202.43 806.371 1201.99 806.371 1201.39C806.371 1200.79 809.185 1200.22 812.722 1200.14C816.219 1200.06 819.113 1200.5 819.113 1201.11Z" fill="#455A64"/>
<path d="M844.559 1200.5C844.559 1201.11 841.745 1201.67 838.208 1201.75C834.711 1201.83 831.816 1201.39 831.816 1200.79C831.816 1200.18 834.63 1199.62 838.167 1199.54C841.665 1199.46 844.559 1199.9 844.559 1200.5Z" fill="#455A64"/>
<path d="M870.002 1199.9C870.002 1200.5 867.188 1201.07 863.651 1201.15C860.154 1201.23 857.26 1200.79 857.26 1200.18C857.26 1199.58 860.074 1199.02 863.611 1198.94C867.108 1198.86 870.002 1199.3 870.002 1199.9Z" fill="#455A64"/>
<path d="M895.447 1199.3C895.447 1199.9 892.634 1200.46 889.096 1200.54C885.599 1200.62 882.705 1200.18 882.705 1199.58C882.705 1198.98 885.519 1198.41 889.056 1198.33C892.553 1198.25 895.447 1198.7 895.447 1199.3Z" fill="#455A64"/>
<path d="M895.406 1222.37C894.803 1222.33 894.602 1219.44 894.924 1215.94C895.285 1212.44 896.049 1209.67 896.652 1209.71C897.255 1209.75 897.456 1212.64 897.134 1216.14C896.773 1219.64 896.009 1222.41 895.406 1222.37Z" fill="#455A64"/>
<path d="M892.914 1247.69C892.311 1247.65 892.11 1244.76 892.431 1241.26C892.793 1237.77 893.557 1234.99 894.16 1235.03C894.763 1235.07 894.964 1237.97 894.642 1241.46C894.28 1244.96 893.517 1247.73 892.914 1247.69Z" fill="#455A64"/>
<path d="M890.422 1273.02C889.819 1272.98 889.618 1270.08 889.939 1266.59C890.301 1263.09 891.065 1260.32 891.668 1260.36C892.271 1260.4 892.472 1263.29 892.15 1266.79C891.788 1270.28 891.025 1273.06 890.422 1273.02Z" fill="#455A64"/>
<path d="M887.97 1298.34C887.367 1298.3 887.167 1295.41 887.488 1291.91C887.85 1288.41 888.614 1285.64 889.216 1285.68C889.819 1285.72 890.02 1288.61 889.699 1292.11C889.337 1295.61 888.573 1298.38 887.97 1298.34Z" fill="#455A64"/>
<path d="M885.478 1323.71C884.875 1323.67 884.674 1320.77 884.996 1317.27C885.358 1313.78 886.121 1311 886.724 1311.04C887.327 1311.08 887.528 1313.98 887.207 1317.48C886.845 1320.97 886.081 1323.75 885.478 1323.71Z" fill="#455A64"/>
<path d="M882.986 1349.03C882.383 1348.99 882.182 1346.1 882.504 1342.6C882.865 1339.1 883.629 1336.33 884.232 1336.37C884.835 1336.41 885.036 1339.3 884.715 1342.8C884.353 1346.3 883.589 1349.07 882.986 1349.03Z" fill="#455A64"/>
<path d="M880.494 1374.35C879.891 1374.31 879.69 1371.42 880.012 1367.92C880.373 1364.42 881.137 1361.65 881.74 1361.69C882.343 1361.73 882.544 1364.63 882.222 1368.12C881.861 1371.62 881.097 1374.39 880.494 1374.35Z" fill="#455A64"/>
<path d="M878.002 1399.68C877.399 1399.64 877.198 1396.74 877.519 1393.25C877.881 1389.75 878.645 1386.97 879.248 1387.02C879.851 1387.06 880.052 1389.95 879.73 1393.45C879.368 1396.94 878.605 1399.72 878.002 1399.68Z" fill="#455A64"/>
<path d="M875.551 1425C874.948 1424.96 874.747 1422.07 875.068 1418.57C875.43 1415.07 876.194 1412.3 876.797 1412.34C877.4 1412.38 877.601 1415.27 877.279 1418.77C876.917 1422.27 876.153 1425.04 875.551 1425Z" fill="#455A64"/>
<path d="M873.058 1450.32C872.455 1450.28 872.254 1447.39 872.576 1443.89C872.938 1440.4 873.701 1437.62 874.304 1437.66C874.907 1437.7 875.108 1440.6 874.787 1444.09C874.425 1447.59 873.661 1450.36 873.058 1450.32Z" fill="#455A64"/>
<path d="M870.566 1475.65C869.963 1475.61 869.762 1472.71 870.084 1469.22C870.446 1465.72 871.209 1462.95 871.812 1462.99C872.415 1463.03 872.616 1465.92 872.295 1469.42C871.933 1472.91 871.169 1475.69 870.566 1475.65Z" fill="#455A64"/>
<path d="M868.074 1500.97C867.471 1500.93 867.27 1498.04 867.592 1494.54C867.953 1491.04 868.717 1488.27 869.32 1488.31C869.923 1488.35 870.124 1491.24 869.802 1494.74C869.441 1498.24 868.677 1501.01 868.074 1500.97Z" fill="#455A64"/>
<path d="M865.582 1526.3C864.979 1526.26 864.778 1523.36 865.099 1519.86C865.461 1516.37 866.225 1513.59 866.828 1513.63C867.431 1513.67 867.632 1516.57 867.31 1520.07C866.948 1523.56 866.185 1526.34 865.582 1526.3Z" fill="#455A64"/>
<path d="M863.09 1551.66C862.487 1551.62 862.286 1548.73 862.607 1545.23C862.969 1541.73 863.733 1538.96 864.336 1539C864.939 1539.04 865.14 1541.93 864.818 1545.43C864.456 1548.93 863.692 1551.7 863.09 1551.66Z" fill="#455A64"/>
<path d="M860.636 1576.98C860.033 1576.94 859.833 1574.05 860.154 1570.55C860.516 1567.05 861.28 1564.28 861.883 1564.32C862.485 1564.36 862.686 1567.26 862.365 1570.75C862.003 1574.25 861.239 1577.02 860.636 1576.98Z" fill="#455A64"/>
<path d="M859.311 1590.41C858.708 1590.37 858.226 1590.13 858.266 1589.93C858.266 1589.73 858.789 1589.6 859.392 1589.64C859.994 1589.69 860.477 1589.93 860.437 1590.13C860.437 1590.33 859.914 1590.45 859.311 1590.41Z" fill="#455A64"/>
<path d="M867.75 1223.86C868.152 1224.34 864.253 1228.56 859.108 1233.26C853.923 1238.01 849.381 1241.5 848.938 1241.06C848.496 1240.62 852.395 1236.4 857.581 1231.66C862.806 1226.87 867.348 1223.38 867.75 1223.86Z" fill="#263238"/>
<path d="M876.876 1228.76C877.117 1229.32 870.766 1232.7 862.687 1236.36C854.607 1239.98 847.814 1242.47 847.573 1241.95C847.332 1241.38 853.683 1238.01 861.762 1234.35C869.842 1230.73 876.635 1228.24 876.876 1228.76Z" fill="#263238"/>
<path d="M608.364 940.634C608.364 940.634 594.898 796.369 570.982 733.221L575.765 729.643L568.65 704.802L479.173 693.949L480.54 713.364C467.114 719.875 455.899 729.804 449.95 742.466C417.914 810.558 433.711 890.067 416.627 1037.43C416.627 1037.43 396.61 1106.52 417.311 1128.15L612.504 1082.65L603.179 1038.11C688.395 1036.46 828.52 1020.83 828.52 1020.83L824.621 940.192C824.621 940.192 615.278 941.438 608.404 940.714" fill="#455A64"/>
<path d="M498.344 1262.81L526.441 1644.15L538.219 1641.42L533.837 1270.85L498.344 1262.81Z" fill="#263238"/>
<path d="M379.283 1276.07L293.986 1643.71H309.382L431.538 1276.07H379.283Z" fill="#263238"/>
<path d="M605.025 1276.07L721.434 1643.71H733.895L641.403 1276.07H605.025Z" fill="#263238"/>
<path d="M620.622 1300.75L359.707 1471.23V1480.55L627.897 1300.75H620.622Z" fill="#263238"/>
<path d="M399.221 1300.75L681.922 1490.96V1476.41L407.541 1292.43L399.221 1300.75Z" fill="#263238"/>
<path d="M340.334 1282.38L676.456 1276.27C689.158 1276.03 698.886 1264.9 697.399 1252.28C696.112 1241.3 686.747 1233.1 675.693 1233.3L334.787 1238.77L340.294 1282.34L340.334 1282.38Z" fill="#278DB4"/>
<g opacity="0.2">
<path d="M340.334 1282.38L676.456 1276.27C689.158 1276.03 698.886 1264.9 697.399 1252.28C696.112 1241.3 686.747 1233.1 675.693 1233.3L334.787 1238.77L340.294 1282.34L340.334 1282.38Z" fill="black"/>
</g>
<path d="M306.086 1022.55L339.972 1282.38L605.027 1276.07L604.344 1118.26C604.705 1092.01 582.276 1071.23 556.108 1073.56L354 1091.81L327.39 816.427L300.539 814.176C288.48 813.171 278.592 823.582 280.28 835.561L306.086 1022.59V1022.55Z" fill="#278DB4"/>
<path d="M1596.79 613.268C1619.11 712.728 1556.49 811.463 1457.03 833.787C1357.57 856.111 1258.84 793.494 1236.52 694.034C1214.19 594.574 1276.81 495.84 1376.27 473.516C1475.73 451.192 1574.46 513.808 1596.79 613.268Z" fill="#278DB4"/>
<path d="M1405.7 763.915C1398.28 764.334 1391.46 760.982 1387.8 755.041L1317.19 657.004C1311.48 647.748 1315.06 635.218 1325.15 629.009C1335.24 622.801 1348.04 625.239 1353.75 634.494L1406.2 703.089L1487.55 560.909C1493.31 550.854 1506.14 546.55 1516.2 551.311C1526.25 556.072 1529.76 568.107 1524 578.162L1424.29 752.375C1420.56 758.926 1413.55 763.306 1406.01 763.839C1405.9 763.839 1405.78 763.839 1405.67 763.839L1405.7 763.915Z" fill="white"/>
</svg>
