<svg width="1800" height="1720" viewBox="0 0 1800 1720" fill="none" xmlns="http://www.w3.org/2000/svg">
<g clip-path="url(#clip0_119_6484)">
<path d="M1127.58 851.28C970.097 849.821 827.598 848.462 724.321 847.501C672.798 847.269 631.09 847.07 602.112 846.937C587.756 846.937 576.583 847.003 568.891 847.003C565.178 847.036 562.293 847.103 560.238 847.103C558.282 847.136 557.287 847.202 557.287 847.269C557.287 847.335 558.282 847.401 560.238 847.467C562.293 847.501 565.145 847.567 568.891 847.666C576.616 847.766 587.756 847.898 602.112 848.064C631.09 848.23 672.798 848.429 724.321 848.694C827.631 848.761 970.13 848.86 1127.62 848.959C1285 848.959 1427.57 849.158 1530.74 849.888C1582.33 850.252 1624.07 850.717 1652.95 851.28C1667.37 851.546 1678.58 851.844 1686.17 852.109C1693.77 852.408 1697.74 852.673 1697.74 852.971C1697.74 853.236 1693.77 853.502 1686.14 853.701C1678.55 853.899 1667.34 854.098 1652.92 854.198C1624.07 854.463 1582.3 854.496 1530.71 854.364C1427.53 854.065 1285 852.872 1127.62 851.28H1127.58Z" fill="#F5F5F5"/>
<path d="M1124.43 885.794C969.101 860.531 828.558 837.687 726.673 821.143C675.814 813.119 634.636 806.621 606.023 802.112C591.833 799.99 580.792 798.332 573.2 797.172C569.52 796.674 566.669 796.277 564.646 795.978C562.723 795.746 561.728 795.647 561.695 795.68C561.695 795.746 562.657 795.945 564.58 796.31C566.602 796.674 569.42 797.172 573.067 797.835C580.66 799.095 591.667 800.918 605.824 803.272C634.404 807.814 675.582 814.313 726.441 822.369C828.492 838.018 969.234 859.635 1124.8 883.507C1280.29 907.246 1421.07 928.962 1522.89 945.274C1573.78 953.43 1614.96 960.194 1643.37 965.101C1657.59 967.554 1668.6 969.51 1676.06 970.969C1683.52 972.395 1687.4 973.29 1687.37 973.588C1687.33 973.853 1683.32 973.522 1675.79 972.594C1668.27 971.665 1657.16 970.14 1642.87 968.085C1614.33 963.973 1573.05 957.74 1522.12 949.783C1420.24 933.902 1279.63 911.158 1124.4 885.828L1124.43 885.794Z" fill="#F5F5F5"/>
<path d="M1115.78 919.447C966.483 870.742 831.378 826.646 733.472 794.685C684.535 778.97 644.915 766.271 617.43 757.452C603.77 753.175 593.127 749.86 585.8 747.572C582.253 746.511 579.501 745.682 577.545 745.086C575.688 744.555 574.727 744.29 574.693 744.356C574.693 744.423 575.589 744.787 577.445 745.417C579.368 746.08 582.087 747.009 585.601 748.202C592.895 750.622 603.472 754.104 617.065 758.58C644.55 767.432 684.17 780.163 733.074 795.912C831.311 826.978 966.815 869.847 1116.57 917.225C1266.27 964.471 1401.77 1007.44 1499.68 1039.14C1548.61 1054.98 1588.2 1067.98 1615.45 1077.16C1629.08 1081.77 1639.66 1085.39 1646.79 1087.97C1653.91 1090.53 1657.63 1092.02 1657.53 1092.28C1657.43 1092.55 1653.55 1091.59 1646.26 1089.53C1638.96 1087.44 1628.25 1084.26 1614.49 1080.05C1586.97 1071.63 1547.22 1059.16 1498.22 1043.51C1400.18 1012.25 1265.01 968.25 1115.85 919.447H1115.78Z" fill="#F5F5F5"/>
<path d="M1101.79 951.275C962.239 880.357 835.952 816.169 744.412 769.653C698.625 746.677 661.558 728.044 635.83 715.114C623.033 708.814 613.086 703.874 606.19 700.492C602.841 698.901 600.288 697.674 598.432 696.779C596.674 695.95 595.746 695.552 595.746 695.619C595.746 695.685 596.575 696.182 598.266 697.077C600.056 698.039 602.576 699.365 605.858 701.089C612.688 704.57 622.568 709.643 635.267 716.141C660.995 729.072 698.029 747.738 743.815 770.747C835.787 816.468 962.67 879.528 1102.88 949.219C1243.06 1018.78 1369.91 1081.94 1461.48 1128.22C1507.27 1151.36 1544.24 1170.23 1569.67 1183.46C1582.4 1190.09 1592.25 1195.29 1598.88 1198.91C1605.51 1202.52 1608.92 1204.54 1608.79 1204.81C1608.66 1205.04 1604.98 1203.52 1598.11 1200.33C1591.25 1197.15 1581.17 1192.38 1568.27 1186.11C1542.45 1173.58 1505.25 1155.18 1459.36 1132.23C1367.59 1086.35 1241.24 1022.26 1101.82 951.275H1101.79Z" fill="#F5F5F5"/>
<path d="M1082.82 980.617C956.403 889.375 841.986 806.787 759.066 746.909C717.556 717.235 683.937 693.231 660.596 676.555C648.959 668.365 639.941 662 633.675 657.623C630.624 655.534 628.304 653.943 626.613 652.783C625.021 651.722 624.159 651.191 624.126 651.224C624.093 651.258 624.855 651.887 626.381 653.048C628.005 654.275 630.293 655.965 633.244 658.154C639.41 662.63 648.362 669.128 659.867 677.483C683.208 694.16 716.794 718.197 758.27 747.904C841.754 807.019 956.934 888.579 1084.21 978.727C1211.5 1068.71 1326.61 1150.4 1409.6 1210.01C1451.11 1239.82 1484.56 1264.09 1507.57 1281.03C1519.07 1289.52 1527.96 1296.15 1533.93 1300.73C1539.89 1305.3 1542.94 1307.82 1542.78 1308.05C1542.61 1308.29 1539.23 1306.2 1532.96 1302.02C1526.7 1297.84 1517.51 1291.58 1505.78 1283.42C1482.3 1267.11 1448.49 1243.3 1406.88 1213.66C1323.63 1154.41 1209.11 1071.93 1082.82 980.617Z" fill="#F5F5F5"/>
<path d="M1059.38 1006.71C949.109 897.465 849.313 798.597 776.97 726.917C740.698 691.342 711.356 662.53 690.966 642.538C680.788 632.691 672.864 625.032 667.393 619.761C664.708 617.241 662.685 615.285 661.193 613.892C659.768 612.599 659.038 611.936 659.005 611.969C658.972 612.002 659.635 612.732 660.961 614.124C662.387 615.583 664.343 617.572 666.929 620.192C672.3 625.563 680.092 633.321 690.137 643.3C710.494 663.326 739.836 692.137 776.075 727.746C849.081 798.763 949.806 896.769 1061.11 1005.02C1172.44 1113.17 1273.1 1211.24 1345.51 1282.66C1381.75 1318.36 1410.92 1347.41 1430.91 1367.6C1440.93 1377.71 1448.62 1385.6 1453.79 1391.04C1458.96 1396.48 1461.55 1399.43 1461.35 1399.59C1461.15 1399.79 1458.13 1397.24 1452.6 1392.17C1447.06 1387.09 1439 1379.54 1428.73 1369.69C1408.14 1350.03 1378.56 1321.38 1342.19 1285.84C1269.42 1214.72 1169.52 1115.92 1059.38 1006.64V1006.71Z" fill="#F5F5F5"/>
<path d="M1032.06 1028.96C940.623 904.361 857.835 791.602 797.858 709.875C767.721 669.261 743.352 636.371 726.41 613.528C717.922 602.288 711.324 593.502 706.782 587.468C704.561 584.583 702.837 582.329 701.61 580.738C700.416 579.246 699.786 578.483 699.753 578.516C699.687 578.549 700.251 579.378 701.312 580.936C702.472 582.594 704.097 584.882 706.218 587.833C710.661 593.933 717.126 602.819 725.415 614.191C742.324 637.034 766.693 669.957 796.797 710.605C857.537 791.801 941.352 903.831 1033.99 1027.6C1126.65 1151.26 1210.4 1263.36 1270.51 1344.86C1300.58 1385.6 1324.75 1418.69 1341.3 1441.7C1349.55 1453.21 1355.92 1462.16 1360.16 1468.29C1364.41 1474.42 1366.5 1477.74 1366.26 1477.91C1366.03 1478.07 1363.48 1475.09 1358.84 1469.25C1354.2 1463.42 1347.43 1454.7 1338.84 1443.46C1321.64 1420.95 1297 1388.16 1266.77 1347.54C1206.26 1266.31 1123.4 1153.59 1032.1 1028.99L1032.06 1028.96Z" fill="#F5F5F5"/>
<path d="M1001.49 1046.76C931.205 909.798 867.614 785.866 821.496 696.017C798.255 651.324 779.456 615.119 766.426 589.988C759.861 577.588 754.756 567.94 751.241 561.276C749.517 558.093 748.158 555.606 747.196 553.849C746.268 552.191 745.771 551.362 745.704 551.362C745.638 551.362 746.036 552.291 746.865 554.015C747.76 555.805 748.987 558.325 750.611 561.574C754.026 568.304 758.966 578.019 765.332 590.518C778.362 615.649 797.127 651.854 820.336 696.58C867.283 785.999 932.034 909.367 1003.62 1045.73C1075.26 1181.93 1139.95 1305.4 1186.2 1395.02C1209.34 1439.84 1227.91 1476.18 1240.54 1501.41C1246.84 1514.01 1251.68 1523.86 1254.86 1530.56C1258.04 1537.25 1259.6 1540.83 1259.34 1540.97C1259.07 1541.1 1257.02 1537.75 1253.37 1531.28C1249.72 1524.82 1244.45 1515.2 1237.79 1502.77C1224.43 1477.91 1205.36 1441.8 1182.02 1397.07C1135.34 1307.62 1071.62 1183.72 1001.49 1046.76Z" fill="#F5F5F5"/>
<path d="M968.438 1059.72C921.193 913.711 878.456 781.589 847.49 685.805C831.774 638.095 819.076 599.503 810.257 572.681C805.781 559.419 802.3 549.108 799.913 542.013C798.719 538.598 797.791 535.945 797.128 534.055C796.465 532.265 796.1 531.37 796.067 531.37C796 531.37 796.266 532.331 796.796 534.155C797.393 536.078 798.189 538.73 799.25 542.211C801.537 549.373 804.853 559.717 809.097 573.045C817.916 599.868 830.581 638.493 846.23 686.203C878.125 781.688 922.121 913.445 970.726 1059.03C1019.43 1204.51 1063.33 1336.3 1094.49 1431.89C1110.08 1479.7 1122.54 1518.42 1130.93 1545.28C1135.11 1558.7 1138.29 1569.15 1140.38 1576.24C1142.43 1583.34 1143.4 1587.12 1143.1 1587.22C1142.83 1587.32 1141.34 1583.7 1138.79 1576.74C1136.23 1569.78 1132.59 1559.47 1128.01 1546.17C1118.83 1519.58 1105.86 1480.99 1090.05 1433.28C1058.42 1337.83 1015.58 1205.7 968.471 1059.72H968.438Z" fill="#F5F5F5"/>
<path d="M933.693 1067.45C910.684 916.031 889.863 779.036 874.777 679.704C866.986 630.204 860.686 590.12 856.31 562.303C854.022 548.544 852.265 537.802 851.038 530.408C850.408 526.828 849.911 524.109 849.58 522.12C849.215 520.263 849.016 519.302 848.95 519.302C848.883 519.302 848.95 520.263 849.215 522.153C849.48 524.142 849.845 526.894 850.342 530.475C851.436 537.901 853.028 548.644 855.083 562.436C859.427 590.253 865.693 630.337 873.451 679.87C889.465 779.036 911.579 915.866 936.014 1067.08C960.549 1218.2 982.563 1355.07 997.881 1454.23C1005.54 1503.83 1011.57 1543.98 1015.49 1571.77C1017.44 1585.66 1018.9 1596.47 1019.8 1603.79C1020.69 1611.12 1020.99 1615 1020.72 1615.03C1020.43 1615.07 1019.56 1611.29 1018.17 1604.03C1016.78 1596.77 1014.86 1586.02 1012.47 1572.2C1007.69 1544.55 1001.13 1504.46 993.272 1454.9C977.491 1355.8 956.57 1218.77 933.693 1067.42V1067.45Z" fill="#F5F5F5"/>
<path d="M898.117 1069.8C899.542 916.761 900.802 778.274 901.731 677.881C901.963 627.784 902.129 587.269 902.261 559.121C902.228 545.162 902.195 534.321 902.162 526.828C902.095 523.214 902.062 520.429 902.029 518.44C901.996 516.55 901.93 515.588 901.863 515.588C901.797 515.588 901.731 516.55 901.664 518.44C901.631 520.429 901.565 523.214 901.465 526.828C901.366 534.321 901.233 545.162 901.068 559.121C900.935 587.269 900.736 627.817 900.471 677.881C900.471 778.274 900.471 916.794 900.471 1069.84C900.57 1222.81 900.471 1361.33 899.775 1461.63C899.443 1511.76 898.979 1552.34 898.448 1580.39C898.183 1594.41 897.885 1605.29 897.619 1612.68C897.321 1620.07 897.023 1623.95 896.757 1623.95C896.459 1623.95 896.227 1620.07 895.995 1612.68C895.763 1605.29 895.597 1594.41 895.464 1580.39C895.199 1552.34 895.1 1511.76 895.232 1461.63C895.464 1361.33 896.625 1222.81 898.15 1069.84L898.117 1069.8Z" fill="#F5F5F5"/>
<path d="M862.576 1066.75C888.47 915.766 911.877 779.169 928.852 680.135C937.074 630.702 943.705 590.684 948.347 562.867C950.535 549.075 952.226 538.366 953.387 530.939C953.917 527.358 954.315 524.606 954.613 522.617C954.878 520.727 954.978 519.766 954.912 519.766C954.845 519.766 954.613 520.694 954.249 522.551C953.884 524.507 953.353 527.259 952.69 530.806C951.397 538.2 949.541 548.909 947.12 562.635C942.479 590.419 935.781 630.437 927.526 679.87C911.479 779.036 889.332 915.866 864.897 1067.05C840.561 1218.2 818.314 1355.03 801.604 1453.97C793.249 1503.43 786.287 1543.45 781.28 1571.1C778.76 1584.93 776.738 1595.64 775.279 1602.87C773.82 1610.09 772.892 1613.91 772.594 1613.84C772.295 1613.81 772.66 1609.93 773.621 1602.6C774.583 1595.27 776.141 1584.5 778.23 1570.61C782.441 1542.86 788.839 1502.74 796.962 1453.24C813.208 1354.2 836.549 1217.54 862.542 1066.65L862.576 1066.75Z" fill="#F5F5F5"/>
<path d="M827.995 1058.36C878.026 913.246 923.282 781.92 956.105 686.733C972.218 639.156 985.281 600.663 994.366 573.907C998.742 560.646 1002.16 550.301 1004.51 543.173C1005.61 539.725 1006.47 537.039 1007.06 535.149C1007.63 533.326 1007.86 532.398 1007.79 532.365C1007.73 532.365 1007.36 533.26 1006.7 535.017C1006 536.907 1005.07 539.526 1003.81 542.941C1001.33 550.036 997.747 560.314 993.139 573.543C984.055 600.265 970.958 638.758 954.812 686.335C922.917 781.821 878.888 913.545 830.25 1059.13C781.744 1204.64 737.615 1336.37 705.057 1431.55C688.778 1479.13 675.45 1517.59 666.001 1544.12C661.293 1557.38 657.546 1567.62 654.927 1574.58C652.308 1581.51 650.783 1585.13 650.485 1585.03C650.219 1584.93 651.181 1581.18 653.303 1574.09C655.425 1566.99 658.707 1556.58 663.05 1543.19C671.704 1516.43 684.501 1477.81 700.581 1430.16C732.675 1334.84 777.865 1203.45 827.995 1058.46V1058.36Z" fill="#F5F5F5"/>
<path d="M795.205 1044.77C868.112 909.102 934.057 786.33 981.866 697.343C1005.51 652.849 1024.64 616.81 1037.9 591.778C1044.4 579.345 1049.44 569.664 1052.92 562.966C1054.57 559.717 1055.83 557.231 1056.73 555.44C1057.56 553.716 1057.99 552.854 1057.92 552.821C1057.86 552.821 1057.36 553.617 1056.4 555.275C1055.44 557.032 1054.04 559.485 1052.29 562.668C1048.71 569.299 1043.5 578.914 1036.8 591.247C1023.51 616.246 1004.35 652.285 980.673 696.779C933.692 786.197 868.875 909.533 797.261 1045.87C725.779 1182.16 660.862 1305.5 613.318 1394.49C589.546 1438.98 570.15 1474.92 556.524 1499.65C549.727 1512.02 544.356 1521.6 540.643 1528.04C536.929 1534.47 534.841 1537.82 534.609 1537.68C534.343 1537.55 535.935 1533.97 539.184 1527.31C542.433 1520.64 547.373 1510.86 553.805 1498.3C566.669 1473.2 585.601 1437.03 609.174 1392.4C656.32 1303.18 722.198 1180.34 795.139 1044.8L795.205 1044.77Z" fill="#F5F5F5"/>
<path d="M765.001 1026.37C858.829 903.433 943.705 792.198 1005.24 711.566C1035.74 671.184 1060.41 638.526 1077.55 615.815C1085.97 604.509 1092.5 595.723 1097.01 589.656C1099.17 586.705 1100.83 584.418 1101.99 582.793C1103.08 581.235 1103.64 580.406 1103.58 580.373C1103.54 580.34 1102.88 581.069 1101.69 582.561C1100.43 584.152 1098.7 586.374 1096.45 589.225C1091.84 595.226 1085.14 603.913 1076.56 615.086C1059.38 637.764 1034.68 670.421 1004.15 710.77C943.373 791.933 859.525 903.93 766.857 1027.7C674.356 1151.46 590.375 1263.39 529.105 1344.09C498.47 1384.44 473.537 1417 456.098 1439.35C447.378 1450.52 440.548 1459.17 435.873 1464.97C431.165 1470.78 428.579 1473.73 428.347 1473.56C428.115 1473.4 430.237 1470.11 434.547 1464.01C438.824 1457.91 445.289 1448.99 453.644 1437.59C470.388 1414.75 494.889 1381.89 525.358 1341.41C586.263 1260.44 671.073 1149.11 764.968 1026.34L765.001 1026.37Z" fill="#F5F5F5"/>
<path d="M738.146 1003.59C850.507 896.338 952.16 799.294 1025.86 728.939C1062.43 693.662 1092.07 665.116 1112.63 645.29C1122.74 635.41 1130.6 627.684 1136.04 622.38C1138.62 619.794 1140.61 617.771 1142.07 616.346C1143.4 614.986 1144.09 614.257 1144.03 614.19C1143.99 614.157 1143.23 614.787 1141.8 616.08C1140.31 617.473 1138.26 619.396 1135.54 621.882C1130.03 627.121 1122.04 634.713 1111.77 644.428C1091.18 664.254 1061.54 692.767 1024.93 728.011C951.894 798.995 851.137 896.967 739.803 1005.18C628.602 1113.47 527.746 1211.34 454.308 1281.79C417.605 1317.01 387.733 1345.39 366.945 1364.85C356.568 1374.6 348.445 1382.09 342.841 1387.09C337.271 1392.1 334.221 1394.65 334.022 1394.45C333.823 1394.26 336.443 1391.34 341.681 1385.97C346.886 1380.6 354.678 1372.77 364.79 1362.76C384.981 1342.73 414.456 1313.95 451.025 1278.58C524.132 1207.83 625.751 1110.65 738.113 1003.56L738.146 1003.59Z" fill="#F5F5F5"/>
<path d="M715.235 977.07C843.378 888.115 959.354 807.616 1043.4 749.263C1085.18 719.954 1118.99 696.216 1142.5 679.738C1154.07 671.482 1163.09 665.083 1169.29 660.64C1172.27 658.485 1174.56 656.795 1176.19 655.601C1177.74 654.441 1178.51 653.844 1178.47 653.777C1178.44 653.744 1177.58 654.242 1175.99 655.303C1174.3 656.43 1171.94 658.021 1168.89 660.077C1162.59 664.42 1153.51 670.686 1141.8 678.776C1118.3 695.221 1084.45 718.927 1042.67 748.235C959.155 807.317 843.975 888.845 716.661 978.959C589.479 1069.11 474.2 1150.57 390.385 1209.02C348.477 1238.26 314.46 1261.8 290.788 1277.88C278.952 1285.94 269.735 1292.11 263.435 1296.22C257.136 1300.33 253.721 1302.38 253.555 1302.15C253.389 1301.92 256.473 1299.43 262.474 1294.92C268.475 1290.42 277.427 1283.85 289.031 1275.46C312.206 1258.72 345.891 1234.78 387.666 1205.37C471.216 1146.52 587.125 1065.92 715.302 977.103L715.235 977.07Z" fill="#F5F5F5"/>
<path d="M696.901 947.363C837.775 878.965 965.289 817.064 1057.69 772.206C1103.68 749.595 1140.91 731.293 1166.74 718.595C1179.5 712.196 1189.41 707.223 1196.28 703.808C1199.56 702.117 1202.11 700.824 1203.9 699.862C1205.63 698.967 1206.49 698.47 1206.46 698.404C1206.46 698.337 1205.49 698.735 1203.74 699.531C1201.88 700.393 1199.29 701.586 1195.95 703.178C1189.05 706.493 1179.04 711.334 1166.17 717.501C1140.31 730.199 1103.08 748.467 1057.06 771.013C965.09 816.7 838.173 879.727 697.929 949.352C557.817 1019.08 430.834 1082 338.63 1127.03C292.545 1149.54 255.147 1167.61 229.187 1179.91C216.223 1186.04 206.111 1190.75 199.215 1193.87C192.318 1196.98 188.638 1198.48 188.506 1198.21C188.373 1197.95 191.821 1195.96 198.485 1192.41C205.149 1188.86 215.029 1183.72 227.827 1177.22C253.39 1164.23 290.523 1145.66 336.542 1122.98C428.546 1077.56 555.993 1015.56 696.868 947.296L696.901 947.363Z" fill="#F5F5F5"/>
<path d="M683.541 915.269C833.732 869.283 969.666 827.641 1068.17 797.47C1117.24 782.186 1156.96 769.819 1184.54 761.199C1198.17 756.856 1208.78 753.441 1216.11 751.12C1219.62 749.959 1222.34 749.031 1224.29 748.401C1226.12 747.771 1227.05 747.407 1227.05 747.373C1227.05 747.307 1226.05 747.539 1224.2 748.07C1222.24 748.633 1219.49 749.429 1215.91 750.49C1208.55 752.711 1197.87 755.96 1184.18 760.105C1156.59 768.692 1116.84 781.025 1067.77 796.277C969.533 827.343 834.03 870.179 684.27 917.49C534.643 964.902 399.04 1007.67 300.702 1038.01C251.534 1053.19 211.682 1065.33 184.064 1073.48C170.272 1077.56 159.53 1080.68 152.202 1082.67C144.875 1084.69 140.996 1085.59 140.93 1085.32C140.83 1085.05 144.544 1083.6 151.705 1081.11C158.866 1078.62 169.443 1075.07 183.136 1070.6C210.488 1061.65 250.175 1049.02 299.277 1033.63C397.481 1002.83 533.383 961.089 683.541 915.236V915.269Z" fill="#F5F5F5"/>
<path d="M675.583 881.484C831.344 859.039 972.318 838.715 1074.5 823.961C1125.43 816.368 1166.67 810.235 1195.28 805.958C1209.44 803.736 1220.48 802.012 1228.07 800.819C1231.75 800.189 1234.57 799.725 1236.59 799.393C1238.52 799.062 1239.48 798.83 1239.48 798.796C1239.48 798.73 1238.48 798.796 1236.53 799.062C1234.51 799.327 1231.65 799.692 1227.97 800.156C1220.35 801.217 1209.31 802.775 1195.08 804.797C1166.44 809.041 1125.23 815.175 1074.27 822.734C972.218 838.383 831.476 859.934 675.914 883.772C520.452 907.71 379.643 929.194 277.593 944.147C226.568 951.64 185.257 957.508 156.677 961.354C142.388 963.277 131.281 964.703 123.722 965.565C116.162 966.427 112.184 966.758 112.151 966.46C112.117 966.195 115.997 965.333 123.49 963.973C130.949 962.614 141.99 960.724 156.246 958.403C184.726 953.762 225.938 947.363 276.93 939.671C378.881 924.287 519.855 903.831 675.583 881.518V881.484Z" fill="#F5F5F5"/>
<path d="M673.129 846.937C830.615 848.23 973.114 849.39 1076.39 850.219C1127.91 850.385 1169.62 850.551 1198.6 850.65C1212.96 850.584 1224.13 850.551 1231.82 850.551C1235.53 850.485 1238.42 850.451 1240.47 850.418C1242.43 850.385 1243.42 850.319 1243.42 850.252C1243.42 850.186 1242.43 850.12 1240.47 850.087C1238.42 850.054 1235.57 849.987 1231.82 849.888C1224.1 849.788 1212.96 849.689 1198.6 849.523C1169.62 849.39 1127.91 849.225 1076.39 849.026C973.08 849.092 830.581 849.158 673.096 849.258C515.71 849.457 373.145 849.424 269.967 848.827C218.379 848.528 176.604 848.097 147.759 847.6C133.337 847.335 122.13 847.07 114.538 846.804C106.979 846.473 103 846.208 103 845.909C103 845.644 106.979 845.379 114.604 845.147C122.197 844.915 133.403 844.749 147.825 844.583C176.67 844.285 218.445 844.185 270.034 844.285C373.211 844.45 515.744 845.511 673.129 846.904V846.937Z" fill="#F5F5F5"/>
<path d="M676.245 812.39C831.609 837.455 972.185 860.132 1074.1 876.577C1124.96 884.534 1166.17 890.966 1194.75 895.442C1208.94 897.564 1219.98 899.189 1227.61 900.349C1231.29 900.846 1234.14 901.244 1236.16 901.51C1238.09 901.742 1239.08 901.841 1239.11 901.775C1239.11 901.708 1238.15 901.51 1236.23 901.145C1234.21 900.78 1231.39 900.283 1227.71 899.653C1220.12 898.393 1209.11 896.603 1194.95 894.249C1166.34 889.74 1125.16 883.274 1074.3 875.284C972.251 859.768 831.443 838.317 675.881 814.644C520.352 791.104 379.543 769.554 277.725 753.374C226.799 745.284 185.621 738.554 157.208 733.68C142.984 731.26 131.977 729.271 124.517 727.845C117.057 726.419 113.178 725.524 113.211 725.259C113.244 724.994 117.256 725.325 124.782 726.253C132.308 727.182 143.415 728.674 157.705 730.729C186.251 734.807 227.529 740.974 278.488 748.865C380.405 764.614 521.015 787.192 676.279 812.356L676.245 812.39Z" fill="#F5F5F5"/>
<path d="M684.866 778.738C834.228 827.276 969.367 871.173 1067.34 903.002C1116.28 918.651 1155.93 931.316 1183.45 940.102C1197.11 944.346 1207.75 947.661 1215.08 949.949C1218.62 951.01 1221.38 951.839 1223.33 952.402C1225.19 952.933 1226.15 953.198 1226.18 953.132C1226.18 953.065 1225.29 952.701 1223.43 952.071C1221.48 951.408 1218.79 950.479 1215.28 949.286C1207.98 946.899 1197.41 943.417 1183.81 938.942C1156.29 930.122 1116.67 917.424 1067.74 901.742C969.466 870.775 833.896 828.105 684.103 780.893C534.343 733.846 398.773 691.043 300.834 659.447C251.865 643.665 212.278 630.735 185.025 621.551C171.398 616.976 160.822 613.362 153.693 610.809C146.565 608.256 142.852 606.797 142.951 606.499C143.051 606.234 146.93 607.195 154.224 609.251C161.518 611.306 172.227 614.489 186.019 618.7C213.571 627.088 253.323 639.521 302.359 655.104C400.431 686.236 535.669 730.067 684.899 778.671L684.866 778.738Z" fill="#F5F5F5"/>
<path d="M698.824 746.876C838.472 817.628 964.825 881.65 1056.43 928.067C1102.25 951.01 1139.32 969.576 1165.08 982.474C1177.88 988.773 1187.86 993.68 1194.72 997.062C1198.07 998.653 1200.62 999.88 1202.48 1000.78C1204.24 1001.6 1205.16 1001.97 1205.16 1001.94C1205.16 1001.87 1204.34 1001.37 1202.64 1000.48C1200.85 999.515 1198.3 998.189 1195.05 996.498C1188.22 993.017 1178.34 987.977 1165.64 981.479C1139.92 968.582 1102.82 949.982 1057.03 927.006C964.991 881.418 838.041 818.49 697.73 748.965C557.452 679.572 430.503 616.578 338.896 570.393C293.076 547.317 256.109 528.485 230.646 515.29C217.914 508.692 208.067 503.487 201.437 499.873C194.806 496.259 191.391 494.237 191.523 494.004C191.656 493.772 195.336 495.298 202.199 498.447C209.062 501.597 219.141 506.404 232.072 512.637C257.899 525.137 295.165 543.505 341.051 566.381C432.857 612.135 559.309 676.09 698.824 746.909V746.876Z" fill="#F5F5F5"/>
<path d="M717.755 717.501C844.307 808.61 958.823 891.033 1041.81 950.811C1083.35 980.418 1117 1004.39 1140.38 1021.03C1152.02 1029.19 1161.07 1035.55 1167.33 1039.93C1170.38 1042.02 1172.7 1043.61 1174.4 1044.77C1175.99 1045.83 1176.85 1046.36 1176.88 1046.33C1176.92 1046.3 1176.15 1045.67 1174.63 1044.51C1173 1043.28 1170.72 1041.59 1167.76 1039.4C1161.6 1034.92 1152.65 1028.43 1141.14 1020.1C1117.8 1003.43 1084.18 979.457 1042.64 949.816C959.088 890.801 843.809 809.373 716.395 719.391C588.982 629.541 473.769 548.014 390.716 488.501C349.173 458.761 315.687 434.525 292.644 417.616C281.14 409.162 272.254 402.531 266.253 397.955C260.285 393.38 257.235 390.86 257.401 390.661C257.567 390.429 260.949 392.518 267.248 396.662C273.514 400.84 282.698 407.073 294.468 415.229C317.975 431.508 351.826 455.28 393.468 484.854C476.786 544.002 591.402 626.358 717.821 717.501H717.755Z" fill="#F5F5F5"/>
<path d="M741.13 691.408C851.569 800.52 951.497 899.288 1023.91 970.87C1060.21 1006.41 1089.62 1035.16 1110.01 1055.15C1120.19 1064.96 1128.11 1072.62 1133.58 1077.89C1136.27 1080.41 1138.32 1082.34 1139.78 1083.73C1141.21 1085.02 1141.94 1085.68 1141.97 1085.65C1142 1085.62 1141.34 1084.89 1140.02 1083.5C1138.59 1082.04 1136.6 1080.05 1134.05 1077.43C1128.64 1072.06 1120.85 1064.3 1110.84 1054.32C1090.45 1034.33 1061.07 1005.55 1024.77 969.974C951.663 899.023 850.839 801.184 739.373 693.033C627.907 585.014 527.116 487.075 454.607 415.726C418.335 380.052 389.126 351.074 369.101 330.883C359.088 320.804 351.363 312.913 346.191 307.476C341.019 302.072 338.399 299.121 338.631 298.922C338.83 298.723 341.847 301.276 347.384 306.349C352.921 311.421 360.978 318.981 371.289 328.794C391.911 348.422 421.518 377.035 457.955 412.543C530.796 483.561 630.824 582.263 741.13 691.408Z" fill="#F5F5F5"/>
<path d="M768.449 669.128C860.056 793.624 942.976 906.284 1003.05 987.911C1033.22 1028.49 1057.66 1061.35 1074.63 1084.19C1083.12 1095.43 1089.72 1104.18 1094.29 1110.22C1096.52 1113.1 1098.24 1115.32 1099.5 1116.92C1100.69 1118.41 1101.32 1119.17 1101.36 1119.14C1101.42 1119.1 1100.86 1118.28 1099.76 1116.72C1098.6 1115.09 1096.95 1112.77 1094.82 1109.82C1090.35 1103.72 1083.88 1094.87 1075.59 1083.5C1058.65 1060.65 1034.22 1027.8 1004.08 987.182C943.208 906.052 859.26 794.155 766.493 670.487C673.66 546.953 589.778 434.956 529.569 353.528C499.464 312.814 475.228 279.758 458.684 256.782C450.395 245.311 444.03 236.326 439.786 230.192C435.542 224.058 433.453 220.743 433.685 220.577C433.917 220.411 436.47 223.395 441.145 229.231C445.787 235.066 452.55 243.752 461.171 255.025C478.411 277.537 503.078 310.261 533.382 350.875C593.989 432.038 677.008 544.665 768.482 669.161L768.449 669.128Z" fill="#F5F5F5"/>
<path d="M798.951 651.258C869.405 788.12 933.161 912.02 979.379 1001.8C1002.65 1046.5 1021.52 1082.63 1034.61 1107.77C1041.18 1120.17 1046.32 1129.81 1049.83 1136.48C1051.59 1139.66 1052.92 1142.15 1053.88 1143.9C1054.81 1145.56 1055.3 1146.39 1055.37 1146.39C1055.44 1146.39 1055.04 1145.46 1054.21 1143.77C1053.31 1141.98 1052.09 1139.46 1050.46 1136.21C1047.05 1129.52 1042.07 1119.77 1035.68 1107.27C1022.61 1082.14 1003.78 1045.96 980.539 1001.27C933.493 911.887 868.543 788.618 796.796 652.352C724.982 516.218 660.132 392.849 613.748 303.265C590.54 258.473 571.94 222.135 559.275 196.938C552.942 184.339 548.102 174.525 544.886 167.828C541.703 161.131 540.145 157.55 540.41 157.417C540.675 157.285 542.731 160.633 546.378 167.099C550.025 173.564 555.296 183.179 562.027 195.612C575.421 220.445 594.518 256.55 617.926 301.243C664.707 390.628 728.596 514.461 798.918 651.324L798.951 651.258Z" fill="#F5F5F5"/>
<path d="M832.007 638.294C879.419 784.241 922.354 916.33 953.453 1012.05C969.202 1059.72 981.966 1098.32 990.819 1125.14C995.294 1138.4 998.809 1148.68 1001.23 1155.81C1002.42 1159.22 1003.35 1161.87 1004.05 1163.76C1004.71 1165.55 1005.08 1166.45 1005.11 1166.45C1005.17 1166.45 1004.91 1165.49 1004.38 1163.66C1003.78 1161.74 1002.95 1159.09 1001.89 1155.61C999.605 1148.45 996.256 1138.1 991.979 1124.77C983.127 1097.95 970.395 1059.36 954.68 1011.65C922.685 916.197 878.523 784.507 829.72 638.99C780.816 493.574 736.754 361.85 705.455 266.265C689.806 218.489 677.307 179.764 668.886 152.942C664.675 139.514 661.492 129.103 659.404 121.975C657.315 114.88 656.386 111.1 656.652 111.001C656.917 110.901 658.409 114.515 660.995 121.478C663.581 128.44 667.228 138.718 671.837 152.013C681.054 178.603 694.083 217.162 709.931 264.872C741.694 360.291 784.695 492.347 831.974 638.261L832.007 638.294Z" fill="#F5F5F5"/>
<path d="M866.752 630.503C889.961 781.887 910.948 918.883 926.166 1018.18C934.023 1067.68 940.356 1107.73 944.766 1135.58C947.053 1149.34 948.844 1160.05 950.07 1167.48C950.7 1171.06 951.198 1173.78 951.562 1175.77C951.927 1177.62 952.126 1178.58 952.192 1178.55C952.258 1178.55 952.192 1177.59 951.927 1175.7C951.662 1173.71 951.264 1170.96 950.766 1167.38C949.672 1159.95 948.048 1149.21 945.992 1135.42C941.616 1107.6 935.283 1067.52 927.459 1018.02C911.312 918.85 889.032 782.053 864.398 630.901C839.665 479.814 817.484 342.985 802.034 243.819C794.309 194.252 788.242 154.102 784.263 126.318C782.274 112.426 780.815 101.618 779.92 94.2907C779.025 86.9635 778.693 83.0844 778.992 83.0512C779.29 83.0181 780.152 86.7977 781.578 94.0586C783.003 101.32 784.926 112.062 787.313 125.887C792.121 153.538 798.719 193.622 806.676 243.156C822.59 342.255 843.71 479.251 866.752 630.569V630.503Z" fill="#F5F5F5"/>
<path d="M902.296 628.116C901.069 781.158 899.975 919.679 899.179 1020.07C899.013 1070.17 898.914 1110.68 898.814 1138.83C898.881 1152.79 898.914 1163.63 898.947 1171.12C899.013 1174.74 899.047 1177.52 899.08 1179.51C899.146 1181.4 899.179 1182.36 899.245 1182.36C899.312 1182.36 899.378 1181.4 899.444 1179.51C899.478 1177.52 899.544 1174.74 899.643 1171.12C899.71 1163.63 899.842 1152.79 900.008 1138.83C900.107 1110.68 900.273 1070.13 900.439 1020.07C900.306 919.679 900.141 781.158 899.942 628.116C899.643 475.139 899.577 336.619 900.141 236.326C900.406 186.196 900.837 145.614 901.334 117.565C901.599 103.541 901.865 92.6661 902.13 85.2726C902.395 77.8791 902.694 74 902.992 74C903.29 74 903.522 77.8791 903.755 85.2726C903.987 92.6661 904.186 103.541 904.351 117.565C904.65 145.614 904.815 186.196 904.749 236.326C904.65 336.619 903.655 475.139 902.329 628.116H902.296Z" fill="#F5F5F5"/>
<path d="M937.837 631.099C912.142 782.119 888.901 918.75 872.058 1017.82C863.902 1067.28 857.304 1107.3 852.729 1135.09C850.574 1148.88 848.883 1159.59 847.722 1167.01C847.192 1170.59 846.794 1173.35 846.529 1175.33C846.264 1177.22 846.197 1178.19 846.231 1178.19C846.297 1178.19 846.496 1177.26 846.894 1175.4C847.258 1173.45 847.756 1170.69 848.419 1167.15C849.712 1159.75 851.568 1149.04 853.956 1135.32C858.564 1107.53 865.195 1067.48 873.384 1018.05C889.299 918.85 911.247 781.987 935.516 630.768C959.653 479.615 981.701 342.753 998.311 243.752C1006.6 194.252 1013.5 154.235 1018.47 126.617C1020.96 112.791 1022.98 102.082 1024.44 94.8544C1025.9 87.5935 1026.82 83.8138 1027.09 83.8801C1027.39 83.9133 1027.02 87.7924 1026.06 95.1196C1025.1 102.447 1023.58 113.222 1021.49 127.114C1017.31 154.864 1010.98 194.982 1002.89 244.515C986.74 343.581 963.632 480.245 937.837 631.166V631.099Z" fill="#F5F5F5"/>
<path d="M972.484 639.454C922.653 784.639 877.562 916.031 844.871 1011.25C828.825 1058.83 815.795 1097.35 806.777 1124.11C802.4 1137.41 799.018 1147.72 796.664 1154.88C795.57 1158.33 794.741 1161.01 794.145 1162.9C793.581 1164.73 793.349 1165.65 793.415 1165.69C793.482 1165.69 793.846 1164.79 794.509 1163.03C795.173 1161.14 796.134 1158.53 797.361 1155.11C799.814 1148.02 803.395 1137.74 807.97 1124.51C817.021 1097.75 830.051 1059.26 846.164 1011.68C877.96 916.164 921.79 784.374 970.263 638.758C1018.57 493.176 1062.53 361.385 1094.96 266.198C1111.17 218.588 1124.47 180.128 1133.85 153.605C1138.56 140.343 1142.27 130.065 1144.89 123.135C1147.51 116.206 1149.03 112.592 1149.3 112.692C1149.56 112.791 1148.6 116.538 1146.48 123.633C1144.36 130.728 1141.08 141.138 1136.8 154.533C1128.18 181.322 1115.41 219.947 1099.43 267.624C1067.44 362.977 1022.45 494.402 972.517 639.488L972.484 639.454Z" fill="#F5F5F5"/>
<path d="M1005.27 653.015C932.566 788.784 866.753 911.622 819.077 1000.68C795.504 1045.2 776.44 1081.27 763.178 1106.31C756.713 1118.77 751.673 1128.45 748.192 1135.12C746.567 1138.37 745.274 1140.85 744.379 1142.64C743.55 1144.37 743.152 1145.23 743.186 1145.26C743.252 1145.26 743.749 1144.47 744.711 1142.81C745.672 1141.05 747.031 1138.6 748.822 1135.42C752.403 1128.79 757.575 1119.17 764.272 1106.8C777.534 1081.77 796.631 1045.73 820.237 1001.21C867.085 911.721 931.737 788.319 1003.19 651.921C1074.47 515.522 1139.25 392.12 1186.66 303.066C1210.37 258.539 1229.73 222.567 1243.29 197.833C1250.09 185.466 1255.43 175.885 1259.14 169.419C1262.85 162.954 1264.91 159.639 1265.17 159.771C1265.44 159.904 1263.85 163.485 1260.6 170.149C1257.35 176.813 1252.44 186.627 1246.01 199.159C1233.18 224.291 1214.31 260.496 1190.77 305.122C1143.76 394.374 1078.05 517.312 1005.27 652.948V653.015Z" fill="#F5F5F5"/>
<path d="M1035.48 671.383C941.815 794.42 857.071 905.787 795.635 986.485C765.199 1026.9 740.565 1059.59 723.424 1082.3C715.036 1093.61 708.505 1102.43 703.996 1108.49C701.841 1111.45 700.216 1113.73 699.022 1115.36C697.928 1116.92 697.365 1117.75 697.431 1117.78C697.464 1117.81 698.127 1117.08 699.321 1115.59C700.581 1114 702.305 1111.78 704.559 1108.93C709.168 1102.92 715.832 1094.21 724.419 1083.03C741.56 1060.32 766.227 1027.63 796.696 987.248C857.37 905.986 941.085 793.889 1033.59 670.023C1125.96 546.157 1209.77 434.094 1270.94 353.329C1301.51 312.946 1326.44 280.355 1343.82 257.976C1352.5 246.77 1359.33 238.149 1364.04 232.314C1368.75 226.512 1371.33 223.528 1371.57 223.694C1371.8 223.86 1369.68 227.142 1365.4 233.242C1361.12 239.343 1354.69 248.261 1346.34 259.7C1329.63 282.543 1305.16 315.466 1274.76 355.948C1213.95 436.978 1129.27 548.412 1035.58 671.316L1035.48 671.383Z" fill="#F5F5F5"/>
<path d="M1062.37 694.127C950.171 801.515 848.618 898.691 775.015 969.145C738.478 1004.46 708.904 1033.03 688.348 1052.89C678.236 1062.81 670.378 1070.5 664.974 1075.84C662.388 1078.42 660.399 1080.45 658.973 1081.87C657.647 1083.23 656.984 1083.96 657.017 1084.03C657.05 1084.06 657.813 1083.43 659.238 1082.14C660.73 1080.74 662.786 1078.82 665.471 1076.33C670.975 1071.1 678.965 1063.5 689.21 1053.76C709.766 1033.93 739.373 1005.35 775.943 970.074C848.883 898.99 949.508 800.918 1060.71 692.535C1171.78 584.119 1272.5 486.114 1345.84 415.593C1382.51 380.317 1412.32 351.903 1433.07 332.408C1443.45 322.661 1451.57 315.168 1457.14 310.128C1462.71 305.089 1465.73 302.569 1465.93 302.768C1466.13 302.967 1463.51 305.884 1458.3 311.289C1453.1 316.66 1445.3 324.517 1435.23 334.53C1415.03 354.589 1385.63 383.367 1349.09 418.809C1276.05 489.661 1174.6 586.937 1062.33 694.193L1062.37 694.127Z" fill="#F5F5F5"/>
<path d="M1085.31 720.617C957.267 809.737 841.424 890.403 757.443 948.855C715.701 978.23 681.916 1001.97 658.443 1018.48C646.872 1026.74 637.887 1033.17 631.654 1037.61C628.67 1039.8 626.382 1041.46 624.757 1042.65C623.199 1043.81 622.437 1044.41 622.47 1044.47C622.503 1044.51 623.365 1044.01 624.956 1042.95C626.647 1041.82 629.001 1040.23 632.052 1038.17C638.351 1033.83 647.435 1027.53 659.139 1019.44C682.613 1002.96 716.43 979.191 758.205 949.883C841.623 890.668 956.736 809.008 1083.92 718.761C1210.97 628.447 1326.15 546.853 1409.9 488.269C1451.77 458.96 1485.75 435.42 1509.39 419.307C1521.2 411.25 1530.41 405.05 1536.75 400.939C1543.04 396.828 1546.46 394.772 1546.63 395.005C1546.79 395.237 1543.71 397.723 1537.71 402.265C1531.71 406.808 1522.75 413.372 1511.18 421.727C1488.04 438.504 1454.36 462.474 1412.61 491.949C1329.13 550.898 1213.32 631.663 1085.28 720.617H1085.31Z" fill="#F5F5F5"/>
<path d="M1103.71 750.291C962.934 818.855 835.52 880.921 743.151 925.878C697.199 948.523 659.999 966.891 634.172 979.622C621.407 986.021 611.494 990.994 604.664 994.443C601.381 996.133 598.862 997.46 597.038 998.388C595.314 999.283 594.452 999.78 594.485 999.847C594.485 999.913 595.447 999.515 597.204 998.719C599.061 997.857 601.647 996.631 604.995 995.072C611.892 991.724 621.904 986.916 634.735 980.683C660.563 967.952 697.796 949.65 743.781 927.039C835.719 881.252 962.536 818.059 1102.65 748.235C1242.66 678.345 1369.54 615.251 1461.71 570.128C1507.77 547.549 1545.16 529.447 1571.09 517.113C1584.06 510.947 1594.17 506.239 1601.06 503.122C1607.96 500.005 1611.64 498.514 1611.77 498.746C1611.91 499.011 1608.46 501 1601.83 504.548C1595.16 508.095 1585.28 513.234 1572.52 519.766C1546.96 532.796 1509.86 551.395 1463.87 574.14C1371.93 619.694 1244.55 681.826 1103.78 750.258L1103.71 750.291Z" fill="#F5F5F5"/>
<path d="M1117.1 782.385C966.979 828.569 831.111 870.377 732.608 900.648C683.572 915.998 643.853 928.431 616.268 937.052C602.641 941.428 592.032 944.843 584.705 947.197C581.19 948.357 578.472 949.286 576.516 949.916C574.692 950.546 573.764 950.91 573.764 950.977C573.764 951.043 574.758 950.811 576.615 950.28C578.571 949.717 581.323 948.921 584.904 947.86C592.264 945.639 602.907 942.39 616.6 938.212C644.184 929.592 683.904 917.192 732.973 901.908C831.177 870.742 966.648 827.74 1116.34 780.196C1265.94 732.586 1401.44 689.684 1499.74 659.182C1548.88 643.93 1588.73 631.763 1616.32 623.573C1630.11 619.462 1640.85 616.346 1648.18 614.356C1655.5 612.334 1659.38 611.406 1659.45 611.671C1659.55 611.936 1655.84 613.395 1648.67 615.881C1641.51 618.368 1630.94 621.949 1617.24 626.425C1589.89 635.41 1550.24 648.075 1501.14 663.525C1402.96 694.425 1267.13 736.333 1117 782.385H1117.1Z" fill="#F5F5F5"/>
<path d="M1125.1 816.136C969.334 838.781 828.394 859.27 726.244 874.157C675.318 881.816 634.107 888.016 605.461 892.326C591.304 894.547 580.263 896.304 572.671 897.498C568.991 898.128 566.173 898.592 564.15 898.957C562.227 899.288 561.266 899.52 561.266 899.553C561.266 899.62 562.26 899.553 564.216 899.288C566.239 899.023 569.09 898.658 572.77 898.161C580.396 897.067 591.436 895.509 605.66 893.486C634.306 889.209 675.517 883.042 726.443 875.417C828.46 859.635 969.202 837.886 1124.73 813.882C1280.16 789.745 1420.94 768.095 1522.95 753.009C1573.94 745.45 1615.26 739.549 1643.87 735.67C1658.16 733.713 1669.26 732.288 1676.82 731.426C1684.38 730.564 1688.36 730.232 1688.4 730.497C1688.43 730.763 1684.55 731.625 1677.06 733.017C1669.6 734.41 1658.56 736.299 1644.33 738.62C1615.89 743.295 1574.64 749.76 1523.68 757.519C1421.73 773.035 1280.79 793.657 1125.1 816.169V816.136Z" fill="#F5F5F5"/>
<path d="M305.244 525.8L310.913 512.671C358.789 402.1 462.298 325.181 581.357 316.428C596.674 315.3 612.058 315.267 627.409 316.428C737.88 324.617 842.451 392.949 895.432 491.551C926.597 549.539 942.644 619.064 992.542 661.635C1057.46 717.037 1153.18 705.897 1236.73 691.74C1320.28 677.583 1416.09 666.675 1480.78 722.375C1521.29 757.253 1540.19 812.191 1544.67 865.736C1556.57 1007.54 1475.77 1146.92 1359.63 1226.63C1243.49 1306.36 1097.38 1332.16 957.067 1323.44C760.492 1311.2 564.05 1230.34 432.193 1081.84C300.37 933.339 242.018 714.351 305.211 525.8H305.244Z" fill="#F5F5F5"/>
<path d="M1151.34 1584.6L649.302 1584.31C588.924 1584.31 540 1535.32 540 1474.94L540.247 216.338C540.247 155.925 589.243 106.965 649.656 107L1151.7 107.283C1212.08 107.318 1261 156.278 1261 216.656L1260.75 1475.26C1260.75 1535.67 1211.76 1584.63 1151.34 1584.6Z" fill="#263238"/>
<path d="M1151.2 151.791L1053.88 151.72C1040.83 151.72 1030.23 162.785 1030.23 176.43V194.07C1030.23 207.715 1019.62 218.779 1006.58 218.779L816.857 218.673C803.812 218.673 793.207 207.609 793.243 193.964V176.324C793.243 162.679 782.673 151.614 769.629 151.614H735.41L650.216 151.543C607.902 151.543 573.578 185.798 573.578 228.112L573.33 1456.6C573.33 1498.88 607.584 1533.17 649.863 1533.2L1150.88 1533.48C1193.19 1533.48 1227.48 1499.23 1227.52 1456.92L1227.77 228.43C1227.77 186.151 1193.51 151.862 1151.23 151.826L1151.2 151.791Z" fill="white"/>
<path d="M290.391 553.02L363.994 599.768C372.051 604.874 382.727 600.232 384.484 590.816L400.531 503.586L290.391 553.02Z" fill="#EBEBEB"/>
<path d="M230.958 448.182L362.18 393.479C381.704 385.34 404.164 394.584 412.304 414.108L444.056 490.277C452.195 509.801 442.952 532.261 423.428 540.4L292.206 595.103C272.681 603.242 250.221 593.999 242.082 574.475L210.329 498.306C202.19 478.782 211.434 456.321 230.958 448.182Z" fill="#EBEBEB"/>
<path d="M361.141 464.298C349.736 455.147 338.232 457.8 332.131 463.502C325.5 469.702 324.804 479.45 324.804 479.45C324.804 479.45 317.377 473.084 308.293 473.449C299.938 473.747 289.991 480.08 288.433 494.601C285.217 524.938 348.476 536.31 348.476 536.31C348.476 536.31 384.913 483.362 361.108 464.298H361.141Z" fill="white"/>
<path d="M1423.19 615.981L1452 693.762C1455.15 702.283 1465.93 704.902 1472.66 698.802L1535.02 642.041L1423.19 616.014V615.981Z" fill="#EBEBEB"/>
<path d="M1567.68 536.037L1440.46 502.803C1419.98 497.453 1399.04 509.719 1393.69 530.199L1374.8 602.536C1369.45 623.016 1381.71 643.955 1402.19 649.305L1529.41 682.539C1549.89 687.889 1570.83 675.623 1576.18 655.143L1595.08 582.807C1600.43 562.327 1588.16 541.387 1567.68 536.037Z" fill="#EBEBEB"/>
<path d="M1527.86 589.59C1524.48 576.096 1514.27 571.454 1506.37 572.283C1497.79 573.178 1491.62 580.141 1491.62 580.141C1491.62 580.141 1489.66 571.056 1482.6 566.083C1476.1 561.508 1464.93 560.546 1455.38 570.658C1435.49 591.778 1476.8 636.835 1476.8 636.835C1476.8 636.835 1534.89 617.771 1527.86 589.623V589.59Z" fill="white"/>
<path d="M325.072 1248.41L379.678 1310.84C385.646 1317.67 396.653 1316.28 400.765 1308.19L438.826 1232.92L325.072 1248.44V1248.41Z" fill="#EBEBEB"/>
<path d="M431.665 1122.27L300.95 1136.54C279.908 1138.84 264.712 1157.76 267.009 1178.8L275.122 1253.12C277.419 1274.16 296.34 1289.36 317.382 1287.06L448.097 1272.79C469.14 1270.5 484.336 1251.57 482.039 1230.53L473.925 1156.21C471.628 1135.17 452.708 1119.97 431.665 1122.27Z" fill="#EBEBEB"/>
<path d="M413.462 1186.44C405.505 1175.04 394.298 1174.34 387.203 1177.92C379.478 1181.8 376.229 1190.49 376.229 1190.49C376.229 1190.49 371.156 1182.7 362.801 1180.57C355.11 1178.62 344.301 1181.7 338.996 1194.56C327.923 1221.39 382.595 1248.77 382.595 1248.77C382.595 1248.77 430.072 1210.25 413.462 1186.44Z" fill="white"/>
<path d="M1488.84 911.257L1510.39 969.477C1512.74 975.843 1520.8 977.832 1525.84 973.257L1572.52 930.786L1488.84 911.29V911.257Z" fill="#EBEBEB"/>
<path d="M1606.98 854.036L1491.79 823.945C1481.97 821.381 1471.94 827.259 1469.38 837.074L1450.02 911.175C1447.45 920.99 1453.33 931.025 1463.15 933.589L1578.34 963.68C1588.16 966.244 1598.19 960.366 1600.75 950.551L1620.11 876.45C1622.68 866.635 1616.8 856.6 1606.98 854.036Z" fill="#EBEBEB"/>
<path d="M1567.18 891.497C1564.66 881.418 1557 877.937 1551.1 878.533C1544.67 879.197 1540.06 884.402 1540.06 884.402C1540.06 884.402 1538.6 877.605 1533.3 873.892C1528.42 870.477 1520.07 869.747 1512.94 877.307C1498.05 893.121 1528.99 926.807 1528.99 926.807C1528.99 926.807 1572.45 912.517 1567.18 891.464V891.497Z" fill="white"/>
<path d="M249.213 893.652L300.172 929.095C305.742 932.974 313.5 929.99 314.992 923.359L329.016 861.823L249.213 893.685V893.652Z" fill="#F5F5F5"/>
<path d="M313.42 779.233L201.705 820.402C192.187 823.91 187.314 834.47 190.822 843.988L217.305 915.851C220.813 925.37 231.373 930.242 240.891 926.735L352.606 885.565C362.124 882.058 366.997 871.498 363.489 861.979L337.006 790.116C333.498 780.598 322.938 775.725 313.42 779.233Z" fill="#F5F5F5"/>
<path d="M302.16 832.647C294.302 825.817 286.047 827.342 281.571 831.222C276.664 835.432 275.868 842.328 275.868 842.328C275.868 842.328 270.762 837.587 264.33 837.554C258.396 837.554 251.102 841.732 249.576 852.01C246.394 873.494 291.053 883.473 291.053 883.473C291.053 883.473 318.572 846.904 302.193 832.647H302.16Z" fill="white"/>
<path d="M1395.9 1199.41L1401.34 1281.76C1401.94 1290.78 1411.45 1296.35 1419.61 1292.4L1495.2 1255.93L1395.9 1199.41Z" fill="#F5F5F5"/>
<path d="M1573.28 1174.4L1427.49 1086.15C1418.82 1080.89 1407.52 1083.67 1402.27 1092.35L1343.26 1189.83C1338 1198.51 1340.78 1209.8 1349.46 1215.06L1495.24 1303.31C1503.92 1308.56 1515.21 1305.79 1520.46 1297.11L1579.48 1199.63C1584.73 1190.95 1581.95 1179.66 1573.28 1174.4Z" fill="#F5F5F5"/>
<path d="M1503.23 1203.88C1503.82 1190.06 1495.4 1182.73 1487.61 1181.27C1479.15 1179.68 1471.33 1184.59 1471.33 1184.59C1471.33 1184.59 1472.03 1175.37 1466.72 1168.64C1461.82 1162.44 1451.44 1158.36 1439.47 1165.29C1414.5 1179.78 1441.16 1234.48 1441.16 1234.48C1441.16 1234.48 1502 1232.76 1503.26 1203.88H1503.23Z" fill="white"/>
<path d="M1037.6 679.718C1053.25 680.016 1068.26 668.312 1071.81 653.061C1072.87 648.486 1072.97 643.479 1070.92 639.236C1068.89 634.992 1064.42 631.709 1059.74 632.074C1065.45 627.035 1069.36 619.774 1069.59 612.148C1069.86 604.523 1066.18 596.731 1059.71 592.686C1053.25 588.641 1044.16 588.973 1038.43 593.979C1037.56 585.79 1031.6 578.363 1023.8 575.777L991.479 587.514L1037.63 679.684L1037.6 679.718Z" fill="#263238"/>
<path d="M1029.41 1032.75L1018.03 935.971C1018.03 935.971 1086.27 916.078 1078.05 846.354C1074.1 812.669 1060.31 744.005 1047.08 682.006C1032.89 615.331 969.861 570.771 902.259 579.557L895.528 580.42C823.649 594.079 795.102 662.743 810.718 734.191L880.708 1003.34L965.418 1065.18L1029.34 1032.75H1029.41Z" fill="#FFBE9D"/>
<path d="M1018.07 935.971C1018.07 935.971 974.669 945.354 924.771 928.478C924.771 928.478 951.494 969.059 1020.16 953.775L1018.07 935.971Z" fill="#FF9A6C"/>
<path d="M1024.14 767.18C1025 772.418 1021.29 777.458 1015.85 778.452C1010.41 779.447 1005.3 776.032 1004.44 770.827C1003.58 765.588 1007.29 760.549 1012.7 759.554C1018.14 758.559 1023.24 761.974 1024.14 767.18Z" fill="#263238"/>
<path d="M1036.57 718.011C1035.51 719.47 1027.25 714.862 1016.54 716.287C1005.84 717.547 998.707 724.079 997.381 722.918C996.717 722.421 997.679 719.901 1000.76 716.983C1003.81 714.066 1009.22 710.916 1015.91 710.054C1022.58 709.225 1028.51 710.949 1032.06 713.038C1035.67 715.127 1037.1 717.348 1036.57 717.978V718.011Z" fill="#263238"/>
<path d="M931.867 773.943C932.729 779.182 929.016 784.221 923.578 785.216C918.141 786.211 913.035 782.829 912.173 777.59C911.311 772.352 915.024 767.312 920.462 766.318C925.899 765.323 931.005 768.738 931.867 773.943Z" fill="#263238"/>
<path d="M931.701 733.694C930.64 735.153 922.385 730.577 911.676 731.97C900.967 733.23 893.838 739.761 892.512 738.601C891.882 738.103 892.811 735.584 895.927 732.666C898.977 729.748 904.382 726.599 911.046 725.737C917.71 724.908 923.645 726.632 927.192 728.721C930.806 730.809 932.232 733.031 931.701 733.661V733.694Z" fill="#263238"/>
<path d="M980.837 807.96C980.704 807.363 987.203 805.34 997.812 802.555C1000.5 801.926 1003.02 801.03 1003.25 799.107C1003.65 797.052 1002.12 794.267 1000.37 791.25C996.95 784.983 993.336 778.386 989.59 771.49C974.504 743.341 963.232 720.033 964.359 719.436C965.486 718.84 978.649 741.186 993.701 769.334C997.348 776.297 1000.83 782.928 1004.18 789.26C1005.6 792.244 1007.86 795.527 1007 799.804C1006.53 801.926 1004.71 803.683 1003.02 804.379C1001.33 805.142 999.801 805.374 998.475 805.639C987.7 807.628 981.003 808.557 980.87 807.96H980.837Z" fill="#263238"/>
<path d="M1036.27 650.973C1036.27 650.973 1012.23 609.761 989.888 602.334C962.834 593.316 955.507 622.692 930.376 619.078C905.244 615.464 879.417 606.81 857.07 628.759C832.602 652.796 847.19 665.561 849.544 696.66C859.026 822.781 840.791 861.141 826.601 803.02C825.043 796.655 806.443 793.836 800.243 766.882C792.186 731.936 785.224 689.134 789.866 662.975C793.778 640.927 803.956 624.747 823.485 605.783C854.352 575.877 901.233 569.213 933.525 568.285C965.818 567.356 1032.06 596.035 1036.27 651.006V650.973Z" fill="#263238"/>
<path d="M830.811 800.5C828.988 789.824 818.611 782.53 808.034 784.951C795.203 787.868 781.709 797.118 786.086 823.841C793.811 871.219 838.271 852.421 839.664 852.354C849.677 851.89 834.226 820.327 830.845 800.5H830.811Z" fill="#FFBE9D"/>
<path d="M826.401 836.208C826.169 836.075 825.672 836.938 824.379 837.8C823.119 838.628 820.864 839.457 818.212 838.927C812.907 837.899 807.404 830.638 805.779 822.15C804.95 817.874 805.182 813.597 806.177 809.95C807.072 806.236 808.896 803.451 811.349 802.589C813.769 801.595 815.792 802.821 816.587 804.048C817.449 805.275 817.284 806.269 817.549 806.303C817.715 806.402 818.444 805.341 817.748 803.451C817.383 802.556 816.654 801.528 815.394 800.799C814.101 800.069 812.344 799.87 810.62 800.335C807.006 801.197 804.254 805.076 803.193 809.088C801.933 813.132 801.568 817.94 802.464 822.747C804.32 832.263 810.653 840.386 817.847 841.248C821.329 841.579 823.948 840.12 825.208 838.761C826.468 837.335 826.567 836.241 826.368 836.175L826.401 836.208Z" fill="#FF9A6C"/>
<path d="M969.994 650.64C969.994 650.64 970.226 650.64 970.326 650.64C970.624 650.64 970.889 650.574 971.188 650.574L969.994 650.64Z" fill="currentColor"/>
<path d="M892.314 555.619C869.338 546.038 841.355 551.21 834.658 575.147C821.064 570.241 804.951 573.092 793.911 582.408C782.87 591.725 777.3 607.109 779.853 621.332C768.978 625.277 760.656 635.522 759.032 646.961C757.407 658.399 762.546 670.567 771.863 677.364C764.734 683.663 762.281 694.704 766.127 703.423C769.973 712.143 779.753 717.812 789.236 716.785L818.71 680.878C838.006 681.243 855.379 662.311 853.357 643.115C868.608 646.397 885.55 639.6 894.237 626.637C898.779 634.992 907.664 640.794 917.114 641.656C926.563 642.518 936.343 638.374 942.311 630.947C945.527 643.479 956.468 653.691 969.233 656.045C981.964 658.366 995.823 652.696 1003.28 642.12C1016.74 650.11 1036.07 645.9 1044.96 633.003C1053.84 620.138 1050.93 600.544 1038.69 590.796C1049.43 583.668 1052.12 567.754 1046.28 556.249C1040.45 544.745 1027.82 537.716 1014.99 536.224C1011.77 535.859 1008.59 535.76 1005.37 535.925C990.982 536.721 977.422 542.855 966.647 552.403L957.927 560.128L892.314 555.586V555.619Z" fill="#263238"/>
<path d="M724.119 648.684C731.744 654.785 751.472 654.884 752.135 652.132C752.068 672.025 757.008 692.415 763.706 711.38C771.696 733.925 788.406 764.859 800.275 772.584C802.331 728.554 824.578 679.485 851.102 643.114C877.625 606.743 915.157 577.634 957.959 560.161L961.54 556.216C924.606 551.309 888.036 547.264 849.013 550.845C849.013 550.845 811.051 553.53 779.686 566.295C779.686 566.295 745.338 578.86 726.605 608.766C714.603 627.963 715.366 641.655 724.152 648.684H724.119Z" fill="currentColor"/>
<path d="M789.169 588.111C788.937 587.779 784.859 589.901 779.223 594.609C773.62 599.284 766.691 606.777 761.187 616.292C755.716 625.841 752.832 635.423 751.771 642.385C750.677 649.381 751.008 653.757 751.439 653.757C752.567 653.923 753.495 636.351 764.303 617.851C774.813 599.218 789.932 588.873 789.169 588.078V588.111Z" fill="#263238"/>
<g opacity="0.3">
<path d="M809.559 629.455C812.742 624.25 816.654 619.509 820.898 615.132C822.722 613.242 824.777 611.319 827.396 611.054C829.817 610.789 832.171 612.049 834.226 613.342C837.94 615.663 841.487 618.315 844.736 621.233C847.024 623.255 847.256 626.77 845.532 629.256C840.227 636.948 835.619 643.911 829.982 651.934C827.463 655.515 824.678 659.294 820.5 660.654C813.637 662.908 803.326 652.663 802.597 650.575C800.209 643.778 805.813 635.589 809.592 629.455H809.559Z" fill="black"/>
</g>
<path d="M909.719 788.366C909.951 787.901 915.09 790.885 922.053 790.454C929.048 790.189 933.889 786.741 934.154 787.172C934.287 787.338 933.259 788.432 931.17 789.659C929.081 790.852 925.865 792.013 922.152 792.178C918.439 792.344 915.123 791.515 912.935 790.521C910.747 789.526 909.619 788.531 909.719 788.332V788.366Z" fill="#FF9A6C"/>
<path d="M1038.46 775.766C1038.76 776.065 1033.25 780.441 1024.9 781.834C1016.58 783.293 1009.91 781.005 1010.11 780.64C1010.21 780.11 1016.71 781.568 1024.63 780.143C1032.56 778.85 1038.23 775.335 1038.49 775.8L1038.46 775.766Z" fill="#FF9A6C"/>
<path d="M941.979 832.859C940.354 842.64 945.792 852.619 953.782 858.487C961.739 864.389 972.316 865.848 981.964 863.593C988.197 862.135 994.297 859.681 998.342 854.708C1002.35 849.735 1005.57 839.191 1001.06 834.682C997.546 831.168 991.247 832.295 986.34 831.4C978.781 830.008 971.487 827.123 965.022 822.979C961.076 820.459 956.865 817.309 952.257 818.105C949.107 818.669 946.554 821.023 944.996 823.808C943.438 826.593 942.708 829.742 942.012 832.859" fill="white"/>
<g opacity="0.3">
<path d="M942.908 801.693C940.852 800.267 938.498 799.538 936.078 799.107H936.177C925.17 796.786 913.301 798.212 902.492 801.859C899.077 803.019 895.596 804.544 893.043 807.329C890.49 810.114 888.998 814.458 890.258 818.138C891.982 823.144 897.585 824.736 902.426 825.233C914.66 826.46 927.159 824.868 938.896 820.624C942.112 819.464 945.56 817.839 947.119 814.491C949.24 809.982 946.754 804.312 942.908 801.66V801.693Z" fill="#FF9A6C"/>
</g>
<path d="M947.881 802.821C947.682 803.086 944.698 800.069 938.332 798.312C932.099 796.521 922.783 795.46 913.002 797.317C908.161 798.245 903.851 800.434 900.27 802.821C896.69 805.241 893.872 807.96 891.717 810.446C887.44 815.453 885.881 819.332 885.583 819.166C885.483 819.133 885.782 818.138 886.578 816.414C887.373 814.723 888.699 812.303 890.788 809.651C892.844 806.998 895.695 804.081 899.375 801.495C903.022 798.942 907.498 796.588 912.67 795.593C922.882 793.703 932.331 794.996 938.73 797.118C941.913 798.245 944.366 799.572 945.858 800.732C947.35 801.892 948.013 802.721 947.947 802.788L947.881 802.821Z" fill="#FF9A6C"/>
<g opacity="0.3">
<path d="M1061.2 796.952C1059.84 795.195 1058.09 793.935 1056.16 792.907H1056.23C1047.61 787.967 1037.27 785.945 1027.19 786.077C1024 786.111 1020.66 786.442 1017.74 788.1C1014.82 789.758 1012.4 793.007 1012.47 796.422C1012.53 801.096 1016.81 803.981 1020.75 805.705C1030.7 810.081 1041.61 812.137 1052.65 811.772C1055.67 811.673 1059.02 811.242 1061.2 808.888C1064.19 805.672 1063.66 800.234 1061.17 796.985L1061.2 796.952Z" fill="#FF9A6C"/>
</g>
<path d="M1065.08 799.24C1064.82 799.406 1063.09 796.09 1058.22 792.908C1053.48 789.725 1045.95 786.343 1037.23 785.182C1032.92 784.619 1028.75 785.315 1025.1 786.343C1021.45 787.371 1018.33 788.896 1015.85 790.388C1010.91 793.405 1008.52 796.223 1008.29 795.991C1008.22 795.925 1008.72 795.162 1009.85 793.935C1010.97 792.709 1012.73 791.051 1015.22 789.36C1020.09 786.078 1028.15 782.464 1037.47 783.492C1046.58 784.685 1054.18 788.365 1058.95 791.913C1061.34 793.736 1062.99 795.527 1063.92 796.919C1064.85 798.312 1065.15 799.207 1065.08 799.24Z" fill="#FF9A6C"/>
<path d="M932.43 785.05C932.53 785.216 931.469 786.211 929.313 787.139C927.192 788.067 923.876 788.797 920.295 788.299C916.682 787.802 913.731 786.211 911.907 784.752C910.084 783.293 909.321 782.033 909.487 781.867C909.785 781.469 913.863 785.68 920.527 786.575C927.192 787.537 932.264 784.553 932.43 785.05Z" fill="#FF9A6C"/>
<path d="M1017.34 785.017C1017.41 785.481 1015.28 786.177 1012.6 785.846C1009.91 785.547 1007.99 784.354 1008.19 783.923C1008.35 783.458 1010.38 783.856 1012.8 784.122C1015.22 784.42 1017.27 784.519 1017.34 784.984V785.017Z" fill="#FF9A6C"/>
<g opacity="0.3">
<path d="M891.981 733.229C886.577 726.763 881.571 720.033 876.896 713.004C874.973 710.087 873.017 706.738 873.746 703.323C874.542 699.51 878.321 697.189 881.836 695.532C891.285 691.056 901.43 688.039 911.808 686.646C915.786 686.116 920.03 685.884 923.544 687.773C929.446 690.989 930.905 698.913 930.109 705.611C929.28 712.308 926.926 718.906 927.821 725.603C916.052 721.094 901.861 723.746 892.478 732.201" fill="#FF9A6C"/>
</g>
<g opacity="0.3">
<path d="M997.877 714.099C995.424 707.568 992.97 701.036 990.517 694.505C989.688 692.316 988.859 689.896 989.556 687.675C990.285 685.387 992.44 683.862 994.529 682.702C1003.65 677.496 1014.32 675.043 1024.8 675.706C1028.61 675.938 1032.99 677.032 1034.55 680.546C1035.18 681.972 1035.21 683.597 1035.24 685.188C1035.34 693.013 1035.41 700.837 1035.51 708.662C1029.18 706.573 1022.68 704.451 1015.98 704.617C1009.32 704.783 1002.29 707.7 999.038 713.535" fill="#FF9A6C"/>
</g>
<path d="M917.013 677.827C917.312 680.944 907.001 684.292 896.225 691.122C885.317 697.72 877.692 705.445 875.039 703.787C873.813 702.959 874.244 699.709 876.763 695.366C879.25 691.056 883.991 685.818 890.489 681.806C896.988 677.794 903.785 675.904 908.758 675.606C913.764 675.308 916.848 676.368 917.046 677.827H917.013Z" fill="#263238"/>
<path d="M1030.8 677.33C1028.45 679.585 1020.26 676.369 1010.14 675.407C1000.07 674.147 991.345 675.507 989.588 672.788C988.826 671.462 990.384 669.141 994.296 667.152C998.175 665.162 1004.51 663.803 1011.44 664.566C1018.37 665.328 1024.2 668.047 1027.52 670.832C1030.87 673.65 1031.83 676.236 1030.8 677.363V677.33Z" fill="#263238"/>
<path d="M1006.66 572.528C1006.66 572.528 1007.79 571.301 1009.32 568.814C1010.81 566.328 1012.4 562.283 1012.23 557.078C1012.1 552.005 1010.24 545.606 1005.14 541.031C1000.23 536.356 992.672 533.571 984.814 533.77C976.924 533.969 969.729 537.317 964.358 541.495C958.887 545.706 955.008 550.712 952.29 555.155C949.571 559.631 948.377 563.742 948.145 566.659C947.913 569.577 948.377 571.168 948.245 571.202C948.178 571.202 948.046 570.837 947.847 570.074C947.681 569.312 947.482 568.151 947.515 566.626C947.515 563.609 948.609 559.233 951.262 554.558C953.914 549.916 957.793 544.678 963.396 540.235C968.933 535.825 976.426 532.212 984.781 532.013C993.07 531.781 1001.06 534.764 1006.23 539.837C1011.6 544.844 1013.46 551.707 1013.43 557.044C1013.43 562.515 1011.57 566.726 1009.88 569.179C1009.02 570.406 1008.22 571.301 1007.62 571.798C1007.03 572.329 1006.73 572.594 1006.66 572.528Z" fill="#263238"/>
<path d="M1123.14 990.377C1110.9 980.597 1022.75 972.01 1022.75 972.01C1022.75 972.01 998.277 1024.66 938.267 1022.21C878.257 1019.75 869.703 972.01 869.703 972.01C857.469 974.463 743.615 1008.75 733.801 1020.98C724.021 1033.21 691.363 1534.91 691.363 1534.91H1154.1C1146.15 1517.24 1135.37 1000.19 1123.1 990.377H1123.14Z" fill="#455A64"/>
<path opacity="0.3" d="M973.974 1440.62L956.269 1411.87L966.315 1390.65C976.261 1369.6 967.276 1344.47 946.223 1334.52L893.341 1309.49C872.288 1299.55 847.157 1308.53 837.21 1329.58L789.302 1430.84C779.355 1451.89 788.34 1477.02 809.393 1486.97L862.275 1512C883.329 1521.95 908.46 1512.96 918.406 1491.91L931.27 1464.76L965.718 1458.89C974.173 1457.46 978.483 1447.91 973.974 1440.62Z" fill="black"/>
<path d="M863.238 1476.39L940.356 1463.3C948.811 1461.87 953.121 1452.32 948.612 1445.03L906.903 1377.29L863.238 1476.39Z" fill="currentColor"/>
<path d="M813.524 1330.58L762.337 1438.77C753.284 1457.9 761.456 1480.75 780.59 1489.81L840.41 1518.11C859.544 1527.16 882.393 1518.99 891.446 1499.86L942.634 1391.66C951.687 1372.53 943.514 1349.68 924.38 1340.63L864.561 1312.33C845.427 1303.27 822.577 1311.45 813.524 1330.58Z" fill="currentColor"/>
<path d="M857.038 1374.77C843.942 1375.54 837.875 1384.22 837.245 1391.68C836.549 1399.81 841.953 1406.7 841.953 1406.7C841.953 1406.7 833.2 1406.93 827.365 1412.6C821.994 1417.81 819.143 1428.02 826.868 1438.63C842.948 1460.78 891.95 1430.34 891.95 1430.34C891.95 1430.34 884.424 1373.18 857.105 1374.77H857.038Z" fill="white"/>
<path opacity="0.3" d="M695.937 1456.77C695.937 1456.77 706.481 1471.55 732.076 1463.56C757.672 1455.57 913.797 1381.01 913.797 1381.01L898.314 1364.4L695.904 1425.04V1456.8L695.937 1456.77Z" fill="black"/>
<path d="M716.527 1170.08L784.296 1267.25C791.722 1277.9 807.57 1277.66 814.665 1266.79L880.544 1165.9L716.561 1170.08H716.527Z" fill="currentColor"/>
<path d="M683.307 1007.45L904.018 1007.76C925.171 1007.79 942.321 1024.98 942.292 1046.14L942.097 1185.72C942.067 1206.87 924.869 1224.02 903.716 1223.99L683.005 1223.68C661.853 1223.65 644.702 1206.46 644.732 1185.3L644.927 1045.69C644.956 1024.54 662.155 1007.39 683.307 1007.42L683.307 1007.45Z" fill="currentColor"/>
<path d="M851.765 1095.98C842.25 1078.54 826.468 1075.82 815.825 1079.76C804.254 1084.07 798.253 1095.91 798.253 1095.91C798.253 1095.91 792.286 1084.04 780.715 1079.73C770.105 1075.75 754.29 1078.44 744.742 1095.84C724.782 1132.18 798.121 1179.62 798.121 1179.62C798.121 1179.62 871.592 1132.38 851.765 1096.01V1095.98Z" fill="white"/>
<path d="M1087.46 1154.39C1057.19 1225.41 1028.38 1296.99 1028.38 1296.99L831.044 1159.6L773.885 1207.11C773.885 1207.11 946.091 1448.05 1010.15 1449.97C1074.2 1451.92 1147.04 1367.74 1204.4 1223.62L1087.43 1154.39H1087.46Z" fill="#FFBE9D"/>
<path d="M1116.61 987.194C1116.61 987.194 1168.59 990.311 1187.49 1030.93C1202.05 1062.19 1236.92 1209.8 1222.14 1222.99C1207.35 1236.19 1068.43 1176.87 1068.43 1176.87L1116.64 987.227L1116.61 987.194Z" fill="#455A64"/>
<path d="M1053.68 996.279L1132.22 1029.47C1140.84 1033.11 1150.39 1026.88 1150.52 1017.53L1151.92 930.831L1053.68 996.279Z" fill="currentColor"/>
<path d="M980.162 904.303L1096.46 831.266C1114.37 820.016 1138.05 825.426 1149.3 843.339L1191.3 910.219C1202.55 928.132 1197.14 951.809 1179.23 963.059L1062.93 1036.1C1045.02 1047.35 1021.34 1041.94 1010.09 1024.02L968.089 957.143C956.839 939.23 962.249 915.553 980.162 904.303Z" fill="currentColor"/>
<g opacity="0.2">
<path d="M980.162 904.303L1096.46 831.266C1114.37 820.016 1138.05 825.426 1149.3 843.339L1191.3 910.219C1202.55 928.132 1197.14 951.809 1179.23 963.059L1062.93 1036.1C1045.02 1047.35 1021.34 1041.94 1010.09 1024.02L968.089 957.143C956.839 939.23 962.249 915.553 980.162 904.303Z" fill="black"/>
</g>
<path d="M1107.59 899.268C1095.12 892.305 1084.44 896.681 1079.47 903.18C1074.1 910.242 1074.96 919.757 1074.96 919.757C1074.96 919.757 1066.77 914.817 1058.09 916.607C1050.1 918.265 1041.51 925.957 1042.37 940.214C1044.16 969.987 1107.02 970.749 1107.02 970.749C1107.02 970.749 1133.65 913.789 1107.59 899.268Z" fill="white"/>
<path d="M652.836 924.598L718.383 952.283C725.577 955.333 733.535 950.128 733.667 942.336L734.828 869.992L652.836 924.598Z" fill="currentColor"/>
<path d="M596.898 844.498L683.179 790.312C701.092 779.062 724.769 784.472 736.019 802.385L764.32 847.448C775.57 865.361 770.16 889.039 752.247 900.289L665.967 954.476C648.054 965.726 624.376 960.316 613.126 942.403L584.825 897.339C573.575 879.426 578.985 855.748 596.898 844.498Z" fill="currentColor"/>
<g opacity="0.2">
<path d="M596.898 844.498L683.179 790.312C701.092 779.062 724.769 784.472 736.019 802.385L764.32 847.448C775.57 865.361 770.16 889.039 752.247 900.289L665.967 954.475C648.054 965.725 624.376 960.315 613.126 942.402L584.825 897.339C573.575 879.426 578.985 855.748 596.898 844.498Z" fill="black"/>
</g>
<path d="M697.827 843.668C687.417 837.866 678.498 841.513 674.387 846.95C669.878 852.819 670.64 860.776 670.64 860.776C670.64 860.776 663.811 856.664 656.55 858.156C649.886 859.516 642.691 865.948 643.42 877.85C644.912 902.683 697.363 903.346 697.363 903.346C697.363 903.346 719.577 855.836 697.827 843.701V843.668Z" fill="white"/>
<path d="M1198.23 979.967L1042.77 925.029C1025.2 918.829 1005.97 928.013 999.736 945.585L965.918 1041.3C959.718 1058.88 968.902 1078.14 986.474 1084.34L1035.24 1101.58L1046.29 1141.43C1049 1151.21 1060.74 1155.12 1068.76 1148.96L1100.46 1124.65L1141.9 1139.31C1159.48 1145.51 1178.74 1136.32 1184.94 1118.75L1218.76 1023.03C1224.96 1005.46 1215.77 986.2 1198.2 980L1198.23 979.967Z" fill="currentColor"/>
<path opacity="0.3" d="M1198.23 979.967L1042.77 925.029C1025.2 918.829 1005.97 928.013 999.736 945.585L965.918 1041.3C959.718 1058.88 968.902 1078.14 986.474 1084.34L1035.24 1101.58L1046.29 1141.43C1049 1151.21 1060.74 1155.12 1068.76 1148.96L1100.46 1124.65L1141.9 1139.31C1159.48 1145.51 1178.74 1136.32 1184.94 1118.75L1218.76 1023.03C1224.96 1005.46 1215.77 986.2 1198.2 980L1198.23 979.967Z" fill="black"/>
<path d="M1135.34 1031.22C1132.85 1015.91 1121.91 1009.81 1113.06 1009.97C1103.44 1010.14 1095.92 1017.3 1095.92 1017.3C1095.92 1017.3 1094.59 1007.02 1087.2 1000.82C1080.4 995.118 1068.07 992.997 1056.5 1003.37C1032.39 1024.99 1074.14 1078.97 1074.14 1078.97C1074.14 1078.97 1140.51 1063.22 1135.34 1031.26V1031.22Z" fill="white"/>
<path d="M791.325 1214.77C791.325 1214.77 595.414 1214.5 587.689 1204.66C579.997 1194.81 606.653 1035.93 652.804 1000.06C707.941 957.189 791.292 1214.74 791.292 1214.74L791.325 1214.77Z" fill="#455A64"/>
<path d="M820.368 968.661L646.836 907.324C627.241 900.395 605.757 910.673 598.828 930.267L561.064 1037.13C554.135 1056.72 564.413 1078.24 584.008 1085.13L638.448 1104.36L650.781 1148.82C653.798 1159.73 666.895 1164.11 675.879 1157.21L711.256 1130.09L757.506 1146.44C777.101 1153.37 798.585 1143.09 805.515 1123.49L843.278 1016.64C850.207 997.041 839.929 975.524 820.335 968.627L820.368 968.661Z" fill="currentColor"/>
<path opacity="0.3" d="M820.368 968.661L646.836 907.324C627.241 900.395 605.757 910.673 598.828 930.267L561.064 1037.13C554.135 1056.72 564.413 1078.24 584.008 1085.13L638.448 1104.36L650.781 1148.82C653.798 1159.73 666.895 1164.11 675.879 1157.21L711.256 1130.09L757.506 1146.44C777.101 1153.37 798.585 1143.09 805.515 1123.49L843.278 1016.64C850.207 997.041 839.929 975.524 820.335 968.627L820.368 968.661Z" fill="black"/>
<path d="M750.213 1025.85C747.428 1008.74 735.227 1001.95 725.347 1002.11C714.605 1002.31 706.217 1010.3 706.217 1010.3C706.217 1010.3 704.725 998.831 696.502 991.935C688.91 985.569 675.151 983.215 662.254 994.786C635.332 1018.89 681.914 1079.13 681.914 1079.13C681.914 1079.13 756.015 1061.53 750.213 1025.85Z" fill="white"/>
<path d="M765.33 1005.5L815.361 1106.98C820.831 1118.09 835.817 1120.14 844.073 1110.89L920.726 1025.06L765.297 1005.5H765.33Z" fill="currentColor"/>
<path d="M759.006 847.402L963.932 878.796C984.841 882 999.216 901.576 996.013 922.485L976.341 1050.89C973.138 1071.8 953.561 1086.17 932.653 1082.97L727.727 1051.57C706.818 1048.37 692.443 1028.79 695.646 1007.88L715.317 879.483C718.52 858.574 738.097 844.198 759.006 847.402Z" fill="currentColor"/>
<path d="M903.618 954.902C897.153 937.064 882.598 932.224 872.021 934.445C860.484 936.832 853.123 947.176 853.123 947.176C853.123 947.176 849.178 935.141 838.9 929.372C829.451 924.101 814.133 924.366 802.629 939.418C778.591 970.882 841.022 1026.18 841.022 1026.18C841.022 1026.18 917.145 992.101 903.651 954.902H903.618Z" fill="white"/>
<path opacity="0.3" d="M694.546 987.195C694.546 987.195 868.078 962.13 889.96 967.6C911.842 973.071 918.805 1002.91 918.805 1002.91C918.805 1002.91 701.774 1019.82 700.879 1017.83C699.983 1015.84 690.601 998.832 694.546 987.195Z" fill="black"/>
<path d="M708.008 1149.49L782.507 1234.63C790.663 1243.94 805.682 1242.05 811.285 1231.01L863.205 1128.33L708.008 1149.49Z" fill="currentColor"/>
<path d="M661.165 998.338L867.257 975.84C888.285 973.544 907.222 988.753 909.517 1009.78L923.614 1138.91C925.909 1159.94 910.7 1178.88 889.673 1181.17L683.58 1203.67C662.552 1205.97 643.616 1190.76 641.32 1169.73L627.224 1040.6C624.928 1019.57 640.137 1000.63 661.165 998.338Z" fill="currentColor"/>
<path d="M828.591 1064.94C817.75 1049.39 802.465 1048.46 792.784 1053.34C782.274 1058.64 777.798 1070.51 777.798 1070.51C777.798 1070.51 770.869 1059.87 759.464 1056.99C748.953 1054.3 734.233 1058.51 727.005 1076.05C711.886 1112.65 786.485 1149.98 786.485 1149.98C786.485 1149.98 851.269 1097.43 828.624 1064.98L828.591 1064.94Z" fill="white"/>
<g opacity="0.3">
<path d="M1006.2 1032.52C1011.87 1017.6 1001.53 1000.42 987.402 993.029C973.278 985.636 956.568 985.603 940.621 986.1C898.514 987.36 856.507 990.874 814.666 995.682C795.934 997.837 776.439 1000.52 760.955 1011.3C745.472 1022.04 735.691 1043.46 744.08 1060.33L820.866 1125.62L1006.23 1032.58L1006.2 1032.52Z" fill="black"/>
</g>
<path d="M970.758 996.544L787.147 1009.44C766.425 1010.9 750.776 1028.9 752.235 1049.63L760.192 1162.68C761.651 1183.4 779.654 1199.05 800.376 1197.59L857.965 1193.55L887.009 1229.42C894.137 1238.21 907.896 1237.02 913.367 1227.14L935.017 1188.15L983.954 1184.7C1004.68 1183.24 1020.32 1165.24 1018.87 1144.51L1010.91 1031.46C1009.45 1010.73 991.447 995.086 970.725 996.544H970.758Z" fill="currentColor"/>
<path opacity="0.2" d="M970.758 996.544L787.147 1009.44C766.425 1010.9 750.776 1028.9 752.235 1049.63L760.192 1162.68C761.651 1183.4 779.654 1199.05 800.376 1197.59L857.965 1193.55L887.009 1229.42C894.137 1238.21 907.896 1237.02 913.367 1227.14L935.017 1188.15L983.954 1184.7C1004.68 1183.24 1020.32 1165.24 1018.87 1144.51L1010.91 1031.46C1009.45 1010.73 991.447 995.086 970.725 996.544H970.758Z" fill="black"/>
<path d="M929.182 1076.98C919.832 1062.39 905.907 1061.03 896.922 1065.11C887.141 1069.58 882.632 1080.23 882.632 1080.23C882.632 1080.23 876.698 1070.28 866.387 1067.23C856.904 1064.41 843.311 1067.76 836.083 1083.48C820.998 1116.33 887.738 1153 887.738 1153C887.738 1153 948.677 1107.35 929.149 1076.91L929.182 1076.98Z" fill="white"/>
<path d="M921.191 1214.77L951.429 1323.81C954.744 1335.75 969.1 1340.56 978.914 1333.03L1070.26 1263.01L921.191 1214.77Z" fill="currentColor"/>
<g opacity="0.3">
<path d="M1162 1157.51C1166.74 1147.73 1164.15 1134.93 1155.99 1127.7C1151.39 1123.63 1145.45 1121.37 1139.68 1119.25C1076.59 1095.81 1013.5 1072.34 950.435 1048.9C939.395 1044.78 927.592 1040.64 916.087 1043.23C901.333 1046.57 888.867 1058.91 883.661 1073.13C868.112 1115.77 855.182 1149.95 845.766 1187.15L933.062 1246.96L1162 1157.51Z" fill="black"/>
</g>
<path d="M944.495 1058.27L1140.03 1127.36C1159.98 1134.41 1170.45 1156.32 1163.4 1176.27L1120.12 1298.75C1113.08 1318.69 1091.16 1329.16 1071.22 1322.12L875.682 1253.03C855.737 1245.98 845.266 1224.07 852.313 1204.12L895.589 1081.64C902.636 1061.7 924.55 1051.23 944.495 1058.27Z" fill="currentColor"/>
<path d="M1066.54 1190.86C1063.49 1172.13 1050.13 1164.67 1039.29 1164.87C1027.52 1165.07 1018.34 1173.86 1018.34 1173.86C1018.34 1173.86 1016.71 1161.29 1007.69 1153.73C999.371 1146.77 984.286 1144.18 970.162 1156.85C940.687 1183.27 991.712 1249.25 991.712 1249.25C991.712 1249.25 1072.88 1229.99 1066.54 1190.9V1190.86Z" fill="white"/>
<path d="M1045.75 1281.81C1036.6 1259.86 1002.59 1229.46 999.338 1226.27C996.089 1223.12 745.008 1308.5 743.947 1294.8C742.852 1281.11 742.156 1245.2 741.062 1226.44L613.118 1213.38C613.118 1217.72 599.06 1284.82 613.516 1371.46C627.805 1457 731.878 1436.67 763.806 1422.05C800.84 1405.11 1054.94 1303.79 1045.75 1281.84V1281.81Z" fill="#FFBE9D"/>
<path d="M750.842 1122.2L617.593 1203.1C602.541 1212.25 597.767 1231.84 606.884 1246.9L656.716 1328.95C665.867 1344.01 685.461 1348.78 700.514 1339.66L742.322 1314.27L778.096 1330.01C786.882 1333.89 796.762 1327.63 797.06 1318.05L798.254 1280.28L833.796 1258.7C848.848 1249.55 853.622 1229.95 844.505 1214.9L794.673 1132.84C785.522 1117.79 765.928 1113.02 750.876 1122.13L750.842 1122.2Z" fill="currentColor"/>
<path opacity="0.2" d="M750.842 1122.2L617.593 1203.1C602.541 1212.25 597.767 1231.84 606.884 1246.9L656.716 1328.95C665.867 1344.01 685.461 1348.78 700.514 1339.66L742.322 1314.27L778.096 1330.01C786.882 1333.89 796.762 1327.63 797.06 1318.05L798.254 1280.28L833.796 1258.7C848.848 1249.55 853.622 1229.95 844.505 1214.9L794.673 1132.84C785.522 1117.79 765.928 1113.02 750.876 1122.13L750.842 1122.2Z" fill="black"/>
<path d="M750.71 1198.89C738.011 1191.53 727.004 1195.9 721.799 1202.47C716.162 1209.63 716.925 1219.41 716.925 1219.41C716.925 1219.41 708.603 1214.24 699.651 1215.93C691.429 1217.49 682.477 1225.28 683.14 1239.93C684.533 1270.5 749.019 1272.26 749.019 1272.26C749.019 1272.26 777.233 1214.24 750.71 1198.92V1198.89Z" fill="white"/>
<path opacity="0.3" d="M644.714 1186.06C644.714 1186.06 652.24 1206.41 684.997 1212.51C717.721 1218.61 779.19 1240.63 779.19 1240.63C779.19 1240.63 879.616 1408.29 979.611 1438.53C1035.08 1455.31 995.757 1352.06 995.757 1352.06L779.853 1165.93L641.631 1187.71" fill="black"/>
<path d="M969.365 1244.41C970.492 1241.52 1005.6 1175.08 1013.89 1168.09C1022.15 1161.09 1035.28 1154.53 1045.89 1142.56C1056.5 1130.59 1067.3 1108.97 1073.67 1113.41C1080.04 1117.86 1085.11 1131.22 1080.04 1145.21C1074.96 1159.2 1051.42 1177.01 1051.42 1177.01C1051.42 1177.01 1052.68 1180.19 1062.23 1178.27C1071.78 1176.34 1118.83 1165.27 1125.82 1165.4C1132.82 1165.53 1153.41 1169.35 1156.79 1174.45C1160.17 1179.56 1159.54 1193.65 1153.81 1194.25C1148.07 1194.81 1108.02 1195.44 1104.84 1202.44C1101.65 1209.43 1127.08 1204.99 1127.08 1204.99C1127.08 1204.99 1146.15 1203.07 1151.88 1210.72C1157.62 1218.35 1145.52 1227.27 1137.89 1229.16C1130.27 1231.08 1105.47 1229.16 1108.65 1236.78C1111.83 1244.41 1124.56 1230.05 1137.89 1241.06C1151.25 1252.07 1131.66 1262.08 1131.66 1262.08C1131.66 1262.08 1130.2 1276.5 1124.83 1283.07C1119.46 1289.63 1048.24 1315.69 1031.7 1311.85C1015.15 1308.03 969.365 1244.44 969.365 1244.44V1244.41Z" fill="#FFBE9D"/>
<path d="M1129.63 1260.72C1129.77 1261.19 1124.1 1263.34 1116.97 1265.53C1109.84 1267.72 1103.94 1269.14 1103.81 1268.68C1103.67 1268.21 1109.34 1266.06 1116.47 1263.87C1123.6 1261.68 1129.5 1260.26 1129.63 1260.72Z" fill="#FF9A6C"/>
<path d="M1085.74 1203.13C1085.24 1203.26 1084.11 1199.55 1080.7 1196.5C1077.38 1193.35 1073.6 1192.49 1073.7 1191.99C1073.67 1191.53 1078.11 1191.69 1081.89 1195.21C1085.71 1198.69 1086.2 1203.13 1085.74 1203.1V1203.13Z" fill="#FF9A6C"/>
<path d="M1092.8 1229.52C1092.34 1229.36 1093.43 1225.88 1092.83 1221.6C1092.34 1217.32 1090.41 1214.24 1090.81 1213.94C1091.11 1213.61 1093.96 1216.56 1094.52 1221.37C1095.15 1226.17 1093.17 1229.72 1092.77 1229.49L1092.8 1229.52Z" fill="#FF9A6C"/>
<path d="M969.365 1244.41C970.492 1241.52 1005.6 1175.08 1013.89 1168.09C1022.15 1161.09 1035.28 1154.53 1045.89 1142.56C1056.5 1130.59 1067.3 1108.97 1073.67 1113.41C1080.04 1117.86 1085.11 1131.22 1080.04 1145.21C1074.96 1159.2 1051.42 1177.01 1051.42 1177.01C1051.42 1177.01 1052.68 1180.19 1062.23 1178.27C1071.78 1176.34 1118.83 1165.27 1125.82 1165.4C1132.82 1165.53 1153.41 1169.35 1156.79 1174.45C1160.17 1179.56 1159.54 1193.65 1153.81 1194.25C1148.07 1194.81 1108.02 1195.44 1104.84 1202.44C1101.65 1209.43 1127.08 1204.99 1127.08 1204.99C1127.08 1204.99 1146.15 1203.07 1151.88 1210.72C1157.62 1218.35 1145.52 1227.27 1137.89 1229.16C1130.27 1231.08 1105.47 1229.16 1108.65 1236.78C1111.83 1244.41 1124.56 1230.05 1137.89 1241.06C1151.25 1252.07 1131.66 1262.08 1131.66 1262.08C1131.66 1262.08 1130.2 1276.5 1124.83 1283.07C1119.46 1289.63 1048.24 1315.69 1031.7 1311.85C1015.15 1308.03 969.365 1244.44 969.365 1244.44V1244.41Z" fill="#FFBE9D"/>
<path d="M1129.63 1260.72C1129.77 1261.19 1124.1 1263.34 1116.97 1265.53C1109.84 1267.72 1103.94 1269.14 1103.81 1268.68C1103.67 1268.21 1109.34 1266.06 1116.47 1263.87C1123.6 1261.68 1129.5 1260.26 1129.63 1260.72Z" fill="#FF9A6C"/>
<path d="M1085.74 1203.13C1085.24 1203.26 1084.11 1199.55 1080.7 1196.5C1077.38 1193.35 1073.6 1192.49 1073.7 1191.99C1073.67 1191.53 1078.11 1191.69 1081.89 1195.21C1085.71 1198.69 1086.2 1203.13 1085.74 1203.1V1203.13Z" fill="#FF9A6C"/>
<path d="M1092.8 1229.52C1092.34 1229.36 1093.43 1225.88 1092.83 1221.6C1092.34 1217.32 1090.41 1214.24 1090.81 1213.94C1091.11 1213.61 1093.96 1216.56 1094.52 1221.37C1095.15 1226.17 1093.17 1229.72 1092.77 1229.49L1092.8 1229.52Z" fill="#FF9A6C"/>
<path d="M783.699 1095.84C775.907 1081.69 747.394 1061.86 733.469 1051.42C719.544 1040.97 721.533 1042.33 715.731 1036.5C711.421 1032.15 703.066 1027.05 700.911 1044.95C698.756 1062.89 723.622 1080.53 729.258 1083.87C734.928 1087.26 656.45 1067.69 646.338 1067.83C636.226 1067.96 617.792 1090.74 618.422 1092.76C625.252 1114.44 637.751 1094.42 641.962 1092.89C646.173 1091.37 662.617 1094.72 667.955 1100.72C673.293 1106.75 638.945 1103.44 629.529 1109.04C620.113 1114.64 622.798 1129.03 627.573 1129.69C645.377 1132.18 652.671 1128.27 654.925 1130.79C657.909 1134.14 631.982 1131.15 627.573 1145.44C623.163 1159.73 630.523 1159.63 637.585 1161.12C643.686 1162.42 648.593 1160.99 651.975 1160.73C655.39 1160.46 642.028 1164.17 637.353 1168.32C625.816 1178.56 632.778 1189.04 654.196 1192.65C674.42 1192.39 771.862 1217.92 771.862 1217.92C771.862 1217.92 816.588 1179.66 823.783 1170.41C830.944 1161.16 792.617 1111.96 783.699 1095.74V1095.84Z" fill="#FFBE9D"/>
<path d="M815.162 1153.03L772.525 1217.39C772.525 1217.39 947.549 1443.74 1002.32 1445.99L1042.84 1312.21L815.129 1153.07L815.162 1153.03Z" fill="#FFBE9D"/>
<path d="M921.722 1389.46C921.722 1389.46 921.258 1389.16 920.529 1388.43C919.667 1387.57 918.606 1386.51 917.346 1385.28C914.461 1382.3 910.582 1378.29 905.907 1373.45C896.326 1363.4 883.13 1349.44 868.874 1333.73C854.617 1318.01 842.118 1303.42 833.232 1292.75C828.823 1287.38 825.275 1283.03 822.888 1279.95C821.794 1278.56 820.899 1277.36 820.169 1276.4C819.572 1275.57 819.274 1275.14 819.307 1275.08C819.34 1275.04 819.738 1275.41 820.434 1276.17C821.263 1277.1 822.225 1278.19 823.418 1279.52C826.137 1282.67 829.784 1286.85 834.194 1291.95C843.278 1302.46 855.943 1316.89 870.167 1332.57C884.39 1348.12 897.254 1362.17 906.803 1372.62C911.312 1377.62 915.025 1381.74 917.843 1384.82C919.004 1386.15 919.965 1387.27 920.761 1388.2C921.424 1389 921.755 1389.43 921.689 1389.46H921.722Z" fill="#FF9A6C"/>
<path d="M1046.68 1313.54C1046.68 1313.54 1046.09 1313.34 1045.06 1312.77C1043.86 1312.11 1042.37 1311.28 1040.58 1310.29C1036.74 1308.07 1031.23 1304.72 1024.57 1300.41C1011.21 1291.82 993.204 1279.26 973.51 1265.1C954.015 1250.91 936.376 1238.08 923.347 1228.59C917.08 1224.02 911.941 1220.27 908.162 1217.52C906.504 1216.29 905.145 1215.3 904.05 1214.47C903.122 1213.77 902.658 1213.38 902.691 1213.31C902.724 1213.28 903.255 1213.58 904.249 1214.17C905.41 1214.9 906.802 1215.83 908.56 1216.96C912.273 1219.41 917.578 1223.02 924.076 1227.57C937.106 1236.65 954.877 1249.52 974.537 1263.67C994.198 1277.83 1012.07 1290.49 1025.26 1299.35C1031.83 1303.79 1037.23 1307.27 1040.95 1309.66C1042.67 1310.75 1044.1 1311.68 1045.26 1312.41C1046.22 1313.07 1046.72 1313.44 1046.72 1313.47L1046.68 1313.54Z" fill="#FF9A6C"/>
<path d="M661.159 1179.76C660.861 1180.12 658.673 1178.56 657.546 1175.58C656.385 1172.63 656.982 1170.01 657.446 1170.08C657.943 1170.08 658.142 1172.4 659.17 1174.98C660.132 1177.57 661.524 1179.43 661.159 1179.76Z" fill="#FF9A6C"/>
<path d="M667.127 1148.09C667.127 1148.09 666.132 1147.86 665.104 1146.74C664.077 1145.64 663.016 1143.75 662.585 1141.46C662.187 1139.18 662.518 1137.02 663.082 1135.63C663.646 1134.24 664.309 1133.54 664.508 1133.64C664.972 1133.87 663.48 1137.09 664.276 1141.13C664.972 1145.21 667.458 1147.73 667.127 1148.09Z" fill="#FF9A6C"/>
<path d="M670.806 1120.24C670.342 1120.24 670.01 1117.82 671.171 1115.14C672.298 1112.45 674.254 1110.99 674.552 1111.33C674.917 1111.66 673.723 1113.45 672.762 1115.8C671.767 1118.16 671.303 1120.24 670.806 1120.21V1120.24Z" fill="#FF9A6C"/>
<path d="M1218.89 397.193C1148.3 404.885 1084.84 353.926 1077.15 283.339C1069.46 212.753 1120.42 149.294 1191.01 141.603C1261.59 133.911 1325.05 184.87 1332.74 255.456C1340.43 326.043 1289.48 389.501 1218.89 397.193Z" fill="currentColor"/>
<path d="M1273.04 260.729C1267.52 238.721 1250.87 231.151 1238 232.503C1223.99 233.963 1213.94 245.318 1213.94 245.318C1213.94 245.318 1210.74 230.502 1199.23 222.391C1188.63 214.929 1170.41 213.361 1154.83 229.853C1122.39 264.298 1189.76 337.784 1189.76 337.784C1189.76 337.784 1284.5 306.692 1273.04 260.783V260.729Z" fill="white"/>
</g>
<defs>
<clipPath id="clip0_119_6484">
<rect width="1594.71" height="1572" fill="white" transform="translate(103 74)"/>
</clipPath>
</defs>
</svg>
