<svg width="1800" height="1720" viewBox="0 0 1800 1720" fill="none" xmlns="http://www.w3.org/2000/svg">
<path d="M932.239 1633.06C1315.32 1633.06 1625.86 1595.81 1625.86 1549.86C1625.86 1503.9 1315.32 1466.65 932.239 1466.65C549.161 1466.65 238.614 1503.9 238.614 1549.86C238.614 1595.81 549.161 1633.06 932.239 1633.06Z" fill="#E0E0E0"/>
<path d="M922.174 1612.42C755.238 1612.42 598.249 1605.8 480.151 1593.76C395.748 1585.16 295.152 1570.05 295.152 1546.98C295.152 1523.91 395.748 1508.8 480.151 1500.2C598.249 1488.16 755.2 1481.54 922.174 1481.54C1089.15 1481.54 1246.1 1488.16 1364.2 1500.2C1448.6 1508.8 1549.2 1523.91 1549.2 1546.98C1549.2 1570.05 1448.6 1585.16 1364.2 1593.76C1246.1 1605.8 1089.15 1612.42 922.174 1612.42ZM922.174 1484.98C755.425 1484.98 598.697 1491.6 480.824 1503.64C317.553 1520.28 299.939 1539.46 299.939 1546.94C299.939 1554.42 317.553 1573.61 480.824 1590.25C598.697 1602.25 755.462 1608.91 922.174 1608.91C1088.89 1608.91 1245.65 1602.29 1363.52 1590.25C1526.8 1573.61 1544.45 1554.42 1544.45 1546.94C1544.45 1539.46 1526.83 1520.28 1363.52 1503.64C1245.65 1491.63 1088.92 1484.98 922.174 1484.98Z" fill="white"/>
<path d="M922.119 1579.19C736.298 1579.19 544.044 1564.2 544.044 1539.1C544.044 1514.01 736.26 1499.02 922.119 1499.02C1107.98 1499.02 1300.19 1514.01 1300.19 1539.1C1300.19 1564.2 1107.98 1579.19 922.119 1579.19ZM922.119 1502.57C698.827 1502.57 548.793 1521.49 548.793 1539.14C548.793 1556.79 698.789 1575.71 922.119 1575.71C1145.45 1575.71 1295.44 1556.79 1295.44 1539.14C1295.44 1521.49 1145.45 1502.57 922.119 1502.57Z" fill="white"/>
<path d="M681.514 232.393C681.514 232.393 681.475 232.086 681.437 231.509C681.437 230.856 681.437 230.01 681.36 228.973C681.36 226.629 681.283 223.4 681.206 219.25C681.13 210.719 681.014 198.421 680.899 182.972L681.475 183.549C638.78 183.626 570.874 183.779 494.514 183.933C494.937 183.51 493.553 184.894 495.436 182.972V184.548V186.123V189.313C495.436 191.427 495.436 193.54 495.436 195.616C495.436 199.804 495.436 203.955 495.436 208.105C495.436 216.368 495.436 224.476 495.436 232.431L494.514 231.509C547.739 231.663 594.355 231.817 627.751 231.932C644.391 232.047 657.764 232.124 667.064 232.201C671.599 232.239 675.173 232.278 677.709 232.316C678.862 232.316 679.785 232.355 680.476 232.393C681.091 232.393 681.437 232.431 681.475 232.47C681.475 232.47 681.206 232.508 680.592 232.547C679.9 232.547 679.016 232.547 677.94 232.624C675.442 232.624 671.945 232.7 667.525 232.739C658.264 232.816 644.967 232.893 628.404 233.008C594.816 233.123 548.008 233.277 494.514 233.431H493.592V232.508C493.592 224.553 493.592 216.445 493.592 208.182C493.592 204.07 493.592 199.881 493.592 195.692C493.592 193.579 493.592 191.504 493.592 189.39V186.2V184.625V183.126V183.049C495.513 181.128 494.13 182.511 494.553 182.088C570.913 182.242 638.818 182.357 681.514 182.473H682.09V183.049C681.937 198.69 681.86 211.064 681.783 219.673C681.706 223.785 681.668 226.974 681.629 229.28C681.629 230.279 681.591 231.086 681.552 231.701C681.552 232.239 681.552 232.508 681.475 232.47L681.514 232.393Z" fill="#E0E0E0"/>
<path d="M706.878 182.933C706.878 182.933 706.839 182.588 706.801 182.011C706.801 181.319 706.763 180.435 706.724 179.398C706.686 176.977 706.609 173.672 706.57 169.483C706.494 160.798 706.34 148.577 706.186 133.513L706.878 134.204C677.787 134.281 638.165 134.358 594.547 134.473C593.702 135.319 595.7 133.32 595.508 133.513V135.127V136.741V139.969C595.508 142.121 595.508 144.273 595.508 146.387C595.508 150.652 595.508 154.841 595.508 158.992C595.508 167.254 595.508 175.286 595.508 182.972L594.586 182.05C627.021 182.242 654.921 182.357 674.943 182.472C684.819 182.588 692.736 182.664 698.346 182.741C700.96 182.78 703.073 182.818 704.649 182.857C706.109 182.857 706.878 182.933 706.916 182.972C706.916 182.972 706.263 183.049 704.88 183.087C703.342 183.087 701.306 183.164 698.769 183.202C693.197 183.279 685.357 183.356 675.558 183.471C655.382 183.587 627.251 183.74 594.586 183.894H593.663V182.972C593.663 175.286 593.663 167.254 593.663 158.992C593.663 154.841 593.663 150.652 593.663 146.387C593.663 144.273 593.663 142.121 593.663 139.969V136.741V135.127V133.589V133.513C593.471 133.705 595.47 131.706 594.624 132.552C638.242 132.667 677.863 132.744 706.955 132.821H707.647V133.513C707.493 148.731 707.377 161.144 707.262 169.906C707.185 174.018 707.147 177.284 707.108 179.667C707.07 181.896 706.993 183.01 706.955 182.972L706.878 182.933Z" fill="#E0E0E0"/>
<path d="M1590.1 950.343C1590.1 950.343 1590.1 950.036 1590.06 949.459C1590.06 948.806 1590.06 947.96 1589.99 946.923C1589.99 944.579 1589.91 941.35 1589.83 937.2C1589.76 928.669 1589.64 916.371 1589.53 900.922L1590.1 901.499C1547.41 901.575 1479.5 901.729 1403.14 901.883C1403.56 901.46 1402.18 902.844 1404.06 900.922V902.498V904.073V907.263C1404.06 909.377 1404.06 911.49 1404.06 913.566C1404.06 917.754 1404.06 921.905 1404.06 926.055C1404.06 934.318 1404.06 942.426 1404.06 950.381L1403.14 949.459C1456.37 949.613 1502.98 949.767 1536.38 949.882C1553.02 949.997 1566.39 950.074 1575.69 950.151C1580.23 950.189 1583.8 950.228 1586.34 950.266C1587.49 950.266 1588.41 950.305 1589.1 950.343C1589.72 950.343 1590.06 950.381 1590.1 950.42C1590.1 950.42 1589.83 950.458 1589.22 950.497C1588.53 950.497 1587.64 950.497 1586.57 950.574C1584.07 950.574 1580.57 950.65 1576.15 950.689C1566.89 950.766 1553.59 950.843 1537.03 950.958C1503.44 951.073 1456.64 951.227 1403.14 951.381H1402.22V950.458C1402.22 942.503 1402.22 934.395 1402.22 926.132C1402.22 922.02 1402.22 917.831 1402.22 913.642C1402.22 911.529 1402.22 909.454 1402.22 907.34V904.15V902.575V901.076V900.999C1404.14 899.078 1402.76 900.461 1403.18 900.038C1479.54 900.192 1547.45 900.307 1590.14 900.423H1590.72V900.999C1590.56 916.64 1590.49 929.014 1590.41 937.623C1590.33 941.735 1590.29 944.924 1590.26 947.23C1590.26 948.229 1590.22 949.036 1590.18 949.651C1590.18 950.189 1590.18 950.458 1590.1 950.42V950.343Z" fill="#E0E0E0"/>
<path d="M1615.47 900.883C1615.47 900.883 1615.43 900.538 1615.39 899.923C1615.39 899.231 1615.35 898.347 1615.31 897.31C1615.27 894.888 1615.2 891.583 1615.16 887.395C1615.08 878.709 1614.93 866.489 1614.78 851.424L1615.47 852.116C1586.38 852.193 1546.75 852.27 1503.14 852.385C1502.29 853.23 1504.29 851.232 1504.1 851.424V853.038V854.652V857.88C1504.1 860.032 1504.1 862.185 1504.1 864.298C1504.1 868.564 1504.1 872.753 1504.1 876.903C1504.1 885.166 1504.1 893.197 1504.1 900.883L1503.17 899.961C1535.61 900.153 1563.51 900.269 1583.53 900.384C1593.41 900.499 1601.32 900.576 1606.94 900.653C1609.55 900.691 1611.66 900.73 1613.24 900.768C1614.7 900.768 1615.47 900.845 1615.51 900.883C1615.51 900.883 1614.85 900.96 1613.47 900.999C1611.93 900.999 1609.89 901.076 1607.36 901.114C1601.79 901.191 1593.95 901.268 1584.15 901.383C1563.97 901.498 1535.84 901.652 1503.17 901.806H1502.25V900.883C1502.25 893.197 1502.25 885.166 1502.25 876.903C1502.25 872.753 1502.25 868.564 1502.25 864.298C1502.25 862.185 1502.25 860.032 1502.25 857.88V854.652V853.038V851.501V851.424C1502.06 851.616 1504.06 849.618 1503.21 850.463C1546.83 850.579 1586.45 850.656 1615.54 850.732H1616.24V851.424C1616.08 866.642 1615.97 879.055 1615.85 887.817C1615.77 891.929 1615.74 895.196 1615.7 897.578C1615.66 899.807 1615.58 900.922 1615.54 900.883H1615.47Z" fill="#E0E0E0"/>
<path d="M1370.34 260.795H799.421C763.786 260.795 734.897 289.683 734.897 325.318V1438.79C734.897 1474.42 763.786 1503.31 799.421 1503.31H1370.34C1405.97 1503.31 1434.86 1474.42 1434.86 1438.79V325.318C1434.86 289.683 1405.97 260.795 1370.34 260.795Z" fill="#263238"/>
<path d="M735.05 1394.32H1434.86V1439.78C1434.86 1474.68 1406.54 1503.04 1371.6 1503.04H800.496C764.334 1503.04 735.012 1473.68 735.012 1437.56V1394.36L735.05 1394.32Z" fill="#455A64"/>
<path d="M799.614 260.757H1370.95C1406.23 260.757 1434.9 289.425 1434.9 324.704V342.382H735.09V325.357C735.09 289.733 764.028 260.795 799.652 260.795L799.614 260.757Z" fill="#455A64"/>
<path d="M1086.57 322.821C1095.76 322.821 1103.21 315.371 1103.21 306.181C1103.21 296.991 1095.76 289.541 1086.57 289.541C1077.38 289.541 1069.93 296.991 1069.93 306.181C1069.93 315.371 1077.38 322.821 1086.57 322.821Z" fill="white"/>
<path d="M1318.57 378.083C1373.18 378.083 1417.45 422.354 1417.45 476.963V1394.32H762.145V389.496L1318.61 378.083H1318.57Z" fill="#EBEBEB"/>
<g opacity="0.3">
<path d="M745.503 1472.99H1169.54C1240.94 1472.99 1298.85 1415.07 1298.85 1343.67V489.107C1298.85 489.107 1301.66 404.83 1337.25 387.037L1120.89 422.623L1138.68 1363.85L735.012 1437.56C735.012 1437.56 735.511 1461 745.465 1473.03L745.503 1472.99Z" fill="black"/>
</g>
<path d="M630.943 540.487V1455.81H1128.88C1206.78 1455.81 1269.96 1410.19 1269.96 1284.34V381.157H762.028C689.626 381.157 630.943 452.483 630.943 540.487Z" fill="#F5F5F5"/>
<path d="M630.945 1262.85C630.945 1262.85 630.868 1261.89 630.83 1260.09C630.83 1258.16 630.791 1255.47 630.714 1251.9C630.676 1244.64 630.599 1234.07 630.522 1220.47C630.445 1193.1 630.33 1153.64 630.215 1104.87C630.138 1007.22 630.023 872.367 629.907 723.49C629.907 686.251 629.907 649.897 629.907 614.772C629.907 597.21 629.907 579.955 629.907 563.084C630.061 546.252 629.369 529.535 631.944 513.471C636.325 481.343 649.084 452.098 666.954 429.502C676.1 418.357 686.13 408.48 697.275 401.025C699.927 398.95 702.962 397.566 705.729 395.837C707.151 394.992 708.573 394.184 709.957 393.377C711.379 392.609 712.916 392.032 714.338 391.341C717.297 390.072 720.179 388.689 723.061 387.536C726.059 386.614 729.018 385.691 731.977 384.769C734.859 383.732 737.895 383.27 740.816 382.732C743.775 382.271 746.657 381.503 749.578 381.272C755.419 381.003 761.107 380.388 766.602 380.542C777.593 380.542 787.969 380.58 797.654 380.619C817.022 380.696 833.701 380.734 847.382 380.772C860.986 380.849 871.554 380.926 878.818 380.965C882.353 381.003 885.082 381.041 887.003 381.08C888.848 381.08 889.77 381.195 889.77 381.195C889.77 381.195 888.809 381.272 887.003 381.31C885.082 381.31 882.392 381.349 878.818 381.426C871.554 381.464 860.986 381.541 847.382 381.618C833.701 381.656 817.022 381.733 797.654 381.772C787.969 381.772 777.593 381.81 766.602 381.848C761.068 381.695 755.496 382.348 749.732 382.617C746.849 382.848 744.006 383.616 741.085 384.077C738.164 384.615 735.205 385.077 732.361 386.114C729.479 387.037 726.558 387.959 723.599 388.881C720.717 390.034 717.873 391.418 714.991 392.686C713.569 393.377 712.07 393.915 710.648 394.684C709.265 395.491 707.881 396.298 706.46 397.144C703.731 398.873 700.733 400.256 698.12 402.293C687.129 409.71 677.214 419.471 668.222 430.501C650.583 452.905 638.016 481.881 633.712 513.701C631.137 529.573 631.867 546.136 631.752 563.045C631.752 579.954 631.752 597.171 631.752 614.734C631.752 649.858 631.752 686.213 631.752 723.452C631.637 872.367 631.521 1007.18 631.444 1104.83C631.329 1153.6 631.214 1193.06 631.137 1220.43C631.06 1234.03 630.983 1244.6 630.945 1251.86C630.906 1255.4 630.868 1258.13 630.83 1260.05C630.83 1261.89 630.714 1262.81 630.714 1262.81L630.945 1262.85Z" fill="#263238"/>
<path d="M1347.51 382.694C1307.2 396.567 1269.73 427.465 1269.84 484.994V581.377H1225.99V380.235L1327.18 378.352C1334.83 378.352 1338.94 379.735 1347.51 382.733V382.694Z" fill="#F5F5F5"/>
<path d="M1157.13 574.075H873.359V607.394H1157.13V574.075Z" fill="#E0E0E0"/>
<path d="M1046.56 647.592H873.359V680.911H1046.56V647.592Z" fill="#E0E0E0"/>
<path d="M1157.13 787.9H873.359V821.219H1157.13V787.9Z" fill="#E0E0E0"/>
<path d="M1046.56 861.415H873.359V894.734H1046.56V861.415Z" fill="#E0E0E0"/>
<path d="M769.6 1090.15C737.049 1090.15 710.571 1063.67 710.571 1031.12C710.571 998.572 737.049 972.093 769.6 972.093C802.15 972.093 828.628 998.572 828.628 1031.12C828.628 1063.67 802.15 1090.15 769.6 1090.15ZM769.6 975.936C739.163 975.936 714.414 1000.69 714.414 1031.12C714.414 1061.56 739.163 1086.31 769.6 1086.31C800.036 1086.31 824.785 1061.56 824.785 1031.12C824.785 1000.69 800.036 975.936 769.6 975.936Z" fill="#278DB4"/>
<path d="M769.6 898.646C737.049 898.646 710.571 872.168 710.571 839.618C710.571 807.068 737.049 780.59 769.6 780.59C802.15 780.59 828.628 807.068 828.628 839.618C828.628 872.168 802.15 898.646 769.6 898.646ZM769.6 784.433C739.163 784.433 714.414 809.182 714.414 839.618C714.414 870.055 739.163 894.803 769.6 894.803C800.036 894.803 824.785 870.055 824.785 839.618C824.785 809.182 800.036 784.433 769.6 784.433Z" fill="#278DB4"/>
<path d="M769.6 682.564C737.049 682.564 710.571 656.086 710.571 623.536C710.571 590.986 737.049 564.508 769.6 564.508C802.15 564.508 828.628 590.986 828.628 623.536C828.628 656.086 802.15 682.564 769.6 682.564ZM769.6 568.351C739.163 568.351 714.414 593.1 714.414 623.536C714.414 653.973 739.163 678.721 769.6 678.721C800.036 678.721 824.785 653.973 824.785 623.536C824.785 593.1 800.036 568.351 769.6 568.351Z" fill="#278DB4"/>
<path d="M1157.13 1001.72H873.359V1035.04H1157.13V1001.72Z" fill="#E0E0E0"/>
<path d="M1046.56 1075.2H873.359V1108.52H1046.56V1075.2Z" fill="#E0E0E0"/>
<path d="M769.6 1303.94C737.049 1303.94 710.571 1277.46 710.571 1244.91C710.571 1212.36 737.049 1185.88 769.6 1185.88C802.15 1185.88 828.628 1212.36 828.628 1244.91C828.628 1277.46 802.15 1303.94 769.6 1303.94ZM769.6 1189.72C739.163 1189.72 714.414 1214.47 714.414 1244.91C714.414 1275.34 739.163 1300.09 769.6 1300.09C800.036 1300.09 824.785 1275.34 824.785 1244.91C824.785 1214.47 800.036 1189.72 769.6 1189.72Z" fill="#278DB4"/>
<path d="M1157.13 1215.51H873.359V1248.83H1157.13V1215.51Z" fill="#E0E0E0"/>
<path d="M1046.56 1289.02H873.359V1322.34H1046.56V1289.02Z" fill="#E0E0E0"/>
<g opacity="0.3">
<path d="M1107.55 1302.01H1050.56L1020.85 1361.46C1020.85 1362.77 1098.37 1455.81 1098.37 1455.81H1143.37C1062.55 1428.1 1107.55 1302.01 1107.55 1302.01Z" fill="black"/>
</g>
<path d="M442.677 1262.85C442.677 1267.35 426.076 1431.87 534.794 1455.81H1143.37C1143.37 1455.81 1028.62 1416.92 1054.29 1262.85H442.677Z" fill="#EBEBEB"/>
<path d="M1128.88 1455.81C1128.88 1455.81 1129.92 1455.7 1131.95 1455.58C1134.03 1455.46 1137.03 1455.35 1140.95 1455.16C1144.9 1455.04 1149.75 1454.16 1155.47 1453.54C1158.36 1453.24 1161.35 1452.35 1164.62 1451.74C1167.89 1451.05 1171.34 1450.39 1174.88 1449.12C1189.21 1444.93 1206.43 1437.21 1222.07 1422.68C1237.64 1408.27 1251.36 1387.29 1258.85 1361.5C1262.62 1348.63 1265.61 1334.87 1267.03 1320.31C1267.42 1316.66 1267.77 1312.97 1268.15 1309.28C1268.57 1305.55 1268.46 1301.78 1268.65 1297.98C1268.92 1290.37 1269.15 1282.61 1269.07 1274.69C1269.07 1243.06 1268.99 1209.24 1268.99 1173.66C1268.99 1102.49 1268.96 1024.28 1268.92 942.195C1269.03 777.946 1269.11 629.261 1269.19 521.619C1269.23 508.168 1269.07 495.371 1269.3 483.227C1269.76 471.083 1271.8 459.631 1275.37 449.486C1278.91 439.302 1283.94 430.54 1289.44 423.2C1294.94 415.821 1300.85 409.788 1306.58 404.869C1318.11 395.069 1328.79 389.804 1336.06 386.768C1343.4 383.771 1347.47 382.771 1347.47 382.771C1347.47 382.771 1346.51 383.156 1344.59 383.848C1342.66 384.539 1339.82 385.538 1336.21 387.152C1328.98 390.304 1318.45 395.646 1307.08 405.484C1301.43 410.403 1295.59 416.436 1290.21 423.776C1284.79 431.116 1279.87 439.801 1276.41 449.87C1272.91 459.9 1270.95 471.237 1270.53 483.304C1270.34 495.371 1270.53 508.207 1270.53 521.657C1270.61 629.338 1270.72 777.984 1270.88 942.234C1270.88 1024.32 1270.84 1102.56 1270.8 1173.7C1270.8 1209.28 1270.72 1243.06 1270.72 1274.73C1270.8 1282.65 1270.53 1290.41 1270.26 1298.06C1270.07 1301.86 1270.19 1305.66 1269.73 1309.39C1269.34 1313.12 1268.96 1316.81 1268.57 1320.5C1267.07 1335.14 1264 1349.01 1260.19 1361.96C1252.55 1387.9 1238.64 1409.12 1222.8 1423.57C1206.93 1438.17 1189.48 1445.82 1175.07 1449.93C1171.5 1451.16 1168 1451.85 1164.73 1452.51C1161.43 1453.12 1158.43 1453.97 1155.51 1454.23C1149.75 1454.81 1144.87 1455.62 1140.91 1455.7C1136.99 1455.81 1133.99 1455.89 1131.88 1455.93C1129.84 1455.96 1128.8 1455.93 1128.8 1455.93L1128.88 1455.81Z" fill="#263238"/>
<path d="M534.793 1455.81C534.793 1455.81 533.371 1455.5 530.681 1454.81C529.297 1454.47 527.606 1454.04 525.646 1453.5C523.648 1452.93 521.419 1452.01 518.883 1451.12C508.814 1447.28 494.057 1439.75 480.491 1424.3C466.925 1408.96 455.32 1386.18 448.787 1358.39C442.1 1330.64 439.563 1298.02 441.908 1262.85V1262.05H442.715C529.105 1262.01 634.095 1261.93 747.233 1261.85C861.6 1261.93 967.59 1261.97 1054.29 1262.05H1055.25L1055.09 1263.01C1049.33 1297.36 1050.29 1329.84 1057.78 1356.93C1065.12 1384.14 1078.81 1405.24 1092.37 1419.88C1106.05 1434.64 1119.39 1443.36 1128.65 1448.66C1133.3 1451.28 1137.03 1453.04 1139.53 1454.2C1142.06 1455.31 1143.37 1455.85 1143.37 1455.85C1143.37 1455.85 1141.98 1455.46 1139.41 1454.43C1136.84 1453.39 1133.11 1451.66 1128.38 1449.12C1119 1443.97 1105.51 1435.29 1091.64 1420.57C1077.88 1405.93 1063.97 1384.75 1056.44 1357.35C1048.75 1330.07 1047.68 1297.33 1053.4 1262.82L1054.21 1263.78C967.475 1263.81 861.485 1263.89 747.156 1263.97C634.019 1263.89 529.028 1263.85 442.638 1263.78L443.445 1262.97C441.024 1298.17 443.445 1330.53 449.978 1358.2C456.396 1385.87 467.771 1408.54 481.106 1423.8C494.441 1439.21 509.006 1446.82 518.959 1450.81C521.496 1451.74 523.686 1452.7 525.685 1453.31C527.645 1453.85 529.336 1454.35 530.681 1454.73C533.371 1455.5 534.754 1455.96 534.754 1455.96L534.793 1455.81Z" fill="#263238"/>
<path d="M1179.99 322.937C1181.76 302.607 1198.36 286.812 1215.39 275.552C1218.08 273.785 1220.88 271.979 1222.84 269.404C1224.8 266.829 1225.69 263.178 1224.23 260.296C1222.27 256.491 1217.35 255.607 1213.12 255.146C1206.28 254.416 1199.48 253.686 1192.64 252.956L1196.44 224.21C1208.2 225.286 1220.11 226.362 1231.26 230.205C1242.44 234.01 1253.01 240.889 1258.93 251.073C1264.85 261.295 1265.27 275.13 1257.97 284.43C1252.51 291.386 1243.75 294.998 1238.1 301.8C1231.76 309.448 1230.37 320.823 1234.68 329.739C1237.79 336.233 1243.75 341.844 1243.94 349.069C1244.21 358.907 1233.37 365.632 1223.57 366.478C1211.93 367.477 1199.9 363.134 1191.64 354.833C1183.37 346.571 1178.99 334.542 1179.99 322.898V322.937Z" fill="#278DB4"/>
<path d="M1193.1 263.062C1205.2 245.269 1207.12 221.251 1198.78 201.421C1190.48 181.591 1172.46 166.296 1151.75 160.416C1131.03 154.536 1108.09 157.957 1089.49 168.755C1082.42 172.867 1075.92 177.979 1068.35 181.053C1060.78 184.127 1033.84 188.086 1027.16 183.359L991.993 257.183L1008.4 261.64L1193.1 263.062Z" fill="#278DB4"/>
<path d="M914.98 228.437C914.98 228.437 893.959 210.875 894.65 205.264C895.803 195.887 922.551 194.311 922.551 194.311C922.551 194.311 922.973 186.126 937.154 175.365C951.335 164.605 958.751 164.682 958.751 164.682C958.751 164.682 965.669 131.632 975.584 132.017C985.499 132.401 999.449 167.679 999.449 167.679C999.449 167.679 1028.39 171.407 1031.46 198.884C1034.57 226.4 1026.62 252.686 1011.02 256.107C995.414 259.527 935.232 276.282 923.396 248.536" fill="#278DB4"/>
<path d="M963.208 225.555L964.207 225.401C963.861 225.401 963.515 225.401 963.208 225.555Z" fill="#455A64"/>
<g opacity="0.3">
<path d="M966.861 165.067C974.432 164.567 982.041 165.143 989.458 166.758C987.037 160.109 984.577 153.499 982.156 146.851C981.465 144.929 979.774 142.086 977.699 142.047C976.238 142.047 974.624 143.546 974.009 144.66C970.627 150.809 968.937 157.65 967.438 164.49" fill="black"/>
</g>
<g opacity="0.3">
<path d="M1130.15 216.024C1127.11 208.415 1122.54 201.536 1117.97 194.734C1107.94 201.037 1102.71 214.18 1105.67 225.67C1096.68 226.285 1087.53 230.051 1082.3 237.391C1077.08 244.731 1076.85 255.838 1083.19 262.217L1116.93 257.567C1124.81 255.3 1130.65 248.075 1132.65 240.12C1134.65 232.165 1133.22 223.672 1130.19 216.063L1130.15 216.024Z" fill="black"/>
</g>
<path d="M1139.14 182.744C1108.09 180.822 1105.75 214.602 1118.5 233.856C1109.47 232.165 1099.87 233.663 1091.76 237.968C1088.03 239.966 1084.49 242.656 1082.61 246.422C1080.73 250.188 1083.26 260.026 1086.22 263.024H1178.3" fill="#278DB4"/>
<path d="M1178.3 263.062C1178.3 263.062 1177.69 263.139 1176.5 263.178C1175.11 263.178 1173.38 263.255 1171.27 263.293C1166.46 263.331 1159.89 263.408 1151.86 263.485C1135.11 263.524 1112.2 263.601 1086.22 263.677H1085.95L1085.8 263.485C1083.73 261.103 1082.76 258.22 1082 255.261C1081.42 252.302 1080.73 249.074 1082.19 245.923C1083.92 242.618 1086.8 240.235 1089.76 238.429C1092.76 236.623 1095.98 235.278 1099.21 234.317C1105.71 232.434 1112.43 232.203 1118.58 233.318L1118 234.163C1112.47 225.363 1110.24 215.525 1110.86 206.955C1111.28 198.308 1115.28 191.083 1120.31 187.317C1125.38 183.397 1130.65 183.013 1133.91 182.59C1135.45 182.59 1136.72 182.629 1137.76 182.629C1138.64 182.629 1139.06 182.667 1139.06 182.706C1139.06 182.706 1138.6 182.782 1137.72 182.821C1136.68 182.821 1135.41 182.898 1133.88 182.936C1130.65 183.474 1125.5 183.974 1120.66 187.855C1115.85 191.583 1112.05 198.577 1111.74 207.032C1111.16 215.371 1113.43 225.017 1118.85 233.548L1119.54 234.624L1118.27 234.394C1112.32 233.318 1105.78 233.548 1099.44 235.431C1096.29 236.354 1093.18 237.699 1090.26 239.428C1087.38 241.157 1084.69 243.463 1083.11 246.461C1081.92 248.959 1082.46 252.187 1083.03 254.954C1083.73 257.759 1084.72 260.641 1086.49 262.601L1086.07 262.409C1112.05 262.486 1134.95 262.563 1151.71 262.601C1159.74 262.678 1166.27 262.717 1171.12 262.793C1173.23 262.832 1174.96 262.87 1176.34 262.909C1177.53 262.909 1178.15 262.986 1178.15 263.024L1178.3 263.062Z" fill="#263238"/>
<path d="M1200.47 205.84C1200.47 205.84 1201.44 208.223 1202.2 212.258C1202.97 216.293 1203.63 221.98 1203.4 228.244C1203.16 234.547 1202.13 240.158 1201.01 244.116C1199.94 248.074 1198.94 250.419 1198.78 250.38C1198.59 250.303 1199.32 247.882 1200.17 243.924C1201.01 239.966 1201.94 234.393 1202.17 228.206C1202.4 222.019 1201.9 216.408 1201.36 212.411C1200.78 208.376 1200.24 205.917 1200.44 205.878L1200.47 205.84Z" fill="#263238"/>
<g opacity="0.3">
<path d="M1006.79 263.177C1006.67 251.764 1012.9 240.542 1022.58 234.547C1019.59 226.708 1021.2 217.292 1026.66 210.913C1027.12 217.907 1032.73 223.479 1034.69 230.205C1036.42 236.238 1035 242.887 1032.04 248.42C1029.04 253.954 1024.62 258.566 1020.05 262.87C1018.32 264.484 1016.51 266.137 1014.36 267.097C1012.21 268.058 1009.56 268.289 1007.52 267.097" fill="black"/>
</g>
<path d="M1028.12 208.646C1023.77 216.485 1024.24 226.746 1029.27 234.163C1029.96 235.201 1030.77 236.238 1030.88 237.506C1031.04 239.62 1029.08 241.234 1027.39 242.502C1018.82 248.958 1011.52 256.99 1005.9 266.137C1005.9 266.137 989.226 293.845 1006.29 305.873C1023.35 317.94 1035.11 288.849 1042.07 280.971C1049.02 273.092 1065.13 262.601 1065.13 262.601C1079.08 255.722 1079 248.113 1078.27 242.425C1077.5 236.699 1074.81 231.434 1071.73 226.554C1068.66 221.673 1065.16 217.062 1062.59 211.912" fill="#278DB4"/>
<path d="M1062.55 211.912C1062.55 211.912 1062.78 212.22 1063.13 212.873C1063.59 213.642 1064.13 214.564 1064.78 215.64C1066.24 218.061 1068.66 221.443 1071.62 225.901C1074.43 230.32 1078.04 236.085 1078.81 243.655C1079.27 247.345 1078.58 251.726 1075.89 255.108C1073.27 258.528 1069.43 260.987 1065.36 263.062H1065.39C1061.47 265.637 1057.44 268.52 1053.4 271.632C1049.41 274.784 1045.18 278.127 1041.76 282.277C1038.49 286.582 1035.76 291.577 1032.34 296.266C1028.89 300.839 1025.12 305.873 1019.24 308.294C1017.16 309.217 1014.82 309.409 1012.59 309.14C1011.48 308.948 1010.44 308.525 1009.36 308.218C1008.36 307.756 1007.44 307.142 1006.48 306.604C1002.83 304.182 1000.1 300.532 998.949 296.42C996.682 288.157 999.103 279.933 1001.87 272.977C1004.71 265.868 1009.06 259.95 1013.4 254.838C1017.78 249.727 1022.51 245.5 1027.08 242.041C1028.19 241.196 1029.27 240.35 1029.92 239.274C1030.62 238.198 1030.54 236.969 1029.92 235.893C1028.58 233.817 1027.19 231.665 1026.43 229.513C1024.77 225.209 1024.62 221.136 1024.93 217.946C1025.27 214.756 1026.12 212.335 1026.81 210.798C1027.5 209.261 1028.04 208.531 1028.04 208.531C1028.27 208.607 1026.04 211.605 1025.43 217.984C1025.2 221.136 1025.43 225.094 1027.08 229.244C1027.89 231.396 1029.12 233.318 1030.62 235.508C1031.35 236.661 1031.46 238.391 1030.62 239.659C1029.85 240.927 1028.69 241.849 1027.58 242.695C1023.08 246.153 1018.43 250.342 1014.13 255.453C1009.86 260.565 1005.64 266.406 1002.87 273.362C1000.14 280.202 997.873 288.272 1000.03 296.035C1001.1 299.878 1003.64 303.26 1007.06 305.528C1010.4 307.949 1014.86 308.756 1018.74 307.065C1024.16 304.836 1027.93 299.955 1031.31 295.459C1034.69 290.809 1037.42 285.851 1040.8 281.432C1044.37 277.128 1048.64 273.823 1052.67 270.633C1056.75 267.482 1060.82 264.638 1064.78 262.025C1068.81 259.988 1072.5 257.605 1075.04 254.416C1077.61 251.226 1078.31 247.229 1077.88 243.617C1077.23 236.277 1073.77 230.551 1071.01 226.093C1068.16 221.635 1065.78 218.176 1064.4 215.678C1062.97 213.219 1062.44 211.797 1062.44 211.797L1062.55 211.912Z" fill="#263238"/>
<g opacity="0.4">
<path d="M945.455 215.294L946.723 212.873C947.108 211.49 947.723 210.183 948.53 208.953L930.275 181.745C934.81 176.403 939.844 173.29 944.033 170.677C944.033 170.677 946.8 185.319 957.099 202.382C958.291 201.997 959.559 201.767 960.827 201.69C967.206 201.382 973.586 205.494 975.969 211.413C978.351 217.331 976.66 224.671 971.895 228.937C967.13 233.202 959.674 234.125 953.987 231.204C948.299 228.245 944.802 221.635 945.494 215.294H945.455Z" fill="white"/>
</g>
<path d="M957.829 203.61C954.255 204.687 951.411 206.954 949.221 210.144C948.414 210.758 948.721 212.065 949.72 212.257L955.792 213.372C956.368 213.487 956.945 213.141 957.137 212.565L959.673 204.917C960.058 203.803 958.751 202.88 957.829 203.61Z" fill="#263238"/>
<path d="M956.216 212.873C956.216 212.873 956.331 213.257 956.677 213.834C957.023 214.41 957.599 215.256 958.483 216.139C959.367 217.023 960.558 217.907 962.096 218.522C963.633 219.175 965.477 219.444 967.399 219.137C969.282 218.868 971.011 218.023 972.241 216.908C973.471 215.794 974.201 214.41 974.585 213.219C974.97 212.027 975.008 210.99 974.931 210.298C974.854 209.606 974.739 209.26 974.701 209.26C974.585 209.26 975.046 210.798 974.239 213.103C973.817 214.218 973.087 215.486 971.934 216.562C970.781 217.6 969.128 218.368 967.361 218.637C965.554 218.906 963.786 218.637 962.326 218.061C960.866 217.484 959.675 216.639 958.791 215.832C957.023 214.18 956.37 212.758 956.293 212.834L956.216 212.873Z" fill="#263238"/>
<path d="M947.646 227.207C947.646 227.207 947.954 227.399 948.569 227.63C949.184 227.86 950.029 228.168 951.182 228.398C952.296 228.59 953.757 228.744 955.256 228.168C956.754 227.63 958.061 226.362 958.83 224.748C959.598 223.133 959.79 221.366 959.56 219.828C959.368 218.291 958.868 216.985 958.368 215.947C957.869 214.909 957.369 214.141 956.985 213.603C956.601 213.065 956.37 212.834 956.37 212.834C956.293 212.873 957.139 214.026 958.061 216.101C958.522 217.138 958.983 218.407 959.137 219.867C959.329 221.327 959.137 222.98 958.407 224.517C957.677 226.054 956.485 227.207 955.14 227.745C953.795 228.283 952.412 228.206 951.297 228.052C949.068 227.668 947.762 227.13 947.723 227.245L947.646 227.207Z" fill="#263238"/>
<path d="M960.058 226.554C960.058 226.554 960.634 226.861 961.71 226.938C962.748 227.015 964.246 226.784 965.668 225.939C967.052 225.093 967.974 223.864 968.397 222.903C968.82 221.942 968.858 221.289 968.82 221.25C968.743 221.25 968.589 221.865 968.089 222.711C967.59 223.595 966.744 224.709 965.438 225.478C964.131 226.246 962.748 226.515 961.749 226.554C960.749 226.554 960.135 226.439 960.096 226.554H960.058Z" fill="#263238"/>
<path d="M953.641 169.408C956.177 166.103 960.712 163.413 964.516 161.722C963.479 162.991 962.902 164.643 962.825 166.257C969.282 163.874 976.084 161.453 982.924 162.491L979.888 166.334L963.978 175.557L953.641 169.37V169.408Z" fill="#278DB4"/>
<path d="M945.108 211.182C948.951 217.869 946.645 226.4 939.959 230.243C933.272 234.086 924.74 231.78 920.897 225.094C917.054 218.407 919.36 209.875 926.047 206.032C932.734 202.189 941.265 204.495 945.108 211.182Z" fill="white"/>
<path d="M945.108 211.182C945.108 211.182 944.493 210.106 942.956 208.53C941.457 206.993 938.69 204.995 934.771 204.495C932.849 204.265 930.62 204.38 928.468 205.187C926.316 205.994 924.164 207.301 922.511 209.299C921.666 210.26 920.974 211.413 920.436 212.642C919.898 213.872 919.514 215.217 919.36 216.601C919.014 219.406 919.629 222.365 921.089 224.94C922.588 227.515 924.856 229.552 927.43 230.628C928.699 231.204 930.044 231.55 931.389 231.704C932.734 231.857 934.079 231.819 935.347 231.588C937.922 231.166 940.151 229.974 941.918 228.514C943.686 227.054 944.916 225.209 945.685 223.403C947.222 219.752 946.914 216.37 946.338 214.295C945.723 212.181 945.031 211.144 945.108 211.105C945.108 211.105 945.147 211.182 945.223 211.297C945.3 211.451 945.416 211.643 945.531 211.874C945.685 212.143 945.838 212.45 945.992 212.873C946.146 213.257 946.338 213.718 946.492 214.256C946.838 215.332 947.068 216.678 947.068 218.292C947.068 219.867 946.761 221.712 945.992 223.556C945.223 225.401 943.994 227.323 942.188 228.86C940.381 230.359 938.075 231.627 935.424 232.049C934.117 232.318 932.734 232.357 931.35 232.165C929.967 232.011 928.545 231.665 927.238 231.05C924.548 229.897 922.204 227.822 920.667 225.132C919.168 222.442 918.515 219.368 918.899 216.485C919.053 215.025 919.437 213.642 920.013 212.373C920.551 211.105 921.282 209.914 922.166 208.915C923.856 206.839 926.124 205.494 928.314 204.687C930.543 203.88 932.811 203.804 934.809 204.034C936.807 204.303 938.537 204.956 939.92 205.763C941.304 206.57 942.38 207.454 943.11 208.261C943.494 208.646 943.802 209.068 944.071 209.414C944.34 209.76 944.532 210.068 944.685 210.298C944.839 210.529 944.916 210.721 945.031 210.875C945.108 210.99 945.147 211.067 945.147 211.067L945.108 211.182Z" fill="#263238"/>
<path d="M923.78 226.708C920.206 223.019 919.054 218.407 921.129 216.37C923.204 214.333 927.777 215.717 931.351 219.368C934.925 223.057 936.078 227.669 934.003 229.705C931.927 231.742 927.354 230.359 923.78 226.708Z" fill="#278DB4"/>
<path d="M931.119 216.485C931.58 216.716 931.196 218.407 930.235 220.251C929.274 222.096 928.121 223.364 927.66 223.134C927.199 222.903 927.583 221.212 928.544 219.368C929.505 217.523 930.658 216.255 931.119 216.485Z" fill="white"/>
<path d="M987.382 184.511C991.225 191.198 988.919 199.729 982.232 203.572C975.545 207.415 967.014 205.11 963.171 198.423C959.328 191.736 961.634 183.205 968.321 179.362C975.007 175.519 983.539 177.824 987.382 184.511Z" fill="white"/>
<path d="M987.382 184.512C987.382 184.512 986.767 183.436 985.23 181.86C983.731 180.323 980.964 178.325 977.044 177.825C975.122 177.594 972.894 177.71 970.741 178.517C968.589 179.324 966.437 180.63 964.785 182.629C963.939 183.589 963.248 184.742 962.71 185.972C962.172 187.202 961.787 188.547 961.634 189.93C961.288 192.736 961.903 195.695 963.363 198.27C964.862 200.844 967.129 202.881 969.704 203.957C970.972 204.534 972.317 204.88 973.662 205.033C975.007 205.187 976.352 205.149 977.62 204.918C980.195 204.495 982.424 203.304 984.192 201.844C985.96 200.383 987.189 198.539 987.958 196.732C989.495 193.082 989.188 189.7 988.611 187.625C988.035 185.511 987.305 184.473 987.382 184.435C987.382 184.435 987.42 184.512 987.497 184.627C987.574 184.781 987.689 184.973 987.804 185.204C987.958 185.473 988.112 185.78 988.265 186.164C988.419 186.549 988.611 187.01 988.765 187.548C989.111 188.624 989.342 189.969 989.342 191.583C989.342 193.158 989.034 195.003 988.265 196.848C987.497 198.692 986.267 200.614 984.461 202.151C982.655 203.65 980.349 204.918 977.697 205.341C976.391 205.61 975.007 205.648 973.624 205.456C972.24 205.302 970.818 204.956 969.512 204.342C966.822 203.189 964.477 201.113 962.94 198.423C961.441 195.733 960.788 192.659 961.172 189.777C961.326 188.316 961.71 186.933 962.287 185.665C962.825 184.396 963.555 183.205 964.439 182.206C966.13 180.131 968.397 178.786 970.626 177.979C972.855 177.172 975.122 177.095 977.121 177.325C979.119 177.594 980.849 178.248 982.232 179.055C983.615 179.862 984.692 180.746 985.422 181.553C985.806 181.937 986.113 182.36 986.382 182.706C986.651 183.051 986.844 183.359 986.997 183.589C987.151 183.82 987.228 184.012 987.343 184.166C987.42 184.281 987.458 184.358 987.458 184.358L987.382 184.512Z" fill="#263238"/>
<path d="M966.361 199.23C963.017 195.349 962.133 190.66 964.324 188.777C966.514 186.894 971.011 188.508 974.354 192.39C977.698 196.271 978.581 200.96 976.391 202.843C974.2 204.726 969.704 203.112 966.361 199.23Z" fill="#278DB4"/>
<path d="M974.584 189.508C975.007 189.815 974.392 191.429 973.201 193.12C972.009 194.811 970.664 195.925 970.242 195.618C969.819 195.31 970.434 193.696 971.625 192.005C972.817 190.315 974.162 189.2 974.584 189.508Z" fill="white"/>
<path d="M969.667 209.568C969.667 209.568 984.962 200.806 1003.68 189.7C1022.39 178.594 1037.53 169.524 1037.46 169.409C1037.38 169.294 1022.16 178.171 1003.41 189.277C984.693 200.383 969.551 209.453 969.628 209.568H969.667Z" fill="#263238"/>
<path d="M969.512 212.335C969.512 212.335 969.742 212.258 970.127 212.105C970.588 211.912 971.164 211.682 971.894 211.374C973.432 210.721 975.622 209.76 978.312 208.531C983.692 206.071 991.071 202.574 999.103 198.423C1007.13 194.311 1014.28 190.353 1019.43 187.394C1022.01 185.934 1024.04 184.704 1025.47 183.859C1026.12 183.436 1026.66 183.128 1027.08 182.859C1027.46 182.629 1027.66 182.514 1027.62 182.475C1027.62 182.475 1027.39 182.552 1027 182.783C1026.58 183.013 1026 183.321 1025.35 183.705C1023.85 184.55 1021.78 185.703 1019.24 187.125C1014.05 190.007 1006.9 193.889 998.872 198.001C990.84 202.113 983.5 205.687 978.158 208.223C975.507 209.453 973.393 210.49 971.817 211.221C971.126 211.567 970.549 211.836 970.088 212.028C969.704 212.22 969.512 212.335 969.512 212.335Z" fill="#263238"/>
<path d="M908.946 258.412C908.946 258.412 918.977 250.303 931.12 240.043C943.264 229.782 953.064 221.404 952.949 221.289C952.833 221.174 942.957 229.397 930.775 239.658C918.631 249.919 908.831 258.297 908.946 258.412Z" fill="#263238"/>
<path d="M922.704 259.872C922.704 259.872 929.544 252.34 937.73 242.809C945.915 233.279 952.449 225.516 952.372 225.401C952.256 225.324 945.531 232.933 937.346 242.464C929.16 251.994 922.627 259.757 922.704 259.872Z" fill="#263238"/>
<path d="M951.297 208.953C951.297 208.953 952.68 207.839 954.525 206.647C956.331 205.456 957.984 204.764 957.945 204.649C957.945 204.534 956.139 204.995 954.256 206.225C952.373 207.454 951.22 208.876 951.335 208.953H951.297Z" fill="white"/>
<g opacity="0.3">
<path d="M1207.35 230.282C1206.89 227.899 1205.32 225.593 1202.93 225.055C1202.74 234.086 1200.21 244.116 1199.01 253.109C1203.55 250.573 1205.7 242.502 1206.82 237.43C1207.32 235.085 1207.82 232.626 1207.35 230.282Z" fill="black"/>
</g>
<path d="M598.318 843.354C598.318 843.354 623.836 952.303 624.912 1020.09C625.988 1087.84 627.064 1195.64 612.999 1314.5C598.895 1433.37 586.866 1485.75 586.866 1485.75L536.907 1477.98C536.907 1477.98 535.37 1406.16 530.336 1346.32C524.725 1279.88 535.178 1255.05 528.799 1181.73C522.381 1108.4 497.671 1061.64 487.025 1039.38C487.025 1039.38 457.473 1004.26 455.321 956.069C453.169 907.878 464.775 843.354 464.775 843.354H598.395H598.318Z" fill="#FFBF9D"/>
<path d="M523.611 991.193C522.42 994.844 505.665 1079.77 490.177 1145.64C474.69 1211.51 464.429 1273 449.864 1324.69C428.459 1400.55 409.974 1477.52 409.974 1477.52L355.903 1482.63C359.439 1480.14 355.903 1368.65 374.772 1280.34C393.526 1192.64 400.982 1081.5 398.599 1048.53C396.216 1015.6 393.872 978.742 402.211 932.626C410.551 886.472 424.962 870.447 424.962 870.447L489.639 867.526L523.65 991.193H523.611Z" fill="#FFBF9D"/>
<path d="M382.42 1098.61L498.632 1113.71L501.822 1092L507.125 1111.63L631.407 1109.98C628.832 1041.69 625.796 975.899 617.764 939.621L395.294 926.478C395.294 926.478 389.184 977.474 387.57 1003.88C385.494 1037.27 382.458 1098.61 382.458 1098.61H382.42Z" fill="#278DB4"/>
<path d="M505.587 1110.67C505.587 1110.67 505.241 1108.52 504.78 1104.68C504.319 1100.83 503.512 1095.26 501.859 1088.57C498.746 1075.12 491.829 1057.06 480.185 1039.42C474.42 1030.55 468.579 1022.28 464.044 1014.21C459.432 1006.18 456.32 998.341 454.667 991.539C452.976 984.699 452.823 978.973 453.092 975.053C453.245 973.093 453.476 971.594 453.706 970.595C453.937 969.596 454.052 969.058 454.129 969.096C454.59 969.096 452.323 977.82 456.051 991.193C457.818 997.842 461.047 1005.45 465.658 1013.33C470.231 1021.25 476.073 1029.47 481.876 1038.39C493.635 1056.18 500.476 1074.62 503.243 1088.31C504.703 1095.15 505.318 1100.76 505.548 1104.68C505.702 1106.64 505.702 1108.14 505.702 1109.17C505.702 1110.21 505.702 1110.75 505.587 1110.75V1110.67Z" fill="#263238"/>
<path d="M536.101 1451.05C536.639 1457.19 537.484 1483.13 535.447 1490.4C532.719 1499.93 531.528 1504.62 530.49 1512.15C529.452 1519.68 529.337 1528.14 534.871 1532.98C542.787 1539.97 554.278 1536.36 564.385 1535.55C590.863 1533.44 607.926 1548.93 633.597 1541.93C638.901 1540.51 644.089 1537.78 647.509 1533.25C650.968 1528.67 652.351 1522.03 649.968 1516.65C645.972 1507.5 634.712 1506.42 625.489 1504.85C606.427 1501.62 602.546 1496.24 590.172 1480.1L596.589 1432.94L536.101 1451.05Z" fill="#FFBF9D"/>
<path d="M358.438 1438.44C358.976 1444.59 356.901 1483.13 354.864 1490.4C352.136 1499.93 350.945 1504.62 349.907 1512.15C348.869 1519.68 348.754 1528.14 354.288 1532.98C362.204 1539.97 373.695 1536.36 383.802 1535.55C410.28 1533.44 427.343 1548.93 453.014 1541.93C458.318 1540.51 463.506 1537.78 466.926 1533.25C470.385 1528.67 471.768 1522.03 469.385 1516.65C465.389 1507.5 454.129 1506.42 444.906 1504.85C425.844 1501.62 421.963 1496.24 409.589 1480.1L416.006 1432.94L358.438 1438.4V1438.44Z" fill="#FFBF9D"/>
<path d="M440.407 406.29C451.59 402.832 464.157 404.138 474.418 409.787C480.105 402.447 489.943 398.566 499.128 399.949C508.313 401.371 516.498 408.02 519.765 416.705C529.526 412.746 541.862 416.935 547.204 426.043C552.546 435.113 550.24 447.948 542.054 454.597C550.048 457.901 556.312 465.049 558.618 473.389C560.923 481.728 559.156 491.066 553.968 498.022C562.499 502.173 563.998 513.74 562.73 523.155C561.461 532.571 558.771 542.678 562.96 551.171C566.227 557.742 572.952 561.816 577.564 567.542C582.175 573.268 583.789 583.106 577.564 586.987C588.17 588.409 596.394 599.708 594.434 610.237C592.513 620.767 580.792 628.415 570.377 625.955C573.836 633.372 572.337 642.519 567.802 649.282C563.229 656.084 555.966 660.734 548.28 663.501C526.144 671.533 499.243 663.962 484.563 645.516L414.313 428.349C419.578 417.896 429.224 409.71 440.407 406.252V406.29Z" fill="#263238"/>
<path d="M407.012 466.471L406.09 454.75L475.725 437.111C497.322 433.498 522.11 453.866 524.8 475.579C527.797 499.713 530.487 529.304 528.681 547.52C525.107 584.22 497.515 590.523 497.515 590.523L499.513 626.608L419.194 632.45L406.974 466.471H407.012Z" fill="#FFBF9D"/>
<path d="M516.269 510.205C516.5 512.664 514.617 514.893 512.042 515.162C509.506 515.469 507.238 513.702 506.969 511.242C506.739 508.783 508.622 506.554 511.158 506.285C513.733 505.977 516 507.745 516.231 510.205H516.269Z" fill="#263238"/>
<path d="M518.037 491.489C517.499 492.142 513.81 489.721 508.776 490.029C503.78 490.259 500.244 493.065 499.668 492.488C499.399 492.219 499.898 491.105 501.436 489.837C502.934 488.568 505.548 487.3 508.699 487.108C511.812 486.954 514.502 487.915 516.116 489.03C517.73 490.106 518.306 491.182 518.037 491.489Z" fill="#263238"/>
<path d="M472.304 512.894C472.534 515.354 470.651 517.582 468.076 517.851C465.54 518.159 463.272 516.391 463.003 513.932C462.773 511.472 464.656 509.243 467.192 508.974C469.767 508.667 472.035 510.435 472.265 512.894H472.304Z" fill="#263238"/>
<path d="M468.807 495.371C468.269 496.024 464.58 493.603 459.545 493.911C454.549 494.141 451.014 496.947 450.437 496.37C450.168 496.101 450.668 494.987 452.205 493.718C453.704 492.45 456.317 491.182 459.468 490.99C462.581 490.836 465.271 491.797 466.885 492.911C468.499 493.987 469.076 495.063 468.807 495.371Z" fill="#263238"/>
<path d="M489.252 531.495C489.213 531.226 492.288 530.496 497.322 529.535C498.59 529.343 499.781 528.997 499.974 528.113C500.204 527.153 499.589 525.808 498.898 524.386C497.514 521.35 496.054 518.199 494.517 514.855C488.406 501.289 483.91 490.106 484.486 489.876C485.024 489.645 490.405 500.444 496.515 514.01C497.975 517.353 499.397 520.543 500.742 523.617C501.319 525.039 502.241 526.653 501.703 528.613C501.434 529.574 500.512 530.342 499.705 530.611C498.898 530.919 498.167 530.957 497.552 531.034C492.48 531.611 489.328 531.841 489.29 531.534L489.252 531.495Z" fill="#263238"/>
<path d="M497.514 590.638C497.514 590.638 471.92 593.674 446.825 580.57C446.825 580.57 460.622 605.28 498.052 599.669L497.514 590.6V590.638Z" fill="#FF9A6C"/>
<path d="M467.654 478.078C467.154 479.461 462.158 478.808 456.24 479.499C450.322 480.076 445.595 481.805 444.788 480.576C444.442 479.999 445.249 478.692 447.171 477.386C449.092 476.079 452.128 474.811 455.664 474.427C459.199 474.042 462.427 474.619 464.579 475.464C466.731 476.348 467.846 477.424 467.615 478.078H467.654Z" fill="#263238"/>
<path d="M516.845 479.077C516.038 480.268 512.502 479.346 508.352 479.576C504.201 479.653 500.743 480.883 499.859 479.73C499.474 479.192 499.936 478.001 501.396 476.809C502.818 475.618 505.316 474.581 508.16 474.465C511.003 474.35 513.578 475.234 515.077 476.271C516.614 477.347 517.191 478.462 516.845 479.077Z" fill="#263238"/>
<path d="M485.601 543.639C483.949 541.218 480.913 539.758 477.839 539.95C475.686 540.065 473.496 540.988 472.113 542.679C470.729 544.369 470.345 546.791 471.421 548.52C472.651 550.441 475.417 551.018 477.8 550.48C480.183 549.942 482.296 548.481 484.256 547.06C484.794 546.675 485.371 546.253 485.717 545.676C486.063 545.1 486.178 544.331 485.794 543.831" fill="#FF9A6C"/>
<path d="M473.65 534.569C474.457 534.569 474.188 539.911 478.569 543.908C482.95 547.943 488.676 547.635 488.676 548.365C488.714 548.711 487.369 549.326 484.948 549.288C482.604 549.288 479.184 548.327 476.493 545.867C473.803 543.408 472.766 540.257 472.689 538.028C472.612 535.799 473.265 534.492 473.611 534.531L473.65 534.569Z" fill="#263238"/>
<path d="M388.106 654.969L384.608 648.782C384.608 648.782 362.358 676.375 359.975 693.822C357.977 708.272 347.139 786.515 341.605 823.369C339.338 838.395 343.143 853.998 353.211 865.719C362.78 876.863 377.268 884.703 396.868 871.522C410.318 862.452 444.79 825.444 444.79 825.444L388.106 654.969Z" fill="#FFBF9D"/>
<path d="M425.075 828.942L328.654 813.455C328.654 813.455 348.061 708.848 354.364 696.167C360.666 683.485 372.964 665.115 372.964 665.115L420.425 766.724L425.075 828.942Z" fill="#E0E0E0"/>
<path d="M631.672 983.622C631.672 983.622 627.829 944.961 620.297 901.42C611.112 848.349 580.753 756.809 580.753 756.809L417.464 832.016L420.423 865.719C420.423 865.719 385.798 931.011 382.839 984.313C456.816 1009.25 544.782 1004.83 631.672 983.622Z" fill="#E0E0E0"/>
<path d="M373.616 642.019L510.465 620.152C510.465 620.152 548.472 681.832 562.691 746.663C576.91 811.495 582.483 857.764 582.483 857.764L471.344 874.635C458.201 876.134 440.254 891.928 427.149 890.122L413.968 888.278L424.805 847.119C406.743 805.538 393.562 769.99 385.722 740.63C368.736 676.952 373.655 642.057 373.655 642.057L373.616 642.019Z" fill="#E0E0E0"/>
<path d="M698.694 663.232C698.271 664.385 645.046 737.248 645.046 737.248C645.046 737.248 595.433 685.713 580.33 666.729L554.505 749.661C554.505 749.661 605.655 800.772 628.329 809.265C651.002 817.797 668.603 804.731 678.249 795.469C687.895 786.169 729.092 691.324 729.092 691.324L698.732 663.232H698.694Z" fill="#FFBF9D"/>
<path d="M497.591 622.227C497.591 622.227 518.958 610.083 540.671 622.957C562.384 635.831 646.968 722.26 646.968 722.26L593.627 790.473L511.31 710.731L506.122 662.771L497.591 622.227Z" fill="#E0E0E0"/>
<path d="M646.391 770.682C646.852 770.682 647.121 763.534 646.967 754.695C646.814 745.856 646.352 738.708 645.891 738.747C645.43 738.747 645.161 745.895 645.315 754.734C645.469 763.572 645.93 770.72 646.391 770.682Z" fill="#FF9A6C"/>
<g opacity="0.3">
<path d="M567.995 765.649C553.93 763.727 540.403 760.883 531.026 751.007C521.687 741.13 516.307 728.103 516.153 714.998C535.061 731.984 551.739 750.315 567.995 765.687V765.649Z" fill="black"/>
</g>
<path d="M647.006 722.261C647.006 722.261 646.737 722.799 646.122 723.721C645.354 724.797 644.431 726.104 643.279 727.679C640.589 731.292 636.976 736.211 632.518 742.206C623.064 754.657 610.152 771.72 595.549 791.012L594.857 791.934L594.011 791.127C590.207 787.476 586.21 783.672 582.137 779.829C561.654 760.114 543.13 742.283 529.488 729.14C522.955 722.722 517.613 717.496 513.693 713.614C512.002 711.885 510.58 710.463 509.466 709.348C508.505 708.349 508.044 707.811 508.082 707.773C508.121 707.734 508.697 708.195 509.735 709.079C510.926 710.155 512.425 711.5 514.231 713.114C518.266 716.881 523.762 721.992 530.487 728.217C544.245 741.245 562.922 758.961 583.559 778.522C587.594 782.404 591.59 786.208 595.395 789.859L593.858 789.974C608.692 770.836 621.796 753.927 631.365 741.553C636.015 735.673 639.82 730.869 642.625 727.334C643.855 725.835 644.893 724.567 645.738 723.567C646.468 722.722 646.853 722.299 646.929 722.338L647.006 722.261Z" fill="#263238"/>
<path d="M418.35 862.798C418.35 862.798 418.004 859.916 417.85 854.805C417.773 849.309 417.619 842.123 417.504 833.668V833.975C413.853 824.253 409.472 812.839 404.784 800.542C398.443 783.748 392.832 768.529 388.874 757.462C387.029 752.197 385.492 747.816 384.262 744.319C383.225 741.206 382.687 739.438 382.84 739.4C382.956 739.361 383.724 741.014 384.992 744.05C386.376 747.47 388.105 751.774 390.18 756.962C394.485 767.876 400.326 783.056 406.667 799.811C411.24 812.147 415.506 823.638 419.157 833.361V833.514L419.195 833.668C419.041 842.123 418.926 849.309 418.849 854.805C418.695 859.877 418.542 862.798 418.35 862.798Z" fill="#263238"/>
<path d="M761.222 606.779C761.222 606.779 761.068 596.249 751.191 602.475C741.315 608.662 707.228 642.941 696.736 661.964L677.982 692.208L715.413 722.03L726.097 695.936C726.097 695.936 755.457 678.758 759.454 676.029C763.45 673.262 769.984 658.774 756.264 661.119C756.264 661.119 761.721 646.746 748.002 647.361C748.002 647.361 751.768 636.523 738.509 634.41L761.222 606.779Z" fill="#FFBF9D"/>
<g opacity="0.3">
<path d="M378.613 645.478L465.08 627.416C468.193 634.602 462.62 654.471 455.05 656.469C459.623 664.539 459.777 674.954 455.434 683.139C451.091 691.325 442.368 697.013 433.106 697.743C430.801 697.935 428.456 697.82 426.304 698.588C421.577 700.279 419.31 705.506 416.466 709.656C412.738 715.113 407.051 719.456 400.518 720.724C394.023 721.992 386.721 719.878 382.533 714.767C378.344 709.656 377.652 702.623 377.306 696.052C376.461 679.181 376.922 662.272 378.651 645.478H378.613Z" fill="black"/>
</g>
<path d="M409.512 374.816C401.249 364.709 388.03 364.978 379.69 367.937C371.351 370.897 365.087 378.967 364.318 387.767C352.828 383.233 338.301 388.882 332.883 399.95C327.464 411.056 331.883 425.967 342.49 432.269C340.838 441.223 345.987 450.946 354.25 454.712C362.512 458.478 373.234 455.827 378.845 448.64L414.316 408.366C417.467 400.103 420.349 388.036 409.512 374.778V374.816Z" fill="#263238"/>
<path d="M421.539 407.943C419.041 405.637 415.352 405.06 412.009 405.675C408.665 406.252 405.591 407.827 402.593 409.403C401.171 410.133 399.711 410.902 398.712 412.132C397.713 413.361 397.29 415.206 398.097 416.589C393.716 414.207 387.759 415.36 384.531 419.126C381.303 422.892 381.226 429.002 384.262 432.922C386.76 436.112 391.141 437.572 395.099 436.804L390.449 438.264C400.249 438.187 409.933 434.459 417.273 427.965C420.156 425.428 422.769 422.354 423.845 418.665C424.959 414.975 424.268 410.556 421.462 407.943H421.539Z" fill="#278DB4"/>
<path d="M523.226 459.67C523.226 459.67 523.61 459.9 524.456 460.169C525.301 460.4 526.569 460.63 528.26 460.438C531.488 460.131 536.523 458.017 539.52 452.675C541.058 450.062 541.672 446.565 541.096 443.068C540.481 439.532 538.713 436.035 535.985 433.153C533.295 430.232 529.529 427.965 525.301 427.004C521.074 426.005 516.501 426.082 512.12 427.119C509.545 427.734 507.085 428.618 504.857 429.694L506.009 430.155C502.858 422.469 496.748 416.936 490.407 414.092C483.989 411.171 477.456 411.133 472.422 412.209C467.349 413.285 463.66 415.398 461.392 417.089C460.239 417.935 459.432 418.665 458.894 419.203C458.356 419.741 458.126 420.01 458.164 420.048C458.241 420.164 459.394 419.088 461.738 417.589C464.082 416.09 467.733 414.207 472.652 413.323C477.533 412.401 483.759 412.593 489.792 415.437C495.787 418.204 501.513 423.546 504.434 430.77L504.78 431.616L505.587 431.231C507.7 430.232 510.045 429.387 512.504 428.772C516.693 427.773 520.997 427.696 524.917 428.618C528.875 429.502 532.295 431.539 534.87 434.229C537.445 436.881 539.136 440.109 539.712 443.337C540.289 446.565 539.828 449.678 538.483 452.137C535.831 457.133 531.219 459.362 528.183 459.823C525.032 460.361 523.264 459.516 523.264 459.708L523.226 459.67Z" fill="#455A64"/>
<path d="M347.177 511.781C347.177 511.781 346.562 510.244 345.755 507.4C344.986 504.556 344.256 500.214 345.102 494.949C345.909 489.761 348.445 483.573 353.825 478.885C359.052 474.235 366.93 471.084 375.154 471.929L376.384 472.044L376.038 470.853C375.346 468.47 374.885 465.857 374.77 463.206C374.308 453.982 377.652 445.22 382.84 439.187C387.989 433.038 394.907 429.848 400.748 428.465C406.666 427.081 411.701 427.466 415.044 428.004C418.426 428.619 420.194 429.31 420.271 429.157C420.271 429.118 419.848 428.888 419.002 428.542C418.157 428.158 416.889 427.773 415.159 427.35C411.778 426.582 406.628 425.967 400.441 427.274C394.369 428.542 387.106 431.732 381.61 438.149C376.115 444.413 372.541 453.56 373.002 463.244C373.156 466.049 373.617 468.778 374.347 471.276L375.231 470.2C366.43 469.316 358.168 472.698 352.749 477.694C347.138 482.69 344.602 489.299 343.91 494.718C343.18 500.214 344.141 504.671 345.102 507.515C345.601 508.937 346.062 510.013 346.447 510.705C346.831 511.397 347.062 511.743 347.1 511.743L347.177 511.781Z" fill="#455A64"/>
<path d="M524.647 449.447C516.461 438.725 504.548 430.847 491.482 427.542L432.646 434.959L427.65 434.882C426.535 431.193 420.31 429.233 420.31 429.233C414.776 425.006 395.638 424.775 382.264 438.725C377.46 443.76 374.04 456.403 373.925 463.397C373.886 466.049 376.692 469.661 374.501 471.083C373.733 471.583 367.353 471.468 366.469 471.66C351.52 474.926 342.143 488.223 344.872 508.053C345.025 509.052 345.371 510.051 345.179 511.05C344.91 512.626 343.642 513.779 342.566 514.932C335.456 522.464 333.727 534.608 338.454 543.831C339.914 546.675 341.951 549.327 342.451 552.516C343.373 558.165 339.223 563.238 336.033 567.965C326.425 582.223 324.389 602.936 335.649 615.887C337.263 617.732 339.146 619.5 340.644 621.46C338.377 628.838 336.955 636.409 337.186 644.172C337.685 660.927 347.908 678.605 364.279 682.217C360.205 690.018 364.048 700.51 371.619 704.968C379.19 709.425 389.297 708.273 396.56 703.354C403.823 698.396 408.435 690.211 410.472 681.679C418.542 685.637 428.956 684.177 435.643 678.182C442.33 672.187 444.866 661.965 441.792 653.51C448.287 656.008 456.049 651.896 459.124 645.632C462.198 639.368 461.237 631.759 458.317 625.418C455.55 619.423 451.169 614.388 446.749 609.469C450.669 604.512 451.63 597.018 450.4 590.562C448.825 582.146 442.061 577.688 440.063 570.732C439.179 567.658 441.715 552.17 438.295 546.252C435.605 541.602 430.916 538.259 428.61 533.378C425.267 526.269 427.842 517.929 429.264 510.205C431.992 495.602 430.225 480.191 424.46 466.51C424.191 464.473 424.037 462.821 424.037 462.129C424.191 453.214 435.259 457.979 443.675 460.823C445.712 461.514 447.864 461.899 450.016 461.976C456.972 462.168 463.928 458.863 468.193 453.367C476.187 461.86 489.061 465.396 500.244 462.129C504.778 468.47 509.39 474.888 515.462 479.807C521.495 484.726 529.258 488.069 537.021 487.224C537.252 473.735 532.832 460.169 524.608 449.447H524.647Z" fill="#263238"/>
</svg>
