<svg width="1800" height="1720" viewBox="0 0 1800 1720" fill="none" xmlns="http://www.w3.org/2000/svg">
<g clip-path="url(#clip0_119_5887)">
<path d="M1418.38 340.104L1422.18 353.829L1409.81 440.954L1386.82 447.351L1398.96 364.066L1368.67 372.48L1372.82 387.369L1354.02 392.603L1345.1 360.46L1418.34 340.104H1418.38Z" fill="#E0E0E0"/>
<path d="M1512.1 381.592C1516.6 397.799 1508.65 415.208 1482.51 422.459C1469.83 425.987 1455.53 426.142 1444.9 422.343L1448.74 403.809C1457.12 407.105 1467.47 407.454 1477.01 404.817C1487.59 401.87 1492.87 395.628 1490.81 388.183C1488.79 381.01 1482.82 377.598 1466.23 382.212L1442.85 388.726L1433.23 335.955L1488.99 320.446L1493.72 337.428L1455.6 348.014L1458.98 365.772L1466.42 363.717C1493.45 356.195 1507.52 365.384 1512.06 381.553L1512.1 381.592Z" fill="#E0E0E0"/>
<path d="M1510.39 340.569C1506.24 325.68 1511.87 313.427 1524.12 310.015C1536.25 306.642 1547.46 314.086 1551.65 329.092C1555.83 344.097 1550.06 356.272 1537.92 359.645C1525.63 363.058 1514.54 355.458 1510.39 340.569ZM1545.13 330.914C1541.84 319.049 1534.24 313.544 1525.75 315.909C1517.14 318.313 1513.65 326.998 1516.91 338.746C1520.16 350.495 1527.65 356.156 1536.29 353.752C1544.78 351.387 1548.43 342.779 1545.13 330.875V330.914ZM1579.68 295.281L1587.4 293.149L1550.41 401.909L1542.69 404.041L1579.68 295.281ZM1578.4 368.098C1574.25 353.209 1579.99 340.918 1592.13 337.544C1604.42 334.132 1615.51 341.732 1619.66 356.621C1623.8 371.51 1618.18 383.763 1605.93 387.175C1593.79 390.548 1582.55 382.987 1578.4 368.098ZM1613.14 358.443C1609.89 346.695 1602.4 341.034 1593.76 343.438C1585.26 345.803 1581.62 354.411 1584.91 366.315C1588.21 378.179 1595.81 383.685 1604.3 381.32C1612.91 378.916 1616.4 370.231 1613.14 358.482V358.443Z" fill="#E0E0E0"/>
<path d="M330.143 253.172C330.415 269.147 318.356 284.036 291.37 284.501C278.07 284.734 264.344 281.322 255 274.963L263.259 258.019C270.548 263.331 280.629 266.239 290.517 266.084C301.49 265.89 308.197 261.315 308.042 253.599C307.926 246.426 302.575 242.044 290.09 242.238L280.048 242.393L279.815 227.892L298.93 205.481L258.528 206.179L258.218 188.575L324.637 187.412L324.87 201.642L303.894 226.418C321.032 228.822 329.872 239.252 330.105 253.211L330.143 253.172Z" fill="#E0E0E0"/>
<path d="M339.993 234.561C339.45 203.27 356.511 185.202 379.814 184.814C403.272 184.426 420.759 201.874 421.301 233.165C421.844 264.455 404.939 282.524 381.481 282.911C358.178 283.299 340.536 265.851 339.993 234.561ZM399.2 233.552C398.813 211.994 391.097 203.193 380.124 203.387C369.267 203.58 361.861 212.653 362.21 234.212C362.598 255.77 370.314 264.571 381.171 264.377C392.144 264.184 399.588 255.111 399.2 233.552Z" fill="#E0E0E0"/>
<path d="M432.002 210.599C431.731 195.167 440.222 184.698 452.979 184.465C465.58 184.233 474.576 194.275 474.847 209.862C475.119 225.449 466.472 235.763 453.871 235.995C441.114 236.228 432.274 226.069 432.002 210.599ZM468.062 209.978C467.868 197.648 461.897 190.436 453.095 190.592C444.139 190.747 438.594 198.307 438.788 210.482C438.982 222.696 444.837 230.024 453.754 229.869C462.556 229.714 468.256 222.308 468.062 209.978ZM510.442 184.155L518.429 184L455.267 280.004L447.279 280.159L510.403 184.155H510.442ZM490.9 254.297C490.628 238.865 499.275 228.396 511.876 228.163C524.633 227.931 533.473 238.089 533.745 253.56C534.016 268.992 525.525 279.461 512.768 279.693C500.167 279.926 491.171 269.767 490.9 254.297ZM526.959 253.676C526.765 241.463 520.91 234.134 511.992 234.289C503.191 234.444 497.491 241.85 497.685 254.18C497.879 266.51 503.85 273.722 512.652 273.567C521.608 273.412 527.153 265.851 526.959 253.676Z" fill="#E0E0E0"/>
<path d="M1092.88 260.934C1091.02 273.032 1080.51 282.26 1060.97 279.274C1051.47 277.839 1041.93 273.652 1036 267.952L1044.1 256.785C1048.68 261.477 1055.46 264.812 1062.6 265.897C1070.51 267.099 1075.9 264.54 1076.75 258.957C1077.57 253.567 1074.58 249.535 1062.17 247.635L1044.69 244.959L1054.07 207L1095.79 213.359L1093.85 226.077L1065.31 221.734L1062.25 234.568L1067.83 235.421C1088.07 238.523 1094.7 248.837 1092.84 260.934H1092.88Z" fill="#F5F5F5"/>
<path d="M1101.29 249.225C1104.75 226.658 1119.21 215.763 1136 218.322C1152.9 220.92 1163.37 235.615 1159.92 258.181C1156.47 280.747 1142.12 291.643 1125.22 289.084C1108.43 286.525 1097.84 271.791 1101.29 249.225ZM1143.98 255.738C1146.35 240.19 1141.89 232.901 1133.94 231.699C1126.11 230.497 1119.67 236.119 1117.31 251.667C1114.94 267.215 1119.44 274.505 1127.23 275.707C1135.14 276.909 1141.62 271.287 1143.98 255.777V255.738Z" fill="#F5F5F5"/>
<path d="M1170.39 243.292C1172.1 232.164 1179.46 225.689 1188.65 227.084C1197.73 228.48 1202.96 236.778 1201.25 248.022C1199.55 259.267 1192.06 265.625 1182.99 264.23C1173.8 262.834 1168.68 254.459 1170.39 243.292ZM1230.02 233.909L1235.8 234.8L1178.65 296.063L1172.87 295.171L1230.02 233.909ZM1196.37 247.286C1197.73 238.406 1194.31 232.474 1187.99 231.505C1181.56 230.535 1176.63 235.266 1175.28 244.067C1173.92 252.869 1177.21 258.879 1183.65 259.848C1190.01 260.818 1195.01 256.165 1196.37 247.286ZM1207.38 281.988C1209.09 270.86 1216.57 264.385 1225.64 265.781C1234.83 267.176 1239.95 275.552 1238.24 286.718C1236.54 297.846 1229.17 304.322 1219.98 302.926C1210.91 301.53 1205.67 293.155 1207.38 281.988ZM1233.36 285.943C1234.72 277.141 1231.42 271.131 1224.98 270.162C1218.62 269.193 1213.62 273.845 1212.27 282.725C1210.91 291.604 1214.32 297.536 1220.64 298.506C1227.08 299.475 1232 294.744 1233.36 285.943Z" fill="#F5F5F5"/>
<path d="M98.8088 822.126L84.6177 882.729L70.5816 879.434L82.1362 830.075L70 827.244L72.6366 816L98.77 822.126H98.8088Z" fill="#F5F5F5"/>
<path d="M102.259 854.89C106.951 834.882 120.677 826.158 135.566 829.648C150.532 833.176 158.869 847.096 154.216 867.065C149.524 887.072 135.876 895.835 120.909 892.306C106.02 888.817 97.6063 874.897 102.259 854.89ZM140.102 863.769C143.32 850.004 139.792 843.141 132.813 841.513C125.872 839.884 119.707 844.46 116.489 858.224C113.271 871.989 116.76 878.852 123.701 880.48C130.719 882.109 136.923 877.533 140.141 863.769H140.102Z" fill="#F5F5F5"/>
<path d="M218.774 850.198L223.892 851.4L168.329 902.31L163.211 901.108L218.774 850.198ZM164.646 854.424C166.972 844.537 174.029 839.264 182.171 841.164C190.236 843.064 194.346 850.857 191.981 860.822C189.655 870.787 182.52 875.944 174.455 874.083C166.313 872.183 162.319 864.312 164.607 854.424H164.646ZM187.677 859.814C189.538 851.943 186.902 846.398 181.279 845.08C175.58 843.762 170.811 847.639 168.988 855.433C167.166 863.226 169.686 868.848 175.386 870.167C181.008 871.485 185.816 867.685 187.677 859.814ZM195.083 891.686C197.409 881.799 204.582 876.564 212.609 878.425C220.751 880.325 224.745 888.196 222.418 898.084C220.092 907.971 213.035 913.244 204.893 911.344C196.828 909.444 192.756 901.573 195.044 891.686H195.083ZM218.114 897.075C219.937 889.282 217.417 883.66 211.717 882.341C206.095 881.023 201.287 884.823 199.426 892.694C197.564 900.565 200.201 906.11 205.823 907.428C211.523 908.785 216.292 904.869 218.114 897.075Z" fill="#F5F5F5"/>
<path d="M1516.08 1643.62L1640.78 1644.6L1642.01 1487.19L1517.32 1486.21L1516.08 1643.62Z" fill="#EBEBEB"/>
<path d="M1593.17 1491.91L1590.96 1644.33L1571.26 1644.18L1575.45 1491.76L1593.17 1491.91Z" fill="#FAFAFA"/>
<path d="M1445.64 1490.75L1517.17 1491.33L1641.87 1492.3L1517.06 1508.74L1516.01 1643.75L1444.47 1643.17L1445.64 1490.75Z" fill="#E0E0E0"/>
<path d="M1484.6 1491.06L1481.73 1643.48L1460.52 1643.33L1463.97 1490.91L1484.6 1491.06Z" fill="#FAFAFA"/>
<path d="M1541.21 1444.69C1541.21 1445.97 1532.91 1447.91 1518.84 1448.41C1511.74 1448.53 1503.45 1448.29 1493.68 1445.66C1491.19 1444.8 1487.94 1443.64 1485.46 1440C1484.25 1438.21 1483.75 1435.92 1483.71 1434.06C1483.71 1432.2 1483.98 1430.61 1484.29 1429.22C1485.49 1424.25 1486.7 1419.14 1489.02 1413.75C1490.19 1411.07 1491.62 1408.47 1493.37 1406.07C1495.11 1403.74 1497.13 1401.38 1500.07 1399.52C1502.87 1397.66 1507.13 1396.61 1510.74 1397.62C1514.3 1398.55 1516.67 1400.41 1518.61 1401.96C1526.05 1408.16 1531.4 1415.1 1534.93 1421.42C1541.95 1434.22 1541.87 1443.52 1540.67 1443.68C1539.16 1444.07 1536.71 1435.85 1528.92 1425.3C1525 1420.07 1519.69 1414.37 1512.87 1409.29C1511.24 1408.09 1509.69 1407.19 1508.56 1407.04C1507.52 1406.88 1506.7 1407.04 1505.39 1407.89C1504.14 1408.71 1502.79 1410.22 1501.51 1411.96C1500.27 1413.71 1499.22 1415.65 1498.29 1417.78C1496.47 1422 1495.19 1426.89 1493.95 1431.5C1493.37 1433.68 1493.52 1434.65 1493.68 1434.88C1493.79 1435.3 1495.03 1436.27 1496.78 1436.86C1500.38 1438.1 1504.69 1439.07 1508.41 1439.76C1512.21 1440.46 1515.85 1440.93 1519.19 1441.28C1532.6 1442.55 1541.25 1443.18 1541.25 1444.65L1541.21 1444.69Z" fill="#E0E0E0"/>
<path d="M1538.61 1445.81C1538.34 1444.38 1547.73 1441.9 1562.42 1437.98C1569.75 1435.92 1578.36 1433.4 1587.35 1429.49C1589.56 1428.56 1591.66 1427.51 1593.09 1426.35C1593.79 1425.81 1594.25 1425.22 1594.37 1424.91C1594.49 1424.6 1594.49 1424.6 1594.41 1424.02C1594.29 1423.01 1592.74 1419.99 1591.58 1417.59C1590.38 1415.1 1589.1 1412.74 1587.66 1410.57C1586.23 1408.4 1584.68 1406.5 1582.89 1404.91C1581.11 1403.28 1579.21 1401.96 1577.46 1401.34C1575.68 1400.68 1574.13 1400.56 1572.58 1401.03C1571.03 1401.46 1569.28 1402.58 1567.58 1404.01C1560.33 1410.26 1554.55 1417.08 1550.52 1423.17C1542.34 1435.5 1540.59 1445 1539.04 1444.73C1538.38 1444.65 1537.95 1442.13 1538.5 1437.67C1539.04 1433.21 1540.67 1426.81 1544.35 1419.6C1548 1412.35 1553.58 1404.48 1561.45 1397C1563.55 1395.1 1566.14 1393.04 1569.67 1391.84C1573.24 1390.6 1577.43 1390.79 1580.84 1392.03C1582.58 1392.65 1584.17 1393.47 1585.65 1394.4C1587.04 1395.33 1588.4 1396.3 1589.64 1397.46C1592.16 1399.67 1594.29 1402.31 1596.12 1405.02C1597.9 1407.78 1599.37 1410.53 1600.65 1413.24C1601.27 1414.56 1601.85 1415.88 1602.47 1417.2C1603.09 1418.55 1603.83 1420.22 1604.18 1422.43C1604.57 1424.6 1604.18 1427.47 1603.02 1429.53C1601.85 1431.62 1600.34 1432.98 1598.91 1434.03C1596.04 1436.08 1593.32 1437.17 1590.84 1438.1C1580.92 1441.82 1571.65 1443.76 1563.89 1444.96C1548.38 1447.21 1538.81 1447.09 1538.57 1445.81H1538.61Z" fill="#FAFAFA"/>
<path d="M1423 1490.47L1606.28 1491.91L1606.69 1439.8L1423.41 1438.36L1423 1490.47Z" fill="#E0E0E0"/>
<path d="M1490.43 1491.01L1656.11 1492.31L1656.52 1440.2L1490.84 1438.9L1490.43 1491.01Z" fill="#EBEBEB"/>
<path d="M1605.61 1439.92L1604.41 1492.26L1585.1 1491.84L1586.46 1439.76L1605.61 1439.92Z" fill="#FAFAFA"/>
<path d="M1468.32 1439.1L1466.46 1490.98L1445.21 1490.79L1446.33 1438.68L1468.32 1439.1Z" fill="#FAFAFA"/>
<path d="M1647.85 672.4L1290.85 518.478C1262.42 506.236 1230.15 506.568 1201.97 519.45L428.046 873.494C372.694 898.834 348.647 964.423 374.497 1019.49L630.476 1565.05C656.196 1619.84 721.504 1643.37 776.245 1617.55L1543.34 1255.91C1572.03 1242.4 1593.46 1217.05 1602.04 1186.48L1709.87 802.459C1724.7 749.68 1698.17 694.07 1647.84 672.365L1647.85 672.4ZM1561.69 827.917C1564.2 877.701 1525.87 920.089 1476.09 922.597C1426.3 925.105 1383.91 886.774 1381.4 836.99C1378.9 787.206 1417.23 744.817 1467.01 742.309C1516.8 739.801 1559.18 778.133 1561.69 827.917Z" fill="#278DB4"/>
<g opacity="0.4">
<path d="M1647.85 672.4L1290.85 518.478C1262.42 506.236 1230.15 506.568 1201.97 519.45L428.046 873.494C372.694 898.834 348.647 964.424 374.497 1019.49L630.476 1565.05C656.196 1619.84 721.504 1643.37 776.245 1617.55L1543.34 1255.91C1572.03 1242.4 1593.46 1217.05 1602.04 1186.48L1709.87 802.459C1724.7 749.68 1698.17 694.07 1647.84 672.365L1647.85 672.4ZM1561.69 827.917C1564.2 877.701 1525.87 920.089 1476.09 922.597C1426.3 925.105 1383.91 886.774 1381.4 836.99C1378.9 787.206 1417.23 744.818 1467.01 742.309C1516.8 739.801 1559.18 778.133 1561.69 827.917Z" fill="black"/>
</g>
<path d="M1688.44 653.472L1331.44 499.551C1303.01 487.308 1270.74 487.64 1242.56 500.522L468.634 854.566C413.282 879.906 389.234 945.496 415.085 1000.57L671.064 1546.12C696.784 1600.91 762.092 1624.45 816.832 1598.62L1583.93 1236.98C1612.62 1223.47 1634.04 1198.13 1642.63 1167.55L1750.46 783.531C1765.29 730.752 1738.76 675.142 1688.42 653.437L1688.44 653.472ZM1602.28 808.989C1604.79 858.773 1566.46 901.161 1516.67 903.67C1466.89 906.178 1424.5 867.846 1421.99 818.062C1419.48 768.278 1457.82 725.89 1507.6 723.382C1557.38 720.874 1599.77 759.205 1602.28 808.989Z" fill="#278DB4"/>
<path d="M785.907 1052.04C755.667 985.541 776.98 924.82 834.451 898.706C891.941 872.539 950.902 896.041 981.404 963.104C1011.91 1030.17 990.893 1090.06 933.403 1116.23C875.948 1142.38 816.127 1118.59 785.888 1052.09L785.907 1052.04ZM925.073 988.73C905.845 946.486 880.298 933.628 855.479 944.902C831.274 955.932 823.834 984.472 842.799 1026.15C861.765 1067.84 888.137 1080.99 912.393 1069.98C937.212 1058.71 944.301 1030.97 925.073 988.73ZM1071.46 796.314L1138.52 765.812L1048.67 1282.77L981.603 1313.27L1071.46 796.314ZM1138.72 1115.98C1108.45 1049.49 1129.8 988.755 1186.71 962.902C1244.16 936.752 1303.98 960.538 1334.22 1027.04C1364.46 1093.54 1343.15 1154.26 1285.64 1180.39C1228.75 1206.28 1168.93 1182.49 1138.69 1115.99L1138.72 1115.98ZM1277.33 1052.93C1258.36 1011.24 1232.52 997.841 1207.73 1009.1C1183.53 1020.13 1175.83 1048.11 1195.05 1090.35C1214.28 1132.59 1240.41 1145.22 1264.65 1134.18C1289.47 1122.9 1296.29 1094.61 1277.33 1052.93Z" fill="white"/>
<path d="M1118.18 453.15C1117.72 453.45 1075.78 389.284 1024.57 309.843C973.316 230.383 932.167 165.718 932.627 165.418C933.086 165.119 975.029 229.285 1026.25 308.761C1077.49 388.186 1118.66 452.886 1118.2 453.186L1118.18 453.15Z" fill="#263238"/>
<path d="M1232.53 -58.0682C1232.53 -58.0682 1232.64 -57.6489 1232.71 -56.8666C1232.79 -55.9624 1232.87 -54.763 1233.01 -53.2849C1233.21 -50.0008 1233.54 -45.3604 1233.93 -39.4691C1234.71 -27.3399 1235.83 -10.0668 1237.19 11.2893C1240.01 54.1256 1244.21 113.305 1249.78 178.559C1255.37 243.848 1261.25 302.883 1265.75 345.575C1268 366.816 1269.84 384.057 1271.14 396.114C1271.74 401.993 1272.22 406.603 1272.55 409.874C1272.68 411.352 1272.77 412.551 1272.85 413.455C1272.93 414.273 1272.9 414.671 1272.9 414.671C1272.9 414.671 1272.79 414.252 1272.64 413.467C1272.51 412.544 1272.35 411.377 1272.13 409.897C1271.72 406.624 1271.12 402.028 1270.36 396.179C1268.82 384.272 1266.76 367.008 1264.35 345.675C1259.47 303.026 1253.39 244.002 1247.78 178.678C1242.23 113.373 1238.24 54.1814 1235.79 11.303C1234.57 -10.1186 1233.66 -27.4901 1233.15 -39.4904C1232.93 -45.3769 1232.73 -50.0314 1232.61 -53.3131C1232.56 -54.7888 1232.56 -55.9858 1232.52 -56.9064C1232.52 -57.7215 1232.5 -58.1385 1232.55 -58.1197L1232.53 -58.0682Z" fill="#263238"/>
<path d="M1566.25 115.565C1566.75 115.804 1534.8 178.663 1494.94 255.945C1455.05 333.245 1422.33 395.648 1421.83 395.409C1421.33 395.17 1453.25 332.328 1493.14 255.029C1533.02 177.781 1565.76 115.326 1566.25 115.565Z" fill="#263238"/>
<path d="M1002.15 522.87C1001.91 523.367 970.875 507.635 932.908 487.777C894.925 467.884 864.342 451.384 864.581 450.887C864.821 450.391 895.857 466.122 933.841 486.016C971.824 505.909 1002.41 522.409 1002.17 522.905L1002.15 522.87Z" fill="#263238"/>
<path d="M1688.08 438.833C1688.16 439.391 1653.35 445.187 1610.32 451.818C1567.29 458.448 1532.36 463.357 1532.27 462.799C1532.18 462.242 1567 456.445 1610.03 449.815C1653.06 443.185 1687.99 438.276 1688.08 438.833Z" fill="#263238"/>
<path d="M1244.72 644.246L1261.42 620.417L1262.67 591.343L1286.46 608.056L1315.53 609.302L1298.82 633.095L1297.58 662.169L1273.78 645.456L1244.72 644.246Z" fill="white"/>
<path d="M1104.31 665.528L1110.18 657.188L1110.61 647.017L1118.95 652.883L1129.12 653.317L1123.26 661.657L1122.86 671.811L1114.52 665.945L1104.31 665.528Z" fill="white"/>
<path d="M1258.43 790.159L1269.75 774.058L1270.58 754.375L1286.68 765.692L1306.36 766.524L1295.05 782.625L1294.21 802.308L1278.11 790.992L1258.43 790.159Z" fill="white"/>
<path d="M422.487 1547.51C422.487 1547.51 260.568 1592.34 254.054 1594.62C244.283 1598.08 245.95 1633.79 261.111 1633.24C268.284 1632.97 385.496 1637.62 400.269 1636.69C415.081 1635.76 454.94 1620.02 454.94 1620.02L422.448 1547.55L422.487 1547.51Z" fill="#455A64"/>
<path d="M355.06 1609.32C354.246 1609.44 353.16 1600.87 347.925 1591.95C342.846 1582.95 335.983 1577.68 336.487 1577.06C336.759 1576.44 344.824 1581.02 350.291 1590.63C355.835 1600.17 355.758 1609.44 355.06 1609.36V1609.32Z" fill="#263238"/>
<path d="M371.925 1601.64C371.15 1601.8 369.483 1594.12 365.179 1585.67C360.952 1577.18 355.796 1571.28 356.377 1570.74C356.842 1570.2 363.163 1575.51 367.621 1584.47C372.158 1593.38 372.623 1601.6 371.964 1601.64H371.925Z" fill="#263238"/>
<path d="M387.747 1597.42C386.932 1597.38 387.553 1589.27 383.947 1580.32C380.496 1571.28 374.564 1565.78 375.145 1565.16C375.455 1564.54 382.745 1569.54 386.506 1579.31C390.383 1589.04 388.406 1597.65 387.785 1597.42H387.747Z" fill="#263238"/>
<path d="M384.876 1576.52C384.604 1576.6 383.17 1572.06 383.131 1564.46C383.131 1560.66 383.596 1556.16 384.759 1551.24C385.341 1548.79 386.155 1546.27 387.163 1543.72C387.706 1542.44 388.288 1540.96 389.761 1539.76C391.273 1538.4 394.026 1538.67 395.306 1540.03C396.779 1541.31 397.244 1543.13 397.477 1544.61C397.632 1546.08 397.71 1547.48 397.671 1548.87C397.632 1551.66 397.283 1554.34 396.663 1556.78C395.461 1561.75 393.522 1565.85 391.661 1569.15C387.9 1575.7 384.604 1579.08 384.372 1578.88C383.984 1578.61 386.698 1574.85 389.955 1568.26C391.545 1564.96 393.212 1560.89 394.22 1556.24C394.724 1553.91 394.996 1551.43 394.996 1548.83C394.918 1546.35 394.996 1543.25 393.522 1542.05C392.747 1541.43 392.049 1541.35 391.39 1541.85C390.692 1542.4 390.071 1543.52 389.606 1544.68C388.598 1547.09 387.784 1549.49 387.163 1551.82C385.884 1556.47 385.263 1560.81 385.031 1564.46C384.566 1571.79 385.302 1576.36 384.837 1576.44L384.876 1576.52Z" fill="#263238"/>
<path d="M385.109 1574.85C385.031 1574.54 388.947 1573.22 395.539 1573.18C398.834 1573.18 402.789 1573.53 407.016 1574.58C409.109 1575.16 411.358 1575.7 413.646 1577.02C415.856 1578.15 418.182 1581.21 417.291 1584.43C416.593 1587.45 414.034 1589.55 411.475 1590.21C408.916 1590.94 406.395 1590.67 404.224 1590.21C399.765 1589.2 396.314 1586.99 393.716 1585.05C388.521 1580.98 386 1577.88 386.194 1577.64C386.466 1577.29 389.529 1579.97 394.802 1583.5C397.439 1585.2 400.773 1587.03 404.728 1587.8C406.705 1588.19 408.799 1588.31 410.738 1587.72C412.638 1587.18 414.228 1585.75 414.693 1583.89C415.158 1582.06 414.072 1580.43 412.289 1579.35C410.544 1578.26 408.412 1577.64 406.434 1577.06C402.44 1575.9 398.679 1575.39 395.539 1575.16C389.219 1574.73 385.225 1575.35 385.147 1574.93L385.109 1574.85Z" fill="#263238"/>
<path d="M330.166 1611.07C329.352 1610.99 330.166 1604.05 326.987 1596.45C323.962 1588.81 318.534 1584.39 319.077 1583.77C319.348 1583.11 326.095 1586.95 329.507 1595.44C332.997 1603.89 330.825 1611.34 330.205 1611.07H330.166Z" fill="#263238"/>
<path d="M443.153 1618.51C443.153 1618.51 440.982 1619.71 436.872 1621.46C432.723 1623.05 426.635 1625.22 418.842 1627.04C403.371 1630.96 381.27 1633.17 357.037 1632.89C332.764 1632.62 310.896 1631.54 295.038 1630.88C287.515 1630.49 281.234 1630.14 276.271 1629.87C271.851 1629.56 269.408 1629.33 269.408 1629.13C269.408 1628.94 271.89 1628.82 276.31 1628.82C281.273 1628.82 287.593 1628.9 295.115 1628.94C311.516 1629.25 333.152 1629.68 357.075 1630.14C381.231 1630.41 403.022 1628.51 418.454 1625.14C433.925 1621.96 442.959 1617.97 443.153 1618.47V1618.51Z" fill="#263238"/>
<path d="M447.922 1622.19C447.69 1622.58 443.269 1619.98 435.786 1616.69C428.38 1613.51 417.33 1609.71 405.155 1611.61C392.941 1613.47 384.295 1621.69 378.673 1627.35C373.012 1633.24 369.677 1637.16 369.328 1636.89C369.095 1636.69 371.848 1632.39 377.238 1626.07C379.952 1622.93 383.442 1619.32 387.978 1616.03C392.476 1612.73 398.253 1609.94 404.69 1608.93C417.756 1606.92 429.233 1611.3 436.562 1614.98C444.006 1618.78 448.039 1621.96 447.883 1622.23L447.922 1622.19Z" fill="#263238"/>
<path d="M285.498 1629.21C285.188 1629.02 286.584 1626.88 287.863 1623.08C289.143 1619.32 290.151 1613.78 289.065 1607.89C287.98 1601.95 285.072 1597.15 282.513 1594.08C279.954 1591.02 277.899 1589.51 278.131 1589.2C278.248 1588.96 280.69 1590.05 283.676 1593.03C286.661 1595.94 290.035 1601.06 291.237 1607.46C292.439 1613.9 291.082 1619.87 289.337 1623.63C287.592 1627.47 285.731 1629.33 285.537 1629.17L285.498 1629.21Z" fill="#263238"/>
<path d="M591.463 1552.32C591.463 1552.32 757.569 1577.56 764.277 1579.08C774.358 1581.33 776.995 1617 761.873 1618.24C754.7 1618.82 638.922 1637.35 624.11 1638.21C609.299 1639.06 562.848 1626.88 562.848 1626.88L591.501 1552.32H591.463Z" fill="#455A64"/>
<path d="M665.754 1605.64C666.568 1605.64 666.646 1597.03 670.756 1587.53C674.749 1577.99 680.914 1571.94 680.333 1571.36C679.984 1570.78 672.539 1576.25 668.235 1586.44C663.854 1596.6 665.056 1605.75 665.715 1605.6L665.754 1605.64Z" fill="#263238"/>
<path d="M648.072 1600.05C648.886 1600.09 649.584 1592.3 652.88 1583.38C656.059 1574.42 660.518 1567.99 659.859 1567.52C659.355 1567.06 653.694 1573.07 650.321 1582.49C646.87 1591.87 647.374 1600.13 648.072 1600.09V1600.05Z" fill="#263238"/>
<path d="M631.864 1597.73C632.678 1597.57 631.088 1589.62 633.608 1580.28C635.935 1570.9 641.208 1564.73 640.549 1564.19C640.161 1563.61 633.531 1569.46 630.972 1579.58C628.296 1589.7 631.243 1598 631.864 1597.69V1597.73Z" fill="#263238"/>
<path d="M632.214 1576.63C632.525 1576.63 633.378 1572.02 632.525 1564.46C632.059 1560.7 631.09 1556.24 629.345 1551.55C628.453 1549.18 627.368 1546.78 626.049 1544.37C625.39 1543.17 624.615 1541.78 622.986 1540.73C621.319 1539.57 618.644 1540.15 617.48 1541.66C616.162 1543.13 615.929 1544.99 615.891 1546.47C615.891 1547.98 616.007 1549.34 616.201 1550.73C616.589 1553.49 617.248 1556.12 618.14 1558.49C619.923 1563.26 622.327 1567.13 624.576 1570.2C629.112 1576.28 632.757 1579.23 632.951 1579C633.3 1578.69 630.159 1575.28 626.166 1569.11C624.188 1566.01 622.056 1562.21 620.505 1557.67C619.729 1555.42 619.148 1552.98 618.837 1550.42C618.605 1547.94 618.217 1544.88 619.497 1543.48C620.195 1542.75 620.854 1542.63 621.59 1543.06C622.366 1543.52 623.103 1544.53 623.684 1545.65C624.964 1547.94 626.049 1550.23 626.98 1552.44C628.802 1556.9 629.927 1561.12 630.625 1564.73C631.982 1571.94 631.788 1576.6 632.214 1576.6V1576.63Z" fill="#263238"/>
<path d="M631.826 1575.01C631.865 1574.7 627.832 1573.84 621.241 1574.58C617.984 1574.97 614.106 1575.78 609.996 1577.33C607.98 1578.15 605.809 1578.96 603.715 1580.55C601.66 1581.95 599.721 1585.28 600.962 1588.34C602.009 1591.25 604.84 1593.04 607.437 1593.38C610.074 1593.81 612.517 1593.23 614.649 1592.49C618.953 1590.94 622.094 1588.38 624.459 1586.1C629.112 1581.44 631.283 1578.03 631.05 1577.84C630.74 1577.53 627.987 1580.55 623.179 1584.66C620.737 1586.68 617.674 1588.89 613.835 1590.13C611.935 1590.75 609.841 1591.1 607.864 1590.75C605.925 1590.44 604.18 1589.2 603.482 1587.41C602.823 1585.67 603.715 1583.88 605.344 1582.64C606.933 1581.36 608.988 1580.51 610.888 1579.66C614.727 1578.03 618.372 1577.06 621.512 1576.48C627.755 1575.28 631.787 1575.47 631.787 1575.01H631.826Z" fill="#263238"/>
<path d="M690.684 1604.43C691.459 1604.24 689.87 1597.46 692.119 1589.55C694.212 1581.6 699.059 1576.6 698.477 1576.01C698.128 1575.39 691.886 1580.01 689.482 1588.81C687 1597.61 690.064 1604.78 690.645 1604.4L690.684 1604.43Z" fill="#263238"/>
<path d="M579.365 1625.26C579.365 1625.26 581.653 1626.19 585.918 1627.43C590.222 1628.47 596.542 1629.95 604.49 1630.84C620.31 1632.86 642.527 1632.43 666.567 1629.29C690.645 1626.15 712.204 1622.43 727.868 1619.94C735.274 1618.66 741.478 1617.58 746.363 1616.73C750.706 1615.91 753.11 1615.37 753.11 1615.17C753.11 1614.98 750.628 1615.17 746.208 1615.68C741.284 1616.3 735.041 1617.11 727.558 1618.04C711.312 1620.29 689.87 1623.32 666.179 1626.61C642.217 1629.75 620.349 1630.45 604.645 1628.94C588.903 1627.62 579.442 1624.75 579.326 1625.26H579.365Z" fill="#263238"/>
<path d="M575.062 1629.52C575.333 1629.87 579.404 1626.77 586.461 1622.62C593.44 1618.59 603.987 1613.51 616.278 1613.93C628.608 1614.32 638.185 1621.46 644.428 1626.42C650.748 1631.58 654.548 1635.1 654.819 1634.76C655.052 1634.52 651.795 1630.57 645.669 1624.95C642.567 1622.15 638.728 1618.97 633.804 1616.26C628.957 1613.51 622.908 1611.41 616.356 1611.22C603.173 1610.79 592.238 1616.49 585.414 1620.99C578.474 1625.64 574.829 1629.29 575.023 1629.52H575.062Z" fill="#263238"/>
<path d="M1108.04 869.868C1106.69 866.649 1103.2 865.098 1103.2 865.098L1107.15 857.189C1107.15 857.189 1106.76 852.574 1104.86 849.201C1102.96 845.867 1096.14 846.138 1096.14 846.138L1097.15 843.928C1098.62 840.749 1098.31 837.026 1096.3 834.157C1095.99 833.731 1095.68 833.304 1095.29 832.839C1092.53 829.465 1086.68 828.457 1086.68 828.457C1086.68 828.457 1090.56 821.013 1088.81 817.911C1086.52 813.801 1078.34 809.381 1072.29 811.397C1065.74 813.607 1051.82 820.354 1042.24 825.743C1038.45 827.876 1033.68 826.092 1032.16 822.06C1029.26 814.305 1024.18 802.518 1017.47 794.453C1010.18 785.69 1003.32 786.388 999.361 787.9C997.461 788.637 996.647 790.924 997.733 792.669C1000.76 797.671 1006.69 807.675 1008.28 811.901C1010.18 816.941 1012.27 855.172 1012.27 855.172L1001.8 875.102L896.03 1042.1C896.03 1042.1 736.476 934.542 737.096 931.867L729.574 1055.17L849.85 1135.04C870.749 1148.92 896.728 1152.8 920.767 1145.66C944.691 1138.57 964.271 1121.28 974.236 1098.44L1055.16 922.832L1064.97 908.486L1103.08 884.059C1103.08 884.059 1109.28 873.125 1107.97 869.906L1108.04 869.868Z" fill="#FFBE9D"/>
<path d="M1090.48 828.728C1090.48 828.728 1090.25 829 1089.7 829.426C1089.08 829.93 1088.35 830.512 1087.42 831.249C1085.28 832.916 1082.41 835.126 1078.89 837.879C1075.24 840.671 1070.94 843.967 1066.17 847.611C1063.72 849.395 1061.36 851.45 1058.49 853.195C1055.7 854.901 1051.86 856.025 1048.37 854.513C1046.66 853.737 1045.35 852.264 1044.61 850.674C1043.87 849.046 1043.64 847.262 1043.72 845.556C1043.91 842.067 1045.77 839.159 1047.75 836.871C1049.8 834.583 1052.05 832.761 1054.11 831.055C1056.16 829.349 1058.06 827.759 1059.85 826.286C1063.3 823.455 1066.13 821.129 1068.18 819.462C1069.11 818.725 1069.89 818.104 1070.47 817.639C1071.01 817.213 1071.29 817.019 1071.32 817.058C1071.32 817.058 1071.09 817.329 1070.59 817.794C1070.01 818.298 1069.27 818.957 1068.42 819.772C1066.4 821.517 1063.65 823.921 1060.27 826.867C1058.53 828.341 1056.63 829.969 1054.61 831.714C1052.6 833.459 1050.35 835.281 1048.41 837.491C1046.51 839.701 1044.8 842.454 1044.65 845.634C1044.42 848.697 1045.69 852.303 1048.72 853.66C1050.19 854.319 1051.9 854.435 1053.49 854.125C1055.08 853.854 1056.59 853.195 1057.95 852.38C1060.7 850.713 1063.14 848.658 1065.59 846.913C1070.39 843.346 1074.74 840.089 1078.42 837.375C1082.03 834.738 1084.97 832.606 1087.14 831.016C1088.11 830.318 1088.89 829.775 1089.55 829.31C1090.09 828.922 1090.4 828.728 1090.44 828.767L1090.48 828.728Z" fill="#EB996E"/>
<path d="M1098.97 846.681C1098.97 846.681 1098.39 847.263 1097.23 848.154C1096.06 849.046 1094.32 850.287 1092.15 851.799C1087.8 854.824 1081.72 858.817 1074.78 862.927C1073.03 863.935 1071.36 864.982 1069.58 865.758C1067.8 866.533 1065.9 866.998 1064.04 866.805C1060.31 866.378 1057.68 863.664 1056.86 861.027C1056.05 858.352 1056.71 856.064 1057.37 854.746C1057.72 854.087 1058.06 853.622 1058.34 853.311C1058.61 853.04 1058.76 852.885 1058.8 852.924C1058.88 852.962 1058.3 853.583 1057.75 854.901C1057.21 856.219 1056.75 858.391 1057.56 860.795C1058.37 863.16 1060.86 865.564 1064.19 865.913C1065.82 866.068 1067.56 865.641 1069.27 864.866C1070.98 864.129 1072.6 863.082 1074.35 862.074C1081.25 858.003 1087.42 854.087 1091.8 851.218C1093.89 849.86 1095.64 848.736 1097.03 847.806C1098.27 846.991 1098.97 846.604 1099.01 846.642L1098.97 846.681Z" fill="#EB996E"/>
<path d="M1103.9 864.168C1103.9 864.168 1103.27 864.594 1102.07 865.253C1100.68 865.951 1098.93 866.843 1096.92 867.851C1092.53 870.023 1086.49 872.931 1079.74 876.11C1078.07 876.886 1076.44 877.739 1074.7 878.281C1072.99 878.863 1071.17 879.096 1069.46 878.708C1067.8 878.359 1066.28 877.312 1065.59 875.916C1064.85 874.52 1064.77 873.047 1065.01 871.806C1065.47 869.247 1067.06 867.696 1068.03 866.804C1069.08 865.913 1069.77 865.564 1069.81 865.602C1069.85 865.68 1069.23 866.106 1068.3 867.076C1067.41 868.006 1066.01 869.596 1065.66 871.884C1065.51 873.008 1065.66 874.365 1066.28 875.49C1066.91 876.653 1068.18 877.506 1069.66 877.777C1071.13 878.088 1072.8 877.894 1074.39 877.312C1076.02 876.769 1077.61 875.916 1079.31 875.141C1086.06 871.961 1092.15 869.17 1096.61 867.153C1098.7 866.223 1100.44 865.447 1101.88 864.827C1103.12 864.284 1103.86 864.051 1103.86 864.09L1103.9 864.168Z" fill="#EB996E"/>
<path d="M1106.65 880.414C1106.65 880.414 1104.36 881.151 1100.6 882.004C1096.84 882.857 1091.6 883.982 1085.83 885.145C1084.39 885.416 1082.96 885.726 1081.6 885.998C1080.24 886.269 1078.89 886.541 1077.53 886.502C1076.17 886.463 1074.85 886.037 1073.92 885.222C1072.95 884.408 1072.49 883.206 1072.53 882.159C1072.68 880.027 1074 878.747 1074.85 878.088C1075.78 877.429 1076.4 877.351 1076.4 877.39C1076.4 877.468 1075.86 877.7 1075.09 878.398C1074.35 879.057 1073.26 880.376 1073.23 882.159C1073.23 883.051 1073.61 883.982 1074.43 884.602C1075.24 885.261 1076.37 885.61 1077.57 885.61C1078.77 885.61 1080.05 885.377 1081.45 885.067C1082.8 884.796 1084.24 884.486 1085.67 884.214C1091.45 883.051 1096.68 882.043 1100.48 881.345C1104.28 880.647 1106.65 880.298 1106.69 880.453L1106.65 880.414Z" fill="#EB996E"/>
<path d="M1065.28 872.698C1065.2 873.008 1060.47 871.302 1054.42 871.612C1048.37 871.845 1043.84 874.016 1043.72 873.706C1043.56 873.512 1048.1 870.914 1054.38 870.643C1060.66 870.332 1065.39 872.504 1065.28 872.698Z" fill="#EB996E"/>
<path d="M495.574 836.135C495.574 836.135 441.911 790.847 454.357 759.673C466.804 728.499 501.235 713.028 518.14 656.341C531.672 611.054 612.282 523.813 707.821 589.379C707.821 589.379 740.158 584.261 758.536 598.995C776.915 613.729 781.335 643.12 789.168 677.046C801.188 729.352 807.779 769.56 784.515 795.112C761.212 820.664 752.72 827.605 753.961 856.685C755.59 894.644 772.34 889.565 757.877 917.249L677.732 891.116L676.918 869.054L668.814 889.797L622.208 873.047L495.574 836.096V836.135Z" fill="#263238"/>
<path d="M762.373 645.252C757.178 657.233 761.443 671.036 766.367 683.095C771.33 695.154 777.03 707.949 774.548 720.744C770.128 743.427 741.94 756.067 738.838 778.982C737.17 791.274 743.335 803.759 740.931 815.895C738.644 827.643 728.795 836.522 718.365 842.416C707.935 848.348 696.381 852.264 686.61 859.166C686.61 859.166 665.051 876.847 627.906 847.689" fill="#263238"/>
<path d="M610.188 615.629C600.223 613.303 590.103 619.002 586.924 628.734L509.919 884.253C499.993 914.147 537.565 946.058 569.669 956.449C602.045 966.957 608.637 951.564 618.912 923.414C636.127 876.421 642.292 858.662 642.215 858.934C642.215 858.934 685.176 866.301 712.046 816.205C725.384 791.312 739.11 747.614 749.153 711.477C758.187 678.985 750.703 632.612 717.823 624.973L610.149 615.59L610.188 615.629Z" fill="#FFBE9D"/>
<path d="M721.932 738.269C720.808 741.914 716.814 743.969 712.976 742.845C709.176 741.759 706.966 737.92 708.09 734.276C709.215 730.631 713.208 728.576 717.008 729.7C720.808 730.786 723.018 734.625 721.894 738.269H721.932Z" fill="#263238"/>
<path d="M732.595 729.003C731.432 729.584 727.632 724.001 720.304 721.481C713.014 718.844 706.345 720.744 705.88 719.581C705.609 719.038 707.043 717.758 709.99 716.867C712.898 715.975 717.396 715.703 721.932 717.293C726.469 718.883 729.726 721.907 731.354 724.389C733.022 726.909 733.216 728.77 732.673 729.003H732.595Z" fill="#263238"/>
<path d="M649.389 715.122C648.265 718.767 644.271 720.821 640.433 719.697C636.633 718.611 634.423 714.773 635.547 711.128C636.672 707.483 640.665 705.428 644.465 706.553C648.265 707.638 650.475 711.477 649.351 715.122H649.389Z" fill="#263238"/>
<path d="M659.586 707.135C658.422 707.716 654.584 702.133 647.294 699.613C640.005 696.976 633.336 698.876 632.871 697.713C632.638 697.17 634.034 695.89 636.981 694.998C639.889 694.107 644.386 693.835 648.923 695.425C653.459 697.054 656.716 700.039 658.345 702.521C659.973 705.041 660.206 706.902 659.663 707.135H659.586Z" fill="#263238"/>
<path d="M667.264 770.608C667.38 770.181 672.188 770.957 679.904 772.585C681.842 773.05 683.742 773.283 684.479 772.12C685.371 770.918 685.293 768.63 685.138 766.149C684.944 761.03 684.75 755.641 684.557 750.019C683.936 727.104 684.169 708.492 685.099 708.492C686.03 708.492 687.271 727.026 687.93 749.98C688.046 755.602 688.163 760.992 688.24 766.149C688.24 768.514 688.589 771.344 686.65 773.826C685.681 775.028 683.936 775.571 682.618 775.493C681.3 775.454 680.253 775.105 679.283 774.834C671.722 772.663 667.108 771.073 667.225 770.646L667.264 770.608Z" fill="#263238"/>
<path d="M642.215 858.934C642.215 858.934 605.73 848.852 577.812 815.313C577.812 815.313 583.047 858.003 637.834 871.496L642.215 858.934Z" fill="#EB996E"/>
<path d="M658.034 787.164C656.6 782.782 652.683 779.254 647.914 778.168C644.618 777.393 640.896 777.819 638.066 779.719C635.235 781.619 633.568 785.148 634.46 788.25C635.468 791.7 639.384 793.794 643.223 794.027C647.061 794.259 650.861 792.98 654.506 791.7C655.514 791.351 656.561 790.964 657.336 790.266C658.112 789.568 658.616 788.482 658.267 787.552" fill="#EB996E"/>
<path d="M665.053 686.158C663.89 688.097 656.484 685.654 647.372 685.034C638.26 684.219 630.544 685.46 629.73 683.366C629.381 682.358 631.009 680.652 634.305 679.218C637.562 677.783 642.525 676.736 647.992 677.163C653.459 677.589 658.19 679.373 661.214 681.311C664.239 683.25 665.596 685.189 665.053 686.119V686.158Z" fill="#263238"/>
<path d="M743.141 704.731C741.086 705.972 735.425 702.482 728.02 700.311C720.691 697.907 714.022 697.597 713.053 695.425C712.665 694.378 714.139 692.982 717.318 692.129C720.459 691.276 725.344 691.276 730.423 692.827C735.464 694.378 739.458 697.17 741.552 699.651C743.684 702.133 744.033 704.11 743.103 704.731H743.141Z" fill="#263238"/>
<path d="M520.582 783.287C535.006 734.936 549.468 686.585 563.892 638.234C566.839 628.308 570.29 617.723 578.51 611.48C586.303 605.587 596.772 604.889 606.543 604.695C648.69 603.842 690.992 607.991 732.17 617.103C734.147 626.951 725.617 636.296 716.117 639.475C706.618 642.655 696.265 641.53 686.223 641.646C676.18 641.763 665.285 643.546 658.461 650.952C651.249 658.823 650.512 670.959 643.688 679.179C631.94 693.293 607.357 690.307 595.686 704.537C586.846 715.278 589.25 730.981 586.342 744.552C584.145 754.814 579.027 767.493 570.987 782.589C563.582 796.508 582.193 823.03 563.659 857.422L527.677 847.186L543.458 794.066L522.055 843.89L520.543 783.287H520.582Z" fill="#263238"/>
<path d="M645.548 769.716C646.324 770.142 645.936 772.081 645.859 774.873C645.781 777.626 646.169 781.387 647.952 784.838C649.775 788.288 652.644 790.731 654.932 792.243C657.258 793.794 659.042 794.57 659.003 795.462C659.003 796.237 656.793 797.051 653.303 796.237C649.891 795.462 645.238 792.747 642.563 787.668C639.926 782.589 640.314 777.199 641.632 773.981C642.951 770.646 644.85 769.328 645.51 769.755L645.548 769.716Z" fill="#263238"/>
<path d="M634.848 653.162C634.848 653.162 634.188 653.627 632.831 654.287C631.474 654.907 629.536 655.993 627.132 657.427C622.324 660.374 615.655 665.337 609.373 673.286C603.169 681.157 597.276 692.13 595.376 705.313C594.368 711.904 594.678 718.883 595.531 726.134C596.307 733.385 597.47 740.984 596.888 748.933C596.617 752.888 595.802 756.804 594.407 760.449C593.011 764.094 591.111 767.389 589.25 770.53C585.45 776.811 581.999 782.899 581.146 789.49C580.138 796.004 580.836 802.402 581.611 808.296C582.426 814.189 583.472 819.695 583.899 824.852C584.791 835.088 583.123 843.618 580.332 848.698C579.013 851.295 577.501 852.963 576.493 854.087C575.369 855.134 574.787 855.638 574.748 855.561C574.554 855.406 577.191 853.428 579.634 848.31C582.115 843.269 583.55 834.972 582.464 824.929C581.96 819.928 580.836 814.422 579.944 808.489C579.052 802.557 578.277 796.043 579.285 789.18C580.797 774.911 594.562 764.443 594.872 748.739C595.415 741.101 594.29 733.579 593.554 726.289C592.739 719 592.429 711.749 593.554 704.964C595.609 691.393 601.812 680.226 608.249 672.316C614.802 664.329 621.742 659.443 626.705 656.652C629.225 655.256 631.242 654.325 632.637 653.783C634.033 653.201 634.77 652.968 634.809 653.007L634.848 653.162Z" fill="#263238"/>
<path d="M808.632 871.186C808.632 871.186 808.438 871.38 807.973 871.729C807.508 872.039 806.888 872.582 805.918 873.125C804.057 874.249 801.149 875.684 797.117 876.731C793.084 877.778 787.927 878.243 782.072 877.274C776.256 876.304 769.665 873.629 764.237 868.394C758.847 863.199 754.66 855.599 753.535 846.797C752.953 842.416 753.147 837.763 754.427 833.188C755.706 828.651 757.917 824.231 760.825 820.238C766.602 812.173 774.667 805.62 782.266 798.369C786.027 794.724 789.75 790.847 792.813 786.466C795.876 782.084 798.28 777.121 800.025 771.887C803.514 761.379 804.367 750.367 804.096 739.899C803.824 729.391 802.506 719.271 800.955 709.694C797.815 690.578 792.968 673.712 788.044 659.908C783.119 646.066 778.079 635.326 774.434 627.959C772.612 624.275 771.138 621.445 770.13 619.545C769.122 617.606 768.657 616.598 768.696 616.56C768.773 616.56 769.355 617.49 770.479 619.351C771.604 621.212 773.193 623.965 775.132 627.61C778.97 634.899 784.244 645.601 789.362 659.443C794.519 673.247 799.521 690.152 802.778 709.422C804.367 719.038 805.763 729.197 806.073 739.86C806.345 750.484 805.53 761.689 801.925 772.546C800.102 777.935 797.621 783.054 794.441 787.629C791.262 792.204 787.462 796.12 783.623 799.804C775.946 807.132 767.959 813.568 762.337 821.323C759.506 825.162 757.412 829.349 756.133 833.653C754.892 837.957 754.698 842.416 755.202 846.604C756.172 855.017 760.127 862.384 765.206 867.386C770.324 872.466 776.605 875.141 782.228 876.188C787.889 877.235 792.968 876.886 796.923 875.994C804.91 874.133 808.477 870.953 808.632 871.264V871.186Z" fill="#263238"/>
<path d="M478.784 818.609C478.629 818.26 484.096 818.066 491.231 812.405C498.249 806.899 506.004 795.228 507.748 779.06C508.757 771.034 508.601 762.154 508.408 752.577C508.291 743.039 508.097 732.609 510.773 721.985C512.052 716.673 514.068 711.4 517.015 706.437C520.001 701.551 524.072 697.015 529.268 693.874C539.775 687.438 552.687 687.748 564.125 683.754C569.903 681.815 574.866 678.326 578.976 674.061C583.086 669.757 586.343 664.794 589.483 659.87C595.687 650.099 601.619 639.824 611.08 633.775C615.694 630.751 620.967 629.045 626.086 628.308C631.204 627.532 636.244 627.532 641.052 627.649C650.629 627.959 659.508 628.618 667.535 627.455C683.626 625.245 695.413 618.576 702.741 613.38C706.463 610.782 709.022 608.378 710.845 606.788C711.62 606.052 712.279 605.431 712.822 604.927C713.288 604.501 713.52 604.307 713.559 604.346C713.559 604.346 710.535 608.456 703.245 614.039C695.995 619.467 684.13 626.447 667.806 628.889C659.664 630.208 650.629 629.587 641.091 629.355C631.708 629.161 621.045 629.51 612.166 635.365C603.248 641.103 597.432 651.107 591.228 660.955C588.087 665.918 584.792 670.998 580.527 675.457C576.3 679.916 570.949 683.677 564.901 685.693C552.958 689.803 540.241 689.531 530.431 695.619C520.582 701.59 515.27 712.33 512.711 722.489C510.036 732.803 510.152 743.078 510.191 752.616C510.307 762.154 510.385 771.15 509.261 779.292C507.283 795.732 499.141 807.597 491.812 813.064C488.129 815.856 484.794 817.252 482.468 817.911C481.344 818.299 480.413 818.376 479.793 818.531C479.172 818.648 478.862 818.686 478.862 818.648L478.784 818.609Z" fill="#455A64"/>
<path d="M517.637 658.009C517.714 657.776 520.235 659.327 525.275 660.064C530.277 660.839 537.915 660.413 546.213 656.613C554.549 652.89 562.847 645.601 571.261 636.877C575.526 632.534 579.946 627.881 585.025 623.5C590.066 619.157 595.804 615.009 602.512 612.294C609.181 609.58 616.238 608.65 622.946 608.533C629.654 608.417 636.051 609.037 642.139 609.58C648.188 610.162 653.965 610.744 659.316 610.821C664.666 610.899 669.668 610.472 674.166 609.619C683.123 607.952 689.869 604.423 693.63 601.05C697.469 597.716 698.942 595.156 699.136 595.312C699.214 595.312 698.826 595.971 698.089 597.095C697.74 597.677 697.236 598.375 696.577 599.111C695.957 599.887 695.181 600.74 694.173 601.632C690.451 605.276 683.588 609.154 674.437 611.015C669.862 611.984 664.783 612.488 659.316 612.488C653.849 612.488 648.032 611.946 641.984 611.441C635.935 610.937 629.576 610.356 623.024 610.511C616.471 610.666 609.685 611.558 603.327 614.156C590.492 619.468 581.264 629.665 572.657 638.156C564.126 646.842 555.557 654.209 546.872 657.854C538.264 661.615 530.316 661.808 525.236 660.762C522.677 660.296 520.777 659.482 519.537 658.978C518.335 658.358 517.714 658.009 517.714 657.931L517.637 658.009Z" fill="#455A64"/>
<path d="M798.202 766.729C797.93 766.613 799.636 764.248 800.102 759.362C800.683 754.516 799.21 747.226 794.557 739.782C790.059 732.143 781.723 725.513 773.27 717.254C769.083 713.067 764.895 708.298 761.987 702.365C759.079 696.472 757.645 689.725 757.179 682.862C756.288 669.097 758.653 656.224 758.343 644.554C758.265 632.922 755.435 622.414 749.812 615.629C744.384 608.727 737.599 605.47 732.791 604.694C727.944 603.88 725.191 604.772 725.152 604.5C725.152 604.423 725.811 604.268 727.091 603.996C728.409 603.764 730.348 603.609 732.868 603.919C737.87 604.462 745.082 607.68 750.859 614.737C756.908 621.677 759.971 632.689 760.126 644.515C760.514 656.418 758.226 669.291 759.118 682.707C759.583 689.376 760.94 695.851 763.693 701.473C766.408 707.096 770.44 711.787 774.511 715.936C782.731 724.156 791.184 731.058 795.682 739.045C800.296 746.839 801.653 754.477 800.761 759.479C800.412 761.999 799.675 763.86 799.132 765.023C798.512 766.187 798.163 766.768 798.086 766.768L798.202 766.729Z" fill="#455A64"/>
<path d="M455.055 789.956C455.055 789.956 454.164 789.568 452.574 788.599C451.023 787.59 448.813 785.884 446.525 783.17C441.95 777.936 437.064 767.7 439.081 754.866C439.701 751.725 440.748 748.507 442.376 745.405C444.121 742.342 446.448 739.511 449.2 736.952C454.784 731.873 461.957 728.189 469.363 724.544C476.73 720.861 484.64 717.061 490.921 710.819C497.241 704.615 500.769 695.813 503.135 686.701C505.5 677.512 507.09 668.206 510.114 659.599C513.061 650.991 516.977 643.081 521.358 635.985C530.121 621.756 540.861 610.899 550.865 603.222C560.83 595.506 570.019 590.853 576.494 588.178C579.713 586.743 582.31 585.929 584.055 585.347C585.8 584.766 586.731 584.494 586.769 584.572C586.847 584.804 583.125 585.967 576.805 588.914C570.484 591.822 561.489 596.591 551.718 604.385C541.986 612.101 531.478 622.919 522.948 636.994C518.683 644.012 514.844 651.805 511.975 660.258C509.028 668.71 507.477 677.9 505.073 687.205C502.708 696.472 499.025 705.701 492.317 712.215C485.686 718.767 477.583 722.567 470.177 726.212C462.732 729.818 455.714 733.385 450.325 738.193C447.65 740.636 445.439 743.311 443.733 746.18C442.144 749.088 441.097 752.151 440.476 755.137C439.391 761.186 440.011 766.885 441.407 771.538C442.842 776.23 444.974 779.991 447.145 782.666C451.488 788.133 455.249 789.684 455.055 789.956Z" fill="#263238"/>
<path d="M809.098 770.335C809.098 770.335 810.765 768.474 813.208 764.83C815.69 761.185 818.559 755.369 820.071 747.653C821.583 739.937 821.583 730.36 819.102 720.279C816.659 710.159 811.541 699.729 805.221 689.454C798.823 679.179 791.96 669.873 786.144 661.032C780.328 652.231 775.598 643.895 772.418 636.528C769.239 629.161 767.572 622.84 766.835 618.42C766.486 616.21 766.253 614.504 766.214 613.302C766.137 612.139 766.137 611.519 766.214 611.519C766.408 611.519 766.641 613.961 767.649 618.265C768.618 622.569 770.48 628.734 773.775 635.946C777.071 643.158 781.84 651.3 787.734 659.986C793.589 668.71 800.529 677.977 807.004 688.368C813.402 698.72 818.559 709.383 821.002 719.813C823.444 730.205 823.289 740.053 821.544 747.924C819.8 755.834 816.62 761.689 813.906 765.256C812.51 767.04 811.386 768.358 810.494 769.133C809.641 769.948 809.176 770.374 809.137 770.297L809.098 770.335Z" fill="#263238"/>
<path d="M406.395 1310.88L374.562 1366.29C374.562 1366.29 216.327 1308.4 123.697 1325.26C88.4901 1331.66 50.7634 1411.57 102.1 1462.91C152.156 1512.97 241.724 1583.77 409.691 1606.68C413.879 1607.26 482.702 1622.04 478.437 1621.53C474.21 1621.03 574.906 1636.97 574.906 1636.97L598.557 1547.55L786.183 1576.98C896.766 1569.42 950.894 1451.2 884.281 1413.12C822.165 1377.61 705.34 1374.78 705.34 1374.78L662.999 1308.4L406.356 1310.88H406.395Z" fill="#263238"/>
<path d="M578.628 1640.14C579.132 1637.12 580.45 1628.98 583.203 1612.27C584.676 1603.35 586.537 1592.49 588.903 1579.97C590.105 1573.73 591.423 1567.06 593.013 1560.04C593.827 1556.55 594.68 1552.94 595.688 1549.3C596.231 1547.48 596.774 1545.61 597.433 1543.79C598.131 1541.93 598.712 1540.07 600.263 1538.29L600.535 1539.64C560.598 1525.45 510.657 1506.72 457.46 1484.31C424.735 1470.39 393.871 1456.36 366.73 1441.7C353.198 1434.33 340.441 1426.93 329.507 1418.63C318.456 1410.49 308.647 1402.35 299.419 1395.25C281.156 1380.87 264.6 1371.56 252.231 1367.57C249.207 1366.4 246.376 1365.74 243.972 1365.12C241.568 1364.43 239.475 1364.04 237.807 1363.8C236.218 1363.49 234.938 1363.3 233.969 1363.11C233.116 1362.95 232.65 1362.84 232.65 1362.8C232.65 1362.8 233.116 1362.8 233.969 1362.91C234.938 1363.03 236.218 1363.22 237.846 1363.42C239.552 1363.61 241.646 1363.92 244.089 1364.58C246.531 1365.16 249.401 1365.74 252.464 1366.87C258.745 1368.73 266.073 1372.02 274.177 1376.52C282.281 1381.06 291.005 1387.07 300.272 1394.13C309.577 1401.18 319.465 1409.25 330.476 1417.31C341.41 1425.53 354.051 1432.82 367.583 1440.11C394.685 1454.61 425.549 1468.61 458.235 1482.49C511.394 1504.9 561.257 1523.79 601.078 1538.17L602.202 1538.56L601.388 1539.53C600.341 1540.73 599.565 1542.67 598.945 1544.41C598.286 1546.2 597.743 1548.02 597.2 1549.8C596.153 1553.41 595.3 1556.98 594.447 1560.46C592.819 1567.44 591.423 1574.07 590.182 1580.32C587.701 1592.8 585.723 1603.62 584.095 1612.5C582.466 1621.3 581.187 1628.2 580.295 1633.05C579.83 1635.41 579.442 1637.2 579.17 1638.4C578.899 1639.6 578.666 1640.18 578.666 1640.18L578.628 1640.14Z" fill="#455A64"/>
<path d="M847.873 1423.9C847.873 1423.9 847.524 1423.9 846.865 1423.83C846.089 1423.71 845.12 1423.56 843.957 1423.36C841.397 1423.01 837.675 1422.04 832.751 1421.58C823.019 1420.14 808.711 1419.21 791.147 1420.1C773.544 1420.96 752.761 1424.33 730.234 1430.15C718.989 1433.17 707.279 1436.7 695.298 1440.85C683.317 1445 671.104 1449.8 658.58 1454.77C646.056 1459.85 633.416 1463.76 621.124 1467.14C608.833 1470.51 596.852 1473.19 585.375 1475.4C562.421 1479.85 541.561 1482.61 523.996 1484.78C506.471 1486.91 492.241 1488.35 482.431 1489.35C477.623 1489.82 473.862 1490.21 471.109 1490.48C469.907 1490.56 468.938 1490.67 468.162 1490.71C467.503 1490.75 467.154 1490.75 467.154 1490.71C467.154 1490.71 467.503 1490.59 468.124 1490.48C468.899 1490.36 469.868 1490.21 471.032 1490.05C473.785 1489.7 477.546 1489.2 482.315 1488.58C492.28 1487.34 506.393 1485.55 523.803 1483.34C541.29 1481.02 562.111 1478.11 584.987 1473.57C596.426 1471.32 608.368 1468.65 620.582 1465.24C632.795 1461.86 645.358 1457.95 657.804 1452.91C670.328 1447.94 682.581 1443.14 694.639 1438.99C706.659 1434.84 718.446 1431.35 729.768 1428.36C752.451 1422.62 773.389 1419.37 791.108 1418.67C808.789 1417.93 823.174 1419.1 832.906 1420.8C837.83 1421.38 841.514 1422.47 844.073 1422.97C845.236 1423.24 846.206 1423.48 846.942 1423.63C847.601 1423.79 847.912 1423.9 847.912 1423.94L847.873 1423.9Z" fill="#455A64"/>
<path d="M558.816 1391.72C558.932 1393.04 550.402 1395.17 536.366 1396.49C522.33 1397.81 502.749 1398.08 481.307 1395.79C459.865 1393.47 440.75 1389.09 427.334 1384.82C413.88 1380.56 406.009 1376.68 406.396 1375.4C407.288 1372.57 440.517 1381.41 482.354 1385.75C524.152 1390.37 558.544 1388.78 558.777 1391.72H558.816Z" fill="#263238"/>
<path d="M707.122 1376.02C707.122 1376.02 704.951 1376.76 700.919 1377.69C698.902 1378.11 696.46 1378.73 693.668 1379.59C690.876 1380.36 687.658 1381.25 684.207 1382.49C677.189 1384.67 669.124 1388.08 660.245 1391.99C651.482 1396.14 642.021 1401.11 632.405 1406.88C613.213 1418.48 596.928 1430.73 585.451 1439.92C579.712 1444.49 575.098 1448.29 571.957 1450.93C568.778 1453.57 566.994 1454.96 566.917 1454.88C566.839 1454.77 568.429 1453.18 571.453 1450.35C574.439 1447.52 578.937 1443.56 584.559 1438.79C595.842 1429.29 612.049 1416.81 631.397 1405.14C641.091 1399.36 650.629 1394.4 659.508 1390.29C668.465 1386.41 676.685 1383.11 683.819 1381.1C687.348 1379.94 690.605 1379.16 693.435 1378.46C696.266 1377.73 698.747 1377.18 700.802 1376.91C704.873 1376.21 707.122 1375.9 707.161 1376.02H707.122Z" fill="#455A64"/>
<path d="M531.208 1454.85C531.13 1455.08 526.788 1454.15 520.08 1451.67C513.372 1449.22 504.377 1445.15 494.683 1440.19C485.377 1435.3 476.925 1430.88 470.062 1427.28C463.781 1423.98 459.826 1422.04 459.942 1421.77C460.058 1421.54 464.207 1423.01 470.682 1426C477.157 1428.95 485.92 1433.44 495.575 1438.37C505.23 1443.29 514.031 1447.56 520.584 1450.31C527.098 1453.1 531.247 1454.5 531.169 1454.81L531.208 1454.85Z" fill="#455A64"/>
<path d="M548.346 1317.43C548.656 1317.43 548.113 1323.25 547.531 1332.59C546.95 1341.94 546.407 1354.85 546.678 1369.16C546.95 1383.42 547.997 1396.34 548.927 1405.64C549.896 1414.95 550.633 1420.72 550.323 1420.76C550.168 1420.76 549.819 1419.37 549.315 1416.81C548.772 1414.25 548.152 1410.49 547.492 1405.84C546.174 1396.53 544.933 1383.58 544.623 1369.19C544.352 1354.85 545.089 1341.86 546.058 1332.48C546.523 1327.78 547.027 1324.02 547.454 1321.43C547.88 1318.83 548.152 1317.39 548.307 1317.43H548.346Z" fill="#455A64"/>
<path d="M565.949 1323.21C565.949 1323.21 565.29 1323.83 564.282 1324.95C563.274 1326.08 562.188 1328.02 561.8 1330.65C561.49 1333.25 561.955 1336.66 564.243 1339.15C566.453 1341.7 570.641 1342.44 574.363 1341.04C578.085 1339.69 580.761 1336.39 580.799 1333.02C580.916 1329.65 579.055 1326.74 577.116 1324.99C575.1 1323.25 573.006 1322.47 571.533 1322.28C570.02 1322.05 569.167 1322.2 569.129 1322.01C569.129 1321.93 569.943 1321.5 571.571 1321.5C573.2 1321.5 575.643 1322.08 578.008 1323.91C580.295 1325.73 582.661 1328.91 582.622 1333.06C582.699 1337.28 579.365 1341.39 575.022 1342.94C570.718 1344.61 565.523 1343.64 562.847 1340.39C560.133 1337.21 559.823 1333.29 560.366 1330.42C560.986 1327.47 562.421 1325.42 563.7 1324.37C564.941 1323.29 565.872 1323.09 565.91 1323.17L565.949 1323.21Z" fill="#455A64"/>
<path d="M614.105 1259.31C614.105 1259.31 613.136 1260.78 611.081 1263.26C609.065 1265.75 605.885 1269.16 601.775 1273.11C597.665 1277.11 592.392 1281.49 586.266 1285.95C580.062 1290.33 572.966 1294.75 565.134 1298.7C557.263 1302.58 549.47 1305.61 542.219 1307.89C534.968 1310.1 528.299 1311.65 522.638 1312.55C516.977 1313.48 512.363 1313.94 509.184 1314.06C506.004 1314.21 504.221 1314.21 504.221 1314.06C504.221 1313.67 511.239 1313.28 522.405 1311.11C527.989 1310.06 534.542 1308.36 541.676 1306.11C548.772 1303.74 556.488 1300.72 564.242 1296.88C571.958 1293 579.015 1288.66 585.18 1284.44C591.306 1280.09 596.579 1275.87 600.806 1272.07C609.258 1264.47 613.834 1259.08 614.105 1259.31Z" fill="#263238"/>
<path d="M684.906 1302.35C684.906 1302.97 677.927 1302.97 669.707 1305.02C661.448 1307 655.283 1310.26 654.972 1309.72C654.662 1309.29 660.633 1305.14 669.202 1303.05C677.771 1300.91 684.983 1301.84 684.906 1302.35Z" fill="#263238"/>
<g opacity="0.3">
<path d="M522.173 1312.04C555.596 1306.03 586.692 1288.08 608.599 1262.1C612.748 1274.28 609.297 1288.7 600.108 1297.7C609.956 1302.35 621.472 1299.25 632.29 1297.77C643.108 1296.3 656.252 1297.77 661.409 1307.35C613.175 1311.81 564.669 1313.21 516.279 1311.5" fill="black"/>
</g>
<path d="M425.86 1236.08C425.55 1236.51 420.742 1229.8 409.148 1225.23C403.449 1222.94 396.082 1221.43 387.939 1221.66C379.797 1221.89 370.918 1224.03 362.581 1228.45C345.676 1237.21 335.672 1252.18 327.995 1261.79C324.389 1266.83 322.024 1271.33 320.396 1274.39C318.767 1277.49 317.836 1279.2 317.72 1279.12C317.604 1279.08 318.263 1277.26 319.698 1274.04C321.132 1270.86 323.304 1266.21 326.832 1260.98C330.399 1255.74 335.052 1249.97 340.441 1243.57C345.947 1237.33 353.043 1231.16 361.651 1226.66C370.22 1222.13 379.487 1219.92 387.9 1219.8C396.314 1219.64 403.875 1221.39 409.691 1223.91C415.585 1226.35 419.695 1229.57 422.293 1231.94C423.572 1233.14 424.503 1234.15 425.084 1234.88C425.666 1235.62 425.937 1236.01 425.899 1236.05L425.86 1236.08Z" fill="#263238"/>
<path d="M527.407 864.168L473.24 875.684L500.304 976.999L596.153 997.588L661.913 950.905L670.947 895.071L614.57 873.745L527.407 864.168Z" fill="#FFBE9D"/>
<path d="M489.292 871.496C489.292 871.496 525.933 977.891 593.632 968.081C661.331 958.271 655.67 889.293 655.67 889.293C655.67 889.293 726.315 910.812 748.184 933.766C770.013 956.682 757.218 1006.51 757.218 1006.51L738.878 1096.54L699.019 1269C699.019 1269 714.257 1316.04 675.328 1327.67L663.037 1308.36L429.348 1314.95C429.348 1314.95 379.369 1372.57 363.782 1352.72C348.195 1332.82 333.189 1294.09 333.189 1294.09L440.437 884.175L489.253 871.457L489.292 871.496Z" fill="#455A64"/>
<path d="M729.65 920.157C731.55 921.243 895.562 1040.47 895.562 1040.47C895.562 1040.47 882.689 1138.53 961.361 1122.9C961.361 1122.9 929.567 1204.91 886.528 1187.7C874.275 1182.81 723.136 1087.12 723.136 1087.12L691.031 1018.68L729.688 920.157H729.65Z" fill="#455A64"/>
<path d="M489.293 876.769C489.293 876.769 485.57 876.886 479.328 877.467C447.223 880.569 328.731 905.113 317.758 988.709C312.019 1032.45 310.391 1160.36 304.148 1213.98C304.148 1213.98 314.074 1288.51 317.758 1302.35C324.311 1326.93 443.191 1287.58 443.191 1287.58L443.423 1050.86L485.57 876.847" fill="#455A64"/>
<path d="M414.304 1091.61C414.304 1091.61 414.42 1092.27 414.498 1093.55C414.498 1094.79 414.575 1096.65 414.885 1099.02C415.389 1103.75 416.824 1110.54 419.887 1118.48C422.912 1126.47 427.526 1135.54 432.14 1145.94C434.427 1151.13 436.676 1156.71 438.343 1162.72C439.972 1168.73 441.058 1175.13 441.562 1181.72C442.57 1194.91 441.562 1207.43 440.631 1218.71C439.662 1230 438.731 1240.19 437.297 1248.69C435.94 1257.18 434.156 1263.96 432.605 1268.5C431.83 1270.79 431.17 1272.53 430.666 1273.69C430.162 1274.86 429.891 1275.44 429.813 1275.44C429.658 1275.36 430.55 1272.88 431.829 1268.27C433.109 1263.65 434.66 1256.91 435.862 1248.45C437.064 1240 437.878 1229.84 438.731 1218.52C439.584 1207.24 440.515 1194.79 439.507 1181.84C439.041 1175.36 437.956 1169.12 436.405 1163.23C434.815 1157.34 432.644 1151.83 430.434 1146.63C425.936 1136.28 421.438 1127.05 418.53 1118.91C415.622 1110.77 414.343 1103.83 414.071 1099.02C413.877 1096.62 413.955 1094.75 414.071 1093.47C414.149 1092.2 414.226 1091.54 414.304 1091.54V1091.61Z" fill="#263238"/>
<path d="M419.655 1061.8C419.966 1061.8 420.276 1067.81 421.633 1077.42C422.951 1087.04 425.549 1100.22 430.279 1114.26C431.481 1117.75 432.683 1121.16 434.002 1124.38C434.312 1125.11 434.622 1126.16 434.971 1126.59C435.436 1127.33 435.902 1128.02 436.367 1128.72C437.259 1130.16 438.112 1131.63 438.848 1133.1C441.873 1138.96 443.269 1144.89 443.23 1149.89C443.23 1154.89 441.95 1158.81 440.942 1161.33C439.701 1163.81 438.926 1165.09 438.81 1165.01C438.267 1164.86 442.067 1159.55 441.834 1149.89C441.679 1145.12 440.244 1139.54 437.259 1133.96C436.522 1132.56 435.669 1131.16 434.777 1129.77C434.312 1129.07 433.847 1128.37 433.381 1127.64C432.722 1126.63 432.606 1125.97 432.218 1125.11C430.861 1121.86 429.62 1118.41 428.418 1114.88C423.649 1100.69 421.245 1087.31 420.276 1077.58C419.733 1072.73 419.617 1068.74 419.539 1066.02C419.539 1063.27 419.578 1061.8 419.733 1061.76L419.655 1061.8Z" fill="#263238"/>
<path d="M424.463 1026.24C424.152 1026.36 422.369 1021.4 418.879 1013.76C415.39 1006.08 409.922 995.804 402.478 985.336C394.995 974.867 387.046 966.337 380.959 960.52C374.871 954.704 370.761 951.409 370.994 951.176C371.071 951.06 372.196 951.796 374.096 953.154C376.034 954.511 378.71 956.682 381.928 959.474C388.326 965.057 396.546 973.548 404.106 984.172C411.629 994.758 416.979 1005.34 420.197 1013.21C421.787 1017.17 422.95 1020.39 423.61 1022.67C424.308 1024.96 424.618 1026.24 424.463 1026.28V1026.24Z" fill="#263238"/>
<path d="M760.553 956.76C760.824 956.799 760.436 960.404 759.739 966.143C759.041 971.92 758.071 979.869 757.141 988.67C756.21 997.472 755.551 1005.46 755.047 1011.24C754.543 1017.01 754.194 1020.62 753.884 1020.58C753.612 1020.58 753.457 1016.98 753.612 1011.16C753.767 1005.34 754.233 997.278 755.125 988.438C756.055 979.597 757.257 971.649 758.304 965.91C759.351 960.172 760.243 956.682 760.514 956.721L760.553 956.76Z" fill="#263238"/>
<path d="M794.248 1056.33C794.287 1056.72 789.13 1057.18 781.181 1059.47C773.272 1061.64 762.609 1066.49 753.846 1075.48C749.503 1079.98 746.169 1084.98 743.416 1089.68C740.857 1094.48 738.841 1098.98 737.406 1102.86C736.747 1104.72 736.088 1106.5 735.506 1108.13C735.079 1109.61 734.653 1110.92 734.265 1112.16C733.567 1114.37 733.102 1115.62 732.986 1115.58C732.831 1115.58 733.025 1114.26 733.529 1111.97C733.8 1110.69 734.11 1109.3 734.42 1107.82C734.924 1106.15 735.467 1104.33 736.049 1102.39C737.328 1098.4 739.228 1093.75 741.749 1088.78C744.463 1083.94 747.875 1078.74 752.373 1074.09C761.446 1064.74 772.651 1059.94 780.755 1058.08C782.81 1057.57 784.671 1057.18 786.299 1056.95C787.928 1056.68 789.363 1056.49 790.526 1056.41C792.852 1056.21 794.171 1056.18 794.171 1056.33H794.248Z" fill="#263238"/>
<path d="M902.89 1164.28C902.89 1164.28 901.843 1162.8 900.254 1159.93C899.44 1158.5 898.509 1156.75 897.578 1154.62C896.609 1152.49 895.446 1150.12 894.438 1147.37C892.189 1141.94 890.056 1135.31 888.195 1127.79C886.45 1120.23 885.016 1111.82 884.395 1102.9C883.853 1093.98 884.124 1085.41 884.861 1077.69C885.714 1069.98 886.954 1063.12 888.428 1057.45C889.048 1054.59 889.901 1052.1 890.599 1049.85C891.258 1047.61 891.956 1045.74 892.538 1044.23C893.701 1041.17 894.438 1039.54 894.554 1039.58C894.942 1039.7 892.344 1046.44 889.824 1057.76C888.544 1063.43 887.458 1070.25 886.722 1077.85C886.101 1085.49 885.869 1093.9 886.45 1102.74C887.071 1111.54 888.428 1119.88 890.056 1127.36C891.801 1134.81 893.778 1141.44 895.833 1146.87C899.866 1157.76 903.317 1164.08 902.968 1164.28H902.89Z" fill="#263238"/>
<path d="M860.239 1135.12C860.239 1135.12 859.58 1133.68 858.727 1130.97C857.913 1128.26 856.943 1124.22 856.284 1119.18C854.927 1109.14 855.199 1094.68 859.929 1079.79C864.582 1064.86 872.685 1052.88 879.742 1045.51C883.387 1041.83 887.381 1039.85 890.405 1039.77C891.878 1039.74 893.003 1040.12 893.701 1040.39C894.36 1040.78 894.709 1041.01 894.67 1041.05C894.593 1041.25 893.197 1040.24 890.482 1040.55C887.768 1040.82 884.162 1042.84 880.789 1046.48C874.159 1053.93 866.404 1065.75 861.868 1080.37C857.215 1094.95 856.711 1109.06 857.719 1118.99C858.688 1128.99 860.627 1134.96 860.239 1135.08V1135.12Z" fill="#263238"/>
<path d="M593.595 1115.81C593.595 1115.81 593.401 1117.48 592.626 1120.42C592.277 1121.9 591.773 1123.68 591.036 1125.7C590.299 1127.71 589.601 1130.08 588.438 1132.52C586.383 1137.56 583.398 1143.3 579.559 1149.35C575.643 1155.36 570.796 1161.64 565.019 1167.57C559.203 1173.47 553.038 1178.43 547.106 1182.5C541.134 1186.45 535.435 1189.6 530.472 1191.73C528.029 1192.93 525.702 1193.71 523.686 1194.48C521.67 1195.26 519.925 1195.8 518.452 1196.19C515.544 1197 513.915 1197.39 513.877 1197.23C513.76 1196.85 520.235 1195.1 529.851 1190.45C534.698 1188.16 540.204 1184.94 546.02 1180.95C551.758 1176.84 557.807 1171.91 563.546 1166.14C569.207 1160.28 574.014 1154.12 577.969 1148.3C581.808 1142.37 584.91 1136.79 587.081 1131.9C591.501 1122.17 593.13 1115.65 593.518 1115.77L593.595 1115.81Z" fill="#263238"/>
<g opacity="0.3">
<path d="M459.321 1154.23C451.876 1127.05 444.432 1099.83 436.987 1072.62C435.901 1068.62 434.079 1063.97 430.008 1063.23C426.247 1062.57 422.757 1066.1 422.059 1069.9C421.361 1073.66 421.478 1078 421.865 1081.84C423.61 1099.56 425.006 1111.58 433.265 1125.31C449.356 1152.06 438.732 1165.05 438.732 1165.05C440.011 1197.62 437.259 1242.06 427.139 1275.52L436.716 1315.88C445.789 1285.87 466.533 1260.86 470.022 1229.69C472.853 1204.29 466.067 1178.89 459.321 1154.23Z" fill="black"/>
</g>
<g opacity="0.3">
<path d="M738.84 1097.04C765.4 1110.85 789.013 1129.92 814.875 1144.7C804.716 1123.56 787.811 1102.66 767.222 1091.46C761.678 1088.43 755.474 1085.84 749.231 1086.69C742.989 1087.58 738.452 1091.11 739.421 1097.35" fill="black"/>
</g>
<g opacity="0.3">
<path d="M891.066 1038.61C881.993 1038.38 875.13 1046.64 870.71 1054.55C858.186 1076.84 852.99 1103.17 856.053 1128.53C856.596 1133.1 858.302 1138.61 862.839 1139.5C866.135 1140.16 869.391 1137.75 870.865 1134.73C872.338 1131.71 872.377 1128.26 872.377 1124.88C872.338 1109.33 871.33 1093.71 873.54 1078.31C875.75 1062.92 881.566 1047.45 893.043 1036.94" fill="black"/>
</g>
<path d="M480.917 1067.73C480.917 1067.73 481.227 1067.65 481.809 1067.61C482.506 1067.57 483.36 1067.5 484.484 1067.42C486.965 1067.3 490.455 1067.11 494.992 1066.88C504.259 1066.45 517.713 1065.83 534.696 1065.05C568.933 1063.58 617.516 1061.53 675.328 1059.08H676.258V1059.97C677.422 1107.28 678.74 1161.68 680.136 1219.33C680.175 1221.27 680.213 1223.21 680.291 1225.11V1226.12H679.283C615.578 1226.82 556.176 1232.09 506.158 1239.03L505.383 1239.15L505.189 1238.41C491.424 1187.77 486.384 1144.11 484.523 1113.68C483.592 1098.44 483.437 1086.42 483.437 1078.28C483.437 1074.2 483.515 1071.06 483.553 1068.93C483.553 1067.92 483.592 1067.15 483.631 1066.53C483.631 1065.98 483.67 1065.71 483.708 1065.71C483.708 1065.71 483.747 1065.98 483.786 1066.53C483.786 1067.15 483.786 1067.92 483.864 1068.93C483.864 1071.14 483.941 1074.24 483.98 1078.24C484.135 1086.42 484.484 1098.4 485.531 1113.6C487.663 1143.96 492.937 1187.46 506.856 1237.95L505.887 1237.33C555.944 1230.19 615.461 1224.8 679.244 1224.1L678.236 1225.15C678.197 1223.25 678.158 1221.31 678.081 1219.37C676.762 1161.76 675.483 1107.32 674.397 1060.01L675.328 1060.91C617.516 1063.08 568.933 1064.86 534.657 1066.14C517.635 1066.72 504.22 1067.15 494.914 1067.46C490.378 1067.57 486.888 1067.69 484.406 1067.73C483.282 1067.73 482.39 1067.73 481.692 1067.73C481.072 1067.73 480.762 1067.73 480.762 1067.73H480.917Z" fill="white"/>
<path d="M532.021 1185.29C531.478 1185.37 526.631 1159.2 521.203 1126.78C515.774 1094.37 511.819 1068 512.362 1067.92C512.905 1067.85 517.752 1094.02 523.18 1126.43C528.609 1158.85 532.563 1185.18 532.021 1185.29Z" fill="white"/>
<path d="M537.875 1235.27C537.332 1235.35 535.393 1225.89 533.532 1214.14C531.71 1202.39 530.663 1192.77 531.206 1192.7C531.749 1192.62 533.687 1202.08 535.548 1213.83C537.371 1225.58 538.418 1235.19 537.875 1235.27Z" fill="white"/>
<path d="M571.259 1159.31C571.259 1159.31 570.755 1158.07 570.174 1155.71C569.592 1153.38 568.855 1149.93 568.041 1145.7C566.413 1137.21 564.59 1125.42 563.272 1112.32C561.954 1099.21 561.45 1087.27 561.372 1078.63C561.333 1074.32 561.372 1070.83 561.488 1068.39C561.566 1065.98 561.721 1064.63 561.837 1064.63C562.147 1064.63 562.341 1069.94 562.807 1078.55C563.272 1087.16 564.009 1099.02 565.288 1112.09C566.606 1125.15 568.196 1136.9 569.476 1145.43C570.716 1153.96 571.569 1159.2 571.259 1159.27V1159.31Z" fill="white"/>
<path d="M566.877 1230.07C566.334 1230.15 564.357 1217.86 562.457 1202.66C560.557 1187.46 559.51 1175.09 560.053 1175.02C560.596 1174.94 562.573 1187.23 564.473 1202.43C566.373 1217.63 567.42 1230 566.877 1230.07Z" fill="white"/>
<path d="M610.693 1226.93C610.693 1226.93 610.266 1224.69 609.917 1220.54C609.53 1216.08 609.026 1210.18 608.405 1203.09C607.126 1188.35 605.226 1168.04 602.667 1145.63C600.069 1123.21 597.316 1102.97 595.222 1088.36C594.214 1081.3 593.361 1075.45 592.741 1071.03C592.159 1066.92 591.926 1064.67 592.043 1064.63C592.198 1064.63 592.702 1066.84 593.516 1070.91C594.33 1074.98 595.416 1080.87 596.618 1088.16C599.1 1102.74 602.085 1122.98 604.683 1145.43C607.242 1167.84 608.909 1188.24 609.84 1203.01C610.305 1210.38 610.577 1216.39 610.732 1220.5C610.848 1224.65 610.887 1226.93 610.732 1226.93H610.693Z" fill="white"/>
<path d="M647.954 1229.03C647.954 1229.03 647.721 1226.7 647.683 1222.51C647.644 1217.98 647.605 1212.01 647.528 1204.79C647.372 1189.83 646.985 1169.12 645.899 1146.32C644.813 1123.49 643.262 1102.86 641.983 1087.93C641.362 1080.72 640.858 1074.79 640.471 1070.25C640.122 1066.06 640.005 1063.77 640.122 1063.74C640.238 1063.7 640.664 1066.02 641.246 1070.17C641.866 1074.32 642.603 1080.33 643.417 1087.78C645.046 1102.66 646.868 1123.33 647.954 1146.21C649.04 1169.08 649.195 1189.79 649.001 1204.79C648.885 1212.28 648.73 1218.37 648.497 1222.55C648.303 1226.74 648.109 1229.07 647.993 1229.07L647.954 1229.03Z" fill="white"/>
<g opacity="0.3">
<path d="M517.054 1197.62C522.948 1201.65 530.353 1203.05 537.488 1202.58C544.622 1202.12 551.524 1199.91 558.115 1197.16C566.84 1193.55 575.37 1188.82 581.574 1181.68C588.243 1174.09 591.849 1164.2 593.399 1154.19C594.989 1144.23 594.679 1134.03 594.408 1123.95C594.408 1123.52 594.408 1123.06 594.097 1122.67C593.632 1122.01 592.546 1122.09 591.887 1122.63C591.228 1123.18 590.996 1123.99 590.724 1124.77C579.208 1158.54 550.283 1185.87 515.93 1195.45" fill="black"/>
</g>
<path d="M493.016 1522.35L469.325 1477.92L416.05 1228.56C416.05 1228.56 367.04 1200.45 326.948 1262.1C325.32 1264.58 382.123 1443.17 397.982 1492.84L400.192 1540.34C400.192 1540.34 397.361 1596.6 400.192 1601.53C403.022 1606.45 410.04 1609.28 410.04 1609.28C410.04 1609.28 407.947 1623.36 424.115 1624.75C424.115 1624.75 425.511 1640.22 437.492 1638.13C449.434 1636.03 453.661 1628.28 453.661 1628.28C453.661 1628.28 453.661 1647.98 464.207 1645.84C474.754 1643.75 476.46 1635.3 478.437 1632.47C480.376 1629.64 482.625 1600.83 482.625 1600.83L482.431 1553.18L509.882 1575.43C517.831 1579.39 529.424 1584.27 536.016 1578.38L493.016 1522.31V1522.35Z" fill="#FFBE9D"/>
<path d="M482.392 1550.85C482.974 1550.77 484.641 1562.29 483.943 1576.52C483.633 1583.11 483.323 1589.12 483.09 1594.62C482.858 1599.24 482.702 1602.11 482.392 1602.15C481.772 1602.15 481.229 1590.59 481.927 1576.48C482.625 1562.36 481.849 1550.97 482.392 1550.89V1550.85Z" fill="#EB996E"/>
<path d="M452.148 1584.04C452.691 1584.04 453.311 1594.59 453.466 1607.57C453.66 1620.6 453.35 1631.15 452.769 1631.15C452.226 1631.15 451.605 1620.6 451.45 1607.61C451.256 1594.59 451.567 1584.04 452.148 1584.04Z" fill="#EB996E"/>
<path d="M426.79 1592.69C427.333 1592.65 428.225 1600.05 427.333 1609.2C426.48 1618.35 424.153 1625.45 423.649 1625.29C423.068 1625.14 424.464 1617.97 425.317 1609.01C426.209 1600.05 426.209 1592.72 426.79 1592.69Z" fill="#EB996E"/>
<path d="M410.467 1587.18C411.01 1587.22 411.01 1592.03 410.428 1597.88C409.847 1603.74 408.916 1608.43 408.373 1608.39C407.83 1608.35 407.83 1603.54 408.412 1597.69C408.993 1591.83 409.924 1587.14 410.467 1587.18Z" fill="#EB996E"/>
<path d="M466.018 639.89L430.346 576.999C446.127 551.37 455.239 521.204 455.239 488.944C455.239 396.081 379.94 320.783 287.077 320.783C194.214 320.783 118.916 396.081 118.916 488.944C118.916 581.807 194.214 657.106 287.077 657.106C325.851 657.106 361.562 643.961 389.983 621.899V621.977L466.018 639.89Z" fill="white"/>
<path d="M466.017 639.89C462.488 639.076 438.371 633.57 389.827 622.481C389.555 622.403 389.4 622.132 389.439 621.899C389.439 621.822 389.478 621.744 389.516 621.705V621.628L390.292 622.326C380.715 629.77 369.199 637.06 355.706 643.186C342.174 649.196 326.703 654.081 309.565 656.369C301.035 657.455 292.117 658.153 282.928 657.726C278.352 657.455 273.7 657.338 268.969 656.951C264.278 656.253 259.547 655.516 254.739 654.818C235.701 651.057 216.237 643.845 198.052 632.562C179.906 621.318 163.078 606.08 149.624 587.352C136.169 568.663 125.972 546.484 121.203 522.367C116.472 498.289 116.86 472.504 123.18 447.534C129.539 422.641 141.443 398.369 159.24 378.362L166.103 370.801C168.352 368.242 171.066 366.148 173.508 363.822C176.068 361.612 178.394 359.13 181.147 357.153L189.212 351.104C191.81 349.01 194.718 347.304 197.587 345.559C200.456 343.815 203.287 342.109 206.117 340.364C209.103 338.929 212.088 337.456 215.035 336.021C218.021 334.625 220.929 332.997 224.069 332.027C248.497 322.334 274.553 318.65 299.484 320.434C324.415 322.218 348.223 329.391 368.695 340.868C389.206 352.306 406.499 367.544 419.876 384.566C433.253 401.587 442.714 420.393 448.569 439.12C454.385 457.925 455.936 476.576 455.897 493.83C455.393 511.123 452.252 527.059 447.677 541.056C443.063 555.053 437.053 567.112 430.81 577.271V576.767C453.338 617.13 464.388 636.866 466.056 639.89C464.35 636.905 453.028 617.285 429.957 577.271C429.88 577.116 429.88 576.922 429.957 576.767C436.084 566.647 442.016 554.627 446.514 540.707C451.011 526.787 454.075 510.968 454.501 493.791C454.501 476.653 452.873 458.197 447.095 439.586C441.241 421.052 431.857 402.479 418.558 385.651C405.297 368.824 388.159 353.779 367.842 342.496C347.602 331.136 324.028 324.118 299.406 322.373C274.785 320.628 249.04 324.273 224.884 333.889C221.782 334.858 218.951 336.486 215.966 337.843C213.019 339.278 210.072 340.713 207.125 342.147C204.334 343.853 201.503 345.559 198.711 347.265C195.881 348.971 193.05 350.639 190.453 352.733L182.465 358.704C179.751 360.642 177.463 363.085 174.943 365.295C172.539 367.583 169.864 369.677 167.615 372.197L160.829 379.68C143.226 399.455 131.478 423.456 125.196 448.038C118.954 472.698 118.527 498.211 123.18 521.979C127.872 545.787 137.953 567.732 151.214 586.266C164.513 604.8 181.108 619.922 199.06 631.089C217.012 642.294 236.283 649.506 255.127 653.267C259.896 654.004 264.588 654.74 269.202 655.438C273.855 655.826 278.469 655.981 283.005 656.253C292.078 656.718 300.957 656.059 309.41 655.012C326.393 652.802 341.786 648.033 355.241 642.139C368.695 636.129 380.133 628.917 389.71 621.589C389.943 621.434 390.253 621.473 390.408 621.667C390.563 621.86 390.525 622.093 390.408 622.287V622.364L390.059 621.589C438.449 633.299 462.527 639.153 466.017 640.006V639.89Z" fill="#263238"/>
<path d="M237.679 456.917C235.198 455.599 232.174 455.134 229.304 454.746C220.348 453.622 212.709 456.142 206.195 463.276C224.419 473.823 249.156 487.82 266.876 497.94L289.248 485.145C273.157 476.265 252.918 465.099 237.679 456.917Z" fill="#278DB4"/>
<g opacity="0.3">
<path d="M237.679 456.917C235.198 455.599 232.174 455.134 229.304 454.746C220.348 453.622 212.709 456.142 206.195 463.276C224.419 473.823 249.156 487.82 266.876 497.94L289.248 485.145C273.157 476.265 252.918 465.099 237.679 456.917Z" fill="black"/>
</g>
<path d="M306.192 521.514C305.61 521.049 305.494 520.933 305.377 520.855C299.794 517.637 293.9 511.511 288.278 511.627C286.146 511.666 283.819 513.527 278.275 516.629C269.047 521.824 253.498 530.936 244.193 536.093C236.244 540.474 226.589 543.77 217.555 540.901C213.174 539.505 209.645 537.062 205.031 533.34C239.656 513.255 272.73 494.101 306.192 474.714C305.649 473.202 305.145 471.768 304.641 470.294C300.531 458.158 304.951 444.781 315.459 437.375C326.044 429.931 340.351 430.474 350.51 438.694C360.397 446.72 363.771 460.523 358.769 472.31C353.728 484.214 341.67 491.154 328.874 489.836C326.664 489.603 324.144 490.224 322.128 491.193C318.289 493.016 314.683 495.381 310.069 498.056C317.863 501.546 323.136 507.129 332.209 506.276C344.771 505.113 355.938 514.225 359.738 526.361C363.46 538.226 359.118 551.137 348.959 558.427C338.723 565.755 324.764 565.6 314.644 558.039C304.68 550.556 300.608 537.489 304.602 525.702C305.067 524.345 305.61 523.026 306.153 521.553L306.192 521.514ZM332.015 474.908C339.886 474.908 346.09 468.704 346.012 460.795C345.935 453.234 339.692 446.991 332.131 446.952C324.493 446.952 317.94 453.505 318.056 461.144C318.173 468.666 324.454 474.869 332.054 474.869L332.015 474.908ZM331.86 548.888C339.382 549.005 345.818 542.84 346.012 535.318C346.206 527.369 340.157 521.049 332.286 520.933C324.687 520.855 318.328 526.865 318.056 534.426C317.785 542.025 324.221 548.772 331.899 548.888H331.86Z" fill="#278DB4"/>
<path d="M294.407 497.474C294.058 497.591 294.213 494.838 291.382 492.783C290.025 491.813 287.893 491.348 285.915 492.124C283.938 492.86 282.232 494.993 282.271 497.436C282.271 499.917 283.938 502.011 285.915 502.748C287.932 503.523 290.064 503.058 291.382 502.088C294.213 500.033 294.058 497.319 294.407 497.397C294.523 497.397 294.717 497.978 294.601 499.103C294.446 500.188 293.864 501.856 292.274 503.213C290.723 504.57 288.009 505.423 285.295 504.454C282.62 503.601 280.216 500.731 280.254 497.397C280.254 494.023 282.62 491.193 285.295 490.34C288.009 489.409 290.723 490.262 292.274 491.581C293.864 492.938 294.484 494.605 294.639 495.691C294.794 496.815 294.562 497.397 294.445 497.397L294.407 497.474Z" fill="#263238"/>
<path d="M319.144 492.55C319.144 492.55 318.446 493.093 317.089 493.907C315.306 494.993 313.406 496.117 311.351 497.397C305.806 500.654 299.331 504.454 292.235 508.641C285.062 512.751 278.587 516.473 273.004 519.653C270.871 520.816 268.932 521.902 267.11 522.91C265.714 523.646 264.939 524.073 264.9 523.995C264.861 523.918 265.598 523.453 266.955 522.638C268.738 521.553 270.638 520.428 272.693 519.149C278.238 515.892 284.674 512.092 291.809 507.904C298.982 503.794 305.457 500.072 311.041 496.893C313.173 495.729 315.112 494.644 316.934 493.636C318.33 492.899 319.105 492.472 319.144 492.55Z" fill="#263238"/>
<path d="M302.315 477.041C302.315 477.041 302.005 477.273 301.385 477.7C300.532 478.204 299.64 478.786 298.593 479.445C295.801 481.151 292.35 483.206 288.279 485.687C279.555 490.922 267.497 498.134 254.003 505.772C240.704 513.333 228.684 520.157 219.456 525.392C215.307 527.718 211.818 529.657 208.948 531.246C207.863 531.828 206.932 532.332 206.079 532.797C205.42 533.146 205.071 533.301 205.032 533.301C204.993 533.301 205.342 533.069 206.002 532.681C206.855 532.177 207.785 531.634 208.793 530.975C211.624 529.308 215.075 527.292 219.185 524.888C228.413 519.576 240.394 512.674 253.616 505.074C267.109 497.436 279.206 490.301 288.008 485.183C292.118 482.818 295.607 480.802 298.438 479.173C299.485 478.592 300.454 478.049 301.307 477.584C301.966 477.235 302.315 477.041 302.315 477.08V477.041Z" fill="#263238"/>
<path d="M579.939 663.98L587.306 677.435L600.76 684.763L587.306 692.13L579.939 705.585L572.572 692.13L559.156 684.763L572.572 677.435L579.939 663.98Z" fill="#278DB4"/>
<path d="M629.104 479.689L636.781 479.185L642.946 474.648L643.45 482.287L647.986 488.452L640.348 488.956L634.183 493.531L633.679 485.854L629.104 479.689Z" fill="#278DB4"/>
<path d="M995.709 708.725L1003.39 708.221L1009.55 703.685L1010.06 711.323L1014.59 717.488L1006.95 717.992L1000.79 722.567L1000.28 714.89L995.709 708.725Z" fill="#278DB4"/>
<path d="M1042.31 381.126L1049.95 380.622L1056.12 376.047L1056.62 383.724L1061.2 389.889L1053.52 390.393L1047.36 394.93L1046.85 387.291L1042.31 381.126Z" fill="#278DB4"/>
<path d="M807.539 584.455L819.171 577.747L825.375 565.805L832.044 577.476L843.986 583.641L832.354 590.348L826.15 602.252L819.443 590.62L807.539 584.455Z" fill="#278DB4"/>
<path d="M1696 1512.61L1707.63 1505.94L1713.8 1494L1720.5 1505.63L1732.45 1511.84L1720.78 1518.5L1714.61 1530.45L1707.9 1518.82L1696 1512.61Z" fill="#278DB4"/>
<path d="M1638 1299.61L1649.67 1292.94L1655.84 1281L1662.54 1292.63L1674.45 1298.84L1662.82 1305.5L1656.65 1317.45L1649.94 1305.82L1638 1299.61Z" fill="#278DB4"/>
<path d="M1269.77 1644.5L1461.05 1646L1462.95 1404.54L1271.67 1403.04L1269.77 1644.5Z" fill="#EBEBEB"/>
<path d="M1388.11 1411.68L1384.68 1645.49L1354.47 1645.24L1360.94 1411.49L1388.11 1411.68Z" fill="#FAFAFA"/>
<path d="M1161.8 1409.92L1271.56 1410.79L1462.84 1412.28L1271.34 1437.47L1269.71 1644.59L1160.04 1643.72L1161.8 1409.92Z" fill="#E0E0E0"/>
<path d="M1221.54 1410.41L1217.19 1644.18L1184.62 1643.91L1189.95 1410.14L1221.54 1410.41Z" fill="#FAFAFA"/>
<path d="M1308.4 1339.25C1308.4 1339.74 1305.17 1340.31 1299.3 1340.91C1293.4 1341.48 1284.87 1342.11 1274.22 1342.02C1263.55 1341.86 1250.89 1341.13 1236.79 1337.11C1234.99 1336.51 1233.15 1335.78 1231.3 1334.66C1229.48 1333.57 1227.63 1332.05 1226.3 1329.93C1224.91 1327.84 1224.32 1325.23 1224.29 1322.93C1224.26 1320.59 1224.64 1318.47 1225.1 1316.51C1226.95 1309.07 1228.85 1301.33 1232.19 1293.53C1233.88 1289.67 1235.92 1285.92 1238.39 1282.5C1240.89 1279.16 1243.69 1275.9 1247.49 1273.51C1249.39 1272.31 1251.51 1271.36 1253.82 1270.9C1256.13 1270.44 1258.57 1270.49 1260.77 1271.04C1265.2 1272.15 1268.52 1274.57 1271.34 1276.82C1282.54 1285.84 1290.71 1296 1296.28 1305.24C1301.85 1314.48 1304.81 1322.76 1306.36 1328.52C1307.86 1334.34 1308.02 1337.65 1307.61 1337.76C1306.42 1338.14 1303.73 1325.04 1292.07 1307.96C1286.23 1299.51 1278.08 1290.19 1267.32 1281.98C1264.69 1279.97 1261.97 1278.23 1259.25 1277.64C1256.59 1277.04 1253.87 1277.64 1251.24 1279.38C1248.6 1281.06 1246.27 1283.72 1244.12 1286.66C1242.03 1289.62 1240.24 1292.88 1238.71 1296.38C1235.7 1303.36 1233.77 1310.94 1231.9 1318.14C1231.03 1321.62 1230.86 1324.5 1232.09 1326.38C1233.25 1328.39 1236 1329.91 1238.96 1330.97C1241.92 1332 1245.26 1332.79 1248.39 1333.47C1251.54 1334.17 1254.61 1334.72 1257.62 1335.18C1263.63 1336.1 1269.31 1336.64 1274.49 1337.03C1284.9 1337.73 1293.4 1337.87 1299.3 1338.17C1305.19 1338.44 1308.45 1338.76 1308.48 1339.25H1308.4Z" fill="#E0E0E0"/>
<path d="M1304.43 1341C1304.35 1340.51 1307.91 1339.47 1314.35 1338.01C1320.79 1336.51 1330.16 1334.61 1341.6 1331.87C1353.01 1329.1 1366.51 1325.46 1380.67 1319.53C1384.2 1318.09 1387.67 1316.46 1390.47 1314.32C1391.86 1313.26 1393 1312.06 1393.62 1310.84C1394.28 1309.62 1394.41 1308.42 1394.17 1306.87C1393.92 1305.35 1393.19 1303.61 1392.32 1301.71C1391.4 1299.78 1390.47 1297.83 1389.55 1295.87C1387.67 1291.99 1385.64 1288.18 1383.3 1284.62C1380.94 1281.06 1378.3 1277.83 1375.29 1275.14C1372.27 1272.43 1368.96 1270.12 1365.56 1268.89C1362.14 1267.62 1358.66 1267.43 1355.48 1268.46C1352.25 1269.44 1349.26 1271.53 1346.46 1273.95C1335.05 1284 1326.3 1294.92 1320.3 1304.78C1314.21 1314.64 1310.74 1323.45 1308.7 1329.64C1306.66 1335.83 1305.85 1339.42 1305.3 1339.34C1304.89 1339.28 1304.76 1335.54 1306.04 1328.93C1307.31 1322.36 1310.19 1312.9 1315.98 1302.28C1321.74 1291.63 1330.38 1279.98 1342.2 1269.06C1345.24 1266.34 1348.85 1263.57 1353.47 1262.05C1358.09 1260.47 1363.39 1260.74 1367.95 1262.4C1370.26 1263.22 1372.41 1264.33 1374.42 1265.63C1376.37 1266.94 1378.27 1268.35 1380.01 1269.95C1383.57 1273.1 1386.61 1276.83 1389.25 1280.77C1391.86 1284.73 1394.03 1288.83 1395.93 1292.85C1396.86 1294.87 1397.81 1296.88 1398.73 1298.86C1399.63 1300.9 1400.63 1303.12 1401.07 1305.81C1401.56 1308.45 1401.15 1311.65 1399.74 1314.13C1398.38 1316.6 1396.5 1318.37 1394.63 1319.75C1390.85 1322.52 1386.91 1324.15 1383.19 1325.62C1368.33 1331.43 1354.39 1334.61 1342.71 1336.81C1331 1338.99 1321.47 1340.1 1314.87 1340.78C1308.26 1341.43 1304.57 1341.51 1304.51 1341.05L1304.43 1341Z" fill="#FAFAFA"/>
<path d="M1127 1409.59L1408.18 1411.8L1408.8 1331.87L1127.63 1329.67L1127 1409.59Z" fill="#E0E0E0"/>
<path d="M1230.41 1410.38L1484.55 1412.37L1485.18 1332.45L1231.04 1330.45L1230.41 1410.38Z" fill="#EBEBEB"/>
<path d="M1407.18 1331.93L1405.39 1412.21L1375.75 1411.61L1377.81 1331.71L1407.18 1331.93Z" fill="#FAFAFA"/>
<path d="M1196.57 1330.67L1193.69 1410.25L1161.12 1409.98L1162.86 1330.02L1196.57 1330.67Z" fill="#FAFAFA"/>
</g>
<defs>
<clipPath id="clip0_119_5887">
<rect width="1741" height="1572" fill="white" transform="translate(20 74)"/>
</clipPath>
</defs>
</svg>
