<svg width="1800" height="1720" viewBox="0 0 1800 1720" fill="none" xmlns="http://www.w3.org/2000/svg">
<g clip-path="url(#clip0_119_6040)">
<path d="M1637.87 605.311H1305.48V951.8H1637.87V605.311Z" fill="#E0E0E0"/>
<path d="M1615.36 605.311H1282.97V951.8H1615.36V605.311Z" fill="#FAFAFA"/>
<path d="M1615.43 951.908H1282.82V605.204H1615.43V951.908ZM1283.04 951.692H1615.22V605.419H1283.04V951.692Z" fill="#E0E0E0"/>
<path d="M1570.66 651.877H1327.62V905.199H1570.66V651.877Z" fill="#FAFAFA"/>
<path d="M1327.63 906.889C1327.81 907.105 1325.5 909.766 1321.62 913.865C1317.74 917.964 1312.27 923.501 1306.16 929.542C1300.05 935.583 1294.44 940.941 1290.27 944.752C1286.13 948.564 1283.43 950.829 1283.25 950.613C1283.04 950.398 1285.34 947.773 1289.22 943.674C1293.11 939.574 1298.57 934.037 1304.72 927.996C1310.83 921.955 1316.48 916.562 1320.61 912.786C1324.75 908.974 1327.41 906.745 1327.59 906.961L1327.63 906.889Z" fill="#E0E0E0"/>
<path d="M1570.66 906.278C1570.88 906.098 1573.54 908.399 1577.64 912.283C1581.74 916.166 1587.28 921.632 1593.32 927.744C1599.36 933.857 1604.72 939.467 1608.53 943.638C1612.34 947.773 1614.6 950.47 1614.39 950.649C1614.17 950.865 1611.55 948.564 1607.45 944.68C1603.35 940.797 1597.81 935.331 1591.77 929.183C1585.73 923.07 1580.37 917.425 1576.56 913.289C1572.75 909.154 1570.52 906.493 1570.74 906.314L1570.66 906.278Z" fill="#E0E0E0"/>
<path d="M1569.98 652.56C1569.8 652.344 1572.1 649.683 1575.99 645.584C1579.87 641.485 1585.33 635.947 1591.45 629.907C1597.56 623.866 1603.17 618.508 1607.34 614.696C1611.48 610.885 1614.14 608.62 1614.35 608.835C1614.57 609.051 1612.27 611.676 1608.38 615.775C1604.5 619.874 1599.03 625.412 1592.89 631.453C1586.77 637.494 1581.13 642.851 1576.99 646.663C1572.86 650.474 1570.2 652.704 1570.02 652.488L1569.98 652.56Z" fill="#E0E0E0"/>
<path d="M1326.98 653.171C1326.76 653.351 1324.1 651.05 1320 647.166C1315.9 643.283 1310.37 637.817 1304.33 631.704C1298.28 625.592 1292.93 619.982 1289.12 615.811C1285.3 611.676 1283.04 608.979 1283.25 608.799C1283.47 608.584 1286.1 610.885 1290.19 614.768C1294.29 618.652 1299.83 624.117 1305.87 630.266C1311.91 636.415 1317.27 642.024 1321.08 646.159C1324.89 650.295 1327.12 652.955 1326.91 653.135L1326.98 653.171Z" fill="#E0E0E0"/>
<path d="M1569.98 905.199C1569.98 905.199 1569.98 904.767 1569.95 903.976C1569.95 903.113 1569.95 901.963 1569.91 900.452C1569.91 897.288 1569.84 892.722 1569.8 886.788C1569.73 874.779 1569.66 857.339 1569.55 835.153C1569.44 790.781 1569.26 727.568 1569.08 651.913L1570.02 652.848C1499.25 652.883 1416.19 652.919 1327.7 652.991L1328.78 651.913C1328.7 744.899 1328.67 831.881 1328.63 905.235L1327.7 904.3C1400.33 904.48 1460.78 904.659 1503.17 904.767C1524.35 904.875 1541 904.947 1552.47 905.019C1558.11 905.055 1562.47 905.091 1565.52 905.127C1566.96 905.127 1568.08 905.163 1568.9 905.163C1569.66 905.163 1570.05 905.163 1570.09 905.199C1570.09 905.199 1569.73 905.199 1569.01 905.235C1568.22 905.235 1567.14 905.235 1565.74 905.271C1562.75 905.271 1558.44 905.343 1552.87 905.379C1541.47 905.451 1524.89 905.522 1503.78 905.63C1461.24 905.738 1400.58 905.918 1327.7 906.098H1326.76V905.163C1326.73 831.809 1326.66 744.827 1326.62 651.841V650.762H1327.7C1416.19 650.798 1499.29 650.87 1570.02 650.906H1570.95V651.841C1570.74 727.783 1570.59 791.177 1570.48 835.693C1570.38 857.771 1570.3 875.174 1570.23 887.112C1570.2 892.973 1570.16 897.468 1570.12 900.596C1570.12 902.071 1570.09 903.185 1570.09 904.012C1570.09 904.767 1570.09 905.163 1570.05 905.127L1569.98 905.199Z" fill="#E0E0E0"/>
<path d="M1489.69 737.995H1408.6V819.08H1489.69V737.995Z" fill="#EBEBEB"/>
<path d="M333.608 1298.97C333.285 1299.37 330.66 1297.79 327.747 1295.45C324.835 1293.11 322.713 1290.88 323.001 1290.49C323.324 1290.09 325.949 1291.67 328.862 1294.01C331.774 1296.35 333.896 1298.58 333.608 1298.97Z" fill="#E0E0E0"/>
<path d="M413.471 1179.66C413.938 1168.52 414.262 1157.08 410.738 1146.48C407.214 1135.87 399.052 1126.16 388.121 1123.89C375.644 1121.3 362.879 1129.18 355.867 1139.82C348.891 1150.47 346.482 1163.41 344.396 1175.96C330.157 1262.58 324.907 1350.64 328.755 1438.34L379.779 1445.5C402.18 1353.92 409.336 1273.84 413.435 1179.66H413.471Z" fill="#EBEBEB"/>
<path d="M381.036 1123.5C381.036 1123.5 381 1123.79 380.82 1124.33C380.604 1124.94 380.317 1125.69 379.993 1126.63C379.166 1128.78 378.016 1131.73 376.577 1135.44C375.858 1137.34 374.923 1139.43 374.168 1141.8C373.413 1144.17 372.586 1146.76 371.687 1149.53C370.788 1152.3 369.853 1155.28 368.81 1158.41C367.983 1161.61 367.084 1164.99 366.185 1168.52C362.338 1182.65 359.138 1199.87 356.333 1219.04C353.564 1238.24 351.766 1259.49 350.328 1281.82C347.703 1326.55 347.308 1367.15 346.157 1396.49C345.618 1411.16 345.114 1423.06 344.539 1431.22C344.287 1435.22 344.071 1438.34 343.892 1440.65C343.82 1441.62 343.748 1442.44 343.676 1443.09C343.604 1443.63 343.568 1443.92 343.532 1443.92C343.532 1443.92 343.496 1443.63 343.496 1443.09C343.496 1442.44 343.496 1441.62 343.496 1440.65C343.568 1438.34 343.676 1435.18 343.784 1431.19C344.143 1422.99 344.431 1411.12 344.827 1396.42C345.654 1367.08 345.833 1326.48 348.458 1281.68C349.897 1259.31 351.766 1237.99 354.607 1218.75C357.52 1199.55 360.864 1182.29 364.891 1168.16C365.862 1164.6 366.797 1161.25 367.66 1158.05C368.738 1154.93 369.709 1151.98 370.68 1149.17C371.615 1146.4 372.514 1143.85 373.305 1141.48C374.132 1139.1 375.103 1137.05 375.894 1135.15C377.476 1131.48 378.699 1128.57 379.634 1126.45C380.029 1125.55 380.389 1124.79 380.64 1124.22C380.892 1123.71 381 1123.46 381.036 1123.46V1123.5Z" fill="#E0E0E0"/>
<path d="M385.783 1123.5C385.783 1123.5 388.911 1126.7 392.003 1134.07C395.203 1141.37 397.217 1152.95 396.642 1167.08C395.275 1195.27 392.758 1234.14 389.414 1277.04C386.034 1319.94 382.295 1358.73 379.274 1386.78C377.764 1400.8 376.469 1412.13 375.499 1419.97C374.995 1423.75 374.636 1426.77 374.348 1429C374.204 1429.93 374.096 1430.69 373.988 1431.33C373.916 1431.87 373.845 1432.12 373.809 1432.12C373.809 1432.12 373.809 1431.84 373.809 1431.3C373.845 1430.65 373.916 1429.89 373.988 1428.92C374.204 1426.69 374.456 1423.67 374.815 1419.86C375.571 1411.84 376.685 1400.52 378.016 1386.64C380.712 1358.55 384.236 1319.79 387.616 1276.86C390.96 1234 393.693 1195.09 395.383 1166.97C396.102 1152.91 394.304 1141.55 391.356 1134.25C388.515 1126.91 385.567 1123.57 385.783 1123.43V1123.5Z" fill="#E0E0E0"/>
<path d="M421.166 1255.61C420.986 1256.07 416.671 1254.96 411.493 1253.09C406.315 1251.22 402.252 1249.35 402.432 1248.88C402.611 1248.42 406.926 1249.53 412.104 1251.4C417.282 1253.27 421.345 1255.14 421.166 1255.61Z" fill="#E0E0E0"/>
<path d="M427.314 1203.61C427.53 1204.08 423.395 1206.34 418.109 1208.72C412.823 1211.09 408.364 1212.64 408.149 1212.17C407.933 1211.7 412.068 1209.44 417.354 1207.06C422.64 1204.69 427.098 1203.14 427.314 1203.61Z" fill="#E0E0E0"/>
<path d="M424.114 1161.15C424.114 1161.65 420.662 1161.83 416.491 1161.54C412.32 1161.25 408.976 1160.61 409.012 1160.1C409.012 1159.6 412.464 1159.42 416.635 1159.71C420.806 1160 424.15 1160.64 424.114 1161.15Z" fill="#E0E0E0"/>
<path d="M371.436 1133.93C371.005 1134.18 368.776 1131.41 366.438 1127.71C364.101 1124 362.555 1120.77 362.986 1120.51C363.418 1120.26 365.647 1123.03 367.984 1126.73C370.322 1130.44 371.868 1133.67 371.436 1133.93Z" fill="#E0E0E0"/>
<path d="M354.032 1159.6C354.032 1160.1 350.76 1160.43 346.769 1160.35C342.777 1160.28 339.541 1159.78 339.541 1159.28C339.541 1158.77 342.813 1158.45 346.804 1158.52C350.796 1158.59 354.032 1159.1 354.032 1159.6Z" fill="#E0E0E0"/>
<path d="M341.555 1210.98C341.375 1211.45 337.959 1210.52 333.932 1208.9C329.904 1207.28 326.812 1205.59 326.992 1205.12C327.172 1204.65 330.588 1205.59 334.615 1207.21C338.642 1208.83 341.734 1210.52 341.555 1210.98Z" fill="#E0E0E0"/>
<path d="M340.225 1254.17C340.333 1254.67 337.42 1255.68 333.717 1256.47C330.013 1257.26 326.956 1257.48 326.849 1256.97C326.741 1256.47 329.653 1255.46 333.357 1254.67C337.061 1253.88 340.117 1253.67 340.225 1254.17Z" fill="#E0E0E0"/>
<path d="M334.328 1324.83C334.4 1325.33 331.343 1326.3 327.424 1326.98C323.541 1327.67 320.304 1327.85 320.197 1327.34C320.125 1326.84 323.181 1325.87 327.1 1325.19C330.984 1324.5 334.22 1324.32 334.328 1324.83Z" fill="#E0E0E0"/>
<path d="M330.408 1363.84C330.66 1364.27 328.071 1366.11 324.655 1367.9C321.239 1369.7 318.29 1370.82 318.038 1370.35C317.787 1369.92 320.376 1368.08 323.792 1366.28C327.208 1364.49 330.156 1363.37 330.408 1363.84Z" fill="#E0E0E0"/>
<path d="M362.267 1408.1C361.836 1408.36 359.57 1405.26 357.269 1401.2C354.932 1397.14 353.385 1393.61 353.853 1393.36C354.284 1393.11 356.55 1396.2 358.851 1400.26C361.188 1404.33 362.699 1407.85 362.267 1408.1Z" fill="#E0E0E0"/>
<path d="M371.472 1334.53C371.831 1334.89 369.314 1337.91 365.898 1341.29C362.446 1344.67 359.39 1347.08 359.03 1346.72C358.671 1346.36 361.188 1343.34 364.604 1339.96C368.02 1336.58 371.112 1334.17 371.472 1334.53Z" fill="#E0E0E0"/>
<path d="M369.422 1295.95C369.063 1296.31 366.726 1294.41 364.244 1291.71C361.763 1289.01 360.037 1286.57 360.397 1286.21C360.757 1285.85 363.094 1287.75 365.575 1290.45C368.056 1293.15 369.782 1295.59 369.422 1295.95Z" fill="#E0E0E0"/>
<path d="M375.751 1246.62C376.11 1246.94 374.061 1249.89 371.112 1253.16C368.164 1256.43 365.467 1258.84 365.107 1258.52C364.748 1258.2 366.797 1255.25 369.746 1251.98C372.694 1248.7 375.391 1246.29 375.751 1246.62Z" fill="#E0E0E0"/>
<path d="M379.311 1210.8C378.951 1211.16 376.039 1208.86 372.838 1205.7C369.602 1202.53 367.265 1199.66 367.624 1199.3C367.984 1198.94 370.897 1201.2 374.133 1204.4C377.369 1207.57 379.706 1210.44 379.347 1210.8H379.311Z" fill="#E0E0E0"/>
<path d="M386.287 1162.44C386.718 1162.69 385.244 1165.93 383.014 1169.67C380.785 1173.41 378.628 1176.25 378.196 1175.96C377.765 1175.71 379.239 1172.47 381.468 1168.73C383.698 1164.99 385.855 1162.15 386.287 1162.44Z" fill="#E0E0E0"/>
<path d="M399.446 1117.6C399.878 1117.85 398.584 1121.09 396.57 1124.86C394.52 1128.64 392.543 1131.48 392.075 1131.27C391.644 1131.01 392.938 1127.78 394.952 1124C397.001 1120.23 398.979 1117.39 399.446 1117.6Z" fill="#E0E0E0"/>
<path d="M414.37 1137.95C414.585 1138.42 412.536 1139.82 409.803 1141.15C407.07 1142.45 404.661 1143.17 404.445 1142.7C404.23 1142.23 406.279 1140.83 409.012 1139.5C411.745 1138.21 414.154 1137.49 414.37 1137.95Z" fill="#E0E0E0"/>
<path d="M414.729 1299.01C414.621 1299.48 409.983 1298.83 404.733 1296.6C399.483 1294.37 395.815 1291.46 396.067 1291.06C396.355 1290.63 400.346 1292.75 405.452 1294.91C410.522 1297.1 414.837 1298.5 414.729 1299.01Z" fill="#E0E0E0"/>
<path d="M408.616 1333.1C408.724 1333.6 405.631 1334.61 401.748 1335.36C397.864 1336.12 394.628 1336.33 394.52 1335.83C394.412 1335.33 397.505 1334.32 401.388 1333.56C405.272 1332.81 408.508 1332.59 408.616 1333.1Z" fill="#E0E0E0"/>
<path d="M401.136 1391.6C400.849 1391.99 396.929 1389.3 393.369 1384.77C389.774 1380.24 388.048 1375.85 388.479 1375.63C388.947 1375.38 391.32 1379.27 394.772 1383.62C398.224 1387.97 401.46 1391.17 401.1 1391.56L401.136 1391.6Z" fill="#E0E0E0"/>
<path d="M319.082 1418.32C318.758 1417.92 320.844 1415.62 323.72 1413.14C326.597 1410.66 329.222 1408.97 329.546 1409.36C329.869 1409.76 327.784 1412.06 324.907 1414.54C322.03 1417.02 319.406 1418.71 319.082 1418.32Z" fill="#E0E0E0"/>
<path d="M295.494 1290.7C292.186 1280.35 285.93 1268.23 275.034 1268.08C268.562 1267.98 262.773 1272.61 259.716 1278.33C256.66 1284.05 255.401 1290.67 255.581 1297.1C256.84 1339.78 264.211 1388.58 278.99 1433.06H318.831C318.327 1383.69 310.525 1337.73 295.458 1290.7H295.494Z" fill="#EBEBEB"/>
<path d="M223.433 1225.4C217.86 1203.11 201.247 1191.1 181.938 1189.98C164.319 1193.08 157.487 1210.41 155.401 1228.17C153.316 1245.93 158.817 1263.63 164.283 1280.63C181.758 1335.33 199.27 1390.02 216.745 1444.71C233.286 1442.91 249.79 1441.11 266.331 1439.28C250.653 1366 241.628 1298.07 223.469 1225.4H223.433Z" fill="#EBEBEB"/>
<path d="M275.033 1268.05C275.033 1268.05 273.415 1269.85 271.653 1273.69C269.927 1277.58 269.1 1283.73 269.783 1291.31C270.538 1298.9 271.437 1308 272.696 1317.99C273.99 1328.03 275.788 1338.96 278.054 1350.43C282.548 1373.33 287.618 1393.86 290.854 1408.82C292.473 1416.3 293.731 1422.38 294.486 1426.59C294.81 1428.53 295.097 1430.15 295.313 1431.44C295.493 1432.55 295.529 1433.13 295.493 1433.17C295.421 1433.17 295.241 1432.63 294.954 1431.51C294.63 1430.22 294.234 1428.64 293.803 1426.73C292.76 1422.31 291.322 1416.34 289.596 1409.11C286.072 1394.22 280.786 1373.73 276.256 1350.75C274.026 1339.28 272.264 1328.24 271.042 1318.17C270.395 1313.14 269.999 1308.36 269.567 1303.86C269.208 1299.4 268.704 1295.23 268.489 1291.38C267.949 1283.69 268.992 1277.29 271.006 1273.37C273.019 1269.49 275.033 1268.01 275.033 1268.01V1268.05Z" fill="#E0E0E0"/>
<path d="M182.659 1188.55C182.659 1188.55 180.034 1191.06 176.654 1196.6C173.31 1202.07 169.75 1210.98 169.103 1222.53C168.348 1234.07 170.901 1247.77 175.252 1262.44C179.603 1277.18 184.385 1293.4 189.383 1310.37C199.271 1344.35 208.225 1375.09 214.769 1397.6C217.898 1408.64 220.451 1417.63 222.248 1424.1C223.04 1427.09 223.687 1429.5 224.19 1431.33C224.622 1432.99 224.801 1433.89 224.765 1433.89C224.694 1433.89 224.406 1433.06 223.867 1431.44C223.291 1429.64 222.536 1427.27 221.601 1424.32C219.66 1417.92 216.927 1408.97 213.547 1398C206.859 1375.56 197.761 1344.85 187.657 1310.95C182.695 1293.94 177.949 1277.72 173.634 1262.94C169.391 1248.16 166.874 1234.25 167.844 1222.49C168.671 1210.73 172.483 1201.71 176.079 1196.24C179.675 1190.74 182.659 1188.58 182.659 1188.58V1188.55Z" fill="#E0E0E0"/>
<path d="M255.508 1433.99C255.508 1433.99 255.076 1433.2 254.393 1431.62C253.746 1430.04 252.703 1427.7 251.552 1424.64C249.179 1418.57 246.159 1409.58 243.03 1398.32C239.866 1387.07 236.774 1373.48 233.789 1358.34C230.913 1343.16 227.748 1326.52 224.44 1309C220.988 1291.56 217.141 1275.02 212.682 1260.32C208.223 1245.57 203.261 1232.63 198.227 1222.13C193.229 1211.63 188.447 1203.47 184.851 1198.04C183.161 1195.27 181.579 1193.26 180.68 1191.82C179.709 1190.38 179.241 1189.62 179.277 1189.59C179.313 1189.55 179.889 1190.24 180.967 1191.6C181.974 1192.97 183.628 1194.95 185.426 1197.64C189.202 1202.96 194.2 1211.06 199.378 1221.56C204.592 1232.05 209.734 1245.04 214.264 1259.81C218.831 1274.59 222.714 1291.17 226.202 1308.64C229.474 1326.16 232.567 1342.8 235.407 1357.98C238.32 1373.12 241.268 1386.67 244.253 1397.96C247.201 1409.22 250.042 1418.24 252.2 1424.39C253.206 1427.48 254.141 1429.86 254.681 1431.48C255.256 1433.09 255.508 1433.96 255.472 1433.99H255.508Z" fill="#E0E0E0"/>
<path d="M165.146 1272.44C165.254 1272.94 162.558 1273.98 159.106 1274.84C155.654 1275.67 152.777 1275.96 152.669 1275.46C152.561 1274.95 155.258 1273.91 158.71 1273.05C162.162 1272.22 165.039 1271.93 165.146 1272.44Z" fill="#E0E0E0"/>
<path d="M159.897 1238.6C159.897 1239.1 156.121 1239.32 151.519 1239.5C146.916 1239.68 143.176 1239.75 143.105 1239.25C143.033 1238.74 146.772 1237.84 151.447 1237.66C156.121 1237.48 159.897 1238.1 159.897 1238.6Z" fill="#E0E0E0"/>
<path d="M165.506 1207.71C165.183 1208.11 162.486 1206.34 159.501 1203.79C156.517 1201.24 154.324 1198.87 154.683 1198.51C155.043 1198.15 157.704 1199.87 160.688 1202.43C163.673 1204.98 165.866 1207.35 165.506 1207.71Z" fill="#E0E0E0"/>
<path d="M180.608 1179.09C181.112 1179.2 180.968 1181.61 180.896 1184.52C180.788 1187.43 180.788 1189.84 180.285 1189.91C179.817 1190.02 178.954 1187.57 179.062 1184.45C179.134 1181.32 180.105 1178.95 180.608 1179.05V1179.09Z" fill="#E0E0E0"/>
<path d="M211.533 1192.57C211.928 1192.86 210.741 1195.31 208.836 1198.04C206.93 1200.77 205.06 1202.75 204.629 1202.46C204.233 1202.17 205.42 1199.73 207.326 1197C209.231 1194.26 211.101 1192.29 211.533 1192.57Z" fill="#E0E0E0"/>
<path d="M231.561 1227.42C231.741 1227.88 229.188 1229.36 225.844 1230.72C222.5 1232.09 219.623 1232.81 219.407 1232.34C219.228 1231.87 221.781 1230.4 225.125 1229.03C228.469 1227.67 231.345 1226.95 231.561 1227.42Z" fill="#E0E0E0"/>
<path d="M243.751 1263.27C243.967 1263.7 240.551 1265.64 235.876 1266.68C231.202 1267.76 227.318 1267.47 227.318 1266.97C227.318 1266.47 231.022 1265.93 235.481 1264.88C239.94 1263.88 243.535 1262.76 243.751 1263.23V1263.27Z" fill="#E0E0E0"/>
<path d="M187.872 1253.09C187.405 1252.95 187.728 1250.46 188.663 1247.55C189.562 1244.64 190.713 1242.41 191.18 1242.55C191.648 1242.7 191.324 1245.18 190.389 1248.09C189.49 1251 188.34 1253.23 187.872 1253.09Z" fill="#E0E0E0"/>
<path d="M195.675 1298.07C195.208 1297.86 196.214 1294.55 197.904 1290.63C199.594 1286.71 201.356 1283.69 201.824 1283.91C202.291 1284.12 201.284 1287.43 199.594 1291.35C197.904 1295.27 196.143 1298.29 195.675 1298.07Z" fill="#E0E0E0"/>
<path d="M176.438 1310.41C176.258 1310.87 173.094 1310.01 169.282 1308.82C165.471 1307.64 162.414 1306.56 162.522 1306.06C162.63 1305.55 165.938 1305.88 169.822 1307.1C173.705 1308.32 176.618 1309.94 176.402 1310.41H176.438Z" fill="#E0E0E0"/>
<path d="M187.513 1347.08C187.801 1347.48 185.679 1349.49 182.766 1351.58C179.854 1353.66 177.265 1354.99 176.977 1354.6C176.69 1354.2 178.811 1352.19 181.724 1350.1C184.636 1348.02 187.225 1346.69 187.513 1347.08Z" fill="#E0E0E0"/>
<path d="M196.43 1383.69C196.538 1384.19 193.913 1385.23 190.569 1386.06C187.225 1386.89 184.385 1387.14 184.277 1386.67C184.169 1386.17 186.794 1385.13 190.138 1384.3C193.482 1383.47 196.322 1383.22 196.43 1383.69Z" fill="#E0E0E0"/>
<path d="M244.722 1293.83C244.974 1294.26 242.744 1296.06 239.472 1297.28C236.2 1298.5 233.323 1298.65 233.251 1298.18C233.143 1297.68 235.732 1296.78 238.825 1295.59C241.917 1294.44 244.47 1293.4 244.722 1293.87V1293.83Z" fill="#E0E0E0"/>
<path d="M251.624 1350.75C251.409 1351.22 248.748 1350.39 245.655 1348.95C242.563 1347.52 240.226 1345.97 240.442 1345.5C240.657 1345.03 243.318 1345.86 246.411 1347.3C249.503 1348.74 251.84 1350.28 251.624 1350.75Z" fill="#E0E0E0"/>
<path d="M263.815 1391.46C263.635 1391.92 260.112 1390.99 255.905 1389.33C251.733 1387.68 248.497 1385.99 248.677 1385.52C248.857 1385.05 252.381 1385.99 256.588 1387.64C260.759 1389.26 263.995 1390.99 263.815 1391.46Z" fill="#E0E0E0"/>
<path d="M198.371 1423.39C198.119 1422.92 201.392 1420.72 205.131 1417.78C208.907 1414.83 211.783 1412.2 212.179 1412.53C212.538 1412.85 210.165 1416.12 206.246 1419.21C202.362 1422.31 198.587 1423.82 198.371 1423.39Z" fill="#E0E0E0"/>
<path d="M230.589 1402.67C230.086 1402.75 229.367 1400.01 228.144 1396.81C226.921 1393.61 225.591 1391.13 226.023 1390.81C226.418 1390.52 228.504 1392.71 229.834 1396.13C231.164 1399.55 231.093 1402.6 230.589 1402.64V1402.67Z" fill="#E0E0E0"/>
<path d="M222.031 1353.66C221.743 1354.06 219.658 1353.09 217.393 1351.43C215.127 1349.82 213.509 1348.16 213.797 1347.73C214.084 1347.34 216.17 1348.31 218.435 1349.96C220.701 1351.58 222.319 1353.23 222.031 1353.66Z" fill="#E0E0E0"/>
<path d="M297.111 1276.93C297.398 1277.33 295.385 1279.34 292.58 1281.39C289.775 1283.44 287.258 1284.8 286.971 1284.41C286.683 1284.01 288.697 1282 291.501 1279.95C294.306 1277.9 296.823 1276.53 297.111 1276.93Z" fill="#E0E0E0"/>
<path d="M308.439 1307.85C308.475 1308.36 305.311 1309 301.391 1308.57C297.472 1308.14 294.523 1306.81 294.667 1306.38C294.811 1305.88 297.867 1306.38 301.607 1306.77C305.347 1307.21 308.439 1307.35 308.475 1307.85H308.439Z" fill="#E0E0E0"/>
<path d="M259.788 1314.79C259.895 1315.26 256.947 1316.34 253.171 1316.59C249.36 1316.84 246.339 1316.2 246.375 1315.69C246.411 1315.19 249.396 1315.01 253.063 1314.76C256.695 1314.51 259.716 1314.29 259.824 1314.79H259.788Z" fill="#E0E0E0"/>
<path d="M263.958 1285.52C263.958 1285.99 260.938 1286.1 257.701 1284.59C254.429 1283.11 252.559 1280.81 252.919 1280.45C253.279 1280.06 255.508 1281.57 258.456 1282.93C261.405 1284.3 264.03 1285.02 263.958 1285.52Z" fill="#E0E0E0"/>
<path d="M312.609 1341.04C312.357 1341.47 309.301 1340.04 305.813 1337.84C302.325 1335.65 299.736 1333.53 299.988 1333.1C300.239 1332.66 303.296 1334.1 306.784 1336.3C310.272 1338.49 312.86 1340.61 312.609 1341.04Z" fill="#E0E0E0"/>
<path d="M431.27 1427.84H171.799V1473.83H431.27V1427.84Z" fill="#E0E0E0"/>
<path d="M191.18 1464.7L222.715 1602.13H377.369L411.888 1464.7H191.18Z" fill="#E0E0E0"/>
<path d="M431.126 1473.87C431.126 1474.37 372.586 1474.77 300.419 1474.77C228.252 1474.77 169.713 1474.37 169.713 1473.87C169.713 1473.37 228.216 1472.97 300.419 1472.97C372.622 1472.97 431.126 1473.37 431.126 1473.87Z" fill="#EBEBEB"/>
<path d="M286.827 1315.8C286.395 1316.05 284.633 1314 282.871 1311.2C281.109 1308.39 280.031 1305.88 280.462 1305.62C280.894 1305.37 282.656 1307.42 284.418 1310.23C286.179 1313.03 287.258 1315.55 286.827 1315.8Z" fill="#E0E0E0"/>
<path d="M286.899 1352.8C286.432 1352.66 287.043 1349.53 288.266 1345.82C289.488 1342.12 290.891 1339.24 291.358 1339.42C291.825 1339.6 291.214 1342.7 289.992 1346.4C288.769 1350.1 287.367 1352.98 286.899 1352.8Z" fill="#E0E0E0"/>
<path d="M299.592 1391.64C299.125 1391.85 297.183 1388.76 295.277 1384.7C293.336 1380.63 292.149 1377.18 292.581 1376.96C293.048 1376.75 294.99 1379.84 296.896 1383.9C298.837 1387.97 300.024 1391.42 299.592 1391.64Z" fill="#E0E0E0"/>
<path d="M272.193 1422.88C271.797 1422.56 273.343 1420.15 275.645 1417.52C277.946 1414.9 280.103 1413.03 280.463 1413.35C280.858 1413.68 279.312 1416.09 277.011 1418.71C274.71 1421.34 272.552 1423.21 272.193 1422.88Z" fill="#E0E0E0"/>
<path d="M266.44 1366.14C266.368 1366.64 263.851 1366.61 260.867 1366.07C257.882 1365.53 255.509 1364.7 255.617 1364.2C255.689 1363.7 258.206 1363.73 261.19 1364.27C264.175 1364.81 266.548 1365.64 266.44 1366.14Z" fill="#E0E0E0"/>
<path d="M1487.39 150.81L1445.96 151.034L1447.08 357.141L1488.5 356.917L1487.39 150.81Z" fill="#E0E0E0"/>
<path d="M1194.34 151.318L1087.08 151.898L1087.69 265.703L1194.95 265.123L1194.34 151.318Z" fill="#EBEBEB"/>
<path d="M1301.13 150.776L1193.87 151.357L1194.48 265.161L1301.75 264.581L1301.13 150.776Z" fill="#F5F5F5"/>
<path d="M1087.25 183.383C1158.52 183.959 1230 183.563 1301.27 182.413C1302.74 182.413 1302.74 180.147 1301.27 180.147C1230 179.752 1158.52 180.111 1087.25 181.442C1085.99 181.442 1085.99 183.383 1087.25 183.383Z" fill="#E0E0E0"/>
<path d="M1215.12 263.249L1020.23 264.303L1020.73 357.037L1215.62 355.982L1215.12 263.249Z" fill="#EBEBEB"/>
<path d="M1409.06 262.199L1214.18 263.254L1214.68 355.987L1409.57 354.933L1409.06 262.199Z" fill="#F5F5F5"/>
<path d="M1020.37 290.106C1149.85 291.58 1279.76 290.25 1409.21 288.2C1410.69 288.2 1410.69 285.935 1409.21 285.935C1279.73 285.252 1149.81 285.324 1020.37 288.164C1019.11 288.164 1019.11 290.106 1020.37 290.106Z" fill="#E0E0E0"/>
<path d="M1702.52 357.059H947.48V390.284H1702.52V357.059Z" fill="#E0E0E0"/>
<path d="M1101.74 373.025H1071.1V486.363H1101.74V373.025Z" fill="#E0E0E0"/>
<path d="M1559.26 373.025H1528.63V486.363H1559.26V373.025Z" fill="#E0E0E0"/>
<path d="M1527.78 73.9295L1486.36 74.1536L1487.89 357.64L1529.32 357.416L1527.78 73.9295Z" fill="#EBEBEB"/>
<path d="M1592.54 126.689L1528.18 127.037L1529.42 356.768L1593.78 356.419L1592.54 126.689Z" fill="#F5F5F5"/>
<path d="M1592.06 171.014C1592.06 171.625 1577.64 172.129 1559.88 172.129C1542.11 172.129 1527.7 171.625 1527.7 171.014C1527.7 170.403 1542.11 169.899 1559.88 169.899C1577.64 169.899 1592.06 170.403 1592.06 171.014Z" fill="#E0E0E0"/>
<path d="M1592.06 161.377C1592.06 161.989 1577.64 162.492 1559.88 162.492C1542.11 162.492 1527.7 161.989 1527.7 161.377C1527.7 160.766 1542.11 160.263 1559.88 160.263C1577.64 160.263 1592.06 160.766 1592.06 161.377Z" fill="#E0E0E0"/>
<path d="M1592.06 321.929C1592.06 322.54 1577.64 323.043 1559.88 323.043C1542.11 323.043 1527.7 322.54 1527.7 321.929C1527.7 321.317 1542.11 320.814 1559.88 320.814C1577.64 320.814 1592.06 321.317 1592.06 321.929Z" fill="#E0E0E0"/>
<path d="M1592.06 312.292C1592.06 312.903 1577.64 313.407 1559.88 313.407C1542.11 313.407 1527.7 312.903 1527.7 312.292C1527.7 311.681 1542.11 311.177 1559.88 311.177C1577.64 311.177 1592.06 311.681 1592.06 312.292Z" fill="#E0E0E0"/>
<path d="M1560.92 291.221C1560.31 291.221 1559.8 268.028 1559.8 239.442C1559.8 210.855 1560.31 187.662 1560.92 187.662C1561.53 187.662 1562.03 210.819 1562.03 239.442C1562.03 268.064 1561.53 291.221 1560.92 291.221Z" fill="#E0E0E0"/>
<path d="M1662.82 183.168H1592.78V356.556H1662.82V183.168Z" fill="#EBEBEB"/>
<path d="M1518.38 122.399C1518.38 128.979 1513.06 134.301 1506.48 134.301C1499.9 134.301 1494.58 128.979 1494.58 122.399C1494.58 115.819 1499.9 110.497 1506.48 110.497C1513.06 110.497 1518.38 115.819 1518.38 122.399Z" fill="#E0E0E0"/>
<path d="M1510.15 155.157H1502.78V323.798H1510.15V155.157Z" fill="#E0E0E0"/>
<path d="M901.634 205.282H429.652V677.263H901.634V205.282Z" fill="#F5F5F5"/>
<path d="M513.542 648.065C513.182 648.065 512.895 556.481 512.895 443.538C512.895 330.594 513.182 239.01 513.542 239.01C513.901 239.01 514.189 330.558 514.189 443.538C514.189 556.517 513.901 648.065 513.542 648.065Z" fill="#E0E0E0"/>
<path d="M499.625 274.177C499.625 274.536 494.627 274.824 488.443 274.824C482.258 274.824 477.26 274.536 477.26 274.177C477.26 273.817 482.258 273.529 488.443 273.529C494.627 273.529 499.625 273.817 499.625 274.177Z" fill="#E0E0E0"/>
<path d="M500.489 252.171C500.489 252.53 495.491 252.818 489.306 252.818C483.121 252.818 478.123 252.53 478.123 252.171C478.123 251.811 483.121 251.523 489.306 251.523C495.491 251.523 500.489 251.811 500.489 252.171Z" fill="#E0E0E0"/>
<path d="M499.625 297.873C499.625 298.232 494.627 298.52 488.443 298.52C482.258 298.52 477.26 298.232 477.26 297.873C477.26 297.513 482.258 297.226 488.443 297.226C494.627 297.226 499.625 297.513 499.625 297.873Z" fill="#E0E0E0"/>
<path d="M499.625 321.569C499.625 321.929 494.627 322.216 488.443 322.216C482.258 322.216 477.26 321.929 477.26 321.569C477.26 321.209 482.258 320.922 488.443 320.922C494.627 320.922 499.625 321.209 499.625 321.569Z" fill="#E0E0E0"/>
<path d="M499.625 345.265C499.625 345.625 494.627 345.912 488.443 345.912C482.258 345.912 477.26 345.625 477.26 345.265C477.26 344.906 482.258 344.618 488.443 344.618C494.627 344.618 499.625 344.906 499.625 345.265Z" fill="#E0E0E0"/>
<path d="M499.625 368.997C499.625 369.357 494.627 369.644 488.443 369.644C482.258 369.644 477.26 369.357 477.26 368.997C477.26 368.638 482.258 368.35 488.443 368.35C494.627 368.35 499.625 368.638 499.625 368.997Z" fill="#E0E0E0"/>
<path d="M499.625 392.693C499.625 393.053 494.627 393.341 488.443 393.341C482.258 393.341 477.26 393.053 477.26 392.693C477.26 392.334 482.258 392.046 488.443 392.046C494.627 392.046 499.625 392.334 499.625 392.693Z" fill="#E0E0E0"/>
<path d="M499.625 416.389C499.625 416.749 494.627 417.037 488.443 417.037C482.258 417.037 477.26 416.749 477.26 416.389C477.26 416.03 482.258 415.742 488.443 415.742C494.627 415.742 499.625 416.03 499.625 416.389Z" fill="#E0E0E0"/>
<path d="M499.625 440.122C499.625 440.481 494.627 440.769 488.443 440.769C482.258 440.769 477.26 440.481 477.26 440.122C477.26 439.762 482.258 439.474 488.443 439.474C494.627 439.474 499.625 439.762 499.625 440.122Z" fill="#E0E0E0"/>
<path d="M499.625 463.818C499.625 464.177 494.627 464.465 488.443 464.465C482.258 464.465 477.26 464.177 477.26 463.818C477.26 463.458 482.258 463.171 488.443 463.171C494.627 463.171 499.625 463.458 499.625 463.818Z" fill="#E0E0E0"/>
<path d="M499.625 487.514C499.625 487.873 494.627 488.161 488.443 488.161C482.258 488.161 477.26 487.873 477.26 487.514C477.26 487.154 482.258 486.867 488.443 486.867C494.627 486.867 499.625 487.154 499.625 487.514Z" fill="#E0E0E0"/>
<path d="M499.625 511.21C499.625 511.57 494.627 511.857 488.443 511.857C482.258 511.857 477.26 511.57 477.26 511.21C477.26 510.85 482.258 510.563 488.443 510.563C494.627 510.563 499.625 510.85 499.625 511.21Z" fill="#E0E0E0"/>
<path d="M499.625 534.942C499.625 535.302 494.627 535.589 488.443 535.589C482.258 535.589 477.26 535.302 477.26 534.942C477.26 534.583 482.258 534.295 488.443 534.295C494.627 534.295 499.625 534.583 499.625 534.942Z" fill="#E0E0E0"/>
<path d="M499.625 558.638C499.625 558.998 494.627 559.286 488.443 559.286C482.258 559.286 477.26 558.998 477.26 558.638C477.26 558.279 482.258 557.991 488.443 557.991C494.627 557.991 499.625 558.279 499.625 558.638Z" fill="#E0E0E0"/>
<path d="M499.625 582.334C499.625 582.694 494.627 582.982 488.443 582.982C482.258 582.982 477.26 582.694 477.26 582.334C477.26 581.975 482.258 581.687 488.443 581.687C494.627 581.687 499.625 581.975 499.625 582.334Z" fill="#E0E0E0"/>
<path d="M499.625 606.067C499.625 606.426 494.627 606.714 488.443 606.714C482.258 606.714 477.26 606.426 477.26 606.067C477.26 605.707 482.258 605.419 488.443 605.419C494.627 605.419 499.625 605.707 499.625 606.067Z" fill="#E0E0E0"/>
<path d="M589.375 272.774C589.375 273.134 576.359 273.422 560.321 273.422C544.284 273.422 531.268 273.134 531.268 272.774C531.268 272.415 544.284 272.127 560.321 272.127C576.359 272.127 589.375 272.415 589.375 272.774Z" fill="#E0E0E0"/>
<path d="M589.375 605.743C589.375 605.923 576.359 606.102 560.321 606.102C544.284 606.102 531.268 605.959 531.268 605.743C531.268 605.527 544.284 605.383 560.321 605.383C576.359 605.383 589.375 605.527 589.375 605.743Z" fill="#E0E0E0"/>
<path d="M670.281 321.569C670.281 321.929 645.938 322.216 615.913 322.216C585.888 322.216 561.545 321.929 561.545 321.569C561.545 321.209 585.888 320.922 615.913 320.922C645.938 320.922 670.281 321.209 670.281 321.569Z" fill="#E0E0E0"/>
<path d="M795.953 321.569C795.953 321.929 771.61 322.216 741.585 322.216C711.56 322.216 687.217 321.929 687.217 321.569C687.217 321.209 711.56 320.922 741.585 320.922C771.61 320.922 795.953 321.209 795.953 321.569Z" fill="#E0E0E0"/>
<path d="M747.913 345.265C747.913 345.625 712.063 345.912 667.799 345.912C623.535 345.912 587.686 345.625 587.686 345.265C587.686 344.906 623.535 344.618 667.799 344.618C712.063 344.618 747.913 344.906 747.913 345.265Z" fill="#E0E0E0"/>
<path d="M747.913 368.997C747.913 369.357 712.063 369.644 667.799 369.644C623.535 369.644 587.686 369.357 587.686 368.997C587.686 368.638 623.535 368.35 667.799 368.35C712.063 368.35 747.913 368.638 747.913 368.997Z" fill="#E0E0E0"/>
<path d="M858.196 440.122C858.196 440.481 822.347 440.769 778.083 440.769C733.819 440.769 697.969 440.481 697.969 440.122C697.969 439.762 733.819 439.474 778.083 439.474C822.347 439.474 858.196 439.762 858.196 440.122Z" fill="#E0E0E0"/>
<path d="M810.624 392.693C810.624 393.053 774.774 393.341 730.51 393.341C686.246 393.341 650.396 393.053 650.396 392.693C650.396 392.334 686.246 392.046 730.51 392.046C774.774 392.046 810.624 392.334 810.624 392.693Z" fill="#E0E0E0"/>
<path d="M589.375 297.873C589.375 298.232 576.359 298.52 560.321 298.52C544.284 298.52 531.268 298.232 531.268 297.873C531.268 297.513 544.284 297.226 560.321 297.226C576.359 297.226 589.375 297.513 589.375 297.873Z" fill="#E0E0E0"/>
<path d="M589.375 582.334C589.375 582.694 576.359 582.982 560.321 582.982C544.284 582.982 531.268 582.694 531.268 582.334C531.268 581.975 544.284 581.687 560.321 581.687C576.359 581.687 589.375 581.975 589.375 582.334Z" fill="#E0E0E0"/>
<path d="M618.143 392.693C618.143 393.053 605.126 393.341 589.089 393.341C573.052 393.341 560.035 393.053 560.035 392.693C560.035 392.334 573.052 392.046 589.089 392.046C605.126 392.046 618.143 392.334 618.143 392.693Z" fill="#E0E0E0"/>
<path d="M670.281 487.37C670.281 487.73 645.938 488.017 615.913 488.017C585.888 488.017 561.545 487.73 561.545 487.37C561.545 487.011 585.888 486.723 615.913 486.723C645.938 486.723 670.281 487.011 670.281 487.37Z" fill="#E0E0E0"/>
<path d="M795.953 487.37C795.953 487.73 771.61 488.017 741.585 488.017C711.56 488.017 687.217 487.73 687.217 487.37C687.217 487.011 711.56 486.723 741.585 486.723C771.61 486.723 795.953 487.011 795.953 487.37Z" fill="#E0E0E0"/>
<path d="M747.913 511.102C747.913 511.462 712.063 511.749 667.799 511.749C623.535 511.749 587.686 511.462 587.686 511.102C587.686 510.743 623.535 510.455 667.799 510.455C712.063 510.455 747.913 510.743 747.913 511.102Z" fill="#E0E0E0"/>
<path d="M747.913 534.798C747.913 535.158 712.063 535.446 667.799 535.446C623.535 535.446 587.686 535.158 587.686 534.798C587.686 534.439 623.535 534.151 667.799 534.151C712.063 534.151 747.913 534.439 747.913 534.798Z" fill="#E0E0E0"/>
<path d="M810.624 558.494C810.624 558.854 774.774 559.142 730.51 559.142C686.246 559.142 650.396 558.854 650.396 558.494C650.396 558.135 686.246 557.847 730.51 557.847C774.774 557.847 810.624 558.135 810.624 558.494Z" fill="#E0E0E0"/>
<path d="M618.143 558.494C618.143 558.854 605.126 559.142 589.089 559.142C573.052 559.142 560.035 558.854 560.035 558.494C560.035 558.135 573.052 557.847 589.089 557.847C605.126 557.847 618.143 558.135 618.143 558.494Z" fill="#E0E0E0"/>
<path d="M499.625 630.769C499.625 631.129 494.627 631.417 488.443 631.417C482.258 631.417 477.26 631.129 477.26 630.769C477.26 630.41 482.258 630.122 488.443 630.122C494.627 630.122 499.625 630.41 499.625 630.769Z" fill="#E0E0E0"/>
<path d="M499.625 678.198C499.625 678.557 494.627 678.845 488.443 678.845C482.258 678.845 477.26 678.557 477.26 678.198C477.26 677.838 482.258 677.551 488.443 677.551C494.627 677.551 499.625 677.838 499.625 678.198Z" fill="#E0E0E0"/>
<path d="M747.913 630.626C747.913 630.985 712.063 631.273 667.799 631.273C623.535 631.273 587.686 630.985 587.686 630.626C587.686 630.266 623.535 629.978 667.799 629.978C712.063 629.978 747.913 630.266 747.913 630.626Z" fill="#E0E0E0"/>
<path d="M368.524 126.714H117.611V377.627H368.524V126.714Z" fill="#F5F5F5"/>
<path d="M162.235 362.129C162.055 362.129 161.875 313.443 161.875 253.393C161.875 193.344 162.019 144.657 162.235 144.657C162.45 144.657 162.594 193.344 162.594 253.393C162.594 313.443 162.45 362.129 162.235 362.129Z" fill="#E0E0E0"/>
<path d="M154.828 163.319C154.828 163.499 152.167 163.679 148.895 163.679C145.623 163.679 142.926 163.535 142.926 163.319C142.926 163.103 145.587 162.959 148.895 162.959C152.203 162.959 154.828 163.103 154.828 163.319Z" fill="#E0E0E0"/>
<path d="M155.295 151.633C155.295 151.813 152.634 151.992 149.362 151.992C146.089 151.992 143.393 151.848 143.393 151.633C143.393 151.417 146.053 151.273 149.362 151.273C152.67 151.273 155.295 151.417 155.295 151.633Z" fill="#E0E0E0"/>
<path d="M154.828 175.94C154.828 176.12 152.167 176.3 148.895 176.3C145.623 176.3 142.926 176.156 142.926 175.94C142.926 175.724 145.587 175.581 148.895 175.581C152.203 175.581 154.828 175.724 154.828 175.94Z" fill="#E0E0E0"/>
<path d="M154.828 188.525C154.828 188.705 152.167 188.885 148.895 188.885C145.623 188.885 142.926 188.741 142.926 188.525C142.926 188.31 145.587 188.166 148.895 188.166C152.203 188.166 154.828 188.31 154.828 188.525Z" fill="#E0E0E0"/>
<path d="M154.828 201.147C154.828 201.326 152.167 201.506 148.895 201.506C145.623 201.506 142.926 201.362 142.926 201.147C142.926 200.931 145.587 200.787 148.895 200.787C152.203 200.787 154.828 200.931 154.828 201.147Z" fill="#E0E0E0"/>
<path d="M154.828 213.732C154.828 213.912 152.167 214.091 148.895 214.091C145.623 214.091 142.926 213.947 142.926 213.732C142.926 213.516 145.587 213.372 148.895 213.372C152.203 213.372 154.828 213.516 154.828 213.732Z" fill="#E0E0E0"/>
<path d="M154.828 226.353C154.828 226.533 152.167 226.712 148.895 226.712C145.623 226.712 142.926 226.569 142.926 226.353C142.926 226.137 145.587 225.993 148.895 225.993C152.203 225.993 154.828 226.137 154.828 226.353Z" fill="#E0E0E0"/>
<path d="M154.828 238.938C154.828 239.118 152.167 239.298 148.895 239.298C145.623 239.298 142.926 239.154 142.926 238.938C142.926 238.722 145.587 238.579 148.895 238.579C152.203 238.579 154.828 238.722 154.828 238.938Z" fill="#E0E0E0"/>
<path d="M154.828 251.559C154.828 251.739 152.167 251.919 148.895 251.919C145.623 251.919 142.926 251.775 142.926 251.559C142.926 251.344 145.587 251.2 148.895 251.2C152.203 251.2 154.828 251.344 154.828 251.559Z" fill="#E0E0E0"/>
<path d="M154.828 264.144C154.828 264.324 152.167 264.504 148.895 264.504C145.623 264.504 142.926 264.36 142.926 264.144C142.926 263.929 145.587 263.785 148.895 263.785C152.203 263.785 154.828 263.929 154.828 264.144Z" fill="#E0E0E0"/>
<path d="M154.828 276.766C154.828 276.945 152.167 277.125 148.895 277.125C145.623 277.125 142.926 276.981 142.926 276.766C142.926 276.55 145.587 276.406 148.895 276.406C152.203 276.406 154.828 276.55 154.828 276.766Z" fill="#E0E0E0"/>
<path d="M154.828 289.351C154.828 289.531 152.167 289.71 148.895 289.71C145.623 289.71 142.926 289.567 142.926 289.351C142.926 289.135 145.587 288.991 148.895 288.991C152.203 288.991 154.828 289.135 154.828 289.351Z" fill="#E0E0E0"/>
<path d="M154.828 301.972C154.828 302.152 152.167 302.332 148.895 302.332C145.623 302.332 142.926 302.188 142.926 301.972C142.926 301.756 145.587 301.612 148.895 301.612C152.203 301.612 154.828 301.756 154.828 301.972Z" fill="#E0E0E0"/>
<path d="M154.828 314.557C154.828 314.737 152.167 314.917 148.895 314.917C145.623 314.917 142.926 314.773 142.926 314.557C142.926 314.341 145.587 314.198 148.895 314.198C152.203 314.198 154.828 314.341 154.828 314.557Z" fill="#E0E0E0"/>
<path d="M154.828 327.178C154.828 327.358 152.167 327.538 148.895 327.538C145.623 327.538 142.926 327.394 142.926 327.178C142.926 326.963 145.587 326.819 148.895 326.819C152.203 326.819 154.828 326.963 154.828 327.178Z" fill="#E0E0E0"/>
<path d="M154.828 339.764C154.828 339.943 152.167 340.123 148.895 340.123C145.623 340.123 142.926 339.979 142.926 339.764C142.926 339.548 145.587 339.404 148.895 339.404C152.203 339.404 154.828 339.548 154.828 339.764Z" fill="#E0E0E0"/>
<path d="M202.544 162.6C202.544 162.78 195.64 162.959 187.118 162.959C178.596 162.959 171.656 162.816 171.656 162.6C171.656 162.384 178.56 162.24 187.118 162.24C195.676 162.24 202.544 162.384 202.544 162.6Z" fill="#E0E0E0"/>
<path d="M202.544 339.62C202.544 339.62 195.64 339.8 187.118 339.8C178.596 339.8 171.656 339.728 171.656 339.62C171.656 339.512 178.56 339.44 187.118 339.44C195.676 339.44 202.544 339.512 202.544 339.62Z" fill="#E0E0E0"/>
<path d="M245.549 188.525C245.549 188.705 232.604 188.885 216.639 188.885C200.673 188.885 187.729 188.741 187.729 188.525C187.729 188.31 200.673 188.166 216.639 188.166C232.604 188.166 245.549 188.31 245.549 188.525Z" fill="#E0E0E0"/>
<path d="M312.359 188.525C312.359 188.705 299.414 188.885 283.449 188.885C267.484 188.885 254.539 188.741 254.539 188.525C254.539 188.31 267.484 188.166 283.449 188.166C299.414 188.166 312.359 188.31 312.359 188.525Z" fill="#E0E0E0"/>
<path d="M286.83 201.147C286.83 201.326 267.772 201.506 244.256 201.506C220.739 201.506 201.682 201.362 201.682 201.147C201.682 200.931 220.739 200.787 244.256 200.787C267.772 200.787 286.83 200.931 286.83 201.147Z" fill="#E0E0E0"/>
<path d="M286.83 213.732C286.83 213.912 267.772 214.091 244.256 214.091C220.739 214.091 201.682 213.947 201.682 213.732C201.682 213.516 220.739 213.372 244.256 213.372C267.772 213.372 286.83 213.516 286.83 213.732Z" fill="#E0E0E0"/>
<path d="M345.439 251.559C345.439 251.739 326.381 251.919 302.865 251.919C279.349 251.919 260.291 251.775 260.291 251.559C260.291 251.344 279.349 251.2 302.865 251.2C326.381 251.2 345.439 251.344 345.439 251.559Z" fill="#E0E0E0"/>
<path d="M320.162 226.353C320.162 226.533 301.104 226.712 277.588 226.712C254.071 226.712 235.014 226.569 235.014 226.353C235.014 226.137 254.071 225.993 277.588 225.993C301.104 225.993 320.162 226.137 320.162 226.353Z" fill="#E0E0E0"/>
<path d="M202.544 175.94C202.544 176.12 195.64 176.3 187.118 176.3C178.596 176.3 171.656 176.156 171.656 175.94C171.656 175.724 178.56 175.581 187.118 175.581C195.676 175.581 202.544 175.724 202.544 175.94Z" fill="#E0E0E0"/>
<path d="M202.544 327.178C202.544 327.358 195.64 327.538 187.118 327.538C178.596 327.538 171.656 327.394 171.656 327.178C171.656 326.963 178.56 326.819 187.118 326.819C195.676 326.819 202.544 326.963 202.544 327.178Z" fill="#E0E0E0"/>
<path d="M217.825 226.353C217.825 226.533 210.921 226.712 202.399 226.712C193.877 226.712 186.938 226.569 186.938 226.353C186.938 226.137 193.841 225.993 202.399 225.993C210.957 225.993 217.825 226.137 217.825 226.353Z" fill="#E0E0E0"/>
<path d="M245.549 276.694C245.549 276.874 232.604 277.053 216.639 277.053C200.673 277.053 187.729 276.909 187.729 276.694C187.729 276.478 200.673 276.334 216.639 276.334C232.604 276.334 245.549 276.478 245.549 276.694Z" fill="#E0E0E0"/>
<path d="M312.359 276.694C312.359 276.874 299.414 277.053 283.449 277.053C267.484 277.053 254.539 276.909 254.539 276.694C254.539 276.478 267.484 276.334 283.449 276.334C299.414 276.334 312.359 276.478 312.359 276.694Z" fill="#E0E0E0"/>
<path d="M286.83 289.279C286.83 289.459 267.772 289.639 244.256 289.639C220.739 289.639 201.682 289.495 201.682 289.279C201.682 289.063 220.739 288.919 244.256 288.919C267.772 288.919 286.83 289.063 286.83 289.279Z" fill="#E0E0E0"/>
<path d="M286.83 301.9C286.83 302.08 267.772 302.26 244.256 302.26C220.739 302.26 201.682 302.116 201.682 301.9C201.682 301.684 220.739 301.54 244.256 301.54C267.772 301.54 286.83 301.684 286.83 301.9Z" fill="#E0E0E0"/>
<path d="M320.162 314.485C320.162 314.665 301.104 314.845 277.588 314.845C254.071 314.845 235.014 314.701 235.014 314.485C235.014 314.27 254.071 314.126 277.588 314.126C301.104 314.126 320.162 314.27 320.162 314.485Z" fill="#E0E0E0"/>
<path d="M217.825 314.485C217.825 314.665 210.921 314.845 202.399 314.845C193.877 314.845 186.938 314.701 186.938 314.485C186.938 314.27 193.841 314.126 202.399 314.126C210.957 314.126 217.825 314.27 217.825 314.485Z" fill="#E0E0E0"/>
<path d="M154.828 352.924C154.828 353.104 152.167 353.284 148.895 353.284C145.623 353.284 142.926 353.14 142.926 352.924C142.926 352.708 145.587 352.565 148.895 352.565C152.203 352.565 154.828 352.708 154.828 352.924Z" fill="#E0E0E0"/>
<path d="M154.828 378.13C154.828 378.31 152.167 378.49 148.895 378.49C145.623 378.49 142.926 378.346 142.926 378.13C142.926 377.915 145.587 377.771 148.895 377.771C152.203 377.771 154.828 377.915 154.828 378.13Z" fill="#E0E0E0"/>
<path d="M286.83 352.852C286.83 353.032 267.772 353.212 244.256 353.212C220.739 353.212 201.682 353.068 201.682 352.852C201.682 352.636 220.739 352.493 244.256 352.493C267.772 352.493 286.83 352.636 286.83 352.852Z" fill="#E0E0E0"/>
<path d="M716.523 437.856H138.107V1016.27H519.907L621.811 1107.5L624.436 1016.27H716.523V437.856Z" fill="#FAFAFA"/>
<path d="M233.073 951.405C232.713 951.405 232.426 849.572 232.426 724.008C232.426 598.444 232.713 496.575 233.073 496.575C233.433 496.575 233.72 598.372 233.72 724.008C233.72 849.644 233.433 951.405 233.073 951.405Z" fill="#263238"/>
<path d="M219.157 531.706C219.157 532.066 214.159 532.353 207.974 532.353C201.789 532.353 196.791 532.066 196.791 531.706C196.791 531.346 201.789 531.059 207.974 531.059C214.159 531.059 219.157 531.346 219.157 531.706Z" fill="#263238"/>
<path d="M220.02 509.7C220.02 510.059 215.022 510.347 208.837 510.347C202.652 510.347 197.654 510.059 197.654 509.7C197.654 509.34 202.652 509.053 208.837 509.053C215.022 509.053 220.02 509.34 220.02 509.7Z" fill="#263238"/>
<path d="M219.157 555.402C219.157 555.762 214.159 556.049 207.974 556.049C201.789 556.049 196.791 555.762 196.791 555.402C196.791 555.043 201.789 554.755 207.974 554.755C214.159 554.755 219.157 555.043 219.157 555.402Z" fill="#263238"/>
<path d="M219.157 579.098C219.157 579.458 214.159 579.745 207.974 579.745C201.789 579.745 196.791 579.458 196.791 579.098C196.791 578.739 201.789 578.451 207.974 578.451C214.159 578.451 219.157 578.739 219.157 579.098Z" fill="#263238"/>
<path d="M219.157 602.794C219.157 603.154 214.159 603.442 207.974 603.442C201.789 603.442 196.791 603.154 196.791 602.794C196.791 602.435 201.789 602.147 207.974 602.147C214.159 602.147 219.157 602.435 219.157 602.794Z" fill="#263238"/>
<path d="M219.157 626.526C219.157 626.886 214.159 627.174 207.974 627.174C201.789 627.174 196.791 626.886 196.791 626.526C196.791 626.167 201.789 625.879 207.974 625.879C214.159 625.879 219.157 626.167 219.157 626.526Z" fill="#263238"/>
<path d="M219.157 650.223C219.157 650.582 214.159 650.87 207.974 650.87C201.789 650.87 196.791 650.582 196.791 650.223C196.791 649.863 201.789 649.575 207.974 649.575C214.159 649.575 219.157 649.863 219.157 650.223Z" fill="#263238"/>
<path d="M219.157 673.919C219.157 674.278 214.159 674.566 207.974 674.566C201.789 674.566 196.791 674.278 196.791 673.919C196.791 673.559 201.789 673.272 207.974 673.272C214.159 673.272 219.157 673.559 219.157 673.919Z" fill="#263238"/>
<path d="M219.157 697.651C219.157 698.01 214.159 698.298 207.974 698.298C201.789 698.298 196.791 698.01 196.791 697.651C196.791 697.291 201.789 697.004 207.974 697.004C214.159 697.004 219.157 697.291 219.157 697.651Z" fill="#263238"/>
<path d="M219.157 721.347C219.157 721.707 214.159 721.994 207.974 721.994C201.789 721.994 196.791 721.707 196.791 721.347C196.791 720.987 201.789 720.7 207.974 720.7C214.159 720.7 219.157 720.987 219.157 721.347Z" fill="#263238"/>
<path d="M219.157 745.043C219.157 745.403 214.159 745.69 207.974 745.69C201.789 745.69 196.791 745.403 196.791 745.043C196.791 744.684 201.789 744.396 207.974 744.396C214.159 744.396 219.157 744.684 219.157 745.043Z" fill="#263238"/>
<path d="M219.157 768.775C219.157 769.135 214.159 769.422 207.974 769.422C201.789 769.422 196.791 769.135 196.791 768.775C196.791 768.416 201.789 768.128 207.974 768.128C214.159 768.128 219.157 768.416 219.157 768.775Z" fill="#263238"/>
<path d="M219.157 792.471C219.157 792.831 214.159 793.119 207.974 793.119C201.789 793.119 196.791 792.831 196.791 792.471C196.791 792.112 201.789 791.824 207.974 791.824C214.159 791.824 219.157 792.112 219.157 792.471Z" fill="#263238"/>
<path d="M219.157 816.167C219.157 816.527 214.159 816.815 207.974 816.815C201.789 816.815 196.791 816.527 196.791 816.167C196.791 815.808 201.789 815.52 207.974 815.52C214.159 815.52 219.157 815.808 219.157 816.167Z" fill="#263238"/>
<path d="M219.157 839.864C219.157 840.223 214.159 840.511 207.974 840.511C201.789 840.511 196.791 840.223 196.791 839.864C196.791 839.504 201.789 839.216 207.974 839.216C214.159 839.216 219.157 839.504 219.157 839.864Z" fill="#263238"/>
<path d="M219.157 863.596C219.157 863.955 214.159 864.243 207.974 864.243C201.789 864.243 196.791 863.955 196.791 863.596C196.791 863.236 201.789 862.949 207.974 862.949C214.159 862.949 219.157 863.236 219.157 863.596Z" fill="#263238"/>
<path d="M308.907 530.304C308.907 530.663 295.89 530.951 279.853 530.951C263.816 530.951 250.799 530.663 250.799 530.304C250.799 529.944 263.816 529.656 279.853 529.656C295.89 529.656 308.907 529.944 308.907 530.304Z" fill="#263238"/>
<path d="M308.907 863.272C308.907 863.452 295.89 863.632 279.853 863.632C263.816 863.632 250.799 863.488 250.799 863.272C250.799 863.056 263.816 862.913 279.853 862.913C295.89 862.913 308.907 863.056 308.907 863.272Z" fill="#263238"/>
<path d="M389.812 579.098C389.812 579.458 365.469 579.745 335.444 579.745C305.42 579.745 281.076 579.458 281.076 579.098C281.076 578.739 305.42 578.451 335.444 578.451C365.469 578.451 389.812 578.739 389.812 579.098Z" fill="#278DB4"/>
<path d="M515.519 579.098C515.519 579.458 491.176 579.745 461.151 579.745C431.127 579.745 406.783 579.458 406.783 579.098C406.783 578.739 431.127 578.451 461.151 578.451C491.176 578.451 515.519 578.739 515.519 579.098Z" fill="#263238"/>
<path d="M467.482 602.794C467.482 603.154 431.632 603.442 387.368 603.442C343.104 603.442 307.254 603.154 307.254 602.794C307.254 602.435 343.104 602.147 387.368 602.147C431.632 602.147 467.482 602.435 467.482 602.794Z" fill="#263238"/>
<path d="M467.482 626.526C467.482 626.886 431.632 627.174 387.368 627.174C343.104 627.174 307.254 626.886 307.254 626.526C307.254 626.167 343.104 625.879 387.368 625.879C431.632 625.879 467.482 626.167 467.482 626.526Z" fill="#278DB4"/>
<path d="M577.728 697.651C577.728 698.01 541.878 698.298 497.614 698.298C453.35 698.298 417.5 698.01 417.5 697.651C417.5 697.291 453.35 697.004 497.614 697.004C541.878 697.004 577.728 697.291 577.728 697.651Z" fill="#278DB4"/>
<path d="M530.155 650.223C530.155 650.582 494.306 650.87 450.042 650.87C405.778 650.87 369.928 650.582 369.928 650.223C369.928 649.863 405.778 649.575 450.042 649.575C494.306 649.575 530.155 649.863 530.155 650.223Z" fill="#263238"/>
<path d="M657.841 602.794C657.841 603.154 621.991 603.442 577.727 603.442C533.463 603.442 497.613 603.154 497.613 602.794C497.613 602.435 533.463 602.147 577.727 602.147C621.991 602.147 657.841 602.435 657.841 602.794Z" fill="#263238"/>
<path d="M308.907 555.402C308.907 555.762 295.89 556.049 279.853 556.049C263.816 556.049 250.799 555.762 250.799 555.402C250.799 555.043 263.816 554.755 279.853 554.755C295.89 554.755 308.907 555.043 308.907 555.402Z" fill="#278DB4"/>
<path d="M308.907 839.864C308.907 840.223 295.89 840.511 279.853 840.511C263.816 840.511 250.799 840.223 250.799 839.864C250.799 839.504 263.816 839.216 279.853 839.216C295.89 839.216 308.907 839.504 308.907 839.864Z" fill="#263238"/>
<path d="M337.674 650.223C337.674 650.582 324.657 650.87 308.62 650.87C292.583 650.87 279.566 650.582 279.566 650.223C279.566 649.863 292.583 649.575 308.62 649.575C324.657 649.575 337.674 649.863 337.674 650.223Z" fill="#263238"/>
<path d="M389.812 744.899C389.812 745.259 365.469 745.547 335.444 745.547C305.42 745.547 281.076 745.259 281.076 744.899C281.076 744.54 305.42 744.252 335.444 744.252C365.469 744.252 389.812 744.54 389.812 744.899Z" fill="#278DB4"/>
<path d="M515.519 744.899C515.519 745.259 491.176 745.547 461.151 745.547C431.127 745.547 406.783 745.259 406.783 744.899C406.783 744.54 431.127 744.252 461.151 744.252C491.176 744.252 515.519 744.54 515.519 744.899Z" fill="#263238"/>
<path d="M467.482 768.631C467.482 768.991 431.632 769.279 387.368 769.279C343.104 769.279 307.254 768.991 307.254 768.631C307.254 768.272 343.104 767.984 387.368 767.984C431.632 767.984 467.482 768.272 467.482 768.631Z" fill="#263238"/>
<path d="M467.482 792.328C467.482 792.687 431.632 792.975 387.368 792.975C343.104 792.975 307.254 792.687 307.254 792.328C307.254 791.968 343.104 791.68 387.368 791.68C431.632 791.68 467.482 791.968 467.482 792.328Z" fill="#278DB4"/>
<path d="M530.155 816.024C530.155 816.383 494.306 816.671 450.042 816.671C405.778 816.671 369.928 816.383 369.928 816.024C369.928 815.664 405.778 815.376 450.042 815.376C494.306 815.376 530.155 815.664 530.155 816.024Z" fill="#263238"/>
<path d="M657.841 768.631C657.841 768.991 621.991 769.279 577.727 769.279C533.463 769.279 497.613 768.991 497.613 768.631C497.613 768.272 533.463 767.984 577.727 767.984C621.991 767.984 657.841 768.272 657.841 768.631Z" fill="#263238"/>
<path d="M337.674 816.024C337.674 816.383 324.657 816.671 308.62 816.671C292.583 816.671 279.566 816.383 279.566 816.024C279.566 815.664 292.583 815.376 308.62 815.376C324.657 815.376 337.674 815.664 337.674 816.024Z" fill="#263238"/>
<path d="M219.157 888.299C219.157 888.658 214.159 888.946 207.974 888.946C201.789 888.946 196.791 888.658 196.791 888.299C196.791 887.939 201.789 887.651 207.974 887.651C214.159 887.651 219.157 887.939 219.157 888.299Z" fill="#263238"/>
<path d="M219.157 912.031C219.157 912.39 214.159 912.678 207.974 912.678C201.789 912.678 196.791 912.39 196.791 912.031C196.791 911.671 201.789 911.384 207.974 911.384C214.159 911.384 219.157 911.671 219.157 912.031Z" fill="#263238"/>
<path d="M219.157 935.727C219.157 936.087 214.159 936.374 207.974 936.374C201.789 936.374 196.791 936.087 196.791 935.727C196.791 935.367 201.789 935.08 207.974 935.08C214.159 935.08 219.157 935.367 219.157 935.727Z" fill="#263238"/>
<path d="M308.907 935.727C308.907 936.087 295.89 936.374 279.853 936.374C263.816 936.374 250.799 936.087 250.799 935.727C250.799 935.367 263.816 935.08 279.853 935.08C295.89 935.08 308.907 935.367 308.907 935.727Z" fill="#278DB4"/>
<path d="M467.482 888.155C467.482 888.514 431.632 888.802 387.368 888.802C343.104 888.802 307.254 888.514 307.254 888.155C307.254 887.795 343.104 887.508 387.368 887.508C431.632 887.508 467.482 887.795 467.482 888.155Z" fill="#278DB4"/>
<path d="M530.155 911.887C530.155 912.247 494.306 912.534 450.042 912.534C405.778 912.534 369.928 912.247 369.928 911.887C369.928 911.527 405.778 911.24 450.042 911.24C494.306 911.24 530.155 911.527 530.155 911.887Z" fill="#263238"/>
<path d="M337.674 911.887C337.674 912.247 324.657 912.534 308.62 912.534C292.583 912.534 279.566 912.247 279.566 911.887C279.566 911.527 292.583 911.24 308.62 911.24C324.657 911.24 337.674 911.527 337.674 911.887Z" fill="#263238"/>
<path d="M716.523 437.856H138.107V469.895H716.523V437.856Z" fill="#E0E0E0"/>
<path d="M716.524 437.856C716.524 437.856 716.596 441.38 716.596 448.284C716.596 455.26 716.632 465.544 716.703 478.956C716.739 505.888 716.811 545.442 716.919 595.855C717.027 696.896 717.171 841.59 717.315 1016.27V1017.06H716.524C687.721 1017.06 656.474 1017.06 624.436 1017.1L625.263 1016.27C624.436 1044.86 623.537 1075.85 622.638 1107.5V1109.37L621.2 1108.11C588.91 1079.2 554.534 1048.45 519.295 1016.92L519.907 1017.14C419.405 1017.14 311.388 1017.14 199.883 1017.14C179.099 1017.14 158.424 1017.14 138.072 1017.14H137.137V1016.2C137.173 803.798 137.245 605.995 137.281 437.784V436.993H138.072C312.179 437.173 456.873 437.317 558.058 437.389C608.543 437.461 648.204 437.533 675.244 437.605C688.728 437.641 699.048 437.676 706.024 437.712C712.964 437.712 716.524 437.784 716.524 437.784C716.524 437.784 712.856 437.856 705.844 437.856C698.832 437.856 688.441 437.892 674.921 437.964C647.844 438 608.147 438.072 557.555 438.18C456.477 438.288 311.999 438.432 138.072 438.575L138.863 437.784C138.899 606.031 138.935 803.798 139.007 1016.2L138.072 1015.27C158.424 1015.27 179.099 1015.27 199.883 1015.27C311.388 1015.27 419.369 1015.27 519.907 1015.27H520.266L520.518 1015.48C555.721 1047.02 590.096 1077.83 622.386 1106.74L620.948 1107.35C621.883 1075.67 622.782 1044.71 623.645 1016.13V1015.3H624.472C656.51 1015.3 687.721 1015.3 716.56 1015.34L715.768 1016.13C715.948 841.662 716.092 697.147 716.164 596.214C716.236 545.729 716.308 506.14 716.38 479.136C716.416 465.652 716.452 455.296 716.488 448.32C716.488 441.344 716.56 437.712 716.56 437.712L716.524 437.856Z" fill="#263238"/>
<path d="M160.258 454.72C160.258 457.345 158.101 459.503 155.476 459.503C152.851 459.503 150.693 457.345 150.693 454.72C150.693 452.096 152.851 449.938 155.476 449.938C158.101 449.938 160.258 452.096 160.258 454.72Z" fill="#263238"/>
<path d="M173.742 454.72C173.742 457.345 171.585 459.503 168.96 459.503C166.335 459.503 164.178 457.345 164.178 454.72C164.178 452.096 166.335 449.938 168.96 449.938C171.585 449.938 173.742 452.096 173.742 454.72Z" fill="#263238"/>
<path d="M186.578 454.72C186.578 457.345 184.421 459.503 181.796 459.503C179.171 459.503 177.014 457.345 177.014 454.72C177.014 452.096 179.171 449.938 181.796 449.938C184.421 449.938 186.578 452.096 186.578 454.72Z" fill="#263238"/>
<path d="M716.524 437.856C716.524 437.856 716.596 441.38 716.596 448.284C716.596 455.26 716.632 465.544 716.703 478.956C716.739 505.888 716.811 545.442 716.919 595.855C717.027 696.896 717.171 841.59 717.315 1016.27V1017.06H716.524C687.721 1017.06 656.474 1017.06 624.436 1017.1L625.263 1016.27C624.436 1044.86 623.537 1075.85 622.638 1107.5V1109.37L621.2 1108.11C588.91 1079.2 554.534 1048.45 519.295 1016.92L519.907 1017.14C419.405 1017.14 311.388 1017.14 199.883 1017.14C179.099 1017.14 158.424 1017.14 138.072 1017.14H137.137V1016.2C137.173 803.798 137.245 605.995 137.281 437.784V436.993H138.072C312.179 437.173 456.873 437.317 558.058 437.389C608.543 437.461 648.204 437.533 675.244 437.605C688.728 437.641 699.048 437.676 706.024 437.712C712.964 437.712 716.524 437.784 716.524 437.784C716.524 437.784 712.856 437.856 705.844 437.856C698.832 437.856 688.441 437.892 674.921 437.964C647.844 438 608.147 438.072 557.555 438.18C456.477 438.288 311.999 438.432 138.072 438.575L138.863 437.784C138.899 606.031 138.935 803.798 139.007 1016.2L138.072 1015.27C158.424 1015.27 179.099 1015.27 199.883 1015.27C311.388 1015.27 419.369 1015.27 519.907 1015.27H520.266L520.518 1015.48C555.721 1047.02 590.096 1077.83 622.386 1106.74L620.948 1107.35C621.883 1075.67 622.782 1044.71 623.645 1016.13V1015.3H624.472C656.51 1015.3 687.721 1015.3 716.56 1015.34L715.768 1016.13C715.948 841.662 716.092 697.147 716.164 596.214C716.236 545.729 716.308 506.14 716.38 479.136C716.416 465.652 716.452 455.296 716.488 448.32C716.488 441.344 716.56 437.712 716.56 437.712L716.524 437.856Z" fill="#263238"/>
<path d="M598.613 1164.38L614.363 1360.78L635.937 1363.94L620.871 1159.67L598.613 1164.38Z" fill="#263238"/>
<path d="M571.358 1175.7L637.807 1191.6L696.383 1247.51L673.046 1275.31L620.332 1215.87C620.332 1215.87 562.116 1201.13 571.358 1175.67V1175.7Z" fill="#FFBE9D"/>
<path d="M711.197 1291.92C711.197 1291.92 711.305 1291.59 711.341 1291.41L696.347 1247.55L642.662 1222.52C639.893 1225 637.699 1227.98 635.83 1231.15C629.465 1222.81 621.554 1215.65 612.529 1210.01L601.778 1203.28C594.083 1200.44 584.626 1203.46 579.951 1210.22C575.277 1216.98 575.816 1226.87 581.21 1233.05C576.248 1235.18 572.616 1240.17 572.148 1245.57C571.681 1250.96 574.378 1256.5 578.873 1259.48C568.948 1265.81 567.798 1282.17 576.715 1289.83C572.652 1293.1 571.573 1299.11 572.94 1304.14C574.342 1309.32 577.794 1313.67 581.39 1317.66C587.431 1324.35 594.155 1330.39 601.562 1335.53C604.115 1337.33 606.848 1338.91 609.904 1339.6C613.392 1340.35 615.909 1338.41 618.318 1335.71C620.584 1333.2 622.381 1330.75 621.447 1327.44L654.096 1350.96L683.006 1411.69L756.863 1366.71L711.161 1291.92H711.197Z" fill="#FFBE9D"/>
<path d="M662.474 1307.16C662.474 1307.16 661.863 1306.95 660.82 1306.37C659.741 1305.83 658.267 1304.86 656.397 1303.5C652.765 1300.76 648.019 1295.84 644.387 1288.43C640.827 1281.1 638.526 1270.99 640.863 1260.17C641.475 1257.51 642.446 1254.81 643.309 1252.26C644.136 1249.7 644.531 1246.9 643.093 1244.74C641.69 1242.55 638.994 1241.25 636.405 1239.56C633.816 1237.87 631.443 1235.79 629.321 1233.42C627.199 1231.04 625.438 1228.42 624.071 1225.65C622.705 1222.88 621.734 1220.07 620.26 1217.7C618.857 1215.29 616.772 1213.6 614.255 1212.67C611.774 1211.7 609.005 1211.16 606.452 1210.4C596.096 1207.45 586.927 1203.79 580.311 1198.79C573.587 1193.97 570.207 1187.35 570.242 1182.71C570.242 1181.6 570.278 1180.59 570.314 1179.66C570.494 1178.87 570.674 1178.15 570.818 1177.47C571.105 1176.28 571.285 1175.7 571.357 1175.7C571.429 1175.7 571.357 1176.35 571.213 1177.54C571.105 1178.18 571.034 1178.9 570.89 1179.69C570.89 1180.59 570.962 1181.56 570.998 1182.64C571.213 1187.1 574.521 1193.18 581.138 1197.71C587.61 1202.42 596.707 1205.91 606.955 1208.71C609.508 1209.47 612.205 1209.93 614.974 1210.98C617.743 1211.95 620.368 1214.03 621.914 1216.69C623.532 1219.32 624.503 1222.16 625.833 1224.79C627.128 1227.41 628.818 1229.89 630.831 1232.16C632.845 1234.42 635.11 1236.36 637.519 1237.98C639.893 1239.6 642.841 1240.93 644.711 1243.74C646.581 1246.65 645.969 1250.14 645.106 1252.8C644.136 1255.53 643.237 1258.01 642.625 1260.56C640.288 1270.85 642.374 1280.66 645.682 1287.86C649.062 1295.12 653.521 1300.04 656.973 1302.92C660.424 1305.8 662.69 1306.95 662.582 1307.13L662.474 1307.16Z" fill="#EB996E"/>
<path d="M629.177 1232.59C629.177 1232.59 630.148 1233.49 631.55 1235.43C632.952 1237.33 635.002 1240.14 636.764 1244.09C637.591 1246.04 638.49 1248.45 638.094 1251.18C637.735 1253.8 636.656 1256.43 635.038 1258.84C633.384 1261.17 631.191 1263.73 627.667 1264.45C624.251 1265.02 620.979 1263.73 618.066 1262.4C606.2 1256.9 596.815 1249.45 590.846 1243.41C587.825 1240.39 585.596 1237.77 584.158 1235.9C582.719 1234.03 582 1232.91 582.108 1232.84C582.36 1232.62 585.596 1236.76 591.781 1242.48C597.93 1248.19 607.243 1255.31 618.893 1260.71C621.734 1262.04 624.682 1263.12 627.415 1262.65C630.04 1262.18 632.161 1259.99 633.672 1257.87C635.218 1255.67 636.261 1253.26 636.62 1250.96C637.016 1248.7 636.332 1246.5 635.577 1244.6C634.031 1240.75 632.161 1237.84 630.975 1235.82C629.752 1233.81 629.069 1232.66 629.177 1232.59Z" fill="#EB996E"/>
<path d="M620.331 1261.43C620.331 1261.43 621.698 1262.14 623.963 1263.83C626.193 1265.52 629.465 1268.01 632.629 1272.07C634.175 1274.12 635.613 1276.56 636.512 1279.48C637.411 1282.35 637.771 1285.8 636.728 1289.18C635.685 1292.49 633.456 1295.8 629.896 1297.53C626.3 1299.29 621.95 1298.71 618.354 1297.17C604.294 1290.41 594.082 1280.63 587.538 1273.04C584.266 1269.23 581.929 1265.88 580.454 1263.51C578.944 1261.14 578.225 1259.77 578.333 1259.7C578.62 1259.52 581.857 1264.81 588.545 1272.14C595.197 1279.4 605.553 1288.93 619.073 1295.41C622.417 1296.81 626.121 1297.28 629.105 1295.84C632.09 1294.43 634.139 1291.56 635.074 1288.65C636.009 1285.7 635.793 1282.6 635.038 1279.91C634.283 1277.18 632.953 1274.84 631.55 1272.82C628.674 1268.87 625.581 1266.24 623.496 1264.37C621.41 1262.54 620.224 1261.5 620.331 1261.39V1261.43Z" fill="#EB996E"/>
<path d="M631.263 1293.68C631.263 1293.68 632.234 1294.47 633.529 1296.31C634.751 1298.14 636.549 1301.02 637.052 1305.12C637.268 1307.16 637.052 1309.5 636.082 1311.77C635.147 1314 633.313 1316.3 630.616 1317.38C627.955 1318.53 624.863 1318.38 622.022 1317.66C619.145 1316.95 616.413 1315.69 613.716 1314.36C602.821 1309.07 593.651 1302.99 587.395 1298.18C584.266 1295.77 581.821 1293.68 580.167 1292.21C578.549 1290.73 577.686 1289.83 577.758 1289.73C577.938 1289.51 581.713 1292.6 588.15 1297.1C594.586 1301.59 603.72 1307.45 614.507 1312.67C617.204 1314 619.793 1315.18 622.454 1315.87C625.078 1316.55 627.739 1316.66 629.933 1315.76C632.162 1314.9 633.708 1313.06 634.607 1311.12C635.506 1309.14 635.794 1307.06 635.686 1305.19C635.398 1301.41 633.888 1298.53 632.845 1296.63C631.767 1294.72 631.083 1293.72 631.191 1293.61L631.263 1293.68Z" fill="#EB996E"/>
<path d="M616.197 1313.78C616.413 1313.71 617.276 1315.47 618.786 1318.35C619.505 1319.79 620.368 1321.51 621.123 1323.6C621.914 1325.68 622.238 1328.31 621.662 1330.9C621.159 1333.49 619.793 1335.82 617.959 1337.3C616.125 1338.81 614.003 1339.35 612.277 1339.38C608.682 1339.42 607.1 1337.55 607.279 1337.44C607.423 1337.15 609.149 1338.45 612.206 1338.05C613.68 1337.87 615.406 1337.23 616.844 1335.97C618.282 1334.67 619.397 1332.73 619.829 1330.5C620.871 1325.97 618.606 1321.91 617.563 1318.85C616.377 1315.87 615.909 1313.82 616.197 1313.74V1313.78Z" fill="#EB996E"/>
<path d="M634.067 1338.52L633.42 1316.44C628.242 1318.96 623.1 1318.85 617.994 1316.73C617.994 1316.73 621.554 1325.22 620.259 1333.31L618.965 1341.4L634.031 1338.52H634.067Z" fill="#263238"/>
<path d="M546.799 1059.74C542.196 998.469 557.981 951.616 581.462 944.137C584.626 943.13 596.816 937.233 600.016 938.24C622.957 945.575 639.534 993.83 643.597 1047.66C647.049 1093.4 644.064 1137.48 628.099 1156.65C622.669 1163.16 610.336 1163.8 603.54 1164.67C576.823 1168.01 551.401 1121.05 546.799 1059.78V1059.74Z" fill="#455A64"/>
<path d="M603.073 938.419C574.774 944.64 556.903 996.887 561.362 1055.53C566.612 1124.32 592.142 1163.3 618.894 1159.95C621.95 1159.56 625.51 1157.08 628.315 1155.46C644.208 1136.26 647.157 1092.25 643.705 1046.62C639.678 992.931 625.942 945.97 603.109 938.419H603.073Z" fill="white"/>
<path d="M642.122 1050.28C645.574 1095.91 641.403 1138.96 625.545 1158.16C647.264 1145.72 662.042 1099.51 657.979 1045.25C653.376 983.978 626.768 934.895 600.015 938.239C599.188 938.347 598.936 940.001 598.109 940.217C620.943 947.768 638.094 996.635 642.122 1050.28Z" fill="#263238"/>
<path d="M561.362 1055.53C561.362 1055.53 561.47 1056 561.578 1056.86C561.686 1057.83 561.829 1059.13 562.009 1060.78C562.441 1064.24 562.98 1069.34 564.095 1075.81C565.209 1082.32 566.72 1090.23 569.237 1099.26C571.754 1108.25 575.17 1118.42 580.491 1128.89C583.152 1134.1 586.317 1139.42 590.272 1144.46C594.263 1149.38 599.01 1154.24 605.123 1157.22C611.127 1160.31 618.715 1160.71 625.151 1157.4C631.587 1154.17 636.693 1148.27 640.685 1141.72C648.667 1128.46 652.982 1112.38 655.571 1095.73C658.088 1079.01 658.556 1061.39 657.225 1043.49C655.859 1025.58 652.731 1008.21 647.625 992.104C642.447 976.103 635.471 960.857 624.863 949.638C619.542 944.209 612.961 939.786 605.77 939.282C598.578 938.635 591.854 942.087 587 946.797C582.038 951.472 578.478 957.225 575.601 962.907C572.725 968.624 570.567 974.413 568.841 980.022C562.153 1002.64 561.326 1021.95 561.038 1035.07C560.93 1041.65 561.11 1046.8 561.218 1050.25C561.29 1051.9 561.326 1053.23 561.362 1054.2C561.362 1055.1 561.362 1055.57 561.362 1055.57C561.362 1055.57 561.254 1055.1 561.182 1054.24C561.11 1053.27 560.966 1051.94 560.823 1050.28C560.607 1046.8 560.283 1041.69 560.283 1035.07C560.355 1021.91 560.966 1002.5 567.547 979.663C569.237 973.982 571.394 968.12 574.271 962.295C577.147 956.506 580.779 950.645 585.921 945.719C590.919 940.829 598.111 937.053 605.878 937.7C613.645 938.24 620.584 942.914 626.086 948.488C637.053 960.03 644.101 975.456 649.351 991.601C654.528 1007.89 657.657 1025.37 659.059 1043.42C660.39 1061.43 659.886 1079.19 657.333 1096.09C654.708 1112.89 650.321 1129.14 642.087 1142.7C637.988 1149.38 632.702 1155.5 625.834 1158.95C622.418 1160.67 618.607 1161.5 614.903 1161.39C611.163 1161.32 607.604 1160.28 604.403 1158.7C597.967 1155.5 593.113 1150.5 589.085 1145.43C585.094 1140.29 581.93 1134.89 579.269 1129.57C573.983 1118.93 570.639 1108.68 568.194 1099.62C565.749 1090.52 564.31 1082.54 563.34 1075.99C562.333 1069.45 561.901 1064.34 561.578 1060.86C561.47 1059.2 561.398 1057.87 561.326 1056.9C561.29 1056 561.29 1055.57 561.326 1055.53H561.362Z" fill="#263238"/>
<path d="M618.391 1040.07C618.895 1040.22 614.544 1057.3 608.683 1078.22C602.822 1099.19 597.68 1116.01 597.176 1115.91C596.673 1115.76 601.024 1098.68 606.885 1077.72C612.746 1056.79 617.888 1039.93 618.391 1040.07Z" fill="#263238"/>
<path d="M620.727 1005.8C621.231 1005.95 616.88 1023.03 611.019 1043.96C605.158 1064.92 600.016 1081.75 599.512 1081.64C599.009 1081.5 603.36 1064.42 609.221 1043.45C615.082 1022.52 620.224 1005.66 620.727 1005.8Z" fill="#263238"/>
<path d="M1254.2 792.359L909.9 852.193C911.015 857.622 912.094 862.98 913.208 868.302L912.381 866.108C926.405 930.401 940.105 999.26 915.833 1060.39C907.815 1080.52 895.661 1100.05 895.769 1121.73C895.805 1131.94 898.609 1141.94 899.149 1152.15C899.688 1162.36 897.351 1173.58 889.404 1179.98C880.846 1186.85 866.427 1188 863.299 1198.54C861.141 1205.76 866.032 1213.06 871.03 1218.71C884.622 1234.03 901.342 1246.51 919.789 1255.46C922.27 1268.69 927.34 1281.2 936.005 1291.45C958.227 1280.99 980.485 1270.56 1002.71 1260.1C1001.34 1252.87 999.974 1245.64 998.608 1238.41C1002.17 1247.44 1011.37 1254.34 1021.12 1256.61C1033.67 1259.56 1046.79 1256.61 1059.27 1253.44C1131.69 1235.18 1202.2 1209.43 1269.33 1176.68C1278.25 1172.32 1323.41 1168.98 1323.41 1168.98C1331.07 1054.71 1296.7 898.65 1254.23 792.287L1254.2 792.359Z" fill="#263238"/>
<path d="M1244.95 772.906C1221.04 722.925 1196.38 670.894 1145.71 648.42C1100.58 628.428 1055.6 631.053 1008.32 645.148C985.016 652.088 961.176 669.671 943.629 686.463C919.537 709.476 915.798 744.787 909.649 777.508C897.316 843.131 920.904 921.771 944.888 939.246L1223.13 1006.77C1260.85 973.19 1287.24 955.283 1286.7 904.763C1286.34 870.351 1259.81 803.937 1244.95 772.906Z" fill="#263238"/>
<path d="M1152.65 698.258L986.635 691.749C935.035 697.071 914.647 766.326 922.162 817.637C930.505 874.666 942.982 943.921 958.516 984.517C989.763 1066.11 1056.75 1063.16 1056.75 1063.16C1056.72 1062.87 1057.22 1064.38 1063.01 1089.37L1074.87 1145.86C1110.58 1209.72 1178.07 1186.31 1256.86 1131.87L1185.59 722.781C1182.64 707.319 1168.33 696.675 1152.65 698.294V698.258Z" fill="#FFBE9D"/>
<path d="M955.496 879.7C956.503 885.454 962.22 889.373 968.261 888.402C974.266 887.467 978.365 882.038 977.358 876.284C976.352 870.531 970.634 866.612 964.629 867.547C958.588 868.482 954.525 873.911 955.532 879.664L955.496 879.7Z" fill="#263238"/>
<path d="M946.577 859.024C948.231 860.139 955.135 852.336 966.786 849.927C978.4 847.338 988.216 851.509 989.187 849.819C989.691 849.064 987.749 846.799 983.47 844.857C979.227 842.951 972.431 841.621 965.167 843.203C957.904 844.785 952.367 848.741 949.454 852.228C946.469 855.716 945.786 858.557 946.577 859.024Z" fill="#263238"/>
<path d="M1064.09 853.487C1065.09 859.24 1070.81 863.16 1076.85 862.189C1082.86 861.254 1086.96 855.824 1085.95 850.071C1084.94 844.318 1079.23 840.399 1073.22 841.333C1067.18 842.268 1063.12 847.698 1064.12 853.451L1064.09 853.487Z" fill="#263238"/>
<path d="M1059.63 831.841C1061.28 832.955 1068.19 825.153 1079.84 822.743C1091.45 820.154 1101.27 824.326 1102.24 822.636C1102.71 821.88 1100.84 819.615 1096.52 817.673C1092.28 815.732 1085.48 814.437 1078.22 816.019C1070.95 817.601 1065.42 821.557 1062.5 825.045C1059.52 828.533 1058.84 831.373 1059.63 831.841Z" fill="#263238"/>
<path d="M1035.65 923.605C1035.57 922.921 1028.06 923.209 1016.01 924.18C1012.96 924.504 1010.04 924.504 1009.11 922.598C1007.96 920.584 1008.53 917.132 1009.22 913.357C1010.48 905.554 1011.81 897.392 1013.21 888.834C1018.6 853.991 1021.84 825.62 1020.44 825.404C1019.03 825.188 1013.53 853.271 1008.14 888.114C1006.88 896.672 1005.66 904.871 1004.54 912.674C1004.15 916.305 1003 920.548 1005.48 924.683C1006.74 926.733 1009.29 927.884 1011.3 927.992C1013.32 928.171 1015.01 927.848 1016.52 927.632C1028.45 925.762 1035.79 924.288 1035.72 923.605H1035.65Z" fill="#263238"/>
<path d="M1056.75 1063.16C1056.75 1063.16 1114.32 1054.81 1163.44 1009.08C1163.44 1009.08 1147.98 1074.05 1061.82 1084.05L1056.75 1063.16Z" fill="#EB996E"/>
<path d="M1079.19 937.197C1075.49 933.277 1069.95 931.983 1064.81 932.882C1057.36 934.212 1051.72 938.06 1048.34 945.899C1047.11 948.2 1048.45 953.737 1049.45 955.14C1050.46 956.542 1049.78 955.895 1051.18 956.686C1056.32 959.598 1061.68 962.439 1067.5 962.583C1073.33 962.727 1079.76 959.491 1082.25 953.306C1084.44 947.804 1082.89 941.116 1079.19 937.197Z" fill="#EB996E"/>
<path d="M1073.83 924.396C1071.93 924.683 1074.48 937.34 1065.49 948.559C1056.54 959.814 1042.73 961.144 1043.02 962.942C1043.02 963.769 1046.54 964.776 1052.26 963.769C1057.9 962.798 1065.67 959.346 1071.17 952.479C1076.64 945.611 1077.97 937.664 1077.36 932.378C1076.74 926.984 1074.69 924.144 1073.83 924.396Z" fill="#263238"/>
<path d="M1046.61 796.315C1048.27 799.335 1059.77 796.027 1073.83 795.595C1087.89 794.876 1099.65 797.213 1101.05 794.085C1101.66 792.575 1099.25 789.878 1094.29 787.469C1089.37 785.06 1081.78 783.19 1073.36 783.55C1064.95 783.909 1057.54 786.354 1052.83 789.195C1048.09 792 1045.89 794.912 1046.65 796.35L1046.61 796.315Z" fill="#263238"/>
<path d="M940.933 833.495C944.133 835.113 951.54 829 961.645 824.685C971.641 820.046 981.134 818.608 982.069 815.156C982.428 813.538 980.019 811.596 975.273 810.769C970.598 809.942 963.586 810.59 956.646 813.646C949.743 816.738 944.601 821.485 942.12 825.512C939.567 829.575 939.459 832.632 940.933 833.459V833.495Z" fill="#263238"/>
<path d="M982.896 682.4C986.492 717.243 999.904 751.008 1021.23 778.803C1027.2 786.57 1033.92 794.013 1042.51 798.688C1051.11 803.362 1061.93 804.836 1070.7 800.557C1051.93 785.527 1038.02 764.492 1031.51 741.335C1047.4 762.622 1063.66 784.269 1085.38 799.587C1107.09 814.904 1135.57 823.067 1160.67 814.365L1154.67 797.573C1161.46 808.971 1170.67 819.651 1183 824.541C1195.33 829.431 1211.19 827.13 1219.14 816.487C1200.08 776.717 1214.46 724.83 1188.5 689.196C1170.52 664.493 1137.95 655.144 1107.49 653.203C1064.63 650.506 1021.05 659.459 982.752 678.876" fill="#263238"/>
<path d="M986.527 682.185C986.527 682.832 986.563 683.443 986.599 684.09H986.923C986.779 683.479 986.671 682.832 986.527 682.185Z" fill="#263238"/>
<path d="M986.599 684.126L980.99 683.263C963.191 679.02 950.534 672.332 931.368 700.127C920.976 715.194 913.461 735.762 909.398 755.898C905.766 773.841 901.847 793.33 903.465 811.56C905.587 835.436 908.931 852.372 917.596 876.248C929.463 863.34 932.591 844.677 933.058 827.13C933.526 809.583 931.98 791.712 936.582 774.776C937.661 789.41 938.776 804.333 944.529 817.817C946.111 821.521 948.196 825.26 951.72 827.166C955.244 829.072 960.494 828.281 962.112 824.613C952.907 809.691 949.563 791.748 949.743 774.2C949.922 756.653 953.41 739.357 957.006 722.205C960.206 751.439 968.477 780.133 981.314 806.598C983.147 810.41 985.269 814.329 988.865 816.559C994.258 819.867 1001.23 818.285 1007.1 815.875C1012.96 813.466 1018.78 810.266 1025.11 810.59C1001.13 772.978 987.678 728.75 986.599 684.162V684.126Z" fill="#263238"/>
<path d="M1061.82 1084.05L1322.08 1097.42L1154.81 1306.73L1086.09 1339.06L1025.11 1324.5L1011.09 1280.13L1061.82 1084.05Z" fill="#FFBE9D"/>
<path d="M1362.64 1135.36C1362.64 1135.36 1360.74 1135.65 1357.29 1135.94C1353.84 1136.22 1348.84 1136.58 1342.83 1137.73C1336.83 1138.88 1329.74 1140.97 1322.7 1144.92C1315.68 1148.88 1308.13 1153.95 1301.62 1160.57C1295.22 1167.36 1290.3 1174.88 1286.38 1182C1282.46 1189.12 1279.44 1195.84 1277.1 1201.52C1274.76 1207.24 1273.07 1211.95 1271.89 1215.19C1270.74 1218.46 1270.05 1220.26 1269.95 1220.22C1269.84 1220.22 1270.27 1218.31 1271.2 1214.97C1272.18 1211.63 1273.69 1206.84 1275.88 1201.05C1278.07 1195.27 1280.98 1188.43 1284.87 1181.17C1288.75 1173.91 1293.68 1166.21 1300.26 1159.27C1307.02 1152.4 1314.64 1147.41 1321.87 1143.41C1329.17 1139.46 1336.47 1137.45 1342.62 1136.44C1348.77 1135.47 1353.8 1135.29 1357.29 1135.22C1360.74 1135.18 1362.68 1135.25 1362.68 1135.4L1362.64 1135.36Z" fill="#263238"/>
<path d="M669.594 1403.6C669.594 1403.6 766.212 1590.98 782.429 1611.91C820.76 1661.28 908.101 1645.56 920.651 1618.49C942.261 1571.81 1011.08 1415.65 1011.08 1415.65L988.323 1359.56L911.733 1201.2L836.617 1461.06L739.316 1337.91L669.594 1403.6Z" fill="#278DB4"/>
<path d="M1462.43 1501.88C1462.43 1501.88 1453.72 1237.73 1442.61 1201.23C1431.5 1164.74 1417.91 1144.67 1390.44 1126.91C1359.16 1106.67 1325.86 1100.8 1322.08 1097.46C1322.08 1097.46 1226.94 1203.1 1179.33 1263.41C1131.72 1323.71 1069.8 1326.91 1057.11 1311.01C1044.42 1295.16 1034.89 1262.72 1046 1211.48C1057.11 1160.24 1061.82 1084.08 1061.82 1084.08L1050.75 1085.31C988 1092.25 933.74 1134.25 913.927 1194.22C913.172 1196.52 912.453 1198.86 911.734 1201.27C889.44 1277.61 976.889 1387.39 976.889 1382.53C977.105 1405.33 978.615 1427.16 982.499 1442.76C995.192 1493.57 1106.3 1578.83 1112.63 1603.64C1118.99 1628.45 1124.24 1787.49 1124.24 1787.49C1124.24 1787.49 1316.87 1787.88 1394.54 1787.49C1457.64 1787.17 1596.26 1787.49 1596.26 1787.49L1462.39 1501.91L1462.43 1501.88Z" fill="#278DB4"/>
<path d="M970.559 1188.65C970.559 1188.65 970.954 1189.66 971.566 1191.67C972.141 1193.68 973.148 1196.6 973.903 1200.48C975.701 1208.17 977.463 1219.57 977.894 1233.78C978.398 1247.94 977.715 1264.81 976.132 1283.47C974.658 1302.1 972.429 1322.56 971.35 1344.06C970.199 1365.56 970.631 1386.13 973.364 1404.54C975.988 1422.99 981.131 1439.09 986.92 1451.9C992.709 1464.73 999.145 1474.23 1003.68 1480.66C1006.01 1483.83 1007.99 1486.2 1009.21 1487.85C1010.47 1489.51 1011.12 1490.41 1011.08 1490.44C1011.05 1490.48 1010.29 1489.69 1008.93 1488.11C1007.6 1486.52 1005.55 1484.22 1003.1 1481.09C998.354 1474.77 991.738 1465.31 985.733 1452.44C979.764 1439.6 974.442 1423.35 971.674 1404.76C968.833 1386.2 968.366 1365.49 969.48 1343.91C970.559 1322.34 972.86 1301.88 974.406 1283.29C976.06 1264.7 976.887 1247.91 976.564 1233.78C976.312 1219.68 974.766 1208.32 973.184 1200.62C972.537 1196.74 971.638 1193.79 971.206 1191.78C970.703 1189.76 970.487 1188.69 970.559 1188.65Z" fill="#263238"/>
<g opacity="0.3">
<path d="M992.817 1461.71C969.876 1446.47 957.363 1419.03 953.875 1391.74C950.351 1364.41 954.702 1336.79 959.017 1309.57C963.799 1279.37 971.782 1252.04 976.6 1221.87C979.728 1263.69 975.018 1300.26 971.998 1340.93C968.977 1381.6 970.487 1425.14 992.817 1459.3" fill="black"/>
</g>
<path d="M901.736 1542.15C901.341 1542.47 865.131 1497.78 820.867 1442.37C776.603 1386.92 741.041 1341.72 741.473 1341.4C741.868 1341.07 778.078 1385.73 822.342 1441.22C866.606 1496.66 902.132 1541.86 901.736 1542.19V1542.15Z" fill="#263238"/>
<g opacity="0.3">
<path d="M1209.03 1232.05C1214.21 1238.92 1219.53 1245.89 1226.79 1250.53C1234.02 1255.14 1243.69 1256.93 1251.25 1252.8C1260.24 1247.84 1263.22 1236.62 1266.06 1226.73C1279.01 1181.67 1306.58 1140.93 1343.66 1112.2C1316.15 1123.31 1288.39 1134.6 1264.19 1151.72C1239.99 1168.84 1219.28 1192.6 1211.62 1221.26" fill="black"/>
</g>
<path d="M1234.92 1431.65C1234.92 1431.65 1234.06 1431.94 1232.33 1432.26C1230.46 1432.62 1227.98 1433.05 1224.89 1433.63C1221.65 1434.24 1217.7 1434.89 1213.06 1435.53C1208.42 1436.18 1203.17 1437.04 1197.35 1437.66C1185.69 1439.13 1171.74 1440.39 1156.21 1441.32C1140.68 1442.15 1123.6 1442.55 1105.65 1442.19C1087.71 1441.76 1070.63 1440.57 1055.17 1439.06C1039.71 1437.44 1025.83 1435.53 1014.25 1433.52C1008.42 1432.62 1003.25 1431.54 998.643 1430.68C994.04 1429.82 990.121 1428.99 986.92 1428.23C983.864 1427.52 981.419 1426.94 979.549 1426.51C977.859 1426.11 976.996 1425.86 976.996 1425.79C976.996 1425.72 977.895 1425.86 979.621 1426.15C981.491 1426.51 983.972 1426.94 987.064 1427.52C990.301 1428.16 994.22 1428.88 998.822 1429.64C1003.43 1430.39 1008.64 1431.4 1014.46 1432.19C1026.04 1434.02 1039.92 1435.79 1055.35 1437.3C1070.81 1438.7 1087.82 1439.85 1105.72 1440.28C1123.63 1440.64 1140.68 1440.28 1156.17 1439.6C1171.67 1438.77 1185.59 1437.66 1197.24 1436.36C1203.06 1435.82 1208.35 1435.07 1212.95 1434.49C1217.59 1433.95 1221.54 1433.38 1224.82 1432.91C1227.91 1432.48 1230.43 1432.15 1232.3 1431.87C1234.02 1431.65 1234.92 1431.58 1234.92 1431.65Z" fill="white"/>
<path d="M1253.37 1290.34C1253.37 1290.34 1252.61 1291.02 1251.03 1292.24C1249.3 1293.54 1247 1295.23 1244.13 1297.39C1242.62 1298.5 1240.93 1299.72 1239.09 1301.05C1237.22 1302.35 1235.07 1303.57 1232.8 1304.97C1228.23 1307.71 1223.2 1311.12 1217.16 1313.96C1214.17 1315.47 1211.05 1317.09 1207.77 1318.74C1204.5 1320.36 1200.91 1321.69 1197.31 1323.24C1190.12 1326.51 1182.06 1328.96 1173.65 1331.8C1156.64 1336.76 1137.48 1340.68 1117.05 1342.3C1096.63 1343.66 1077.07 1342.55 1059.52 1340.14C1050.78 1338.59 1042.48 1337.3 1034.89 1335.1C1031.08 1334.1 1027.34 1333.31 1023.89 1332.16C1020.43 1331.01 1017.09 1329.85 1013.93 1328.81C1007.49 1326.87 1002.02 1324.21 997.133 1322.16C994.688 1321.08 992.386 1320.18 990.337 1319.18C988.323 1318.13 986.489 1317.16 984.835 1316.26C981.671 1314.54 979.118 1313.21 977.248 1312.16C975.522 1311.23 974.623 1310.69 974.659 1310.62C974.659 1310.55 975.63 1310.98 977.428 1311.8C979.334 1312.74 981.923 1314 985.159 1315.58C986.849 1316.41 988.683 1317.34 990.732 1318.35C992.782 1319.28 995.119 1320.15 997.564 1321.15C1002.49 1323.09 1007.96 1325.65 1014.39 1327.48C1017.56 1328.52 1020.9 1329.57 1024.35 1330.72C1027.8 1331.8 1031.54 1332.55 1035.32 1333.52C1042.87 1335.64 1051.18 1336.83 1059.84 1338.34C1077.28 1340.64 1096.7 1341.69 1116.98 1340.35C1137.26 1338.74 1156.28 1334.89 1173.22 1330.07C1181.56 1327.3 1189.61 1324.93 1196.77 1321.73C1200.37 1320.22 1203.96 1318.92 1207.23 1317.34C1210.51 1315.72 1213.6 1314.18 1216.62 1312.7C1222.7 1309.93 1227.73 1306.59 1232.33 1303.97C1234.6 1302.6 1236.76 1301.41 1238.66 1300.19C1240.49 1298.9 1242.22 1297.71 1243.77 1296.67C1246.75 1294.65 1249.09 1293.03 1250.85 1291.81C1252.5 1290.73 1253.37 1290.16 1253.4 1290.23L1253.37 1290.34Z" fill="white"/>
<path d="M791.922 1425.36C791.922 1425.36 791.131 1426.51 789.441 1428.38C787.751 1430.25 785.198 1432.87 781.962 1436.04C775.489 1442.33 766.14 1450.6 755.065 1458.84C743.99 1467.03 733.347 1473.61 725.436 1477.96C721.481 1480.16 718.245 1481.81 715.943 1482.89C713.678 1483.97 712.384 1484.51 712.312 1484.4C712.168 1484.15 717.058 1481.45 724.753 1476.81C732.448 1472.18 742.912 1465.49 753.951 1457.36C764.954 1449.2 774.411 1441.14 781.063 1435.1C787.751 1429.06 791.742 1425.18 791.922 1425.39V1425.36Z" fill="white"/>
<path d="M873.509 1510.04C873.509 1510.04 873.078 1511.84 871.927 1514.97C871.388 1516.55 870.668 1518.45 869.698 1520.61C868.763 1522.77 867.756 1525.29 866.389 1527.95C863.836 1533.34 860.349 1539.56 856.034 1546.18C851.647 1552.76 846.433 1559.73 840.392 1566.53C834.279 1573.29 827.915 1579.26 821.874 1584.33C815.761 1589.33 809.972 1593.46 804.902 1596.63C802.421 1598.28 800.047 1599.54 797.962 1600.72C795.912 1601.91 794.114 1602.85 792.604 1603.57C789.62 1605.04 787.93 1605.79 787.858 1605.65C787.786 1605.51 789.368 1604.57 792.245 1602.92C793.683 1602.09 795.445 1601.08 797.423 1599.83C799.4 1598.57 801.737 1597.24 804.147 1595.51C809.109 1592.24 814.754 1588.03 820.759 1583C826.692 1577.89 832.949 1571.99 838.99 1565.27C844.995 1558.51 850.173 1551.64 854.595 1545.21C858.91 1538.7 862.506 1532.62 865.203 1527.34C866.641 1524.75 867.72 1522.3 868.763 1520.18C869.805 1518.06 870.632 1516.22 871.28 1514.68C872.61 1511.62 873.401 1509.97 873.509 1510V1510.04Z" fill="white"/>
<path d="M965.094 1521.29C965.094 1521.29 963.764 1519.6 961.678 1516.33C959.629 1513.06 956.5 1508.42 952.509 1502.85C948.518 1497.24 943.484 1490.73 937.623 1483.79C931.69 1476.89 924.858 1469.55 917.271 1462.32C909.612 1455.13 901.953 1448.7 894.761 1443.12C887.498 1437.62 880.773 1432.95 874.948 1429.24C869.159 1425.54 864.341 1422.66 860.997 1420.79C857.653 1418.89 855.819 1417.77 855.891 1417.66C855.963 1417.56 857.904 1418.45 861.356 1420.18C864.844 1421.87 869.734 1424.57 875.667 1428.16C881.6 1431.72 888.468 1436.33 895.804 1441.79C903.103 1447.33 910.87 1453.77 918.565 1460.99C926.224 1468.29 933.02 1475.74 938.953 1482.71C944.778 1489.76 949.74 1496.38 953.588 1502.13C957.471 1507.85 960.42 1512.63 962.29 1516.01C964.195 1519.39 965.202 1521.26 965.094 1521.33V1521.29Z" fill="white"/>
<path d="M971.171 1351.21C970.956 1351.43 966.677 1347.8 959.449 1342.4C952.186 1337.01 941.866 1330 929.712 1323.45C917.558 1316.95 906.016 1312.16 897.494 1309.07C889.008 1305.98 883.614 1304.43 883.686 1304.15C883.686 1304.04 885.089 1304.29 887.57 1304.86C890.051 1305.44 893.575 1306.45 897.926 1307.81C906.591 1310.58 918.349 1315.22 930.575 1321.8C942.801 1328.42 953.157 1335.64 960.24 1341.36C963.8 1344.2 966.569 1346.61 968.403 1348.37C970.273 1350.1 971.243 1351.11 971.135 1351.21H971.171Z" fill="white"/>
<path d="M976.671 1239.46C976.527 1239.71 972.968 1237.66 967.142 1234.57C961.317 1231.44 953.227 1227.3 944.022 1223.28C934.817 1219.25 926.259 1216.08 920.038 1213.93C913.817 1211.77 909.898 1210.51 909.97 1210.26C910.042 1210.04 914.069 1210.83 920.433 1212.67C926.798 1214.5 935.5 1217.49 944.777 1221.55C954.054 1225.61 962.144 1230 967.79 1233.42C973.471 1236.83 976.779 1239.28 976.671 1239.46Z" fill="white"/>
<path d="M1046.25 1158.34C1046.11 1158.59 1041.58 1156.47 1034.06 1153.37C1026.58 1150.28 1016.05 1146.4 1004.14 1143.09C992.243 1139.78 981.24 1137.73 973.221 1136.51C965.203 1135.29 960.204 1134.75 960.24 1134.46C960.24 1134.32 961.499 1134.32 963.8 1134.42C966.066 1134.5 969.374 1134.75 973.401 1135.22C981.491 1136.11 992.638 1137.98 1004.65 1141.33C1016.66 1144.67 1027.16 1148.77 1034.57 1152.19C1038.27 1153.88 1041.22 1155.35 1043.19 1156.47C1045.21 1157.58 1046.25 1158.23 1046.22 1158.34H1046.25Z" fill="white"/>
<path d="M1208.67 1555.92C1208.67 1555.92 1206.8 1556.32 1203.39 1556.64C1199.97 1557 1195.04 1557.36 1188.93 1557.68C1176.71 1558.37 1159.81 1558.65 1141.14 1557.79C1122.48 1556.89 1105.65 1555.02 1093.54 1553.19C1087.49 1552.29 1082.6 1551.46 1079.26 1550.78C1075.92 1550.13 1074.05 1549.7 1074.08 1549.56C1074.08 1549.41 1075.99 1549.63 1079.37 1550.06C1083.11 1550.53 1087.93 1551.14 1093.72 1551.89C1105.83 1553.37 1122.63 1555.06 1141.22 1555.92C1159.81 1556.78 1176.67 1556.71 1188.9 1556.35C1194.72 1556.17 1199.58 1556.03 1203.35 1555.89C1206.77 1555.78 1208.67 1555.78 1208.67 1555.89V1555.92Z" fill="white"/>
<path d="M1515.03 1608.46C1515.07 1608.96 1478.75 1613.2 1433.88 1617.91C1389 1622.62 1352.58 1626.04 1352.54 1625.54C1352.47 1625.03 1388.82 1620.79 1433.7 1616.08C1478.57 1611.37 1515 1607.95 1515.03 1608.46Z" fill="white"/>
<path d="M1458.97 1503.93C1459.12 1504.43 1440.85 1509.57 1418.2 1515.4C1395.54 1521.22 1377.06 1525.54 1376.95 1525.03C1376.81 1524.53 1395.08 1519.39 1417.73 1513.56C1440.38 1507.74 1458.87 1503.42 1458.97 1503.93Z" fill="white"/>
<path d="M1447.79 1408.75C1447.9 1409.25 1436.32 1412.59 1421.86 1416.19C1407.41 1419.79 1395.62 1422.34 1395.47 1421.83C1395.33 1421.33 1406.94 1417.99 1421.4 1414.39C1435.85 1410.8 1447.65 1408.24 1447.79 1408.75Z" fill="white"/>
<g opacity="0.3">
<path d="M1122.23 1734.52C1166.89 1743.48 1207.7 1758.58 1253.01 1753.58C1298.28 1748.58 1344.13 1727.3 1367.5 1688.21C1384.87 1659.16 1388.03 1624.1 1390.76 1590.37C1396.77 1517.05 1402.74 1443.77 1408.74 1370.45L1316.15 1627.26L1271.74 1695.01L1122.27 1734.49L1122.23 1734.52Z" fill="black"/>
</g>
<path d="M952.113 1639.27L1208.78 1595.44C1208.78 1595.44 1262.43 1270.67 1263.94 1264.92C1265.45 1259.13 1283.39 1158.01 1334.27 1149.35C1385.15 1140.68 1431.54 1160.89 1434.52 1210.01C1436.93 1249.31 1379.9 1531.43 1343.98 1662.07C1333.66 1699.65 1292.45 1732.91 1252.22 1733.66C1147.26 1735.64 953.156 1733.66 953.156 1733.66L952.113 1639.27Z" fill="#278DB4"/>
<path d="M1263.94 1264.88C1262.93 1271.1 1242.51 1395.23 1209.53 1595.55L1209.46 1596.09L1208.92 1596.19C1133.3 1609.18 1046.21 1624.06 952.293 1640.17L953.048 1639.27C953.372 1669.33 953.731 1701.19 954.127 1733.66L953.192 1732.73C984.259 1732.94 1017.09 1733.16 1050.35 1733.41C1104.68 1733.66 1157.76 1733.73 1209 1733.3C1221.8 1733.16 1234.49 1732.98 1247.07 1732.83C1259.59 1732.91 1271.92 1730.86 1283.18 1726C1305.65 1716.55 1324.67 1699.82 1335.93 1679.36L1338.01 1675.52L1339.74 1671.53C1341 1668.9 1341.79 1666.13 1342.69 1663.4C1344.34 1657.86 1345.71 1652.25 1347.22 1646.72C1350.24 1635.64 1352.93 1624.67 1355.67 1613.85C1361.06 1592.2 1366.06 1571.13 1370.77 1550.74C1380.19 1509.93 1388.42 1471.82 1395.76 1436.97C1410.21 1367.25 1420.97 1310.62 1427.26 1271.32C1428.84 1261.5 1430.24 1252.76 1431.21 1245.14C1431.72 1241.36 1432.22 1237.84 1432.65 1234.64C1432.98 1231.44 1433.3 1228.53 1433.55 1225.9C1434.23 1220.69 1434.27 1216.7 1434.34 1214.04C1434.45 1211.34 1434.52 1209.97 1434.52 1209.97C1434.52 1209.97 1434.52 1211.34 1434.52 1214.04C1434.52 1216.73 1434.52 1220.72 1433.91 1225.94C1433.66 1228.56 1433.41 1231.48 1433.08 1234.71C1432.69 1237.91 1432.22 1241.44 1431.75 1245.25C1430.82 1252.87 1429.49 1261.61 1427.98 1271.46C1421.9 1310.83 1411.37 1367.5 1397.05 1437.3C1389.83 1472.18 1381.63 1510.33 1372.28 1551.14C1367.6 1571.56 1362.64 1592.63 1357.25 1614.28C1354.52 1625.1 1351.86 1636.11 1348.83 1647.18C1347.32 1652.72 1345.99 1658.33 1344.3 1663.94C1343.37 1666.71 1342.58 1669.58 1341.28 1672.25L1339.52 1676.31L1337.4 1680.23C1325.97 1701.08 1306.73 1718.02 1283.82 1727.69C1272.42 1732.65 1259.66 1734.78 1247.07 1734.7C1234.49 1734.88 1221.8 1735.03 1209 1735.21C1157.76 1735.64 1104.68 1735.6 1050.31 1735.35C1017.02 1735.1 984.223 1734.88 953.156 1734.67H952.257V1733.73C951.897 1701.26 951.574 1669.4 951.25 1639.34V1638.55L952.005 1638.41C1045.96 1622.41 1133.05 1607.59 1208.71 1594.72L1208.1 1595.37C1224.89 1495.05 1238.7 1412.45 1248.33 1354.85C1253.26 1326.12 1257.07 1303.64 1259.7 1288.29C1261.06 1280.67 1262.1 1274.84 1262.79 1270.85C1263.51 1266.93 1263.97 1264.92 1263.97 1264.92L1263.94 1264.88Z" fill="#263238"/>
<path d="M1397.34 1392.17C1397.34 1392.17 1395.22 1392.1 1391.41 1391.6C1387.27 1391.09 1381.84 1390.41 1375.26 1389.58C1361.63 1387.93 1342.76 1386.06 1321.87 1384.91C1300.97 1383.79 1281.99 1383.68 1268.29 1383.83C1261.67 1383.94 1256.21 1384.04 1252.04 1384.12C1248.19 1384.19 1246.07 1384.19 1246.07 1384.04C1246.07 1383.9 1248.19 1383.68 1252 1383.4C1255.85 1383.07 1261.38 1382.79 1268.25 1382.53C1281.99 1382.03 1301.01 1381.92 1321.97 1383.04C1342.94 1384.15 1361.81 1386.27 1375.44 1388.25C1382.24 1389.22 1387.74 1390.12 1391.52 1390.84C1395.29 1391.56 1397.38 1391.99 1397.34 1392.13V1392.17Z" fill="white"/>
<path d="M1423.23 1256.57C1423.23 1256.57 1421.15 1256.29 1417.44 1255.46C1413.78 1254.6 1408.38 1253.48 1401.73 1252.26C1388.43 1249.81 1369.84 1247.55 1349.2 1247.55C1328.56 1247.62 1309.97 1249.92 1296.7 1252.4C1290.05 1253.62 1284.69 1254.78 1281.02 1255.64C1277.32 1256.5 1275.27 1256.9 1275.23 1256.79C1275.23 1256.68 1277.17 1256 1280.84 1254.95C1284.47 1253.84 1289.79 1252.51 1296.45 1251.11C1309.71 1248.3 1328.45 1245.71 1349.2 1245.68C1369.98 1245.68 1388.68 1248.16 1401.98 1250.96C1408.63 1252.33 1413.99 1253.66 1417.62 1254.74C1421.25 1255.78 1423.27 1256.43 1423.23 1256.57Z" fill="white"/>
<path d="M1362.61 1557.76C1362.61 1557.76 1360.81 1556.71 1357.75 1554.59C1356.24 1553.51 1354.37 1552.18 1352.11 1550.82C1349.88 1549.41 1347.4 1547.69 1344.48 1546.11C1338.77 1542.69 1331.72 1539.13 1323.66 1535.64C1315.57 1532.3 1306.44 1529.1 1296.62 1526.58C1286.77 1524.17 1277.24 1522.73 1268.51 1521.91C1259.77 1521.19 1251.82 1521.04 1245.21 1521.37C1241.9 1521.37 1238.88 1521.76 1236.25 1521.94C1233.63 1522.12 1231.36 1522.37 1229.53 1522.63C1225.82 1523.09 1223.77 1523.27 1223.74 1523.16C1223.74 1523.02 1225.72 1522.59 1229.42 1521.91C1231.25 1521.55 1233.52 1521.15 1236.14 1520.9C1238.77 1520.61 1241.79 1520.14 1245.13 1520.04C1251.82 1519.53 1259.8 1519.57 1268.65 1520.18C1277.5 1520.94 1287.13 1522.34 1297.09 1524.78C1307.02 1527.3 1316.22 1530.57 1324.35 1534.06C1332.44 1537.66 1339.52 1541.4 1345.17 1544.95C1348.08 1546.61 1350.53 1548.44 1352.72 1549.92C1354.95 1551.39 1356.75 1552.79 1358.18 1553.98C1361.1 1556.32 1362.68 1557.65 1362.61 1557.76Z" fill="white"/>
<path d="M1302.95 1710.94C1302.95 1710.94 1301.77 1709.25 1299.9 1706.01C1298.06 1702.77 1295.33 1698.14 1291.84 1692.45C1284.9 1681.09 1274.76 1665.7 1262.21 1649.74C1249.63 1633.77 1237.11 1620.29 1227.69 1610.87C1222.98 1606.16 1219.13 1602.42 1216.4 1599.83C1213.7 1597.24 1212.27 1595.8 1212.34 1595.69C1212.41 1595.58 1214.03 1596.88 1216.91 1599.29C1219.78 1601.7 1223.77 1605.29 1228.63 1609.9C1238.3 1619.1 1251.06 1632.51 1263.69 1648.55C1276.27 1664.59 1286.3 1680.16 1292.96 1691.73C1296.3 1697.52 1298.85 1702.27 1300.51 1705.65C1302.16 1708.99 1303.06 1710.86 1302.92 1710.94H1302.95Z" fill="white"/>
<path d="M1083.61 1733.8C1083.61 1733.8 1083.36 1732.26 1083.29 1729.45C1083.21 1726.25 1083.07 1722.3 1082.96 1717.59C1082.68 1707.56 1082.14 1693.75 1081.02 1678.5C1079.87 1663.26 1078.36 1649.48 1077.17 1639.56C1076.6 1634.88 1076.13 1630.93 1075.74 1627.76C1075.41 1625 1075.3 1623.41 1075.41 1623.41C1075.56 1623.41 1075.91 1624.89 1076.45 1627.66C1076.99 1630.43 1077.71 1634.42 1078.47 1639.38C1080.01 1649.3 1081.74 1663.08 1082.89 1678.36C1084.04 1693.64 1084.37 1707.52 1084.29 1717.55C1084.29 1722.59 1084.19 1726.65 1084.04 1729.45C1083.9 1732.26 1083.75 1733.8 1083.65 1733.8H1083.61Z" fill="white"/>
<path d="M1417.91 1164.27C1417.91 1164.77 1391.52 1163.77 1359.05 1161.97C1326.54 1160.17 1300.26 1158.34 1300.29 1157.8C1300.29 1157.29 1326.69 1158.3 1359.16 1160.1C1391.63 1161.86 1417.95 1163.73 1417.91 1164.27Z" fill="white"/>
<g opacity="0.3">
<path d="M1208.78 1595.4C1180.37 1581.2 1153.3 1563.8 1131.9 1540.32C1142.87 1540.32 1153.23 1544.92 1163.8 1547.8C1174.37 1550.67 1186.63 1551.57 1195.44 1545.06C1201.59 1540.53 1204.97 1533.2 1208.06 1526.18C1216.26 1507.67 1223.74 1489 1229.92 1467.83C1223.77 1508.6 1217.01 1554.84 1208.82 1595.4" fill="black"/>
</g>
<g opacity="0.3">
<path d="M837.264 1458.91C867.468 1478.07 893.753 1503.39 914.033 1532.87C915.364 1534.81 916.694 1537.4 915.364 1539.34C913.746 1541.72 909.862 1540.96 907.597 1539.24C883.649 1521.29 855.89 1484.9 837.264 1458.91Z" fill="black"/>
</g>
<path d="M1283.97 882.505L1212.09 751.799L1137.01 760.033C1131.65 818.285 1185.77 868.374 1184.65 926.841C1184.18 950.933 1174.19 974.629 1177.35 998.541C1180.34 1021.09 1194.72 1040.86 1197.92 1063.37C1201.7 1089.98 1189.43 1115.87 1179.76 1140.97C1170.09 1166.07 1163.04 1195.41 1176.13 1218.89C1203.96 1231.44 1215.47 1232.12 1241.82 1237.55C1261.93 1218.78 1269.37 1176.71 1298.85 1147.37C1298.85 1147.37 1336.07 1101.78 1368.07 1115.91C1368.07 1115.91 1404.86 1095.05 1327.01 985.955C1309.21 961.001 1293.5 914.903 1283.97 882.505Z" fill="#263238"/>
<path d="M685.883 1648.8L739.712 1608.6C745.069 1604.75 751.649 1602.95 758.23 1603.49L801.379 1607.12L902.205 1650.81L951.359 1644.23L952.114 1729.88C952.114 1729.88 908.425 1732.26 891.13 1729.38C873.834 1726.5 849.85 1711.15 849.85 1711.15C849.85 1711.15 855.603 1719.78 852.727 1726.5C849.85 1733.23 826.801 1743.8 826.801 1743.8C826.801 1743.8 810.476 1749.55 807.6 1738.05C807.6 1738.05 778.798 1741.89 775.921 1718.85C775.921 1718.85 731.909 1711.37 738.165 1691.12C742.804 1676.06 747.586 1665.09 747.586 1665.09L760.567 1636.29L745.968 1633.77C745.968 1633.77 719.575 1653.47 708.069 1655.38C696.562 1657.29 685.919 1648.87 685.919 1648.87L685.883 1648.8Z" fill="#FFBE9D"/>
<path d="M738.129 1691.09C738.129 1691.09 738.381 1689.79 739.172 1687.6C739.963 1685.4 741.149 1682.2 742.624 1678.32C745.608 1670.52 749.887 1659.77 754.705 1647.97C756.431 1643.73 758.121 1639.67 759.668 1635.85L759.739 1635.71L759.847 1635.6C763.191 1631.9 767.291 1629.45 771.21 1628.2C775.129 1626.87 778.797 1626.61 781.782 1626.79C784.766 1627.01 787.103 1627.66 788.614 1628.23C790.124 1628.84 790.879 1629.31 790.843 1629.38C790.735 1629.71 787.535 1628.02 781.746 1627.91C776.136 1627.73 767.434 1629.71 761.214 1636.75L761.358 1636.5C759.811 1640.31 758.157 1644.41 756.467 1648.66C751.649 1660.49 747.19 1671.13 743.882 1678.82C742.228 1682.67 740.862 1685.76 739.855 1687.89C738.884 1690.01 738.273 1691.16 738.165 1691.12L738.129 1691.09Z" fill="#EB996E"/>
<path d="M1720.36 1601.45H80V1646H1720.36V1601.45Z" fill="#263238"/>
</g>
<defs>
<clipPath id="clip0_119_6040">
<rect width="1640.36" height="1572" fill="white" transform="translate(80 74)"/>
</clipPath>
</defs>
</svg>
