<svg width="1800" height="1720" viewBox="0 0 1800 1720" fill="none" xmlns="http://www.w3.org/2000/svg">
<path d="M285.819 205.134C295.702 199.156 306.177 194.658 317.007 191.581L323.399 160.747L375.538 159.86L383.054 190.456C394.002 193.12 404.596 197.322 414.657 202.885L440.993 185.604L478.514 221.823L462.18 248.75C468.157 258.634 472.655 269.109 475.732 279.939L506.566 286.331L507.454 338.47L476.857 345.986C474.193 356.934 469.992 367.528 464.428 377.589L481.71 403.924L445.49 441.446L418.563 425.112C408.679 431.089 398.204 435.587 387.374 438.664L380.982 469.498L328.843 470.385L321.327 439.789C310.379 437.125 299.785 432.923 289.724 427.36L263.389 444.641L225.868 408.422L242.202 381.495C236.224 371.611 231.727 361.136 228.649 350.306L197.815 343.914L196.928 291.775L227.525 284.259C230.188 273.311 234.39 262.717 239.953 252.656L222.672 226.321L258.891 188.799L285.819 205.134ZM313.575 274.554C292.151 296.747 292.743 332.196 314.936 353.62C337.129 375.044 372.579 374.452 394.002 352.259C415.426 330.066 414.834 294.616 392.641 273.192C370.448 251.769 334.998 252.36 313.575 274.554Z" fill="#EBEBEB"/>
<path d="M1567.65 640.366C1573.73 636.691 1580.17 633.926 1586.83 632.034L1590.76 613.077L1622.82 612.531L1627.44 631.343C1634.17 632.98 1640.68 635.527 1646.87 638.984L1663.06 628.359L1686.13 650.627L1676.09 667.183C1679.76 673.26 1682.53 679.7 1684.42 686.359L1703.38 690.288L1703.92 722.345L1685.11 726.966C1683.47 733.697 1680.93 740.21 1677.47 746.396L1688.09 762.588L1665.82 785.657L1649.27 775.614C1643.19 779.289 1636.75 782.055 1630.09 783.947L1626.13 802.904L1594.07 803.45L1589.45 784.638C1582.72 783.001 1576.21 780.417 1570.02 776.997L1553.83 787.622L1530.76 765.353L1540.8 748.798C1537.13 742.721 1534.36 736.281 1532.47 729.622L1513.51 725.692L1512.97 693.636L1531.78 689.015C1533.42 682.283 1536 675.77 1539.42 669.585L1528.79 653.393L1551.06 630.324L1567.62 640.366H1567.65ZM1584.72 683.047C1571.55 696.692 1571.91 718.488 1585.56 731.66C1599.2 744.832 1621 744.468 1634.17 730.823C1647.34 717.178 1646.98 695.382 1633.33 682.211C1619.69 669.039 1597.89 669.403 1584.72 683.047Z" fill="#EBEBEB"/>
<path d="M247.499 458.267L256.341 443.676C331.005 320.69 465.999 246.498 608.269 255.522C626.572 256.686 644.765 259.16 662.74 263.017C792.13 290.707 904.709 388.55 951.356 513.865C978.792 587.547 986.469 672.4 1038.54 730.91C1106.33 807.03 1221.38 809.431 1322.57 806.266C1423.72 803.1 1538.89 805.793 1606.35 882.24C1648.59 930.089 1662.02 998.167 1658.6 1062.28C1649.57 1231.99 1531.32 1383.75 1380.93 1459.15C1230.55 1534.58 1053.46 1541.34 888.881 1508.16C658.301 1461.69 439.037 1334.05 307.209 1136.87C175.417 939.658 142.051 671.054 247.499 458.267Z" fill="#16607C" fill-opacity="0.2"/>
<path d="M291.963 1541.05C342.363 1541.05 383.22 1500.19 383.22 1449.8C383.22 1399.4 342.363 1358.54 291.963 1358.54C241.563 1358.54 200.706 1399.4 200.706 1449.8C200.706 1500.19 241.563 1541.05 291.963 1541.05Z" fill="#EBEBEB"/>
<path d="M1336.1 1624.43L819.345 1624.14C757.198 1624.14 706.839 1573.71 706.839 1511.56L707.094 216.064C707.094 153.879 757.525 103.484 819.709 103.521L1336.47 103.812C1398.62 103.848 1448.97 154.243 1448.97 216.391L1448.72 1511.89C1448.72 1574.08 1398.29 1624.47 1336.1 1624.43Z" fill="#263238"/>
<path d="M1335.96 149.622L1235.79 149.549C1222.36 149.549 1211.45 160.938 1211.45 174.983V193.14C1211.45 207.185 1200.53 218.574 1187.1 218.574L991.817 218.465C978.39 218.465 967.475 207.076 967.511 193.031V174.874C967.511 160.829 956.631 149.44 943.205 149.44H907.983L820.292 149.367C776.737 149.367 741.406 184.626 741.406 228.18L741.151 1492.68C741.151 1536.2 776.41 1571.49 819.928 1571.53L1335.63 1571.82C1379.19 1571.82 1414.48 1536.56 1414.52 1493.01L1414.77 228.508C1414.77 184.99 1379.51 149.695 1336 149.658L1335.96 149.622Z" fill="white"/>
<path d="M979.736 716.961C995.911 707.167 1013.15 699.78 1030.89 694.743L1041.41 644.093L1126.98 642.582L1139.3 692.84C1157.21 697.261 1174.72 704.089 1191.23 713.268L1234.5 684.892L1296.06 744.329L1269.25 788.542C1279.05 804.717 1286.43 821.955 1291.47 839.752L1342.12 850.274L1343.63 935.846L1293.37 948.159C1288.95 966.068 1282.12 983.586 1272.94 1000.1L1301.26 1043.36L1241.83 1104.92L1197.61 1078.11C1181.44 1087.91 1164.2 1095.3 1146.46 1100.33L1135.94 1150.98L1050.37 1152.49L1038.05 1102.23C1020.14 1097.81 1002.63 1090.99 986.117 1081.81L942.854 1110.18L881.291 1050.75L908.099 1006.53C898.305 990.358 890.917 973.12 885.88 955.379L835.231 944.857L833.72 859.284L883.978 846.972C888.399 829.062 895.227 811.545 904.405 795.035L876.03 751.772L935.467 690.209L979.68 717.017L979.736 716.961ZM1025.35 830.965C990.146 867.455 991.154 925.549 1027.64 960.807C1064.13 996.01 1122.23 995.003 1157.49 958.513C1192.69 922.023 1191.68 863.929 1155.19 828.671C1118.7 793.468 1060.61 794.475 1025.35 830.965Z" fill="#F5F5F5"/>
<path d="M420.006 1040.06L266.565 1024.05L201.834 876.719L151.402 889.891C151.402 889.891 188.662 1045.59 230.324 1069.68C271.987 1093.8 414.512 1098.17 414.512 1098.17L420.006 1040.06Z" fill="currentColor"/>
<path d="M501.523 1114.81C526.461 1086.76 523.931 1043.8 495.873 1018.86C467.814 993.92 424.853 996.45 399.915 1024.51C374.978 1052.57 377.507 1095.53 405.566 1120.47C433.624 1145.4 476.586 1142.87 501.523 1114.81Z" fill="#263238"/>
<path d="M450.718 1137.72C432.524 1137.72 415.459 1130.62 402.578 1117.78C389.734 1104.93 382.639 1087.83 382.639 1069.64C382.639 1051.45 389.734 1034.38 402.578 1021.5C415.423 1008.66 432.524 1001.56 450.718 1001.56C468.911 1001.56 485.976 1008.66 498.857 1021.5C511.701 1034.35 518.796 1051.45 518.796 1069.64C518.796 1087.83 511.701 1104.9 498.857 1117.78C486.012 1130.62 468.911 1137.72 450.718 1137.72ZM450.718 1001.78C432.597 1001.78 415.532 1008.84 402.724 1021.65C389.916 1034.45 382.857 1051.52 382.857 1069.64C382.857 1087.76 389.916 1104.83 402.724 1117.63C415.532 1130.44 432.597 1137.5 450.718 1137.5C468.838 1137.5 485.903 1130.44 498.711 1117.63C511.519 1104.83 518.578 1087.76 518.578 1069.64C518.578 1051.52 511.519 1034.45 498.711 1021.65C485.903 1008.84 468.838 1001.78 450.718 1001.78Z" fill="#263238"/>
<path d="M253.041 1081.37C280.418 1074.79 297.282 1047.27 290.71 1019.9C284.137 992.521 256.617 975.656 229.241 982.229C201.865 988.801 185 1016.32 191.572 1043.7C198.145 1071.07 225.665 1087.94 253.041 1081.37Z" fill="#263238"/>
<path d="M202.403 888.667C218.673 872.397 218.673 846.018 202.403 829.748C186.133 813.478 159.753 813.478 143.483 829.748C127.213 846.018 127.213 872.397 143.483 888.668C159.753 904.938 186.132 904.938 202.403 888.667Z" fill="#263238"/>
<path d="M237.874 836.655L203.624 865.578L191.252 850.927L225.502 822.005C229.255 818.835 234.895 819.311 238.064 823.064L238.909 824.065C242.079 827.818 241.603 833.458 237.85 836.627L237.874 836.655Z" fill="#263238"/>
<path d="M194.302 783.607V827.125C194.302 827.852 193.72 828.398 193.028 828.398H176.436C175.708 828.398 175.162 827.816 175.162 827.125V783.607C175.162 778.694 179.165 774.692 184.077 774.692H185.387C190.299 774.692 194.302 778.694 194.302 783.607Z" fill="#263238"/>
<path d="M163.413 783.765L172.914 826.233C173.072 826.943 172.623 827.603 171.949 827.754L155.757 831.376C155.047 831.535 154.387 831.086 154.236 830.411L144.735 787.943C143.663 783.149 146.695 778.369 151.489 777.297L152.767 777.011C157.561 775.939 162.341 778.971 163.413 783.765Z" fill="#263238"/>
<path d="M130.193 794.381L151.952 832.069C152.316 832.699 152.084 833.463 151.486 833.809L137.116 842.105C136.486 842.469 135.722 842.237 135.377 841.639L113.618 803.951C111.162 799.697 112.627 794.229 116.881 791.773L118.015 791.118C122.269 788.662 127.737 790.127 130.193 794.381Z" fill="#263238"/>
<path d="M1086.08 1421.58L1131.95 1402.07L999.581 1090.84L953.708 1110.35L1086.08 1421.58Z" fill="currentColor"/>
<path d="M1006.2 1120.61C1030.46 1091.97 1026.91 1049.08 998.271 1024.82C969.629 1000.55 926.74 1004.1 902.475 1032.74C878.21 1061.39 881.759 1104.27 910.401 1128.54C939.044 1152.8 981.933 1149.26 1006.2 1120.61Z" fill="#263238"/>
<path d="M954.414 1144.85C947.682 1144.85 940.878 1143.83 934.256 1141.79C916.899 1136.45 902.636 1124.62 894.158 1108.57C885.68 1092.49 883.933 1074.08 889.282 1056.72C894.631 1039.37 906.457 1025.1 922.503 1016.62C938.586 1008.15 956.997 1006.4 974.354 1011.75C991.71 1017.1 1005.97 1028.92 1014.45 1044.97C1022.93 1061.05 1024.68 1079.46 1019.33 1096.82C1013.98 1114.18 1002.15 1128.44 986.106 1136.92C976.173 1142.16 965.33 1144.85 954.377 1144.85H954.414ZM954.232 1008.84C943.316 1008.84 932.509 1011.49 922.612 1016.73C906.566 1025.21 894.813 1039.4 889.464 1056.76C884.115 1074.08 885.825 1092.45 894.304 1108.5C902.782 1124.55 916.972 1136.3 934.328 1141.65C951.648 1147 970.024 1145.29 986.07 1136.81C1002.12 1128.33 1013.87 1114.14 1019.22 1096.78C1024.57 1079.46 1022.82 1061.09 1014.38 1045.04C1005.9 1029 991.71 1017.24 974.354 1011.89C967.731 1009.86 961 1008.84 954.268 1008.84H954.232Z" fill="#263238"/>
<path d="M1091.95 1279.86C1099.49 1252.74 1083.61 1224.64 1056.49 1217.1C1029.36 1209.56 1001.26 1225.44 993.722 1252.57C986.184 1279.69 1002.06 1307.79 1029.19 1315.33C1056.32 1322.87 1084.42 1306.99 1091.95 1279.86Z" fill="#263238"/>
<path d="M1159.2 1411.67C1151.92 1389.84 1128.3 1378.05 1106.51 1385.36C1084.68 1392.64 1072.89 1416.26 1080.2 1438.05C1087.48 1459.88 1111.09 1471.67 1132.89 1464.36C1154.72 1457.08 1166.51 1433.47 1159.2 1411.67Z" fill="#263238"/>
<path d="M1065.19 1466.85L1088.52 1428.57L1104.89 1438.55L1081.56 1476.83C1079 1481.02 1073.5 1482.36 1069.31 1479.8L1068.19 1479.12C1064 1476.56 1062.66 1471.06 1065.22 1466.87L1065.19 1466.85Z" fill="#263238"/>
<path d="M1123.34 1503.33L1109.56 1462.05C1109.33 1461.36 1109.71 1460.66 1110.37 1460.44L1126.11 1455.19C1126.8 1454.96 1127.5 1455.34 1127.72 1455.99L1141.5 1497.27C1143.05 1501.93 1140.52 1507 1135.86 1508.55L1134.62 1508.97C1129.96 1510.52 1124.9 1507.99 1123.34 1503.33Z" fill="#263238"/>
<path d="M1152.56 1493.43L1130.1 1456.16C1129.72 1455.53 1129.94 1454.77 1130.53 1454.41L1144.74 1445.85C1145.37 1445.47 1146.13 1445.69 1146.49 1446.28L1168.95 1483.56C1171.49 1487.76 1170.12 1493.26 1165.91 1495.79L1164.79 1496.47C1160.59 1499 1155.09 1497.64 1152.56 1493.43Z" fill="#263238"/>
<path d="M1180.73 1472.82L1148.15 1443.96C1147.61 1443.48 1147.59 1442.68 1148.05 1442.16L1159.05 1429.74C1159.53 1429.2 1160.33 1429.17 1160.85 1429.63L1193.42 1458.49C1197.1 1461.75 1197.44 1467.4 1194.18 1471.08L1193.31 1472.06C1190.05 1475.73 1184.4 1476.07 1180.73 1472.82Z" fill="#263238"/>
<path d="M430.377 998.978C430.377 998.978 435.289 1476.11 703.056 1485.46C970.824 1494.81 982.067 1002.4 982.067 998.978C982.067 998.978 950.447 927.806 706.222 930.608C461.997 933.409 430.377 998.978 430.377 998.978Z" fill="currentColor"/>
<path d="M580.798 914.962H807.121C821.892 914.962 833.865 902.988 833.865 888.218V884.324C833.865 869.554 821.892 857.58 807.121 857.58H580.798C566.028 857.58 554.054 869.554 554.054 884.324V888.218C554.054 902.988 566.028 914.962 580.798 914.962Z" fill="#263238"/>
<path d="M684.245 490.66H703.784V391.871H684.245V490.66Z" fill="#263238"/>
<path d="M992.848 784.749C1023.7 777.416 1042.77 746.461 1035.43 715.61C1028.1 684.758 997.146 665.693 966.294 673.026C935.443 680.358 916.377 711.313 923.71 742.164C931.043 773.016 961.997 792.081 992.848 784.749Z" fill="currentColor"/>
<path d="M412.626 781.011C443.552 773.997 462.935 743.24 455.92 712.315C448.906 681.39 418.149 662.006 387.224 669.021C356.298 676.036 336.915 706.792 343.93 737.717C350.944 768.643 381.701 788.026 412.626 781.011Z" fill="currentColor"/>
<path d="M682.644 469.228C682.644 469.228 449.189 466.427 412.22 668.626C375.252 870.825 572.684 874.609 629.483 878.429C655.245 880.176 710.334 880.358 758.946 879.485C866.577 877.629 942.588 856.78 968.495 756.935C971.515 745.292 973.553 733.321 974.317 721.168C981.157 611.754 907.075 463.807 682.68 469.192L682.644 469.228Z" fill="currentColor"/>
<path d="M851.986 777.203L512.829 782.515C477.279 783.061 448.025 754.716 447.442 719.166C446.897 683.617 475.241 654.362 510.791 653.78L849.948 648.468C885.498 647.922 914.752 676.267 915.334 711.816C915.88 747.366 887.535 776.62 851.986 777.203Z" fill="#263238"/>
<path d="M583.2 712.107C581.016 723.314 570.137 730.591 558.966 728.408C547.759 726.225 540.482 715.346 542.665 704.175C544.848 692.968 555.728 685.691 566.898 687.874C578.105 690.057 585.383 700.937 583.2 712.107Z" fill="white"/>
<path d="M820.148 708.324C817.965 719.531 807.085 726.808 795.915 724.625C784.708 722.441 777.43 711.562 779.613 700.391C781.797 689.184 792.676 681.907 803.847 684.09C815.054 686.273 822.331 697.153 820.148 708.324Z" fill="white"/>
<path d="M786.054 1188.44C782.342 1239.31 738.097 1277.51 687.265 1273.8C636.397 1270.09 598.191 1225.85 601.902 1174.98C605.614 1124.11 649.86 1085.9 700.728 1089.62C751.596 1093.33 789.802 1137.57 786.09 1188.44H786.054Z" fill="#263238"/>
<path d="M761.092 1186.62C758.4 1223.66 726.161 1251.54 689.084 1248.81C652.042 1246.11 624.17 1213.88 626.899 1176.8C629.592 1139.76 661.83 1111.88 698.908 1114.61C735.949 1117.31 763.821 1149.54 761.092 1186.62Z" fill="white"/>
<path d="M728.637 1198.85C728.382 1198.7 728.164 1194.7 728.018 1187.75C727.836 1180.8 727.727 1170.87 727.691 1158.75L728.418 1160.1C718.339 1154.2 706.623 1147.36 693.815 1139.9H695.743C684.9 1146.05 673.111 1152.64 660.812 1159.55C659.866 1161.12 662.086 1157.4 661.868 1157.8V1157.88V1157.95V1158.13V1158.46V1159.11V1160.42L661.795 1163.04L661.722 1168.25C661.649 1171.7 661.613 1175.09 661.54 1178.44C661.395 1185.13 661.285 1191.61 661.176 1197.87L660.23 1196.19C672.893 1203.91 684.427 1210.96 694.433 1217.08H692.905C703.566 1211.33 712.372 1206.74 718.558 1203.58C724.78 1200.41 728.346 1198.7 728.637 1198.85C728.891 1198.99 725.798 1201.03 719.904 1204.63C714.009 1208.24 705.313 1213.4 694.397 1219.7L693.633 1220.13L692.869 1219.7C682.753 1213.8 671.073 1206.96 658.265 1199.5L657.319 1198.96V1197.83C657.392 1191.57 657.465 1185.09 657.538 1178.4C657.574 1175.05 657.61 1171.67 657.647 1168.21L657.72 1163.01V1160.39L657.792 1159.08V1158.42V1158.1V1157.91V1157.84V1157.77C657.574 1158.13 659.794 1154.42 658.848 1155.98C671.183 1149.14 683.008 1142.59 693.888 1136.55L694.87 1136.01L695.816 1136.59C708.479 1144.3 720.049 1151.4 730.019 1157.48L730.783 1157.95V1158.82C730.383 1171.41 729.946 1181.53 729.583 1188.44C729.219 1195.35 728.891 1199.03 728.637 1198.88V1198.85Z" fill="currentColor"/>
<path d="M716.784 412.651C729.36 400.075 729.36 379.686 716.784 367.11C704.209 354.535 683.819 354.535 671.244 367.11C658.668 379.686 658.668 400.075 671.244 412.651C683.819 425.226 704.209 425.226 716.784 412.651Z" fill="currentColor"/>
<path d="M642.618 702.574C644.147 702.756 643.383 709.961 647.894 719.567C650.078 724.334 653.716 729.537 658.847 733.976C663.977 738.415 670.781 741.799 678.241 742.599C685.736 743.182 693.05 741.071 698.908 737.651C704.803 734.231 709.315 729.755 712.298 725.461C718.484 716.838 719.03 709.597 720.558 709.706C721.14 709.706 721.795 711.526 721.795 714.946C721.795 718.366 720.813 723.351 718.047 728.882C715.282 734.413 710.479 740.38 703.529 745.001C696.689 749.658 687.374 752.824 677.367 751.987C667.398 750.968 658.81 746.202 652.916 740.38C646.948 734.558 643.273 727.827 641.563 721.896C639.817 715.928 639.744 710.834 640.399 707.487C641.017 704.139 641.963 702.429 642.546 702.538L642.618 702.574Z" fill="white"/>
<path d="M953.431 796.851C953.104 796.669 957.288 790.302 961.291 778.84C965.439 767.451 969.041 750.932 970.751 732.484C972.607 714 972.316 697.153 971.843 685C971.552 678.923 971.26 674.011 971.006 670.591C970.751 667.207 970.678 665.315 970.824 665.278C970.969 665.278 971.26 667.134 971.733 670.518C972.243 673.902 972.716 678.814 973.189 684.927C973.989 697.116 974.499 714.072 972.643 732.666C970.897 751.259 967.04 767.888 962.564 779.313C960.381 785.026 958.125 789.501 956.378 792.449C954.595 795.36 953.54 796.961 953.431 796.888V796.851Z" fill="#263238"/>
<path d="M412.766 662.003C412.766 662.003 412.475 663.895 411.602 667.206C411.165 668.844 410.62 670.881 410.147 673.247C409.637 675.612 408.946 678.268 408.509 681.288C407.381 687.255 406.472 694.46 405.962 702.501C405.562 710.543 405.562 719.385 406.326 728.627C407.199 737.869 408.728 746.565 410.547 754.425C412.475 762.211 414.622 769.161 416.805 774.837C417.788 777.712 418.916 780.223 419.825 782.478C420.699 784.734 421.572 786.626 422.336 788.155C423.755 791.248 424.483 792.994 424.374 793.067C424.264 793.14 423.318 791.502 421.681 788.482C420.844 786.99 419.862 785.135 418.879 782.915C417.861 780.696 416.623 778.221 415.568 775.347C413.203 769.67 410.911 762.721 408.873 754.861C406.945 746.965 405.307 738.16 404.434 728.809C403.633 719.457 403.706 710.506 404.216 702.392C404.834 694.278 405.889 687.037 407.199 681.033C407.745 678.013 408.509 675.357 409.128 672.992C409.71 670.627 410.329 668.626 410.911 666.988C412.002 663.75 412.657 661.967 412.766 662.003Z" fill="#263238"/>
<path d="M429.249 998.541C429.249 998.541 429.722 998.65 430.668 998.941C431.651 999.268 432.997 999.742 434.707 1000.32C438.346 1001.6 443.549 1003.45 450.208 1005.78C453.591 1006.98 457.303 1008.33 461.415 1009.78C465.526 1011.17 470.074 1012.44 474.914 1013.97C484.629 1016.84 495.581 1020.59 508.025 1023.5C514.211 1025.1 520.688 1026.74 527.419 1028.49C534.187 1030.2 541.319 1031.47 548.669 1033.04C563.296 1036.38 579.197 1038.67 595.862 1041.37C629.301 1045.92 666.343 1049.01 705.276 1049.19C744.246 1049.05 781.287 1045.92 814.726 1041.37C831.391 1038.67 847.255 1036.38 861.919 1033.04C869.269 1031.43 876.401 1030.2 883.169 1028.49C889.9 1026.74 896.377 1025.1 902.563 1023.5C915.007 1020.59 925.923 1016.84 935.674 1013.97C940.514 1012.48 945.062 1011.17 949.174 1009.78C953.249 1008.33 956.997 1006.98 960.381 1005.78C967.039 1003.42 972.243 1001.6 975.881 1000.32C977.591 999.742 978.938 999.268 979.92 998.941C980.83 998.65 981.303 998.504 981.339 998.541C981.376 998.577 980.903 998.759 979.993 999.123C979.01 999.523 977.701 1000.03 975.99 1000.69C972.388 1002.03 967.185 1004 960.599 1006.51C957.251 1007.75 953.504 1009.17 949.465 1010.66C945.353 1012.08 940.841 1013.42 936.002 1014.99C926.287 1017.97 915.371 1021.79 902.927 1024.81C896.741 1026.45 890.264 1028.16 883.496 1029.91C876.728 1031.65 869.597 1032.96 862.247 1034.56C847.583 1037.98 831.682 1040.35 814.981 1043.08C781.469 1047.74 744.355 1050.9 705.276 1051.05C666.233 1050.86 629.083 1047.7 595.607 1043.04C578.906 1040.28 563.005 1037.95 548.342 1034.49C540.992 1032.85 533.86 1031.54 527.092 1029.83C520.36 1028.05 513.847 1026.34 507.662 1024.74C495.217 1021.72 484.302 1017.9 474.586 1014.91C469.747 1013.35 465.235 1012 461.123 1010.58C457.048 1009.06 453.337 1007.67 449.989 1006.44C443.367 1003.93 438.2 1002 434.598 1000.61C432.924 999.96 431.578 999.45 430.595 999.05C429.686 998.686 429.249 998.504 429.249 998.468V998.541Z" fill="#263238"/>
<g opacity="0.3">
<path d="M430.377 998.978C430.377 998.978 461.997 933.373 706.222 930.608C950.447 927.806 982.067 998.978 982.067 998.978C982.067 998.978 735.731 1120.47 430.413 998.978H430.377Z" fill="black"/>
</g>
<path d="M653.098 484.365C653.098 484.365 652.807 484.438 652.261 484.511C651.606 484.584 650.769 484.656 649.787 484.729C647.604 484.947 644.402 485.02 640.29 485.53C632.067 486.257 620.205 487.895 605.832 491.242C591.46 494.553 574.649 499.939 556.965 508.126C539.282 516.276 520.834 527.483 503.441 541.747C486.158 556.119 471.639 572.129 460.287 587.921C448.898 603.749 440.42 619.213 434.416 632.676C428.412 646.139 424.555 657.492 422.263 665.424C420.99 669.353 420.335 672.483 419.68 674.593C419.389 675.539 419.17 676.34 418.988 676.958C418.806 677.504 418.734 677.759 418.697 677.759C418.697 677.759 418.697 677.468 418.806 676.922C418.952 676.267 419.098 675.466 419.316 674.484C419.825 672.374 420.407 669.208 421.535 665.205C423.609 657.2 427.284 645.739 433.179 632.13C439.037 618.522 447.442 602.876 458.868 586.902C470.257 570.928 484.811 554.773 502.24 540.255C519.779 525.882 538.408 514.675 556.238 506.525C574.103 498.374 591.059 493.062 605.541 489.896C620.023 486.694 631.958 485.275 640.217 484.766C644.329 484.402 647.567 484.438 649.751 484.329C650.733 484.329 651.57 484.329 652.225 484.329C652.771 484.329 653.062 484.329 653.062 484.365H653.098Z" fill="white"/>
<path d="M424.664 764.468C424.446 764.54 423.027 761.848 421.353 757.19C419.643 752.569 417.787 745.947 416.623 738.524C415.458 731.065 415.24 724.224 415.422 719.276C415.604 714.327 416.113 711.344 416.368 711.344C416.95 711.344 416.15 723.533 418.478 738.233C420.734 752.933 425.246 764.249 424.664 764.468Z" fill="white"/>
<path d="M363.426 745.656C363.426 745.656 362.589 745.074 361.461 743.691C360.296 742.308 358.805 740.198 357.349 737.323C354.365 731.684 351.818 722.732 353.092 712.872C354.402 703.011 359.241 695.042 363.571 690.349C365.754 687.983 367.719 686.31 369.211 685.291C370.667 684.272 371.54 683.799 371.613 683.908C371.831 684.163 368.556 686.419 364.59 691.222C360.624 695.989 356.221 703.702 354.984 713.09C353.747 722.478 356.003 731.101 358.55 736.705C361.097 742.381 363.717 745.401 363.426 745.619V745.656Z" fill="white"/>
<path d="M696.179 367.419C696.107 367.783 692.868 366.583 687.629 367.201C682.535 367.747 675.185 370.694 670.818 377.389C666.561 384.157 666.925 392.053 668.562 396.929C670.163 401.95 672.601 404.424 672.31 404.643C672.237 404.715 671.546 404.206 670.563 403.042C669.545 401.877 668.307 399.985 667.289 397.402C665.215 392.38 664.523 383.83 669.217 376.407C674.02 369.057 682.062 366.146 687.519 365.928C690.285 365.782 692.541 366.11 693.996 366.546C695.488 366.983 696.216 367.383 696.179 367.456V367.419Z" fill="white"/>
<path d="M1013.29 701.519C1012.89 701.956 1007.21 696.534 998.659 692.459C990.144 688.274 982.394 687.183 982.503 686.601C982.503 686.128 990.617 686.419 999.496 690.749C1008.37 695.006 1013.65 701.228 1013.29 701.519Z" fill="white"/>
<path d="M514.356 1338.54C514.356 1338.54 514.174 1338.32 513.883 1337.84C513.556 1337.26 513.155 1336.57 512.682 1335.7C511.591 1333.66 510.135 1330.86 508.28 1327.36C507.334 1325.55 506.278 1323.51 505.15 1321.29C504.095 1319.03 502.967 1316.56 501.73 1313.94C499.256 1308.66 496.454 1302.66 493.761 1295.82C492.379 1292.43 490.923 1288.87 489.395 1285.16C488.012 1281.41 486.557 1277.48 485.065 1273.44C481.936 1265.4 479.28 1256.56 476.187 1247.39C470.474 1228.87 464.871 1208.27 459.959 1186.44C455.156 1164.57 451.481 1143.58 448.57 1124.4C445.877 1105.19 443.767 1087.87 442.602 1073.24C441.911 1065.93 441.474 1059.34 441.11 1053.52C440.71 1047.7 440.419 1042.71 440.31 1038.6C440.164 1034.64 440.092 1031.51 439.982 1029.18C439.982 1028.2 439.982 1027.4 439.982 1026.74C439.982 1026.19 439.982 1025.9 440.019 1025.9C440.019 1025.9 440.092 1026.19 440.164 1026.74C440.237 1027.4 440.31 1028.2 440.383 1029.18C440.565 1031.51 440.783 1034.64 441.038 1038.6C441.256 1042.68 441.656 1047.7 442.166 1053.48C442.639 1059.27 443.148 1065.89 443.949 1073.17C445.295 1087.76 447.551 1105.04 450.316 1124.18C453.3 1143.32 457.048 1164.24 461.814 1186.08C466.726 1207.87 472.257 1228.39 477.824 1246.91C480.881 1256.08 483.464 1264.93 486.521 1272.97C487.976 1277.01 489.395 1280.94 490.741 1284.68C492.233 1288.39 493.616 1291.96 494.999 1295.34C497.618 1302.19 500.311 1308.23 502.676 1313.54C503.84 1316.19 504.932 1318.67 505.951 1320.96C507.042 1323.18 508.025 1325.22 508.935 1327.07C510.645 1330.64 512.027 1333.48 513.046 1335.55C513.446 1336.46 513.774 1337.19 514.065 1337.77C514.283 1338.28 514.393 1338.54 514.356 1338.57V1338.54Z" fill="white"/>
<path d="M371.795 1041.91C371.758 1042.42 359.86 1042.02 345.196 1040.97C330.532 1039.91 318.707 1038.64 318.743 1038.13C318.78 1037.62 330.678 1038.02 345.342 1039.08C359.969 1040.13 371.831 1041.4 371.795 1041.91Z" fill="white"/>
<path d="M234.909 964.192C234.436 964.447 228.251 953.895 221.046 940.614C213.842 927.333 208.42 916.381 208.857 916.126C209.33 915.871 215.515 926.423 222.72 939.704C229.924 952.985 235.346 963.937 234.909 964.192Z" fill="white"/>
<path d="M643.346 1453.26C643.346 1453.26 641.818 1453.19 639.089 1452.75C636.36 1452.35 632.466 1451.41 627.7 1449.99C622.933 1448.6 617.403 1446.49 611.472 1443.76C605.577 1440.93 599.282 1437.4 593.06 1433.07C586.874 1428.66 581.416 1423.93 576.759 1419.35C572.174 1414.69 568.317 1410.18 565.406 1406.18C562.459 1402.21 560.276 1398.83 558.966 1396.39C557.62 1393.99 556.928 1392.6 557.038 1392.57C557.329 1392.39 560.385 1397.66 566.462 1405.38C569.482 1409.23 573.375 1413.56 577.996 1418.11C582.654 1422.59 588.075 1427.21 594.152 1431.5C600.265 1435.76 606.45 1439.29 612.236 1442.2C618.057 1445 623.479 1447.18 628.1 1448.75C637.379 1451.88 643.419 1452.93 643.346 1453.3V1453.26Z" fill="white"/>
<path d="M699.199 1284.94C699.199 1284.94 698.326 1285.08 696.652 1285.19C694.978 1285.19 692.504 1285.59 689.302 1285.41C682.898 1285.41 673.62 1284.36 662.631 1281.08C657.137 1279.48 651.315 1277.08 645.238 1274.09C639.307 1270.89 633.049 1267.22 627.154 1262.41C615.256 1253.03 604.194 1239.89 597.063 1223.81C590.186 1207.62 588.112 1190.55 589.385 1175.45C589.895 1167.88 591.496 1160.79 593.206 1154.27C595.171 1147.83 597.39 1141.94 599.974 1136.81C605.068 1126.55 610.671 1119.05 615.038 1114.36C617.075 1111.88 619.04 1110.32 620.204 1109.12C621.442 1107.95 622.097 1107.37 622.133 1107.45C622.278 1107.59 619.695 1110.03 615.583 1114.83C611.435 1119.63 606.05 1127.17 601.174 1137.39C598.7 1142.49 596.59 1148.34 594.734 1154.71C593.097 1161.15 591.605 1168.14 591.132 1175.6C589.967 1190.48 592.041 1207.18 598.809 1223.08C605.795 1238.84 616.602 1251.79 628.246 1261.07C634.031 1265.84 640.144 1269.51 645.966 1272.71C651.897 1275.7 657.61 1278.13 663.031 1279.81C673.838 1283.23 683.007 1284.43 689.339 1284.68C695.67 1284.94 699.199 1284.76 699.199 1284.94Z" fill="white"/>
<path d="M258.669 998.396C258.524 998.687 255.868 997.34 251.247 996.285C246.662 995.23 240.076 994.83 233.09 996.467C226.104 998.177 220.427 1001.52 216.825 1004.54C213.223 1007.56 211.44 1009.97 211.185 1009.78C211.04 1009.71 212.422 1006.95 215.952 1003.56C219.445 1000.18 225.339 996.431 232.653 994.648C239.967 992.901 246.917 993.556 251.574 995.012C256.268 996.431 258.742 998.25 258.633 998.396H258.669Z" fill="white"/>
<path d="M795.951 636.606C795.951 637.115 751.269 637.552 696.18 637.552C641.091 637.552 596.408 637.115 596.408 636.606C596.408 636.096 641.091 635.66 696.18 635.66C751.269 635.66 795.951 636.096 795.951 636.606Z" fill="white"/>
<path d="M625.699 864.129C625.699 864.129 625.117 864.275 624.025 864.42C622.679 864.53 621.078 864.675 619.149 864.857C617.039 865.039 614.455 865.221 611.435 865.257C608.415 865.33 604.995 865.512 601.211 865.367C593.606 865.367 584.582 864.821 574.576 863.766C564.606 862.601 553.69 860.818 542.374 858.198C531.094 855.506 520.542 852.195 511.082 848.811C501.658 845.318 493.362 841.715 486.557 838.368C483.101 836.767 480.117 835.093 477.461 833.674C474.768 832.291 472.549 830.981 470.729 829.89C469.092 828.871 467.709 828.034 466.545 827.343C465.599 826.761 465.126 826.397 465.162 826.36C465.198 826.324 465.744 826.542 466.727 827.015C467.927 827.634 469.347 828.362 471.057 829.235C472.912 830.254 475.205 831.454 477.934 832.728C480.626 834.038 483.646 835.639 487.139 837.131C493.98 840.333 502.313 843.753 511.7 847.137C521.124 850.448 531.64 853.65 542.847 856.343C554.054 858.962 564.897 860.745 574.794 862.019C584.691 863.183 593.679 863.838 601.247 864.02C605.031 864.239 608.452 864.129 611.435 864.166C614.455 864.202 617.039 864.166 619.149 864.093C621.078 864.093 622.679 864.057 624.025 864.02C625.153 864.02 625.735 864.057 625.735 864.129H625.699Z" fill="white"/>
<path d="M916.134 1028.12C916.134 1028.12 915.843 1028.3 915.261 1028.52C914.57 1028.78 913.696 1029.11 912.641 1029.51C910.203 1030.38 906.819 1031.58 902.526 1033.11C898.123 1034.71 892.738 1036.53 886.37 1038.42C880.003 1040.31 872.835 1042.68 864.757 1044.72C860.718 1045.77 856.497 1046.9 852.094 1048.06C847.692 1049.23 843.034 1050.14 838.268 1051.26C828.734 1053.59 818.401 1055.41 807.557 1057.45C785.798 1061.13 761.674 1064.18 736.24 1065.86C710.806 1067.35 686.5 1067.24 664.45 1066.26C653.425 1065.56 642.946 1065.02 633.194 1063.89C628.318 1063.38 623.588 1063.02 619.076 1062.4C614.564 1061.78 610.234 1061.2 606.086 1060.62C597.79 1059.6 590.404 1058.14 583.854 1057.01C577.305 1055.92 571.737 1054.76 567.189 1053.74C562.75 1052.76 559.257 1051.96 556.71 1051.41C555.618 1051.16 554.709 1050.94 553.981 1050.76C553.362 1050.61 553.071 1050.5 553.071 1050.46C553.071 1050.43 553.399 1050.46 554.017 1050.57C554.745 1050.68 555.655 1050.86 556.783 1051.05C559.33 1051.52 562.859 1052.17 567.335 1053.05C571.919 1053.96 577.487 1055.05 584.036 1056C590.586 1057.01 597.972 1058.4 606.268 1059.31C610.416 1059.82 614.746 1060.4 619.222 1060.94C623.734 1061.49 628.464 1061.82 633.34 1062.33C643.091 1063.38 653.534 1063.85 664.523 1064.51C686.536 1065.38 710.77 1065.46 736.131 1063.96C761.492 1062.33 785.544 1059.31 807.266 1055.74C818.11 1053.74 828.407 1051.99 837.94 1049.74C842.707 1048.65 847.364 1047.77 851.767 1046.64C856.17 1045.52 860.39 1044.46 864.429 1043.41C872.543 1041.48 879.712 1039.18 886.079 1037.4C892.447 1035.62 897.905 1033.87 902.308 1032.42C906.638 1031.03 910.058 1029.94 912.532 1029.14C913.624 1028.81 914.497 1028.56 915.225 1028.34C915.843 1028.16 916.134 1028.09 916.171 1028.12H916.134Z" fill="white"/>
</svg>
