<svg width="1800" height="1720" viewBox="0 0 1800 1720" fill="none" xmlns="http://www.w3.org/2000/svg">
<g clip-path="url(#clip0_121_8319)">
<path d="M1190.95 425.472L1187.47 431.287C1158.13 480.343 1157.15 541.484 1186.72 589.784C1190.53 595.978 1194.76 601.945 1199.45 607.534C1233.17 647.828 1288.42 669.203 1341.1 662.33C1372.07 658.289 1403.3 645.223 1433.47 652.662C1472.78 662.33 1494.99 702.285 1512.63 738.387C1530.3 774.49 1552.62 814.445 1591.97 823.924C1616.63 829.89 1643.03 821.96 1664.89 808.856C1722.82 774.188 1754.17 704.513 1752.73 637.707C1751.3 570.902 1720.82 507.458 1678.64 455.834C1619.54 383.478 1534 330.192 1440.31 320.487C1346.61 310.781 1246.12 348.923 1190.95 425.434V425.472Z" fill="#EBEBEB"/>
<path d="M1755.21 1253.85C1761.03 1217.83 1736.55 1183.93 1700.54 1178.11C1664.52 1172.3 1630.62 1196.78 1624.8 1232.79C1618.99 1268.81 1643.47 1302.71 1679.48 1308.53C1715.5 1314.34 1749.4 1289.86 1755.21 1253.85Z" fill="#EBEBEB"/>
<path d="M1211.45 497.075C1211.45 502.664 1206.92 507.196 1201.33 507.196C1195.74 507.196 1191.21 502.664 1191.21 497.075C1191.21 491.486 1195.74 486.954 1201.33 486.954C1206.92 486.954 1211.45 491.486 1211.45 497.075Z" fill="#263238"/>
<path d="M1201.33 498.963H1167.34C1136.45 498.963 1111.33 473.85 1111.33 442.959C1111.33 422.755 1109.97 409.65 1091.89 409.65H1044V405.874H1091.89C1115.11 405.874 1115.11 425.436 1115.11 442.694C1115.11 471.735 1138.56 495.187 1167.34 495.187H1201.33V498.963Z" fill="#263238"/>
<path d="M534.924 777.684C511.396 714.504 460.905 684.973 398.481 672.964C324.651 659.859 246.139 665.524 178.654 698.152C111.094 730.819 55.9954 792.223 39.6812 865.411C23.367 938.598 50.2552 1021.91 111.585 1065.03C172.914 1108.16 266.381 1102.46 316.419 1046.64C342.552 1017.53 357.242 977.08 390.815 956.99C418.571 940.373 453.655 941.431 483.035 927.911C536.283 903.402 555.316 832.594 534.848 777.684H534.924Z" fill="#EBEBEB"/>
<path d="M284.448 1348H87V1539H284.448V1348Z" fill="#F5F5F5"/>
<path d="M107.529 1517.44L162.153 1419.14L206.831 1481.94L233.96 1448.58L274.35 1517.44H107.529Z" fill="#EBEBEB"/>
<path d="M225.872 1400.01C225.872 1407.86 219.515 1414.21 211.668 1414.21C203.821 1414.21 197.465 1407.86 197.465 1400.01C197.465 1392.16 203.821 1385.81 211.668 1385.81C219.515 1385.81 225.872 1392.16 225.872 1400.01Z" fill="#EBEBEB"/>
<path d="M269.119 1523.19C269.119 1523.19 269.119 1522.91 269.088 1522.4C269.088 1521.82 269.088 1521.09 269.058 1520.18C269.058 1518.14 268.997 1515.28 268.967 1511.57C268.906 1504 268.845 1493.05 268.754 1479.12C268.663 1451.23 268.511 1411.48 268.328 1363.79L269.149 1364.58C220.821 1364.61 163.552 1364.67 102.359 1364.7C102.146 1364.88 104.123 1362.94 103.271 1363.79V1385.41C103.271 1392.56 103.271 1399.68 103.271 1406.67C103.271 1420.72 103.271 1434.44 103.271 1447.82C103.241 1474.59 103.21 1499.86 103.18 1523.13L102.359 1522.31C152.147 1522.49 193.722 1522.61 222.981 1522.73C237.549 1522.82 249.046 1522.88 257.014 1522.94C260.907 1522.97 263.918 1523.01 266.047 1523.04C267.02 1523.04 267.781 1523.07 268.389 1523.07C268.936 1523.07 269.21 1523.1 269.21 1523.13C269.21 1523.13 268.967 1523.16 268.48 1523.16C267.902 1523.16 267.172 1523.16 266.229 1523.22C264.131 1523.22 261.181 1523.28 257.379 1523.31C249.471 1523.37 238.036 1523.43 223.559 1523.52C194.209 1523.61 152.42 1523.77 102.42 1523.95H101.599V1523.13C101.599 1499.86 101.538 1474.56 101.507 1447.82C101.507 1434.44 101.507 1420.69 101.507 1406.67C101.507 1399.65 101.507 1392.56 101.507 1385.41V1366.49V1365.13V1363.85C100.686 1364.64 102.663 1362.63 102.48 1362.84C163.704 1362.91 220.973 1362.94 269.271 1362.97H270.092V1363.79C269.91 1411.69 269.788 1451.62 269.666 1479.63C269.575 1493.47 269.514 1504.36 269.453 1511.9C269.423 1515.52 269.393 1518.35 269.362 1520.36C269.362 1521.24 269.332 1521.94 269.332 1522.49C269.332 1522.97 269.332 1523.19 269.301 1523.19H269.119Z" fill="#EBEBEB"/>
<path d="M1049.46 947.981C1051.16 942.732 1053.58 937.785 1056.56 933.291L1049.24 920.073L1067.89 903.381L1080.2 912.143C1085.04 909.688 1090.17 907.875 1095.61 906.743L1099.76 892.203L1124.76 893.601L1127.26 908.517C1132.51 910.217 1137.45 912.634 1141.95 915.617L1155.17 908.291L1171.86 926.946L1163.1 939.258C1165.55 944.091 1167.36 949.227 1168.5 954.666L1183.04 958.82L1181.64 983.82L1166.72 986.312C1165.02 991.561 1162.6 996.508 1159.62 1001L1166.95 1014.22L1148.29 1030.91L1135.98 1022.15C1131.15 1024.61 1126.01 1026.42 1120.57 1027.55L1116.42 1042.09L1091.42 1040.69L1088.93 1025.78C1083.68 1024.08 1078.73 1021.66 1074.24 1018.68L1061.02 1026L1044.33 1007.35L1053.09 995.036C1050.63 990.202 1048.82 985.066 1047.69 979.628L1033.15 975.474L1034.55 950.474L1049.46 947.981ZM1081.34 964.522C1080.51 979.326 1091.83 992.015 1106.64 992.845C1121.44 993.676 1134.13 982.347 1134.96 967.543C1135.79 952.74 1124.46 940.051 1109.66 939.22C1094.86 938.389 1082.17 949.718 1081.34 964.522Z" fill="#E0E0E0"/>
<path d="M1015.59 655.496C1022.61 647.414 1030.62 640.466 1039.34 634.688L1036.28 605.571L1082.17 589.975L1097.46 614.937C1107.88 614.22 1118.49 614.862 1128.99 616.976L1147.42 594.242L1190.89 615.655L1184.05 644.129C1192.13 651.153 1199.08 659.159 1204.86 667.883L1233.98 664.824L1249.57 710.708L1224.61 726.04C1225.33 736.463 1224.69 747.075 1222.57 757.573L1245.31 776.002L1223.89 819.469L1195.42 812.634C1188.4 820.715 1180.39 827.664 1171.67 833.442L1174.73 862.558L1128.84 878.155L1113.51 853.193C1103.09 853.91 1092.47 853.268 1081.98 851.153L1063.55 873.888L1020.08 852.475L1026.92 824.001C1018.83 816.977 1011.89 808.971 1006.11 800.247L976.991 803.306L961.395 757.422L986.357 742.09C985.639 731.667 986.281 721.055 988.396 710.557L965.662 692.127L987.074 648.661L1015.55 655.496H1015.59ZM1059.85 709.084C1047.16 734.839 1057.73 765.995 1083.49 778.684C1109.24 791.372 1140.4 780.798 1153.09 755.043C1165.78 729.288 1155.2 698.132 1129.45 685.443C1103.69 672.754 1072.54 683.328 1059.85 709.084Z" fill="#E0E0E0"/>
<path d="M316.456 266.22C321.214 260.782 326.614 256.1 332.468 252.172L330.391 232.535L361.32 222.036L371.629 238.879C378.654 238.388 385.791 238.841 392.891 240.276L405.315 224.944L434.62 239.408L430.013 258.592C435.451 263.35 440.172 268.751 444.062 274.604L463.699 272.527L474.198 303.456L457.355 313.766C457.846 320.79 457.392 327.928 455.957 335.027L471.29 347.452L456.864 376.757L437.679 372.15C432.921 377.588 427.521 382.27 421.667 386.198L423.744 405.835L392.815 416.334L382.506 399.491C375.481 399.982 368.344 399.529 361.244 398.094L348.82 413.426L319.515 398.962L324.122 379.778C318.684 375.02 313.963 369.619 310.073 363.766L290.436 365.843L279.938 334.914L296.78 324.604C296.289 317.58 296.743 310.443 298.178 303.343L282.845 290.918L297.271 261.613L316.456 266.22ZM346.327 302.361C337.755 319.733 344.892 340.73 362.264 349.302C379.636 357.875 400.632 350.737 409.205 333.366C417.778 315.994 410.64 294.997 393.268 286.424C375.897 277.852 354.9 284.989 346.327 302.361Z" fill="#E0E0E0"/>
<path d="M280.108 793.756C304.692 783.446 322.177 758.106 322.29 728.235C322.441 689.111 292.834 657.275 256.165 657.086C219.496 656.935 189.624 688.506 189.473 727.63C189.36 757.766 206.958 783.408 231.807 793.756C129.579 809.164 134.224 920.229 134.224 920.229L375.916 921.362C375.916 921.362 381.429 809.05 280.108 793.756Z" fill="#F5F5F5"/>
<path d="M1051.01 1093.98C1056.41 1087.63 1062.61 1082.12 1069.33 1077.51L1066.65 1054.82L1102.26 1042.2L1114.46 1061.54C1122.58 1060.9 1130.85 1061.27 1139.08 1062.82L1153.24 1044.88L1187.34 1061.16L1182.32 1083.44C1188.66 1088.84 1194.18 1095.04 1198.78 1101.76L1221.48 1099.08L1234.09 1134.69L1214.76 1146.89C1215.4 1155.01 1215.02 1163.28 1213.47 1171.47L1231.41 1185.63L1215.14 1219.73L1192.85 1214.71C1187.45 1221.06 1181.26 1226.57 1174.54 1231.18L1177.22 1253.87L1141.61 1266.49L1129.41 1247.15C1121.29 1247.79 1113.02 1247.42 1104.83 1245.87L1090.66 1263.81L1056.56 1247.53L1061.59 1225.25C1055.24 1219.85 1049.73 1213.65 1045.12 1206.93L1022.42 1209.61L1009.81 1174L1029.15 1161.8C1028.5 1153.68 1028.88 1145.41 1030.43 1137.22L1012.49 1123.06L1028.77 1088.96L1051.05 1093.98H1051.01ZM1086.06 1135.33C1076.43 1155.53 1084.96 1179.74 1105.17 1189.37C1125.37 1199 1149.58 1190.47 1159.21 1170.26C1168.84 1150.06 1160.3 1125.85 1140.1 1116.22C1119.89 1106.59 1095.69 1115.13 1086.06 1135.33Z" fill="#E0E0E0"/>
<path d="M1086.06 1135.33C1086.06 1135.33 1087.15 1131.86 1091.15 1126.68C1095.08 1121.66 1102.67 1114.98 1114.23 1112.45C1119.93 1111.24 1126.54 1111.01 1133.22 1112.82C1139.87 1114.64 1146.71 1118.11 1152.11 1123.74C1154.9 1126.46 1157.28 1129.74 1159.17 1133.33C1161.13 1136.92 1162.57 1140.88 1163.32 1145.04C1165.02 1153.34 1163.89 1162.52 1160.07 1170.68C1156.11 1178.76 1149.73 1185.41 1142.21 1189.33C1138.47 1191.37 1134.51 1192.73 1130.5 1193.49C1126.5 1194.28 1122.46 1194.47 1118.61 1194.02C1110.83 1193.34 1103.84 1190.2 1098.25 1186.16C1092.66 1182.08 1088.66 1176.83 1086.02 1171.62C1080.73 1161.05 1081.15 1150.97 1082.58 1144.73C1084.05 1138.39 1086.09 1135.33 1086.09 1135.33C1086.36 1135.44 1084.58 1138.62 1083.34 1144.89C1082.17 1151.04 1081.98 1160.86 1087.26 1170.98C1089.91 1175.97 1093.8 1180.99 1099.24 1184.84C1104.64 1188.62 1111.36 1191.6 1118.8 1192.2C1122.5 1192.62 1126.35 1192.39 1130.17 1191.64C1133.98 1190.92 1137.79 1189.6 1141.34 1187.63C1148.52 1183.9 1154.6 1177.55 1158.34 1169.85C1161.96 1162.07 1163.06 1153.38 1161.47 1145.41C1160.75 1141.45 1159.39 1137.63 1157.54 1134.2C1155.73 1130.76 1153.47 1127.63 1150.82 1124.98C1145.69 1119.58 1139.15 1116.22 1132.81 1114.37C1126.39 1112.56 1120.04 1112.71 1114.49 1113.77C1103.28 1116.03 1095.76 1122.34 1091.72 1127.14C1087.6 1132.05 1086.25 1135.41 1086.02 1135.29L1086.06 1135.33Z" fill="#263238"/>
<path d="M1051.01 1093.98C1051.01 1093.98 1050.56 1093.9 1049.61 1093.71C1048.59 1093.49 1047.2 1093.22 1045.38 1092.85C1041.53 1092.01 1035.94 1090.81 1028.69 1089.22L1029.03 1089.03C1024.92 1097.75 1019.48 1109.27 1012.91 1123.21L1012.76 1122.6C1018.19 1126.87 1024.24 1131.63 1030.73 1136.69L1031 1136.92L1030.92 1137.26C1029.52 1144.81 1028.99 1153.08 1029.71 1161.69V1162.07L1029.41 1162.29C1023.41 1166.11 1016.87 1170.22 1010.11 1174.53L1010.41 1173.7C1014.42 1184.92 1018.65 1196.81 1023.1 1209.31L1022.27 1208.78C1029.3 1207.95 1037.04 1207.01 1044.97 1206.06L1045.46 1205.99L1045.72 1206.4C1049.99 1212.67 1055.54 1219.02 1062.08 1224.53L1062.45 1224.87L1062.34 1225.36C1060.79 1232.27 1059.09 1239.86 1057.32 1247.64L1056.83 1246.66C1067.55 1251.76 1079.11 1257.27 1090.97 1262.9L1089.87 1263.16C1094.29 1257.57 1099.12 1251.46 1103.99 1245.22L1104.33 1244.77L1104.9 1244.89C1112.42 1246.28 1120.84 1246.85 1129.26 1246.13H1129.83L1130.13 1246.58C1133.94 1252.63 1138.13 1259.24 1142.33 1265.88L1141.19 1265.5C1152.48 1261.5 1164.57 1257.23 1176.8 1252.89L1176.16 1253.91C1175.33 1246.74 1174.39 1239.03 1173.48 1231.21L1173.41 1230.61L1173.9 1230.27C1180.32 1225.89 1186.59 1220.38 1192.02 1213.99L1192.4 1213.54L1192.97 1213.65C1200.44 1215.35 1207.85 1217.01 1215.25 1218.68L1214.15 1219.21C1219.67 1207.69 1225.07 1196.32 1230.43 1185.1L1230.69 1186.27C1224.65 1181.52 1218.68 1176.8 1212.79 1172.11L1212.34 1171.74L1212.45 1171.17C1214 1163.05 1214.38 1154.85 1213.74 1146.81V1146.24L1214.19 1145.94C1220.72 1141.83 1227.14 1137.79 1233.53 1133.78L1233.15 1134.88C1228.84 1122.72 1224.65 1110.82 1220.57 1099.23L1221.52 1099.83C1213.81 1100.74 1206.26 1101.61 1198.82 1102.48L1198.29 1102.55L1197.99 1102.1C1193.31 1095.19 1187.76 1089.11 1181.68 1083.93L1181.3 1083.59L1181.41 1083.1C1183.15 1075.47 1184.85 1068.07 1186.47 1060.86L1186.93 1061.77C1174.95 1056.03 1163.62 1050.59 1152.86 1045.41L1153.77 1045.19C1148.78 1051.49 1144.1 1057.38 1139.57 1063.09L1139.3 1063.43L1138.89 1063.35C1130.32 1061.73 1122.16 1061.43 1114.46 1062.03H1114.08L1113.89 1061.73C1109.47 1054.7 1105.51 1048.36 1101.77 1042.39L1102.45 1042.62C1088.62 1047.45 1076.84 1051.57 1066.76 1055.08L1067.06 1054.63C1068.08 1063.69 1068.91 1071.13 1069.63 1077.32V1077.51L1069.48 1077.63C1062.6 1082.27 1058.11 1086.54 1055.2 1089.45C1053.77 1090.88 1052.75 1092.01 1052.03 1092.77C1051.31 1093.53 1050.97 1093.87 1050.97 1093.87C1050.97 1093.87 1051.28 1093.41 1051.92 1092.66C1052.56 1091.9 1053.58 1090.73 1054.98 1089.22C1057.81 1086.27 1062.26 1081.89 1069.14 1077.14L1068.99 1077.44C1068.23 1071.24 1067.33 1063.84 1066.19 1054.78V1054.44L1066.49 1054.33C1076.54 1050.74 1088.28 1046.51 1102.07 1041.6L1102.52 1041.45L1102.79 1041.83C1106.56 1047.79 1110.57 1054.1 1115.02 1061.12L1114.42 1060.82C1122.2 1060.18 1130.47 1060.44 1139.19 1062.07L1138.51 1062.33C1143.01 1056.63 1147.65 1050.7 1152.63 1044.39L1153.01 1043.94L1153.54 1044.21C1164.34 1049.34 1175.67 1054.7 1187.68 1060.44L1188.28 1060.71L1188.13 1061.35C1186.51 1068.56 1184.85 1076 1183.11 1083.63L1182.85 1082.8C1189.04 1088.05 1194.7 1094.24 1199.5 1101.27L1198.67 1100.89C1206.11 1100.02 1213.66 1099.11 1221.37 1098.21L1222.08 1098.13L1222.31 1098.81C1226.43 1110.41 1230.62 1122.26 1234.96 1134.42L1235.23 1135.14L1234.58 1135.56C1228.24 1139.56 1221.82 1143.64 1215.29 1147.75L1215.74 1146.89C1216.42 1155.08 1216 1163.46 1214.46 1171.74L1214.12 1170.79C1220.04 1175.47 1226.01 1180.16 1232.05 1184.92L1232.66 1185.41L1232.32 1186.12C1226.96 1197.34 1221.55 1208.71 1216.04 1220.22L1215.7 1220.94L1214.95 1220.75C1207.58 1219.09 1200.14 1217.39 1192.67 1215.73L1193.65 1215.39C1188.1 1221.92 1181.68 1227.59 1175.14 1232.05L1175.56 1231.14C1176.46 1238.92 1177.37 1246.66 1178.24 1253.84L1178.31 1254.63L1177.6 1254.89C1165.32 1259.24 1153.24 1263.5 1141.99 1267.47L1141.27 1267.73L1140.85 1267.09C1136.66 1260.41 1132.51 1253.84 1128.69 1247.76L1129.56 1248.21C1120.95 1248.93 1112.38 1248.36 1104.71 1246.89L1105.62 1246.55C1100.71 1252.74 1095.88 1258.9 1091.46 1264.45L1091 1265.01L1090.36 1264.71C1078.54 1259.05 1066.99 1253.53 1056.26 1248.4L1055.62 1248.1L1055.77 1247.42C1057.54 1239.67 1059.28 1232.05 1060.83 1225.17L1061.09 1226C1054.45 1220.38 1048.82 1213.88 1044.52 1207.5L1045.27 1207.84C1037.34 1208.74 1029.6 1209.65 1022.57 1210.48L1021.97 1210.56L1021.78 1209.99C1017.4 1197.49 1013.21 1185.56 1009.24 1174.34L1009.05 1173.81L1009.55 1173.51C1016.34 1169.24 1022.88 1165.16 1028.88 1161.35L1028.58 1161.95C1027.9 1153.19 1028.5 1144.85 1029.94 1137.18L1030.16 1137.75C1023.71 1132.61 1017.7 1127.85 1012.3 1123.55L1012 1123.28L1012.19 1122.94C1018.87 1109.08 1024.42 1097.6 1028.62 1088.92L1028.73 1088.69L1028.96 1088.77C1036.13 1090.47 1041.65 1091.79 1045.46 1092.66C1047.27 1093.11 1048.71 1093.45 1049.73 1093.71C1050.67 1093.94 1051.2 1094.13 1051.2 1094.13L1051.01 1093.98Z" fill="#263238"/>
<path d="M1012.12 208.706L911.134 208.252C897.577 208.177 886.549 219.582 886.512 233.706L886.436 251.984C886.398 266.107 875.333 277.512 861.814 277.437L664.948 276.53C651.39 276.455 640.477 264.974 640.514 250.851L640.59 232.573C640.665 218.449 629.714 206.968 616.156 206.893L580.62 206.742L492.214 206.326C448.294 206.138 412.568 241.447 412.38 285.254L406.979 1556.37C406.79 1600.13 442.214 1635.75 486.096 1635.94L1005.96 1638.31C1049.84 1638.5 1085.61 1603.19 1085.79 1559.42L1091.19 288.313C1091.38 244.544 1055.96 208.932 1012.12 208.743V208.706Z" fill="#FAFAFA"/>
<path d="M1012.11 208.706C1012.11 208.706 1013.02 208.706 1014.83 208.819C1016.61 209.008 1019.37 208.819 1022.88 209.461C1029.9 210.33 1040.59 212.633 1052.6 219.808C1058.68 223.245 1064.83 228.192 1070.65 234.499C1076.47 240.843 1081.87 248.736 1085.72 258.215C1089.61 267.656 1091.72 278.683 1091.57 290.428C1091.57 302.135 1091.5 314.597 1091.46 327.815C1091.08 433.517 1090.55 586.387 1089.87 775.323C1089.12 964.258 1088.25 1189.22 1087.27 1439.03C1087.15 1470.26 1087 1501.87 1086.89 1533.86C1086.89 1541.86 1086.81 1549.87 1086.78 1557.91C1086.59 1566 1085.87 1574.23 1083.38 1582.05C1080.96 1589.86 1077.45 1597.34 1072.88 1604.18C1068.16 1610.94 1062.45 1616.98 1056 1622.11C1049.58 1627.36 1042.1 1631.21 1034.36 1634.16C1030.51 1635.75 1026.43 1636.65 1022.39 1637.63C1018.27 1638.24 1014.15 1639.03 1009.96 1639.07C993.346 1639.41 976.843 1639.03 960.113 1639.07C926.768 1638.92 893.082 1638.77 859.094 1638.62C791.118 1638.31 721.971 1638.01 651.805 1637.67C616.722 1637.52 581.374 1637.33 545.763 1637.18C527.976 1637.11 510.113 1637.03 492.213 1636.92C474.237 1637.75 455.657 1632.99 440.664 1622.57C425.634 1612.18 414.494 1596.55 409.32 1579.18C406.563 1570.53 406.034 1561.28 406.072 1552.36C406.11 1543.45 406.148 1534.54 406.185 1525.63C406.336 1490.01 406.488 1454.67 406.639 1419.55C406.941 1349.34 407.243 1280.16 407.545 1212.18C408.149 1076.23 408.716 945.111 409.282 820.187C409.848 695.262 410.377 576.569 410.868 465.466C411.133 409.914 411.359 356.289 411.624 304.703C411.624 298.245 411.699 291.863 411.699 285.481C411.888 282.271 411.926 279.061 412.341 275.889C412.908 272.754 413.134 269.544 414.116 266.485C417.213 254.136 423.028 242.543 431.374 233.215C439.607 223.849 449.841 216.447 461.095 211.689C463.965 210.707 466.797 209.499 469.705 208.743C472.651 208.101 475.521 207.082 478.542 206.78C481.525 206.327 484.471 205.836 487.492 205.798C490.476 205.609 493.459 205.533 496.404 205.609C520.007 205.722 543.081 205.836 565.551 205.949C576.767 206.024 587.87 206.062 598.822 206.138C604.297 206.138 609.735 206.213 615.136 206.213C620.612 206.024 626.201 207.762 630.581 210.972C634.962 214.219 638.285 218.827 639.909 223.925C641.76 229.061 641.193 234.499 641.231 239.597C641.231 242.165 641.231 244.771 641.193 247.301C641.193 249.869 641.08 252.399 641.495 254.854C642.213 259.763 644.441 264.408 647.726 268.034C651.012 271.697 655.355 274.227 660.075 275.322C662.455 275.813 664.796 275.926 667.288 275.889C669.743 275.889 672.16 275.889 674.577 275.926C684.282 275.964 693.837 276.04 703.202 276.077C740.74 276.266 775.634 276.455 807.772 276.644C823.86 276.719 839.23 276.833 853.882 276.908C857.545 276.87 861.209 277.097 864.683 276.795C868.157 276.38 871.518 275.171 874.388 273.358C880.204 269.695 884.169 263.691 885.491 257.308C886.209 254.136 886.057 250.889 886.095 247.679C886.095 244.469 886.095 241.296 886.133 238.2C886.209 235.103 886.02 231.969 886.624 228.947C887.19 225.926 888.248 223.094 889.721 220.526C892.666 215.352 897.311 211.463 902.523 209.537C907.772 207.384 913.286 208.101 918.27 207.988C938.588 208.101 955.808 208.215 969.706 208.328C983.603 208.441 994.215 208.517 1001.35 208.555C1008.49 208.63 1012.11 208.706 1012.11 208.706C1012.11 208.706 1008.45 208.743 1001.35 208.743C994.215 208.743 983.603 208.743 969.706 208.706C955.808 208.668 938.588 208.63 918.27 208.555C913.21 208.668 907.81 207.988 902.749 210.103C897.689 211.991 893.157 215.805 890.325 220.828C888.89 223.321 887.87 226.115 887.304 229.061C886.7 231.969 886.888 235.065 886.851 238.162C886.851 241.296 886.851 244.431 886.851 247.641C886.813 250.813 886.964 254.136 886.246 257.46C884.887 264.031 880.846 270.262 874.841 274.038C871.858 275.926 868.384 277.21 864.796 277.626C861.133 277.966 857.583 277.739 853.882 277.777C839.23 277.739 823.86 277.663 807.772 277.588C775.634 277.475 740.702 277.324 703.202 277.173C693.837 277.173 684.282 277.097 674.577 277.059C672.16 277.059 669.705 277.059 667.288 277.059C664.871 277.059 662.303 276.984 659.849 276.455C654.902 275.322 650.332 272.641 646.896 268.827C643.459 265.05 641.118 260.179 640.362 255.043C639.909 252.475 640.06 249.831 640.022 247.301C640.022 244.733 640.022 242.165 640.022 239.597C639.947 234.423 640.476 229.174 638.738 224.34C637.19 219.469 634.018 215.088 629.826 212.029C625.634 208.97 620.423 207.346 615.098 207.535C609.698 207.535 604.26 207.497 598.784 207.459C587.832 207.422 576.767 207.384 565.513 207.308C543.044 207.233 520.007 207.12 496.367 207.044C493.421 206.969 490.475 207.044 487.53 207.233C484.584 207.233 481.676 207.762 478.731 208.215C475.785 208.517 472.953 209.537 470.045 210.179C467.175 210.934 464.418 212.142 461.586 213.086C450.559 217.769 440.475 225.02 432.432 234.234C424.275 243.373 418.572 254.778 415.551 266.901C412.265 279.023 413.436 291.938 413.134 304.816C412.945 356.364 412.719 410.028 412.492 465.579C412.039 576.682 411.586 695.375 411.095 820.3C410.566 945.225 410.037 1076.34 409.509 1212.29C409.244 1280.27 408.942 1349.45 408.64 1419.66C408.489 1454.78 408.338 1490.13 408.187 1525.74C408.187 1534.65 408.111 1543.56 408.074 1552.48C408.074 1561.35 408.527 1570.23 411.246 1578.72C416.306 1595.68 427.145 1610.9 441.835 1621.06C456.525 1631.21 474.463 1635.86 492.288 1635.07C510.189 1635.14 528.051 1635.22 545.838 1635.33C581.412 1635.48 616.76 1635.67 651.881 1635.82C722.085 1636.16 791.231 1636.46 859.169 1636.8C893.157 1636.95 926.843 1637.11 960.189 1637.29C976.843 1637.29 993.497 1637.63 1009.92 1637.33C1014 1637.33 1018.04 1636.54 1022.05 1635.94C1025.97 1634.95 1029.98 1634.05 1033.75 1632.54C1041.31 1629.67 1048.6 1625.89 1054.86 1620.75C1061.17 1615.73 1066.76 1609.8 1071.37 1603.23C1075.82 1596.55 1079.26 1589.22 1081.64 1581.59C1086.44 1566.22 1084.58 1549.87 1085.08 1533.93C1085.23 1501.95 1085.34 1470.34 1085.49 1439.11C1086.62 1189.3 1087.64 964.333 1088.51 775.398C1089.46 586.463 1090.21 433.593 1090.7 327.89C1090.78 314.673 1090.85 302.21 1090.89 290.503C1091.08 278.834 1089.04 267.92 1085.19 258.517C1081.41 249.114 1076.05 241.259 1070.31 234.914C1064.53 228.608 1058.41 223.66 1052.41 220.224C1040.51 213.011 1029.86 210.632 1022.88 209.725C1019.37 209.008 1016.65 209.197 1014.87 208.97C1013.06 208.857 1012.15 208.781 1012.15 208.781L1012.11 208.706Z" fill="#263238"/>
<path d="M923.557 1565.43C923.557 1565.43 924.576 1565.32 926.578 1565.17C927.597 1565.09 928.844 1565.01 930.316 1564.94C931.789 1564.71 933.489 1564.41 935.415 1564.11C939.267 1563.43 943.912 1562.07 949.199 1559.95C954.372 1557.58 960.15 1554.4 965.853 1549.64C971.517 1544.92 976.955 1538.58 981.298 1530.69C985.603 1522.79 988.511 1513.28 989.04 1502.82C989.342 1492.36 989.72 1480.88 985.641 1469.62C983.829 1463.96 980.883 1458.56 977.446 1453.35C973.897 1448.21 969.402 1443.53 964.304 1439.37C959.206 1435.18 953.202 1431.97 946.819 1429.48C943.647 1428.16 940.248 1427.36 936.85 1426.49C933.375 1425.97 929.863 1425.32 926.276 1425.29C911.85 1425.02 896.706 1425.25 881.109 1425.21C849.878 1425.21 816.495 1425.29 781.336 1425.29C711.056 1425.29 633.828 1425.32 552.748 1425.36C532.733 1425.36 513.246 1434.95 501.388 1450.44C495.422 1458.1 491.192 1467.05 489.115 1476.38C488.548 1478.72 488.322 1481.1 487.944 1483.44C487.755 1485.82 487.68 1488.2 487.529 1490.58C487.529 1495.41 487.491 1500.21 487.831 1504.89C489.266 1523.78 499.651 1541.07 514.228 1551.76C521.517 1557.12 529.863 1560.9 538.511 1562.82C547.159 1564.9 556.071 1564.34 564.87 1564.45C635.112 1564.52 698.405 1564.6 751.577 1564.67C804.674 1564.79 847.65 1564.9 877.446 1564.98C892.25 1565.05 903.768 1565.13 911.661 1565.17C915.55 1565.2 918.496 1565.24 920.573 1565.28C922.575 1565.28 923.594 1565.39 923.594 1565.39C923.594 1565.39 922.575 1565.47 920.573 1565.51C918.496 1565.51 915.55 1565.54 911.661 1565.62C903.768 1565.66 892.25 1565.73 877.446 1565.81C847.688 1565.88 804.674 1566 751.577 1566.11C698.405 1566.19 635.15 1566.22 564.87 1566.34C556.147 1566.26 547.083 1566.83 538.133 1564.71C529.221 1562.75 520.648 1558.86 513.133 1553.35C498.103 1542.39 487.415 1524.57 485.905 1505.12C485.565 1500.25 485.603 1495.45 485.603 1490.66C485.754 1488.2 485.792 1485.75 486.018 1483.33C486.434 1480.91 486.66 1478.46 487.227 1476.04C489.379 1466.41 493.722 1457.2 499.878 1449.3C512.076 1433.33 532.166 1423.47 552.786 1423.47C633.866 1423.47 711.094 1423.51 781.374 1423.55C816.494 1423.55 849.878 1423.62 881.147 1423.62C896.782 1423.7 911.812 1423.51 926.389 1423.81C930.052 1423.85 933.64 1424.49 937.189 1425.06C940.664 1425.93 944.138 1426.76 947.386 1428.12C953.919 1430.69 960.037 1434.01 965.211 1438.28C970.384 1442.54 974.954 1447.3 978.579 1452.59C982.091 1457.91 985.037 1463.43 986.887 1469.21C990.966 1480.69 990.513 1492.36 990.173 1502.85C989.569 1513.47 986.548 1523.17 982.129 1531.14C977.711 1539.11 972.122 1545.49 966.344 1550.21C960.566 1554.97 954.674 1558.14 949.425 1560.48C944.063 1562.56 939.38 1563.84 935.49 1564.49C933.564 1564.75 931.865 1565.01 930.354 1565.2C928.881 1565.24 927.635 1565.32 926.616 1565.35C924.614 1565.43 923.594 1565.39 923.594 1565.39L923.557 1565.43Z" fill="#263238"/>
<path d="M998.747 1307.2C998.747 1307.2 998.747 1306.48 998.709 1305.08C998.709 1303.68 998.709 1301.64 998.671 1298.96C998.671 1293.56 998.596 1285.59 998.558 1275.21C998.52 1254.44 998.445 1224.08 998.331 1185.48C998.218 1108.37 998.067 998.472 997.878 867.09L998.747 867.958C881.488 867.958 744.63 868.034 599.161 868.072H599.124L600.106 867.09C600.068 1029.06 599.992 1180.31 599.955 1307.2L599.124 1306.37C719.215 1306.55 819.026 1306.71 888.852 1306.78C923.784 1306.86 951.239 1306.93 969.97 1307.01C979.336 1307.05 986.473 1307.08 991.383 1307.12C996.216 1307.12 998.784 1307.2 998.784 1307.2C998.784 1307.2 996.367 1307.27 991.571 1307.27C986.738 1307.27 979.6 1307.31 970.348 1307.38C951.654 1307.42 924.275 1307.5 889.419 1307.61C819.479 1307.72 719.479 1307.88 599.161 1308.03H598.331V1307.2C598.293 1180.31 598.255 1029.06 598.18 867.09V866.108H599.161H599.199C744.706 866.146 881.564 866.183 998.784 866.221H999.653V867.09C999.464 998.699 999.313 1108.82 999.2 1186.05C999.087 1224.57 999.011 1254.85 998.973 1275.59C998.936 1285.86 998.898 1293.79 998.86 1299.15C998.86 1301.8 998.86 1303.8 998.822 1305.16C998.822 1306.52 998.784 1307.16 998.784 1307.16L998.747 1307.2Z" fill="#263238"/>
<path d="M868.687 416.221C868.687 416.75 819.027 417.203 757.735 417.203C696.443 417.203 646.783 416.75 646.783 416.221C646.783 415.692 696.443 415.239 757.735 415.239C819.027 415.239 868.687 415.692 868.687 416.221Z" fill="#455A64"/>
<path d="M1014.08 394.053C1014.08 397.679 1011.13 400.587 1007.55 400.587C1003.96 400.587 1001.01 397.641 1001.01 394.053C1001.01 390.466 1003.96 387.52 1007.55 387.52C1011.13 387.52 1014.08 390.466 1014.08 394.053Z" fill="#263238"/>
<path d="M1014.08 414.295C1014.08 417.92 1011.13 420.828 1007.55 420.828C1003.96 420.828 1001.01 417.883 1001.01 414.295C1001.01 410.707 1003.96 407.762 1007.55 407.762C1011.13 407.762 1014.08 410.707 1014.08 414.295Z" fill="#263238"/>
<path d="M1014.08 434.537C1014.08 438.162 1011.13 441.07 1007.55 441.07C1003.96 441.07 1001.01 438.124 1001.01 434.537C1001.01 430.949 1003.96 428.003 1007.55 428.003C1011.13 428.003 1014.08 430.949 1014.08 434.537Z" fill="#263238"/>
<path d="M741.157 809.273C741.157 809.273 741.157 808.857 741.119 808.027C741.119 807.158 741.119 805.987 741.081 804.477C741.081 801.305 741.043 796.697 740.968 790.73C740.93 778.684 740.855 761.085 740.741 738.729C740.628 694.016 740.477 630.307 740.326 553.834L741.194 554.703C666.95 554.741 579.298 554.779 485.794 554.854L486.776 553.872C486.738 647.415 486.7 735.028 486.625 809.273L485.756 808.404C562.191 808.593 625.937 808.744 670.651 808.82C693.007 808.933 710.567 809.008 722.614 809.046C728.581 809.084 733.188 809.122 736.361 809.16C737.871 809.16 739.042 809.16 739.91 809.197C740.703 809.197 741.157 809.235 741.157 809.235C741.157 809.235 740.779 809.235 740.024 809.273C739.193 809.273 738.06 809.273 736.549 809.311C733.415 809.311 728.883 809.348 722.954 809.424C710.945 809.462 693.422 809.537 671.179 809.651C626.353 809.764 562.418 809.915 485.756 810.066H484.887V809.197C484.85 734.952 484.812 647.301 484.736 553.797V552.815H485.718C579.223 552.853 666.874 552.89 741.119 552.966H741.987V553.834C741.799 630.496 741.648 694.431 741.572 739.258C741.459 761.539 741.383 779.024 741.345 791.07C741.308 796.962 741.27 801.531 741.232 804.666C741.232 806.138 741.232 807.309 741.194 808.14C741.194 808.895 741.157 809.273 741.157 809.273Z" fill="#263238"/>
<path d="M740.288 555.043C740.288 555.043 740.137 555.308 739.722 555.798C739.231 556.327 738.665 557.007 737.947 557.838C736.248 559.726 733.906 562.294 730.961 565.542C724.881 572.226 715.93 581.78 704.828 593.525C682.622 617.015 651.542 649.114 616.497 683.82C581.414 718.525 549.05 749.303 525.334 771.282C513.475 782.272 503.808 791.108 497.086 797.151C493.8 800.059 491.194 802.362 489.306 804.062C488.475 804.779 487.796 805.346 487.267 805.836C486.814 806.214 486.549 806.403 486.512 806.403C486.512 806.403 486.701 806.139 487.116 805.685C487.645 805.157 488.249 804.552 489.042 803.797C490.892 802.06 493.385 799.643 496.557 796.622C503.241 790.278 512.72 781.327 524.352 770.3C547.803 748.057 580.054 717.166 615.099 682.46C650.145 647.755 681.338 615.844 703.808 592.581C714.949 581.025 723.974 571.659 730.394 565.013C733.453 561.879 735.87 559.386 737.645 557.536C738.438 556.78 739.042 556.138 739.571 555.647C740.024 555.232 740.251 555.005 740.288 555.043Z" fill="#263238"/>
<path d="M741.157 809.273C740.779 809.651 683.264 752.778 612.758 682.271C542.214 611.728 485.341 554.25 485.756 553.872C486.134 553.495 543.611 610.33 614.155 680.874C684.661 751.38 741.534 808.895 741.157 809.273Z" fill="#263238"/>
<path d="M993.385 609.801C993.385 609.801 993.385 609.461 993.309 608.895C993.309 608.215 993.309 607.384 993.234 606.327C993.234 603.986 993.158 600.7 993.083 596.471C993.007 587.822 992.894 575.36 992.78 559.65L993.347 560.217C945.575 560.292 867.252 560.443 778.77 560.632C780.733 558.668 779.298 560.103 779.751 559.65V566.07C779.751 568.223 779.751 570.338 779.751 572.452C779.751 576.682 779.751 580.912 779.751 585.103C779.751 593.487 779.751 601.72 779.751 609.801L778.77 608.819C839.721 609.008 893.196 609.159 931.602 609.273C950.749 609.386 966.119 609.499 976.806 609.537C982.055 609.575 986.134 609.65 989.042 609.65C990.364 609.65 991.421 609.688 992.252 609.726C992.969 609.726 993.347 609.764 993.385 609.801C993.385 609.801 993.083 609.839 992.365 609.877C991.572 609.877 990.552 609.877 989.268 609.952C986.398 609.952 982.395 610.028 977.259 610.066C966.61 610.141 951.315 610.217 932.282 610.33C893.725 610.443 839.986 610.594 778.77 610.783H777.788V609.801C777.788 601.72 777.788 593.449 777.788 585.103C777.788 580.912 777.788 576.682 777.788 572.452C777.788 570.338 777.788 568.185 777.788 566.07V561.236V560.443V559.726V559.65C778.241 559.197 776.806 560.632 778.77 558.668C867.252 558.819 945.575 558.97 993.347 559.084H993.913V559.65C993.762 575.511 993.687 588.087 993.611 596.81C993.536 600.964 993.498 604.212 993.46 606.554C993.46 607.573 993.422 608.366 993.385 609.008C993.385 609.537 993.385 609.839 993.347 609.801H993.385Z" fill="#263238"/>
<path d="M1025.6 668.374C1025.6 668.903 971.858 669.356 905.582 669.356C839.305 669.356 785.566 668.903 785.566 668.374C785.566 667.845 839.305 667.392 905.582 667.392C971.858 667.392 1025.6 667.845 1025.6 668.374Z" fill="#263238"/>
<path d="M1025.6 694.771C1025.6 695.3 971.858 695.753 905.582 695.753C839.305 695.753 785.566 695.3 785.566 694.771C785.566 694.243 839.305 693.789 905.582 693.789C971.858 693.789 1025.6 694.243 1025.6 694.771Z" fill="#263238"/>
<path d="M1025.6 721.131C1025.6 721.66 971.858 722.113 905.582 722.113C839.305 722.113 785.566 721.66 785.566 721.131C785.566 720.602 839.305 720.149 905.582 720.149C971.858 720.149 1025.6 720.602 1025.6 721.131Z" fill="#263238"/>
<path d="M1025.6 747.49C1025.6 748.019 971.858 748.472 905.582 748.472C839.305 748.472 785.566 748.019 785.566 747.49C785.566 746.962 839.305 746.508 905.582 746.508C971.858 746.508 1025.6 746.962 1025.6 747.49Z" fill="#263238"/>
<path d="M1025.6 773.888C1025.6 774.416 971.858 774.87 905.582 774.87C839.305 774.87 785.566 774.416 785.566 773.888C785.566 773.359 839.305 772.906 905.582 772.906C971.858 772.906 1025.6 773.359 1025.6 773.888Z" fill="#263238"/>
<path d="M1025.6 800.247C1025.6 800.776 971.858 801.229 905.582 801.229C839.305 801.229 785.566 800.776 785.566 800.247C785.566 799.719 839.305 799.265 905.582 799.265C971.858 799.265 1025.6 799.719 1025.6 800.247Z" fill="#263238"/>
<path d="M204.409 348.17H82.3927C57.8235 348.17 37.9062 368.087 37.9062 392.656V514.673C37.9062 539.242 57.8235 559.16 82.3927 559.16H204.409C228.979 559.16 248.896 539.242 248.896 514.673V392.656C248.896 368.087 228.979 348.17 204.409 348.17Z" fill="#278DB4"/>
<path d="M111.737 497.49H134.055C135.377 497.49 136.434 496.433 136.434 495.111V471.584C136.434 470.262 137.492 469.205 138.814 469.205H154.712C156.034 469.205 157.092 470.262 157.092 471.584V495.64C157.092 496.962 158.149 498.019 159.471 498.019H181.638C182.96 498.019 184.018 496.962 184.018 495.64V452.664C184.018 452.022 183.753 451.418 183.3 450.964L148.255 417.241C147.348 416.372 145.913 416.372 144.969 417.241L109.999 450.058C109.508 450.511 109.244 451.153 109.244 451.795L109.357 495.111C109.357 496.433 110.415 497.49 111.737 497.49Z" fill="white"/>
<path d="M1380.66 392.77H1281.49C1256.92 392.77 1237 412.687 1237 437.256V536.425C1237 560.994 1256.92 580.912 1281.49 580.912H1380.66C1405.23 580.912 1425.14 560.994 1425.14 536.425V437.256C1425.14 412.687 1405.23 392.77 1380.66 392.77Z" fill="#278DB4"/>
<path d="M1366.23 467.694H1300.33V475.247H1366.23V467.694Z" fill="white"/>
<path d="M1366.23 484.386H1300.33V491.939H1366.23V484.386Z" fill="white"/>
<path d="M1366.23 501.115H1300.33V508.668H1366.23V501.115Z" fill="white"/>
<path d="M160.074 316.485C160.074 322.075 155.542 326.606 149.953 326.606C144.364 326.606 139.832 322.075 139.832 316.485C139.832 310.896 144.364 306.365 149.953 306.365C155.542 306.365 160.074 310.896 160.074 316.485Z" fill="#263238"/>
<path d="M759.054 211.349C759.054 216.939 754.522 221.47 748.933 221.47C743.344 221.47 738.812 216.939 738.812 211.349C738.812 205.76 743.344 201.229 748.933 201.229C754.522 201.229 759.054 205.76 759.054 211.349Z" fill="#263238"/>
<path d="M151.843 312.369H148.066V191.712C148.066 161.047 173.029 136.085 203.693 136.085H695.575C726.239 136.085 751.202 161.047 751.202 191.712V211.349H747.425V191.712C747.425 163.124 724.162 139.861 695.575 139.861H203.693C175.106 139.861 151.843 163.124 151.843 191.712V312.369Z" fill="#263238"/>
<path d="M469.703 680.988C469.703 686.577 465.171 691.108 459.582 691.108C453.993 691.108 449.461 686.577 449.461 680.988C449.461 675.398 453.993 670.867 459.582 670.867C465.171 670.867 469.703 675.398 469.703 680.988Z" fill="#263238"/>
<path d="M460.603 683.442H362.113C345.535 683.442 332.053 669.96 332.053 653.382V481.78C332.053 465.202 345.535 451.72 362.113 451.72H411.736V455.496H362.113C347.612 455.496 335.829 467.279 335.829 481.78V653.382C335.829 667.883 347.612 679.666 362.113 679.666H460.603V683.442Z" fill="#263238"/>
<path d="M1146.13 265.96L1156.65 237.743C1147.64 223.128 1142.42 205.917 1142.42 187.487C1142.42 134.479 1185.38 91.5176 1238.39 91.5176C1291.4 91.5176 1334.36 134.479 1334.36 187.487C1334.36 240.494 1291.4 283.456 1238.39 283.456C1216.25 283.456 1195.9 275.954 1179.65 263.364V263.416L1146.08 265.96H1146.13Z" fill="white"/>
<path d="M1146.13 265.959C1146.13 265.959 1146.91 265.881 1148.36 265.751C1149.87 265.621 1152 265.44 1154.83 265.206C1160.51 264.739 1168.85 264.038 1179.7 263.129L1179.49 263.622V263.571C1179.36 263.441 1179.38 263.259 1179.49 263.155C1179.59 263.077 1179.75 263.077 1179.85 263.155C1189.79 270.761 1204.38 278.86 1223.28 281.819C1227.98 282.546 1232.91 282.988 1238.03 282.988C1243.14 282.728 1248.43 282.65 1253.78 281.612C1264.5 279.847 1275.61 276.135 1286.1 270.034C1296.56 263.96 1306.37 255.549 1314.29 245.036C1322.24 234.549 1328.28 221.985 1331.37 208.227C1337.78 180.84 1330.83 148.6 1310.42 125.237C1300.04 113.426 1287.11 104.055 1272.94 98.733C1258.82 93.2557 1243.79 91.3348 1229.51 92.6068C1215.18 93.8268 1201.74 98.5513 1190.18 105.301C1178.63 112.076 1169 121.032 1161.71 130.896C1154.39 140.76 1149.38 151.533 1146.44 162.124C1146.11 163.448 1145.77 164.772 1145.41 166.096C1145.04 167.394 1144.73 168.718 1144.57 170.041C1144.16 172.663 1143.77 175.259 1143.38 177.803C1143.15 182.943 1142.68 187.901 1143.02 192.703C1144 211.887 1150.49 227.176 1156.88 237.638C1156.93 237.716 1156.93 237.82 1156.88 237.897C1153.4 246.983 1150.75 253.966 1148.91 258.716C1148 261.078 1147.3 262.87 1146.83 264.116C1146.37 265.336 1146.08 265.985 1146.08 265.985C1146.08 265.985 1146.26 265.388 1146.7 264.194C1147.14 262.948 1147.79 261.156 1148.65 258.82C1150.42 253.992 1152.98 246.879 1156.36 237.69V237.949C1149.87 227.488 1143.22 212.12 1142.13 192.755C1141.77 187.927 1142.24 182.917 1142.45 177.725C1142.84 175.155 1143.22 172.533 1143.61 169.86C1143.77 168.51 1144.08 167.212 1144.44 165.888C1144.78 164.564 1145.12 163.214 1145.46 161.89C1148.39 151.17 1153.43 140.267 1160.8 130.273C1168.14 120.279 1177.88 111.193 1189.56 104.314C1201.24 97.4351 1214.87 92.6327 1229.38 91.3867C1243.87 90.0888 1259.1 92.0357 1273.43 97.5649C1287.84 102.938 1300.95 112.439 1311.46 124.432C1312.84 125.834 1313.98 127.417 1315.12 128.975L1318.6 133.647L1321.61 138.606C1322.62 140.241 1323.64 141.876 1324.42 143.642C1325.25 145.381 1326.08 147.094 1326.91 148.807C1327.79 150.495 1328.28 152.364 1328.98 154.129C1329.61 155.92 1330.36 157.659 1330.88 159.476C1331.35 161.319 1331.81 163.136 1332.28 164.954C1335.81 179.568 1335.86 194.65 1332.67 208.538C1329.53 222.452 1323.38 235.198 1315.3 245.789C1307.23 256.406 1297.29 264.92 1286.7 271.021C1276.08 277.147 1264.84 280.885 1253.96 282.624C1248.54 283.663 1243.19 283.714 1238.03 283.948C1232.86 283.948 1227.88 283.481 1223.13 282.702C1204.05 279.613 1189.4 271.332 1179.46 263.596L1179.88 263.181V263.233C1180.01 263.363 1179.98 263.545 1179.88 263.648C1179.83 263.674 1179.77 263.7 1179.72 263.7C1168.77 264.453 1160.33 265.024 1154.59 265.414C1151.82 265.595 1149.69 265.725 1148.21 265.829C1146.78 265.907 1146.11 265.933 1146.11 265.933L1146.13 265.959Z" fill="#263238"/>
<path d="M1243.9 215.131L1194.29 196.389L1195.2 193.975L1242.88 211.964L1276.86 160.903L1279.04 162.357L1243.9 215.131Z" fill="#263238"/>
<path d="M1194.75 204.411C1200.4 204.411 1204.98 199.831 1204.98 194.183C1204.98 188.534 1200.4 183.955 1194.75 183.955C1189.11 183.955 1184.53 188.534 1184.53 194.183C1184.53 199.831 1189.11 204.411 1194.75 204.411Z" fill="#455A64"/>
<path d="M1243.37 223.777C1249.02 223.777 1253.6 219.198 1253.6 213.549C1253.6 207.9 1249.02 203.321 1243.37 203.321C1237.72 203.321 1233.14 207.9 1233.14 213.549C1233.14 219.198 1237.72 223.777 1243.37 223.777Z" fill="#455A64"/>
<path d="M1277.95 171.858C1283.6 171.858 1288.18 167.279 1288.18 161.631C1288.18 155.982 1283.6 151.403 1277.95 151.403C1272.3 151.403 1267.72 155.982 1267.72 161.631C1267.72 167.279 1272.3 171.858 1277.95 171.858Z" fill="#455A64"/>
<path d="M349.884 1175.19L308.494 1159.74C287.044 1172.96 261.779 1180.59 234.74 1180.59C156.945 1180.62 93.8789 1117.56 93.8789 1039.76C93.8789 961.967 156.945 898.938 234.702 898.938C312.459 898.938 375.526 962.005 375.526 1039.76C375.526 1072.24 364.499 1102.11 346.032 1125.94H346.107L349.846 1175.19H349.884Z" fill="white"/>
<path d="M349.883 1175.18C349.883 1175.18 349.77 1174.05 349.581 1171.9C349.392 1169.71 349.128 1166.57 348.75 1162.42C348.071 1154.07 347.051 1141.84 345.692 1125.9L346.409 1126.2H346.334C346.145 1126.39 345.88 1126.36 345.729 1126.2C345.616 1126.05 345.616 1125.83 345.729 1125.68C356.87 1111.1 368.803 1089.69 373.146 1061.93C374.241 1055.02 374.883 1047.77 374.846 1040.29C374.468 1032.81 374.355 1025.03 372.806 1017.14C370.201 1001.39 364.763 985.079 355.812 969.709C346.9 954.339 334.551 939.988 319.143 928.319C303.773 916.65 285.306 907.775 265.14 903.243C224.959 893.84 177.64 904.036 143.35 933.983C126.016 949.203 112.27 968.16 104.453 989.006C96.4465 1009.74 93.5765 1031.79 95.4647 1052.75C97.2396 1073.79 104.188 1093.54 114.083 1110.46C124.052 1127.41 137.157 1141.54 151.62 1152.26C166.084 1163.02 181.907 1170.35 197.429 1174.66C199.392 1175.15 201.318 1175.68 203.244 1176.17C205.17 1176.7 207.058 1177.19 209.022 1177.41C212.874 1178.02 216.688 1178.58 220.427 1179.19C227.98 1179.53 235.268 1180.25 242.255 1179.72C270.427 1178.28 292.859 1168.76 308.192 1159.36C308.305 1159.29 308.456 1159.29 308.569 1159.36C321.9 1164.46 332.134 1168.39 339.121 1171.03C342.557 1172.35 345.201 1173.37 347.051 1174.09C348.826 1174.77 349.808 1175.18 349.808 1175.18C349.808 1175.18 348.939 1174.92 347.202 1174.28C345.352 1173.6 342.746 1172.65 339.309 1171.45C332.21 1168.88 321.787 1165.06 308.305 1160.15H308.682C293.35 1169.67 270.767 1179.45 242.368 1181.04C235.306 1181.57 227.942 1180.89 220.314 1180.59C216.537 1180.02 212.685 1179.45 208.796 1178.85C206.832 1178.62 204.906 1178.17 202.942 1177.64C200.978 1177.15 199.052 1176.66 197.051 1176.13C181.341 1171.82 165.329 1164.46 150.638 1153.62C135.986 1142.82 122.655 1128.55 112.534 1111.4C102.451 1094.29 95.3891 1074.28 93.5765 1052.98C91.6505 1031.72 94.5206 1009.36 102.64 988.364C110.533 967.216 124.468 947.994 142.066 932.548C144.105 930.547 146.447 928.885 148.75 927.148L155.623 922.05L162.912 917.632C165.329 916.121 167.708 914.648 170.314 913.553C172.844 912.344 175.374 911.098 177.904 909.89C180.397 908.606 183.116 907.888 185.722 906.831C188.365 905.925 190.933 904.829 193.577 904.074C196.258 903.394 198.939 902.715 201.62 901.997C223.033 896.786 245.163 896.748 265.593 901.431C286.024 906.038 304.717 915.064 320.276 926.922C335.873 938.742 348.335 953.357 357.323 968.916C366.311 984.474 371.787 1001.02 374.355 1016.91C375.865 1024.88 375.979 1032.74 376.319 1040.29C376.319 1047.88 375.639 1055.17 374.506 1062.16C369.974 1090.14 357.852 1111.67 346.485 1126.24L345.88 1125.64H345.956C346.145 1125.45 346.409 1125.49 346.56 1125.64C346.598 1125.71 346.636 1125.79 346.636 1125.86C347.731 1141.95 348.599 1154.3 349.166 1162.72C349.43 1166.8 349.619 1169.9 349.77 1172.09C349.921 1174.17 349.921 1175.18 349.921 1175.18H349.883Z" fill="#263238"/>
<path d="M199.543 1039.76C199.543 1046.11 194.407 1051.24 188.062 1051.24C181.718 1051.24 176.582 1046.11 176.582 1039.76C176.582 1033.42 181.718 1028.28 188.062 1028.28C194.407 1028.28 199.543 1033.42 199.543 1039.76Z" fill="#263238"/>
<path d="M245.502 1039.76C245.502 1046.11 240.366 1051.24 234.021 1051.24C227.677 1051.24 222.541 1046.11 222.541 1039.76C222.541 1033.42 227.677 1028.28 234.021 1028.28C240.366 1028.28 245.502 1033.42 245.502 1039.76Z" fill="#263238"/>
<path d="M291.348 1034.02C294.52 1039.5 292.632 1046.52 287.156 1049.69C281.68 1052.87 274.656 1050.98 271.484 1045.5C268.311 1040.03 270.2 1033 275.675 1029.83C281.151 1026.66 288.175 1028.55 291.348 1034.02Z" fill="#263238"/>
<path d="M1106.67 1585.26C1091.72 1530.72 1037.19 1338.24 1021.89 1284.35C1019.51 1276 1011.88 1270.22 1003.2 1270.22H603.159C590.243 1270.22 580.915 1282.57 584.465 1295L680.538 1632.16C682.917 1640.5 690.546 1646.28 699.231 1646.28H1291.49C1314.72 1646.28 1318.42 1612.82 1295.72 1607.84C1295.27 1607.73 1294.85 1607.65 1294.4 1607.54C1258.48 1600.13 1162.6 1599.49 1125.48 1599.53C1116.72 1599.53 1109.05 1593.68 1106.75 1585.26H1106.67Z" fill="#263238"/>
<path d="M616.338 1295.83L704.253 1598.13L1089.07 1600.51L1003.46 1295.83H616.338Z" fill="#455A64"/>
<path d="M780.347 1403.91C780.347 1404.44 758.935 1404.89 732.5 1404.89C706.065 1404.89 684.652 1404.44 684.652 1403.91C684.652 1403.38 706.065 1402.93 732.5 1402.93C758.935 1402.93 780.347 1403.38 780.347 1403.91Z" fill="white"/>
<path d="M759.805 1447.79C759.805 1448.32 745.794 1448.78 728.498 1448.78C711.202 1448.78 697.191 1448.32 697.191 1447.79C697.191 1447.26 711.202 1446.81 728.498 1446.81C745.794 1446.81 759.805 1447.26 759.805 1447.79Z" fill="white"/>
<path d="M889.11 1447.79C889.11 1448.32 863.694 1448.78 832.35 1448.78C801.005 1448.78 775.59 1448.32 775.59 1447.79C775.59 1447.26 801.005 1446.81 832.35 1446.81C863.694 1446.81 889.11 1447.26 889.11 1447.79Z" fill="white"/>
<path d="M685.75 1374.23C685.485 1374.68 678.386 1371.02 669.813 1365.92L668.643 1365.24L669.662 1364.33C669.662 1364.33 669.964 1364.07 670.115 1363.96C677.819 1357.23 684.353 1352.1 684.692 1352.51C685.032 1352.93 679.103 1358.71 671.399 1365.43C671.248 1365.58 671.097 1365.69 670.946 1365.81L670.795 1364.22C679.368 1369.32 685.976 1373.74 685.712 1374.19L685.75 1374.23Z" fill="white"/>
<path d="M708.937 1352.51C709.202 1352.06 716.415 1355.8 725.063 1360.94L726.12 1361.54L725.289 1362.45L725.063 1362.67C718.152 1370.19 712.261 1375.97 711.845 1375.63C711.43 1375.25 716.717 1368.87 723.628 1361.35L723.854 1361.12L724.081 1362.63C715.433 1357.5 708.673 1353 708.937 1352.55V1352.51Z" fill="white"/>
<path d="M705.124 1346.32C705.653 1346.51 702.971 1355.34 699.157 1366.11C695.343 1376.83 691.869 1385.4 691.34 1385.22C690.811 1385.03 693.492 1376.19 697.307 1365.43C701.121 1354.7 704.595 1346.13 705.124 1346.32Z" fill="white"/>
<path d="M1003.39 1399.79C1003.39 1400.32 959.542 1400.78 905.426 1400.78C851.309 1400.78 807.465 1400.32 807.465 1399.79C807.465 1399.26 851.309 1398.81 905.426 1398.81C959.542 1398.81 1003.39 1399.26 1003.39 1399.79Z" fill="#263238"/>
<path d="M993.83 1423.96C993.83 1424.49 925.364 1424.95 840.922 1424.95C756.481 1424.95 687.977 1424.49 687.977 1423.96C687.977 1423.43 756.443 1422.98 840.922 1422.98C925.401 1422.98 993.83 1423.43 993.83 1423.96Z" fill="#263238"/>
<path d="M810.9 1485.41C810.9 1485.93 789.488 1486.39 763.053 1486.39C736.618 1486.39 715.205 1485.93 715.205 1485.41C715.205 1484.88 736.618 1484.42 763.053 1484.42C789.488 1484.42 810.9 1484.88 810.9 1485.41Z" fill="white"/>
<path d="M790.358 1529.29C790.358 1529.82 776.347 1530.27 759.051 1530.27C741.755 1530.27 727.744 1529.82 727.744 1529.29C727.744 1528.76 741.755 1528.31 759.051 1528.31C776.347 1528.31 790.358 1528.76 790.358 1529.29Z" fill="white"/>
<path d="M919.664 1529.29C919.664 1529.82 894.249 1530.27 862.904 1530.27C831.56 1530.27 806.145 1529.82 806.145 1529.29C806.145 1528.76 831.56 1528.31 862.904 1528.31C894.249 1528.31 919.664 1528.76 919.664 1529.29Z" fill="white"/>
<path d="M1024.42 1505.46C1024.42 1505.99 955.953 1506.44 871.512 1506.44C787.071 1506.44 718.566 1505.99 718.566 1505.46C718.566 1504.93 787.033 1504.48 871.512 1504.48C955.991 1504.48 1024.42 1504.93 1024.42 1505.46Z" fill="#263238"/>
<path d="M699.156 1646.28C698.627 1646.43 674.571 1563.35 645.38 1460.79C616.188 1358.18 592.963 1274.87 593.491 1274.72C594.02 1274.57 618.076 1357.61 647.268 1460.22C676.422 1562.79 699.685 1646.09 699.156 1646.25V1646.28Z" fill="#455A64"/>
<path d="M804.14 1369.85C804.14 1369.85 836.92 1359.31 859.201 1369.85C881.444 1380.38 993.868 1467.05 993.868 1467.05L975.137 1533.82L949.382 1512.75C949.382 1512.75 907.237 1518.6 890.809 1502.21C874.382 1485.82 855.689 1470.6 855.689 1470.6C855.689 1470.6 838.808 1497.57 829.707 1496.02C822.985 1494.85 819.019 1473.44 819.019 1473.44C819.019 1473.44 799.269 1478.46 804.14 1458.93L815.847 1420.19C817.962 1413.16 824.118 1408.1 831.406 1407.39L866.187 1403.91L847.456 1388.69C847.456 1388.69 827.516 1390.13 809.918 1386.54C803.762 1385.29 799.571 1373.36 804.14 1369.92V1369.85Z" fill="#FFBE9D"/>
<path d="M876.988 1441.33C876.837 1441.64 873.06 1439.37 866.64 1436.84C863.43 1435.67 859.427 1434.54 854.971 1434.76C850.553 1434.95 845.794 1436.77 841.678 1439.9C833.332 1446.24 829.593 1455.57 827.252 1461.99C824.948 1468.56 823.702 1472.72 823.4 1472.64C823.174 1472.57 823.929 1468.3 825.93 1461.58C826.988 1458.22 828.385 1454.21 830.651 1450.1C832.879 1445.98 836.127 1441.71 840.507 1438.39C844.85 1435.03 850.062 1433.1 854.896 1432.99C859.729 1432.84 863.921 1434.23 867.131 1435.59C870.379 1436.99 872.834 1438.46 874.495 1439.52C876.157 1440.58 877.026 1441.26 876.95 1441.37L876.988 1441.33Z" fill="#EB996E"/>
<path d="M886.165 1407.69C885.787 1408.14 881.86 1404.89 875.893 1404.25C869.964 1403.46 865.356 1405.72 865.13 1405.19C865.017 1404.97 865.998 1404.1 867.962 1403.31C869.926 1402.51 872.872 1401.91 876.119 1402.32C879.367 1402.7 882.124 1403.95 883.823 1405.19C885.56 1406.44 886.316 1407.54 886.127 1407.72L886.165 1407.69Z" fill="#EB996E"/>
<path d="M1062.07 1039.52L1050.18 1039.82C1043.27 1040.01 1038.73 1047.68 1042.51 1053.49C1043.27 1054.67 1044.28 1055.61 1045.61 1056.1C1052.18 1058.55 1095.34 1065.13 1095.34 1065.13L1115.06 1092.66L1130.27 1083.63C1130.27 1083.63 1111.35 1032.27 1112.6 1033.48C1113.85 1034.73 1062.11 1039.48 1062.11 1039.48L1062.07 1039.52Z" fill="#EB996E"/>
<path d="M1211.39 1175.89L1123.93 1035.03C1121.48 1031.1 1117.28 1028.65 1112.64 1028.46L1064.83 1026.64C1057.28 1026.34 1051.72 1034.54 1055.61 1041.03C1056.75 1042.92 1058.6 1044.43 1061.51 1045.11C1073.17 1047.79 1104.1 1049.23 1104.1 1049.23L1123.02 1087.94L1075.44 1069.77C1070.64 1067.96 1065.32 1070.98 1064.64 1076.04C1064.04 1080.31 1064.53 1085.03 1068.23 1087.9C1076.31 1094.17 1102.74 1115.01 1102.74 1115.01C1102.74 1115.01 1106.6 1150.7 1120.04 1168.64C1133.48 1186.58 1154.93 1209.12 1154.93 1209.12L1211.39 1175.89Z" fill="#FFBE9D"/>
<path d="M1161.81 1126.38C1161.35 1126.76 1153.27 1116.71 1141.75 1105.91C1130.27 1095.04 1119.81 1087.56 1120.15 1087.07C1120.3 1086.84 1123.1 1088.46 1127.37 1091.49C1131.63 1094.51 1137.3 1099 1143.11 1104.48C1148.93 1109.95 1153.73 1115.35 1157.01 1119.43C1160.26 1123.51 1162.03 1126.23 1161.84 1126.38H1161.81Z" fill="#EB996E"/>
<path d="M1632.54 851.191C1640.58 848.548 1642.28 835.557 1635.18 830.912C1640.85 826.947 1638.13 817.581 1632.84 813.087C1627.56 808.593 1620.46 806.252 1616.15 800.814C1624.04 801.984 1632.05 794.734 1631.71 786.765C1636.85 786.652 1641.64 782.762 1642.77 777.74C1643.91 772.755 1641.26 767.128 1636.69 764.824C1643.08 763.578 1641.38 752.966 1635.6 749.945C1629.82 746.924 1622.72 747.981 1616.57 745.867C1604.71 735.104 1589.41 728.23 1573.51 726.531C1581.6 719.016 1589.72 711.501 1597.8 703.986C1599.72 702.211 1601.72 700.285 1602.52 697.792C1604.26 692.279 1599.5 686.954 1594.74 683.706C1584.66 676.833 1572.53 673.019 1560.34 672.943C1556.41 672.943 1551.54 674.039 1550.71 677.853C1542.09 674.869 1532.62 676.304 1523.63 677.777C1518.57 678.608 1513.05 679.703 1509.84 683.669C1511.28 678.759 1514.9 674.907 1517.96 670.829C1521.02 666.75 1523.7 661.765 1522.65 656.78C1521.59 651.795 1515.02 648.094 1511.13 651.38C1515.58 648.661 1514.15 641.184 1509.81 638.313C1505.46 635.443 1499.8 635.783 1494.59 636.236C1490.96 636.539 1486.43 637.634 1485.83 641.221C1483.3 633.291 1469.36 633.668 1467.25 641.712C1461.85 637.445 1452.82 639.144 1449.38 645.073C1440.92 640.995 1429.37 646.81 1427.52 656.025C1431.33 647.679 1435.18 639.295 1439 630.949C1441.15 626.229 1440.74 617.845 1435.64 618.94C1443.04 618.147 1446.17 607.611 1441.87 601.531C1437.56 595.451 1428.91 593.94 1421.7 595.64C1419.89 598.963 1418.11 602.286 1416.3 605.61C1410.98 602.702 1403.84 603.532 1399.31 607.611C1394.81 611.69 1393.3 618.752 1395.68 624.303C1392.36 621.433 1386.77 623.812 1384.81 627.739C1382.84 631.667 1383.45 636.312 1384.05 640.655C1376.23 635.406 1363.77 643.865 1365.77 653.079C1358.9 650.436 1351.31 649.718 1344.06 651.002C1346.78 645.375 1345.27 638.011 1340.55 633.857C1335.83 629.741 1328.35 629.174 1323.1 632.611C1321.51 624.341 1311.01 619.242 1303.54 623.094C1300.33 614.748 1288.36 609.65 1282.16 616.032C1275.74 622.641 1280.77 633.593 1285.98 641.184C1291.64 649.454 1297.31 657.687 1302.93 665.957C1286.73 659.424 1270.53 652.891 1254.33 646.32C1252.82 645.715 1251.16 645.073 1249.57 645.451C1247.38 645.98 1246.06 648.17 1244.17 649.378C1241.57 651.078 1238.09 650.738 1235.22 651.984C1227.37 655.345 1228.88 667.694 1235.11 673.51C1241.34 679.326 1250.18 681.44 1257.09 686.463C1250.44 688.502 1243.76 690.504 1237.11 692.543C1233.33 681.591 1218.87 675.927 1208.64 681.365C1205.05 674.152 1194.85 674.265 1186.85 675.474C1179.71 676.569 1171.85 678.004 1167.32 683.669C1161.51 690.882 1164 702.173 1170.27 708.933C1176.54 715.731 1185.6 719.129 1194.28 722.264C1193.57 728.533 1185.86 731.252 1179.56 731.025C1173.25 730.798 1166.57 729.061 1160.94 731.894C1153.31 735.746 1151.04 746.395 1143.38 750.172C1141.07 751.305 1138.36 751.758 1136.35 753.382C1133.52 755.723 1132.88 759.764 1132.46 763.427C1131.94 767.959 1131.44 772.49 1130.92 777.022C1130.65 779.25 1130.43 781.592 1131.1 783.744C1133.33 790.806 1143.57 791.259 1150.06 787.747C1156.56 784.235 1161.81 778.231 1168.94 776.342C1159.88 782.158 1150.33 788.54 1145.98 798.397C1141.64 808.253 1145.42 822.415 1155.88 824.945C1166.49 827.475 1175.55 817.581 1182.12 808.857C1188.7 800.172 1198.44 790.58 1208.79 794.016" fill="#263238"/>
<path d="M1617.1 846.471C1624.2 839.862 1638.21 846.055 1638.09 855.723C1647.87 857.347 1656.52 864.711 1659.66 874.152C1662.79 883.593 1660.34 894.658 1653.46 901.833C1647.99 907.574 1636.02 909.084 1633.9 901.418C1632.2 908.178 1626.88 913.956 1620.23 916.184C1627.82 924.983 1625.18 940.504 1615.09 946.282C1628.27 953.382 1628.39 975.889 1615.25 983.102C1619.74 990.768 1616.83 1001.8 1609.2 1006.29C1601.54 1010.75 1590.51 1007.84 1586.05 1000.17C1584.09 1006.74 1581.9 1013.73 1576.69 1018.19C1571.44 1022.64 1562.15 1022.98 1558.6 1017.09C1556.94 1030.95 1539.87 1040.47 1527.22 1034.54C1528.88 1041.9 1524.01 1050.13 1516.76 1052.25C1509.51 1054.36 1500.97 1050.02 1498.4 1042.88C1485.68 1045.26 1472.95 1047.64 1460.22 1050.02C1451.76 1051.61 1443.27 1053.19 1434.69 1053.16C1423.74 1053.16 1412.75 1050.47 1403.01 1045.45C1399.88 1043.83 1396.7 1041.94 1393.15 1041.83C1389.11 1041.71 1385.45 1044.02 1381.86 1045.9C1362.9 1055.84 1338.73 1054.93 1320.57 1043.6C1317.7 1041.83 1314.91 1039.75 1311.62 1038.96C1307.84 1038.05 1303.92 1038.96 1300.06 1039.6C1290.7 1041.3 1281.11 1041.79 1271.59 1041.07C1263.43 1040.47 1254.6 1038.54 1249.54 1032.08C1244.47 1025.66 1246.59 1013.77 1254.63 1012.33C1254.26 1007.04 1251.99 1001.57 1247.53 998.699C1243.08 995.829 1236.24 996.433 1233.33 1000.89C1230.43 1005.35 1233.86 1012.71 1239.15 1012.37C1231.71 1020 1216.68 1014.3 1214.41 1003.87C1212.15 993.45 1220.83 982.725 1231.3 980.572C1227.75 973.51 1225.97 965.542 1226.16 957.649C1222.19 965.466 1211.36 968.903 1203.61 964.824C1200.55 972.377 1195.04 979.326 1187.38 982.12C1179.75 984.915 1169.93 982.498 1166 975.361C1162.04 968.261 1166.64 957.422 1174.76 956.78C1167.4 948.925 1173.14 933.48 1183.86 932.385C1180.2 922.49 1184.32 910.293 1193.27 904.703C1187.87 909.764 1177.75 907.989 1174.42 901.38C1171.06 909.99 1158.9 910.444 1150.18 907.385C1143.34 905.005 1136.47 901.04 1136.47 891.486C1136.47 887.03 1138.21 882.687 1141.11 879.288C1147.95 871.282 1158.41 868.789 1168.34 866.561C1171.97 853.495 1173.4 839.824 1172.57 826.267C1161.51 828.835 1148.55 822.755 1144.97 811.992L1196.93 771.282C1196.93 771.282 1323.78 737.332 1328.39 736.803C1333.03 736.312 1617.74 845.791 1617.74 845.791C1624.69 851.644 1636.54 847.377 1640.28 839.107C1644.02 830.836 1641.08 820.753 1635.34 813.729C1629.6 806.705 1621.51 802.06 1613.62 797.566C1622.19 796.018 1631.3 794.243 1637 787.256C1640.55 782.913 1641.79 776.871 1639.08 771.924C1635.15 764.824 1626.61 766.259 1620.65 762.634C1617.13 760.519 1614.91 756.894 1612.49 753.57" fill="#263238"/>
<path d="M1495.72 797.037C1494.55 782.988 1482.84 772.15 1468.72 772.075L1321.55 750.436C1275.1 750.247 1250.33 809.952 1252.14 856.365C1254.14 907.913 1258.6 970.791 1268.57 1008.4C1288.62 1084.01 1348.51 1087.78 1348.51 1087.78C1348.51 1087.52 1351.23 1113.12 1354.41 1140.99L1514.68 1107.72L1495.68 796.999L1495.72 797.037Z" fill="#FFBE9D"/>
<path d="M1279.97 918.488C1280.31 923.699 1285.03 927.74 1290.51 927.476C1295.95 927.211 1300.1 922.793 1299.76 917.544C1299.42 912.332 1294.7 908.291 1289.26 908.556C1283.78 908.82 1279.63 913.276 1280.01 918.488H1279.97Z" fill="#263238"/>
<path d="M1371.21 912.03C1371.55 917.241 1376.27 921.282 1381.75 921.018C1387.19 920.753 1391.34 916.335 1391 911.086C1390.66 905.874 1385.94 901.833 1380.5 902.098C1375.02 902.362 1370.87 906.818 1371.25 912.03H1371.21Z" fill="#263238"/>
<path d="M1270.49 887.596C1271.85 888.767 1278.76 882.46 1289.37 881.403C1299.95 880.194 1308.29 884.877 1309.31 883.442C1309.81 882.8 1308.33 880.61 1304.71 878.495C1301.12 876.38 1295.19 874.567 1288.58 875.285C1281.97 876.003 1276.69 878.986 1273.74 881.818C1270.72 884.651 1269.85 887.105 1270.53 887.596H1270.49Z" fill="#263238"/>
<path d="M1369.59 881.29C1370.95 882.46 1377.86 876.154 1388.47 875.096C1399.04 873.888 1407.39 878.571 1408.41 877.135C1408.9 876.493 1407.46 874.303 1403.8 872.188C1400.21 870.074 1394.28 868.261 1387.68 868.978C1381.07 869.696 1375.78 872.679 1372.83 875.512C1369.85 878.344 1368.94 880.799 1369.62 881.29H1369.59Z" fill="#263238"/>
<path d="M1344.51 961.54C1344.51 960.935 1337.79 960.482 1326.95 960.18C1324.23 960.18 1321.59 959.916 1320.95 958.103C1320.12 956.215 1320.95 953.194 1321.93 949.908C1323.82 943.11 1325.78 935.935 1327.82 928.458C1335.94 897.944 1341.53 872.982 1340.32 872.68C1339.07 872.378 1331.48 896.811 1323.36 927.325C1321.44 934.84 1319.55 942.015 1317.81 948.851C1317.1 952.023 1315.7 955.724 1317.47 959.613C1318.42 961.577 1320.53 962.823 1322.34 963.126C1324.12 963.465 1325.67 963.352 1327.03 963.277C1337.83 962.748 1344.51 962.144 1344.51 961.502V961.54Z" fill="#263238"/>
<path d="M1347.61 1087.82C1347.61 1087.82 1399.65 1085.9 1447.76 1049.87C1447.76 1049.87 1427.33 1106.1 1349.68 1106.74L1347.61 1087.82Z" fill="#EB996E"/>
<path d="M1347.64 988.804C1353.65 982.385 1369.74 972.301 1374.99 971.131C1380.5 969.884 1379.82 976.38 1383.37 980.987C1386.92 985.632 1387.79 992.996 1384.81 998.623C1381.44 1004.97 1374.46 1010.41 1368.23 1009.57C1362 1008.74 1356.22 1002.4 1351.04 998.699C1349.61 997.679 1348.14 996.584 1347.23 994.998C1346.32 993.374 1346.06 991.108 1347.12 989.409" fill="#EB996E"/>
<path d="M1369.62 847.188C1370.95 849.983 1381.41 847.528 1394.02 847.754C1406.63 847.754 1417.02 850.36 1418.42 847.603C1419.02 846.282 1417.02 843.751 1412.67 841.372C1408.37 838.993 1401.69 836.992 1394.13 836.916C1386.58 836.878 1379.86 838.729 1375.51 841.032C1371.13 843.336 1369.06 845.828 1369.66 847.15L1369.62 847.188Z" fill="#263238"/>
<path d="M1271.25 856.478C1273.36 858.707 1280.42 855.459 1289.19 854.439C1297.91 853.117 1305.58 854.439 1307.05 851.72C1307.69 850.436 1306.26 848.133 1302.78 846.169C1299.34 844.205 1293.79 842.921 1287.79 843.714C1281.78 844.507 1276.76 847.226 1273.97 850.021C1271.1 852.815 1270.34 855.383 1271.29 856.478H1271.25Z" fill="#263238"/>
<path d="M1506.07 875.738C1508.75 880.534 1507.8 887.558 1504.03 890.844C1500.25 894.129 1494.21 893.148 1491.08 888.729C1488.21 893.601 1480.01 889.862 1480.43 883.858C1476.54 886.652 1470.46 881.667 1471.21 876.305C1466.6 878.684 1462.87 871.206 1459.77 866.297C1458.07 863.578 1455.92 861.35 1453.95 858.895C1447.83 851.191 1443.83 841.146 1442.81 830.799C1435.75 824.341 1432.92 813.502 1430.54 803.419C1429.03 797.113 1427.56 790.844 1426.04 784.537C1424.69 783.178 1423.33 781.856 1422 780.496C1422.76 785.104 1419.81 789.447 1416.23 791.184C1412.64 792.921 1408.56 792.619 1404.63 792.317C1400.74 792.015 1396.85 791.675 1392.96 791.373C1390.66 792.317 1388.36 793.299 1386.09 794.243C1388.85 799.945 1387.49 806.931 1386.09 813.087C1385.11 817.354 1383.86 821.999 1380.65 824.228C1377.44 826.418 1371.93 823.699 1372.46 819.28C1370.27 822.453 1365.62 821.773 1363.02 818.865C1360.41 815.919 1359.47 811.539 1359.13 807.385C1358.3 797.226 1360.45 786.916 1365.17 778.646C1359.24 785.595 1353.35 792.543 1347.42 799.492C1346.14 801.002 1344.7 802.626 1342.89 803.004C1343.79 806.289 1340.85 809.462 1337.94 809.424C1335.03 809.424 1332.43 807.309 1330.01 805.27C1324.61 800.738 1318.49 792.694 1322.16 786.463C1319.85 786.274 1318.27 782.611 1319.55 780.383C1312.68 786.954 1305.84 793.525 1298.97 800.058C1301.08 798.51 1303.95 801.72 1303.76 804.666C1303.61 807.649 1301.65 809.877 1299.84 811.879C1302.1 814.673 1303.5 818.45 1303.65 822.264C1307.28 818.147 1314.15 824.228 1313.51 830.194C1312.86 836.161 1307.69 839.9 1302.67 840.844C1298.51 841.637 1293.19 840.24 1291.87 835.406C1287.03 837.03 1281.52 830.761 1282.65 824.983C1279.37 827.777 1275.48 821.697 1274.72 816.864C1273.36 807.989 1273.67 798.812 1275.7 790.24C1275.97 791.486 1274.72 792.694 1273.74 792.09C1272.76 791.524 1272.8 789.56 1273.74 789.069C1270.68 799.87 1267.59 810.67 1264.53 821.471C1262.11 830.043 1259.62 838.918 1260.49 848.019C1260.83 851.72 1260.98 856.856 1257.92 857.536C1257.09 857.725 1256.22 857.46 1255.39 857.158C1245.95 853.797 1238.02 845.527 1232.39 835.821C1230.5 832.573 1228.84 829.099 1228.05 825.285C1226.46 817.43 1228.88 809.424 1228.57 801.38C1228.42 797.868 1227.74 794.318 1228.08 790.806C1228.61 785.179 1231.71 780.534 1234.69 776.191C1245.27 760.783 1256.44 744.809 1272.08 737.294C1281.63 732.724 1292.25 731.629 1301.84 727.135C1307.77 724.378 1313.17 720.338 1318.83 716.901C1342.09 702.664 1369.06 698.132 1395.64 697.415C1410.49 697.037 1425.59 697.792 1440.02 702.74C1455.84 708.178 1470.34 718.412 1484.09 729.401C1504.63 745.829 1524.38 764.522 1538.96 788.276C1550.14 806.516 1558.22 828.344 1557.43 850.436C1556.63 872.528 1545.42 894.394 1527.74 900.889C1525.06 898.435 1522.38 895.942 1519.66 893.487" fill="#263238"/>
<path d="M1486.66 892.77C1487.68 892.166 1527.93 874.379 1532.2 917.317C1536.51 960.217 1492.51 955.685 1492.32 954.477C1492.13 953.269 1486.66 892.808 1486.66 892.808V892.77Z" fill="#FFBE9D"/>
<path d="M1503.84 936.878C1503.84 936.878 1504.63 937.331 1505.95 937.785C1507.24 938.238 1509.39 938.389 1511.54 937.331C1515.92 935.217 1519.02 927.626 1518.45 919.884C1518.19 915.957 1516.98 912.331 1515.28 909.386C1513.66 906.365 1511.39 904.401 1509.09 904.212C1506.75 903.91 1505.27 905.458 1504.9 906.705C1504.44 907.951 1504.78 908.782 1504.59 908.895C1504.48 909.008 1503.61 908.253 1503.76 906.478C1503.84 905.609 1504.25 904.552 1505.2 903.608C1506.14 902.664 1507.62 902.097 1509.24 902.097C1512.56 901.984 1515.85 904.741 1517.7 907.989C1519.74 911.199 1521.17 915.277 1521.48 919.696C1522.08 928.381 1518.45 936.916 1512.41 939.333C1509.47 940.428 1506.86 939.748 1505.46 938.88C1504.03 937.936 1503.69 937.029 1503.84 936.916V936.878Z" fill="#EB996E"/>
<path d="M1324.27 772.754C1324.5 772.566 1321.89 771.508 1320.8 767.543C1320.27 765.655 1320.34 763.011 1322 760.859C1323.59 758.744 1326.76 757.158 1329.97 757.838L1331.82 758.253L1330.88 756.629C1329.29 753.872 1329.52 749.605 1332.09 746.886C1334.58 744.167 1339.56 743.638 1342.77 746.093L1344.06 744.62C1343.79 744.356 1343.53 744.016 1343.34 743.6C1342.77 742.354 1342.93 740.73 1343.57 739.484C1344.21 738.238 1345.46 737.369 1346.82 736.878C1348.21 736.425 1349.72 736.35 1351.12 736.614C1352.52 736.803 1354.1 737.596 1356.03 737.143C1358.03 736.538 1358.79 734.915 1359.77 734.121C1360.71 733.14 1361.81 732.384 1362.86 731.705C1365.06 730.421 1367.4 729.703 1369.59 729.363C1373.97 728.721 1377.59 729.703 1379.82 730.685C1382.09 731.705 1383.18 732.611 1383.3 732.46C1383.37 732.422 1382.43 731.251 1380.12 730.005C1377.86 728.759 1374.08 727.513 1369.36 728.004C1367.02 728.268 1364.45 728.948 1362 730.307C1360.79 731.025 1359.58 731.818 1358.52 732.913C1357.39 733.933 1356.6 735.217 1355.54 735.405C1354.48 735.67 1353.08 735.103 1351.38 734.763C1349.69 734.461 1347.91 734.499 1346.17 735.066C1344.47 735.632 1342.74 736.765 1341.79 738.578C1340.89 740.315 1340.62 742.467 1341.49 744.393C1341.75 744.998 1342.17 745.564 1342.62 746.017L1343.91 744.544C1339.75 741.448 1333.82 742.165 1330.65 745.602C1327.48 749.076 1327.33 754.099 1329.37 757.46L1330.27 756.214C1326.27 755.458 1322.65 757.498 1320.87 760.028C1318.98 762.671 1319.1 765.73 1319.81 767.77C1320.53 769.884 1321.74 771.206 1322.65 771.886C1323.59 772.603 1324.19 772.754 1324.19 772.679L1324.27 772.754Z" fill="#455A64"/>
<path d="M1277.74 790.391C1277.93 790.202 1275.33 789.295 1273.51 785.406C1272.64 783.517 1272.15 780.836 1273.17 778.117C1274.12 775.436 1276.61 772.679 1280.12 771.81L1281.48 771.471L1280.42 770.526C1277.86 768.185 1275.44 764.446 1276 760.406C1276.23 758.442 1277.55 756.705 1279.4 755.647C1281.22 754.628 1283.63 754.439 1285.18 755.798L1291.3 761.01L1286.54 754.514C1284.92 752.286 1284.31 749.114 1285.11 746.206C1285.82 743.298 1288.13 740.844 1291.11 739.786C1293.23 739.031 1295.57 738.993 1297.61 739.711L1299.99 740.579L1298.81 738.351C1297.15 735.179 1300.1 730.987 1303.38 730.194C1306.9 729.212 1310.6 730.307 1313.81 731.629L1315.77 732.422L1314.98 730.496C1314 728.117 1314.94 725.247 1316.56 723.397C1318.23 721.508 1320.57 720.413 1322.83 719.733C1327.44 718.412 1331.75 718.336 1335.18 718.676C1342.17 719.431 1345.83 721.546 1345.91 721.244C1345.91 721.168 1345.08 720.602 1343.3 719.847C1341.53 719.091 1338.84 718.147 1335.29 717.619C1331.75 717.128 1327.29 717.052 1322.42 718.298C1320 718.94 1317.39 720.073 1315.36 722.264C1313.43 724.416 1312.11 727.815 1313.39 731.1L1314.56 729.967C1311.24 728.57 1307.2 727.211 1302.93 728.344C1300.78 728.91 1298.89 730.383 1297.68 732.309C1296.47 734.197 1295.94 736.916 1297.19 739.22L1298.36 737.86C1295.87 736.954 1293.07 737.029 1290.58 737.898C1287.03 739.069 1284.16 742.128 1283.37 745.64C1282.46 749.114 1283.18 752.815 1285.18 755.572L1286.54 754.288C1284.16 752.324 1280.88 752.739 1278.69 754.023C1276.42 755.27 1274.76 757.649 1274.49 760.103C1273.93 765.088 1276.8 769.091 1279.63 771.584L1279.93 770.3C1275.85 771.395 1273.21 774.605 1272.23 777.664C1271.21 780.798 1271.93 783.744 1272.95 785.708C1274 787.709 1275.36 788.918 1276.31 789.56C1277.29 790.202 1277.89 790.353 1277.93 790.315L1277.74 790.391Z" fill="#455A64"/>
<path d="M1175.48 810.595C1175.74 810.671 1174.72 808.065 1177.4 805.044C1178.69 803.609 1180.76 802.287 1183.52 802.06C1186.28 801.72 1189.45 802.362 1192.92 803.231L1194.02 803.495L1193.76 802.362C1192.92 799.001 1195.68 794.998 1199.61 793.526C1203.65 792.015 1208.56 792.997 1213.51 794.243L1219.74 795.829L1214.19 792.581C1211.17 790.807 1211.13 785.633 1213.62 782.725C1216.26 779.666 1220.83 778.646 1225.29 778.571H1225.86L1229.67 778.495L1226.27 776.72C1222.12 774.53 1222.31 767.657 1225.82 765.051C1229.41 762.181 1234.73 762.672 1238.28 764.9L1242.59 767.581L1239.49 763.578C1235.49 758.442 1235.45 751.494 1237.68 746.698C1239.94 741.751 1244.47 739.107 1248.25 738.201C1252.14 737.257 1255.39 737.785 1257.43 738.39C1259.5 739.032 1260.52 739.674 1260.6 739.522C1260.6 739.485 1260.37 739.296 1259.92 738.994C1259.43 738.654 1258.67 738.276 1257.62 737.861C1255.54 737.068 1252.14 736.312 1247.99 737.181C1243.94 737.974 1238.88 740.693 1236.28 746.093C1233.71 751.305 1233.6 758.858 1238.02 764.711L1239.19 763.39C1235.15 760.822 1229.07 760.104 1224.57 763.578C1222.34 765.316 1221.13 768.223 1221.17 771.056C1221.17 773.85 1222.49 777.022 1225.33 778.458L1225.78 776.607H1225.18C1220.53 776.72 1215.36 777.702 1212.07 781.479C1210.49 783.405 1209.77 785.784 1209.84 788.125C1209.88 790.467 1211.05 792.921 1213.13 794.13L1213.81 792.468C1208.86 791.297 1203.57 790.202 1198.89 792.015C1194.4 793.79 1191.19 798.435 1192.25 802.702L1193.08 801.871C1189.56 801.078 1186.2 800.512 1183.22 800.965C1180.24 801.343 1177.89 802.929 1176.65 804.553C1175.33 806.214 1174.95 807.914 1174.99 808.971C1174.99 810.066 1175.29 810.595 1175.33 810.595H1175.48Z" fill="#455A64"/>
<path d="M1218.87 706.402C1218.87 706.402 1219.74 706.855 1221.51 707.044C1223.29 707.233 1225.89 707.044 1229.07 706.629C1232.2 706.251 1236.17 705.609 1240.02 707.082C1241.94 707.799 1243.61 709.234 1244.29 711.349C1245.04 713.389 1244.74 716.032 1242.93 717.203L1244.36 717.996C1244.47 715.466 1247.38 713.577 1249.99 711.614C1252.63 709.688 1255.46 707.799 1258.6 706.742C1261.81 705.609 1265.13 705.685 1267.93 707.157C1270.72 708.517 1272.72 711.123 1272.68 713.842V716.259L1274.27 714.484C1277.67 710.783 1282.16 708.63 1286.32 707.913C1290.47 707.082 1294.32 707.497 1297.31 708.29C1303.35 709.952 1305.95 712.973 1306.18 712.671C1306.26 712.595 1305.65 711.878 1304.29 710.745C1302.93 709.65 1300.74 708.215 1297.61 707.233C1294.51 706.251 1290.51 705.647 1286.05 706.402C1281.63 707.082 1276.73 709.234 1272.91 713.275L1274.5 713.917C1274.61 710.292 1272 707.044 1268.79 705.496C1265.58 703.759 1261.47 703.683 1257.96 704.929C1254.44 706.1 1251.5 708.139 1248.82 710.103C1247.5 711.123 1246.17 712.067 1244.93 713.275C1243.72 714.446 1242.59 716.07 1242.51 717.958L1242.44 719.808L1243.95 718.751C1246.7 716.787 1246.82 713.2 1245.87 710.783C1245 708.177 1242.74 706.364 1240.55 705.647C1236.05 704.098 1231.97 705.043 1228.84 705.534C1225.71 706.138 1223.21 706.478 1221.48 706.478C1219.78 706.478 1218.83 706.327 1218.79 706.478L1218.87 706.402Z" fill="#455A64"/>
<path d="M1310.6 658.857C1310.64 659.121 1312.53 658.328 1315.74 659.008C1317.28 659.386 1319.21 660.103 1320.91 661.538C1322.65 662.935 1324.19 665.088 1324.72 667.694L1324.91 668.713L1325.86 668.26C1328.27 667.127 1331.71 668.676 1333.33 671.47C1335.03 674.303 1335.03 678.155 1334.88 682.082L1334.69 685.934L1336.69 682.573C1336.69 682.573 1336.92 682.233 1337 682.044C1338.36 679.929 1340.89 678.721 1343.34 678.57C1345.83 678.343 1348.18 679.174 1349.95 680.647C1353.58 683.593 1354.97 688.087 1355.09 691.636C1355.2 695.3 1354.41 698.245 1353.84 700.209C1353.24 702.21 1352.86 703.306 1352.97 703.381C1353.08 703.419 1353.73 702.437 1354.56 700.473C1355.35 698.509 1356.41 695.526 1356.48 691.599C1356.56 687.747 1355.24 682.724 1351.12 679.212C1347.19 675.586 1339.23 675.398 1335.37 680.949C1335.22 681.176 1335.11 681.402 1334.96 681.629L1336.81 682.12C1336.96 678.192 1337.03 673.925 1334.92 670.451C1332.84 667.09 1328.58 665.126 1325.14 666.75L1326.31 667.354C1325.59 664.257 1323.7 661.878 1321.7 660.443C1319.74 658.932 1317.59 658.29 1315.89 658.026C1314.15 657.799 1312.75 658.026 1311.88 658.215C1311.02 658.479 1310.56 658.706 1310.6 658.781V658.857Z" fill="#455A64"/>
<path d="M1401.46 708.328C1401.46 708.328 1402.44 708.253 1403.95 707.46C1405.42 706.667 1407.54 705.194 1409.31 702.701C1411.13 700.247 1412.68 696.697 1412.68 692.505C1412.68 690.466 1412.34 688.502 1413.39 687.105C1414.34 685.632 1416.6 684.499 1417.81 682.12C1420.19 677.248 1418.04 671.395 1413.88 669.355L1414.11 670.753C1418.11 666.372 1420.15 661.689 1421.1 658.366C1422.04 655.005 1422.04 652.966 1421.89 652.928C1421.66 652.89 1421.29 654.854 1420.08 658.026C1418.87 661.161 1416.68 665.504 1412.79 669.507L1411.96 670.375L1413.02 670.904C1416.15 672.49 1417.92 677.437 1416 681.213C1415.21 682.988 1413.17 683.97 1411.73 686.01C1410.22 688.275 1410.79 690.768 1410.83 692.543C1410.94 696.244 1409.65 699.529 1408.14 701.908C1404.97 706.742 1401.2 707.988 1401.42 708.291L1401.46 708.328Z" fill="#455A64"/>
<path d="M1428.2 722.603C1428.2 722.603 1428.76 722.716 1429.82 722.641C1430.88 722.565 1432.43 722.339 1434.35 721.735C1438.13 720.602 1443.6 717.845 1447.76 712.067L1446.51 712.18C1449.34 715.126 1453.76 716.976 1458.52 716.938C1460.9 716.938 1463.36 716.372 1465.66 715.315C1467.85 714.144 1470.23 712.709 1471.29 709.801C1471.63 708.706 1471.59 707.686 1471.74 706.931C1471.89 706.213 1472.23 705.571 1472.76 705.005C1473.82 703.872 1475.44 703.192 1476.99 702.55C1478.57 701.946 1480.39 701.153 1481.75 699.982C1483.14 698.849 1484.35 696.923 1483.97 694.922L1482.84 695.904C1487.18 697.112 1491.45 696.395 1494.66 694.884C1497.95 693.411 1500.33 691.221 1501.87 689.182C1503.42 687.105 1504.18 685.179 1504.52 683.857C1504.82 682.497 1504.86 681.78 1504.78 681.742C1504.48 681.629 1504.22 684.725 1501.04 688.502C1499.46 690.315 1497.15 692.278 1494.06 693.525C1491.04 694.846 1487.11 695.337 1483.33 694.204L1481.97 693.789L1482.2 695.186C1482.39 696.395 1481.71 697.603 1480.54 698.547C1479.37 699.529 1477.97 700.171 1476.27 700.775C1474.65 701.455 1472.83 702.135 1471.32 703.683C1470.57 704.438 1470.04 705.496 1469.81 706.553C1469.62 707.611 1469.62 708.517 1469.4 709.197C1468.79 711.085 1466.72 712.558 1464.79 713.54C1462.79 714.484 1460.6 714.975 1458.48 715.05C1454.22 715.126 1450.21 713.54 1447.65 711.009L1446.93 710.33L1446.36 711.123C1442.62 716.599 1437.56 719.469 1434.01 720.828C1430.39 722.188 1428.12 722.339 1428.12 722.565L1428.2 722.603Z" fill="#455A64"/>
<path d="M1587.45 765.428C1587.45 765.428 1587.56 765.202 1587.6 764.749C1587.68 764.295 1587.71 763.616 1587.71 762.709C1587.68 760.934 1587.3 758.215 1585.94 755.119C1584.66 751.984 1582.43 748.51 1579.56 744.809C1578.08 742.996 1576.65 740.957 1574.57 739.144C1573.55 738.276 1572.38 737.407 1570.91 736.916C1569.51 736.35 1567.59 736.425 1566.15 737.445L1567.47 738.087C1567.43 733.555 1564.72 728.797 1560.07 726.531C1555.43 724.303 1549.23 725.171 1545.27 729.175L1546.89 729.779C1546.66 726.984 1544.97 724.378 1542.51 722.906C1540.02 721.395 1536.69 721.433 1534.13 722.792C1532.69 723.548 1531.45 724.681 1530.65 726.078L1532.47 726.531C1532.43 724.68 1531.26 723.094 1529.93 722.188C1528.58 721.244 1526.99 720.791 1525.37 720.829C1522.19 720.98 1519.63 722.528 1517.32 723.85L1518.53 724.076C1516.26 721.168 1512.79 719.62 1509.5 719.129C1506.18 718.638 1502.9 719.129 1500.03 720.187C1494.25 722.339 1489.98 726.04 1486.24 729.061L1487.37 729.816C1487.75 728.684 1487.37 727.286 1486.62 726.493C1485.86 725.662 1484.92 725.247 1484.01 724.945C1482.2 724.378 1480.39 724.341 1478.76 724.718C1475.67 725.549 1473.21 726.758 1471.32 727.89C1469.44 729.061 1468.11 730.156 1467.25 730.949C1466.42 731.742 1466 732.233 1466.04 732.271C1466.15 732.422 1467.89 730.647 1471.7 728.57C1473.59 727.551 1476.05 726.493 1479.03 725.813C1480.43 725.511 1482.09 725.625 1483.6 726.153C1485.15 726.644 1486.54 727.891 1486.01 729.401L1485.18 731.629L1487.11 730.156C1490.92 727.211 1495.19 723.699 1500.59 721.81C1503.27 720.866 1506.26 720.489 1509.24 720.942C1512.19 721.395 1515.13 722.792 1517.02 725.247L1517.51 725.889L1518.23 725.474C1520.53 724.152 1522.87 722.83 1525.4 722.755C1527.71 722.641 1530.46 724.341 1530.5 726.569L1530.58 730.005L1532.31 727.022C1532.92 725.964 1533.9 725.058 1535.03 724.492C1537.07 723.397 1539.6 723.397 1541.53 724.529C1543.45 725.662 1544.81 727.739 1545 729.854L1545.15 731.969L1546.63 730.458C1549.95 727.06 1555.35 726.229 1559.28 728.117C1563.24 729.968 1565.74 734.159 1565.81 738.049V739.673L1567.13 738.729C1569.06 737.294 1571.78 738.691 1573.59 740.239C1575.48 741.826 1576.99 743.827 1578.5 745.602C1581.41 749.152 1583.71 752.475 1585.07 755.458C1587.9 761.425 1587.15 765.428 1587.45 765.391V765.428Z" fill="#455A64"/>
<path d="M1582.8 823.321C1582.8 823.321 1583.14 822.906 1583.64 822C1584.13 821.093 1584.81 819.734 1585.49 817.845C1586.13 815.995 1586.81 813.503 1586.24 810.595C1585.94 809.16 1585.33 807.649 1584.28 806.327C1583.26 805.006 1581.63 803.835 1579.67 803.533L1580.2 804.515C1581.67 801.796 1581.67 797.906 1579.52 794.885C1577.37 791.864 1572.99 790.315 1569.02 791.712L1570.08 792.996C1571.7 790.277 1570.98 786.69 1568.83 784.424C1566.6 782.083 1563.28 781.252 1560.15 781.478C1558.52 781.592 1557.05 782.045 1555.8 781.932C1554.56 781.894 1553.69 781.138 1552.86 779.892C1552.03 778.721 1551.35 777.135 1549.91 776.002C1548.59 774.832 1546.78 774.114 1545.08 774.001C1541.34 773.661 1537.98 774.53 1534.73 774.87C1531.52 775.285 1528.31 775.172 1526.12 773.359C1525.06 772.49 1524.19 771.169 1523.06 769.96C1521.89 768.714 1520.38 767.845 1518.83 767.354C1515.7 766.41 1512.3 766.977 1509.84 768.827L1511.13 769.885C1512.75 766.599 1511.17 763.087 1509.09 761.086C1506.9 758.933 1503.95 758.329 1501.46 758.291C1496.32 758.366 1492.28 759.99 1488.96 761.237C1485.67 762.596 1483.3 764.031 1481.71 765.089C1480.12 766.146 1479.37 766.826 1479.41 766.901C1479.56 767.128 1482.8 764.635 1489.3 762.181C1492.55 761.086 1496.7 759.651 1501.38 759.688C1503.69 759.764 1506.22 760.406 1507.96 762.218C1509.69 763.918 1510.79 766.826 1509.58 769.129L1507.84 772.377L1510.83 770.187C1512.83 768.714 1515.7 768.261 1518.27 769.054C1519.55 769.469 1520.76 770.187 1521.7 771.169C1522.68 772.188 1523.51 773.586 1524.91 774.756C1526.31 775.889 1528.05 776.569 1529.78 776.796C1531.52 777.022 1533.26 776.909 1534.96 776.72C1538.32 776.342 1541.68 775.549 1544.85 775.851C1546.32 775.965 1547.61 776.531 1548.63 777.4C1549.72 778.193 1550.33 779.59 1551.27 780.912C1552.1 782.271 1553.76 783.744 1555.69 783.744C1557.5 783.82 1558.94 783.329 1560.26 783.253C1562.98 783.027 1565.77 783.782 1567.47 785.557C1569.17 787.294 1569.7 790.126 1568.57 791.977L1567.25 794.129L1569.59 793.261C1572.72 792.09 1576.46 793.336 1578.2 795.753C1580.01 798.208 1580.09 801.531 1578.91 803.797L1578.46 804.666L1579.41 804.779C1582.62 805.194 1584.5 808.253 1585.07 810.708C1585.67 813.276 1585.15 815.693 1584.65 817.506C1583.52 821.206 1582.5 823.132 1582.69 823.208L1582.8 823.321Z" fill="#455A64"/>
<path d="M1592.4 941.524C1592.4 941.524 1593.12 941.373 1594.21 940.693C1595.31 940.014 1596.86 938.805 1598.25 936.728C1599.61 934.689 1600.82 931.705 1600.63 928.156C1600.44 924.681 1598.86 920.678 1595.5 917.77L1595.68 918.79C1597.27 915.92 1599.23 912.672 1599.69 908.594C1599.91 906.554 1599.54 904.402 1598.55 902.438C1597.57 900.512 1595.84 898.699 1593.46 898.133L1593.83 899.832C1596.93 897.415 1598.18 893.11 1597.57 889.183C1597.23 886.955 1596.33 884.802 1594.89 883.065C1593.53 881.328 1591.3 880.119 1589.45 879.628C1587.53 879.024 1586.58 878.231 1586.32 876.381C1586.02 874.53 1585.41 872.491 1584.39 870.867C1582.43 867.43 1579.11 865.467 1576.35 863.918C1573.52 862.332 1570.95 860.784 1568.49 859.5C1563.62 856.856 1559.2 855.421 1556.07 855.233C1554.52 855.081 1553.27 855.232 1552.48 855.346C1551.69 855.497 1551.27 855.61 1551.27 855.686C1551.27 855.875 1553.01 855.535 1555.99 856.026C1558.98 856.441 1563.13 857.989 1567.85 860.746C1570.23 862.181 1572.84 863.73 1575.56 865.353C1578.31 867.015 1581.22 868.79 1582.88 871.811C1583.75 873.322 1584.24 874.908 1584.54 876.796C1584.73 877.74 1585.03 878.986 1585.98 879.855C1586.89 880.723 1587.94 881.139 1588.89 881.479C1592.63 882.385 1595.12 885.633 1595.72 889.523C1596.25 892.884 1595.16 896.433 1592.74 898.359L1591.19 899.568L1593.12 900.059C1596.59 900.927 1598.37 905.119 1597.99 908.443C1597.65 911.955 1595.91 915.127 1594.36 917.997L1594.06 918.601L1594.59 919.017C1597.65 921.509 1599.2 925.059 1599.46 928.231C1599.76 931.441 1598.78 934.198 1597.61 936.199C1595.16 940.202 1592.36 941.26 1592.55 941.486L1592.4 941.524Z" fill="#455A64"/>
<path d="M1526.31 897.755C1526.31 897.755 1527.25 897.642 1528.92 896.887C1530.54 896.169 1532.84 894.847 1535.34 892.619C1537.79 890.391 1540.4 887.106 1542.06 882.725C1542.85 880.572 1543.64 877.891 1542.55 875.134C1542.02 873.737 1540.7 872.566 1539.22 872.151C1537.79 871.66 1535.71 871.887 1534.58 873.473L1536.13 874.19C1536.69 872 1537.53 869.394 1536.66 866.6C1536.2 865.24 1535.3 863.994 1533.94 863.201C1532.58 862.332 1530.65 862.559 1529.44 863.05C1528.2 863.503 1526.88 864.069 1526.16 863.881C1525.44 863.729 1525.18 862.861 1525.1 861.426C1524.84 858.405 1523.21 855.572 1520.91 853.571C1517.21 850.361 1511.73 849.152 1507.35 851.229L1508.71 852.249C1509.24 848.586 1508.71 844.281 1505.54 841.788C1503.92 840.58 1501.91 840.316 1500.1 840.693C1498.33 841.033 1496.51 842.393 1496.14 844.319L1497.8 844.47C1497.5 839.032 1495.49 834.273 1492.96 830.723C1490.47 827.098 1487.45 824.643 1484.81 823.019C1482.13 821.396 1479.78 820.602 1478.16 820.187C1476.54 819.809 1475.63 819.734 1475.63 819.809C1475.52 820.112 1479.18 820.489 1484.24 823.85C1486.69 825.55 1489.53 828.004 1491.79 831.516C1494.13 834.953 1495.87 839.485 1496.1 844.545L1496.4 851.645L1497.8 844.734C1498.29 842.355 1502.29 841.562 1504.41 843.261C1506.71 845.074 1507.31 848.661 1506.79 851.985L1506.52 853.76L1508.14 853.004C1511.69 851.305 1516.42 852.287 1519.59 855.081C1521.55 856.781 1522.87 859.122 1523.1 861.615C1523.17 862.294 1523.18 863.05 1523.51 863.881C1523.82 864.749 1524.65 865.542 1525.63 865.769C1527.59 866.109 1528.8 865.202 1530.01 864.862C1531.22 864.409 1532.13 864.334 1532.99 864.862C1533.86 865.353 1534.54 866.26 1534.88 867.242C1535.56 869.243 1535 871.584 1534.43 873.775L1533.14 878.684L1535.98 874.492C1537.11 872.831 1540.43 873.85 1541.04 875.814C1541.91 877.853 1541.38 880.27 1540.66 882.272C1539.19 886.426 1536.81 889.636 1534.54 891.902C1529.93 896.433 1526.08 897.491 1526.23 897.793L1526.31 897.755Z" fill="#455A64"/>
<path d="M1416.26 788.918C1416.26 788.918 1418.57 788.238 1421.74 786.01C1423.29 784.877 1425.1 783.291 1426.46 780.912C1427.71 778.571 1428.54 775.436 1427.44 772.302C1427.22 771.584 1426.84 770.942 1426.42 770.376L1426.16 771.773C1428.69 770.112 1430.01 767.355 1430.24 764.862C1430.46 762.294 1429.48 760.104 1428.31 758.707C1425.86 755.837 1423.33 755.799 1423.36 755.988C1423.21 756.29 1425.44 756.818 1427.25 759.462C1428.12 760.784 1428.8 762.596 1428.5 764.636C1428.23 766.637 1427.06 768.828 1425.1 770.112L1424.31 770.64L1424.87 771.509C1425.14 771.962 1425.44 772.415 1425.63 772.982C1426.5 775.361 1425.93 778.042 1424.91 780.081C1423.85 782.121 1422.31 783.707 1420.91 784.915C1418.11 787.332 1416.11 788.654 1416.3 788.918H1416.26Z" fill="#455A64"/>
<path d="M1368.95 772.981C1369.25 772.868 1366.6 770.791 1366.79 766.032C1366.94 763.804 1368.04 760.972 1370.68 759.461C1373.25 757.951 1377.22 757.724 1380.09 759.877L1381.41 760.896L1381.56 759.235C1381.71 757.233 1382.2 755.156 1383.14 753.268C1384.05 751.417 1385.67 749.756 1387.6 749.303C1390.66 748.547 1394.44 751.04 1393.87 753.683L1395.72 753.872C1395.72 749.794 1397.57 746.093 1399.99 743.638C1402.4 741.146 1405.43 739.975 1407.96 739.559C1413.13 738.766 1416.15 740.466 1416.23 740.126C1416.26 740.05 1415.58 739.559 1414.19 739.068C1412.79 738.578 1410.56 738.087 1407.8 738.389C1405.05 738.691 1401.69 739.824 1398.89 742.505C1396.14 745.149 1393.98 749.189 1393.91 753.872L1395.8 754.023C1396.21 751.908 1394.96 749.718 1393.27 748.623C1391.57 747.452 1389.41 746.961 1387.26 747.414C1384.47 748.132 1382.62 750.247 1381.52 752.437C1380.43 754.627 1379.97 756.931 1379.82 759.121L1381.29 758.442C1377.59 755.798 1372.95 756.251 1369.96 758.139C1366.83 760.103 1365.7 763.502 1365.74 765.994C1365.74 768.562 1366.68 770.488 1367.47 771.546C1368.3 772.641 1368.95 773.019 1369.02 772.943L1368.95 772.981Z" fill="#455A64"/>
<path d="M1365.55 1009.8C1365.55 1009.8 1366.79 1010.1 1369.02 1009.8C1371.25 1009.46 1374.42 1008.48 1377.86 1006.37C1379.6 1005.31 1381.33 1003.95 1382.96 1002.17C1384.54 1000.4 1386.09 998.208 1386.81 995.489C1388.02 990.013 1386.39 983.895 1383.11 978.684C1381.03 975.323 1378.35 972.528 1375.4 970.489L1375.06 970.225L1374.69 970.376C1365.85 974.114 1359.17 978.986 1354.52 982.498C1352.22 984.311 1350.44 985.821 1349.31 986.954C1348.14 988.049 1347.57 988.729 1347.65 988.805C1347.8 988.956 1350.37 986.652 1355.12 983.329C1359.88 980.081 1366.68 975.361 1375.25 971.848L1374.5 971.773C1377.22 973.699 1379.75 976.38 1381.71 979.515C1384.81 984.424 1386.36 990.24 1385.34 995.074C1384.05 999.87 1380.35 1003.19 1377.22 1005.31C1374.01 1007.46 1370.99 1008.56 1368.91 1009.08C1366.79 1009.58 1365.55 1009.58 1365.55 1009.73V1009.8Z" fill="#263238"/>
<path d="M1116.34 1205.35C1116.34 1205.35 1206.52 1407.76 1219.17 1417.58C1221.74 1419.58 1236.46 1437.03 1258.33 1437.56C1344.58 1439.67 1541.98 1456.03 1541.98 1456.03L1569.55 1341.71L1332.54 1324.76L1213.2 1162.52L1116.37 1205.35H1116.34Z" fill="#278DB4"/>
<path d="M1387.6 1355.84C1387.6 1355.84 1257.27 1561.54 1244.89 1577.17C1217.55 1611.62 1181.07 1629.7 1129.71 1615.69C1078.35 1601.68 941.715 1527.25 941.715 1527.25L982.576 1434.24L1142.47 1468.34L1266.11 1220.53C1278.95 1193.22 1301.65 1171.43 1330.01 1161.05C1349.34 1153.99 1372.83 1144.89 1398.51 1154.82L1387.64 1355.87L1387.6 1355.84Z" fill="#278DB4"/>
<path d="M1359.39 1144.36L1511.13 1117.96C1538.17 1113.28 1616.53 1157.08 1633.9 1197.68L1747.87 1638.28H1375.93L1358.78 1513.54C1358.78 1513.54 1307.01 1455.72 1297.34 1443.75C1287.71 1431.78 1359.35 1144.32 1359.35 1144.32L1359.39 1144.36Z" fill="#278DB4"/>
<path d="M1353.95 1154.78L1348.06 1116.79C1347 1109.99 1351.65 1103.61 1358.45 1102.55L1515.02 1077.78C1521.89 1076.68 1528.31 1081.44 1529.33 1088.31L1535.79 1132.76L1353.95 1154.74V1154.78Z" fill="#278DB4"/>
<path d="M1353.99 1152.36C1353.99 1152.36 1353.23 1152.78 1351.69 1153.38C1349.99 1154.06 1347.72 1154.93 1344.85 1156.06C1338.69 1158.41 1329.93 1161.73 1318.91 1165.92H1318.98C1311.32 1170.11 1302.7 1175.66 1294.43 1183.41C1286.09 1191.07 1278.46 1201.12 1271.7 1212.71C1264.94 1224.34 1258.6 1237.33 1251.76 1250.85C1245 1264.41 1237.98 1278.61 1230.69 1293.22C1206.63 1341.64 1184.88 1385.44 1169.02 1417.36C1161.05 1433.18 1154.52 1445.98 1149.91 1454.78C1147.61 1459.16 1145.79 1462.56 1144.51 1464.86C1143.91 1465.92 1143.45 1466.75 1143.04 1467.47C1142.7 1468.04 1142.51 1468.34 1142.47 1468.34C1142.43 1468.34 1142.58 1468 1142.85 1467.39C1143.19 1466.68 1143.6 1465.81 1144.13 1464.71C1145.34 1462.22 1147.04 1458.82 1149.19 1454.48C1153.65 1445.45 1159.96 1432.61 1167.73 1416.79C1183.44 1384.84 1205.05 1340.92 1228.88 1292.43C1236.16 1277.82 1243.23 1263.65 1249.99 1250.1C1256.86 1236.58 1263.24 1223.62 1270.11 1211.92C1276.99 1200.25 1284.8 1190.09 1293.34 1182.39C1301.8 1174.61 1310.56 1169.05 1318.34 1164.94H1318.38C1329.48 1160.97 1338.32 1157.8 1344.51 1155.57C1347.46 1154.55 1349.76 1153.76 1351.46 1153.16C1353.04 1152.63 1353.88 1152.36 1353.88 1152.44L1353.99 1152.36Z" fill="#263238"/>
<path d="M1409.99 1326.34C1409.99 1326.34 1409.73 1326.95 1409.05 1327.97C1408.22 1329.17 1407.2 1330.65 1405.99 1332.46C1403.12 1336.58 1399.27 1342.09 1394.62 1348.81C1385.03 1362.6 1371.96 1381.82 1357.92 1403.27C1343.83 1424.72 1331.44 1444.36 1322.42 1458.56C1318.04 1465.47 1314.41 1471.13 1311.73 1475.36C1310.56 1477.17 1309.58 1478.68 1308.75 1479.89C1308.07 1480.91 1307.65 1481.44 1307.61 1481.4C1307.54 1481.4 1307.84 1480.76 1308.44 1479.7C1309.16 1478.42 1310.03 1476.87 1311.09 1474.98C1313.43 1470.9 1316.9 1465.05 1321.25 1457.84C1329.93 1443.45 1342.17 1423.66 1356.25 1402.17C1370.3 1380.68 1383.59 1361.58 1393.49 1347.98C1398.44 1341.18 1402.51 1335.71 1405.39 1332.01C1406.71 1330.31 1407.84 1328.91 1408.75 1327.74C1409.54 1326.8 1409.95 1326.3 1410.03 1326.34H1409.99Z" fill="#263238"/>
<path d="M1535.1 1122C1535.1 1122 1534.61 1122.42 1533.52 1123.1C1532.23 1123.85 1530.69 1124.76 1528.8 1125.89C1526.76 1127.1 1524.23 1128.53 1521.21 1130.04C1518.19 1131.55 1514.79 1133.4 1510.9 1135.07C1507.01 1136.84 1502.78 1138.73 1498.06 1140.47C1493.41 1142.39 1488.35 1144.02 1482.99 1145.83C1472.23 1149.19 1460.22 1152.25 1447.42 1154.44C1434.58 1156.55 1422.23 1157.57 1410.97 1157.91C1405.35 1157.91 1399.98 1158.07 1395 1157.76C1389.98 1157.65 1385.33 1157.23 1381.1 1156.86C1376.87 1156.55 1373.06 1155.91 1369.7 1155.5C1366.34 1155.08 1363.47 1154.55 1361.16 1154.06C1359.01 1153.61 1357.23 1153.27 1355.8 1152.97C1354.59 1152.7 1353.95 1152.51 1353.95 1152.44C1353.95 1152.36 1354.63 1152.44 1355.88 1152.55C1357.35 1152.74 1359.12 1153 1361.28 1153.31C1363.62 1153.68 1366.49 1154.1 1369.85 1154.4C1373.21 1154.74 1376.99 1155.27 1381.22 1155.5C1385.44 1155.8 1390.05 1156.14 1395.04 1156.18C1400.02 1156.4 1405.31 1156.21 1410.9 1156.18C1422.08 1155.72 1434.31 1154.67 1447.08 1152.59C1459.8 1150.4 1471.74 1147.42 1482.42 1144.21C1487.75 1142.47 1492.81 1140.88 1497.45 1139.07C1502.14 1137.41 1506.4 1135.6 1510.29 1133.93C1514.22 1132.35 1517.62 1130.61 1520.68 1129.21C1523.74 1127.82 1526.31 1126.49 1528.42 1125.4C1530.38 1124.42 1531.97 1123.59 1533.29 1122.94C1534.43 1122.42 1535.03 1122.15 1535.07 1122.19L1535.1 1122Z" fill="#263238"/>
<path d="M1332.28 1436.73C1332.28 1436.73 1330.31 1435.75 1326.99 1433.67C1323.36 1431.4 1318.64 1428.42 1312.9 1424.83C1300.74 1417.17 1284.5 1406.93 1266.53 1395.6C1248.4 1384.16 1232.09 1373.66 1220.42 1365.88C1214.56 1361.99 1209.88 1358.78 1206.67 1356.52C1203.46 1354.25 1201.72 1352.93 1201.8 1352.82C1201.87 1352.7 1203.76 1353.8 1207.09 1355.88C1210.71 1358.14 1215.43 1361.12 1221.13 1364.71C1233.29 1372.38 1249.53 1382.61 1267.51 1393.94C1285.6 1405.38 1301.91 1415.88 1313.58 1423.66C1319.44 1427.55 1324.12 1430.76 1327.33 1433.03C1330.54 1435.29 1332.28 1436.62 1332.2 1436.73H1332.28Z" fill="white"/>
<path d="M1358.79 1395.79C1358.79 1395.79 1356.75 1394.89 1353.2 1392.88C1349.65 1390.92 1344.63 1387.94 1338.43 1384.2C1326.05 1376.72 1309.24 1365.96 1290.66 1354.1C1272.08 1342.24 1255.05 1331.86 1242.51 1324.68C1236.24 1321.09 1231.14 1318.22 1227.63 1316.3C1224.12 1314.33 1222.19 1313.2 1222.23 1313.09C1222.31 1312.97 1224.35 1313.88 1227.97 1315.62C1231.63 1317.36 1236.81 1320.04 1243.19 1323.47C1255.92 1330.35 1273.1 1340.58 1291.72 1352.44C1310.11 1364.3 1326.76 1375.02 1339.15 1383.03C1345 1386.77 1349.87 1389.86 1353.58 1392.24C1356.97 1394.43 1358.82 1395.68 1358.75 1395.79H1358.79Z" fill="white"/>
<path d="M1698.97 1449.19C1698.97 1449.19 1698.66 1449.3 1698.02 1449.42C1697.27 1449.53 1696.36 1449.68 1695.23 1449.87C1692.62 1450.25 1689.03 1450.78 1684.46 1451.42C1675.1 1452.74 1661.54 1454.44 1644.77 1456.29C1611.24 1460.1 1564.75 1464.26 1513.35 1467.69C1461.96 1471.13 1415.36 1473.59 1381.67 1475.4C1364.94 1476.27 1351.35 1476.99 1341.75 1477.48C1337.15 1477.66 1333.52 1477.85 1330.88 1477.97C1329.74 1477.97 1328.8 1478 1328.04 1478.04C1327.4 1478.04 1327.06 1478.04 1327.06 1478C1327.06 1478 1327.4 1477.93 1328.01 1477.85C1328.76 1477.78 1329.67 1477.7 1330.84 1477.59C1333.48 1477.4 1337.11 1477.1 1341.68 1476.72C1351.27 1476.08 1364.83 1475.17 1381.56 1474.04C1415.39 1471.92 1461.84 1468.98 1513.2 1465.77C1564.56 1462.29 1611.01 1458.37 1644.59 1454.93C1661.35 1453.23 1674.95 1451.76 1684.31 1450.66C1688.88 1450.17 1692.51 1449.76 1695.11 1449.49C1696.25 1449.38 1697.19 1449.3 1697.95 1449.23C1698.59 1449.19 1698.93 1449.19 1698.93 1449.23L1698.97 1449.19Z" fill="white"/>
<path d="M1681.67 1382.31C1681.67 1382.31 1680.54 1382.5 1678.31 1382.69C1675.93 1382.88 1672.72 1383.1 1668.68 1383.4C1660.15 1383.97 1648.1 1384.8 1633.3 1385.82C1603.42 1387.86 1562.15 1390.96 1516.6 1394.89C1471.06 1398.81 1429.86 1402.82 1400.02 1405.8C1385.26 1407.27 1373.25 1408.44 1364.71 1409.27C1360.67 1409.65 1357.46 1409.92 1355.12 1410.14C1352.93 1410.33 1351.76 1410.37 1351.76 1410.33C1351.76 1410.26 1352.89 1410.07 1355.09 1409.76C1357.43 1409.46 1360.64 1409.05 1364.64 1408.52C1373.14 1407.54 1385.15 1406.14 1399.87 1404.4C1429.67 1401.08 1470.83 1396.85 1516.41 1392.92C1561.96 1388.99 1603.27 1386.12 1633.18 1384.42C1648.14 1383.56 1660.26 1382.95 1668.64 1382.65C1672.68 1382.5 1675.89 1382.39 1678.27 1382.31C1680.46 1382.27 1681.63 1382.27 1681.63 1382.31H1681.67Z" fill="white"/>
<g opacity="0.3">
<path d="M1317.25 1466.83C1357.24 1441.98 1384.73 1400.51 1389.72 1353.72L1317.25 1466.83Z" fill="black"/>
</g>
<path d="M1500.53 219.444C1507.33 211.627 1515.11 204.905 1523.53 199.278L1520.58 171.068L1564.99 156L1579.8 180.169C1589.88 179.489 1600.15 180.094 1610.31 182.171L1628.14 160.154L1670.21 180.887L1663.6 208.455C1671.41 215.252 1678.14 223.032 1683.76 231.453L1711.94 228.508L1727 272.919L1702.83 287.76C1703.51 297.843 1702.91 308.115 1700.83 318.274L1722.85 336.098L1702.12 378.168L1674.55 371.559C1667.75 379.376 1659.97 386.098 1651.55 391.725L1654.5 419.935L1610.08 435.003L1595.24 410.834C1585.16 411.514 1574.89 410.91 1564.73 408.833L1546.9 430.849L1504.84 410.117L1511.44 382.549C1503.63 375.751 1496.9 367.972 1491.28 359.55L1463.07 362.496L1448 318.085L1472.17 303.243C1471.49 293.16 1472.13 282.888 1474.17 272.73L1452.15 254.905L1472.89 212.835L1500.45 219.444H1500.53ZM1543.39 271.295C1531.12 296.219 1541.35 326.393 1566.28 338.666C1591.2 350.94 1621.38 340.706 1633.65 315.781C1645.92 290.857 1635.69 260.683 1610.76 248.409C1585.84 236.136 1555.67 246.37 1543.39 271.295Z" fill="#F5F5F5"/>
</g>
<defs>
<clipPath id="clip0_121_8319">
<rect width="1731" height="1572" fill="white" transform="translate(35 74)"/>
</clipPath>
</defs>
</svg>
